<?xml version="1.0" encoding="UTF-8"?>
<svg width="12px" height="15px" viewBox="0 0 12 15" version="1.1" xmlns="http://www.w3.org/2000/svg" xmlns:xlink="http://www.w3.org/1999/xlink">
    <!-- Generator: Sketch 52.4 (67378) - http://www.bohemiancoding.com/sketch -->
    <title>Group 5</title>
    <desc>Created with Sketch.</desc>
    <g id="changed-prayer" stroke="none" stroke-width="1" fill="none" fill-rule="evenodd">
        <g id="journal-copy-5" transform="translate(-290.000000, -147.000000)" fill="#555555" fill-rule="nonzero">
            <g id="Group-5" transform="translate(290.000000, 147.000000)">
                <path d="M10.730998,8.6784141 L10.730998,0.550660793 C10.730998,0.242290749 10.5128883,0 10.2352941,0 C9.95769993,0 9.73959022,0.242290749 9.73959022,0.550660793 L9.73959022,8.6784141 C9.00594845,8.92070485 8.47058824,9.66960352 8.47058824,10.5726872 C8.47058824,11.4537445 9.00594845,12.2246696 9.73959022,12.4449339 L9.73959022,14.4493392 C9.73959022,14.7577093 9.95769993,15 10.2352941,15 C10.5128883,15 10.730998,14.7577093 10.730998,14.4493392 L10.730998,12.4449339 C11.4646398,12.2026432 12,11.4537445 12,10.5726872 C12,9.66960352 11.4646398,8.92070485 10.730998,8.6784141 Z M10.2352941,11.4096916 C9.79907469,11.4096916 9.46199603,11.0132159 9.46199603,10.5506608 C9.46199603,10.0881057 9.79907469,9.69162996 10.2352941,9.69162996 C10.6715135,9.69162996 11.0085922,10.0881057 11.0085922,10.5506608 C11.0085922,11.0132159 10.6715135,11.4096916 10.2352941,11.4096916 Z" id="Shape"></path>
                <path d="M6.4957039,2.07048458 L6.4957039,0.550660793 C6.4957039,0.242290749 6.27759418,0 6,0 C5.72240582,0 5.5042961,0.242290749 5.5042961,0.550660793 L5.5042961,2.07048458 C4.77065433,2.31277533 4.23529412,3.06167401 4.23529412,3.96475771 C4.23529412,4.84581498 4.77065433,5.61674009 5.5042961,5.83700441 L5.5042961,14.4493392 C5.5042961,14.7577093 5.72240582,15 6,15 C6.27759418,15 6.4957039,14.7577093 6.4957039,14.4493392 L6.4957039,5.83700441 C7.22934567,5.59471366 7.76470588,4.84581498 7.76470588,3.96475771 C7.76470588,3.06167401 7.22934567,2.31277533 6.4957039,2.07048458 Z M6,4.80176211 C5.56378057,4.80176211 5.22670192,4.40528634 5.22670192,3.94273128 C5.22670192,3.48017621 5.56378057,3.08370044 6,3.08370044 C6.43621943,3.08370044 6.77329808,3.48017621 6.77329808,3.94273128 C6.77329808,4.40528634 6.43621943,4.80176211 6,4.80176211 Z" id="Shape"></path>
                <path d="M2.26040978,6.03524229 L2.26040978,0.550660793 C2.26040978,0.242290749 2.04230007,0 1.76470588,0 C1.4871117,0 1.26900198,0.242290749 1.26900198,0.550660793 L1.26900198,6.03524229 C0.535360212,6.27753304 0,7.02643172 0,7.92951542 C0,8.81057269 0.535360212,9.5814978 1.26900198,9.80176211 L1.26900198,14.4493392 C1.26900198,14.7577093 1.4871117,15 1.76470588,15 C2.04230007,15 2.26040978,14.7577093 2.26040978,14.4493392 L2.26040978,9.80176211 C2.99405155,9.55947137 3.52941176,8.81057269 3.52941176,7.92951542 C3.52941176,7.02643172 2.99405155,6.27753304 2.26040978,6.03524229 Z M1.76470588,8.76651982 C1.32848645,8.76651982 0.991407799,8.37004405 0.991407799,7.90748899 C0.991407799,7.44493392 1.32848645,7.04845815 1.76470588,7.04845815 C2.20092531,7.04845815 2.53800397,7.44493392 2.53800397,7.90748899 C2.53800397,8.37004405 2.20092531,8.76651982 1.76470588,8.76651982 Z" id="Shape"></path>
            </g>
        </g>
    </g>
</svg>