<?xml version="1.0" encoding="UTF-8"?>
<svg width="18px" height="4px" viewBox="0 0 18 4" version="1.1" xmlns="http://www.w3.org/2000/svg" xmlns:xlink="http://www.w3.org/1999/xlink">
    <!-- Generator: Sketch 52.2 (67145) - http://www.bohemiancoding.com/sketch -->
    <title>menu big</title>
    <desc>Created with Sketch.</desc>
    <g id="Page-1" stroke="none" stroke-width="1" fill="none" fill-rule="evenodd" opacity="0.601074219">
        <g id="journal-copy-6" transform="translate(-1271.000000, -150.000000)" fill="#777777">
            <path d="M1273,154 C1271.89543,154 1271,153.104569 1271,152 C1271,150.895431 1271.89543,150 1273,150 C1274.10457,150 1275,150.895431 1275,152 C1275,153.104569 1274.10457,154 1273,154 Z M1280,154 C1278.89543,154 1278,153.104569 1278,152 C1278,150.895431 1278.89543,150 1280,150 C1281.10457,150 1282,150.895431 1282,152 C1282,153.104569 1281.10457,154 1280,154 Z M1287,154 C1285.89543,154 1285,153.104569 1285,152 C1285,150.895431 1285.89543,150 1287,150 C1288.10457,150 1289,150.895431 1289,152 C1289,153.104569 1288.10457,154 1287,154 Z" id="menu-big"></path>
        </g>
    </g>
</svg>