<?xml version="1.0" encoding="UTF-8"?>
<svg width="8px" height="2px" viewBox="0 0 8 2" version="1.1" xmlns="http://www.w3.org/2000/svg" xmlns:xlink="http://www.w3.org/1999/xlink">
    <!-- Generator: Sketch 52.2 (67145) - http://www.bohemiancoding.com/sketch -->
    <title>menu small</title>
    <desc>Created with Sketch.</desc>
    <g id="Page-1" stroke="none" stroke-width="1" fill="none" fill-rule="evenodd" opacity="0.796642485">
        <g id="journal-copy-6" transform="translate(-642.000000, -205.000000)" fill="#777777">
            <path d="M643,207 C642.447715,207 642,206.552285 642,206 C642,205.447715 642.447715,205 643,205 C643.552285,205 644,205.447715 644,206 C644,206.552285 643.552285,207 643,207 Z M645.847458,207 C645.295173,207 644.847458,206.552285 644.847458,206 C644.847458,205.447715 645.295173,205 645.847458,205 C646.399742,205 646.847458,205.447715 646.847458,206 C646.847458,206.552285 646.399742,207 645.847458,207 Z M648.694915,207 C648.142631,207 647.694915,206.552285 647.694915,206 C647.694915,205.447715 648.142631,205 648.694915,205 C649.2472,205 649.694915,205.447715 649.694915,206 C649.694915,206.552285 649.2472,207 648.694915,207 Z" id="menu-small"></path>
        </g>
    </g>
</svg>