<?xml version="1.0" encoding="UTF-8"?>
<svg width="40px" height="40px" viewBox="0 0 40 40" version="1.1" xmlns="http://www.w3.org/2000/svg" xmlns:xlink="http://www.w3.org/1999/xlink">
    <!-- Generator: Sketch 52.2 (67145) - http://www.bohemiancoding.com/sketch -->
    <title>plus</title>
    <desc>Created with Sketch.</desc>
    <defs>
        <linearGradient x1="8.51990086%" y1="0%" x2="138.615896%" y2="134.487026%" id="linearGradient-1">
            <stop stop-color="#EB0202" offset="0%"></stop>
            <stop stop-color="#FF5A5F" offset="100%"></stop>
        </linearGradient>
    </defs>
    <g id="Page-1" stroke="none" stroke-width="1" fill="none" fill-rule="evenodd">
        <g id="journal-copy-6" transform="translate(-450.000000, -704.000000)">
            <g id="plus" transform="translate(450.000000, 704.000000)">
                <circle id="Oval" fill="url(#linearGradient-1)" cx="20" cy="20" r="20"></circle>
                <path d="M20,10 C19.1370312,10 18.4375,10.6995625 18.4375,11.5625 L18.4375,18.4375 L11.5625,18.4375 C10.6995625,18.4375 10,19.1370313 10,20.0000063 C10,20.862975 10.6995625,21.5625063 11.5625,21.5625063 L18.4375,21.5625063 L18.4375,28.4375063 C18.4375,29.3004438 19.1370312,30.0000063 20,30.0000063 C20.8629688,30.0000063 21.5625,29.3004438 21.5625,28.4375063 L21.5625,21.5625063 L28.4375,21.5625063 C29.3004375,21.5625063 30,20.862975 30,20.0000063 C30,19.1370313 29.3004375,18.4375 28.4375,18.4375 L21.5625,18.4375 L21.5625,11.5625 C21.5625,10.6995625 20.8629688,10 20,10 Z" id="Path" fill="#FFFFFF"></path>
            </g>
        </g>
    </g>
</svg>