<?xml version="1.0" encoding="UTF-8"?>
<svg width="14px" height="14px" viewBox="0 0 14 14" version="1.1" xmlns="http://www.w3.org/2000/svg" xmlns:xlink="http://www.w3.org/1999/xlink">
    <!-- Generator: Sketch 52.2 (67145) - http://www.bohemiancoding.com/sketch -->
    <title>Send</title>
    <desc>Created with Sketch.</desc>
    <g id="Page-1" stroke="none" stroke-width="1" fill="none" fill-rule="evenodd">
        <g id="journal-copy-10" transform="translate(-1214.000000, -428.000000)" fill="#D30101" fill-rule="nonzero">
            <g id="Send" transform="translate(1221.000000, 435.000000) rotate(-270.000000) translate(-1221.000000, -435.000000) translate(1214.000000, 428.000000)">
                <path d="M13.7431839,0.256051784 C13.5043137,0.0180565786 13.1481959,-0.0633167822 12.8305773,0.0513059088 L0.580824073,4.42621778 C0.250955718,4.54346542 0.0225853185,4.8470843 0.00158574156,5.19620227 C-0.0194138354,5.54619522 0.169582357,5.87431361 0.48370103,6.03181043 L4.4963702,8.03727004 L9.62464189,4.37459382 L5.96109069,9.50374049 L7.96655029,13.5164097 C8.11617228,13.8130287 8.41979116,13.9993999 8.74965952,13.9993999 C8.76803415,13.9993999 8.78553379,13.9985249 8.80303344,13.99765 C9.15302639,13.9766504 9.45664527,13.749155 9.57476789,13.4184116 L13.9496798,1.1686584 C14.0625525,0.851039799 13.9820541,0.494921972 13.7431839,0.256051784 Z" id="Shape" transform="translate(7.000000, 6.999700) rotate(-90.000000) translate(-7.000000, -6.999700) "></path>
            </g>
        </g>
    </g>
</svg>