<?xml version="1.0" encoding="UTF-8"?>
<svg width="14px" height="11px" viewBox="0 0 14 11" version="1.1" xmlns="http://www.w3.org/2000/svg" xmlns:xlink="http://www.w3.org/1999/xlink">
    <!-- Generator: Sketch 52.2 (67145) - http://www.bohemiancoding.com/sketch -->
    <title>Shape</title>
    <desc>Created with Sketch.</desc>
    <g id="Page-1" stroke="none" stroke-width="1" fill="none" fill-rule="evenodd">
        <g id="journal-copy-10" transform="translate(-1246.000000, -147.000000)" fill="#555555" fill-rule="nonzero">
            <path d="M1246.35393,157.746454 C1246.40803,157.764487 1246.46213,157.782519 1246.53426,157.782519 C1246.69655,157.782519 1246.85885,157.692355 1246.94901,157.53006 C1248.08508,155.366126 1249.3654,153.58088 1253.29655,153.70711 L1253.29655,155.33006 C1253.29655,155.564487 1253.45885,155.798913 1253.67524,155.889077 C1253.8736,155.979241 1254.08999,155.925142 1254.25229,155.762847 L1259.06704,151.70547 C1259.19327,151.615306 1259.24737,151.471044 1259.24737,151.308749 C1259.24737,151.146454 1259.17524,151.020224 1259.04901,150.912028 L1254.23426,147.10711 C1254.07196,146.98088 1253.83754,146.962847 1253.62114,147.071044 C1253.42278,147.179241 1253.29655,147.359569 1253.29655,147.575962 L1253.29655,149.216946 C1246.91294,149.938257 1246.3359,154.572683 1246.10147,156.574323 C1246.0654,156.808749 1246.04737,157.025142 1246.01131,157.169405 C1245.95721,157.403831 1246.10147,157.65629 1246.35393,157.746454 Z M1253.51294,149.920224 C1253.74737,149.902192 1254.01786,149.649733 1254.01786,149.379241 L1254.01786,147.864487 L1258.39983,151.344814 L1254.01786,155.041536 L1254.01786,153.526782 C1254.01786,153.25629 1253.7654,153.003831 1253.49491,152.985798 C1249.68999,152.823503 1248.04901,154.302192 1246.87688,156.159569 C1247.1654,154.067765 1248.01294,150.479241 1253.51294,149.920224 Z" id="Shape"></path>
        </g>
    </g>
</svg>