<?xml version="1.0" encoding="UTF-8"?>
<svg width="14px" height="16px" viewBox="0 0 14 16" version="1.1" xmlns="http://www.w3.org/2000/svg" xmlns:xlink="http://www.w3.org/1999/xlink">
    <!-- Generator: Sketch 52.4 (67378) - http://www.bohemiancoding.com/sketch -->
    <title>noun_baptism_406249</title>
    <desc>Created with Sketch.</desc>
    <g id="Page-1" stroke="none" stroke-width="1" fill="none" fill-rule="evenodd">
        <g id="profile-copy-26" transform="translate(-360.000000, -1561.000000)" fill="#555555" fill-rule="nonzero">
            <g id="card-personal-details-copy-5" transform="translate(270.000000, 1356.000000)">
                <g id="noun_baptism_406249" transform="translate(90.000000, 205.000000)">
                    <path d="M6.67563934,0 C5.88470776,0 5.24112226,0.641938824 5.24112226,1.43286588 C5.24151755,2.22872471 5.88492405,2.86904471 6.67563934,2.86904471 C7.47150268,2.86904471 8.11512584,2.22872471 8.11512584,1.43286588 C8.11512584,0.641938824 7.47150268,0 6.67563934,0 Z M4.7590848,3.16886588 C3.73868424,3.16886588 2.92038532,4.00020706 2.92038532,5.03241412 L2.92038532,9.44529506 C2.92038532,10.2997139 4.05176546,10.2997139 4.05176546,9.44529506 L4.05176546,5.15168 L4.73423755,5.15168 L4.73423755,11.2558362 C5.22297242,11.3442127 5.58495586,11.6420386 5.88052593,11.8654174 C6.05679718,11.9986315 6.20926814,12.1055868 6.34102927,12.1784904 L6.34102927,10.0432809 L7.01521901,10.0432809 L7.01521901,12.170208 C7.14426579,12.0975304 7.29315614,11.9946409 7.46412668,11.8654174 C7.76333854,11.6392527 8.12936094,11.3366833 8.62698014,11.2525233 L8.62863661,5.15167812 L9.2995136,5.15167812 L9.2995136,9.44529506 C9.2995136,10.3097845 10.4242677,10.3097845 10.4242677,9.44529506 L10.4242677,5.05891576 C10.4242677,4.10563576 9.68153111,3.17383341 8.56569016,3.17383341 L4.7590848,3.16893929 L4.7590848,3.16886588 Z M0,11.7594033 L1.88235296e-07,12.8195633 C0.182537035,12.8195633 0.442769694,12.976928 0.793457129,13.2419633 C1.14414984,13.5069986 1.58595181,13.8797045 2.22466108,13.8797045 C2.86338108,13.8797045 3.30517779,13.5069986 3.65586522,13.2419633 C4.00655793,12.976928 4.26512339,12.8195633 4.44766551,12.8195633 C4.63019689,12.8195633 4.89042428,12.976928 5.24112226,13.2419633 C5.59180969,13.5069986 6.03360113,13.8797045 6.6723264,13.8797045 C7.31104621,13.8797045 7.75285365,13.5069986 8.10353035,13.2419633 C8.45421798,12.976928 8.71279416,12.8195633 8.89533101,12.8195633 C9.0778624,12.8195633 9.33808979,12.976928 9.68878776,13.2419633 C10.0394752,13.5069986 10.4812721,13.8797045 11.1199917,13.8797045 C11.7587012,13.8797045 12.2004977,13.5069986 12.5511959,13.2419633 C12.9018833,12.976928 13.1604702,12.8195633 13.3429963,12.8195633 L13.3429963,11.7594033 C12.7042871,11.7594033 12.2624849,12.1304527 11.9117924,12.395488 C11.5611102,12.6605421 11.3025288,12.8195633 11.1199917,12.8195633 C10.9374551,12.8195633 10.6772171,12.6605421 10.326535,12.395488 C9.97584226,12.1304527 9.53404555,11.7594033 8.89533101,11.7594033 C8.25661101,11.7594033 7.81480339,12.1304527 7.46412668,12.395488 C7.11343398,12.6605421 6.85487379,12.8195633 6.6723264,12.8195633 C6.48978447,12.8195633 6.23121864,12.6605421 5.88052612,12.395488 C5.52983849,12.1304527 5.08636386,11.7594033 4.44766551,11.7594033 C3.80894569,11.7594033 3.36713826,12.1304527 3.01646136,12.395488 C2.66576866,12.6605421 2.4072032,12.8195633 2.22466089,12.8195633 C2.04212969,12.8195633 1.78189139,12.6605421 1.43120414,12.395488 C1.08052198,12.1304527 0.63872,11.7594033 0,11.7594033 Z M0,13.8797045 L1.88235296e-07,14.9398645 C0.182537035,14.9398645 0.442769694,15.0972292 0.793457129,15.3622645 C1.14414984,15.6272998 1.58595181,16.0000056 2.22466108,16.0000056 C2.86338108,16.0000056 3.30517779,15.6272998 3.65586522,15.3622645 C4.00655793,15.0972292 4.26512339,14.9398645 4.44766551,14.9398645 C4.63019689,14.9398645 4.89042428,15.0972292 5.24112226,15.3622645 C5.59180969,15.6272998 6.03360113,16.0000056 6.6723264,16.0000056 C7.31104621,16.0000056 7.75285365,15.6272998 8.10353035,15.3622645 C8.45421798,15.0972292 8.71279416,14.9398645 8.89533101,14.9398645 C9.0778624,14.9398645 9.33808979,15.0972292 9.68878776,15.3622645 C10.0394752,15.6272998 10.4812721,16.0000056 11.1199917,16.0000056 C11.7587012,16.0000056 12.2004977,15.6272998 12.5511959,15.3622645 C12.9018833,15.0972292 13.1604702,14.9398645 13.3429963,14.9398645 L13.3429963,13.8797045 C12.7042871,13.8797045 12.2624849,14.2507539 11.9117924,14.515808 C11.5611102,14.7808433 11.3025288,14.9398645 11.1199917,14.9398645 C10.9374551,14.9398645 10.6772171,14.7808433 10.326535,14.515808 C9.97584226,14.2507539 9.53404555,13.8797045 8.89533101,13.8797045 C8.25661101,13.8797045 7.81480339,14.2507539 7.46412668,14.515808 C7.11343398,14.7808433 6.85487379,14.9398645 6.6723264,14.9398645 C6.48978447,14.9398645 6.23121864,14.7808433 5.88052612,14.515808 C5.52983849,14.2507539 5.08636386,13.8797045 4.44766551,13.8797045 C3.80894569,13.8797045 3.36713826,14.2507539 3.01646136,14.515808 C2.66576866,14.7808433 2.4072032,14.9398645 2.22466089,14.9398645 C2.04212969,14.9398645 1.78189139,14.7808433 1.43120414,14.515808 C1.08052198,14.2507539 0.63872,13.8797045 0,13.8797045 Z" id="Shape"></path>
                </g>
            </g>
        </g>
    </g>
</svg>