<?xml version="1.0" encoding="UTF-8"?>
<svg width="12px" height="16px" viewBox="0 0 12 16" version="1.1" xmlns="http://www.w3.org/2000/svg" xmlns:xlink="http://www.w3.org/1999/xlink">
    <!-- Generator: Sketch 52.4 (67378) - http://www.bohemiancoding.com/sketch -->
    <title>noun_newborn_1511879</title>
    <desc>Created with Sketch.</desc>
    <g id="Page-1" stroke="none" stroke-width="1" fill="none" fill-rule="evenodd">
        <g id="profile-copy-26" transform="translate(-362.000000, -1454.000000)" fill="#555555" fill-rule="nonzero">
            <g id="card-personal-details-copy-5" transform="translate(270.000000, 1356.000000)">
                <g id="noun_newborn_1511879" transform="translate(92.000000, 98.000000)">
                    <path d="M4.57142857,5.14285714 C4.57142857,5.45847619 4.31561905,5.71428571 4,5.71428571 C3.68438095,5.71428571 3.42857143,5.45847619 3.42857143,5.14285714 C3.42857143,4.8272381 3.68438095,4.57142857 4,4.57142857 C4.31561905,4.57142857 4.57142857,4.8272381 4.57142857,5.14285714 Z" id="Shape"></path>
                    <path d="M8,5.14285714 C8,5.45847619 7.74419048,5.71428571 7.42857143,5.71428571 C7.11295238,5.71428571 6.85714286,5.45847619 6.85714286,5.14285714 C6.85714286,4.8272381 7.11295238,4.57142857 7.42857143,4.57142857 C7.74419048,4.57142857 8,4.8272381 8,5.14285714 Z" id="Shape"></path>
                    <path d="M6.28571429,7.42857143 L5.14285714,7.42857143 C4.82704762,7.42857143 4.57142857,7.1727619 4.57142857,6.85714286 C4.57142857,6.54152381 4.82704762,6.28571429 5.14285714,6.28571429 L6.28571429,6.28571429 C6.60152381,6.28571429 6.85714286,6.54152381 6.85714286,6.85714286 C6.85714286,7.1727619 6.60152381,7.42857143 6.28571429,7.42857143 Z" id="Shape"></path>
                    <path d="M5.74495238,10.788 L11.4228571,7.66533333 C11.4161905,6.69257143 11.3851429,5.72019048 11.3207619,4.75409524 C11.1434286,2.08819048 8.88952381,0 6.18971429,0 L5.23885714,0 C2.53904762,0 0.285142857,2.08819048 0.107619048,4.75409524 C0.0466666667,5.66857143 0.0173333333,6.58895238 0.00819047619,7.50990476 L5.74495238,10.788 Z M5.71428571,2.28571429 C7.60457143,2.28571429 9.14285714,3.82380952 9.14285714,5.71428571 C9.14285714,7.6047619 7.60457143,9.14285714 5.71428571,9.14285714 C3.824,9.14285714 2.28571429,7.6047619 2.28571429,5.71428571 C2.28571429,3.82380952 3.824,2.28571429 5.71428571,2.28571429 Z" id="Shape"></path>
                    <path d="M11.4121905,8.97561905 C11.3971429,9.73428571 11.3710476,10.4921905 11.3207619,11.2459048 C11.1434286,13.9118095 8.88952381,16 6.18971429,16 L5.23885714,16 C3.78457143,16 2.4632381,15.3904762 1.52247619,14.4146667 L11.4121905,8.97561905 Z" id="Shape"></path>
                    <path d="M4.57142857,11.4335238 L0.815809524,13.4990476 C0.415047619,12.8318095 0.16247619,12.0666667 0.107809524,11.2459048 C0.0542857143,10.443619 0.0276190476,9.63695238 0.0139047619,8.82933333 L4.57142857,11.4335238 Z" id="Shape"></path>
                </g>
            </g>
        </g>
    </g>
</svg>