<?xml version="1.0" encoding="UTF-8"?>
<svg width="10px" height="10px" viewBox="0 0 19 16" version="1.1" xmlns="http://www.w3.org/2000/svg" xmlns:xlink="http://www.w3.org/1999/xlink">
    <!-- Generator: Sketch 52.4 (67378) - http://www.bohemiancoding.com/sketch -->
    <title>Group Copy 3</title>
    <desc>Created with Sketch.</desc>
    <g id="members" stroke="none" stroke-width="1" fill="none" fill-rule="evenodd">
        <g id="Group-Copy-3" transform="translate(1.000000, 1.000000)" fill-rule="nonzero" stroke="#333333">
            <path d="M11.8337794,2.58787374 L11.8178043,2.58787374 C11.7139038,2.57869103 11.6219377,2.51425653 11.5790999,2.41789426 L11.046425,1.22013452 C10.8933977,0.876080685 10.4289035,0.574292669 10.0523486,0.574292669 L6.47218432,0.574292669 C6.095658,0.574292669 5.63113524,0.876080708 5.47813654,1.22013452 L4.94549025,2.41789426 C4.90139974,2.51703894 4.80788568,2.57878562 4.70684317,2.58702012 L4.69081326,2.58787374 C4.68606346,2.58799282 4.68130217,2.58799336 4.67653355,2.58787374 L1.39278734,2.58787374 C0.953091426,2.58787374 0.595349908,2.94561526 0.595349885,3.38531117 L0.595349885,12.6124252 C0.595349885,13.0520925 0.953091403,13.409834 1.39278734,13.409834 L15.1318315,13.409834 C15.5715274,13.409834 15.9292689,13.0521211 15.9292689,12.6124252 L15.9292689,3.38531117 C15.9292689,2.94561526 15.571556,2.58787374 15.1318315,2.58787374 L11.8478197,2.58787374 C11.8455193,2.58793022 11.8432169,2.58795889 11.840913,2.58795965 C11.8385303,2.58796046 11.8361523,2.58793173 11.8337794,2.58787374 Z M4.49778206,2.01516659 L4.95482538,0.987414974 C5.20065991,0.43460939 5.86714786,0.00158551148 6.4721557,0.00158551148 L10.0523486,0.00158551148 C10.6573564,0.00158551148 11.3238443,0.43460939 11.5696789,0.987414974 L12.0267468,2.01516659 L15.1318315,2.01516659 C15.8873467,2.01516659 16.5019761,2.6297959 16.5019761,3.38531117 L16.5019761,12.6124252 C16.5019761,13.3679118 15.8873467,13.9825412 15.1318315,13.9825412 L1.39278734,13.9825412 C0.637300702,13.9825412 0.0226427508,13.3679118 0.0226427279,12.6124252 L0.0226427279,3.38531117 C0.0226427279,2.62982454 0.637272036,2.01516659 1.39278734,2.01516659 L4.49778206,2.01516659 Z" id="Combined-Shape"></path>
            <path d="M8.26229508,11.2929079 C6.27480083,11.2929079 4.65784808,9.67595518 4.65784808,7.68846092 C4.65784808,5.70096667 6.27480083,4.08401392 8.26229508,4.0840139 C10.2497893,4.08401388 11.8667421,5.70096665 11.8667421,7.68846092 C11.8667421,9.6759552 10.249818,11.2929079 8.26229508,11.2929079 Z M8.26229508,4.65672106 C6.59059153,4.65672106 5.23055524,6.01675737 5.23055524,7.68846092 C5.23055524,9.36016448 6.59059155,10.7202008 8.26229508,10.7202008 C9.93399861,10.7202008 11.2940349,9.36016446 11.2940349,7.68846092 C11.2940349,6.01675739 9.93399861,4.65672108 8.26229508,4.65672106 Z" id="Shape"></path>
        </g>
    </g>
</svg>