<?xml version="1.0" encoding="UTF-8"?>
<svg width="100px" height="100px" viewBox="0 0 100 100" version="1.1" xmlns="http://www.w3.org/2000/svg" xmlns:xlink="http://www.w3.org/1999/xlink">
    <!-- Generator: Sketch 52.2 (67145) - http://www.bohemiancoding.com/sketch -->
    <title>Group 2</title>
    <desc>Created with Sketch.</desc>
    <g id="church" stroke="none" stroke-width="1" fill="none" fill-rule="evenodd">
        <g id="church-profile-copy" transform="translate(-315.000000, -180.000000)">
            <g id="Group-2" transform="translate(315.000000, 180.000000)">
                <circle id="Oval" fill="#02BAEF" cx="50" cy="50" r="50"></circle>
                <path d="M72.9803195,51.5740457 C72.9803195,51.4896891 72.8118223,51.0871028 72.7603296,51.0354614 L51.8550866,30.6084642 L51.8550866,20.9858672 L55.2212558,20.9858672 C56.4449498,20.9858672 57.0795776,20.0444262 57.0795776,19.1740936 C57.0795776,18.3170092 56.4449498,17.3628607 55.2212558,17.3628607 L51.8550866,17.3628607 L51.8550866,13.8112329 C51.8550866,12.6105036 50.871063,12 50.0032351,12 C49.1165356,12 48.1387127,12.6105036 48.1387127,13.8112329 L48.1387127,17.3631311 L44.5061831,17.3631311 C43.2762885,17.3631311 42.6610716,18.3172796 42.6610716,19.1743639 C42.6610716,20.0446966 43.2760189,20.9861376 44.5061831,20.9861376 L48.1384431,20.9861376 L48.1384431,30.5760194 L27.2199899,51.0551987 C27.1614877,51.1006215 27,51.5094264 27,51.5810754 L27,81.2602578 C27,81.6493254 27.3623363,82 27.7640336,82 L43.3994936,82 C43.8133227,82 44.1761982,81.6493254 44.1761982,81.2602578 L44.1761982,68.6700399 C44.1761982,65.4044673 46.7853434,62.8137473 49.977354,62.8137473 C53.1561544,62.8137473 55.7785097,65.4044673 55.7785097,68.6700399 L55.7785097,81.2602578 C55.7785097,81.6493254 56.1408461,82 56.5425433,82 L72.2421671,82 C72.6438644,82 73,81.6493254 73,81.2602578 L72.9803195,51.5740457 Z M50.0029656,54.3989092 C46.688289,54.3989092 44.0012308,51.7040954 44.0012308,48.3736332 C44.0012308,45.0620971 46.688289,42.3672832 50.0029656,42.3672832 C53.3111718,42.3672832 55.9914902,45.0620971 55.9914902,48.3736332 C55.9914902,51.7040954 53.3111718,54.3989092 50.0029656,54.3989092 Z" id="Shape" fill="#FFFFFF" fill-rule="nonzero"></path>
            </g>
        </g>
    </g>
</svg>