<?xml version="1.0" encoding="UTF-8"?>
<svg width="63px" height="61px" viewBox="0 0 63 61" version="1.1" xmlns="http://www.w3.org/2000/svg" xmlns:xlink="http://www.w3.org/1999/xlink">
    <!-- Generator: Sketch 51.3 (57544) - http://www.bohemiancoding.com/sketch -->
    <title>Group 2defaultchurch</title>
    <desc>Created with Sketch.</desc>
    <defs></defs>
    <g id="Join-a-church" stroke="none" stroke-width="1" fill="none" fill-rule="evenodd">
        <g id="iPhone-X" transform="translate(-17.000000, -392.000000)">
            <g id="Group-2" transform="translate(17.000000, 392.000000)">
                <ellipse id="Oval-Copy-9" fill="#CCCCCC" cx="31.3472222" cy="30.5" rx="31.3472222" ry="30.5"></ellipse>
                <g id="Group-2-Copy-4" transform="translate(21.000000, 14.000000)" fill="#FFFFFF" fill-rule="nonzero">
                    <path d="M20.9910154,18.6563358 C20.9910154,18.6165677 20.9140928,18.426777 20.8905853,18.4024318 L11.3468873,8.77256171 L11.3468873,4.23619453 L12.8836168,4.23619453 C13.4422597,4.23619453 13.7319811,3.79237237 13.7319811,3.38207268 C13.7319811,2.97801862 13.4422597,2.52820576 12.8836168,2.52820576 L11.3468873,2.52820576 L11.3468873,0.853866922 C11.3468873,0.287808854 10.8976592,0 10.5014769,0 C10.0966793,0 9.6502819,0.287808854 9.6502819,0.853866922 L9.6502819,2.52833322 L7.99195316,2.52833322 C7.43047953,2.52833322 7.14961964,2.97814609 7.14961964,3.38220015 C7.14961964,3.79249984 7.43035645,4.23632199 7.99195316,4.23632199 L9.65015883,4.23632199 L9.65015883,8.75726629 L0.100430181,18.4117365 C0.0737226448,18.4331501 0,18.6258724 0,18.6596498 L0,32.6512644 C0,32.834682 0.165414415,33 0.348797956,33 L7.48672535,33 C7.67564732,33 7.84130789,32.834682 7.84130789,32.6512644 L7.84130789,26.715876 C7.84130789,25.1763917 9.03243937,23.9550523 10.4896616,23.9550523 C11.9408531,23.9550523 13.1380153,25.1763917 13.1380153,26.715876 L13.1380153,32.6512644 C13.1380153,32.834682 13.3034297,33 13.4868133,33 L20.6540328,33 C20.8374163,33 21,32.834682 21,32.6512644 L20.9910154,18.6563358 Z M10.5013538,19.9880572 C8.98813194,19.9880572 7.76143143,18.717645 7.76143143,17.1475699 C7.76143143,15.5864172 8.98813194,14.316005 10.5013538,14.316005 C12.0116219,14.316005 13.2352455,15.5864172 13.2352455,17.1475699 C13.2352455,18.717645 12.0116219,19.9880572 10.5013538,19.9880572 Z" id="Shape"></path>
                </g>
            </g>
        </g>
    </g>
</svg>