<?xml version="1.0" encoding="UTF-8"?>
<svg width="24px" height="24px" viewBox="0 0 24 24" version="1.1" xmlns="http://www.w3.org/2000/svg" xmlns:xlink="http://www.w3.org/1999/xlink">
    <!-- Generator: Sketch 51.3 (57544) - http://www.bohemiancoding.com/sketch -->
    <title>Group 7</title>
    <desc>Created with Sketch.</desc>
    <defs></defs>
    <g id="Page-1" stroke="none" stroke-width="1" fill="none" fill-rule="evenodd">
        <g id="PP3-Copy-9" transform="translate(-17.000000, -1232.000000)">
            <g id="Group-7" transform="translate(18.000000, 1233.100000)">
                <g id="Group-8">
                    <circle id="Oval-5" stroke="#555555" stroke-width="1.5" cx="11" cy="11" r="11"></circle>
                    <g id="_ionicons_svg_ios-checkmark-(3)" transform="translate(5.000000, 7.000000)" fill="#555555" fill-rule="nonzero">
                        <path d="M11.9365932,1.05336568 L10.9558087,0.0654942389 C10.9168002,0.021831413 10.8555012,0 10.7997748,0 C10.7384758,0 10.6827494,0.021831413 10.6437409,0.0654942389 L3.84512106,6.77319588 L1.37086925,4.34990904 C1.32628813,4.30624621 1.27056174,4.2844148 1.21483535,4.2844148 C1.15910896,4.2844148 1.10338257,4.30624621 1.05880145,4.34990904 L0.0668716706,5.32140691 C-0.0222905569,5.40873257 -0.0222905569,5.5451789 0.0668716706,5.63250455 L3.18754963,8.68890237 C3.38816465,8.88538508 3.63336077,9 3.83954842,9 C4.1348983,9 4.39123971,8.78714372 4.48597457,8.69981807 L4.49154721,8.69981807 L11.9421658,1.36446331 C12.0201828,1.27167981 12.0201828,1.13523347 11.9365932,1.05336568 Z" id="Shape"></path>
                    </g>
                </g>
            </g>
        </g>
    </g>
</svg>