<?xml version="1.0" encoding="UTF-8"?>
<svg width="26px" height="26px" viewBox="0 0 26 26" version="1.1" xmlns="http://www.w3.org/2000/svg" xmlns:xlink="http://www.w3.org/1999/xlink">
    <!-- Generator: Sketch 51.3 (57544) - http://www.bohemiancoding.com/sketch -->
    <title>Groupendorsed</title>
    <desc>Created with Sketch.</desc>
    <defs></defs>
    <g id="IOS(Profile)--user" stroke="none" stroke-width="1" fill="none" fill-rule="evenodd">
        <g id="another-user--skill-endorsed" transform="translate(-20.000000, -1133.000000)">
            <g id="Group" transform="translate(21.000000, 1134.000000)">
                <g id="Group-3-Copy" stroke="#555555">
                    <circle id="Oval" cx="12" cy="12" r="12.5"></circle>
                </g>
                <path d="M10.740554,15.397572 C10.657018,15.4764671 10.4435373,15.6528208 10.1975704,15.6528208 C10.0212167,15.6528208 9.8216586,15.5553622 9.65458671,15.3882903 L7.05569063,12.7893942 C6.98143646,12.71514 6.98143646,12.5991179 7.05569063,12.5248637 L7.88176831,11.698786 C7.9188954,11.6616589 7.96530426,11.6430954 8.01171312,11.6430954 C8.05812197,11.6430954 8.10453083,11.6616589 8.14165792,11.698786 L10.2022112,13.7593393 L15.864092,8.05569063 C15.9012191,8.01856354 15.9476279,8 15.9940368,8 C16.0450865,8 16.0914954,8.01856354 16.1239816,8.05569063 L16.9361366,8.89569097 C17.0196725,8.97458603 17.0196725,9.09060817 16.9454184,9.16486235 L10.740554,15.397572 Z" id="Shape" fill="#555555" fill-rule="nonzero"></path>
            </g>
        </g>
    </g>
</svg>