<?xml version="1.0" encoding="UTF-8"?>
<svg width="17px" height="18px" viewBox="0 0 17 18" version="1.1" xmlns="http://www.w3.org/2000/svg" xmlns:xlink="http://www.w3.org/1999/xlink">
    <!-- Generator: Sketch 52.4 (67378) - http://www.bohemiancoding.com/sketch -->
    <title>noun_married_54792 copy</title>
    <desc>Created with Sketch.</desc>
    <g id="Page-1" stroke="none" stroke-width="1" fill="none" fill-rule="evenodd">
        <g id="profile-copy-26" transform="translate(-358.000000, -1525.000000)" fill="#555555" fill-rule="nonzero" stroke="#555555" stroke-width="0.5">
            <g id="card-personal-details-copy-5" transform="translate(270.000000, 1356.000000)">
                <g id="noun_married_54792-copy" transform="translate(89.000000, 170.000000)">
                    <path d="M14.828,11.0269565 C14.7553043,10.6332174 14.6128696,10.2516522 14.4332174,9.88834783 C14.2452174,9.52782609 14.002087,9.19617391 13.7245217,8.896 C13.4478261,8.60591304 13.081913,8.33478261 12.770087,8.15356522 L12.4843478,8.00921739 C12.3946087,7.96017391 12.2984348,7.92608696 12.2029565,7.89043478 C12.0149565,7.81078261 11.816,7.76434783 11.62,7.71286957 C11.457913,7.68017391 11.2944348,7.65878261 11.1307826,7.644 C11.108,7.64034783 11.086087,7.63478261 11.0629565,7.63182609 C10.733913,7.57130435 10.394087,7.56973913 10.0083478,7.61078261 C9.91304348,7.62052174 9.848,7.63843478 9.76556522,7.65182609 L9.64747826,7.67373913 L9.58817391,7.68469565 L9.55513043,7.69286957 L9.54695652,7.69530435 L9.54191304,7.69686957 C9.50365217,7.65652174 9.46243478,7.61965217 9.41982609,7.58417391 C9.1066087,7.25165217 8.69356522,6.91408696 8.15721739,6.68834783 C7.87634783,6.57721739 7.57008696,6.47669565 7.24034783,6.44191304 C7.15826087,6.43269565 7.07513043,6.42034783 6.99113043,6.41426087 C6.90678261,6.41356522 6.82173913,6.41286957 6.736,6.412 C6.56834783,6.40382609 6.37791304,6.43234783 6.19408696,6.45130435 C6.11704348,6.46034783 6.05773913,6.47513043 5.99391304,6.48852174 L7.01217391,4.57773913 C6.7146087,4.70069565 6.41356522,4.82156522 6.10921739,4.93756522 C6.12504348,4.9786087 6.13043478,5.02469565 6.11686957,5.08313043 C5.95495652,5.77878261 5.79286957,6.47443478 5.63095652,7.17008696 C5.61095652,7.256 5.59095652,7.34173913 5.57095652,7.42765217 C5.55582609,7.49252174 5.47686957,7.48886957 5.44330435,7.44434783 C5.41217391,7.40295652 5.38086957,7.3613913 5.34956522,7.32 C4.94504348,6.78278261 4.54034783,6.2453913 4.13582609,5.70817391 C4.11286957,5.67773913 4.09791304,5.63913043 4.084,5.59947826 C3.67217391,5.70817391 3.25773913,5.80104348 2.8413913,5.86834783 L4.74782609,6.97165217 C4.56173913,7.08573913 4.38313043,7.21565217 4.21391304,7.35878261 C3.91982609,7.60973913 3.66643478,7.912 3.44904348,8.24 C3.23791304,8.57321739 3.07408696,8.93826087 2.96017391,9.32 C2.8506087,9.704 2.80921739,10.105913 2.82017391,10.5036522 C2.83808696,10.7024348 2.85252174,10.8986087 2.90034783,11.1013913 C2.93565217,11.3172174 2.99704348,11.4572174 3.05530435,11.6610435 C3.09843478,11.7709565 3.14556522,11.8784348 3.19513043,11.9845217 C3.24486957,12.1151304 3.29652174,12.2384348 3.348,12.3473043 C3.42104348,12.4935652 3.48747826,12.6233043 3.55965217,12.7290435 C3.62626087,12.837913 3.68452174,12.9295652 3.74086957,12.9953043 C3.84747826,13.1325217 3.90452174,13.2055652 3.90452174,13.2055652 L3.90556522,13.2069565 C3.90556522,13.2069565 3.96904348,13.2756522 4.088,13.4046957 C4.14486957,13.4721739 4.22573913,13.5441739 4.32226087,13.6276522 C4.41478261,13.7163478 4.53304348,13.8027826 4.66643478,13.9005217 C4.93634783,14.0869565 5.28608696,14.2993043 5.73269565,14.4424348 C6.17565217,14.5878261 6.71408696,14.6841739 7.30417391,14.6257391 C7.34052174,14.6215652 7.37791304,14.6161739 7.41478261,14.6114783 C7.52608696,14.6073043 7.62208696,14.5958261 7.71373913,14.5822609 C7.816,14.6873043 7.9213913,14.7885217 8.03373913,14.8812174 C8.34313043,15.1269565 8.67756522,15.3332174 9.03165217,15.4843478 C9.38834783,15.6271304 9.7546087,15.7333913 10.1245217,15.7746087 C10.2473043,15.7869565 10.3681739,15.794087 10.4883478,15.7982609 C10.6365217,15.8156522 10.7902609,15.8281739 10.956,15.826087 C11.4354783,15.8236522 11.9921739,15.742087 12.5486957,15.4928696 C12.8227826,15.3643478 13.1118261,15.2186087 13.3676522,15.006087 C13.6351304,14.8083478 13.8706087,14.5568696 14.1006957,14.2605217 C14.1469565,14.1923478 14.1935652,14.1238261 14.2403478,14.0547826 L14.310087,13.9511304 L14.3276522,13.9250435 L14.3448696,13.8958261 L14.3528696,13.8808696 L14.3843478,13.8203478 C14.4690435,13.6584348 14.5566957,13.4953043 14.6191304,13.318087 C14.7650435,12.9721739 14.8436522,12.5925217 14.8867826,12.2064348 C14.9271304,11.8177391 14.893913,11.4201739 14.828,11.0269565 Z M4.54191304,13.6763478 C4.48295652,13.6365217 4.43321739,13.5916522 4.38382609,13.5537391 C4.28573913,13.4772174 4.20295652,13.4107826 4.14452174,13.3474783 C4.02156522,13.2269565 3.956,13.1626087 3.956,13.1626087 C3.95321739,13.1589565 3.89652174,13.0881739 3.7906087,12.956 C3.73843478,12.8966957 3.68573913,12.8168696 3.62747826,12.7252174 C3.73147826,12.8631304 3.83165217,13.0036522 3.95478261,13.1234783 C4.07756522,13.2671304 4.21791304,13.3918261 4.35686957,13.5168696 C4.47704348,13.6149565 4.60226087,13.7046957 4.72869565,13.7921739 C4.66295652,13.7514783 4.60034783,13.7126957 4.54191304,13.6763478 Z M7.19373913,9.38365217 C6.9733913,9.72173913 6.81078261,10.0977391 6.69165217,10.4869565 C6.57982609,10.8796522 6.52886957,11.2886957 6.52452174,11.6973913 C6.53356522,11.9017391 6.53826087,12.1036522 6.57878261,12.3198261 C6.59478261,12.4267826 6.61113043,12.5354783 6.63652174,12.6172174 L6.71043478,12.9036522 C6.83547826,13.2833043 7.00208696,13.6483478 7.22034783,13.9796522 C6.96226087,14.0361739 6.66834783,14.0563478 6.37965217,14.0485217 C6.05617391,14.036 5.72782609,13.9636522 5.41026087,13.8452174 C5.09234783,13.7250435 4.79704348,13.5373913 4.53234783,13.3126957 C4.26991304,13.0834783 4.05113043,12.8057391 3.87321739,12.505913 C3.704,12.1993043 3.59182609,11.8667826 3.52052174,11.5306087 C3.50469565,11.376 3.45843478,11.1633043 3.46608696,11.0128696 C3.45443478,10.8535652 3.47095652,10.6833043 3.48121739,10.5173913 C3.51965217,10.186087 3.59165217,9.86486957 3.70278261,9.56104348 C3.8226087,9.26086957 3.96973913,8.97617391 4.15634783,8.72382609 C4.34973913,8.47773913 4.55773913,8.24869565 4.7986087,8.06643478 C5.04069565,7.88869565 5.28904348,7.7266087 5.55686957,7.61756522 C5.68521739,7.55043478 5.82452174,7.5146087 5.95704348,7.46573913 L5.98191304,7.45669565 L5.99426087,7.45217391 L6.00052174,7.44991304 L6.04295652,7.43947826 L6.15947826,7.41078261 C6.23391304,7.39443478 6.32069565,7.36713043 6.38347826,7.36 C6.62713043,7.32191304 6.90486957,7.28765217 7.16521739,7.30608696 C7.42747826,7.31113043 7.67982609,7.35043478 7.92504348,7.39530435 C8.1706087,7.44973913 8.40434783,7.52521739 8.62173913,7.61686957 C8.7453913,7.69930435 8.86573913,7.79234783 8.97895652,7.89182609 C8.97617391,7.89321739 8.97321739,7.89373913 8.9706087,7.89513043 C8.61721739,8.03165217 8.29182609,8.25008696 7.984,8.49269565 C7.6813913,8.74452174 7.41756522,9.04921739 7.19373913,9.38365217 Z M7.99043478,13.7476522 C7.95304348,13.6935652 7.91634783,13.6393043 7.88156522,13.5834783 C7.71495652,13.3013913 7.596,12.9944348 7.50904348,12.6801739 C7.48869565,12.5462609 7.42904348,12.316 7.43130435,12.1867826 C7.41234783,12.0406957 7.41913043,11.8765217 7.42069565,11.7161739 C7.44382609,11.396 7.50626087,11.0817391 7.61513043,10.7867826 C7.72973913,10.494087 7.87791304,10.2203478 8.05530435,9.97286957 C8.24243478,9.73321739 8.44,9.50643478 8.672,9.32504348 C8.9,9.14121739 9.14295652,8.98173913 9.4013913,8.86486957 C9.49286957,8.81443478 9.59008696,8.78 9.68678261,8.74556522 C9.76173913,8.87234783 9.82921739,9.00104348 9.89147826,9.14243478 C10.0194783,9.45826087 10.1086957,9.78747826 10.1455652,10.1212174 C10.1756522,10.4553043 10.1669565,10.7883478 10.1165217,11.1116522 C10.0565217,11.4321739 9.97269565,11.746087 9.83478261,12.0314783 C9.70469565,12.3191304 9.54486957,12.5885217 9.352,12.8243478 C9.29565217,12.9022609 9.23147826,12.9725217 9.16608696,13.0410435 C8.86852174,13.2874783 8.528,13.5078261 8.14226087,13.6853913 C8.09426087,13.7104348 8.04208696,13.7281739 7.99043478,13.7476522 Z M14.1723478,12.1372174 C14.1391304,12.4601739 14.0709565,12.7749565 13.9598261,13.068 C13.9128696,13.218087 13.841913,13.3563478 13.7753043,13.4947826 L13.7506087,13.5467826 L13.7446957,13.5598261 L13.7417391,13.5664348 C13.7403478,13.5692174 13.7441739,13.5631304 13.7469565,13.5584348 L13.7309565,13.5853913 L13.6674783,13.6930435 C13.6252174,13.764 13.5833043,13.8346087 13.5415652,13.9046957 C13.4613913,14.013913 13.378087,14.1266087 13.2895652,14.2358261 C12.9398261,14.5596522 12.509913,14.8337391 12.0191304,15.0158261 C11.8834783,15.0612174 11.7269565,15.1069565 11.5993043,15.1373913 C11.4426087,15.1666087 11.2733913,15.2095652 11.1330435,15.2133913 C10.8441739,15.249913 10.5186087,15.2285217 10.2111304,15.1801739 C9.89913043,15.1290435 9.59495652,15.0208696 9.30243478,14.8864348 C9.02365217,14.7492174 8.76504348,14.569913 8.528,14.3648696 C9.1373913,14.1147826 9.64191304,13.7067826 9.98313043,13.2476522 C10.2046957,12.9466087 10.3596522,12.6311304 10.4676522,12.3253913 C10.4692174,12.321913 10.4709565,12.3186087 10.4726957,12.3151304 C10.6292174,11.9692174 10.7210435,11.5921739 10.7813913,11.2092174 C10.8356522,10.8238261 10.8217391,10.428 10.768,10.0375652 C10.7055652,9.64713043 10.5836522,9.26643478 10.4201739,8.90417391 C10.3702609,8.79791304 10.3107826,8.69165217 10.248,8.5866087 C10.3601739,8.56782609 10.4655652,8.53930435 10.5907826,8.53321739 C10.6577391,8.52573913 10.7238261,8.51826087 10.7895652,8.51095652 C10.8558261,8.51026087 10.9215652,8.5093913 10.9867826,8.50869565 C11.2490435,8.50608696 11.5048696,8.53408696 11.7511304,8.57965217 C12.2424348,8.6773913 12.6810435,8.8786087 13.0306087,9.12104348 C13.1469565,9.20069565 13.2490435,9.28643478 13.3446957,9.3733913 C13.5467826,9.62034783 13.7212174,9.88695652 13.8530435,10.1726957 C13.9913043,10.4886957 14.0913043,10.8165217 14.1473043,11.1481739 C14.1935652,11.4803478 14.213913,11.813913 14.1723478,12.1372174 Z" id="Shape"></path>
                    <path d="M5.89913043,4.69095652 C5.944,4.74034783 5.98956522,4.78069565 6.02834783,4.82069565 C6.37843478,4.68973913 6.72608696,4.55373913 7.07147826,4.41686957 C7.0786087,4.41391304 7.08504348,4.41373913 7.09147826,4.4133913 L5.97930435,3.65617391 L5.19147826,3.9106087 C5.42730435,4.1706087 5.66330435,4.43078261 5.89913043,4.69095652 Z" id="Shape"></path>
                    <path d="M5.97930435,4.98678261 C5.97913043,4.98678261 5.97913043,4.9866087 5.97913043,4.9866087 C5.41704348,5.19773913 4.84469565,5.39008696 4.26608696,5.55026087 C4.29547826,5.65234783 4.34104348,5.7506087 4.41095652,5.84347826 C4.67721739,6.19686957 4.94330435,6.55043478 5.20956522,6.90382609 C5.296,7.01878261 5.3826087,7.13373913 5.46921739,7.24869565 C5.63547826,6.53478261 5.80173913,5.82104348 5.968,5.10730435 C6.00156522,4.96243478 6.00956522,5.02017391 5.97930435,4.98678261 Z" id="Shape"></path>
                    <path d="M4.20643478,4.22852174 L3.33391304,4.51026087 L2.83721739,5.76156522 C3.24695652,5.68434783 3.65286957,5.58573913 4.05565217,5.47356522 C4.0053913,5.10469565 4.17078261,4.54278261 4.19913043,4.25286957 C4.2,4.24347826 4.20295652,4.23582609 4.20643478,4.22852174 Z" id="Shape"></path>
                    <path d="M4.23791304,5.4213913 C4.79095652,5.26104348 5.33756522,5.07513043 5.87826087,4.87547826 C5.79617391,4.78504348 5.71426087,4.6946087 5.63217391,4.60417391 C5.43669565,4.38869565 5.24104348,4.17304348 5.04556522,3.95756522 L4.30956522,4.19513043 C4.32817391,4.2053913 4.34156522,4.22382609 4.3386087,4.25269565 C4.29895652,4.65756522 4.18278261,5.06069565 4.23791304,5.4213913 Z" id="Shape"></path>
                    <path d="M1.73669565,1.9213913 C1.57008696,1.78904348 1.22052174,1.49930435 1.07617391,1.34313043 C1.00365217,1.26452174 0.883826087,1.35721739 0.945391304,1.44591304 C1.08086957,1.64121739 1.42973913,1.93165217 1.62417391,2.06991304 C1.72226087,2.13982609 1.83095652,1.99617391 1.73669565,1.9213913 Z" id="Shape"></path>
                    <path d="M1.64069565,4.85127187 C1.13304348,4.97931155 0.621217391,5.07626646 0.109913043,5.18376798 C0.00817391304,5.20523128 0.0523478261,5.36546591 0.152347826,5.34751815 C0.665913043,5.25555901 1.17373913,5.13307019 1.67791304,4.99448388 C1.76521739,4.97061522 1.72817391,4.82906846 1.64069565,4.85127187 Z" id="Shape"></path>
                    <path d="M3.47008696,3.46069565 C3.15878261,3.15930435 2.86017391,2.84086957 2.49234783,2.60643478 C2.35704348,2.52017391 2.22556522,2.70973913 2.32695652,2.82069565 C2.6213913,3.14278261 2.97269565,3.40695652 3.36521739,3.59652174 C3.4506087,3.63756522 3.54417391,3.53234783 3.47008696,3.46069565 Z" id="Shape"></path>
                    <path d="M5.49156226,1.69495652 C5.46774709,1.55078261 5.10986697,1.55495652 5.07691721,1.69495652 C4.9761105,2.12608696 4.99862074,2.55565217 5.15945474,2.9813913 C5.19044709,3.0626087 5.40935097,3.03808696 5.41783309,2.96278261 C5.46481097,2.54069565 5.56137662,2.11756522 5.49156226,1.69495652 Z" id="Shape"></path>
                    <path d="M5.36961785,0.834608696 C5.38082518,0.734608696 5.4042144,0.637043478 5.43296366,0.538956522 C5.45976381,0.447652174 5.45148013,0.372521739 5.4332073,0.280869565 C5.40153439,0.121565217 5.08870352,0.155652174 5.02876864,0.280869565 C4.94276452,0.460347826 4.94130269,0.645391304 4.95933188,0.834608696 C4.97760471,1.02382609 5.34842136,1.0226087 5.36961785,0.834608696 Z" id="Shape"></path>
                    <path d="M7.23443478,3.15773913 C7.28295652,3.11391304 7.31826087,3.10052174 7.37808696,3.07826087 C7.43547826,3.05686957 7.47565217,3.01808696 7.52052174,2.97808696 C7.62417391,2.88573913 7.72,2.79686957 7.80695652,2.688 C7.89582609,2.57669565 7.76295652,2.44417391 7.65165217,2.53269565 C7.54434783,2.61808696 7.44,2.70365217 7.33704348,2.7946087 C7.24069565,2.87982609 7.21565217,2.98591304 7.14573913,3.08921739 C7.10817391,3.14469565 7.18886957,3.19930435 7.23443478,3.15773913 Z" id="Shape"></path>
                    <path d="M8.15669565,2.272 C8.45878261,1.98834783 8.78191304,1.72956522 9.05617391,1.41843478 C9.116,1.3506087 9.0253913,1.26069565 8.9573913,1.31965217 C8.64417391,1.59113043 8.36591304,1.896 8.09078261,2.20608696 C8.05113043,2.25078261 8.11269565,2.3133913 8.15669565,2.272 Z" id="Shape"></path>
                </g>
            </g>
        </g>
    </g>
</svg>