<svg id="Layer_1" data-name="Layer 1" xmlns="http://www.w3.org/2000/svg" viewBox="0 0 24 24" height="17px" width="16px"><defs><style>.cls-1{fill:#555;}</style></defs><title>membership</title><path class="cls-1" d="M20.69,3.77H3.24A2.43,2.43,0,0,0,.81,6.2V17.44a2.43,2.43,0,0,0,2.43,2.42H20.69a2.43,2.43,0,0,0,2.43-2.42V6.2A2.43,2.43,0,0,0,20.69,3.77Zm1.46,13.66a1.46,1.46,0,0,1-1.46,1.46H3.24a1.46,1.46,0,0,1-1.46-1.46V6.2A1.46,1.46,0,0,1,3.24,4.74H20.69A1.46,1.46,0,0,1,22.15,6.2Z"/><path class="cls-1" d="M11.72,10.49l-2.34-.34L8.33,8a.48.48,0,0,0-.65-.22A.47.47,0,0,0,7.46,8l-1,2.12-2.34.34a.49.49,0,0,0-.28.84L5.49,13l-.4,2.34a.48.48,0,0,0,.4.56.52.52,0,0,0,.3-.05l2.1-1.1L10,15.83a.5.5,0,0,0,.66-.21.51.51,0,0,0,0-.3L10.28,13,12,11.33a.48.48,0,0,0,0-.68A.47.47,0,0,0,11.72,10.49Z"/><rect class="cls-1" x="13.9" y="9.76" width="6.38" height="0.97"/><rect class="cls-1" x="13.9" y="12.91" width="6.38" height="0.97"/></svg>