<?xml version="1.0" encoding="UTF-8"?>
<svg width="25px" height="25px" viewBox="0 0 25 25" version="1.1" xmlns="http://www.w3.org/2000/svg" xmlns:xlink="http://www.w3.org/1999/xlink">
    <!-- Generator: Sketch 51.3 (57544) - http://www.bohemiancoding.com/sketch -->
    <title>Group 3searchuser</title>
    <desc>Created with Sketch.</desc>
    <defs></defs>
    <g id="Join-a-church" stroke="none" stroke-width="1" fill="none" fill-rule="evenodd">
        <g id="Feed--1-image-and-Post-Copy" transform="translate(-23.000000, -433.000000)">
            <g id="Group-3" transform="translate(24.000000, 434.000000)">
                <circle id="Oval-2" stroke="#087E8B" fill="#087E8B" cx="11.5" cy="11.5" r="11.5"></circle>
                <g id="Group" transform="translate(7.000000, 4.000000)" fill="#FFFFFF" fill-rule="nonzero">
                    <g id="Group-7">
                        <path d="M1.8,2.89116748 C1.8,4.47778377 3.02672713,5.76470588 4.53913043,5.76470588 C6.05153374,5.76470588 7.27826087,4.47778377 7.27826087,2.89116748 C7.27826087,1.30455118 6.05153374,0 4.53913043,0 C3.02672713,0 1.8,1.28692211 1.8,2.89116748 Z" id="Shape"></path>
                        <path d="M4.5,6.53333333 C2.01838235,6.53333333 0,8.67100542 0,11.2992908 L0,12.8236963 C1.04227941,13.5245724 2.71323529,13.945098 4.5,13.945098 C6.28676471,13.945098 7.95772059,13.5245724 9,12.8236963 L9,11.2992908 C9,8.67100542 6.98161765,6.53333333 4.5,6.53333333 Z" id="Shape"></path>
                    </g>
                </g>
            </g>
        </g>
    </g>
</svg>