<?xml version="1.0" encoding="UTF-8"?>
<svg width="26px" height="26px" viewBox="0 0 26 26" version="1.1" xmlns="http://www.w3.org/2000/svg" xmlns:xlink="http://www.w3.org/1999/xlink">
    <!-- Generator: Sketch 51.3 (57544) - http://www.bohemiancoding.com/sketch -->
    <title>Group 3skills and Endorsement</title>
    <desc>Created with Sketch.</desc>
    <defs></defs>
    <g id="IOS(Profile)--user" stroke="none" stroke-width="1" fill="none" fill-rule="evenodd">
        <g id="another-user's-profile" transform="translate(-20.000000, -1066.000000)">
            <g id="Group-3" transform="translate(21.000000, 1067.000000)">
                <circle id="Oval" stroke="#555555" cx="12" cy="12" r="12.5"></circle>
                <path d="M11.5981332,4 C13.4537123,4 14.9574883,5.54605187 14.9574883,7.45319223 C14.9574883,8.40667519 14.5815868,9.26997325 13.9736954,9.89498779 L12.9537548,10.6016397 L13.7771744,10.796488 C14.2795078,10.9585417 14.7445057,11.1748459 15.1592703,11.4361554 L15.4348748,11.6676358 L13.7529062,13.3964996 L12.0383538,11.6341435 L10.3950785,13.3234097 L13.7781926,16.8006745 L15.421468,15.1117572 L15.3960119,15.0859402 L16.9500212,13.4886033 L17.1962664,14.7306082 C17.1962664,17.0886731 14.6896903,19 11.5979635,19 C8.50623674,19 6,17.0886731 6,14.7306082 C6,12.9621468 7.40992787,11.4448773 9.41909207,10.7966624 L10.242342,10.6018142 L9.22274077,9.89498779 C8.61467968,9.26997325 8.23877811,8.40667519 8.23877811,7.45319223 C8.23877811,5.54605187 9.74289351,4 11.5981332,4 Z M18.3567246,8.66449587 L20,10.3535876 L16.9500212,13.4884289 L16.9445906,13.4608675 C16.7809928,13.060007 16.542045,12.6840912 16.2401358,12.3435865 L15.4348748,11.6676358 L18.3567246,8.66449587 Z" id="Shape" fill="#555555"></path>
            </g>
        </g>
    </g>
</svg>