<?xml version="1.0" encoding="UTF-8"?>
<svg width="63px" height="63px" viewBox="0 0 63 63" version="1.1" xmlns="http://www.w3.org/2000/svg" xmlns:xlink="http://www.w3.org/1999/xlink">
    <!-- Generator: Sketch 51.3 (57544) - http://www.bohemiancoding.com/sketch -->
    <title>Group 2sorry</title>
    <desc>Created with Sketch.</desc>
    <defs></defs>
    <g id="Empty-states" stroke="none" stroke-width="1" fill="none" fill-rule="evenodd">
        <g id="iPhone-X-Copy-4" transform="translate(-138.000000, -301.000000)" fill="#B1B1B1" fill-rule="nonzero">
            <g id="Group-2" transform="translate(138.000000, 301.000000)">
                <g id="Group">
                    <path d="M31.5,0.0047825464 C14.1290657,0.0047825464 0,14.1327346 0,31.5023913 C0,48.872004 14.1290642,63 31.5,63 C48.8709409,63 63,48.872004 63,31.5023913 C63,27.1625665 62.0994399,23.024889 60.5047238,19.2558646 C62.03779,17.6485695 63,15.4620128 63,13.0753745 C63,10.3686898 61.5409478,8.22825881 60.0926599,6.34550756 C58.6443719,4.46275631 57.0815969,2.73265859 56.109375,1.08064564 C55.6877063,0.366289556 54.8997195,-0.0498067304 54.0719477,0.0047825464 C53.3419749,0.0478671463 52.6812337,0.451146104 52.3092297,1.08064564 C51.505891,2.44568534 50.2933857,3.89325537 49.0813953,5.40698869 C44.0591372,2.01463785 38.0101512,0.0047825464 31.5,0.0047825464 Z M31.5,4.39979772 C37.0892816,4.39979772 42.2555124,6.08518422 46.5632267,8.97793852 C45.8950319,10.2029516 45.4186047,11.543574 45.4186047,13.0753745 C45.4186047,17.9524936 49.366841,21.9798584 54.2093023,21.9798584 C55.0844939,21.9798584 55.9287276,21.8579502 56.7274709,21.6136071 C57.930872,24.6791375 58.6046512,28.0005567 58.6046512,31.5023913 C58.6046512,46.4967913 46.4955201,58.6049848 31.5,58.6049848 C16.5044865,58.6049848 4.39534884,46.4967913 4.39534884,31.5023913 C4.39534884,16.5079766 16.5044851,4.39979772 31.5,4.39979772 Z M54.2093023,6.002147 C55.0560824,7.08824315 55.8936425,8.11144663 56.6130087,9.04661063 C57.8906832,10.7075674 58.6046512,12.0697658 58.6046512,13.0753745 C58.6046512,15.6229304 56.6492923,17.5848432 54.2093023,17.5848432 C51.7693123,17.5848432 49.8139535,15.6229304 49.8139535,13.0753745 C49.8139535,12.0697658 50.5279222,10.7075674 51.8055959,9.04661063 C52.5249614,8.11144663 53.3625223,7.08824315 54.2093023,6.002147 Z M20.5116279,21.2473559 C18.8933052,21.2473559 17.5813953,22.5591727 17.5813953,24.177366 C17.5813953,25.7955593 18.8933052,27.1073761 20.5116279,27.1073761 C22.1299507,27.1073761 23.4418605,25.7955593 23.4418605,24.177366 C23.4418605,22.5591727 22.1299507,21.2473559 20.5116279,21.2473559 Z M42.4883721,21.2473559 C40.8700493,21.2473559 39.5581395,22.5591727 39.5581395,24.177366 C39.5581395,25.7955593 40.8700493,27.1073761 42.4883721,27.1073761 C44.1066948,27.1073761 45.4186047,25.7955593 45.4186047,24.177366 C45.4186047,22.5591727 44.1066948,21.2473559 42.4883721,21.2473559 Z M31.5,40.2924216 C26.4410165,40.2924216 21.9062267,42.1808131 18.3597384,45.1910323 C17.7586052,45.698072 17.4736583,46.4872725 17.6122344,47.2613494 C17.7508105,48.0354264 18.2918566,48.6767791 19.0315658,48.9438162 C19.7712751,49.2108534 20.5972681,49.0630056 21.1984012,48.5559658 C24.0449507,46.1398794 27.533101,44.6874368 31.5,44.6874368 C35.466899,44.6874368 38.9550493,46.1398794 41.8015988,48.5559658 C42.4027319,49.0630056 43.2287249,49.2108533 43.9684341,48.9438162 C44.7081434,48.6767791 45.2491895,48.0354264 45.3877656,47.2613494 C45.5263417,46.4872725 45.2413948,45.698072 44.6402616,45.1910323 C41.0937733,42.1808131 36.5589835,40.2924216 31.5,40.2924216 Z" id="Shape"></path>
                </g>
            </g>
        </g>
    </g>
</svg>