<?xml version="1.0" encoding="UTF-8"?>
<svg width="72px" height="55px" viewBox="0 0 72 55" version="1.1" xmlns="http://www.w3.org/2000/svg" xmlns:xlink="http://www.w3.org/1999/xlink">
    <!-- Generator: Sketch 51.3 (57544) - http://www.bohemiancoding.com/sketch -->
    <title>Group 2</title>
    <desc>Created with Sketch.</desc>
    <defs></defs>
    <g id="Empty-states" stroke="none" stroke-width="1" fill="none" fill-rule="evenodd">
        <g id="Churchmember_empty-state" transform="translate(-144.000000, -234.000000)" fill-rule="nonzero" stroke="#B1B1B1">
            <g id="Group-2" transform="translate(146.000000, 236.000000)">
                <g id="member-copy">
                    <g id="Group-Copy" transform="translate(36.000000, 0.000000)" stroke-width="3">
                        <path d="M16,20.6666667 C21.8188209,20.6666667 26.5531915,16.0312606 26.5531915,10.3331195 C26.5531915,4.63497844 21.8188209,0 16,0 C10.1811791,0 5.44680851,4.6354061 5.44680851,10.3335472 C5.44680851,16.0316882 10.1807423,20.6666667 16,20.6666667 Z" id="Shape"></path>
                        <path d="M31.9842972,36.6754523 C31.2378489,29.4387824 27.0956321,23.131622 21.0152354,21.0196191 C19.5758188,20.5196432 11.8033571,20.5196432 10.4797526,21.2213818 C4.75579913,23.6719126 0.746635226,29.5934528 0.0157194693,36.6754523 C-0.0725939707,37.5326196 0.21409187,38.3871947 0.802996065,39.0209974 C1.38124939,39.643135 2.2066916,40 3.06852426,40 L28.9314924,40 C29.7928812,40 30.6187672,39.643135 31.1970206,39.0214294 C31.785481,38.3876268 32.0726106,37.5326196 31.9842972,36.6754523 Z" id="Shape"></path>
                    </g>
                    <g id="Group-Copy-4" stroke-width="3">
                        <path d="M15.5,21 C21.2894922,21 26,16.2898293 26,10.4997827 C26,4.70973616 21.2894922,0 15.5,0 C9.7105078,0 5,4.71017072 5,10.5002173 C5,16.2902638 9.71007325,21 15.5,21 Z" id="Shape"></path>
                        <path d="M31.9842972,36.7327721 C31.2378489,29.6208724 27.0956321,23.4224561 21.0152354,21.3468671 C19.5758188,20.8555114 11.8033571,20.8555114 10.4797526,21.5451511 C4.75579913,23.9534314 0.746635226,29.772876 0.0157194693,36.7327721 C-0.0725939707,37.5751607 0.21409187,38.4150017 0.802996065,39.0378767 C1.38124939,39.6492878 2.2066916,40 3.06852426,40 L28.9314924,40 C29.7928812,40 30.6187672,39.6492878 31.1970206,39.0383013 C31.785481,38.4154263 32.0726106,37.5751607 31.9842972,36.7327721 Z" id="Shape"></path>
                    </g>
                    <g id="Group" transform="translate(18.000000, 8.000000)" fill="#FFFFFF" stroke-width="2.5">
                        <path d="M11.5586564,22.1454568 C7.73641455,20.298952 5.09244585,16.3740351 5.09244585,11.8407577 C5.09244585,5.53800771 10.2037526,0.410755597 16.4858504,0.410755597 C22.7679482,0.410755597 27.8792549,5.53753468 27.8792549,11.8402847 C27.8792549,16.2228509 25.4079362,20.0370635 21.7900925,21.9543502 C22.0140459,21.9933431 22.1965006,22.0365681 22.3286876,22.0838826 C28.7891092,24.3962988 33.1902144,31.3019619 33.9833157,39.225338 C34.0771488,40.1638441 33.7720735,41.0999851 33.1468343,41.7939309 C32.5324402,42.4746317 31.6549363,42.8653606 30.7397106,42.8653606 L3.26030703,42.8653606 C2.34460982,42.8653606 1.46757748,42.4746317 0.853183319,41.7934579 C0.227472611,41.099512 -0.0771310939,40.1638441 0.0167019361,39.225338 C0.793299928,31.4713093 5.05303657,24.987859 11.1347372,22.304791 C11.239734,22.2474275 11.3829244,22.1943467 11.5586564,22.1454568 Z" id="Shape"></path>
                    </g>
                </g>
            </g>
        </g>
    </g>
</svg>