<?xml version="1.0" encoding="UTF-8"?>
<svg width="86px" height="55px" viewBox="0 0 86 55" version="1.1" xmlns="http://www.w3.org/2000/svg" xmlns:xlink="http://www.w3.org/1999/xlink">
    <!-- Generator: Sketch 51.3 (57544) - http://www.bohemiancoding.com/sketch -->
    <title>Groupgiving_emptystate</title>
    <desc>Created with Sketch.</desc>
    <defs></defs>
    <g id="Empty-states" stroke="none" stroke-width="1" fill="none" fill-rule="evenodd">
        <g id="Giving_empty-state" transform="translate(-145.000000, -241.000000)" fill="#B1B1B1" stroke="#B1B1B1" stroke-width="0.5">
            <g id="Group" transform="translate(146.000000, 242.000000)">
                <g id="giving-copy">
                    <path d="M78.7090433,21.6335924 C77.8432855,21.6487294 76.9163856,21.8499574 75.9666306,22.2853223 C75.9661095,22.2855087 75.9655886,22.2856956 75.9650678,22.2858829 L56.6411084,31.1784961 C56.2847061,29.1307095 54.2957292,27.5588025 51.9721307,27.6226207 C51.971512,27.6227135 51.9708935,27.622807 51.970275,27.622901 L41.4450281,27.9306857 C38.7053502,27.9297513 36.6305203,27.2984844 34.1849304,26.6219934 C31.7373871,25.9448485 28.9430133,25.2396721 25.0136021,25.2396721 C21.5105259,25.2396721 16.2891197,26.4447416 12.5409854,27.7776343 L12.5409854,24.2585734 C12.5409314,23.7425511 12.103674,23.3242453 11.5642731,23.3241937 L0.976712278,23.3241937 C0.437311323,23.3242453 5.39320061e-05,23.7425511 0,24.2585734 L0,31.9017995 L0,52.0656203 C5.39320062e-05,52.5816426 0.437311323,52.9999484 0.976712278,53 L11.5642731,53 C12.103674,52.9999484 12.5409314,52.5816426 12.5409854,52.0656203 L12.5409854,48.8966715 C26.1317423,46.3800132 34.0265077,50.2716112 45.6124641,50.2716112 C45.612985,50.2716116 45.6135059,50.2716116 45.6140268,50.2716112 C47.5955807,50.2716112 50.1208703,49.2305254 53.2168529,47.693097 C56.3127378,46.1555751 59.8899465,44.0727493 63.5131583,41.8342558 C70.7596798,37.3572689 78.1953903,32.2506034 82.1024348,29.7231997 C82.1027605,29.723013 82.103086,29.7228261 82.1034115,29.7226391 C83.2115892,29.0041945 83.8385409,27.9244253 83.9707877,26.8301732 C84.1029369,25.7359212 83.7808172,24.6342875 83.1243688,23.7219217 C82.221789,22.4673862 80.6135346,21.6002257 78.7090433,21.6335831 L78.7090433,21.6335924 Z M78.9476541,23.4529979 C80.1317224,23.4614073 80.9827318,24.0411245 81.5152354,24.7812654 C81.9209616,25.3451636 82.1027278,26.0177301 82.0304511,26.6158265 C81.9581744,27.2137361 81.6720953,27.7443704 81.008224,28.1751194 C81.008224,28.1753063 81.0072473,28.1754932 81.0072473,28.17568 C77.0417955,30.7408327 69.6421256,35.8231108 62.4533279,40.2644979 C58.8587337,42.4853316 55.3178586,44.5440504 52.3166171,46.034573 C49.3166454,47.524348 46.7667426,48.4004224 45.6123664,48.4029452 C45.6123664,48.4029452 45.6113897,48.4029452 45.6109013,48.4029452 C34.5943682,48.4025715 26.4005336,44.5219057 12.5408877,46.9949284 L12.5408877,44.2729869 C12.5458692,43.936016 12.3608061,43.6225826 12.0565626,43.4527064 C11.7523191,43.2828302 11.3760317,43.2828302 11.0717882,43.4527064 C10.7675447,43.6225826 10.5824816,43.936016 10.5874631,44.2729869 L10.5874631,51.131334 L7.66709342,51.131334 L7.66709342,25.1929531 L10.5874631,25.1929531 L10.5874631,32.0513002 C10.5824816,32.3882711 10.7675447,32.7017045 11.0717882,32.8715807 C11.3760317,33.0414569 11.7523191,33.0414569 12.0565626,32.8715807 C12.3608061,32.7017045 12.5458692,32.3882711 12.5408877,32.0513002 L12.5408877,29.7778609 C16.0702385,28.4425389 21.8115486,27.1084315 25.0135045,27.1084315 C28.7025467,27.1084315 31.2260782,27.7486685 33.6424644,28.4171237 C36.0589483,29.085579 38.3928999,29.7994451 41.4515721,29.7994451 C41.4614378,29.7994946 41.4713037,29.7994012 41.4811665,29.7991648 L52.027901,29.4908195 C52.0288777,29.4908195 52.0290731,29.4908195 52.0296591,29.4908195 C53.5444422,29.4506412 54.7446262,30.5887156 54.7446262,31.8363929 C54.7446262,33.0845373 53.5595812,34.1164663 51.9582614,34.1826203 C51.9582614,34.1826203 51.9582614,34.1826203 51.9582614,34.1826203 L31.8968842,35.0048745 C31.5442535,35.0138664 31.2240853,35.2040458 31.059272,35.5024148 C30.8944586,35.8007839 30.9106078,36.1609838 31.1015209,36.4447567 C31.2924339,36.7285296 31.6284479,36.8917847 31.9805885,36.8718586 L52.0422587,36.0496045 C53.9451872,35.9711166 55.6666426,34.9215278 56.3662616,33.3728869 C56.4007167,33.3613123 56.4344663,33.3478985 56.4673513,33.3327086 L76.8107053,23.9708218 C76.8107053,23.9706349 76.8117797,23.9704481 76.8122681,23.9702612 C77.616786,23.6017138 78.3280279,23.448952 78.9478495,23.4531381 L78.9476541,23.4529979 Z M1.95342456,25.1929531 L5.71376653,25.1929531 L5.71376653,51.131334 L1.95342456,51.131334 L1.95342456,31.9017995 L1.95342456,25.1929531 Z" id="Shape"></path>
                    <path d="M26.2548342,10.8163265 C23.8185737,10.8163265 21.8181818,13.013136 21.8181818,15.6887702 C21.8181818,18.356902 23.8185737,20.5510204 26.2548342,20.5510204 L33.7451658,20.5510204 C36.1815191,20.5510204 38.1818182,18.356902 38.1818182,15.6887702 C38.1818182,13.013136 36.1815191,10.8163265 33.7451658,10.8163265 L26.2548342,10.8163265 Z M26.2548342,12.8550059 L33.7451658,12.8550059 C35.1700923,12.8550059 36.3254783,14.1239513 36.3254783,15.6887702 C36.3254783,17.2407148 35.1700923,18.5123411 33.7451658,18.5123411 L26.2548342,18.5123411 C24.8300005,18.5123411 23.6745217,17.2407148 23.6745217,15.6887702 C23.6745217,14.1239513 24.8300005,12.8550059 26.2548342,12.8550059 Z" id="Shape"></path>
                    <path d="M54.6117016,10.8163265 C52.1808379,10.8163265 50.1818182,13.013136 50.1818182,15.6887702 C50.1818182,18.356902 52.1808379,20.5510204 54.6117016,20.5510204 L62.1155711,20.5510204 C64.5464348,20.5510204 66.5454545,18.356902 66.5454545,15.6887702 C66.5454545,13.013136 64.5464348,10.8163265 62.1155711,10.8163265 L54.6117016,10.8163265 Z M54.6117016,12.8550059 L62.1155711,12.8550059 C63.5295119,12.8550059 64.6880611,14.1239513 64.6880611,15.6887702 C64.6880611,17.2407148 63.5295119,18.5123411 62.1155711,18.5123411 L54.6117016,18.5123411 C53.1977608,18.5123411 52.0392116,17.2407148 52.0392116,15.6887702 C52.0392116,14.1239513 53.1977608,12.8550059 54.6117016,12.8550059 Z" id="Shape"></path>
                    <path d="M40.4391704,0 C38.0015272,0 36,2.19680951 36,4.87244364 C36,7.54807776 38.004499,9.73469388 40.4391704,9.73469388 L47.933753,9.73469388 C50.3685172,9.73469388 52.3636364,7.54481588 52.3636364,4.87244364 C52.3636364,2.20008159 50.371489,0 47.933753,0 L40.4391704,0 Z M40.4391704,2.03867935 L47.933753,2.03867935 C49.3594882,2.03867935 50.5062429,3.30436284 50.5062429,4.87244364 C50.5062429,6.44053463 49.36246,7.69601453 47.933753,7.69601453 L40.4391704,7.69601453 C39.0105562,7.69601453 37.8573935,6.43726255 37.8573935,4.87244364 C37.8573935,3.30762472 39.013528,2.03867935 40.4391704,2.03867935 Z" id="Shape"></path>
                </g>
            </g>
        </g>
    </g>
</svg>