<?xml version="1.0" encoding="UTF-8"?>
<svg width="53px" height="41px" viewBox="0 0 53 41" version="1.1" xmlns="http://www.w3.org/2000/svg" xmlns:xlink="http://www.w3.org/1999/xlink">
    <!-- Generator: Sketch 51.3 (57544) - http://www.bohemiancoding.com/sketch -->
    <title>Group 4nomemberrequest</title>
    <desc>Created with Sketch.</desc>
    <defs></defs>
    <g id="Empty-states" stroke="none" stroke-width="1" fill="none" fill-rule="evenodd">
        <g id="Bulletin-empty-state" transform="translate(-1137.000000, -139.000000)" fill-rule="nonzero" stroke="#B1B1B1">
            <g id="Group-4" transform="translate(1138.000000, 140.000000)">
                <g id="groups">
                    <g id="Group-Copy" transform="translate(25.500000, 0.000000)" stroke-width="1.5">
                        <path d="M12.0807114,16.0708721 C16.684187,16.0708721 20.4297154,12.4662744 20.4297154,8.03526977 C20.4297154,3.60426512 16.684187,0 12.0807114,0 C7.47723577,0 3.73170732,3.60459767 3.73170732,8.03560233 C3.73170732,12.466607 7.47689024,16.0708721 12.0807114,16.0708721 Z" id="Shape"></path>
                        <path d="M24.9027269,28.1946837 C24.321548,22.6243349 21.09645,17.7694659 16.3623,16.1437744 C15.2415814,15.7589233 9.1900027,15.7589233 8.1594545,16.2990791 C3.70282849,18.1853488 0.581324423,22.7433907 0.0122390574,28.1946837 C-0.0565211052,28.8544791 0.166690277,29.5122791 0.625206537,30.0001418 C1.07543011,30.4790256 1.71811304,30.7537186 2.3891293,30.7537186 L22.5258366,30.7537186 C23.1965074,30.7537186 23.8395358,30.4790256 24.2897594,30.0004744 C24.7479301,29.5126116 24.971487,28.8544791 24.9027269,28.1946837 Z" id="Shape"></path>
                    </g>
                    <g id="Group-Copy-2">
                        <path d="M12.0807114,16.0708721 C16.684187,16.0708721 20.4297154,12.4662744 20.4297154,8.03526977 C20.4297154,3.60426512 16.684187,0 12.0807114,0 C7.47723577,0 3.73170732,3.60459767 3.73170732,8.03560233 C3.73170732,12.466607 7.47689024,16.0708721 12.0807114,16.0708721 Z" id="Shape" stroke-width="1.8"></path>
                        <path d="M24.9027269,28.1946837 C24.321548,22.6243349 21.09645,17.7694659 16.3623,16.1437744 C15.2415814,15.7589233 9.1900027,15.7589233 8.1594545,16.2990791 C3.70282849,18.1853488 0.581324423,22.7433907 0.0122390574,28.1946837 C-0.0565211052,28.8544791 0.166690277,29.5122791 0.625206537,30.0001418 C1.07543011,30.4790256 1.71811304,30.7537186 2.3891293,30.7537186 L22.5258366,30.7537186 C23.1965074,30.7537186 23.8395358,30.4790256 24.2897594,30.0004744 C24.7479301,29.5126116 24.971487,28.8544791 24.9027269,28.1946837 Z" id="Shape" stroke-width="1.5"></path>
                    </g>
                    <g id="Group" transform="translate(10.017857, 2.720930)" fill="#FFFFFF" stroke-width="1.8">
                        <path d="M9.63901259,18.254182 C6.45156278,16.7033701 4.24670031,13.4069757 4.24670031,9.59964147 C4.24670031,4.30619186 8.50912914,3.01980663e-14 13.7479058,3.01980663e-14 C18.9866825,3.01980663e-14 23.2491113,4.30579457 23.2491113,9.59924419 C23.2491113,13.2800016 21.1882254,16.4834194 18.1712276,18.0936786 C18.3579872,18.1264273 18.51014,18.1627304 18.6203737,18.2024681 C24.0078584,20.1445821 27.6780349,25.9443964 28.3394192,32.5989506 C28.4176686,33.3871677 28.1632598,34.1733983 27.6418593,34.7562181 C27.1295028,35.3279138 26.3977334,35.6560727 25.634507,35.6560727 L2.71884027,35.6560727 C1.95522064,35.6560727 1.22384448,35.3279138 0.711487952,34.7558208 C0.189694312,34.173001 -0.064321281,33.3871677 0.0139281044,32.5989506 C0.661549902,26.086625 4.21383607,20.6414119 9.28549724,18.388001 C9.37305635,18.3398235 9.49246587,18.2952429 9.63901259,18.254182 Z" id="Shape"></path>
                    </g>
                </g>
            </g>
        </g>
    </g>
</svg>