<?xml version="1.0" encoding="UTF-8"?>
<svg width="55px" height="67px" viewBox="0 0 55 67" version="1.1" xmlns="http://www.w3.org/2000/svg" xmlns:xlink="http://www.w3.org/1999/xlink">
    <!-- Generator: Sketch 51.3 (57544) - http://www.bohemiancoding.com/sketch -->
    <title>Combined Shapenotification_emptystate</title>
    <desc>Created with Sketch.</desc>
    <defs></defs>
    <g id="Empty-states" stroke="none" stroke-width="1" fill="none" fill-rule="evenodd">
        <g id="Notification_empty-state" transform="translate(-164.000000, -243.000000)" fill-rule="nonzero" stroke="#B1B1B1" stroke-width="2.5">
            <path d="M214.090521,293.566678 C211.932775,290.866678 208.990393,287.166678 208.990393,283.266678 L208.990393,271.066678 C208.990393,260.466678 201.242122,251.866678 191.336104,251.866678 C181.430086,251.866678 173.779894,260.466678 173.779894,271.066678 L173.779894,283.366678 C173.779894,287.166678 170.543274,290.766678 168.581687,293.466678 C166.718178,295.966678 165.345067,297.966678 166.325861,299.866678 C167.208575,301.566678 169.366322,301.866678 171.131751,301.866678 L181.724324,301.866678 L201.340201,301.866678 L212.128933,301.866678 C213.207807,301.866678 215.85595,301.866678 216.738665,299.966678 C217.621379,297.966678 216.150188,296.066678 214.090521,293.566678 Z M191.434183,307.966678 C188.099484,307.966678 185.451341,305.266678 185.451341,301.866678 L197.318946,301.866678 C197.318946,305.166678 194.670803,307.966678 191.434183,307.966678 Z M191,246.53598 C191,244.488007 192,244.488007 192,246.53598 C192,247.901296 192,249.389302 192,251 L191,251 C191,249.389302 191,247.901296 191,246.53598 Z" id="Combined-Shape"></path>
        </g>
    </g>
</svg>