<?xml version="1.0" encoding="UTF-8"?>
<svg width="94px" height="73px" viewBox="0 0 94 73" version="1.1" xmlns="http://www.w3.org/2000/svg" xmlns:xlink="http://www.w3.org/1999/xlink">
    <!-- Generator: Sketch 51.3 (57544) - http://www.bohemiancoding.com/sketch -->
    <title>inboxprayerinbox_empty</title>
    <desc>Created with Sketch.</desc>
    <defs></defs>
    <g id="Empty-states" stroke="none" stroke-width="1" fill="none" fill-rule="evenodd">
        <g id="Shared-with-me_empty-state-Copy" transform="translate(-141.000000, -261.000000)" fill="#B1B1B1" fill-rule="nonzero">
            <g id="inbox" transform="translate(141.000000, 261.000000)">
                <path d="M58.1015634,50 L36.8980611,50 C35.2999402,50 34,51.2682778 34,52.8274736 L34,59.1723433 C34,60.731539 35.2999402,62 36.8980611,62 L58.1017511,62 C59.699872,62 61,60.7317222 61,59.1723433 L61,52.8274736 C60.9996245,51.268461 59.6996843,50 58.1015634,50 Z M57.2734923,58.3646245 L37.7259444,58.3646245 L37.7259444,53.6355587 L57.2734923,53.6355587 L57.2734923,58.3646245 Z" id="Shape"></path>
                <path d="M93.077625,34.8422715 L93.1068164,34.8276054 L79.4465234,7.859567 C78.342207,5.67981677 76.1372461,4.32595173 73.6915937,4.32595173 L71.0953945,4.32595173 L71.0953945,1.81896398 C71.0953945,0.814335618 70.2798711,0 69.2737773,0 L24.7264062,0 C23.7203125,0 22.9047891,0.814335618 22.9047891,1.81896398 L22.9047891,4.32595173 L20.3085898,4.32595173 C17.8629375,4.32595173 15.6579766,5.67981677 14.5536602,7.859567 L0.893183594,34.8276054 L0.922375,34.8422715 C0.337261719,35.8045515 0,36.9331085 0,38.1386625 L0,66.6292262 C0,70.1421256 2.86222656,73 6.38025,73 L87.6199336,73 C91.137957,73 94,70.1419423 94,66.6292262 L94,38.1386625 C94,36.9331085 93.6627383,35.8045515 93.077625,34.8422715 Z M71.0952109,8.36811428 L73.6914102,8.36811428 C74.6018516,8.36811428 75.4226992,8.87244505 75.8341328,9.6842141 L87.0205,31.7680721 L79.4140273,31.7680721 L79.4140273,24.9728978 C79.4140273,23.9682695 78.5985039,23.1539339 77.5924102,23.1539339 L75.3387969,23.1539339 L75.3387969,13.3960226 C75.3387969,12.3913942 74.5232734,11.5770586 73.5171797,11.5770586 L71.0952109,11.5770586 L71.0952109,8.36811428 Z M75.7709766,26.7916785 L75.7709766,31.7678888 L66.1581914,31.7678888 C64.5087852,31.7678888 63.0051523,32.7382351 62.3275078,34.2394945 L59.7028516,40.0527729 C59.6778828,40.1075875 59.6229883,40.1431528 59.5625859,40.1431528 L34.4375977,40.1431528 C34.3771953,40.1431528 34.3223008,40.1075875 34.297332,40.0525895 L31.6728594,34.2396778 C30.9950312,32.7382351 29.4913984,31.7678888 27.8419922,31.7678888 L18.229207,31.7678888 L18.229207,26.7916785 L75.7709766,26.7916785 Z M26.5480234,3.63792796 L67.4519766,3.63792796 L67.4519766,11.5768753 L26.5480234,11.5768753 L26.5480234,3.63792796 Z M71.6955625,15.2148032 L71.6955625,23.1537505 L22.3044375,23.1537505 L22.3044375,15.2148032 L71.6955625,15.2148032 Z M18.1658672,9.6842141 C18.5771172,8.87226172 19.3981484,8.36811428 20.3085898,8.36811428 L22.9047891,8.36811428 L22.9047891,11.5768753 L20.4828203,11.5768753 C19.4767266,11.5768753 18.6612031,12.3912109 18.6612031,13.3958392 L18.6612031,23.1537505 L16.4075898,23.1537505 C15.4014961,23.1537505 14.5859727,23.9680861 14.5859727,24.9727145 L14.5859727,31.7678888 L6.9795,31.7678888 L18.1658672,9.6842141 Z M87.6199336,68.9576541 L6.38025,68.9576541 C5.09435937,68.9576541 4.04805859,67.9128773 4.04805859,66.6292262 L4.04805859,38.1386625 C4.04805859,36.8548281 5.09417578,35.8102346 6.38025,35.8102346 L27.8419922,35.8102346 C27.9022109,35.8102346 27.9574727,35.8457999 27.9824414,35.9009812 L30.6069141,41.7138929 C31.2847422,43.2153356 32.7881914,44.1853153 34.4375977,44.1853153 L59.5624023,44.1853153 C61.2118086,44.1853153 62.7154414,43.2151523 63.3930859,41.7140762 L66.0177422,35.9009812 L66.0177422,35.9007978 C66.0427109,35.8457999 66.0976055,35.8102346 66.1580078,35.8102346 L87.61975,35.8102346 C88.9056406,35.8102346 89.9515742,36.8550115 89.9515742,38.1386625 L89.9515742,66.6292262 L89.9517578,66.6292262 C89.9519414,67.9132439 88.9058242,68.9576541 87.6199336,68.9576541 Z" id="Shape"></path>
            </g>
        </g>
    </g>
</svg>