<?xml version="1.0" encoding="UTF-8"?>
<svg width="57px" height="43px" viewBox="0 0 57 43" version="1.1" xmlns="http://www.w3.org/2000/svg" xmlns:xlink="http://www.w3.org/1999/xlink">
    <!-- Generator: Sketch 52.1 (67048) - http://www.bohemiancoding.com/sketch -->
    <title>ach</title>
    <desc>Created with Sketch.</desc>
    <g id="web" stroke="none" stroke-width="1" fill="none" fill-rule="evenodd">
        <g id="church-payment-copy-2" transform="translate(-826.000000, -585.000000)" fill="#555555">
            <g id="ach" transform="translate(826.000000, 588.000000)">
                <g>
                    <path d="M0,5.51724138 L55.2380952,5.51724138 L55.2380952,40 L0,40 L0,5.51724138 Z M2.76190476,10.3448276 L2.76190476,36.5517241 L52.4761905,36.5517241 L52.4761905,10.3448276 L2.76190476,10.3448276 Z" id="Combined-Shape" fill-rule="nonzero"></path>
                    <g id="Group-2" transform="translate(6.904762, 13.793103)">
                        <text id="$" font-family="Raleway-SemiBold, Raleway" font-size="20" font-weight="500" letter-spacing="-0.125">
                            <tspan x="2.07142857" y="17.6666667">$</tspan>
                        </text>
                        <rect id="Rectangle-3" x="0" y="21.3333333" width="12.4285714" height="2.66666667"></rect>
                    </g>
                    <path d="M40.4571079,7.5976468 C40.4901072,7.58192108 40.5204918,7.57202002 40.5492474,7.56491863 C40.5353078,7.56802872 40.5265614,7.56990186 40.5012841,7.57531526 C40.4767424,7.58064494 40.4767424,7.58064494 40.4445082,7.58814956 L40.3782455,7.6114951 C40.4042971,7.60526974 40.4306337,7.60065366 40.4571079,7.5976468 Z M40.374014,9.58415002 C40.230781,9.56720922 40.0896641,9.52708183 39.9564493,9.46377045 C39.5896256,9.28943467 39.3213979,8.95758066 39.2454128,8.62036323 C39.1597236,8.3315586 39.1087242,8.03374623 39.0923848,7.66343223 C39.0954743,7.50115484 39.0852712,7.33697356 39.0567324,7.03873849 C39.0532813,7.00279211 39.0532813,7.00279211 39.0497468,6.96621741 C38.9808535,6.25330751 38.9713221,5.91239398 39.0535399,5.44229766 C39.0725013,5.33389021 39.0660824,5.2096875 39.0234369,4.87228227 C38.9782551,4.51480996 38.9629748,4.3417148 38.9687723,4.10152823 C38.9760047,3.80197223 38.9738048,3.50636682 38.9636563,3.03722107 C38.9617202,2.94892561 38.9617202,2.94892561 38.9597185,2.86004462 C38.9339975,1.71802121 38.9397818,1.20308018 39.0131783,0.560872672 C39.1113314,-0.465788461 39.2781224,-1.48492839 39.5167858,-2.50770729 C39.5756351,-2.74068895 39.6004833,-2.84819087 39.6204407,-2.96474086 C39.6204931,-2.96504643 39.6204931,-2.96504643 39.6208029,-2.96702958 C39.6225172,-2.97883414 39.6225172,-2.97883414 39.6262261,-3.00736015 C39.706956,-3.63006888 40.0172712,-4.10759484 40.7631577,-4.18866784 C41.4248005,-4.30729275 42.0936987,-3.99039114 42.3785002,-3.4478714 C42.85192,-2.68716281 43.0621288,-2.05905944 43.4022855,-0.683680466 C43.4174372,-0.622412607 43.4174372,-0.622412607 43.4325021,-0.561604536 C43.4701389,-0.410204885 43.4852898,-0.349839851 43.507844,-0.261880823 C43.7735813,0.774415978 44.02002,1.85381835 44.2606194,3.02155211 C44.3259681,3.33872326 44.3973386,3.6472292 44.5162673,4.13718057 C44.5387506,4.22971524 44.5387506,4.22971524 44.5613879,4.32270939 C44.724439,4.99255242 44.7963418,5.30000652 44.8760315,5.68718752 C45.1130746,6.83902878 45.3124305,8.03784128 45.4853575,9.32403481 C45.5049107,9.47044794 45.5049107,9.47044794 45.5240136,9.61545352 C45.5640692,9.9195882 45.5803966,10.0413504 45.6030988,10.2015371 C45.6546969,10.5656135 45.7036749,10.8601369 45.7606527,11.1369131 C45.8980766,11.8037006 45.999133,12.4772858 46.0634543,13.1555007 C46.1140917,13.6936627 45.8979292,14.1714121 45.4758384,14.4666067 C45.224912,14.6420952 44.9850205,14.7166942 44.6509411,14.776114 C44.3157306,14.8357317 44.0618044,14.8559516 43.5110599,14.8819759 C43.4605036,14.8843648 43.4605036,14.8843648 43.410797,14.8867558 C43.158794,14.8989847 43.0030193,14.9096729 42.8503252,14.9269716 C42.8451845,14.9275542 42.8204123,14.9331072 42.7379665,14.9544311 C42.1856696,15.0972778 41.8208494,15.1100295 41.336646,14.8218906 C40.6991116,14.4425002 40.5795076,13.941268 40.6631834,13.303677 C40.6638442,13.2986467 40.6638442,13.2986467 40.6644764,13.2938422 C40.6682642,13.2650606 40.6677922,13.2744877 40.6761653,13.3095317 C40.5054504,12.2997529 40.415524,11.2782866 40.4078423,10.2826536 C40.3994052,10.0496083 40.388119,9.8167002 40.374014,9.58415002 Z M45.1322048,27.6895403 C45.1321482,27.6904124 45.1320916,27.6912844 45.1320349,27.6921564 C45.3522245,27.7320723 45.5126513,27.8381549 45.6295286,27.967515 C45.6769021,28.0199479 45.7015676,28.0581807 45.7179335,28.0899835 C45.7127676,28.079945 45.6943436,28.0328039 45.6671411,27.9537635 C45.6485297,27.898472 45.6327381,27.8517207 45.6187177,27.810956 C45.4715712,27.7504174 45.3076748,27.71133 45.1322048,27.6895403 Z M46.246361,29.3974178 L46.202389,29.2666766 C46.2095082,29.2978858 46.2117859,29.3302343 46.2089793,29.3625085 L45.212739,29.2758763 L46.1345093,29.6636127 C46.1410921,29.6480852 46.1410921,29.6480852 46.1489716,29.6299219 C46.222583,29.4608791 46.2321815,29.4393357 46.246361,29.3974178 Z M46.202389,29.2666766 L46.1827519,29.2082899 C46.1912508,29.2270683 46.1978179,29.2466376 46.202389,29.2666766 Z M46.5956489,19.0618419 C46.5994724,19.1603604 46.6141488,19.2582191 46.639442,19.3537281 L46.6617576,19.4617617 C46.7493734,20.0473747 46.8015544,20.6376205 46.812514,21.1487577 C46.8268304,21.2800202 46.8387334,21.3857768 46.8660547,21.6260986 C46.9478183,22.3454073 46.9817667,22.6741297 47.0117213,23.0874833 C47.0264119,23.2902042 47.0371023,23.4841104 47.0436663,23.6730002 C47.0521273,23.9164731 47.0604812,24.1119455 47.0806885,24.5572264 C47.0916175,24.7980637 47.0964299,24.9059576 47.1021402,25.0409789 C47.1157906,25.3637445 47.1250328,25.629844 47.1290677,25.8456017 C47.1767812,26.5925426 47.1698021,27.3419065 47.1051302,28.1189195 C47.0128016,28.9279538 47.0014145,29.7439592 47.0724117,30.5716675 C47.0892283,30.8143069 47.0666561,31.0579202 47.0056778,31.2932236 C46.8745592,31.9056041 46.3015277,32.3250615 45.673452,32.2638074 L45.573031,32.248835 C45.0396791,32.1413888 44.6491797,31.6965986 44.6012978,31.1690323 C44.5590499,30.982176 44.5171383,30.7998673 44.4372925,30.454244 C44.4367975,30.4521013 44.4367975,30.4521013 44.4363025,30.4499585 C44.3771392,30.1938622 44.34577,30.0577295 44.314193,29.9194673 C44.2524202,29.751593 44.2177216,29.5751975 44.2112548,29.3968315 C44.1031711,29.290594 44.018225,29.1579366 43.9395906,29.0051318 C43.878299,28.8860282 43.8327234,28.769415 43.776006,28.6046151 C43.7300473,28.4687468 43.7144855,28.4229451 43.7021453,28.389823 C43.5392634,27.9526507 43.4570898,27.596775 43.3254284,26.877592 C43.3225852,26.8620591 43.3225852,26.8620591 43.3197534,26.8465834 C43.2279391,26.3448344 43.1827306,26.1300242 43.110325,25.8844285 C42.8464901,24.989515 42.6853769,24.2492023 42.3865745,22.6877253 C42.3815781,22.6616143 42.3815781,22.6616143 42.3765856,22.6355207 C42.1442823,21.4213933 42.0335973,20.8861779 41.8682251,20.2343795 C41.4948967,18.7628763 41.2710278,17.7661462 41.1007974,16.7305142 C41.0109685,16.1840173 40.9437378,15.6129759 40.8852735,14.9432586 C40.7955945,13.9157463 41.5658574,13.2894163 42.5839154,13.1912974 C42.8417727,13.1664472 43.0508492,13.1431568 43.5225577,13.0882369 C43.5230137,13.0881838 43.5230137,13.0881838 43.5234698,13.0881307 C44.0123212,13.0312149 44.2311834,13.0068456 44.4757537,12.9838805 C44.9042189,12.9283943 45.3359069,13.0658127 45.652734,13.3599007 C45.9444846,13.6307121 46.1105918,14.0083019 46.1142845,14.4031224 C46.267619,15.8009121 46.3469864,16.5694258 46.4209529,17.4215974 C46.532005,17.9615487 46.5905126,18.510797 46.5956489,19.0618419 Z" id="Combined-Shape" stroke="#FFFFFF" stroke-width="2" fill-rule="nonzero" transform="translate(43.053148, 14.028311) rotate(47.000000) translate(-43.053148, -14.028311) "></path>
                </g>
            </g>
        </g>
    </g>
</svg>