<?xml version="1.0" encoding="UTF-8"?>
<svg width="48px" height="45px" viewBox="0 0 48 45" version="1.1" xmlns="http://www.w3.org/2000/svg" xmlns:xlink="http://www.w3.org/1999/xlink">
    <!-- Generator: Sketch 52.5 (67469) - http://www.bohemiancoding.com/sketch -->
    <title>bank</title>
    <desc>Created with Sketch.</desc>
    <g id="Page-1" stroke="none" stroke-width="1" fill="none" fill-rule="evenodd">
        <g id="bank" transform="translate(0.000000, -1.000000)" fill="#333333" fill-rule="nonzero">
            <path d="M47.06,12.68 L24.91,1.19 C24.41,0.93 23.59,0.93 23.09,1.19 L0.94,12.68 C0.44,12.94 0.23,13.56 0.49,14.07 L1.35,15.79 C1.6,16.3 2.27,16.71 2.84,16.71 L45.18,16.71 C45.75,16.71 46.41,16.3 46.67,15.79 L47.53,14.07 C47.77,13.56 47.57,12.94 47.06,12.68 Z M5.64,38.11 C4.83,38.11 4.16,38.77 4.16,39.59 C4.16,40.4 4.82,41.07 5.64,41.07 L42.36,41.07 C43.17,41.07 43.84,40.41 43.84,39.59 C43.84,38.78 43.18,38.11 42.36,38.11 L41.14,38.11 L40.17,21.33 C40.17,20.79 40.55,20.35 41.02,20.35 C41.49,20.35 41.87,19.97 41.87,19.5 C41.87,19.03 41.43,18.65 40.89,18.65 L34.35,18.65 C33.81,18.65 33.37,19.03 33.37,19.5 C33.37,19.97 33.75,20.35 34.22,20.35 C34.69,20.35 35.07,20.79 35.07,21.33 L34.1,38.11 L27.53,38.11 L26.56,21.33 C26.56,20.79 26.94,20.35 27.41,20.35 C27.88,20.35 28.26,19.97 28.26,19.5 C28.26,19.03 27.82,18.65 27.28,18.65 L20.74,18.65 C20.2,18.65 19.76,19.03 19.76,19.5 C19.76,19.97 20.14,20.35 20.61,20.35 C21.08,20.35 21.46,20.79 21.46,21.33 L20.49,38.11 L13.92,38.11 L12.95,21.33 C12.95,20.79 13.33,20.35 13.8,20.35 C14.27,20.35 14.65,19.97 14.65,19.5 C14.65,19.03 14.21,18.65 13.67,18.65 L7.12,18.65 C6.58,18.65 6.14,19.03 6.14,19.5 C6.14,19.97 6.52,20.35 6.99,20.35 C7.46,20.35 7.84,20.79 7.84,21.33 L6.86,38.11 L5.64,38.11 Z M45.17,42.05 L2.84,42.05 C2.03,42.05 1.36,42.71 1.36,43.53 C1.36,44.34 2.02,45.01 2.84,45.01 L45.17,45.01 C45.98,45.01 46.65,44.35 46.65,43.53 C46.64,42.71 45.98,42.05 45.17,42.05 Z" id="Shape"></path>
        </g>
    </g>
</svg>