<?xml version="1.0" encoding="UTF-8"?>
<svg width="780px" height="600px" viewBox="0 0 780 600" version="1.1" xmlns="http://www.w3.org/2000/svg" xmlns:xlink="http://www.w3.org/1999/xlink">
    <!-- Generator: Sketch 52.1 (67048) - http://www.bohemiancoding.com/sketch -->
    <title>undraw_Calculator_0evy</title>
    <desc>Created with Sketch.</desc>
    <defs>
        <linearGradient x1="50.0022696%" y1="100.00331%" x2="50.0022696%" y2="-0.000368254062%" id="linearGradient-1">
            <stop stop-color="#808080" stop-opacity="0.25" offset="0%"></stop>
            <stop stop-color="#808080" stop-opacity="0.12" offset="54%"></stop>
            <stop stop-color="#808080" stop-opacity="0.1" offset="100%"></stop>
        </linearGradient>
    </defs>
    <g id="web" stroke="none" stroke-width="1" fill="none" fill-rule="evenodd">
        <g id="church-payment-copy-3" transform="translate(-509.000000, -81.000000)" fill-rule="nonzero">
            <g id="undraw_Calculator_0evy" transform="translate(509.000000, 81.000000)">
                <path d="M445.055253,95.5261146 C395.948638,93.8063694 349.178988,77.8394904 304.511089,60.366879 C259.843191,42.8942675 215.61537,23.5414013 167.684825,14.277707 C136.856615,8.32356688 101.604864,7.48280255 76.7632296,24.1299363 C52.8624514,40.1808917 45.1383268,67.811465 40.9803502,93.477707 C37.8618677,112.784713 36.0256809,133.10828 44.5844358,151.184713 C50.5254864,163.735032 61.0797665,174.282803 68.3789883,186.298089 C93.7669261,228.122293 75.8223735,279.729936 48.3175097,320.53758 C35.418677,339.699363 20.440856,357.989809 10.4784047,378.366879 C0.515953307,398.743949 -4.08968872,422.124841 4.62081712,442.929936 C13.263035,463.566879 33.8480545,479.036943 56.1478599,489.928662 C101.43035,512.094268 154.785992,518.384713 206.844163,521.969427 C322.038327,529.910828 437.854669,526.471338 553.352335,523.031847 C596.100584,521.755414 639.030934,520.463694 681.088716,513.806369 C704.435603,510.11465 728.548833,504.244586 745.499416,490.112102 C767.017704,472.127389 772.351751,441.676433 757.935409,419.121019 C733.746304,381.294268 666.884825,371.900637 649.957004,331.307006 C640.647082,308.957962 650.207393,284.071338 663.728405,263.342675 C692.743191,218.889172 741.37179,179.88535 743.936381,129.072611 C745.696693,94.1732484 722.319455,59.2203822 686.172374,42.7031847 C648.280156,25.3987261 595.743969,27.5770701 567.806615,56.2242038 C538.989105,85.689172 488.395331,97.0547771 445.055253,95.5261146 Z" id="Shape" fill="#087E8B" opacity="0.1"></path>
                <ellipse id="Oval" fill="#087E8B" opacity="0.1" cx="439.918482" cy="556.112102" rx="281.482879" ry="21.0802548"></ellipse>
                <path d="M222.26965,487.834395 C222.26965,487.834395 238.203502,485.266242 247.763813,496.616561 C247.763813,496.616561 240.752918,502.180892 225.668872,494.476433 L222.26965,487.834395 Z" id="Shape" fill="#087E8B"></path>
                <path d="M220.554864,487.628025 C220.554864,487.628025 210.395136,500.254777 215.380156,514.264968 C215.380156,514.264968 223.665759,510.917197 224.568677,493.903185 L220.554864,487.628025 Z" id="Shape" fill="#087E8B"></path>
                <path d="M211.449805,466.861146 C211.449805,466.861146 217.823346,455.090446 243.31751,471.569427 C243.31751,471.569427 239.918288,479.487898 228.658366,478.84586 C217.398444,478.203822 214.408949,473.105732 211.449805,466.861146 Z" id="Shape" fill="#087E8B"></path>
                <path d="M209.788132,466.012739 C209.788132,466.012739 196.563035,464.484076 195.280739,494.988535 C195.280739,494.988535 203.664981,496.738854 209.621206,487.092994 C215.577432,477.447134 213.119066,472.035669 209.788132,466.012739 Z" id="Shape" fill="#087E8B"></path>
                <path d="M202.08677,441.69172 C202.08677,441.69172 209.522568,420.932484 236.503891,435.699363 C236.503891,435.699363 230.342802,454.746497 204.848638,448.75414 L202.08677,441.69172 Z" id="Shape" fill="#087E8B"></path>
                <path d="M193.79358,410.659873 C193.79358,410.659873 207.822957,389.678981 232.679767,409.13121 C232.679767,409.13121 223.969261,428.820382 195.918093,418.119745 L193.79358,410.659873 Z" id="Shape" fill="#087E8B"></path>
                <path d="M190.819261,381.118471 C190.819261,381.118471 207.185603,361.857325 231.829961,381.118471 C231.829961,381.118471 216.321012,398.025478 190.819261,386.040764 L190.819261,381.118471 Z" id="Shape" fill="#087E8B"></path>
                <path d="M188.269844,352.440764 C188.269844,352.440764 204.848638,332.323567 228.430739,351.370701 C228.430739,351.370701 209.735019,369.133758 188.269844,357.149045 L188.269844,352.440764 Z" id="Shape" fill="#087E8B"></path>
                <path d="M189.757004,326.973248 C189.757004,326.973248 207.208366,301.070064 229.280545,318.626752 C229.280545,318.626752 210.584825,340.884076 189.757004,331.895541 L189.757004,326.973248 Z" id="Shape" fill="#087E8B"></path>
                <path d="M193.79358,297.217834 C193.79358,297.217834 212.284436,271.536306 233.742023,291.225478 C233.742023,291.225478 211.859533,313.490446 193.79358,301.926115 L193.79358,297.217834 Z" id="Shape" fill="#087E8B"></path>
                <path d="M199.962257,270.626752 C199.962257,270.626752 221.844747,246.496815 240.935019,256.104459 C240.935019,256.104459 218.126848,281.732484 199.006226,277.024204 L199.962257,270.626752 Z" id="Shape" fill="#087E8B"></path>
                <path d="M207.610506,245.426752 C207.610506,245.426752 232.892218,215.892994 247.551362,225.73758 C247.551362,225.73758 228.946693,248.667516 205.819844,250.96051 L207.610506,245.426752 Z" id="Shape" fill="#087E8B"></path>
                <path d="M218.650389,216.191083 C218.650389,216.191083 240.752918,192.053503 256.899222,198.04586 C256.899222,198.04586 237.991051,223.08535 215.683658,223.727389 L218.650389,216.191083 Z" id="Shape" fill="#087E8B"></path>
                <path d="M228.643191,188.843312 C228.643191,188.843312 253.075097,165.722293 263.697665,169.788535 C263.697665,169.788535 246.064202,195.477707 227.580934,193.979618 L228.643191,188.843312 Z" id="Shape" fill="#087E8B"></path>
                <path d="M238.415953,163.551592 C238.415953,163.551592 259.448638,135.943949 270.921012,138.084076 C270.921012,138.084076 258.17393,162.695541 238.415953,166.364331 L238.415953,163.551592 Z" id="Shape" fill="#087E8B"></path>
                <path d="M249.023346,129.538854 C249.023346,129.538854 267.61284,108.366879 277.651167,108.42018 C277.651167,108.42018 262.976848,136.700637 248.257004,136.440764 L249.023346,129.538854 Z" id="Shape" fill="#087E8B"></path>
                <path d="M255.305837,106.86879 L273.257977,62.7745223 C273.257977,62.7745223 274.160895,102.634395 253.021984,115.047134 L255.305837,106.86879 Z" id="Shape" fill="#087E8B"></path>
                <path d="M262.597471,58.2420382 C262.597471,58.2420382 265.57179,21.4318471 263.659728,18.4356688 C263.659728,18.4356688 276.49786,49.0089172 262.468482,74.5070064 L262.597471,58.2420382 Z" id="Shape" fill="#087E8B"></path>
                <path d="M201.388716,441.194904 C201.388716,441.194904 182.768872,429.569427 170.712257,458.010191 C170.712257,458.010191 187.283463,469.08535 203.57393,448.448408 L201.388716,441.194904 Z" id="Shape" fill="#087E8B"></path>
                <path d="M193.239689,409.475159 C193.239689,409.475159 170.401167,398.980892 159.315759,428.675159 C159.315759,428.675159 176.964397,440.904459 195.318677,416.980892 L193.239689,409.475159 Z" id="Shape" fill="#087E8B"></path>
                <path d="M189.757004,382.91465 C189.757004,382.91465 173.398249,363.653503 148.784241,382.91465 C148.784241,382.91465 164.293191,399.821656 189.757004,387.836943 L189.757004,382.91465 Z" id="Shape" fill="#087E8B"></path>
                <path d="M187.715953,352.440764 C187.715953,352.440764 171.144747,332.323567 147.555058,351.370701 C147.555058,351.370701 166.258366,369.133758 187.715953,357.149045 L187.715953,352.440764 Z" id="Shape" fill="#087E8B"></path>
                <path d="M189.757004,327.707006 C189.757004,327.707006 178.132879,298.66242 152.866342,311.174522 C152.866342,311.174522 166.52393,336.894268 188.732685,332.51465 L189.757004,327.707006 Z" id="Shape" fill="#087E8B"></path>
                <path d="M195.257977,297.072611 C195.257977,297.072611 183.709728,267.561783 158.078988,281.250955 C158.078988,281.250955 173.770039,308.300637 194.119844,301.635669 L195.257977,297.072611 Z" id="Shape" fill="#087E8B"></path>
                <path d="M202.420623,270.779618 C202.420623,270.779618 197.868093,238.425478 176.622957,235.528662 C176.622957,235.528662 181.122374,269.648408 199.552529,276.611465 L202.420623,270.779618 Z" id="Shape" fill="#087E8B"></path>
                <path d="M208.149222,245.480255 C208.149222,245.480255 206.373735,206.499363 188.80856,205.146497 C188.80856,205.146497 189.400389,234.733758 206.168872,251.006369 L208.149222,245.480255 Z" id="Shape" fill="#087E8B"></path>
                <path d="M220.471401,215.075159 C220.471401,215.075159 215.228405,182.659873 198.46751,178.692994 C198.46751,178.692994 200.546498,210.09172 218.817315,223.024204 L220.471401,215.075159 Z" id="Shape" fill="#087E8B"></path>
                <path d="M230.631128,189.072611 C230.631128,189.072611 230.449027,155.312102 220.213424,150.343949 C220.213424,150.343949 213.855058,180.917197 227.664397,193.383439 L230.631128,189.072611 Z" id="Shape" fill="#087E8B"></path>
                <path d="M239.197471,163.207643 C239.197471,163.207643 237.763424,128.438217 227.156031,123.538854 C227.156031,123.538854 223.521595,151.054777 237.604086,165.48535 L239.197471,163.207643 Z" id="Shape" fill="#087E8B"></path>
                <path d="M250.502918,132.305732 C250.502918,132.305732 250.43463,104.025478 242.869844,97.3987261 C242.869844,97.3987261 235.335409,128.37707 246.549805,138 L250.502918,132.305732 Z" id="Shape" fill="#087E8B"></path>
                <path d="M254.410506,105.46242 L247.050584,58.3872611 C247.050584,58.3872611 237.042607,96.955414 254.767121,113.946497 L254.410506,105.46242 Z" id="Shape" fill="#087E8B"></path>
                <path d="M255.85214,58.6929936 C255.85214,58.6929936 236.943969,27.0496815 237.330934,23.533758 C237.330934,23.533758 239.341634,56.6980892 263.128599,73.2152866 L255.85214,58.6929936 Z" id="Shape" fill="#087E8B"></path>
                <path d="M258.067704,49.3452229 C258.067704,49.3452229 240.22179,4.40254777 232.148638,0.749044586 C232.148638,0.749044586 257.642802,13.8038217 259.554864,48.0458599 L258.067704,49.3452229 Z" id="Shape" fill="#087E8B"></path>
                <path d="M248.158366,136.70828 L246.944358,136.326115 C262.005642,86.8585987 265.761479,55.3070064 257.521401,47.4038217 L258.401556,46.4713376 C267.134825,54.8178344 263.59144,86.0178344 248.158366,136.70828 Z" id="Shape" fill="#087E8B"></path>
                <path d="M206.692412,252.512102 L204.886576,251.870064 C206.479961,247.33758 208.209922,242.736306 210.015759,238.203822 C225.73716,198.710828 239.114008,162.02293 247.695525,133.826752 L249.266148,133.06242 C240.669455,161.258599 227.527821,199.398726 211.791245,238.922293 C209.992996,243.431847 208.27821,248.002548 206.692412,252.512102 Z" id="Shape" fill="#087E8B"></path>
                <path d="M244.690856,524.866242 C244.448054,524.591083 220.031323,496.907006 203.020039,449.625478 C193.043988,421.951431 187.486675,392.859078 186.555058,363.431847 C185.394163,326.644586 193.05,285.561783 206.184047,248.254777 L207.610506,249.936306 C178.140467,333.676433 189.848054,405.43949 205.379767,448.647134 C222.216537,495.492994 246.352529,522.878981 246.587743,523.15414 L244.690856,524.866242 Z" id="Shape" fill="#087E8B"></path>
                <path d="M138.305837,518.828025 C138.305837,518.828025 109.435214,517.077707 112.842023,537.454777 C112.842023,537.454777 112.166732,541.054777 115.406615,542.690446 C115.406615,542.690446 115.45214,541.161783 118.365759,541.689172 C119.400652,541.864622 120.452536,541.915935 121.499416,541.842038 C122.916601,541.746111 124.264268,541.188058 125.338716,540.252229 C125.338716,540.252229 133.449805,536.873885 136.606226,523.513376 C136.606226,523.513376 138.943191,520.601274 138.844553,519.852229 L133.973346,521.946497 C133.973346,521.946497 135.642607,525.48535 134.329961,528.428025 C134.329961,528.428025 134.170623,522.076433 133.237354,522.221656 C133.047665,522.221656 130.703113,523.452229 130.703113,523.452229 C130.703113,523.452229 133.571206,529.620382 131.408755,534.099363 C131.408755,534.099363 132.22821,526.501911 129.81537,523.895541 L126.385798,525.913376 C126.385798,525.913376 129.731907,532.280255 127.46323,537.477707 C127.46323,537.477707 128.039883,529.505732 125.664981,526.402548 L122.554086,528.848408 C122.554086,528.848408 125.695331,535.123567 123.783268,539.434395 C123.783268,539.434395 123.532879,530.155414 121.878794,529.452229 C121.878794,529.452229 119.162451,531.867516 118.745136,532.861146 C118.745136,532.861146 120.9,537.447134 119.564591,539.824204 C119.564591,539.824204 118.745136,533.640764 118.047082,533.610191 C118.047082,533.610191 115.338327,537.707006 115.057588,540.489172 C115.188775,537.895423 115.991866,535.381482 117.386965,533.197452 C115.825807,533.494989 114.385484,534.247017 113.244163,535.36051 C113.244163,535.36051 113.661479,532.463694 118.054669,532.211465 C118.054669,532.211465 120.330934,529.100637 120.892412,528.909554 C120.892412,528.909554 116.521984,528.542675 113.87393,529.727389 C113.87393,529.727389 116.203307,526.998726 121.696693,528.198726 L124.731712,525.676433 C124.731712,525.676433 118.98035,524.912102 116.53716,525.76051 C116.53716,525.76051 119.344553,523.345223 125.558755,525.103185 L128.897276,523.092994 C128.897276,523.092994 123.99572,522.030573 121.066926,522.412739 C121.066926,522.412739 124.155058,520.738854 129.87607,522.550318 L132.266148,521.472611 C132.266148,521.472611 128.66965,520.761783 127.622568,520.647134 C126.575486,520.532484 126.507198,520.242038 126.507198,520.242038 C128.78496,519.86034 131.123237,520.124999 133.260117,521.006369 C133.260117,521.006369 138.3893,519.149045 138.305837,518.828025 Z" id="Shape" fill="#087E8B"></path>
                <path d="M54.3875486,528.282803 C54.3875486,528.282803 25.5548638,526.532484 28.931323,546.909554 C28.931323,546.909554 28.2484436,550.509554 31.4883268,552.145223 C31.4883268,552.145223 31.5414397,550.616561 34.4550584,551.143949 C35.4895454,551.323156 36.5418799,551.374491 37.588716,551.296815 C39.0040174,551.202562 40.3497823,550.644193 41.420428,549.707006 C41.420428,549.707006 49.5391051,546.328662 52.6955253,532.968153 C52.6955253,532.968153 55.0249027,530.056051 54.9717899,529.307006 L50.1005837,531.401274 C50.1005837,531.401274 51.7698444,534.940127 50.4571984,537.882803 C50.4571984,537.882803 50.2978599,531.53121 49.3645914,531.676433 C49.1749027,531.676433 46.8303502,532.907006 46.8303502,532.907006 C46.8303502,532.907006 49.6984436,539.075159 47.5359922,543.55414 C47.5359922,543.55414 48.3554475,535.956688 45.9350195,533.350318 L42.5054475,535.368153 C42.5054475,535.368153 45.8515564,541.735032 43.5828794,546.932484 C43.5828794,546.932484 44.1671206,538.96051 41.7846304,535.857325 L38.681323,538.303185 C38.681323,538.303185 41.8225681,544.578344 39.9105058,548.889172 C39.9105058,548.889172 39.6601167,539.610191 38.0060311,538.907006 C38.0060311,538.907006 35.2896887,541.322293 34.8723735,542.315924 C34.8723735,542.315924 37.0272374,546.901911 35.6918288,549.278981 C35.6918288,549.278981 34.8723735,543.095541 34.1743191,543.064968 C34.1743191,543.064968 31.4731518,547.161783 31.1848249,549.943949 C31.3203853,547.349883 32.1259395,544.836419 33.5217899,542.652229 C31.9586618,542.950491 30.5160983,543.702312 29.3714008,544.815287 C29.3714008,544.815287 29.7963035,541.918471 34.1894942,541.666242 C34.1894942,541.666242 36.4657588,538.555414 37.0272374,538.371975 C37.0272374,538.371975 32.6568093,537.997452 30.0087549,539.182166 C30.0087549,539.182166 32.3381323,536.453503 37.8315175,537.653503 L40.866537,535.13121 C40.866537,535.13121 35.1151751,534.366879 32.6719844,535.215287 C32.6719844,535.215287 35.4793774,532.8 41.6935798,534.557962 L45.0321012,532.547771 C45.0321012,532.547771 40.1229572,531.48535 37.201751,531.867516 C37.201751,531.867516 40.2898833,530.193631 46.0108949,532.005096 L48.4009728,530.927389 C48.4009728,530.927389 44.8044747,530.216561 43.7498054,530.101911 C42.6951362,529.987261 42.6420233,529.696815 42.6420233,529.696815 C44.9199103,529.319961 47.2568732,529.584471 49.3949416,530.461146 C49.3949416,530.461146 54.448249,528.603822 54.3875486,528.282803 Z" id="Shape" fill="#087E8B"></path>
                <path d="M101.157198,550.478981 C101.157198,550.478981 72.3245136,548.728662 75.6933852,569.105732 C75.6933852,569.105732 75.0180934,572.705732 78.2579767,574.341401 C78.2579767,574.341401 78.3110895,572.812739 81.2171206,573.340127 C82.2545475,573.515753 83.3089642,573.567065 84.3583658,573.492994 C85.7729034,573.395439 87.1176661,572.837486 88.1900778,571.903185 C88.1900778,571.903185 96.3011673,568.524841 99.4575875,555.164331 C99.4575875,555.164331 101.794553,552.252229 101.733852,551.503185 L96.8626459,553.597452 C96.8626459,553.597452 98.5243191,557.136306 97.2192607,560.078981 C97.2192607,560.078981 97.0599222,553.727389 96.1190661,553.872611 C95.9293774,553.872611 93.5924125,555.103185 93.5924125,555.103185 C93.5924125,555.103185 96.4529183,561.263694 94.2904669,565.750318 C94.2904669,565.750318 95.1099222,558.152866 92.6970817,555.546497 L89.2675097,557.564331 C89.2675097,557.564331 92.6136187,563.93121 90.3449416,569.128662 C90.3449416,569.128662 90.9291829,561.156688 88.5466926,558.053503 L85.4357977,560.499363 C85.4357977,560.499363 88.5846304,566.774522 86.6649805,571.08535 C86.6649805,571.08535 86.4145914,561.806369 84.7680934,561.103185 C84.7680934,561.103185 82.0441634,563.518471 81.6344358,564.512102 C81.6344358,564.512102 83.7892996,569.098089 82.4463035,571.475159 C82.4463035,571.475159 81.6268482,565.29172 80.9287938,565.261146 C80.9287938,565.261146 78.2200389,569.357962 77.9392996,572.140127 C78.0704874,569.546378 78.8735785,567.032438 80.268677,564.848408 C78.7075195,565.145944 77.267196,565.897972 76.1258755,567.011465 C76.1258755,567.011465 76.5431907,564.11465 80.9439689,563.86242 C80.9439689,563.86242 83.1747082,560.751592 83.7741245,560.56051 C83.7741245,560.56051 79.4036965,560.193631 76.755642,561.378344 C76.755642,561.378344 79.092607,558.649682 84.5784047,559.887898 L87.6134241,557.365605 C87.6134241,557.365605 81.8620623,556.601274 79.4188716,557.449682 C79.4188716,557.449682 82.2338521,555.034395 88.4404669,556.792357 L91.7865759,554.782166 C91.7865759,554.782166 86.9077821,553.742675 83.9789883,554.124841 C83.9789883,554.124841 87.0595331,552.450955 92.7881323,554.26242 L95.1706226,553.184713 C95.1706226,553.184713 91.5817121,552.473885 90.5270428,552.359236 C89.4723735,552.244586 89.4192607,551.95414 89.4192607,551.95414 C91.6970227,551.572442 94.0352994,551.837101 96.172179,552.718471 C96.172179,552.718471 101.240661,550.8 101.157198,550.478981 Z" id="Shape" fill="#087E8B"></path>
                <ellipse id="Oval" fill="#087E8B" opacity="0.1" cx="78.6525292" cy="576.481529" rx="20.4332685" ry="3.47770701"></ellipse>
                <ellipse id="Oval" fill="#087E8B" opacity="0.1" cx="726.765759" cy="576.481529" rx="20.4332685" ry="3.47770701"></ellipse>
                <ellipse id="Oval" fill="#087E8B" opacity="0.1" cx="531.090467" cy="596.499363" rx="20.4332685" ry="3.47770701"></ellipse>
                <ellipse id="Oval" fill="#087E8B" opacity="0.1" cx="759.081128" cy="546.336306" rx="20.4332685" ry="3.47770701"></ellipse>
                <ellipse id="Oval" fill="#087E8B" opacity="0.1" cx="118.418872" cy="544.165605" rx="20.4332685" ry="3.47770701"></ellipse>
                <ellipse id="Oval" fill="#087E8B" opacity="0.1" cx="34.477821" cy="553.926115" rx="20.4332685" ry="3.47770701"></ellipse>
                <rect id="Rectangle-path" fill="#040F15" x="229.705447" y="61.7121019" width="327.288911" height="490.226752" rx="9.8"></rect>
                <path d="M288.871089,103.849682 L501.880467,103.849682 C518.012704,103.849682 531.090467,116.927444 531.090467,133.059682 L531.090467,171.014204 C531.090467,187.146441 518.012704,200.224204 501.880467,200.224204 L288.871089,200.224204 C272.738852,200.224204 259.661089,187.146441 259.661089,171.014204 L259.661089,133.059682 C259.661089,116.927444 272.738852,103.849682 288.871089,103.849682 Z" id="Rectangle-path" fill="#000000" opacity="0.1"></path>
                <path d="M271.606226,105.729936 L518.523152,105.729936 C524.156456,105.729936 528.723152,110.296632 528.723152,115.929936 L528.723152,188.740127 C528.723152,194.373432 524.156456,198.940127 518.523152,198.940127 L271.606226,198.940127 C265.972921,198.940127 261.406226,194.373432 261.406226,188.740127 L261.406226,115.929936 C261.406226,110.296632 265.972921,105.729936 271.606226,105.729936 Z" id="Rectangle-path" fill="#FBFBFF"></path>
                <path d="M279.905175,240.366879 L312.302996,240.366879 C318.262149,240.366879 323.092996,245.197727 323.092996,251.156879 L323.092996,289.989618 C323.092996,295.94877 318.262149,300.779618 312.302996,300.779618 L279.905175,300.779618 C273.946023,300.779618 269.115175,295.94877 269.115175,289.989618 L269.115175,251.156879 C269.115175,245.197727 273.946023,240.366879 279.905175,240.366879 Z" id="Rectangle-path" fill="#FFFFFF" opacity="0.1"></path>
                <rect id="Rectangle-path" fill="#FFFFFF" opacity="0.1" x="335.088911" y="240.366879" width="53.977821" height="60.4127389" rx="10.79"></rect>
                <rect id="Rectangle-path" fill="#FFFFFF" opacity="0.1" x="401.062646" y="240.366879" width="53.977821" height="60.4127389" rx="10.79"></rect>
                <rect id="Rectangle-path" fill="#000000" opacity="0.1" x="467.036381" y="241.650955" width="53.977821" height="60.4127389" rx="26.9889105"></rect>
                <rect id="Rectangle-path" fill="#0C4F6C" x="467.036381" y="240.366879" width="53.977821" height="60.4127389" rx="10.79"></rect>
                <path d="M279.905175,306.825478 L312.302996,306.825478 C318.262149,306.825478 323.092996,311.656325 323.092996,317.615478 L323.092996,356.448217 C323.092996,362.407369 318.262149,367.238217 312.302996,367.238217 L279.905175,367.238217 C273.946023,367.238217 269.115175,362.407369 269.115175,356.448217 L269.115175,317.615478 C269.115175,311.656325 273.946023,306.825478 279.905175,306.825478 Z" id="Rectangle-path" fill="#FFFFFF" opacity="0.1"></path>
                <rect id="Rectangle-path" fill="#FFFFFF" opacity="0.1" x="335.088911" y="306.825478" width="53.977821" height="60.4127389" rx="10.79"></rect>
                <rect id="Rectangle-path" fill="#FFFFFF" opacity="0.1" x="401.062646" y="306.825478" width="53.977821" height="60.4127389" rx="10.79"></rect>
                <path d="M279.905175,380.185987 L312.302996,380.185987 C318.262149,380.185987 323.092996,385.016835 323.092996,390.975987 L323.092996,429.808726 C323.092996,435.767879 318.262149,440.598726 312.302996,440.598726 L279.905175,440.598726 C273.946023,440.598726 269.115175,435.767879 269.115175,429.808726 L269.115175,390.975987 C269.115175,385.016835 273.946023,380.185987 279.905175,380.185987 Z" id="Rectangle-path" fill="#FFFFFF" opacity="0.1"></path>
                <path d="M345.878911,380.185987 L378.276732,380.185987 C384.235884,380.185987 389.066732,385.016835 389.066732,390.975987 L389.066732,429.808726 C389.066732,435.767879 384.235884,440.598726 378.276732,440.598726 L345.878911,440.598726 C339.919758,440.598726 335.088911,435.767879 335.088911,429.808726 L335.088911,390.975987 C335.088911,385.016835 339.919758,380.185987 345.878911,380.185987 Z" id="Rectangle-path" fill="#FFFFFF" opacity="0.1"></path>
                <path d="M411.852646,380.185987 L444.250467,380.185987 C450.209619,380.185987 455.040467,385.016835 455.040467,390.975987 L455.040467,429.808726 C455.040467,435.767879 450.209619,440.598726 444.250467,440.598726 L411.852646,440.598726 C405.893493,440.598726 401.062646,435.767879 401.062646,429.808726 L401.062646,390.975987 C401.062646,385.016835 405.893493,380.185987 411.852646,380.185987 Z" id="Rectangle-path" fill="#FFFFFF" opacity="0.1"></path>
                <path d="M411.852646,453.546497 L444.250467,453.546497 C450.209619,453.546497 455.040467,458.377344 455.040467,464.336497 L455.040467,503.169236 C455.040467,509.128388 450.209619,513.959236 444.250467,513.959236 L411.852646,513.959236 C405.893493,513.959236 401.062646,509.128388 401.062646,503.169236 L401.062646,464.336497 C401.062646,458.377344 405.893493,453.546497 411.852646,453.546497 Z" id="Rectangle-path" fill="#FFFFFF" opacity="0.1"></path>
                <rect id="Rectangle-path" fill="#000000" opacity="0.1" x="467.036381" y="308.109554" width="53.977821" height="60.4127389" rx="26.9889105"></rect>
                <rect id="Rectangle-path" fill="#0C4F6C" x="467.036381" y="306.825478" width="53.977821" height="60.4127389" rx="11.3"></rect>
                <rect id="Rectangle-path" fill="#0C4F6C" opacity="0.2" x="467.036381" y="306.825478" width="53.977821" height="60.4127389" rx="11.3"></rect>
                <path d="M279.155175,453.546497 L379.026732,453.546497 C384.57167,453.546497 389.066732,458.041558 389.066732,463.586497 L389.066732,503.919236 C389.066732,509.464175 384.57167,513.959236 379.026732,513.959236 L279.155175,513.959236 C273.610236,513.959236 269.115175,509.464175 269.115175,503.919236 L269.115175,463.586497 C269.115175,458.041558 273.610236,453.546497 279.155175,453.546497 Z" id="Rectangle-path" fill="#FFFFFF" opacity="0.1"></path>
                <rect id="Rectangle-path" fill="#FFFFFF" opacity="0.1" x="461.892023" y="380.185987" width="59.1145914" height="133.780892" rx="11.66"></rect>
                <polygon id="Rectangle-path" fill="#0C4F6C" points="493.092023 182.659873 516.71965 182.659873 516.71965 185.235669 493.092023 185.235669"></polygon>
                <polygon id="Rectangle-path" fill="#0C4F6C" points="458.500389 182.659873 482.128016 182.659873 482.128016 185.235669 458.500389 185.235669"></polygon>
                <polygon id="Rectangle-path" fill="#0C4F6C" points="423.901167 182.659873 447.528794 182.659873 447.528794 185.235669 423.901167 185.235669"></polygon>
                <polygon id="Rectangle-path" fill="#0C4F6C" points="389.309533 182.659873 412.93716 182.659873 412.93716 185.235669 389.309533 185.235669"></polygon>
                <path d="M667.605642,363.470064 C670.041245,355.215287 667.605642,346.96051 667.605642,346.96051 L667.605642,339.171975 C667.605642,339.171975 670.390272,323.946497 657.961868,314.178344 L649.72179,306.856051 C649.72179,306.856051 645.100973,302.858599 643.757977,302.606369 C643.507711,302.552073 643.254287,302.51378 642.999222,302.49172 L642.75642,302.346497 C642.048257,301.126355 641.444145,299.847884 640.950584,298.524841 C642.031761,298.665718 643.116596,298.292977 643.886965,297.515924 C644.184709,297.170858 644.41857,296.774773 644.577432,296.346497 C645.055447,295.26879 645.138911,293.961783 645.541051,292.815287 C645.893801,291.885615 646.407612,291.026421 647.05856,290.277707 C646.975097,290.415287 646.884047,290.545223 646.808171,290.690446 C647.976654,289.22293 649.501751,287.969427 650.601946,286.425478 C650.820277,286.119191 651.020432,285.800162 651.201362,285.470064 C651.155837,285.538854 651.095136,285.6 651.042023,285.66879 C652.559533,283.215287 653.022374,280.242038 653.462451,277.375796 C653.674521,276.400295 653.690002,275.391831 653.507977,274.410191 C653.294729,273.758644 653.020337,273.129047 652.688521,272.529936 C650.89786,268.807643 650.92821,264.122293 648.067704,261.149045 C645.91284,258.924841 642.650195,258.244586 639.577237,257.86242 C636.50428,257.480255 633.271984,257.258599 630.631518,255.638217 C629.894146,255.075268 629.078616,254.624589 628.211089,254.300637 C627.310818,253.984192 626.314296,254.356225 625.836187,255.187261 C625.781551,255.425836 625.672435,255.648287 625.51751,255.836943 C625.238727,255.996253 624.902284,256.016023 624.607004,255.890446 L620.517315,254.789809 L620.56284,254.996178 L620.456615,254.996178 L620.608366,255.64586 C620.773459,255.616545 620.935923,255.709605 620.995331,255.867516 L620.335214,256.89172 C619.069729,256.868457 617.819464,256.60931 616.647665,256.127389 C616.640075,256.19341 616.640075,256.260093 616.647665,256.326115 L616.586965,256.326115 C616.511089,257.487898 617.823735,258.244586 618.225875,259.33758 C618.387178,259.815876 618.387178,260.334443 618.225875,260.812739 C618.061565,261.256327 617.802545,261.65815 617.467121,261.989809 C616.017899,263.434395 614.158949,263.151592 612.489689,264.061146 C612.197752,264.186747 611.975658,264.435643 611.882685,264.741401 C611.81664,264.8543 611.79755,264.988912 611.829572,265.115924 C611.895555,265.2914 612.015103,265.441265 612.171012,265.543949 C612.656976,265.939676 613.189609,266.273414 613.756809,266.53758 C613.589883,266.690446 613.430545,266.843312 613.278794,267.003822 C608.975638,271.409183 607.152417,277.694825 608.423974,283.741049 C609.69553,289.787273 613.892379,294.788182 619.599222,297.057325 C619.659922,297.378344 619.705447,297.707006 619.750973,298.050955 C619.750973,298.089172 619.750973,298.112102 619.750973,298.150318 L619.796498,298.593631 L614.287938,300.955414 C612.591897,300.942273 611.055425,299.945155 610.342412,298.394904 C609.060117,295.727389 604.53035,298.394904 604.53035,298.394904 C604.53035,298.394904 590.713424,297.355414 585.561479,299.923567 C585.561479,299.923567 577.313813,296.438217 576.152918,296.201274 C574.992023,295.964331 573.254475,295.03949 572.442607,295.276433 C571.630739,295.513376 570.583658,293.747771 569.999416,293.877707 C569.415175,294.007643 569.187549,292.715924 567.328599,292.249682 C565.46965,291.783439 564.771595,292.371975 562.685019,290.277707 C560.598444,288.183439 543.632685,279.928662 543.632685,279.928662 L536.014786,273.615287 L527.888521,267.103185 L527.744358,267.370701 C527.691245,267.179618 527.638132,266.980892 527.585019,266.766879 C526.776505,263.522763 525.762761,260.334084 524.55,257.220382 C524.026459,255.959236 523.791245,254.369427 523.085603,255.210191 C522.653113,255.71465 521.917121,254.606369 520.809339,253.857325 C520.333741,253.526311 519.735386,253.428821 519.180451,253.591928 C518.625516,253.755036 518.173094,254.161372 517.948833,254.698089 C511.620817,264.695541 509.35214,265.398726 513.016926,269.075159 C516.28716,272.338854 518.457198,275.189809 521.120428,276.09172 L521.439105,276.191083 C521.381916,276.206311 521.321781,276.206311 521.264591,276.191083 L536.71284,294.794904 C536.71284,294.794904 547.858949,304.563057 555.529961,307.696815 C563.200973,310.830573 562.609144,311.770701 562.609144,311.770701 C562.609144,311.770701 585.842218,323.625478 589.438716,323.396178 C593.035214,323.166879 592.344747,347.694268 590.834825,351.676433 C589.324903,355.658599 586.8893,384.229299 586.8893,384.229299 C586.8893,384.229299 584.559922,390.275159 587.003113,394.456051 C587.003113,394.456051 587.541829,402.466242 587.056226,404.392357 C584.9393,407.678981 581.919455,413.258599 581.426265,418.998726 C581.426265,419.304459 581.365564,419.587261 581.335214,419.88535 C581.180403,420.066395 580.995555,420.218981 580.788911,420.336306 L581.304864,420.183439 C581.085285,422.57593 580.575655,424.932325 579.787354,427.2 C578.559024,430.384682 577.908808,433.765802 577.867704,437.182166 L577.867704,455.648408 L576.350195,467.113376 C576.350195,467.113376 574.491245,475.788535 576.350195,477.814013 C577.13391,478.823991 577.498362,480.100729 577.366926,481.375796 C577.289277,482.856069 577.705988,484.319896 578.550584,485.533758 C579.204976,486.253753 579.485913,487.241429 579.309339,488.201274 C578.694747,490.211465 580.219844,511.605096 580.219844,511.605096 C580.219844,511.605096 579.772179,517.498089 579.157588,517.811465 C578.542996,518.124841 580.219844,524.629299 580.219844,524.629299 C580.219844,524.629299 573.944942,529.903185 575.545914,532.692994 L577.146887,535.169427 L576.721984,535.589809 L576.464008,535.857325 C575.979947,535.576187 575.415654,535.468426 574.863035,535.551592 C572.890926,537.583877 570.78161,539.476293 568.550195,541.215287 C565.720039,543.271338 558.018677,546.252229 558.018677,546.252229 L551.948638,546.749045 L551.834825,546.749045 C551.834825,546.749045 548.928794,546.473885 550.560117,551.006369 C552.19144,555.538854 566.774708,554.147771 566.774708,554.147771 L575.287938,552.794904 C575.287938,552.794904 590.463035,552.871338 594.8107,551.900637 C596.624125,551.495541 597.086965,550.517197 596.935214,549.53121 L596.889689,549.48535 C596.680971,548.545004 596.254597,547.667657 595.645331,546.924841 C595.614056,546.875889 595.578506,546.829846 595.539105,546.787261 L595.812257,543.653503 C602.254086,539.915924 593.991245,532.563057 593.991245,532.563057 C593.991245,532.563057 596.821401,526.364331 598.270623,524.35414 C599.719844,522.343949 599.719844,492.726115 599.719844,492.726115 C599.719844,492.726115 600.478599,482.025478 598.483074,479.549045 C598.413045,477.905839 599.247253,476.357382 600.653113,475.521019 C602.08716,474.535032 606.41965,460.952866 609.818872,449.678981 L611.95856,462.963057 C611.95856,462.963057 611.49572,469.322293 612.884241,471.179618 C613.411856,471.887507 613.620997,472.78566 613.460895,473.656051 C613.131594,475.438467 613.23837,477.274867 613.771984,479.006369 C613.935145,479.749167 614.331586,480.419225 614.902529,480.917197 C616.1393,481.536306 616.215175,483.745223 616.678016,484.211465 C617.140856,484.677707 620.008949,483.55414 620.1607,485.258599 C620.24737,486.755416 620.24737,488.256049 620.1607,489.752866 L621.093969,517.345223 C621.093969,517.345223 619.576459,519.638217 619.235019,525.752866 C619.106031,528.359236 618.620428,529.842038 618.11965,530.690446 C617.549721,531.624265 617.641622,532.821584 618.347276,533.656051 L618.61284,533.969427 L617.467121,534.856051 C616.517808,535.598944 616.219522,536.912732 616.753891,537.997452 C615.997882,538.659996 615.71843,539.719427 616.048249,540.672611 C616.09515,540.825771 616.161455,540.9722 616.245525,541.10828 C615.375153,541.245678 614.567487,541.648477 613.931323,542.26242 C612.786958,543.846327 611.40761,545.243547 609.841634,546.405096 C607.569091,548.159416 605.393287,550.037368 603.32393,552.030573 C602.348414,553.368191 601.039765,554.422804 599.530156,555.087898 C599.160017,555.239107 598.776361,555.354281 598.384436,555.431847 C595.349416,556.058599 596.29786,559.253503 598.771401,559.780892 C601.244942,560.30828 609.454669,562.838217 615.843385,561.363057 C615.843385,561.363057 617.740272,562.127389 620.524903,560.705732 C623.309533,559.284076 629.523735,557.541401 629.523735,557.541401 C629.523735,557.541401 633.00642,557.541401 633.476848,556.150318 C633.599283,555.707007 633.665568,555.249877 633.674125,554.789809 L633.772763,554.690446 L633.681712,554.606369 C633.690198,553.564612 633.611515,552.523987 633.446498,551.495541 C633.355447,550.96051 633.256809,550.486624 633.165759,550.104459 C632.869844,548.942675 632.315953,547.436943 632.080739,546.802548 C632.120476,546.752083 632.156005,546.698397 632.186965,546.642038 C633.514786,544.349045 631.306809,538.907006 631.306809,538.907006 C632.031849,537.748172 632.912794,536.696129 633.924514,535.780892 C635.161284,534.848408 638.416342,510.664968 638.416342,510.664968 C638.416342,510.664968 638.257004,504.466242 639.933852,501.676433 C641.6107,498.886624 637.612062,481.994904 637.612062,481.994904 C637.612062,481.994904 635.904864,478.119745 636.527043,476.721019 C637.149222,475.322293 635.904864,470.208917 635.904864,470.208917 L635.904864,464.094268 C635.901234,463.366196 635.78081,462.643501 635.548249,461.95414 C635.070233,460.517197 634.364591,457.757962 635.130934,455.778344 C636.215953,452.988535 638.689494,435.783439 638.689494,435.783439 C638.689494,435.783439 636.754669,428.193631 639.592412,422.147771 C639.813955,421.66494 640.067444,421.197646 640.351167,420.749045 C642.452918,417.424204 641.823152,411.515924 640.783658,406.75414 C640.631907,405.989809 640.457393,405.301911 640.282879,404.636943 C640.214591,404.346497 640.138716,404.071338 640.06284,403.796178 L640.396693,403.658599 C640.396693,403.658599 640.396693,403.207643 640.502918,402.435669 C642.818706,401.97337 644.840658,400.56476 646.087354,398.545223 C646.087354,398.545223 653.174125,390.519745 659.44144,387.149045 C665.708755,383.778344 666.179183,378.894268 666.179183,378.894268 C665.253502,377.266242 667.840856,370.63949 667.840856,370.63949 L667.605642,363.470064 Z M647.164786,374.170701 L640.457393,382.005096 L640.457393,381.959236 C638.712257,379.513376 642.081128,374.048408 642.081128,374.048408 L647.657977,361.513376 C647.612451,363.118471 647.415175,364.570701 646.899222,365.205096 C645.381712,367.299363 649.69144,370.792357 649.69144,370.792357 C647.392412,370.8 647.164786,374.170701 647.164786,374.170701 Z" id="Shape" fill="url(#linearGradient-1)"></path>
                <path d="M529.072179,271.452229 L525.407393,278.614013 C524.247152,278.514005 523.103213,278.272757 522.000584,277.895541 C518.465463,276.832107 515.551596,274.294688 513.99572,270.924841 C510.725486,263.648408 516.135409,258.947771 518.654475,257.556688 C521.173541,256.165605 523.518093,254.583439 525.407393,259.146497 C526.593265,262.242312 527.584143,265.410383 528.374125,268.631847 C528.814202,270.305732 529.072179,271.452229 529.072179,271.452229 Z" id="Shape" fill="#CC818C"></path>
                <path d="M645.457588,308.705732 L639.607588,317.480255 C639.607588,317.480255 611.966148,330.764331 617.247082,315.187261 C619.568872,308.30828 619.842023,303.286624 619.424708,299.808917 C619.424708,299.770701 619.424708,299.747771 619.424708,299.709554 C618.878405,295.36051 617.254669,293.472611 617.254669,293.472611 C617.254669,293.472611 644.198054,279.57707 640.184241,289.077707 C639.365333,291.052305 639.039672,293.199089 639.235798,295.329936 C639.566737,298.399011 640.555696,301.359006 642.134241,304.005096 C643.083126,305.680025 644.196487,307.254795 645.457588,308.705732 Z" id="Shape" fill="#CC818C"></path>
                <path d="M637.042996,482.522293 C637.042996,482.522293 641.018872,499.33758 639.319261,502.081529 C637.61965,504.825478 637.801751,511.016561 637.801751,511.016561 C637.801751,511.016561 634.592218,535.047134 633.370623,535.964331 C632.367823,536.858181 631.492077,537.886965 630.768093,539.021656 C630.768093,539.021656 632.953307,544.463694 631.640661,546.710828 C631.438275,547.052916 631.132499,547.320762 630.768093,547.475159 C628.719455,548.346497 621.147082,544.478981 616.837354,542.124841 C616.132896,541.736731 615.660981,541.026529 615.573308,540.222532 C615.485634,539.418535 615.793252,538.622073 616.397276,538.089172 C615.86285,537.014888 616.154946,535.709985 617.095331,534.970701 L618.233463,534.084076 L617.967899,533.770701 C617.269442,532.939168 617.177743,531.750639 617.740272,530.820382 C618.233463,529.987261 618.711479,528.527389 618.840467,525.921019 C619.151556,519.913376 620.676654,517.605096 620.676654,517.605096 L619.75856,490.180892 C619.845275,488.694276 619.845275,487.203813 619.75856,485.717197 C619.606809,484.028025 616.776654,485.143949 616.321401,484.677707 C615.866148,484.211465 615.782685,482.025478 614.561089,481.406369 C613.998267,480.908484 613.60979,480.241076 613.453307,479.503185 C612.913249,477.772868 612.80638,475.934863 613.142218,474.152866 C613.300999,473.288452 613.094761,472.396493 612.573152,471.69172 C611.199805,469.842038 611.655058,463.536306 611.655058,463.536306 L609.54572,450.328662 C606.184436,461.533758 601.912646,475.031847 600.493774,476.010191 C599.106943,476.846728 598.285831,478.380763 598.354086,480.007643 C600.342023,482.476433 599.575681,493.10828 599.575681,493.10828 C599.575681,493.10828 599.575681,522.519745 598.141634,524.529936 C596.707588,526.540127 593.930545,532.723567 593.930545,532.723567 C593.930545,532.723567 602.125097,540.06879 595.675681,543.775796 L595.607393,543.775796 C589.028988,547.475159 575.424514,537.156688 575.424514,537.156688 L576.843385,535.727389 L577.2607,535.307006 L575.65214,532.89172 C574.07393,530.117197 580.26537,524.881529 580.26537,524.881529 C580.26537,524.881529 578.611284,518.407643 579.218288,518.101911 C579.825292,517.796178 580.26537,511.941401 580.26537,511.941401 C580.26537,511.941401 578.74786,490.68535 579.370039,488.682803 C579.538053,487.728089 579.257896,486.748799 578.611284,486.030573 C577.775926,484.824463 577.36465,483.371729 577.442802,481.903185 C577.575159,480.636335 577.213275,479.367285 576.433658,478.364331 C574.597471,476.361783 576.433658,467.740127 576.433658,467.740127 L577.951167,456.336306 L577.951167,438.229299 C577.971627,434.733951 578.622064,431.271402 579.870817,428.010191 C580.797925,425.366472 581.35961,422.606847 581.540078,419.808917 C582.040856,413.969427 585.159339,408.298089 587.253502,405.064968 C588.361284,403.352866 589.188327,402.328662 589.188327,402.328662 L638.11284,400.402548 C638.11284,400.402548 638.871595,402.596178 639.691051,405.64586 C639.857977,406.310828 640.024903,407.014013 640.184241,407.747771 C641.20856,412.486624 641.823152,418.356688 639.751751,421.658599 C639.470814,422.106216 639.217419,422.570784 638.992996,423.049682 C636.193191,429.057325 638.105253,436.601274 638.105253,436.601274 C638.105253,436.601274 635.662062,453.69172 634.592218,456.473885 C633.833463,458.438217 634.531518,461.182166 635.009533,462.588535 C635.232891,463.277115 635.348093,463.996617 635.350973,464.721019 L635.350973,470.812739 C635.350973,470.812739 636.580156,475.895541 635.965564,477.286624 C635.350973,478.677707 637.042996,482.522293 637.042996,482.522293 Z" id="Shape" fill="#444053"></path>
                <path d="M639.296498,422.147771 C639.012898,422.591153 638.759401,423.053354 638.537743,423.53121 L635.783463,423.378344 C636.049027,421.949045 634.174903,408.550318 634.174903,408.550318 L639.721401,408.236943 C640.74572,412.968153 641.367899,418.838217 639.296498,422.147771 Z" id="Shape" fill="#000000" opacity="0.1"></path>
                <path d="M639.751751,421.681529 C639.470814,422.129146 639.217419,422.593714 638.992996,423.072611 L636.238716,422.912102 C636.50428,421.490446 634.630156,408.084076 634.630156,408.084076 L640.176654,407.770701 C641.20856,412.509554 641.823152,418.379618 639.751751,421.681529 Z" id="Shape" fill="#444053"></path>
                <path d="M639.751751,421.681529 C639.470814,422.129146 639.217419,422.593714 638.992996,423.072611 L636.238716,422.912102 C636.50428,421.490446 634.630156,408.084076 634.630156,408.084076 L640.176654,407.770701 C641.20856,412.509554 641.823152,418.379618 639.751751,421.681529 Z" id="Shape" fill="#000000" opacity="0.05"></path>
                <path d="M631.648249,546.741401 C631.445862,547.08349 631.140087,547.351336 630.775681,547.505732 C628.727043,548.37707 621.154669,544.509554 616.844942,542.155414 C616.307026,541.855632 615.898744,541.365361 615.699222,540.779618 C618.157588,540.328662 619.766148,543.072611 619.766148,543.072611 C620.594106,542.549598 621.596555,542.385307 622.546396,542.616959 C623.496237,542.848611 624.313078,543.456598 624.811868,544.303185 C626.913619,547.421656 631.420623,546.107006 631.420623,546.107006 L631.648249,546.741401 Z" id="Shape" fill="#000000" opacity="0.1"></path>
                <path d="M632.91537,556.180892 C632.460117,557.571975 629.01537,557.571975 629.01537,557.571975 C629.01537,557.571975 622.861868,559.345223 620.107588,560.728662 C617.353307,562.112102 615.48677,561.385987 615.48677,561.385987 C609.181518,562.84586 601.070428,560.30828 598.627237,559.803822 C596.184047,559.299363 595.228016,556.112102 598.24786,555.492994 C598.635103,555.412881 599.013723,555.295132 599.378405,555.141401 C600.89143,554.482014 602.20144,553.426303 603.172179,552.084076 C605.216499,550.104488 607.367001,548.239269 609.614008,546.496815 C611.160815,545.339657 612.522185,543.950238 613.650584,542.37707 C617.247082,539.182166 619.804086,543.569427 619.804086,543.569427 C620.632974,543.047065 621.636115,542.883951 622.586061,543.117067 C623.536006,543.350183 624.352281,543.959781 624.849805,544.807643 C626.951556,547.926115 631.45856,546.603822 631.45856,546.603822 C631.45856,546.603822 632.270428,548.690446 632.649805,550.188535 C632.740856,550.570701 632.839494,551.044586 632.930545,551.579618 C633.135409,553.13121 633.264397,555.141401 632.91537,556.180892 Z" id="Shape" fill="#FF748F"></path>
                <ellipse id="Oval" fill="#575988" cx="622.399027" cy="546.02293" rx="1" ry="1"></ellipse>
                <ellipse id="Oval" fill="#575988" cx="618.810117" cy="549.408917" rx="1" ry="1"></ellipse>
                <ellipse id="Oval" fill="#575988" cx="615.160506" cy="552.450955" rx="1" ry="1"></ellipse>
                <ellipse id="Oval" fill="#575988" cx="617.049805" cy="551.090446" rx="1" ry="1"></ellipse>
                <ellipse id="Oval" fill="#575988" cx="620.684241" cy="547.612739" rx="1" ry="1"></ellipse>
                <path d="M632.91537,556.180892 C632.460117,557.571975 629.01537,557.571975 629.01537,557.571975 C629.01537,557.571975 622.861868,559.345223 620.107588,560.728662 C617.353307,562.112102 615.48677,561.385987 615.48677,561.385987 C609.181518,562.84586 601.070428,560.30828 598.627237,559.803822 C596.184047,559.299363 595.228016,556.112102 598.24786,555.492994 C598.635103,555.412881 599.013723,555.295132 599.378405,555.141401 C602.045415,556.066401 604.830872,556.59927 607.648833,556.723567 C613.87821,556.991083 618.810117,556.723567 618.810117,556.723567 L625.11537,554.682803 C626.309058,553.953374 627.634724,553.470133 629.01537,553.261146 C630.41125,552.974559 631.732036,552.396536 632.892607,551.564331 C633.135409,553.13121 633.264397,555.141401 632.91537,556.180892 Z" id="Shape" fill="#DCE6F2"></path>
                <path d="M617.224319,560.163057 C616.872861,560.165529 616.522054,560.132239 616.177237,560.063694 L616.268288,559.612739 C617.557612,559.811496 618.876492,559.625495 620.062062,559.077707 C620.623541,558.856051 621.185019,558.588535 621.731323,558.313376 C622.277626,558.038217 623.043969,557.694268 623.726848,557.442038 L624.349027,557.228025 C624.690467,557.105732 625.039494,556.991083 625.373346,556.84586 C625.563035,556.769427 625.752724,556.677707 625.934825,556.585987 C626.382555,556.350095 626.856224,556.167957 627.346109,556.043312 C627.597029,555.996212 627.850329,555.963041 628.104864,555.943949 C628.33884,555.928152 628.57184,555.900088 628.802918,555.859873 C629.262021,555.743005 629.70722,555.57643 630.130739,555.363057 C630.583478,555.128354 631.06233,554.948748 631.557198,554.828025 L631.891051,554.774522 C632.25103,554.765248 632.597847,554.636251 632.877432,554.407643 L633.218872,554.721019 C632.870739,555.028914 632.429593,555.209363 631.966926,555.233121 L631.648249,555.286624 C631.188094,555.40006 630.742521,555.566774 630.320428,555.783439 C629.865481,556.011167 629.387142,556.188018 628.893969,556.310828 C628.643698,556.360563 628.390061,556.391223 628.135214,556.402548 C627.896025,556.420369 627.657946,556.450986 627.421984,556.494268 C626.966202,556.613111 626.525692,556.784967 626.109339,557.006369 L625.532685,557.273885 C625.183658,557.419108 624.819455,557.541401 624.470428,557.663694 L623.863424,557.877707 C623.19572,558.122293 622.543191,558.435669 621.905837,558.733758 C621.268482,559.031847 620.782879,559.26879 620.206226,559.498089 C619.261802,559.904131 618.250627,560.129624 617.224319,560.163057 Z" id="Shape" fill="#575988" opacity="0.5"></path>
                <path d="M618.696304,483.638217 C618.696304,483.638217 621.867899,479.052229 627.300584,479.052229 C632.733268,479.052229 635.055058,478.433121 635.055058,478.433121 C635.055058,478.433121 631.579961,480.512102 629.174708,480.779618 C626.769455,481.047134 618.696304,483.638217 618.696304,483.638217 Z" id="Shape" fill="#000000" opacity="0.1"></path>
                <path d="M620.53249,484.715924 C620.53249,484.715924 623.400584,482.713376 625.039494,482.636943 C626.678405,482.56051 628.074514,482.407643 628.074514,482.407643 C627.305646,482.951052 626.455125,483.366535 625.555447,483.638217 C624.212451,484.020382 620.53249,484.715924 620.53249,484.715924 Z" id="Shape" fill="#000000" opacity="0.1"></path>
                <path d="M621.177432,486.099363 C621.177432,486.099363 625.494747,486.443312 625.532685,487.628025" id="Shape" fill="#000000" opacity="0.1"></path>
                <path d="M580.910311,421.13121 C581.137938,421.169427 585,417.087898 585.265564,415.475159 C585.476264,414.45425 586.078999,413.558613 586.942412,412.983439 C586.942412,412.983439 589.431128,413.984713 587.215564,417.057325 C585,420.129936 580.910311,421.13121 580.910311,421.13121 Z" id="Shape" fill="#000000" opacity="0.1"></path>
                <path d="M640.146304,289.06242 C639.266148,291.156688 638.492218,291.355414 638.628794,293.350318 C637.604589,294.443358 636.425955,295.378258 635.130934,296.124841 C632.399416,297.76051 629.425097,300.963057 626.025875,300.963057 C623.748386,300.964629 621.490966,300.534201 619.371595,299.694268 C618.825292,295.345223 617.201556,293.457325 617.201556,293.457325 C617.201556,293.457325 644.152529,279.561783 640.146304,289.06242 Z" id="Shape" fill="#000000" opacity="0.1"></path>
                <path d="M644.27393,281.671338 C644.27393,291.802421 636.120983,300.015287 626.063813,300.015287 C616.006643,300.015287 607.853696,291.802421 607.853696,281.671338 C607.853696,271.540254 616.006643,263.327389 626.063813,263.327389 C630.893436,263.327389 635.525251,265.260049 638.94031,268.700207 C642.35537,272.140365 644.27393,276.80622 644.27393,281.671338 Z" id="Shape" fill="#CC818C"></path>
                <path d="M645.457588,308.705732 L639.607588,317.480255 C639.607588,317.480255 611.966148,330.764331 617.247082,315.187261 C619.568872,308.30828 619.842023,303.286624 619.424708,299.808917 L619.470233,299.808917 C619.797124,300.961437 619.98313,302.149844 620.024125,303.347771 C620.107588,305.747771 620.168288,308.782166 626.094163,309.783439 C635.957977,311.449682 641.223735,305.243312 642.149416,304.028025 C643.094789,305.694323 644.203013,307.261336 645.457588,308.705732 Z" id="Shape" fill="#000000" opacity="0.1"></path>
                <path d="M529.072179,271.452229 L525.407393,278.614013 C524.247152,278.514005 523.103213,278.272757 522.000584,277.895541 L521.681907,277.513376 C523.199416,278.094268 528.214786,268.501911 528.214786,268.501911 L528.374125,268.631847 C528.814202,270.305732 529.072179,271.452229 529.072179,271.452229 Z" id="Shape" fill="#000000" opacity="0.1"></path>
                <path d="M639.691051,405.66879 C627.884825,410.835669 587.048638,406.433121 587.048638,406.433121 C587.170645,405.994702 587.239435,405.542998 587.253502,405.087898 C588.361284,403.375796 589.188327,402.351592 589.188327,402.351592 L638.11284,400.425478 C638.11284,400.425478 638.909533,402.619108 639.691051,405.66879 Z" id="Shape" fill="#000000" opacity="0.1"></path>
                <path d="M619.439883,300.236943 L613.992023,302.583439 C612.313731,302.569299 610.795669,301.576648 610.099611,300.038217 C608.83249,297.385987 604.363424,300.038217 604.363424,300.038217 C604.363424,300.038217 590.705837,298.998726 585.667704,301.566879 C585.667704,301.566879 577.526265,298.096815 576.380545,297.867516 C575.234825,297.638217 573.512451,296.713376 572.708171,296.942675 C571.903891,297.171975 570.879572,295.414013 570.302918,295.559236 C569.726265,295.704459 569.498638,294.405096 567.662451,293.938854 C565.826265,293.472611 565.143385,294.053503 563.109922,291.974522 C561.076459,289.895541 544.300389,281.694268 544.300389,281.694268 L536.71284,275.457325 L528.685214,268.991083 C528.685214,268.991083 523.639494,278.575796 522.144747,277.994904 L537.39572,296.484076 C537.39572,296.484076 548.405253,306.183439 555.977626,309.301911 C563.55,312.420382 562.973346,313.345223 562.973346,313.345223 C562.973346,313.345223 585.910506,325.13121 589.461479,324.901911 C593.012451,324.672611 592.344747,349.016561 590.827237,352.945223 C589.309728,356.873885 586.934825,385.29172 586.934825,385.29172 C586.934825,385.29172 584.65856,391.299363 587.048638,395.457325 C587.048638,395.457325 587.617704,404.010191 587.048638,405.50828 C587.048638,405.50828 628.135214,409.933758 639.797276,404.698089 C639.797276,404.698089 641.51965,385.521019 639.797276,383.098089 C638.074903,380.675159 641.405837,375.271338 641.405837,375.271338 L648.742996,358.75414 L666.634436,340.616561 C666.634436,340.616561 669.381128,325.482803 657.112062,315.783439 L648.970623,308.499363 C648.970623,308.499363 644.418093,304.532484 643.082685,304.280255 C641.747276,304.028025 642.240467,304.280255 642.240467,304.280255 C642.240467,304.280255 636.929183,312.084076 626.033463,310.234395 C620.13035,309.233121 620.06965,306.198726 619.963424,303.806369 C619.932306,302.599658 619.756518,301.401159 619.439883,300.236943 Z" id="Shape" fill="#67647E"></path>
                <path d="M641.861089,362.42293 C641.861089,362.42293 616.624903,363.46242 611.58677,371.449682 C611.58677,371.449682 618.127237,368.323567 623.96965,369.248408 C629.812062,370.173248 641.861089,362.42293 641.861089,362.42293 Z" id="Shape" fill="#000000" opacity="0.1"></path>
                <path d="M613.992023,390.259873 C613.992023,390.259873 625.91965,391.070064 628.446304,388.524841 C630.972957,385.979618 630.980545,384.481529 630.980545,384.481529 L613.992023,390.259873 Z" id="Shape" fill="#000000" opacity="0.1"></path>
                <path d="M644.27393,337.926115 C644.27393,337.926115 634.174903,349.941401 646.451556,355.138854 L644.27393,337.926115 Z" id="Shape" fill="#000000" opacity="0.1"></path>
                <path d="M584.521984,314.713376 C584.521984,314.713376 588.194358,322.257325 590.030545,322.75414 L584.521984,314.713376 Z" id="Shape" fill="#000000" opacity="0.1"></path>
                <path d="M572.139105,311.472611 C572.139105,311.472611 581.312451,319.796178 583.034825,320.598726 C583.034825,320.598726 573.512451,311.472611 572.139105,311.472611 Z" id="Shape" fill="#000000" opacity="0.1"></path>
                <path d="M608.718677,303.50828 C608.718677,303.50828 599.88677,316.792357 605.622957,324.909554 C605.622957,324.878981 602.413424,315.286624 608.718677,303.50828 Z" id="Shape" fill="#000000" opacity="0.1"></path>
                <path d="M630.980545,404.124841 L628.279377,406.68535 L627.9,407.036943 L624.77393,410.017834 C624.553891,410.185987 624.333852,410.35414 624.106226,410.507006 C611.381907,419.678981 608.83249,405.73758 608.83249,405.73758 C608.83249,405.73758 603.217704,409.436943 602.413424,406.433121 C601.609144,403.429299 615.48677,399.156688 617.588521,399.385987 C617.772672,399.404946 617.958262,399.404946 618.142412,399.385987 C619.145138,399.218022 620.110782,398.87394 620.995331,398.369427 L621.609922,398.040764 C622.316568,397.63996 623.002837,397.203745 623.666148,396.733758 L630.980545,404.124841 Z" id="Shape" fill="#CC818C"></path>
                <path d="M644.698833,281.671338 C644.712614,288.14413 641.338976,294.145122 635.821401,297.46242 C635.567298,297.033256 635.344155,296.586244 635.153696,296.124841 C634.501167,294.596178 634.099027,292.945223 633.438911,291.408917 C632.717051,289.731758 631.687345,288.206964 630.403891,286.91465 C630.186366,286.658576 629.90664,286.463698 629.592023,286.349045 C628.995601,286.266176 628.391663,286.434862 627.922763,286.815287 C627.150362,287.342399 626.288987,287.723154 625.380934,287.938854 C624.456859,288.152431 623.489276,287.862343 622.831518,287.174522 C622.118288,286.318471 622.216926,285.064968 622.42179,283.971975 C622.869455,281.579618 623.613035,279.225478 623.620623,276.794904 C623.62821,274.364331 622.702529,271.750318 620.585603,270.542675 C618.734241,269.480255 616.435214,269.778344 614.378988,269.182166 C614.060563,269.098163 613.748646,268.990872 613.44572,268.861146 C618.616803,263.514663 626.488269,261.857812 633.351923,264.671123 C640.215578,267.484434 644.702461,274.206791 644.698833,281.671338 Z" id="Shape" fill="#000000" opacity="0.1"></path>
                <path d="M612.201362,265.926115 C611.875097,266.101911 611.510895,266.42293 611.609533,266.789809 C611.672586,266.964738 611.789581,267.114735 611.943385,267.217834 C612.792838,267.908575 613.774268,268.415905 614.826654,268.70828 C616.882879,269.273885 619.189494,269.006369 621.040856,270.06879 C623.135019,271.26879 624.075875,273.890446 624.075875,276.321019 C624.075875,278.751592 623.317121,281.105732 622.88463,283.490446 C622.679767,284.591083 622.573541,285.844586 623.28677,286.700637 C623.946928,287.384476 624.912265,287.67389 625.836187,287.464968 C626.744314,287.253424 627.605974,286.875134 628.378016,286.349045 C628.8489,285.966314 629.455069,285.795008 630.054864,285.875159 C630.36692,285.994765 630.645511,286.188851 630.866732,286.440764 C632.150974,287.735345 633.180724,289.262794 633.901751,290.942675 C634.569455,292.471338 634.964008,294.11465 635.616537,295.658599 C636.185056,297.233145 637.251418,298.575894 638.651556,299.480255 C640.108366,300.290446 642.126654,300.244586 643.249611,298.991083 C644.372568,297.73758 644.281518,296.017834 644.812646,294.512102 C645.723152,291.890446 648.264981,290.247134 649.858366,287.984713 C651.64144,285.43949 652.13463,282.244586 652.620233,279.164331 C652.83613,278.194447 652.851627,277.190188 652.665759,276.214013 C652.457648,275.567817 652.188314,274.943285 651.861479,274.349045 C650.085992,270.649682 650.12393,265.994904 647.308949,263.044586 C645.184436,260.828025 641.959728,260.155414 638.924708,259.773248 C635.889689,259.391083 632.702918,259.17707 630.100389,257.564331 C629.370683,257.008548 628.565849,256.560706 627.710311,256.234395 C626.81658,255.917612 625.82592,256.291035 625.358171,257.121019 C625.304681,257.356217 625.198245,257.575884 625.047082,257.763057 C624.771338,257.92337 624.436664,257.943201 624.144163,257.816561 L620.107588,256.723567 L620.570428,258.771975 C619.103287,258.833947 617.640361,258.573119 616.283463,258.007643 C616.207588,259.169427 617.505058,259.918471 617.907198,261.003822 C618.202909,262.010498 617.909254,263.099092 617.148444,263.816561 C615.684047,265.299363 613.855447,265.016561 612.201362,265.926115 Z" id="Shape" fill="#585268"></path>
                <path d="M595.842607,541.941401 L595.675681,543.783439 L595.607393,543.783439 C589.028988,547.482803 575.424514,537.164331 575.424514,537.164331 L576.843385,535.735032 C577.31423,536.261217 577.540482,536.964417 577.465564,537.66879 L580.242607,537.821656 L583.565953,541.436943 C583.565953,541.436943 592.557198,542.484076 594.992802,541.903185 L595.842607,541.941401 Z" id="Shape" fill="#000000" opacity="0.1"></path>
                <path d="M594.6893,551.984713 C590.409922,552.947771 575.424514,552.878981 575.424514,552.878981 L567.01751,554.216561 C567.01751,554.216561 552.601167,555.607643 551.000195,551.098089 C549.399222,546.588535 552.259728,546.871338 552.259728,546.871338 L552.373541,546.871338 L558.375292,546.382166 C558.375292,546.382166 565.96284,543.416561 568.777821,541.375796 C570.980863,539.647936 573.062315,537.768268 575.007198,535.750318 C575.007198,535.750318 577.511089,535.261146 577.465564,538.180892 L580.242607,538.333758 L583.565953,541.956688 C583.565953,541.956688 592.557198,543.003822 594.992802,542.415287 L595.842607,542.415287 L595.455642,546.886624 L595.561868,547.016561 C596.138521,547.719745 598.513424,551.128662 594.6893,551.984713 Z" id="Shape" fill="#FF748F"></path>
                <ellipse id="Oval" fill="#575988" cx="579.172763" cy="540.779618" rx="1" ry="1"></ellipse>
                <ellipse id="Oval" fill="#575988" cx="568.390856" cy="545.487898" rx="1" ry="1"></ellipse>
                <ellipse id="Oval" fill="#575988" cx="562.83677" cy="547.184713" rx="1" ry="1"></ellipse>
                <ellipse id="Oval" fill="#575988" cx="571.221012" cy="544.585987" rx="1" ry="1"></ellipse>
                <ellipse id="Oval" fill="#575988" cx="565.606226" cy="546.336306" rx="1" ry="1"></ellipse>
                <ellipse id="Oval" fill="#575988" cx="574.081518" cy="543.248408" rx="1" ry="1"></ellipse>
                <ellipse id="Oval" fill="#575988" cx="576.911673" cy="542.010191" rx="1" ry="1"></ellipse>
                <path d="M594.6893,551.984713 C590.409922,552.947771 575.424514,552.878981 575.424514,552.878981 L567.01751,554.216561 C567.01751,554.216561 552.601167,555.607643 551.000195,551.098089 C549.399222,546.588535 552.259728,546.871338 552.259728,546.871338 L552.373541,546.871338 C553.291634,548.071338 555.135409,549.431847 558.754669,549.500637 L569.119261,549.921019 L579.855642,549.156688 C579.855642,549.156688 589.916732,548.858599 591.555642,548.507006 C592.932166,548.13373 594.272888,547.637496 595.561868,547.024204 C596.138521,547.719745 598.513424,551.128662 594.6893,551.984713 Z" id="Shape" fill="#DCE6F2"></path>
                <path d="M567.829377,553.2 C567.25575,553.208033 566.683781,553.136012 566.129767,552.985987 L566.251167,552.542675 C567.665275,552.848892 569.133839,552.783085 570.51537,552.351592 C571.023735,552.214013 571.524514,552.06879 572.032879,551.915924 C572.951125,551.622538 573.886088,551.385165 574.832685,551.205096 C576.362064,551.004856 577.907455,550.958768 579.445914,551.067516 L579.772179,551.067516 C584.369193,551.31089 588.978807,551.103545 593.535992,550.448408 C594.617403,550.372846 595.647601,549.955599 596.479961,549.256051 L596.806226,549.584713 C595.906879,550.354401 594.788601,550.817308 593.611868,550.907006 C589.02447,551.565829 584.384293,551.773177 579.757004,551.526115 L579.423152,551.526115 C577.904883,551.419001 576.379787,551.46509 574.870623,551.663694 C573.944085,551.837787 573.029264,552.070088 572.131518,552.359236 C571.623152,552.512102 571.114786,552.664968 570.614008,552.794904 C569.705688,553.043909 568.770521,553.179953 567.829377,553.2 Z" id="Shape" fill="#575988" opacity="0.5"></path>
                <path d="M630.980545,404.124841 L628.279377,406.68535 L621.571984,398.033121 C622.278631,397.632317 622.9649,397.196102 623.62821,396.726115 L630.980545,404.124841 Z" id="Shape" fill="#000000" opacity="0.1"></path>
                <path d="M661.39144,333.233121 L666.702724,340.624204 L666.702724,348.366879 C666.702724,348.366879 669.107977,356.568153 666.702724,364.769427 L666.9607,371.93121 C666.9607,371.93121 664.403696,378.512102 665.32179,380.132484 C665.32179,380.132484 664.866537,384.985987 658.675097,388.333758 C652.483658,391.681529 645.457588,399.615287 645.457588,399.615287 C645.457588,399.615287 642.817121,404.698089 635.707588,403.543949 L628.939494,406.433121 L621.147082,396.382166 L631.693774,390.603822 C631.693774,390.603822 635.366148,385.643312 637.543774,385.872611 L646.489494,375.355414 C646.489494,375.355414 646.717121,372.007643 649.00856,372.007643 C649.00856,372.007643 644.767121,368.545223 646.25428,366.466242 C647.74144,364.387261 646.489494,355.138854 646.489494,355.138854 L661.39144,333.233121 Z" id="Shape" fill="#67647E"></path>
                <path d="M651.527626,366.924841 C651.527626,366.924841 663.569066,366.695541 665.056226,369.814013 C666.543385,372.932484 655.162062,365.189809 651.527626,366.924841 Z" id="Shape" fill="#000000" opacity="0.1"></path>
                <path d="M627.953113,406.433121 C627.954585,406.635641 627.9368,406.837838 627.9,407.036943 C627.614275,408.954606 626.028557,410.40502 624.106226,410.507006 L623.893774,410.507006 C621.656054,410.507006 619.842023,408.679644 619.842023,406.425478 C619.842946,405.974902 619.919918,405.527765 620.06965,405.103185 C618.157588,403.574522 618.051362,400.761783 618.104475,399.370701 C619.1072,399.202735 620.072844,398.858654 620.957393,398.35414 C621.45635,399.79813 622.126363,401.176232 622.952918,402.458599 C623.261323,402.385222 623.576897,402.346767 623.893774,402.343949 C626.135685,402.343949 627.953113,404.174734 627.953113,406.433121 Z" id="Shape" fill="#000000" opacity="0.1"></path>
                <path d="M621.321595,397.436943 C621.321595,397.436943 618.605253,398.056051 618.605253,398.552866 C618.605253,399.049682 617.990661,403.559236 620.972568,405.431847 C623.954475,407.304459 623.650973,402.848408 623.650973,402.848408 C623.650973,402.848408 621.086381,398.889172 621.321595,397.436943 Z" id="Shape" fill="#575988"></path>
                <ellipse id="Oval" fill="#E4AAB4" cx="624.349027" cy="406.433121" rx="4.05175097" ry="4.08152866"></ellipse>
                <ellipse id="Oval" fill="#DCE6F2" cx="624.349027" cy="406.433121" rx="3.47509728" ry="3.50063694"></ellipse>
                <path d="M608.566926,408.015287 C608.566926,408.015287 617.133268,415.169427 628.135214,410.629299 L628.135214,414.099363 C628.135214,414.099363 620.798054,419.182166 614.151362,416.101911 C607.504669,413.021656 608.566926,408.015287 608.566926,408.015287 Z" id="Shape" fill="#000000" opacity="0.1"></path>
                <path d="M608.566926,407.090446 C608.566926,407.090446 617.133268,414.252229 628.135214,409.704459 L628.135214,413.174522 C628.135214,413.174522 620.798054,418.257325 614.151362,415.17707 C607.504669,412.096815 608.566926,407.090446 608.566926,407.090446 Z" id="Shape" fill="#000000" opacity="0.1"></path>
                <path d="M608.566926,407.090446 C608.566926,407.090446 617.133268,414.252229 628.135214,409.704459 L628.135214,413.174522 C628.135214,413.174522 620.798054,418.257325 614.151362,415.17707 C607.504669,412.096815 608.566926,407.090446 608.566926,407.090446 Z" id="Shape" fill="#444053"></path>
                <path d="M608.794553,407.090446 C608.794553,407.090446 617.360895,414.252229 628.370428,409.704459 L628.370428,413.174522 C628.370428,413.174522 621.033268,418.257325 614.378988,415.17707 C607.724708,412.096815 608.794553,407.090446 608.794553,407.090446 Z" id="Shape" fill="#000000" opacity="0.05"></path>
                <path d="M581.653891,535.735032 C581.653891,535.735032 593.126265,537.859873 594.803113,538.318471 C596.479961,538.77707 594.34786,539.587261 594.34786,539.587261 C594.34786,539.587261 583.877043,537.699363 581.653891,535.735032 Z" id="Shape" fill="#000000" opacity="0.1"></path>
                <path d="M581.388327,529.612739 C581.578016,529.612739 589.188327,527.457325 590.827237,523.765605" id="Shape" fill="#000000" opacity="0.1"></path>
                <path d="M592.488911,485.411465 C592.488911,485.411465 595.569455,489.492994 597.557393,489.378344 C599.545331,489.263694 594.294747,485.258599 592.488911,485.411465 Z" id="Shape" fill="#000000" opacity="0.1"></path>
                <path d="M594.196109,492.214013 C594.196109,492.214013 595.49358,495.095541 597.405642,494.170701" id="Shape" fill="#000000" opacity="0.1"></path>
                <path d="M601.449805,428.774522 L609.583658,450.382166 C609.583658,450.382166 610.729377,436.478981 608.308949,432.321019 C606.904416,429.892938 604.227015,428.508597 601.449805,428.774522 Z" id="Shape" fill="#000000" opacity="0.05"></path>
                <g id="Group" opacity="0.1" transform="translate(610.797665, 256.815287)" fill="#000000">
                    <path d="M10.7643969,1.38907643 L10.6898113,0.774076433 L9.26439689,0.0840764331 L9.42185545,1.34407643 C9.86856405,1.40404558 10.3167679,1.41906871 10.7643969,1.38907643 Z" id="Shape"></path>
                    <path d="M7.04883268,5.96178344 L7.18540856,5.83949045 C7.94780224,5.12298315 8.24172275,4.03340643 7.94416342,3.02675159 C7.78637622,2.64337211 7.56579939,2.28940565 7.29163424,1.97961783 C6.6487893,1.85194375 6.0189164,1.665175 5.40992218,1.42165605 C5.33404669,2.57579618 6.62392996,3.32484076 7.02607004,4.41019108 C7.21243401,4.90900615 7.22048272,5.45763864 7.04883268,5.96178344 Z" id="Shape"></path>
                    <path d="M28.7416342,41.4802548 C27.3273285,40.5821939 26.2470628,39.238731 25.668677,37.6585987 C25.0237354,36.1299363 24.6215953,34.4789809 23.9614786,32.9503185 C23.2404514,31.2704377 22.210702,29.7429879 20.9264591,28.4484076 C20.7073467,28.1941121 20.428116,27.99958 20.1145914,27.8828025 C19.5184167,27.8035797 18.9158832,27.9718736 18.4453307,28.3490446 C17.6729304,28.8761569 16.8115549,29.2569115 15.9035019,29.4726115 C14.9795284,29.6830743 14.0134501,29.3934379 13.3540856,28.7082803 C12.640856,27.8522293 12.7394942,26.5910828 12.944358,25.4980892 C13.3920233,23.1133758 14.1356031,20.7515924 14.1431907,18.3286624 C14.1507782,15.9057325 13.2250973,13.2764331 11.1081712,12.0764331 C9.25680934,11.0140127 6.9577821,11.3121019 4.90155642,10.7159236 C3.84681061,10.4237026 2.86287016,9.91640996 2.01070039,9.22547771 C1.95650345,9.18105172 1.90577084,9.13250153 1.85894942,9.08025478 C1.68652111,9.14685273 1.51915009,9.22604415 1.35817121,9.31719745 C1.02431907,9.49299363 0.66770428,9.81401274 0.758754864,10.1808917 C0.827342427,10.3548541 0.946314876,10.5039968 1.10019455,10.6089172 C1.94869054,11.3011392 2.93044063,11.8086345 3.98346304,12.0993631 C6.03968872,12.6649682 8.33871595,12.3974522 10.1900778,13.4598726 C12.2842412,14.6598726 13.2250973,17.2815287 13.2250973,19.7121019 C13.2250973,22.1426752 12.4663424,24.4968153 12.0262646,26.8815287 C11.8214008,27.9821656 11.7227626,29.2356688 12.4359922,30.0917197 C13.0953567,30.7768774 14.061435,31.0665138 14.9854086,30.856051 C15.8935353,30.6445067 16.755196,30.2662171 17.5272374,29.7401274 C17.9953719,29.3578066 18.5990741,29.186422 19.1964981,29.266242 C19.5095712,29.3838923 19.788602,29.578285 20.0083658,29.8318471 C21.2896756,31.1288674 22.319025,32.6557239 23.0433852,34.333758 C23.7110895,35.8624204 24.105642,37.5057325 24.7581712,39.0496815 C25.32669,40.6242278 26.393052,41.9669767 27.7931907,42.8713376 C29.2424125,43.6815287 31.2682879,43.6356688 32.3457198,42.3821656 C32.6441936,42.0418629 32.8759119,41.6476402 33.0285992,41.2203822 C31.7784834,42.1592402 30.0944949,42.2613224 28.7416342,41.4802548 Z" id="Shape"></path>
                    <path d="M35.2972763,35.6025478 C36.4429961,34.1426752 37.9529183,32.8968153 39.0303502,31.3681529 C39.2428016,31.0624204 39.4400778,30.7414013 39.622179,30.4203822 C38.2336576,32.2012739 36.3291829,33.6152866 35.2972763,35.6025478 Z" id="Shape"></path>
                </g>
            </g>
        </g>
    </g>
</svg>