<?xml version="1.0" encoding="UTF-8"?>
<svg width="54px" height="40px" viewBox="0 0 54 40" version="1.1" xmlns="http://www.w3.org/2000/svg" xmlns:xlink="http://www.w3.org/1999/xlink">
    <!-- Generator: Sketch 52.1 (67048) - http://www.bohemiancoding.com/sketch -->
    <title>Group</title>
    <desc>Created with Sketch.</desc>
    <g id="web" stroke="none" stroke-width="1" fill="none" fill-rule="evenodd">
        <g id="church-payment" transform="translate(-332.000000, -588.000000)" fill="#D30101" fill-rule="nonzero">
            <g id="Group-3" transform="translate(332.000000, 588.000000)">
                <g id="Group">
                    <path d="M11.7142857,25.2380952 L9.80952381,25.2380952 C7.71428571,25.2380952 6,26.952381 6,29.047619 L6,30.952381 C6,33.047619 7.71428571,34.7619048 9.80952381,34.7619048 L11.7142857,34.7619048 C13.8095238,34.7619048 15.5238095,33.047619 15.5238095,30.952381 L15.5238095,29.047619 C15.5238095,26.952381 13.8095238,25.2380952 11.7142857,25.2380952 Z M13.6190476,30.952381 C13.6190476,32 12.7619048,32.8571429 11.7142857,32.8571429 L9.80952381,32.8571429 C8.76190476,32.8571429 7.9047619,32 7.9047619,30.952381 L7.9047619,29.047619 C7.9047619,28 8.76190476,27.1428571 9.80952381,27.1428571 L11.7142857,27.1428571 C12.7619048,27.1428571 13.6190476,28 13.6190476,29.047619 L13.6190476,30.952381 Z" id="Shape"></path>
                    <polygon id="Rectangle-path" points="19.3333333 27.3333333 40.7619048 27.3333333 40.7619048 29.2380952 19.3333333 29.2380952"></polygon>
                    <polygon id="Rectangle-path" points="19.3333333 31.1428571 36 31.1428571 36 33.047619 19.3333333 33.047619"></polygon>
                    <path d="M48.5714286,0.476190476 L11.4285714,0.476190476 C8.76190476,0.476190476 6.66666667,2.57142857 6.66666667,5.23809524 L6.66666667,7.14285714 L4.76190476,7.14285714 C2.0952381,7.14285714 0,9.23809524 0,11.9047619 L0,34.7619048 C0,37.4285714 2.0952381,39.5238095 4.76190476,39.5238095 L41.9047619,39.5238095 C44.5714286,39.5238095 46.6666667,37.4285714 46.6666667,34.7619048 L46.6666667,32.8571429 L48.5714286,32.8571429 C51.2380952,32.8571429 53.3333333,30.7619048 53.3333333,28.0952381 L53.3333333,5.23809524 C53.3333333,2.57142857 51.2380952,0.476190476 48.5714286,0.476190476 Z M4.76190476,9.04761905 L41.9047619,9.04761905 C43.5238095,9.04761905 44.7619048,10.2857143 44.7619048,11.9047619 L44.7619048,14.7619048 L1.9047619,14.7619048 L1.9047619,11.9047619 C1.9047619,10.2857143 3.14285714,9.04761905 4.76190476,9.04761905 Z M41.9047619,37.6190476 L4.76190476,37.6190476 C3.14285714,37.6190476 1.9047619,36.3809524 1.9047619,34.7619048 L1.9047619,20.4761905 L44.7619048,20.4761905 L44.7619048,34.7619048 C44.7619048,36.3809524 43.5238095,37.6190476 41.9047619,37.6190476 Z M51.4285714,28.0952381 C51.4285714,29.7142857 50.1904762,30.952381 48.5714286,30.952381 L46.6666667,30.952381 L46.6666667,11.9047619 C46.6666667,9.23809524 44.5714286,7.14285714 41.9047619,7.14285714 L8.57142857,7.14285714 L8.57142857,5.23809524 C8.57142857,3.61904762 9.80952381,2.38095238 11.4285714,2.38095238 L48.5714286,2.38095238 C50.1904762,2.38095238 51.4285714,3.61904762 51.4285714,5.23809524 L51.4285714,28.0952381 Z" id="Shape"></path>
                </g>
            </g>
        </g>
    </g>
</svg>