<?xml version="1.0" encoding="UTF-8"?>
<svg width="37px" height="24px" viewBox="0 0 37 24" version="1.1" xmlns="http://www.w3.org/2000/svg" xmlns:xlink="http://www.w3.org/1999/xlink">
    <!-- Generator: Sketch 52.1 (67048) - http://www.bohemiancoding.com/sketch -->
    <title>mastercard</title>
    <desc>Created with Sketch.</desc>
    <g id="web" stroke="none" stroke-width="1" fill="none" fill-rule="evenodd">
        <g id="church-payment-copy-2" transform="translate(-269.000000, -927.000000)">
            <g id="card-payment" transform="translate(198.000000, 777.000000)">
                <g id="card1-copy" transform="translate(40.000000, 150.000000)">
                    <g id="mastercard" transform="translate(31.000000, 0.000000)">
                        <polygon id="Fill-1" fill="#0C2D5A" points="0.0349042991 0 36.8960915 0 36.8960915 23.8283379 0.0349042991 23.8283379"></polygon>
                        <g id="logo" transform="translate(1.594508, 1.629433)">
                            <path d="M20.2145132,10.3108885 C20.2145132,16.0055935 15.6974328,20.621451 10.1251074,20.621451 C4.55230357,20.621451 0.0349042991,16.0055935 0.0349042991,10.3108885 C0.0349042991,4.61634635 4.55230357,0 10.1251074,0 C15.6974328,0 20.2145132,4.61634635 20.2145132,10.3108885" id="Fill-2" fill="#D82332"></path>
                            <path d="M23.7704244,0 C21.1629263,0 18.7875884,1.01073723 16.9966376,2.66884815 C16.632452,3.00679253 16.2921841,3.3717855 15.9785445,3.76040525 L18.0168035,3.76040525 C18.2952045,4.10682268 18.5519202,4.47100094 18.7859939,4.85245118 L15.2088757,4.85245118 C14.9950523,5.2029422 14.8003629,5.56712045 14.6276777,5.94449711 L19.3671919,5.94449711 C19.5291939,6.29792111 19.6717428,6.66193642 19.7945199,7.03605421 L14.2003497,7.03605421 C14.0837912,7.39175941 13.985729,7.75593767 13.9071198,8.12744837 L20.0872715,8.12744837 C20.2350823,8.83136338 20.313851,9.56167521 20.313851,10.3108885 C20.313851,11.4555651 20.1314394,12.5573876 19.7945199,13.5863745 L14.2003497,13.5863745 C14.3229673,13.9603293 14.4656758,14.3246705 14.6273588,14.6785833 L19.3671919,14.6785833 C19.1940284,15.0549823 19.0002957,15.4194865 18.7851966,15.7704663 L15.2088757,15.7704663 C15.4423116,16.150776 15.6995057,16.5154431 15.9785445,16.8613717 L18.0161657,16.8613717 C17.7030044,17.2503173 17.362577,17.6153103 16.9971159,17.9532546 C18.7879073,19.6113656 21.1629263,20.621451 23.7704244,20.621451 C29.3427499,20.621451 33.8601491,16.0055935 33.8601491,10.3108885 C33.8601491,4.61683518 29.3427499,0 23.7704244,0" id="Fill-3" fill="#F1AB3E"></path>
                            <path d="M32.4034071,15.975449 C32.4034071,15.791649 32.549464,15.6425559 32.7294839,15.6425559 C32.9098227,15.6425559 33.0552417,15.791649 33.0552417,15.975449 C33.0552417,16.159412 32.9098227,16.308668 32.7294839,16.308668 C32.549464,16.308668 32.4034071,16.159412 32.4034071,15.975449 L32.4034071,15.975449 Z M32.7294839,16.2288258 C32.8658143,16.2288258 32.9771109,16.1152543 32.9771109,15.975449 C32.9771109,15.8351548 32.8658143,15.722561 32.7294839,15.722561 C32.5925157,15.722561 32.4815379,15.8351548 32.4815379,15.975449 C32.4815379,16.1152543 32.5925157,16.2288258 32.7294839,16.2288258 L32.7294839,16.2288258 Z M32.685316,16.1216091 L32.6183467,16.1216091 L32.6183467,15.8294518 L32.7396887,15.8294518 C32.7647225,15.8294518 32.7905535,15.8294518 32.8128766,15.8434649 C32.8356781,15.8600851 32.8490719,15.8879484 32.8490719,15.9169524 C32.8490719,15.9500298 32.8304162,15.9809891 32.7993233,15.992721 L32.8522609,16.1216091 L32.7781163,16.1216091 L32.7341079,16.0060823 L32.685316,16.0060823 L32.685316,16.1216091 L32.685316,16.1216091 Z M32.685316,15.9557329 L32.7223086,15.9557329 C32.7360213,15.9557329 32.7506908,15.9567105 32.763128,15.9500298 C32.7739706,15.9426974 32.7798703,15.9296619 32.7798703,15.9163006 C32.7798703,15.9052204 32.7725356,15.892185 32.7634469,15.886482 C32.7516475,15.8794754 32.7331512,15.8809419 32.7207141,15.8809419 L32.685316,15.8809419 L32.685316,15.9557329 L32.685316,15.9557329 Z" id="registered" fill="#F1AB3E"></path>
                            <path d="M32.4034071,12.7169091 C32.4034071,12.5322943 32.5497829,12.38369 32.7288461,12.38369 C32.9091849,12.38369 33.0546039,12.5322943 33.0546039,12.7169091 C33.0546039,12.9002203 32.9091849,13.0498022 32.7288461,13.0498022 C32.5497829,13.0498022 32.4034071,12.9002203 32.4034071,12.7169091 L32.4034071,12.7169091 Z M32.7288461,12.96996 C32.8661332,12.96996 32.9771109,12.8563885 32.9771109,12.7169091 C32.9771109,12.5772667 32.8661332,12.4636952 32.7288461,12.4636952 C32.5921968,12.4636952 32.4815379,12.5772667 32.4815379,12.7169091 C32.4815379,12.8563885 32.5921968,12.96996 32.7288461,12.96996 L32.7288461,12.96996 Z M32.6849971,12.8624174 L32.6183467,12.8624174 L32.6183467,12.5702601 L32.7393698,12.5702601 C32.7647225,12.5702601 32.7902346,12.5712378 32.8123983,12.5852509 C32.835997,12.6010564 32.848753,12.6290826 32.848753,12.6580865 C32.848753,12.691164 32.8300973,12.7221233 32.7996422,12.7338552 L32.8522609,12.8624174 L32.7781163,12.8624174 L32.7341079,12.7468906 L32.6849971,12.7468906 L32.6849971,12.8624174 L32.6849971,12.8624174 Z M32.6849971,12.6968671 L32.7219897,12.6968671 C32.7353835,12.6968671 32.7510097,12.6981706 32.7628091,12.691164 C32.7736517,12.6841575 32.7792325,12.6701444 32.7792325,12.6574348 C32.7792325,12.6463546 32.7728545,12.6339709 32.7634469,12.6271273 C32.7519664,12.6206096 32.7331512,12.622402 32.7207141,12.622402 L32.6849971,12.622402 L32.6849971,12.6968671 L32.6849971,12.6968671 Z" id="registered" fill="#FFFFFE"></path>
                            <path d="M31.3712824,7.98422122 L31.1278011,9.49519434 C30.8288309,9.09256147 30.5070593,8.80089299 30.0822825,8.80089299 C29.5294667,8.80089299 29.026559,9.22910795 28.6971338,9.85969848 C28.2382345,9.76242134 27.7643469,9.5970339 27.7643469,9.5970339 L27.764028,9.60110748 C27.8003827,9.24866115 27.8160089,9.03422778 27.8123416,8.9609033 L26.8060479,8.9609033 C26.6693986,10.277648 26.4254389,11.61085 26.2352142,12.9280836 L26.1848277,13.214212 L27.2810516,13.214212 C27.4288625,12.2326416 27.5419131,11.4166216 27.6254653,10.7703885 C28.0000151,10.4244599 28.1875292,10.1233407 28.565268,10.1428939 C28.3978447,10.5570958 28.299942,11.0338678 28.299942,11.5230236 C28.299942,12.5859027 28.82597,13.2876994 29.6225859,13.2876994 C30.0240829,13.2876994 30.3319823,13.1461017 30.632547,12.8182598 L30.580885,13.2138861 L31.6173149,13.2138861 L32.4515612,7.98422122 L31.3712824,7.98422122 L31.3712824,7.98422122 Z M30.0012815,12.231664 C29.6284856,12.231664 29.4398554,11.9491203 29.4398554,11.3931578 C29.4398554,10.5570958 29.7927199,9.96447102 30.289409,9.96447102 C30.6658722,9.96447102 30.8698097,10.2571172 30.8698097,10.7974371 C30.8698097,11.6406686 30.5110455,12.231664 30.0012815,12.231664 L30.0012815,12.231664 Z" id="Fill-12" fill="#0C2D5A"></path>
                            <path d="M25.0742532,11.415644 C24.959927,11.4019567 24.9092217,11.398209 24.830453,11.398209 C24.2097112,11.398209 23.8954338,11.6155754 23.8954338,12.0452568 C23.8954338,12.3097138 24.0488254,12.4790119 24.2880016,12.4790119 C24.7338259,12.4790119 25.0559164,12.0449309 25.0742532,11.415644 L25.0742532,11.415644 Z M25.871507,13.3101856 L24.9640728,13.3101856 L24.9846419,12.8697499 C24.7076759,13.2176338 24.338388,13.3839989 23.8369154,13.3839989 C23.2428019,13.3839989 22.8363619,12.9098339 22.8363619,12.2218874 C22.8363619,11.1858939 23.5436855,10.5826779 24.7591785,10.5826779 C24.8833907,10.5826779 25.0422036,10.5942468 25.2050028,10.6157554 C25.2389659,10.4749723 25.2480545,10.4151722 25.2480545,10.3389147 C25.2480545,10.0576746 25.0578298,9.95290205 24.5458334,9.95290205 C24.0100789,9.94638431 23.5685598,10.0827678 23.3863076,10.1435457 C23.3979475,10.0731542 23.5382641,9.18723153 23.5382641,9.18723153 C24.0842235,9.02363646 24.4439444,8.96188096 24.8491088,8.96188096 C25.7897088,8.96188096 26.2881518,9.39384362 26.2870357,10.2092118 C26.2891085,10.4277188 26.2537104,10.6980417 26.1985405,11.0519545 C26.1035078,11.6673913 25.8995703,12.9891873 25.871507,13.3101856 L25.871507,13.3101856 Z" id="a" fill="#0C2D5A"></path>
                            <path d="M22.1848461,9.11667708 C22.4890782,9.11667708 22.77306,9.19749695 23.1637143,9.39889486 L23.3430964,8.26399484 C23.1820511,8.1994693 22.617436,7.82127793 22.1390838,7.82127793 C21.4062481,7.82127793 20.7858252,8.1934404 20.3505247,8.80627011 C19.7146351,8.59118497 19.4529764,9.02591767 19.1327993,9.45934682 L18.8481797,9.52713123 C18.8697055,9.38455585 18.889318,9.24279519 18.8830994,9.09940509 L17.8764868,9.09940509 C17.7395186,10.4161498 17.4960373,11.7493518 17.3053342,13.0665854 L17.2555856,13.3527138 L18.3514906,13.3527138 C18.5342212,12.1381345 18.6341968,11.3607321 18.6952664,10.8340994 L19.107925,10.6004387 C19.1699513,10.3656374 19.3624084,10.2867728 19.7493953,10.2963865 C19.6990089,10.573716 19.6715834,10.8658733 19.6715834,11.1681331 C19.6715834,12.5598317 20.4071297,13.4262012 21.5859491,13.4262012 C21.8895433,13.4262012 22.1505642,13.3854654 22.554453,13.2730345 L22.7462722,12.0812673 C22.3832029,12.2636008 22.0858272,12.349472 21.8160366,12.349472 C21.1791902,12.349472 20.7939572,11.8689522 20.7939572,11.0752554 C20.7939572,9.92340931 21.3667043,9.11667708 22.1848461,9.11667708" id="Fill-11" fill="#0C2D5A"></path>
                            <path d="M16.8788034,13.2119308 C16.504732,13.3289241 16.1432571,13.3843248 15.7613726,13.3839989 C14.5422121,13.3831842 13.9071198,12.7322257 13.9071198,11.4866872 C13.9071198,10.0324184 14.7152162,8.96188096 15.8120779,8.96188096 C16.7105829,8.96188096 17.2836489,9.56118638 17.2836489,10.501858 C17.2836489,10.8135685 17.2437862,11.1177836 17.1497103,11.5474651 L14.9813395,11.5474651 C14.9076732,12.1645313 15.2943413,12.4219817 15.9275203,12.4219817 C16.3170584,12.4219817 16.6688068,12.3395324 17.060099,12.1537771 L16.8788034,13.2119308 L16.8788034,13.2119308 Z M16.2668315,10.6897316 C16.2727311,10.6007646 16.3821144,9.93057882 15.7599375,9.93057882 C15.4132916,9.93057882 15.1653457,10.2012276 15.0642539,10.6897316 L16.2668315,10.6897316 L16.2668315,10.6897316 Z" id="e" fill="#0C2D5A"></path>
                            <path d="M13.4872721,13.3051344 C13.1876641,13.4015968 12.9539093,13.4434732 12.700542,13.4434732 C12.140551,13.4434732 11.8347245,13.1144907 11.8347245,12.5094823 C11.8270708,12.3207939 11.915566,11.8272387 11.9850865,11.3755599 C12.048229,10.9778153 12.4600903,8.47305109 12.4600903,8.47305109 L13.54882,8.47305109 L13.4215783,9.11667708 L13.9804532,9.11667708 L13.8316857,10.1386574 L13.2708974,10.1386574 C13.1444529,10.9481597 12.9639547,11.9551492 12.9618818,12.0887627 C12.9618818,12.3087361 13.0766864,12.403895 13.3372289,12.403895 C13.4619194,12.403895 13.5585465,12.3913484 13.6325317,12.363811 L13.4872721,13.3051344" id="t" fill="#0C2D5A"></path>
                            <path d="M9.21926765,10.4016479 C9.21926765,10.9401754 9.47470775,11.3103826 10.0536734,11.5895045 C10.497106,11.8026343 10.5656698,11.8656933 10.5656698,12.0589441 C10.5656698,12.3240528 10.3701832,12.4436532 9.93663658,12.4436532 C9.60976254,12.4436532 9.30584941,12.3918372 8.95505775,12.2763104 C8.95505775,12.2763104 8.81155207,13.2133973 8.80469569,13.2577179 C9.05359832,13.3134445 9.27571321,13.3642828 9.94444967,13.3839989 C11.1004676,13.3839989 11.6343087,12.9344384 11.6343087,11.9624816 C11.6343087,11.3778411 11.4107588,11.0350084 10.8620888,10.777558 C10.4028706,10.5616582 10.3500924,10.5139158 10.3500924,10.315125 C10.3500924,10.085212 10.5320257,9.96691517 10.8861658,9.96691517 C11.100946,9.96691517 11.3948137,9.99135666 11.6732147,10.0314407 L11.8291576,9.04514498 C11.5454947,8.99935791 11.1156154,8.96188096 10.8649589,8.96188096 C9.63957983,8.96188096 9.21560028,9.61593532 9.21926765,10.4016479" id="s" fill="#0C2D5A"></path>
                            <path d="M7.85436921,11.415644 C7.73956466,11.4019567 7.68885932,11.398209 7.6099312,11.398209 C6.98902997,11.398209 6.67475254,11.6155754 6.67475254,12.0452568 C6.67475254,12.3097138 6.82814416,12.4790119 7.06747974,12.4790119 C7.5137824,12.4790119 7.83539457,12.0449309 7.85436921,11.415644 L7.85436921,11.415644 Z M8.65098517,13.3101856 L7.74355093,13.3101856 L7.76427953,12.8697499 C7.48747302,13.2176338 7.11802563,13.3839989 6.61623411,13.3839989 C6.02259896,13.3839989 5.61568064,12.9098339 5.61568064,12.2218874 C5.61568064,11.1858939 6.32348253,10.5826779 7.53865672,10.5826779 C7.6630283,10.5826779 7.82216015,10.5942468 7.98511882,10.6157554 C8.01908183,10.4749723 8.02801107,10.4151722 8.02801107,10.3389147 C8.02801107,10.0576746 7.83714852,9.95290205 7.32563051,9.95290205 C6.78939763,9.94638431 6.34771904,10.0827678 6.16594519,10.1435457 C6.17742564,10.0731542 6.31790175,9.18723153 6.31790175,9.18723153 C6.86370168,9.02363646 7.22374148,8.96188096 7.62890584,8.96188096 C8.56950583,8.96188096 9.06762998,9.39384362 9.06667328,10.2092118 C9.06858669,10.4277188 9.03318862,10.6980417 8.97817811,11.0519545 C8.88298601,11.6673913 8.67888905,12.9891873 8.65098517,13.3101856 L8.65098517,13.3101856 Z" id="a" fill="#0C2D5A"></path>
                            <polyline id="m" fill="#0C2D5A" points="5.06509719 13.3766665 3.96982997 13.3766665 4.59742813 9.3565296 3.19633437 13.3766665 2.44978595 13.3766665 2.35746396 9.3798305 1.69797565 13.3766665 0.672707309 13.3766665 1.5291173 8.14716451 3.10433129 8.14716451 3.14818024 11.3845218 4.21107896 8.14716451 5.91225904 8.14716451 5.06509719 13.3766665"></polyline>
                            <path d="M32.0532532,13.0507799 L31.0173017,13.0507799 L31.0686448,12.6549906 C30.7680802,12.9829955 30.4600213,13.1245932 30.0586838,13.1245932 C29.2625461,13.1245932 28.7360398,12.4236112 28.7360398,11.3595915 C28.7360398,9.94491783 29.5525871,8.75249883 30.5182208,8.75249883 C30.9431571,8.75249883 31.2647692,8.92978113 31.5643772,9.33257694 L31.8073802,7.82127793 L32.887659,7.82127793 L32.0532532,13.0507799 L32.0532532,13.0507799 Z M30.4373793,12.0680689 C30.9477812,12.0680689 31.3059075,11.4773995 31.3059075,10.6349827 C31.3059075,10.0944998 31.10197,9.8010389 30.7253474,9.8010389 C30.2286583,9.8010389 29.8757937,10.3936636 29.8757937,11.2300516 C29.8757937,11.7868288 30.0649023,12.0680689 30.4373793,12.0680689 L30.4373793,12.0680689 Z" id="d-2" fill="#FFFFFE"></path>
                            <path d="M27.1247899,8.68165545 C26.9876623,9.99807429 26.744181,11.3314392 26.5536373,12.6485098 L26.5037292,12.9346383 L27.5993153,12.9346383 C27.9910858,10.3337375 28.0854807,9.82616912 28.7003228,9.88955406 C28.7980661,9.35721833 28.9801589,8.89103757 29.1160109,8.65607335 C28.6572711,8.55830738 28.4010337,8.82325317 28.0652304,9.32674793 C28.0920182,9.10889275 28.1403318,8.89755531 28.1312431,8.68165545 L27.1247899,8.68165545" id="r-2" fill="#FFFFFE"></path>
                            <path d="M25.3931547,11.0897574 C25.2788285,11.0760701 25.2281232,11.0723224 25.1493545,11.0723224 C24.5286128,11.0723224 24.2143353,11.2896888 24.2143353,11.7193703 C24.2143353,11.9838272 24.3677269,12.1531253 24.6069031,12.1531253 C25.0527274,12.1531253 25.3748179,11.7190444 25.3931547,11.0897574 L25.3931547,11.0897574 Z M26.1904085,12.984299 L25.2829743,12.984299 L25.3035434,12.5438633 C25.0265775,12.8917472 24.6572895,13.0581123 24.1558169,13.0581123 C23.5617034,13.0581123 23.1552634,12.5839474 23.1552634,11.8960008 C23.1552634,10.8600073 23.862587,10.2567913 25.07808,10.2567913 C25.2022922,10.2567913 25.3611051,10.2683603 25.5239044,10.2898688 C25.5578674,10.1490858 25.5669561,10.0892856 25.5669561,10.0130281 C25.5669561,9.731788 25.3767313,9.62701547 24.8647349,9.62701547 C24.3289804,9.62049773 23.8874613,9.75688127 23.7052091,9.81765912 C23.716849,9.74726761 23.8571656,8.86134495 23.8571656,8.86134495 C24.403125,8.69774988 24.7628459,8.63599438 25.1680103,8.63599438 C26.1086103,8.63599438 26.6070533,9.06795704 26.6059372,9.88332526 C26.60801,10.1018322 26.572612,10.3721551 26.517442,10.726068 C26.4224093,11.3415048 26.2184718,12.6633007 26.1904085,12.984299 L26.1904085,12.984299 Z" id="a-2" fill="#FFFFFE"></path>
                            <path d="M23.637283,7.9299611 L23.457901,9.06486112 C23.0667683,8.86395204 22.7834243,8.78264334 22.4793517,8.78264334 C21.6615288,8.78264334 21.0879844,9.59035323 21.0879844,10.7423623 C21.0879844,11.5360591 21.4735363,12.0156012 22.1103826,12.0156012 C22.3800139,12.0156012 22.6780273,11.9303818 23.0406183,11.7473965 L22.8481613,12.9391637 C22.4449103,13.0515946 22.1838894,13.0924934 21.8802952,13.0924934 C20.700838,13.0924934 19.9662484,12.2259609 19.9662484,10.8345882 C19.9662484,8.96497688 20.9817902,7.65833464 22.4332704,7.65833464 C22.9116227,7.65833464 23.4765567,7.86543556 23.637283,7.9299611" id="c-2" fill="#FFFFFE"></path>
                            <path d="M18.1961856,8.68165545 C18.0584201,9.99807429 17.8146199,11.3314392 17.6243952,12.6485098 L17.5744871,12.9346383 L18.6703921,12.9346383 C19.0624815,10.3337375 19.1565574,9.82616912 19.7704428,9.88955406 C19.868824,9.35721833 20.0513951,8.89103757 20.1867688,8.65607335 C19.7283478,8.55830738 19.4717916,8.82325317 19.1366261,9.32674793 C19.1630949,9.10889275 19.2117274,8.89755531 19.2020009,8.68165545 L18.1961856,8.68165545" id="r-3" fill="#FFFFFE"></path>
                            <path d="M17.197705,12.8860442 C16.8236335,13.0030375 16.4621586,13.0584382 16.0802741,13.0581123 C14.8611136,13.0572976 14.2260213,12.4063392 14.2260213,11.1608007 C14.2260213,9.70653179 15.0341177,8.63599438 16.1309794,8.63599438 C17.0294844,8.63599438 17.6025504,9.2352998 17.6025504,10.1759714 C17.6025504,10.4876819 17.5626877,10.791897 17.4686118,11.2215785 L15.300241,11.2215785 C15.2265748,11.8386447 15.6132428,12.0960951 16.2464218,12.0960951 C16.63596,12.0960951 16.9877083,12.0136458 17.3790005,11.8278905 L17.197705,12.8860442 L17.197705,12.8860442 Z M16.585733,10.363845 C16.5916326,10.274878 16.7010159,9.60469224 16.078839,9.60469224 C15.7321931,9.60469224 15.4842472,9.87534104 15.3831554,10.363845 L16.585733,10.363845 L16.585733,10.363845 Z" id="e-2" fill="#FFFFFE"></path>
                            <path d="M13.8061736,12.9792478 C13.5065656,13.0757102 13.2728108,13.1175866 13.0194435,13.1175866 C12.4594525,13.1175866 12.153626,12.7886041 12.153626,12.1835957 C12.1459723,11.9949074 12.2344675,11.5013521 12.303988,11.0496733 C12.3671305,10.6519288 12.7789918,8.14716451 12.7789918,8.14716451 L13.8677215,8.14716451 L13.7404798,8.7907905 L14.2993547,8.7907905 L14.1505872,9.81277082 L13.5897989,9.81277082 C13.4633544,10.6222731 13.2828562,11.6292626 13.2807833,11.7628761 C13.2807833,11.9828496 13.3955879,12.0780084 13.6561304,12.0780084 C13.7808209,12.0780084 13.877448,12.0654618 13.9514332,12.0379244 L13.8061736,12.9792478" id="t-2" fill="#FFFFFE"></path>
                            <path d="M9.53816915,10.0757613 C9.53816915,10.6142889 9.79360926,10.984496 10.3725749,11.2636179 C10.8160075,11.4767477 10.8845713,11.5398067 10.8845713,11.7330575 C10.8845713,11.9981662 10.6890847,12.1177666 10.2555381,12.1177666 C9.92866405,12.1177666 9.62475091,12.0659506 9.27395926,11.9504238 C9.27395926,11.9504238 9.13045358,12.8875107 9.1235972,12.9318313 C9.37249982,12.9875579 9.59461472,13.0383962 10.2633512,13.0581123 C11.4193691,13.0581123 11.9532103,12.6085518 11.9532103,11.6365951 C11.9532103,11.0519545 11.7296603,10.7091219 11.1809903,10.4516715 C10.7217721,10.2357716 10.6689939,10.1880292 10.6689939,9.9892384 C10.6689939,9.75932542 10.8509272,9.64102859 11.2050673,9.64102859 C11.4198475,9.64102859 11.7137152,9.66547008 11.9921162,9.70555413 L12.1480591,8.7192584 C11.8643962,8.67347133 11.434517,8.63599438 11.1838604,8.63599438 C9.95848134,8.63599438 9.53450179,9.29004874 9.53816915,10.0757613" id="s-2" fill="#FFFFFE"></path>
                            <path d="M8.17327071,11.0897574 C8.05846617,11.0760701 8.00776083,11.0723224 7.92883271,11.0723224 C7.30793148,11.0723224 6.99365404,11.2896888 6.99365404,11.7193703 C6.99365404,11.9838272 7.14704567,12.1531253 7.38638125,12.1531253 C7.8326839,12.1531253 8.15429607,11.7190444 8.17327071,11.0897574 L8.17327071,11.0897574 Z M8.96988667,12.984299 L8.06245244,12.984299 L8.08318104,12.5438633 C7.80637453,12.8917472 7.43692714,13.0581123 6.93513562,13.0581123 C6.34150046,13.0581123 5.93458214,12.5839474 5.93458214,11.8960008 C5.93458214,10.8600073 6.64238404,10.2567913 7.85755822,10.2567913 C7.98192981,10.2567913 8.14106166,10.2683603 8.30402033,10.2898688 C8.33798334,10.1490858 8.34691258,10.0892856 8.34691258,10.0130281 C8.34691258,9.731788 8.15605003,9.62701547 7.64453201,9.62701547 C7.10829913,9.62049773 6.66662055,9.75688127 6.48484669,9.81765912 C6.49632715,9.74726761 6.63680326,8.86134495 6.63680326,8.86134495 C7.18260318,8.69774988 7.54264298,8.63599438 7.94780735,8.63599438 C8.88840734,8.63599438 9.38653149,9.06795704 9.38557478,9.88332526 C9.38748819,10.1018322 9.35209012,10.3721551 9.29707961,10.726068 C9.20188752,11.3415048 8.99779055,12.6633007 8.96988667,12.984299 L8.96988667,12.984299 Z" id="a-3" fill="#FFFFFE"></path>
                            <polyline id="m-2" fill="#FFFFFE" points="5.3839987 13.0507799 4.28873148 13.0507799 4.91632964 9.03064302 3.51523588 13.0507799 2.76868745 13.0507799 2.67636547 9.05394392 2.01687715 13.0507799 0.991608815 13.0507799 1.84801881 7.82127793 3.42323279 7.82127793 3.46708175 11.0586352 4.52998046 7.82127793 6.23116054 7.82127793 5.3839987 13.0507799"></polyline>
                        </g>
                    </g>
                </g>
            </g>
        </g>
    </g>
</svg>