<?xml version="1.0" encoding="UTF-8"?>
<svg width="30px" height="36px" viewBox="0 0 30 36" version="1.1" xmlns="http://www.w3.org/2000/svg" xmlns:xlink="http://www.w3.org/1999/xlink">
    <!-- Generator: Sketch 52.1 (67048) - http://www.bohemiancoding.com/sketch -->
    <title>safe</title>
    <desc>Created with Sketch.</desc>
    <g id="web" stroke="none" stroke-width="1" fill="none" fill-rule="evenodd">
        <g id="church-payment-copy-2" transform="translate(-198.000000, -1143.000000)" fill="#02BAEF" fill-rule="nonzero">
            <g id="safe" transform="translate(198.000000, 1143.000000)">
                <path d="M14.9383224,0.00235666826 C14.7802978,0.00860266026 14.6251079,0.0468619741 14.4819079,0.114877514 L0.666118421,6.86612827 C0.259936871,7.06644978 0.00155850677,7.48350507 0,7.94132746 L0,13.3548304 C0,23.4284567 5.94988697,32.0655568 14.5189145,35.8965065 C14.8251889,36.0344978 15.1748111,36.0344978 15.4810855,35.8965065 C24.0507659,32.0657968 30,23.4288167 30,13.3548304 L30,7.94132746 C29.9984415,7.48350507 29.7400631,7.06644978 29.3338816,6.86612827 L15.5180921,0.114877514 C15.3373036,0.0283758113 15.1378517,-0.0103335121 14.9383224,0.00235666826 Z M15,2.52782454 L27.6315789,8.70396875 L27.6315789,13.3548304 C27.6315789,22.2745629 22.4695626,29.8802719 15,33.4460525 C7.53096711,29.8800319 2.36842105,22.2740428 2.36842105,13.3548304 L2.36842105,8.70396875 L15,2.52782454 Z M21.9942434,11.9920779 C21.7290494,12.0211372 21.4812994,12.1400793 21.2911184,12.3296405 L13.0386513,20.3186205 L9.52302632,16.7554604 C9.23283615,16.4186328 8.78196881,16.2732152 8.35308321,16.3781201 C7.92419761,16.4830251 7.58840054,16.82086 7.48173275,17.2547586 C7.37506496,17.6886572 7.51521136,18.1466815 7.84539474,18.4432731 L12.1875,22.8440884 C12.6406732,23.3052498 13.3739098,23.3163416 13.8404605,22.869093 L22.9194079,14.0674624 C23.2936545,13.7167473 23.4045241,13.1626828 23.1946603,12.6919038 C22.9847965,12.2211247 22.5012778,11.9392402 21.9942434,11.9920779 Z"></path>
            </g>
        </g>
    </g>
</svg>