<?xml version="1.0" encoding="UTF-8"?>
<svg width="31px" height="36px" viewBox="0 0 31 36" version="1.1" xmlns="http://www.w3.org/2000/svg" xmlns:xlink="http://www.w3.org/1999/xlink">
    <!-- Generator: Sketch 52.1 (67048) - http://www.bohemiancoding.com/sketch -->
    <title>secure</title>
    <desc>Created with Sketch.</desc>
    <g id="web" stroke="none" stroke-width="1" fill="none" fill-rule="evenodd">
        <g id="church-payment-copy-2" transform="translate(-698.000000, -1143.000000)" fill="#02BAEF" fill-rule="nonzero">
            <g id="secure" transform="translate(698.000000, 1143.000000)">
                <path d="M18.1001361,1.54285714 C20.3488109,2.71509543 22.7419707,3.58750723 25.1961805,4.19340659 C27.1029753,4.66604974 29.0464002,4.96795836 31,5.14285714 C30.997965,5.5280509 30.993895,5.91116252 30.98779,6.29635628 C30.949125,8.14320416 30.85348,9.99005205 30.668295,11.8285714 C30.52788,13.2090226 30.3426951,14.5832273 30.1005301,15.9491035 C29.9112751,17.0255639 29.6853901,18.09786 29.4208401,19.1576634 C29.2193751,19.9655292 28.9934902,20.7692308 28.7411502,21.5625217 C28.5295102,22.2308849 28.2995552,22.8909196 28.0492502,23.5447079 C26.6959754,27.0676692 24.7077805,30.4407172 21.8160458,32.8622325 C21.4497458,33.1683054 21.0712358,33.4598034 20.6805159,33.73048 C20.0985059,34.134413 19.488006,34.4967033 18.855121,34.8111047 C18.1489761,35.1650665 17.4143411,35.4586466 16.6593562,35.691845 C16.2767762,35.8105263 15.8880913,35.9104685 15.4953363,36 C15.2429963,35.9437825 15.2429963,35.9437825 14.9926913,35.8813187 C14.5002214,35.7522267 14.0118214,35.610642 13.5315615,35.4440717 C12.6788965,35.1463274 11.8486166,34.7798728 11.0570017,34.3405437 C10.2796317,33.9116252 9.53685678,33.4160787 8.84088684,32.8622325 C8.33417188,32.4562175 7.84984193,32.0189705 7.39196696,31.5546559 C4.66913719,28.7958357 2.95159733,25.1708502 1.86694242,21.4500868 C1.69396744,20.8566802 1.53523745,20.2570272 1.39278746,19.6552921 C1.19132248,18.8161943 1.01834749,17.9729323 0.867757506,17.1234239 C0.690712521,16.1198381 0.544192533,15.1100058 0.428197542,14.0960093 C0.273537555,12.7842684 0.167717564,11.4662811 0.0985275699,10.1462117 C0.0110225772,8.48050896 -0.011362421,6.81272412 0.00491757766,5.14285714 C0.257257557,5.11578947 0.509597536,5.0887218 0.763972515,5.05748988 C1.67768744,4.93880856 2.58936736,4.79097744 3.49290729,4.60150376 C4.96217717,4.29334876 6.41109704,3.88941585 7.83356193,3.4021978 C9.62436178,2.79005205 11.3724266,2.05089647 13.0797915,1.22845575 C13.8937914,0.837015616 14.6976164,0.422672065 15.4953363,0 C15.5584213,0.041642568 15.6235413,0.0853672643 15.6866263,0.127009832 C16.4680662,0.63713129 17.2718911,1.11185656 18.1001361,1.54285714 Z M13.0594415,3.81654135 C11.7509366,4.41619433 10.4180117,4.96587623 9.06270182,5.44893002 C7.64430694,5.95488722 6.19742206,6.38380567 4.73222218,6.72527473 C3.95078225,6.9064199 3.16527231,7.05841527 2.37365738,7.18958936 L2.29429239,7.20208213 C2.31464239,8.7324465 2.37772738,10.2607287 2.50186237,11.7848467 C2.59954236,13.0091382 2.73385235,14.2313476 2.91700234,15.4473106 C3.05538232,16.378022 3.22021731,17.302487 3.41761229,18.2207056 C3.56209728,18.8953152 3.72286227,19.5657606 3.90601225,20.2299595 C4.05456724,20.773395 4.21533223,21.3126663 4.39237721,21.8477733 C5.41394713,24.939734 6.952407,27.9379988 9.3048668,30.1887796 C9.65895677,30.5260844 10.0272917,30.8446501 10.4139417,31.1423944 C10.9593217,31.5650665 11.5392966,31.946096 12.1436916,32.2792366 C13.1998565,32.8622325 14.3272464,33.291151 15.4912663,33.5951417 C15.6601713,33.5493349 15.8290763,33.4993638 15.9979812,33.4493927 C16.8221562,33.1870445 17.6198761,32.8518219 18.378931,32.4270677 C18.785931,32.1980335 19.180721,31.946096 19.561266,31.6733372 C22.0093707,29.9222672 23.7961006,27.3654135 25.0842555,24.6399075 C25.3101405,24.1651822 25.5217805,23.6800463 25.7191754,23.1928282 C25.9613404,22.5952574 26.1831554,21.9914401 26.3866554,21.3792944 C26.6328904,20.6463852 26.8547053,19.9051475 27.0521003,19.1576634 C27.3166503,18.1665703 27.5405003,17.1671486 27.7338253,16.1593985 C27.9800603,14.870561 28.1713502,13.5713129 28.3178702,12.2658184 C28.5010202,10.6334297 28.6109102,8.99479468 28.6699252,7.35199537 L28.6739952,7.23956044 C28.3829902,7.19791787 28.0899502,7.15419318 27.7989453,7.10838635 C27.5079403,7.0604974 27.2149003,7.01052632 26.9238953,6.95847311 C25.0659405,6.60867553 23.2324056,6.14019665 21.4416058,5.51764025 C20.1025759,5.04916136 18.790001,4.5015616 17.5201611,3.86443031 C16.8343662,3.52087912 16.1648512,3.15026027 15.5055113,2.76090226 L15.3834113,2.68802776 C15.2735213,2.74424523 15.1636313,2.8004627 15.0517063,2.85668016 C14.3923664,3.18565645 13.7289564,3.50838635 13.0594415,3.81654135 Z M20.4464909,22.9700405 L10.5523217,22.9700405 L10.5523217,15.372354 L11.7794266,15.372354 L11.7794266,13.7128976 C11.7794266,11.6203586 13.4521965,9.90676692 15.4994063,9.90676692 C17.5445811,9.90676692 19.219386,11.6203586 19.219386,13.7128976 L19.219386,15.372354 L20.4464909,15.372354 L20.4464909,22.9700405 Z M17.9780361,15.372354 L17.9780361,13.7128976 C17.9780361,12.3178716 16.8628562,11.1768652 15.4994063,11.1768652 C14.1359564,11.1768652 13.0187415,12.3178716 13.0187415,13.7128976 L13.0187415,15.372354 L17.9780361,15.372354 Z"></path>
            </g>
        </g>
    </g>
</svg>