<?xml version="1.0" encoding="UTF-8"?>
<svg width="37px" height="24px" viewBox="0 0 37 24" version="1.1" xmlns="http://www.w3.org/2000/svg" xmlns:xlink="http://www.w3.org/1999/xlink">
    <!-- Generator: Sketch 52.1 (67048) - http://www.bohemiancoding.com/sketch -->
    <title>visa</title>
    <desc>Created with Sketch.</desc>
    <g id="web" stroke="none" stroke-width="1" fill="none" fill-rule="evenodd">
        <g id="church-payment-copy-2" transform="translate(-269.000000, -836.000000)">
            <g id="card-payment" transform="translate(198.000000, 777.000000)">
                <g id="card1" transform="translate(40.000000, 59.000000)">
                    <g id="visa" transform="translate(31.000000, 0.000000)">
                        <polygon id="Fill-1" fill="#F7F7F7" points="0.0656937101 0.143553039 36.9268809 0.143553039 36.9268809 23.9720539 0.0656937101 23.9720539"></polygon>
                        <g id="logo" transform="translate(6.696932, 8.147165)">
                            <g id="registered" transform="translate(23.439261, 6.680675)" fill="#0161AB">
                                <path d="M0.0616117708,0.444248586 C0.0616117708,0.223493017 0.236688697,0.0445812842 0.452521236,0.0445812842 C0.668736456,0.0445812842 0.843430701,0.223493017 0.843430701,0.444248586 C0.843430701,0.664808624 0.668736456,0.843915888 0.452521236,0.843915888 C0.236688697,0.843915888 0.0616117708,0.664808624 0.0616117708,0.444248586 L0.0616117708,0.444248586 Z M0.452521236,0.74771417 C0.617074412,0.74771417 0.749864999,0.611819466 0.749864999,0.444248586 C0.749864999,0.276091111 0.617074412,0.140587471 0.452521236,0.140587471 C0.288733423,0.140587471 0.155751495,0.276091111 0.155751495,0.444248586 C0.155751495,0.611819466 0.288733423,0.74771417 0.452521236,0.74771417 L0.452521236,0.74771417 Z M0.399902487,0.619445212 L0.31992199,0.619445212 L0.31992199,0.268465365 L0.464958395,0.268465365 C0.495190257,0.268465365 0.525804802,0.268856429 0.552592528,0.28606324 C0.580336959,0.306007499 0.596026913,0.339052398 0.596026913,0.373857085 C0.596026913,0.413941134 0.573640027,0.451092204 0.536902574,0.464779441 L0.59966239,0.619445212 L0.51068887,0.619445212 L0.458644145,0.480421997 L0.399902487,0.480421997 L0.399902487,0.619445212 L0.399902487,0.619445212 Z M0.399902487,0.420393688 L0.443910895,0.420393688 C0.460557554,0.420393688 0.478352258,0.421957944 0.492894166,0.413941134 C0.506096689,0.405142197 0.512984961,0.388717513 0.512984961,0.373074957 C0.512984961,0.360169848 0.504948643,0.344527293 0.49365953,0.337683674 C0.479500303,0.329275801 0.457304758,0.331035588 0.442380168,0.331035588 L0.399902487,0.331035588 L0.399902487,0.420393688 L0.399902487,0.420393688 Z"></path>
                            </g>
                            <path d="M21.5712132,7.54960132 L21.3497739,6.4544344 L18.9472497,6.4544344 L18.5534084,7.54960132 L16.5838937,7.54960132 L19.401848,0.724470936 C19.401848,0.724470936 19.5730163,0.175164037 20.274652,0.175164037 L21.7935778,0.175164037 L23.3063353,7.54960132 L21.5712132,7.54960132 Z M19.4919041,4.94125527 L21.0435215,4.94125527 L20.4846801,2.18093327 L19.4919041,4.94125527 Z" id="a" fill="#0066B2"></path>
                            <path d="M16.7313143,1.94842573 L17.0011742,0.364742288 C17.0011742,0.364742288 16.1687721,0.0432426424 15.3015194,0.0432426424 C14.3636406,0.0432426424 12.1366024,0.45968809 12.1366024,2.48457182 C12.1366024,4.39006826 14.7506968,4.41388305 14.7506968,5.41379081 C14.7506968,6.41432529 12.4061539,6.23571437 11.6320415,5.60462247 L11.3513872,7.26006363 C11.3513872,7.26006363 12.1948922,7.67682243 13.4846683,7.67682243 C14.7738277,7.67682243 16.7199031,6.99810096 16.7199031,5.15214149 C16.7199031,3.23473766 14.0823695,3.05581339 14.0823695,2.2222958 C14.0823695,1.38846484 15.9229682,1.49563139 16.7313143,1.94842573" id="s" fill="#0066B2"></path>
                            <polyline id="i" fill="#0066B2" points="10.186826 7.54960132 8.29718985 7.54960132 9.47809681 0.175164037 11.3683498 0.175164037 10.186826 7.54960132"></polyline>
                            <path d="M1.67112676,0.175164037 L3.16029084,0.175164037 C3.98004814,0.175164037 4.05653415,0.839157944 4.05653415,0.839157944 L4.6924783,4.15536725 C4.6924783,4.15536725 4.2650202,2.81014505 2.95211319,1.7303324 C1.57906598,0.601323411 0.147420613,0.299878324 0.147112202,0.299878324 L0.181962681,0.175164037 L1.67112676,0.175164037 L3.16029084,0.175164037 C3.98004814,0.175164037 4.05653415,0.839157944 4.05653415,0.839157944 L4.6924783,4.15536725 L4.6924783,4.1550539 L4.90589893,5.24740065 L6.70732948,0.175164037 L8.74130216,0.175164037 L5.73460016,7.54960132 L3.76570227,7.54960132 L2.1243372,1.1427965 C1.05815925,0.492276748 0.147420613,0.299878324 0.147112202,0.299878324 L0.181962681,0.175164037 L1.67112676,0.175164037 Z" id="v" fill="#0066B2"></path>
                            <path d="M4.6924783,4.15536725 L4.05653415,0.839157944 C4.05653415,0.839157944 3.98004814,0.175164037 3.16029084,0.175164037 L0.181962681,0.175164037 L0.147112202,0.299878324 C0.147420613,0.299878324 1.57906598,0.601323411 2.95211319,1.7303324 C4.2650202,2.81014505 4.6924783,4.15536725 4.6924783,4.15536725" id="shape" fill="#F9A533"></path>
                        </g>
                    </g>
                </g>
            </g>
        </g>
    </g>
</svg>