<?xml version="1.0" encoding="UTF-8"?>
<svg width="21px" height="22px" viewBox="0 0 21 22" version="1.1" xmlns="http://www.w3.org/2000/svg" xmlns:xlink="http://www.w3.org/1999/xlink">
    <!-- Generator: Sketch 51.3 (57544) - http://www.bohemiancoding.com/sketch -->
    <title>Group 7 Copyaccount_red</title>
    <desc>Created with Sketch.</desc>
    <defs></defs>
    <g id="Web_admin" stroke="none" stroke-width="1" fill="none" fill-rule="evenodd">
        <g id="iPhone-X" transform="translate(-13.000000, -20.000000)" fill="#D30101" fill-rule="nonzero" stroke="#D30101" stroke-width="0.1">
            <g id="Group-7-Copy" transform="translate(14.000000, 20.000000)">
                <g id="noun_bank-account_1783866">
                    <path d="M18.0246914,18.8023256 L1.72839506,18.8023256 C1.45679012,18.8023256 1.2345679,18.5825581 1.2345679,18.3139535 L1.2345679,16.1162791 C1.2345679,15.8476744 1.45679012,15.627907 1.72839506,15.627907 L18.0246914,15.627907 C18.2962963,15.627907 18.5185185,15.8476744 18.5185185,16.1162791 L18.5185185,18.3139535 C18.5185185,18.5825581 18.2962963,18.8023256 18.0246914,18.8023256 Z M2.22222222,17.8255814 L17.5308642,17.8255814 L17.5308642,16.6046512 L2.22222222,16.6046512 L2.22222222,17.8255814 Z" id="Shape"></path>
                    <path d="M19.2592593,21 L0.49382716,21 C0.222222222,21 0,20.7802326 0,20.5116279 L0,18.3139535 C0,18.0453488 0.222222222,17.8255814 0.49382716,17.8255814 L19.2592593,17.8255814 C19.5308642,17.8255814 19.7530864,18.0453488 19.7530864,18.3139535 L19.7530864,20.5116279 C19.7530864,20.7802326 19.5308642,21 19.2592593,21 Z M0.987654321,20.0232558 L18.7654321,20.0232558 L18.7654321,18.8023256 L0.987654321,18.8023256 L0.987654321,20.0232558 Z" id="Shape"></path>
                    <path d="M3.45679012,14.8953488 C3.18518519,14.8953488 2.96296296,14.6755814 2.96296296,14.4069767 L2.96296296,6.10465116 C2.96296296,5.83604651 3.18518519,5.61627907 3.45679012,5.61627907 C3.72839506,5.61627907 3.95061728,5.83604651 3.95061728,6.10465116 L3.95061728,14.4069767 C3.95061728,14.6755814 3.72839506,14.8953488 3.45679012,14.8953488 Z" id="Shape"></path>
                    <path d="M6.66666667,14.8953488 C6.39506173,14.8953488 6.17283951,14.6755814 6.17283951,14.4069767 L6.17283951,6.10465116 C6.17283951,5.83604651 6.39506173,5.61627907 6.66666667,5.61627907 C6.9382716,5.61627907 7.16049383,5.83604651 7.16049383,6.10465116 L7.16049383,14.4069767 C7.16049383,14.6755814 6.9382716,14.8953488 6.66666667,14.8953488 Z" id="Shape"></path>
                    <path d="M9.87654321,14.8953488 C9.60493827,14.8953488 9.38271605,14.6755814 9.38271605,14.4069767 L9.38271605,6.10465116 C9.38271605,5.83604651 9.60493827,5.61627907 9.87654321,5.61627907 C10.1481481,5.61627907 10.3703704,5.83604651 10.3703704,6.10465116 L10.3703704,14.4069767 C10.3703704,14.6755814 10.1481481,14.8953488 9.87654321,14.8953488 Z" id="Shape"></path>
                    <path d="M13.0864198,14.8953488 C12.8148148,14.8953488 12.5925926,14.6755814 12.5925926,14.4069767 L12.5925926,6.10465116 C12.5925926,5.83604651 12.8148148,5.61627907 13.0864198,5.61627907 C13.3580247,5.61627907 13.5802469,5.83604651 13.5802469,6.10465116 L13.5802469,14.4069767 C13.5802469,14.6755814 13.3580247,14.8953488 13.0864198,14.8953488 Z" id="Shape"></path>
                    <path d="M16.2962963,14.8953488 C16.0246914,14.8953488 15.8024691,14.6755814 15.8024691,14.4069767 L15.8024691,6.10465116 C15.8024691,5.83604651 16.0246914,5.61627907 16.2962963,5.61627907 C16.5679012,5.61627907 16.7901235,5.83604651 16.7901235,6.10465116 L16.7901235,14.4069767 C16.7901235,14.6755814 16.5679012,14.8953488 16.2962963,14.8953488 Z" id="Shape"></path>
                    <path d="M19.2592593,6.59302326 L0.49382716,6.59302326 C0.271604938,6.59302326 0.0740740741,6.44651163 0.024691358,6.22674419 C-0.024691358,6.00697674 0.049382716,5.7872093 0.24691358,5.68953488 L9.62962963,0.073255814 C9.77777778,-0.0244186047 9.97530864,-0.0244186047 10.1481481,0.073255814 L19.5308642,5.68953488 C19.7283951,5.81162791 19.8024691,6.03139535 19.7530864,6.22674419 C19.6790123,6.44651163 19.4814815,6.59302326 19.2592593,6.59302326 Z M2.27160494,5.61627907 L17.5061728,5.61627907 L9.87654321,1.05 L2.27160494,5.61627907 Z" id="Shape"></path>
                </g>
            </g>
        </g>
    </g>
</svg>