<?xml version="1.0" encoding="UTF-8"?>
<svg width="180px" height="53px" viewBox="0 0 180 53" version="1.1" xmlns="http://www.w3.org/2000/svg" xmlns:xlink="http://www.w3.org/1999/xlink">
    <!-- Generator: Sketch 52.5 (67469) - http://www.bohemiancoding.com/sketch -->
    <title>google-play-badge (1)</title>
    <desc>Created with Sketch.</desc>
    <defs>
        <linearGradient x1="91.5361538%" y1="4.8388%" x2="-37.5592308%" y2="71.9684%" id="linearGradient-1">
            <stop stop-color="#00A0FF" offset="0%"></stop>
            <stop stop-color="#00A1FF" offset="0.657445%"></stop>
            <stop stop-color="#00BEFF" offset="26.01%"></stop>
            <stop stop-color="#00D2FF" offset="51.22%"></stop>
            <stop stop-color="#00DFFF" offset="76.04%"></stop>
            <stop stop-color="#00E3FF" offset="100%"></stop>
        </linearGradient>
        <linearGradient x1="107.728079%" y1="49.4282353%" x2="-130.665025%" y2="49.4282353%" id="linearGradient-2">
            <stop stop-color="#FFE000" offset="0%"></stop>
            <stop stop-color="#FFBD00" offset="40.87%"></stop>
            <stop stop-color="#FFA500" offset="77.54%"></stop>
            <stop stop-color="#FF9C00" offset="100%"></stop>
        </linearGradient>
        <linearGradient x1="86.3892216%" y1="17.8150459%" x2="-49.888024%" y2="194.392791%" id="linearGradient-3">
            <stop stop-color="#FF3A44" offset="0%"></stop>
            <stop stop-color="#C31162" offset="100%"></stop>
        </linearGradient>
        <linearGradient x1="-18.5790419%" y1="-54.5266535%" x2="42.2748503%" y2="24.6901019%" id="linearGradient-4">
            <stop stop-color="#32A071" offset="0%"></stop>
            <stop stop-color="#2DA771" offset="6.85%"></stop>
            <stop stop-color="#15CF74" offset="47.62%"></stop>
            <stop stop-color="#06E775" offset="80.09%"></stop>
            <stop stop-color="#00F076" offset="100%"></stop>
        </linearGradient>
    </defs>
    <g id="Page-1" stroke="none" stroke-width="1" fill="none" fill-rule="evenodd">
        <g id="Mobile-Copy" transform="translate(-70.000000, -394.000000)">
            <g id="google-play-badge-(1)" transform="translate(70.000000, 394.000000)">
                <path d="M173.333333,53 L6.66666667,53 C2.93333333,53 0,50.085 0,46.375 L0,6.625 C0,2.915 2.93333333,0 6.66666667,0 L173.333333,0 C177.066667,0 180,2.915 180,6.625 L180,46.375 C180,49.9525 177.066667,53 173.333333,53 Z" id="Path" fill="#000000"></path>
                <path d="M173.333333,1.06 C176.4,1.06 178.933333,3.5775 178.933333,6.625 L178.933333,46.375 C178.933333,49.4225 176.4,51.94 173.333333,51.94 L6.66666667,51.94 C3.6,51.94 1.06666667,49.4225 1.06666667,46.375 L1.06666667,6.625 C1.06666667,3.5775 3.6,1.06 6.66666667,1.06 L173.333333,1.06 Z M173.333333,0 L6.66666667,0 C2.93333333,0 0,2.915 0,6.625 L0,46.375 C0,50.085 2.93333333,53 6.66666667,53 L173.333333,53 C177.066667,53 180,50.085 180,46.375 L180,6.625 C180,3.0475 177.066667,0 173.333333,0 Z" id="Shape" fill="#A6A6A6" fill-rule="nonzero"></path>
                <g id="Group" transform="translate(54.666667, 7.950000)" fill="#FFFFFF" stroke="#FFFFFF" stroke-width="0.2">
                    <path d="M8.53333333,5.565 C8.53333333,6.625 8.26666667,7.5525 7.6,8.215 C6.8,9.01 5.86666667,9.4075 4.66666667,9.4075 C3.46666667,9.4075 2.53333333,9.01 1.73333333,8.215 C0.933333333,7.42 0.533333333,6.4925 0.533333333,5.3 C0.533333333,4.1075 0.933333333,3.18 1.73333333,2.385 C2.53333333,1.59 3.46666667,1.1925 4.66666667,1.1925 C5.2,1.1925 5.73333333,1.325 6.26666667,1.59 C6.8,1.855 7.2,2.12 7.46666667,2.5175 L6.8,3.18 C6.26666667,2.5175 5.6,2.2525 4.66666667,2.2525 C3.86666667,2.2525 3.06666667,2.5175 2.53333333,3.18 C1.86666667,3.71 1.6,4.505 1.6,5.4325 C1.6,6.36 1.86666667,7.155 2.53333333,7.685 C3.2,8.215 3.86666667,8.6125 4.66666667,8.6125 C5.6,8.6125 6.26666667,8.3475 6.93333333,7.685 C7.33333333,7.2875 7.6,6.7575 7.6,6.095 L4.66666667,6.095 L4.66666667,5.1675 L8.53333333,5.1675 C8.53333333,5.1675 8.53333333,5.4325 8.53333333,5.565 Z" id="Path"></path>
                    <polygon id="Path" points="14.6666667 2.2525 11.0666667 2.2525 11.0666667 4.77 14.4 4.77 14.4 5.6975 11.0666667 5.6975 11.0666667 8.215 14.6666667 8.215 14.6666667 9.275 10 9.275 10 1.325 14.6666667 1.325"></polygon>
                    <polygon id="Path" points="19.0666667 9.275 18 9.275 18 2.2525 15.7333333 2.2525 15.7333333 1.325 21.3333333 1.325 21.3333333 2.2525 19.0666667 2.2525"></polygon>
                    <polygon id="Path" points="25.2 9.275 25.2 1.325 26.2666667 1.325 26.2666667 9.275"></polygon>
                    <polygon id="Path" points="30.8 9.275 29.7333333 9.275 29.7333333 2.2525 27.4666667 2.2525 27.4666667 1.325 32.9333333 1.325 32.9333333 2.2525 30.6666667 2.2525 30.6666667 9.275"></polygon>
                    <path d="M43.4666667,8.215 C42.6666667,9.01 41.7333333,9.4075 40.5333333,9.4075 C39.3333333,9.4075 38.4,9.01 37.6,8.215 C36.8,7.42 36.4,6.4925 36.4,5.3 C36.4,4.1075 36.8,3.18 37.6,2.385 C38.4,1.59 39.3333333,1.1925 40.5333333,1.1925 C41.7333333,1.1925 42.6666667,1.59 43.4666667,2.385 C44.2666667,3.18 44.6666667,4.1075 44.6666667,5.3 C44.6666667,6.4925 44.2666667,7.42 43.4666667,8.215 Z M38.4,7.5525 C38.9333333,8.0825 39.7333333,8.48 40.5333333,8.48 C41.3333333,8.48 42.1333333,8.215 42.6666667,7.5525 C43.2,7.0225 43.6,6.2275 43.6,5.3 C43.6,4.3725 43.3333333,3.5775 42.6666667,3.0475 C42.1333333,2.5175 41.3333333,2.12 40.5333333,2.12 C39.7333333,2.12 38.9333333,2.385 38.4,3.0475 C37.8666667,3.5775 37.4666667,4.3725 37.4666667,5.3 C37.4666667,6.2275 37.7333333,7.0225 38.4,7.5525 Z" id="Shape" fill-rule="nonzero"></path>
                    <polygon id="Path" points="46.1333333 9.275 46.1333333 1.325 47.3333333 1.325 51.2 7.5525 51.2 7.5525 51.2 5.9625 51.2 1.325 52.2666667 1.325 52.2666667 9.275 51.2 9.275 47.0666667 2.7825 47.0666667 2.7825 47.0666667 4.3725 47.0666667 9.275"></polygon>
                </g>
                <path d="M90.8,28.885 C87.6,28.885 85.0666667,31.27 85.0666667,34.5825 C85.0666667,37.7625 87.6,40.28 90.8,40.28 C94,40.28 96.5333333,37.895 96.5333333,34.5825 C96.5333333,31.1375 94,28.885 90.8,28.885 Z M90.8,37.895 C89.0666667,37.895 87.6,36.4375 87.6,34.45 C87.6,32.4625 89.0666667,31.005 90.8,31.005 C92.5333333,31.005 94,32.33 94,34.45 C94,36.4375 92.5333333,37.895 90.8,37.895 Z M78.4,28.885 C75.2,28.885 72.6666667,31.27 72.6666667,34.5825 C72.6666667,37.7625 75.2,40.28 78.4,40.28 C81.6,40.28 84.1333333,37.895 84.1333333,34.5825 C84.1333333,31.1375 81.6,28.885 78.4,28.885 Z M78.4,37.895 C76.6666667,37.895 75.2,36.4375 75.2,34.45 C75.2,32.4625 76.6666667,31.005 78.4,31.005 C80.1333333,31.005 81.6,32.33 81.6,34.45 C81.6,36.4375 80.1333333,37.895 78.4,37.895 Z M63.6,30.6075 L63.6,32.9925 L69.3333333,32.9925 C69.2,34.3175 68.6666667,35.3775 68,36.04 C67.2,36.835 65.8666667,37.7625 63.6,37.7625 C60,37.7625 57.3333333,34.98 57.3333333,31.4025 C57.3333333,27.825 60.1333333,25.0425 63.6,25.0425 C65.4666667,25.0425 66.9333333,25.8375 68,26.765 L69.7333333,25.0425 C68.2666667,23.7175 66.4,22.6575 63.7333333,22.6575 C58.9333333,22.6575 54.8,26.6325 54.8,31.4025 C54.8,36.1725 58.9333333,40.1475 63.7333333,40.1475 C66.4,40.1475 68.2666667,39.3525 69.8666667,37.63 C71.4666667,36.04 72,33.7875 72,32.065 C72,31.535 72,31.005 71.8666667,30.6075 L63.6,30.6075 Z M124.133333,32.4625 C123.6,31.1375 122.266667,28.885 119.333333,28.885 C116.4,28.885 114,31.1375 114,34.5825 C114,37.7625 116.4,40.28 119.6,40.28 C122.133333,40.28 123.733333,38.69 124.266667,37.7625 L122.4,36.4375 C121.733333,37.365 120.933333,38.0275 119.6,38.0275 C118.266667,38.0275 117.466667,37.4975 116.8,36.305 L124.4,33.125 L124.133333,32.4625 Z M116.4,34.3175 C116.4,32.1975 118.133333,31.005 119.333333,31.005 C120.266667,31.005 121.2,31.535 121.466667,32.1975 L116.4,34.3175 Z M110.133333,39.75 L112.666667,39.75 L112.666667,23.1875 L110.133333,23.1875 L110.133333,39.75 Z M106.133333,30.0775 C105.466667,29.415 104.4,28.7525 103.066667,28.7525 C100.266667,28.7525 97.6,31.27 97.6,34.45 C97.6,37.63 100.133333,40.015 103.066667,40.015 C104.4,40.015 105.466667,39.3525 106,38.69 L106.133333,38.69 L106.133333,39.485 C106.133333,41.605 104.933333,42.7975 103.066667,42.7975 C101.6,42.7975 100.533333,41.7375 100.266667,40.81 L98.1333333,41.7375 C98.8,43.195 100.4,45.05 103.2,45.05 C106.133333,45.05 108.533333,43.3275 108.533333,39.22 L108.533333,29.15 L106.133333,29.15 L106.133333,30.0775 Z M103.2,37.895 C101.466667,37.895 100,36.4375 100,34.45 C100,32.4625 101.466667,31.005 103.2,31.005 C104.933333,31.005 106.266667,32.4625 106.266667,34.45 C106.266667,36.4375 104.933333,37.895 103.2,37.895 Z M135.733333,23.1875 L129.733333,23.1875 L129.733333,39.75 L132.266667,39.75 L132.266667,33.5225 L135.733333,33.5225 C138.533333,33.5225 141.2,31.535 141.2,28.355 C141.2,25.175 138.533333,23.1875 135.733333,23.1875 Z M135.866667,31.1375 L132.266667,31.1375 L132.266667,25.44 L135.866667,25.44 C137.733333,25.44 138.8,27.03 138.8,28.2225 C138.666667,29.68 137.6,31.1375 135.866667,31.1375 Z M151.2,28.7525 C149.333333,28.7525 147.466667,29.5475 146.8,31.27 L149.066667,32.1975 C149.6,31.27 150.4,31.005 151.333333,31.005 C152.666667,31.005 153.866667,31.8 154,33.125 L154,33.2575 C153.6,32.9925 152.533333,32.595 151.466667,32.595 C149.066667,32.595 146.666667,33.92 146.666667,36.305 C146.666667,38.5575 148.666667,40.015 150.8,40.015 C152.533333,40.015 153.333333,39.22 154,38.425 L154.133333,38.425 L154.133333,39.75 L156.533333,39.75 L156.533333,33.39 C156.266667,30.475 154,28.7525 151.2,28.7525 Z M150.933333,37.895 C150.133333,37.895 148.933333,37.4975 148.933333,36.4375 C148.933333,35.1125 150.4,34.715 151.6,34.715 C152.666667,34.715 153.2,34.98 153.866667,35.245 C153.6,36.835 152.266667,37.895 150.933333,37.895 Z M164.933333,29.15 L162.133333,36.305 L162,36.305 L159.066667,29.15 L156.4,29.15 L160.8,39.22 L158.266667,44.785 L160.8,44.785 L167.6,29.15 L164.933333,29.15 Z M142.533333,39.75 L145.066667,39.75 L145.066667,23.1875 L142.533333,23.1875 L142.533333,39.75 Z" id="Shape" fill="#FFFFFF" fill-rule="nonzero"></path>
                <g id="Group" transform="translate(12.000000, 9.275000)">
                    <path d="M1.86666667,0.6625 C1.46666667,1.06 1.2,1.7225 1.2,2.5175 L1.2,31.8 C1.2,32.595 1.46666667,33.2575 1.86666667,33.655 L2,33.7875 L18.5333333,17.3575 L18.5333333,17.225 L18.5333333,17.0925 L1.86666667,0.6625 Z" id="Path" fill="url(#linearGradient-1)"></path>
                    <path d="M24,22.9225 L18.5333333,17.49 L18.5333333,17.225 L18.5333333,17.0925 L24,11.66 L24.1333333,11.7925 L30.6666667,15.5025 C32.5333333,16.5625 32.5333333,18.285 30.6666667,19.345 L24,22.9225 Z" id="Path" fill="url(#linearGradient-2)"></path>
                    <path d="M24.1333333,22.79 L18.5333333,17.225 L1.86666667,33.7875 C2.53333333,34.45 3.46666667,34.45 4.66666667,33.92 L24.1333333,22.79" id="Path" fill="url(#linearGradient-3)"></path>
                    <path d="M24.1333333,11.66 L4.66666667,0.6625 C3.46666667,-2.77555756e-17 2.53333333,0.1325 1.86666667,0.795 L18.5333333,17.225 L24.1333333,11.66 Z" id="Path" fill="url(#linearGradient-4)"></path>
                    <g transform="translate(0.000000, 22.525000)" fill="#000000" id="Path">
                        <path d="M24,0.1325 L4.66666667,10.9975 C3.6,11.66 2.66666667,11.5275 2,10.9975 L1.86666667,11.13 L2,11.2625 C2.66666667,11.7925 3.6,11.925 4.66666667,11.2625 L24,0.1325 Z" opacity="0.2"></path>
                        <path d="M1.86666667,10.9975 C1.46666667,10.6 1.33333333,9.9375 1.33333333,9.1425 L1.33333333,9.275 C1.33333333,10.07 1.6,10.7325 2,11.13 L2,10.9975 L1.86666667,10.9975 Z" opacity="0.12"></path>
                    </g>
                    <path d="M30.6666667,18.9475 L24,22.6575 L24.1333333,22.79 L30.6666667,19.08 C31.6,18.55 32,17.8875 32,17.225 C32,17.8875 31.4666667,18.4175 30.6666667,18.9475 Z" id="Path" fill="#000000" opacity="0.12"></path>
                    <path d="M4.66666667,0.795 L30.6666667,15.5025 C31.4666667,16.0325 32,16.5625 32,17.225 C32,16.5625 31.6,15.9 30.6666667,15.37 L4.66666667,0.6625 C2.8,-0.3975 1.33333333,0.53 1.33333333,2.65 L1.33333333,2.7825 C1.33333333,0.6625 2.8,-0.265 4.66666667,0.795 Z" id="Path" fill="#FFFFFF" opacity="0.25"></path>
                </g>
            </g>
        </g>
    </g>
</svg>