<?xml version="1.0" encoding="UTF-8"?>
<svg width="20px" height="20px" viewBox="0 0 20 20" version="1.1" xmlns="http://www.w3.org/2000/svg" xmlns:xlink="http://www.w3.org/1999/xlink">
    <!-- Generator: Sketch 52.2 (67145) - http://www.bohemiancoding.com/sketch -->
    <title>noun_Approve_1616314</title>
    <desc>Created with Sketch.</desc>
    <g id="Page-2" stroke="none" stroke-width="1" fill="none" fill-rule="evenodd">
        <g id="journal-admin-copy-2" transform="translate(-45.000000, -179.000000)" fill="#D30101">
            <g id="side-menu-copy-2" transform="translate(45.000000, 179.000000)">
                <g id="journal">
                    <g id="noun_Approve_1616314">
                        <path d="M19.426,2.538 C19.2842934,1.43204123 18.5093847,0.510908664 17.444,0.182 L17.184,0.116 C17.096,0.1 17,0.088 16.92,0.076 C16.84,0.064 16.744,0.066 16.656,0.06 C16.568,0.054 16.506,0.06 16.43,0.06 L14.724,0.074 L11.47,0.112 L10.698,0.124 L10.32,0.13 C10.262,0.13 10.184,0.13 10.11,0.13 C10.0355496,0.133067932 9.96138588,0.141085637 9.888,0.154 C9.31750492,0.239838627 8.78924771,0.505368444 8.38,0.912 C8.00134053,1.28144251 7.74039763,1.75461897 7.63,2.272 C7.60415817,2.39271364 7.58612081,2.51496687 7.576,2.638 C7.576,2.756 7.576,2.89 7.576,2.984 L7.596,3.584 C7.61866667,4.24133333 7.64266667,4.834 7.668,5.362 L7.638,5.362 C7.4212725,5.35976172 7.21003904,5.43017288 7.038,5.562 C6.87373574,5.68595245 6.75436918,5.86008721 6.698,6.058 L6.698,6.074 C6.6933888,6.09173974 6.69004701,6.1097854 6.688,6.128 L6.562,7.158 C6.53988185,7.30174573 6.50644454,7.44351993 6.462,7.582 C6.41479203,7.72405725 6.35868089,7.86299913 6.294,7.998 L5.542,9.698 L5.2,10.46 C5.16003342,10.5655907 5.11188724,10.6679013 5.056,10.766 C5.00236362,10.8547332 4.9407772,10.9384104 4.872,11.016 C4.73747159,11.1622136 4.57755298,11.2828302 4.4,11.372 C4.31756757,11.4139684 4.23197204,11.4494103 4.144,11.478 L4.012,11.514 L3.916,11.536 L3.916,11.43 C3.916,11.352 3.776,11.292 3.622,11.298 C3.468,11.304 3.372,11.36 3.366,11.43 C3.274,12.522 3.204,14.166 3.166,16.084 L3.136,17.57 L3.124,18.344 L3.124,18.744 L3.124,18.862 L2.924,18.862 L2.112,18.862 L1.294,18.862 L1.246,18.862 C1.246,16.706 1.22,14.552 1.174,12.662 L1.156,11.956 L1.146,11.6 L1.146,11.432 L1.146,11.302 C1.146,11.302 1.156,11.302 1.146,11.302 C1.15279805,11.2910809 1.16354253,11.2832017 1.176,11.28 L1.756,11.254 L2.838,11.2 L3.086,11.184 L3.186,11.184 C3.2012823,11.1822308 3.2167177,11.1822308 3.232,11.184 C3.28731017,11.1896341 3.33720007,11.2197148 3.368,11.266 C3.368,11.278 3.41,11.282 3.464,11.29 C3.52990688,11.3026027 3.59690198,11.3086322 3.664,11.308 C3.798,11.308 3.908,11.214 3.878,11.108 C3.81411893,10.8691216 3.63455284,10.6782857 3.4,10.6 C3.34109863,10.5796225 3.2800177,10.5661982 3.218,10.56 L3.08,10.55 L2.832,10.534 L1.74,10.47 L1.44,10.458 L1.286,10.458 L1.208,10.458 L1.102,10.458 C0.901665155,10.467377 0.710201842,10.5433992 0.558,10.674 C0.389258179,10.8185121 0.283149301,11.0228434 0.262,11.244 L0.262,11.32 L0.262,11.444 L0.262,11.612 L0.252,11.954 L0.234,12.66 C0.186,14.578 0.164,16.772 0.162,18.966 C0.162803406,19.2843307 0.31786319,19.5825226 0.578,19.766 C0.697673747,19.8509679 0.834006032,19.9095908 0.978,19.938 C1.04395518,19.9504911 1.11087739,19.9571833 1.178,19.958 L1.28,19.958 L2.098,19.958 L2.91,19.958 L3.11,19.958 C3.22530304,19.9605846 3.34040538,19.9471224 3.452,19.918 C3.73444678,19.8398411 3.96839252,19.6417183 4.092,19.376 C4.12305663,19.306915 4.14588007,19.234417 4.16,19.16 C4.16718425,19.1223517 4.1718612,19.0842679 4.174,19.046 L4.174,18.646 L4.504,18.868 C4.66268614,18.9679571 4.82846038,19.0561918 5,19.132 C5.19193163,19.2251998 5.39300579,19.2982568 5.6,19.35 C5.81996198,19.4054383 6.04526881,19.4369544 6.272,19.444 L6.904,19.464 L8.252,19.498 L8.966,19.514 L9.332,19.514 L9.516,19.514 L9.716,19.514 C10.3727068,19.4955215 10.9882638,19.1899362 11.4,18.678 C11.5056855,18.5462494 11.5956277,18.4026103 11.668,18.25 C11.7050074,18.1732068 11.7377243,18.094419 11.766,18.014 L11.834,17.814 L12.098,17.044 L12.634,15.466 L13.18,13.846 C13.226,13.704 13.27,13.592 13.322,13.392 C13.3701185,13.2111287 13.3963066,13.0251261 13.4,12.838 C13.3995451,12.4563008 13.3032689,12.0808238 13.12,11.746 C12.9371605,11.4093124 12.6749045,11.1223412 12.356,10.91 C12.276,10.86 12.192,10.812 12.108,10.766 C12.024,10.72 11.934,10.686 11.842,10.656 C11.7515667,10.6252869 11.6594081,10.5999099 11.566,10.58 C11.478,10.564 11.366,10.542 11.302,10.536 C10.714,10.466 10.124,10.406 9.528,10.372 C9.378,10.372 9.228,10.356 9.076,10.352 L8.966,10.352 C8.96018566,10.264096 8.96018566,10.175904 8.966,10.088 C8.98092289,9.83582252 9.01840602,9.58548876 9.078,9.34 C9.088,9.294 9.102,9.246 9.114,9.2 C9.3104219,9.31074111 9.52102923,9.3941766 9.74,9.448 C9.92416003,9.49262882 10.1125645,9.51743652 10.302,9.522 L10.834,9.542 L12.928,9.6 C13.074501,9.9874233 13.2802871,10.3497418 13.538,10.674 C13.880897,11.0961107 14.2927019,11.4572007 14.756,11.742 C14.872,11.816 14.994,11.884 15.116,11.942 C15.2457331,12.0089194 15.3900474,12.0425928 15.536,12.04 C15.6869066,12.0362909 15.834041,11.9920815 15.962,11.912 C16.221168,11.7511316 16.3779926,11.4670291 16.376,11.162 C16.3744255,11.0876294 16.3636776,11.0137374 16.344,10.942 L16.312,10.83 C16.294,10.778 16.284,10.724 16.27,10.672 C16.200697,10.3517462 16.192554,10.0212784 16.246,9.698 L16.446,9.698 C16.518,9.698 16.576,9.698 16.668,9.698 C17.0108482,9.69388946 17.3499438,9.62607034 17.668,9.498 C18.6829345,9.08964009 19.3724843,8.13392097 19.44,7.042 C19.452,6.842 19.44,6.726 19.44,6.574 L19.44,6.136 C19.44,5.55066667 19.44,4.96333333 19.44,4.374 L19.44,3.49 C19.4518001,3.17263809 19.4471271,2.85487768 19.426,2.538 Z M9.452,11.466 C10.014,11.502 10.588,11.56 11.16,11.63 C11.242,11.63 11.272,11.65 11.328,11.658 C11.3773745,11.6686002 11.4261173,11.6819544 11.474,11.698 C11.522,11.712 11.566,11.738 11.614,11.754 L11.744,11.828 C11.9105637,11.9414525 12.0476862,12.0929728 12.144,12.27 C12.242974,12.4459867 12.2959422,12.6441017 12.298,12.846 C12.2892103,13.0763971 12.2390799,13.3033386 12.15,13.516 L11.626,15.144 L11.12,16.732 L10.876,17.508 L10.816,17.696 C10.8011058,17.7415753 10.7837469,17.7863078 10.764,17.83 C10.7259442,17.91743 10.6776032,18.0000124 10.62,18.076 C10.3950165,18.3809798 10.0479793,18.5723981 9.67,18.6 L8.24,18.634 L6.892,18.668 L6.262,18.688 C5.92059342,18.6996432 5.58038007,18.6418069 5.262,18.518 C5.10970885,18.4566221 4.96199921,18.3844382 4.82,18.302 L4.16,17.94 L4.16,17.568 L4.13,16.082 C4.092,14.518 4.04,13.136 3.972,12.082 L4.124,12.064 L4.298,12.036 C4.42215023,12.0102831 4.54391392,11.9741554 4.662,11.928 C4.91962877,11.8255455 5.15572175,11.6756128 5.358,11.486 C5.46661059,11.3830204 5.56506395,11.2698326 5.652,11.148 C5.73821739,11.0211161 5.81380767,10.887328 5.878,10.748 L6.26,10.002 L7.094,8.352 C7.17891336,8.19148807 7.25372547,8.02583269 7.318,7.856 C7.38493645,7.67381982 7.4371048,7.48654881 7.474,7.296 L7.626,6.342 C7.77960497,6.37873744 7.92395823,6.4468286 8.05,6.542 C8.18601829,6.64988741 8.28865496,6.79413354 8.346,6.958 C8.40940043,7.15126735 8.43320755,7.35532838 8.416,7.558 C8.39305101,7.79335259 8.34408537,8.0254363 8.27,8.25 L8.244,8.338 L8.21,8.444 C8.186,8.514 8.164,8.584 8.142,8.656 C8.098,8.798 8.058,8.944 8.022,9.094 C7.94336602,9.40208831 7.8931557,9.71673963 7.872,10.034 C7.8615008,10.2101239 7.86685569,10.386835 7.888,10.562 C7.888,10.61 7.902,10.656 7.912,10.706 L7.912,10.742 L7.93,10.808 C8.04285744,11.1746165 8.37657169,11.4287218 8.76,11.44 L8.83,11.44 L9.03,11.44 C9.172,11.45 9.312,11.456 9.452,11.466 Z M18.352,6.98 C18.3420047,7.20099006 18.2904375,7.41811496 18.2,7.62 C18.0148172,8.0220205 17.6880014,8.3417161 17.282,8.518 C17.0832774,8.60357115 16.870252,8.65106089 16.654,8.658 C16.608,8.658 16.528,8.658 16.454,8.658 L16.254,8.658 L15.842,8.658 C15.6136379,8.66097035 15.4150912,8.8153956 15.356,9.036 C15.1849233,9.64473105 15.1725299,10.2871234 15.32,10.902 L15.334,10.95 L15.268,10.914 C14.520169,10.5099824 13.946061,9.84623672 13.654,9.048 L13.654,9.03 C13.5989691,8.85747061 13.4348907,8.74343609 13.254,8.752 L10.84,8.82 L10.308,8.84 C10.1623668,8.84853901 10.0162399,8.84183594 9.872,8.82 C9.66339833,8.78909966 9.46093647,8.72566161 9.272,8.632 L9.294,8.554 C9.38787712,8.24838134 9.44626141,7.93297196 9.468,7.614 C9.48824617,7.26715461 9.4364943,6.9198723 9.316,6.594 C9.1836629,6.25237773 8.95682584,5.95547784 8.662,5.738 C8.52976153,5.64341499 8.38676062,5.5648652 8.236,5.504 C8.264,4.942 8.292,4.304 8.316,3.578 L8.336,2.978 C8.336,2.868 8.35,2.796 8.354,2.704 C8.36441687,2.6198366 8.37977675,2.53635902 8.4,2.454 C8.49710192,2.09764793 8.69585712,1.77727677 8.972,1.532 C9.25805423,1.27382585 9.61730163,1.11097635 10,1.066 C10.0492589,1.06216753 10.0987411,1.06216753 10.148,1.066 C10.198,1.066 10.244,1.066 10.312,1.066 L10.69,1.066 L11.462,1.078 L14.716,1.118 L16.42,1.132 C16.488,1.132 16.574,1.132 16.62,1.132 C16.666,1.132 16.732,1.132 16.786,1.144 L16.95,1.172 L17.11,1.214 C17.7650486,1.42540773 18.2384065,1.99702438 18.324,2.68 C18.348,2.88 18.336,3.208 18.338,3.494 L18.338,4.378 C18.338,4.96733333 18.338,5.55466667 18.338,6.14 L18.338,6.578 C18.356,6.712 18.362,6.884 18.352,6.98 Z" id="Shape" fill-rule="nonzero"></path>
                        <path d="M14.8,3.564 C14.276,3.8 13.4,4.546 12.67,5.31 C12.4250357,5.10536863 12.1564588,4.93079361 11.87,4.79 C11.7829847,4.83796426 11.7056659,4.90171841 11.642,4.978 C11.5761557,5.03361542 11.5218053,5.10155339 11.482,5.178 C11.7142007,5.62354059 12.0069815,6.03477977 12.352,6.4 C12.437124,6.49682103 12.5572296,6.55585305 12.6858854,6.56410503 C12.8145412,6.572357 12.9412042,6.52915271 13.038,6.444 L13.09,6.4 C13.962,5.638 14.924,4.556 15.186,3.944 C15.1386484,3.8582939 15.0755436,3.78229667 15,3.72 C14.9443712,3.65521686 14.8763777,3.60218196 14.8,3.564 Z" id="Path"></path>
                    </g>
                </g>
            </g>
        </g>
    </g>
</svg>