<?xml version="1.0" encoding="UTF-8"?>
<svg width="15px" height="13px" viewBox="0 0 15 13" version="1.1" xmlns="http://www.w3.org/2000/svg" xmlns:xlink="http://www.w3.org/1999/xlink">
    <!-- Generator: Sketch 51.3 (57544) - http://www.bohemiancoding.com/sketch -->
    <title>Group</title>
    <desc>Created with Sketch.</desc>
    <defs></defs>
    <g id="Web_-user" stroke="none" stroke-width="1" fill="none" fill-rule="evenodd">
        <g id="4.2" transform="translate(-276.000000, -104.000000)" fill="#D30101" stroke="#D30101" stroke-width="0.5">
            <g id="Group" transform="translate(283.500000, 110.500000) scale(-1, 1) rotate(360.000000) translate(-283.500000, -110.500000) translate(277.000000, 105.000000)">
                <path d="M11.3372339,5.00169757 L7.29367788,0.853887369 C7.10352673,0.65848446 7.10352673,0.341705001 7.29367788,0.146302092 C7.48415407,-0.0487673641 7.79294653,-0.0487673641 7.98342272,0.146302092 C7.98342272,0.146302092 11.6934829,3.95265739 12.8571429,5.14641577 C13.047619,5.34148523 13.047619,5.65826469 12.8571429,5.85366759 C11.74549,6.99407365 8.15569641,10.6767182 7.98342272,10.8534478 C7.79294653,11.0488507 7.48415407,11.0488507 7.29367788,10.8534478 C7.10352673,10.6580449 7.10352673,10.3415989 7.29367788,10.146196 L11.3333333,6.00205376 L0.48756704,6.00205376 C0.358199252,6.00205376 0.234357224,5.94936834 0.142694621,5.85566831 C0.0513570616,5.76163482 0,5.63458959 0,5.50187567 C0,5.36916175 0.0513570616,5.24211651 0.142694621,5.14808303 C0.234357224,5.054383 0.358199252,5.00169757 0.48756704,5.00169757 L11.3372339,5.00169757 Z" id="Shape"></path>
            </g>
        </g>
    </g>
</svg>