<?xml version="1.0" encoding="UTF-8"?>
<svg width="14px" height="20px" viewBox="0 0 14 20" version="1.1" xmlns="http://www.w3.org/2000/svg" xmlns:xlink="http://www.w3.org/1999/xlink">
    <!-- Generator: Sketch 52.2 (67145) - http://www.bohemiancoding.com/sketch -->
    <title>bible</title>
    <desc>Created with Sketch.</desc>
    <g id="Page-1" stroke="none" stroke-width="1" fill="none" fill-rule="evenodd">
        <g id="journal-copy-2" transform="translate(-46.000000, -179.000000)">
            <g id="side-menu-copy-2" transform="translate(46.000000, 179.000000)">
                <g id="journal">
                    <g id="bible">
                        <path d="M5.14733333,8.32 L6.5359,8.32 C6.6703,8.32 6.77926667,8.42263736 6.77926667,8.54923077 L6.77926667,12.9745055 L7.2212,12.9745055 L7.2212,8.54923077 C7.2212,8.42263736 7.33016667,8.32 7.46456667,8.32 L8.85313333,8.32 L8.85313333,7.90373626 L7.46433333,7.90373626 C7.32993333,7.90373626 7.22096667,7.8010989 7.22096667,7.67450549 L7.22096667,5.75340659 L6.77903333,5.75340659 L6.77903333,7.67450549 C6.77903333,7.8010989 6.67006667,7.90373626 6.53566667,7.90373626 L5.14733333,7.90373626 L5.14733333,8.32 Z" id="Path"></path>
                        <path d="M2.34126667,19.1384615 L3.29396667,18.5797802 C3.3334,18.5567033 3.37796667,18.5450549 3.42253333,18.5450549 C3.4671,18.5450549 3.51166667,18.5564835 3.5511,18.5797802 L4.5038,19.1384615 L4.5038,16.6738462 L2.34126667,16.6738462 L2.34126667,19.1384615 Z" id="Path"></path>
                        <path d="M0.494433333,16.2156044 L0.962733333,16.2156044 L0.962733333,4.41384615 C0.962733333,4.28725275 1.0717,4.18461538 1.2061,4.18461538 C1.3405,4.18461538 1.44946667,4.28725275 1.44946667,4.41384615 L1.44946667,16.2156044 L2.09813333,16.2156044 L4.74716667,16.2156044 L13.5055667,16.2156044 L13.5055667,0.458241758 L0.494433333,0.458241758 L0.494433333,16.2156044 Z M10.7107,4.51956044 C10.7471,4.64153846 10.6717333,4.76791209 10.5424667,4.8021978 L8.64733333,5.30505495 C8.6254,5.31098901 8.603,5.31362637 8.5813,5.31362637 C8.47513333,5.31362637 8.3776,5.24769231 8.34726667,5.14659341 C8.31086667,5.02461538 8.38623333,4.89824176 8.5155,4.86395604 L10.4106333,4.3610989 C10.5399,4.32659341 10.6743,4.3978022 10.7107,4.51956044 Z M8.74486667,3.14263736 L8.9894,2.84835165 C9.07223333,2.74879121 9.22506667,2.73142857 9.331,2.80923077 C9.4367,2.88725275 9.45536667,3.03120879 9.37253333,3.13098901 L9.128,3.42527473 C9.07993333,3.48307692 9.00853333,3.51318681 8.9362,3.51318681 C8.8837,3.51318681 8.83096667,3.49714286 8.7864,3.4643956 C8.6807,3.38615385 8.66203333,3.2421978 8.74486667,3.14263736 Z M7.7196,4.37604396 L8.29803333,3.68021978 C8.38086667,3.58043956 8.53393333,3.56307692 8.63963333,3.6410989 C8.74533333,3.71912088 8.764,3.86307692 8.68116667,3.96285714 L8.10273333,4.65868132 C8.05466667,4.71648352 7.98326667,4.74659341 7.91093333,4.74659341 C7.85843333,4.74659341 7.8057,4.73054945 7.76113333,4.6978022 C7.65543333,4.61956044 7.63676667,4.4756044 7.7196,4.37604396 Z M6.75663333,1.73604396 C6.75663333,1.60945055 6.8656,1.50681319 7,1.50681319 C7.1344,1.50681319 7.24336667,1.60945055 7.24336667,1.73604396 L7.24336667,2.6978022 C7.24336667,2.8243956 7.1344,2.92703297 7,2.92703297 C6.8656,2.92703297 6.75663333,2.8243956 6.75663333,2.6978022 L6.75663333,1.73604396 Z M6.75663333,3.42087912 C6.75663333,3.29428571 6.8656,3.19164835 7,3.19164835 C7.1344,3.19164835 7.24336667,3.29428571 7.24336667,3.42087912 L7.24336667,4.4567033 C7.24336667,4.5832967 7.1344,4.68593407 7,4.68593407 C6.8656,4.68593407 6.75663333,4.5832967 6.75663333,4.4567033 L6.75663333,3.42087912 Z M6.5359,5.29516484 L7.46433333,5.29516484 C7.59873333,5.29516484 7.7077,5.3978022 7.7077,5.5243956 L7.7077,7.44549451 L9.09626667,7.44549451 C9.23066667,7.44549451 9.33963333,7.54813187 9.33963333,7.67472527 L9.33963333,8.54923077 C9.33963333,8.67582418 9.23066667,8.77846154 9.09626667,8.77846154 L7.7077,8.77846154 L7.7077,13.2037363 C7.7077,13.3303297 7.59873333,13.432967 7.46433333,13.432967 L6.5359,13.432967 C6.4015,13.432967 6.29253333,13.3303297 6.29253333,13.2037363 L6.29253333,8.77824176 L4.90396667,8.77824176 C4.76956667,8.77824176 4.6606,8.6756044 4.6606,8.54901099 L4.6606,7.67450549 C4.6606,7.54791209 4.76956667,7.44527473 4.90396667,7.44527473 L6.29253333,7.44527473 L6.29253333,5.52417582 C6.29253333,5.3978022 6.4015,5.29516484 6.5359,5.29516484 Z M5.04956667,4.98901099 C5.08596667,4.86703297 5.22106667,4.79648352 5.34963333,4.83032967 L5.58483333,4.89274725 C5.71433333,4.92703297 5.78946667,5.05362637 5.75306667,5.17538462 C5.72296667,5.27648352 5.6252,5.34241758 5.51903333,5.34241758 C5.4971,5.34241758 5.47493333,5.33978022 5.453,5.33384615 L5.2178,5.27142857 C5.08853333,5.23736264 5.01316667,5.11076923 5.04956667,4.98901099 Z M4.66106667,2.80923077 C4.76676667,2.73142857 4.91983333,2.74857143 5.00266667,2.84835165 L6.27246667,4.37604396 C6.3553,4.4756044 6.33663333,4.61978022 6.23093333,4.6978022 C6.18636667,4.73054945 6.13363333,4.74659341 6.08113333,4.74659341 C6.0088,4.74659341 5.9374,4.71648352 5.88933333,4.65868132 L4.61953333,3.13120879 C4.5367,3.03120879 4.55536667,2.88725275 4.66106667,2.80923077 Z M3.2816,4.51956044 C3.318,4.3978022 3.45286667,4.32659341 3.58166667,4.36131868 L4.64146667,4.64263736 C4.77073333,4.67692308 4.8461,4.80351648 4.8097,4.92527473 C4.77936667,5.02637363 4.68183333,5.09230769 4.57566667,5.09230769 C4.55373333,5.09230769 4.53156667,5.08967033 4.50963333,5.08373626 L3.44983333,4.80241758 C3.32033333,4.76813187 3.24496667,4.64153846 3.2816,4.51956044 Z M0.962733333,1.03846154 C0.962733333,0.911868132 1.0717,0.809230769 1.2061,0.809230769 C1.3405,0.809230769 1.44946667,0.911868132 1.44946667,1.03846154 L1.44946667,3.45912088 C1.44946667,3.58571429 1.3405,3.68835165 1.2061,3.68835165 C1.0717,3.68835165 0.962733333,3.58571429 0.962733333,3.45912088 L0.962733333,1.03846154 Z" id="Shape"></path>
                        <path d="M13.7489333,0 L0.251066667,0 C0.116666667,0 0.0077,0.102637363 0.0077,0.229230769 L0.0077,16.4448352 C0.0077,16.5714286 0.116666667,16.6740659 0.251066667,16.6740659 L1.85453333,16.6740659 L1.85453333,19.5512088 C1.85453333,19.6345055 1.90236667,19.7112088 1.9796,19.7516484 C2.05706667,19.7920879 2.15133333,19.7898901 2.22623333,19.7459341 L3.4223,19.0448352 L4.61836667,19.7459341 C4.6578,19.7685714 4.70236667,19.7802198 4.74716667,19.7802198 C4.78776667,19.7802198 4.8286,19.7707692 4.86523333,19.7514286 C4.94246667,19.710989 4.9903,19.6342857 4.9903,19.550989 L4.9903,16.6738462 L13.7487,16.6738462 C13.8831,16.6738462 13.9920667,16.5712088 13.9920667,16.4446154 L13.9920667,0.229230769 C13.9920667,0.102637363 13.8833333,0 13.7489333,0 Z M4.5038,19.1384615 L3.5511,18.5797802 C3.51166667,18.5567033 3.4671,18.5450549 3.42253333,18.5450549 C3.37796667,18.5450549 3.3334,18.5564835 3.29396667,18.5797802 L2.34126667,19.1384615 L2.34126667,16.6738462 L4.5038,16.6738462 L4.5038,19.1384615 Z M13.5055667,16.2156044 L4.74716667,16.2156044 L2.0979,16.2156044 L1.44923333,16.2156044 L1.44923333,4.41384615 C1.44923333,4.28725275 1.34026667,4.18461538 1.20586667,4.18461538 C1.07146667,4.18461538 0.9625,4.28725275 0.9625,4.41384615 L0.9625,16.2156044 L0.4942,16.2156044 L0.4942,0.458241758 L13.5053333,0.458241758 L13.5053333,16.2156044 L13.5055667,16.2156044 Z" id="Shape" fill="#555555" fill-rule="nonzero"></path>
                        <path d="M1.20586667,3.68813187 C1.34026667,3.68813187 1.44923333,3.58549451 1.44923333,3.4589011 L1.44923333,1.03846154 C1.44923333,0.911868132 1.34026667,0.809230769 1.20586667,0.809230769 C1.07146667,0.809230769 0.9625,0.911868132 0.9625,1.03846154 L0.9625,3.45912088 C0.962733333,3.58549451 1.07146667,3.68813187 1.20586667,3.68813187 Z" id="Path" fill="#555555"></path>
                        <path d="M8.34703333,5.14703297 C8.37736667,5.24813187 8.4749,5.31406593 8.58106667,5.31406593 C8.603,5.31406593 8.62516667,5.31142857 8.6471,5.30549451 L10.5422333,4.80263736 C10.6715,4.76835165 10.7468667,4.64175824 10.7104667,4.52 C10.6740667,4.39824176 10.5396667,4.32703297 10.4104,4.36175824 L8.51526667,4.86461538 C8.386,4.89868132 8.31063333,5.02505495 8.34703333,5.14703297 Z" id="Path" fill="#555555"></path>
                        <path d="M6.99976667,2.92703297 C7.13416667,2.92703297 7.24313333,2.8243956 7.24313333,2.6978022 L7.24313333,1.73604396 C7.24313333,1.60945055 7.13416667,1.50681319 6.99976667,1.50681319 C6.86536667,1.50681319 6.7564,1.60945055 6.7564,1.73604396 L6.7564,2.6978022 C6.75663333,2.82461538 6.86536667,2.92703297 6.99976667,2.92703297 Z" id="Path" fill="#555555"></path>
                        <path d="M6.99976667,4.68593407 C7.13416667,4.68593407 7.24313333,4.5832967 7.24313333,4.4567033 L7.24313333,3.42087912 C7.24313333,3.29428571 7.13416667,3.19164835 6.99976667,3.19164835 C6.86536667,3.19164835 6.7564,3.29428571 6.7564,3.42087912 L6.7564,4.4567033 C6.75663333,4.5832967 6.86536667,4.68593407 6.99976667,4.68593407 Z" id="Path" fill="#555555"></path>
                        <path d="M8.9362,3.51296703 C9.00853333,3.51296703 9.07993333,3.48285714 9.128,3.42505495 L9.37253333,3.13076923 C9.45536667,3.03120879 9.4367,2.88703297 9.331,2.80901099 C9.2253,2.73120879 9.07223333,2.74835165 8.9894,2.84813187 L8.74486667,3.14241758 C8.66203333,3.24197802 8.68046667,3.38615385 8.7864,3.46417582 C8.83096667,3.49714286 8.8837,3.51296703 8.9362,3.51296703 Z" id="Path" fill="#555555"></path>
                        <path d="M7.91093333,4.74637363 C7.98326667,4.74637363 8.05466667,4.71626374 8.10273333,4.65846154 L8.68116667,3.96263736 C8.764,3.86307692 8.74533333,3.7189011 8.63963333,3.64087912 C8.53393333,3.56285714 8.38086667,3.58021978 8.29803333,3.68 L7.7196,4.37582418 C7.63676667,4.47538462 7.65543333,4.61956044 7.76113333,4.69758242 C7.8057,4.73032967 7.85843333,4.74637363 7.91093333,4.74637363 Z" id="Path" fill="#555555"></path>
                        <path d="M3.4496,4.80241758 L4.5094,5.08373626 C4.53156667,5.08967033 4.55373333,5.09230769 4.57543333,5.09230769 C4.6816,5.09230769 4.77913333,5.02637363 4.80946667,4.92527473 C4.84586667,4.8032967 4.7705,4.67692308 4.64123333,4.64263736 L3.58143333,4.36131868 C3.45263333,4.32659341 3.31776667,4.3978022 3.28136667,4.51956044 C3.24496667,4.64153846 3.32033333,4.76813187 3.4496,4.80241758 Z" id="Path" fill="#555555"></path>
                        <path d="M5.45323333,5.33406593 C5.47516667,5.33978022 5.49733333,5.34263736 5.51926667,5.34263736 C5.62543333,5.34263736 5.7232,5.2767033 5.7533,5.1756044 C5.7897,5.05384615 5.71433333,4.92725275 5.58506667,4.89296703 L5.34986667,4.83054945 C5.2213,4.79648352 5.0862,4.86725275 5.0498,4.98923077 C5.0134,5.11098901 5.08876667,5.23758242 5.21803333,5.27186813 L5.45323333,5.33406593 Z" id="Path" fill="#555555"></path>
                        <path d="M5.88933333,4.65846154 C5.9374,4.71626374 6.0088,4.74637363 6.08113333,4.74637363 C6.13363333,4.74637363 6.18636667,4.73032967 6.23093333,4.69758242 C6.33663333,4.61956044 6.3553,4.4756044 6.27246667,4.37582418 L5.00266667,2.84835165 C4.91983333,2.74879121 4.76676667,2.73142857 4.66106667,2.80923077 C4.55536667,2.88725275 4.5367,3.03120879 4.61953333,3.13098901 L5.88933333,4.65846154 Z" id="Path" fill="#555555"></path>
                        <path d="M6.29253333,7.44549451 L4.90396667,7.44549451 C4.76956667,7.44549451 4.6606,7.54813187 4.6606,7.67472527 L4.6606,8.54923077 C4.6606,8.67582418 4.76956667,8.77846154 4.90396667,8.77846154 L6.29253333,8.77846154 L6.29253333,13.2037363 C6.29253333,13.3303297 6.4015,13.432967 6.5359,13.432967 L7.46433333,13.432967 C7.59873333,13.432967 7.7077,13.3303297 7.7077,13.2037363 L7.7077,8.77824176 L9.09626667,8.77824176 C9.23066667,8.77824176 9.33963333,8.6756044 9.33963333,8.54901099 L9.33963333,7.67450549 C9.33963333,7.54791209 9.23066667,7.44527473 9.09626667,7.44527473 L7.7077,7.44527473 L7.7077,5.52417582 C7.7077,5.39758242 7.59873333,5.29494505 7.46433333,5.29494505 L6.5359,5.29494505 C6.4015,5.29494505 6.29253333,5.39758242 6.29253333,5.52417582 L6.29253333,7.44549451 Z M6.5359,7.90373626 C6.6703,7.90373626 6.77926667,7.8010989 6.77926667,7.67450549 L6.77926667,5.75340659 L7.2212,5.75340659 L7.2212,7.67450549 C7.2212,7.8010989 7.33016667,7.90373626 7.46456667,7.90373626 L8.85313333,7.90373626 L8.85313333,8.32 L7.46433333,8.32 C7.32993333,8.32 7.22096667,8.42263736 7.22096667,8.54923077 L7.22096667,12.9745055 L6.77903333,12.9745055 L6.77903333,8.54923077 C6.77903333,8.42263736 6.67006667,8.32 6.53566667,8.32 L5.14733333,8.32 L5.14733333,7.90373626 L6.5359,7.90373626 Z" id="Shape" fill="#555555" fill-rule="nonzero"></path>
                    </g>
                </g>
            </g>
        </g>
    </g>
</svg>