<?xml version="1.0" encoding="UTF-8"?>
<svg width="20px" height="22px" viewBox="0 0 20 22" version="1.1" xmlns="http://www.w3.org/2000/svg" xmlns:xlink="http://www.w3.org/1999/xlink">
    <!-- Generator: Sketch 52.5 (67469) - http://www.bohemiancoding.com/sketch -->
    <title>Group</title>
    <desc>Created with Sketch.</desc>
    <g id="Page-1" stroke="none" stroke-width="1" fill="none" fill-rule="evenodd">
        <g id="bulletin-member-copy" transform="translate(-115.000000, -661.000000)" fill="#555555">
            <g id="Group" transform="translate(115.000000, 661.000000)">
                <path d="M8.73333333,9.548 C8.73333333,9.548 8.73333333,9.548 8.73333333,9.548 C8.73333333,9.548 8.75555556,9.548 8.73333333,9.548 Z" id="Path"></path>
                <path d="M8.73333333,9.548 C6.51111111,8.954 4.51111111,7.788 2.91111111,6.226 L2.84444444,6.16 C1.15555556,7.92 0.133333333,10.296 0.133333333,12.892 C0.133333333,16.94 2.62222222,20.416 6.15555556,21.89 L6.13333333,21.89 C8.13333333,19.624 9.33333333,16.676 9.33333333,13.442 C9.35555556,12.078 9.13333333,10.78 8.73333333,9.548 Z" id="Path"></path>
                <path d="M11.2444444,9.548 C11.2444444,9.548 11.2666667,9.548 11.2444444,9.548 C11.2666667,9.548 11.2666667,9.548 11.2444444,9.548 Z" id="Path"></path>
                <path d="M17.1555556,6.16 L17.0888889,6.248 C15.5111111,7.81 13.5111111,8.976 11.2666667,9.57 C10.8666667,10.802 10.6666667,12.1 10.6666667,13.464 C10.6666667,16.698 11.8666667,19.646 13.8666667,21.912 L13.8444444,21.912 C17.3777778,20.416 19.8666667,16.94 19.8666667,12.892 C19.8666667,10.274 18.8222222,7.898 17.1555556,6.16 Z" id="Path"></path>
                <path d="M15.2222222,4.598 C14.4888889,4.136 13.6888889,3.784 12.8222222,3.52 L14.7555556,1.122 C14.9777778,0.858 14.9333333,0.462 14.6444444,0.242 C14.3777778,0.022 13.9777778,0.066 13.7555556,0.352 L11.4666667,3.234 C11,3.168 10.5111111,3.124 10,3.124 C9.51111111,3.124 9.02222222,3.168 8.53333333,3.234 L6.24444444,0.352 C6.02222222,0.088 5.64444444,0.044 5.35555556,0.242 C5.08888889,0.462 5.04444444,0.836 5.24444444,1.122 L7.17777778,3.52 C6.33333333,3.762 5.51111111,4.136 4.77777778,4.598 C5.93333333,6.226 7.84444444,7.282 10,7.282 C12.1555556,7.282 14.0666667,6.226 15.2222222,4.598 Z" id="Path"></path>
            </g>
        </g>
    </g>
</svg>