<?xml version="1.0" encoding="UTF-8"?>
<svg width="60px" height="66px" viewBox="0 0 60 66" version="1.1" xmlns="http://www.w3.org/2000/svg" xmlns:xlink="http://www.w3.org/1999/xlink">
    <!-- Generator: Sketch 52.5 (67469) - http://www.bohemiancoding.com/sketch -->
    <title>Group</title>
    <desc>Created with Sketch.</desc>
    <g id="Page-1" stroke="none" stroke-width="1" fill="none" fill-rule="evenodd">
        <g id="bulletin-member-copy-8" transform="translate(-641.000000, -223.000000)" fill="#B1B1B1">
            <g id="card-personal-details-copy" transform="translate(260.000000, 90.000000)">
                <g id="Group" transform="translate(381.000000, 133.000000)">
                    <path d="M26.2,28.644 C26.2,28.644 26.2,28.644 26.2,28.644 C26.2,28.644 26.2666667,28.644 26.2,28.644 Z" id="Path"></path>
                    <path d="M26.2,28.644 C19.5333333,26.862 13.5333333,23.364 8.73333333,18.678 L8.53333333,18.48 C3.46666667,23.76 0.4,30.888 0.4,38.676 C0.4,50.82 7.86666667,61.248 18.4666667,65.67 L18.4,65.67 C24.4,58.872 28,50.028 28,40.326 C28.0666667,36.234 27.4,32.34 26.2,28.644 Z" id="Path"></path>
                    <path d="M33.7333333,28.644 C33.7333333,28.644 33.8,28.644 33.7333333,28.644 C33.8,28.644 33.8,28.644 33.7333333,28.644 Z" id="Path"></path>
                    <path d="M51.4666667,18.48 L51.2666667,18.744 C46.5333333,23.43 40.5333333,26.928 33.8,28.71 C32.6,32.406 32,36.3 32,40.392 C32,50.094 35.6,58.938 41.6,65.736 L41.5333333,65.736 C52.1333333,61.248 59.6,50.82 59.6,38.676 C59.6,30.822 56.4666667,23.694 51.4666667,18.48 Z" id="Path"></path>
                    <path d="M45.6666667,13.794 C43.4666667,12.408 41.0666667,11.352 38.4666667,10.56 L44.2666667,3.366 C44.9333333,2.574 44.8,1.386 43.9333333,0.726 C43.1333333,0.066 41.9333333,0.198 41.2666667,1.056 L34.4,9.702 C33,9.504 31.5333333,9.372 30,9.372 C28.5333333,9.372 27.0666667,9.504 25.6,9.702 L18.7333333,1.056 C18.0666667,0.264 16.9333333,0.132 16.0666667,0.726 C15.2666667,1.386 15.1333333,2.508 15.7333333,3.366 L21.5333333,10.56 C19,11.286 16.5333333,12.408 14.3333333,13.794 C17.8,18.678 23.5333333,21.846 30,21.846 C36.4666667,21.846 42.2,18.678 45.6666667,13.794 Z" id="Path"></path>
                </g>
            </g>
        </g>
    </g>
</svg>