<?xml version="1.0" encoding="UTF-8"?>
<svg width="22px" height="22px" viewBox="0 0 22 22" version="1.1" xmlns="http://www.w3.org/2000/svg" xmlns:xlink="http://www.w3.org/1999/xlink">
    <!-- Generator: Sketch 52.2 (67145) - http://www.bohemiancoding.com/sketch -->
    <title>bulletin</title>
    <desc>Created with Sketch.</desc>
    <g id="Page-1" stroke="none" stroke-width="1" fill="none" fill-rule="evenodd">
        <g id="profile-copy" transform="translate(-41.000000, -79.000000)" stroke="#555555">
            <g id="side-menu" transform="translate(42.000000, 80.000000)">
                <g id="bulletin">
                    <g>
                        <rect id="Rectangle" stroke-width="0.6" x="-0.3" y="-0.3" width="20.6" height="20.6" rx="1"></rect>
                        <path d="M1.39997438,1.600874 L1.39997438,5.600668 C1.39998526,5.71111481 1.48940504,5.80064696 1.59971338,5.800658 L5.5944934,5.800658 C5.70480174,5.80064696 5.79422152,5.71111481 5.7942324,5.600668 L5.7942324,1.600874 C5.79422152,1.49042719 5.70480174,1.40089504 5.5944934,1.400884 L1.59971338,1.400884 C1.58725724,1.39970972 1.57471846,1.39970972 1.56226232,1.400884 C1.4667706,1.41912739 1.3982612,1.5035526 1.39997438,1.600874 Z M1.79945238,1.800864 L5.3947544,1.800864 L5.3947544,5.400678 L1.79945238,5.400678 L1.79945238,1.800864 Z M7.1549542,2.200844 C7.04487691,2.21147289 6.9641502,2.30928888 6.97447263,2.41953225 C6.98479507,2.52977562 7.08227314,2.61086382 7.1924054,2.600822 L18.3777892,2.600822 C18.449834,2.6018604 18.5168545,2.56397145 18.5531796,2.5016678 C18.5895047,2.43936414 18.5895047,2.36230186 18.5531796,2.2999982 C18.5168545,2.23769455 18.449834,2.1998056 18.3777892,2.200844 L7.1924054,2.200844 C7.17994921,2.19966971 7.16741039,2.19966971 7.1549542,2.200844 Z M7.1549542,4.60072 C7.08359423,4.60741841 7.02122398,4.65172587 6.99133771,4.7169522 C6.96145145,4.78217853 6.9685896,4.85841429 7.01006331,4.9169422 C7.05153702,4.97547012 7.12104543,5.00739841 7.1924054,5.0007 L18.3777892,5.0007 C18.4498176,5.0017128 18.5168118,4.96381798 18.5531212,4.90152455 C18.5894306,4.83923112 18.5894306,4.76218888 18.5531212,4.69989545 C18.5168118,4.63760202 18.4498176,4.5997072 18.3777892,4.60072 L7.1924054,4.60072 C7.17994921,4.59954571 7.16741039,4.59954571 7.1549542,4.60072 Z M1.56226232,7.000596 C1.4667706,7.01883939 1.3982612,7.1032646 1.39997438,7.200586 L1.39997438,12.800304 C1.39999077,12.9107469 1.48940894,13.000273 1.59971338,13.000284 L10.7877074,13.000284 C10.8980118,13.000273 10.98743,12.9107469 10.9874464,12.800304 L10.9874464,7.200586 C10.9874355,7.09013919 10.8980157,7.00060704 10.7877074,7.000596 L1.59971338,7.000596 C1.58725724,6.99942172 1.57471846,6.99942172 1.56226232,7.000596 Z M12.7476462,7.000596 C12.6521545,7.01883936 12.583645,7.10326458 12.5853582,7.200586 L12.5853582,12.800304 C12.5853746,12.9107469 12.6747928,13.000273 12.7850972,13.000284 L18.3777892,13.000284 C18.4880936,13.000273 18.5775118,12.9107469 18.5775282,12.800304 L18.5775282,7.200586 C18.5775173,7.09013919 18.4880975,7.00060704 18.3777892,7.000596 L12.7850972,7.000596 C12.7726411,6.99942172 12.7601023,6.99942172 12.7476462,7.000596 Z M1.79945238,7.400576 L10.5879684,7.400576 L10.5879684,12.600304 L1.79945238,12.600304 L1.79945238,7.400576 Z M12.9848362,7.400576 L18.1780502,7.400576 L18.1780502,12.600304 L12.9848362,12.600304 L12.9848362,7.400576 Z M14.3830092,14.200224 C14.272697,14.200235 14.1832756,14.2897733 14.1832702,14.400224 L14.1832702,18.400024 C14.1832866,18.5104669 14.2727048,18.599993 14.3830092,18.600004 L18.3777892,18.600004 C18.4880936,18.599993 18.5775118,18.5104669 18.5775282,18.400024 L18.5775282,14.400224 C18.5775228,14.2897733 18.4881014,14.200235 18.3777892,14.200224 L14.3830092,14.200224 Z M14.5827482,14.600204 L18.1780502,14.600204 L18.1780502,18.200024 L14.5827482,18.200024 L14.5827482,14.600204 Z M1.56226232,15.000184 C1.45194936,15.0105388 1.37090675,15.1084716 1.38124857,15.218923 C1.3915904,15.3293745 1.48940042,15.4105188 1.59971338,15.400164 L12.7850972,15.400164 C12.8571256,15.4011768 12.9241198,15.363282 12.9604292,15.3009885 C12.9967386,15.2386951 12.9967386,15.1616529 12.9604292,15.0993595 C12.9241198,15.037066 12.8571256,14.9991712 12.7850972,15.000184 L1.59971338,15.000184 C1.58725724,14.9990097 1.57471846,14.9990097 1.56226232,15.000184 Z M1.56226232,17.400064 C1.45194939,17.4104188 1.37090681,17.5083516 1.38124863,17.618803 C1.39159046,17.7292544 1.48940044,17.8103988 1.59971338,17.800044 L12.7850972,17.800044 C12.8571256,17.8010568 12.9241198,17.763162 12.9604292,17.7008685 C12.9967386,17.6385751 12.9967386,17.5615329 12.9604292,17.4992395 C12.9241198,17.436946 12.8571256,17.3990512 12.7850972,17.400064 L1.59971338,17.400064 C1.58725724,17.3988897 1.57471846,17.3988897 1.56226232,17.400064 Z" id="Shape" stroke-width="0.3" fill="#D30101" fill-rule="nonzero"></path>
                    </g>
                </g>
            </g>
        </g>
    </g>
</svg>