<?xml version="1.0" encoding="UTF-8"?>
<svg width="20px" height="20px" viewBox="0 0 20 20" version="1.1" xmlns="http://www.w3.org/2000/svg" xmlns:xlink="http://www.w3.org/1999/xlink">
    <!-- Generator: Sketch 51.3 (57544) - http://www.bohemiancoding.com/sketch -->
    <title>noun_calender_1012258 (1) copy</title>
    <desc>Created with Sketch.</desc>
    <defs></defs>
    <g id="Web_-user" stroke="none" stroke-width="1" fill="none" fill-rule="evenodd">
        <g id="5.2" transform="translate(-1037.000000, -616.000000)" fill="#979797">
            <g id="noun_calender_1012258-(1)-copy" transform="translate(1037.000000, 616.000000)">
                <g id="Group">
                    <path d="M5.46511467,0.0781258427 C5.23612851,0.103551109 5.0643065,0.30169014 5.06928156,0.534586517 L5.06928156,1.84778876 L2.70817044,1.84778876 C1.34568822,1.84778876 0.222059289,2.98144944 0.222059289,4.36183371 L0.222059289,7.00228315 L0.222059289,7.05846292 C0.221607005,7.07016257 0.221607005,7.08187563 0.222059289,7.09357528 L0.222059289,17.346382 C0.222059289,18.726764 1.34509711,19.860427 2.70817044,19.860427 L17.2984482,19.860427 C18.6615193,19.860427 19.7776149,18.726764 19.7776149,17.346382 L19.7776149,7.12166517 C19.7779043,7.11230416 19.7779043,7.10293629 19.7776149,7.09357528 C19.7785017,7.07720178 19.7785017,7.06079148 19.7776149,7.04441798 L19.7776149,4.36183371 C19.7776149,2.98144944 18.6609282,1.84778876 17.2984482,1.84778876 L14.8609482,1.84778876 L14.8609482,0.534586517 C14.8628426,0.412948478 14.8158942,0.295729584 14.7308283,0.209707837 C14.6457623,0.12368609 14.5298458,0.0762102261 14.4095593,0.0781258427 C14.2916808,0.0799741214 14.179358,0.129107252 14.0973078,0.214713375 C14.0152576,0.300319497 13.9702034,0.415383945 13.9720593,0.534586517 L13.9720593,1.84778876 L5.95817022,1.84778876 L5.95817022,0.534586517 C5.96006455,0.412948478 5.9131162,0.295729584 5.82805025,0.209707837 C5.7429843,0.12368609 5.62706784,0.0762102261 5.50678133,0.0781258427 C5.49290008,0.0774671255 5.47899592,0.0774671255 5.46511467,0.0781258427 Z M1.11094818,7.54301348 L18.888726,7.54301348 L18.888726,17.346382 C18.888726,18.2375056 18.1746704,18.9615506 17.2984482,18.9615506 L2.70817044,18.9615506 C1.831946,18.9615506 1.11094818,18.2375056 1.11094818,17.346382 L1.11094818,7.54301348 Z" id="Shape"></path>
                </g>
            </g>
        </g>
    </g>
</svg>