<?xml version="1.0" encoding="UTF-8"?>
<svg width="35px" height="35px" viewBox="0 0 35 35" version="1.1" xmlns="http://www.w3.org/2000/svg" xmlns:xlink="http://www.w3.org/1999/xlink">
    <!-- Generator: Sketch 51.3 (57544) - http://www.bohemiancoding.com/sketch -->
    <title>Group 4</title>
    <desc>Created with Sketch.</desc>
    <defs></defs>
    <g id="Web_-user" stroke="none" stroke-width="1" fill="none" fill-rule="evenodd">
        <g id="4.2" transform="translate(-1182.000000, -107.000000)">
            <g id="Group-4" transform="translate(1182.000000, 107.000000)">
                <circle id="Oval-Copy-4" fill="#D30101" cx="17.5" cy="17.5" r="17.5"></circle>
                <g id="Group-3" transform="translate(12.000000, 12.000000)" fill="#FFFFFF" fill-rule="nonzero">
                    <g id="crossbutton_giving">
                        <path d="M9.95561109,11.6455696 L6.00187558,7.69245191 L2.04814005,11.6455696 C1.58299469,12.1106423 0.817755549,12.1106423 0.352610194,11.6455696 C0.120037509,11.4130334 0,11.1054852 0,10.7979372 C0,10.4903892 0.120037509,10.1828411 0.352610194,9.95030472 L4.30634573,5.99718709 L0.352610194,2.0440694 C0.120037509,1.81153306 0,1.503985 0,1.19643695 C0,0.888888899 0.120037509,0.581340846 0.352610194,0.348804503 C0.817755549,-0.116268168 1.58299469,-0.116268168 2.04814005,0.348804503 L6.00187558,4.30192219 L9.95561109,0.348804503 C10.4207565,-0.116268168 11.1859956,-0.116268168 11.651141,0.348804503 C12.1162863,0.813877173 12.1162863,1.57899673 11.651141,2.0440694 L7.69740549,5.99718709 L11.651141,9.95030472 C12.1162863,10.4153774 12.1162863,11.1804971 11.651141,11.6455696 C11.1859956,12.1181435 10.4207565,12.1181435 9.95561109,11.6455696 Z" id="Shape"></path>
                    </g>
                </g>
            </g>
        </g>
    </g>
</svg>