<?xml version="1.0" encoding="UTF-8"?>
<svg width="33px" height="33px" viewBox="0 0 33 33" version="1.1" xmlns="http://www.w3.org/2000/svg" xmlns:xlink="http://www.w3.org/1999/xlink">
    <!-- Generator: Sketch 51.3 (57544) - http://www.bohemiancoding.com/sketch -->
    <title>noun_categories_1748097 copy</title>
    <desc>Created with Sketch.</desc>
    <defs></defs>
    <g id="Web--user" stroke="none" stroke-width="1" fill="none" fill-rule="evenodd">
        <g id="1-" transform="translate(-700.000000, -250.000000)" fill="#979797" fill-rule="nonzero">
            <g id="noun_categories_1748097-copy" transform="translate(700.000000, 250.000000)">
                <g id="Group">
                    <path d="M1.83333333,2.44444263e-05 C0.836688747,2.44444263e-05 0,0.836731491 0,1.83335642 L0,12.4666819 C0,13.4633031 0.836695347,14.3000139 1.83333333,14.3000139 L12.8333333,14.3000139 C13.8299711,14.3000139 14.6666667,13.4633031 14.6666667,12.4666819 L14.6666667,1.83335642 C14.6666667,0.836735158 13.8299777,2.44444263e-05 12.8333333,2.44444263e-05 L1.83333333,2.44444263e-05 Z M20.1666667,2.44444263e-05 C19.1701455,8.67777135e-05 18.3332864,0.835708492 18.3333333,1.83335642 L18.3333333,12.4666819 C18.3333799,13.4623461 19.1700289,14.3000139 20.1666667,14.3000139 L31.1666667,14.3000139 C32.1633048,14.3000139 33,13.4633031 33,12.4666819 L33,1.83335642 C33,0.836731491 32.1633114,2.44444263e-05 31.1666667,2.44444263e-05 C27.3777779,2.44444263e-05 23.9555778,-3.05555329e-05 20.1666667,2.44444263e-05 Z M2.2,2.20002281 L12.4666667,2.20002281 L12.4666667,12.1000155 L2.2,12.1000155 L2.2,2.20002281 Z M20.5333333,2.20000079 C24.0475668,2.19997515 27.2857471,2.20001915 30.8,2.20000079 L30.8,12.1000155 L20.5333333,12.1000155 L20.5333333,2.20000079 Z M1.83333333,18.7000106 C0.836688747,18.7000106 0,19.5367066 0,20.5333426 L0,31.166668 C0,32.163304 0.836688747,33 1.83333333,33 L12.8333333,33 C13.8299777,33 14.6666667,32.163304 14.6666667,31.166668 L14.6666667,20.5333426 C14.6666667,19.5367066 13.8299777,18.7000106 12.8333333,18.7000106 L1.83333333,18.7000106 Z M20.1666667,18.7000106 C19.1700223,18.7000106 18.3333333,19.5367066 18.3333333,20.5333426 L18.3333333,31.166668 C18.3333333,32.163304 19.1700223,33 20.1666667,33 L31.1666667,33 C32.1633114,33 33,32.163304 33,31.166668 L33,20.5333426 C33,19.5367066 32.1633114,18.7000106 31.1666667,18.7000106 L20.1666667,18.7000106 Z M2.2,20.900009 L12.4666667,20.900009 L12.4666667,30.8000016 L2.2,30.8000016 L2.2,20.900009 Z M20.5333333,20.900009 L30.8,20.900009 L30.8,30.8000016 L20.5333333,30.8000016 L20.5333333,20.900009 Z" id="Shape"></path>
                </g>
            </g>
        </g>
    </g>
</svg>