<?xml version="1.0" encoding="UTF-8"?>
<svg width="17px" height="16px" viewBox="0 0 17 16" version="1.1" xmlns="http://www.w3.org/2000/svg" xmlns:xlink="http://www.w3.org/1999/xlink">
    <!-- Generator: Sketch 52.5 (67469) - http://www.bohemiancoding.com/sketch -->
    <title>Shape</title>
    <desc>Created with Sketch.</desc>
    <defs>
        <linearGradient x1="8.51990086%" y1="0%" x2="138.615896%" y2="134.487026%" id="linearGradient-1">
            <stop stop-color="#EB0202" offset="0%"></stop>
            <stop stop-color="#FF5A5F" offset="100%"></stop>
        </linearGradient>
    </defs>
    <g id="Page-3" stroke="none" stroke-width="1" fill="none" fill-rule="evenodd">
        <g id="bulletin-member-copy-5" transform="translate(-1184.000000, -499.000000)" fill="url(#linearGradient-1)">
            <g id="Group-6" transform="translate(1184.000000, 495.000000)">
                <path d="M1.11627952,4.00000005 C0.805339303,4.00000005 0.513168859,4.10591451 0.30813966,4.31403553 C0.10311046,4.5221584 1.90070182e-13,4.81466643 1.90070182e-13,5.11657167 L1.90070182e-13,13.6769584 C1.90070182e-13,13.978912 0.103207893,14.2678237 0.30813966,14.4736843 C0.513071427,14.6795448 0.804199396,14.786503 1.11046557,14.7935356 C1.35994288,14.7935356 1.61058316,14.7935356 1.86046587,14.7935356 L1.86046587,17.3988576 C1.86156355,17.542839 1.95432154,17.6820577 2.08676159,17.7384856 C2.21920164,17.7948949 2.38381771,17.7653507 2.4883731,17.666374 L5.54069992,14.7935356 L13.0232611,14.7935356 C13.3341989,14.7935356 13.6263704,14.681796 13.831401,14.4736843 C14.0364316,14.2655726 14.1395406,13.9788562 14.1395406,13.6769584 L14.1395406,5.11657167 C14.1395406,4.81466643 14.0422451,4.52218445 13.8372149,4.31403553 C13.6321847,4.10588846 13.3342547,3.99991633 13.0232611,4.00000005 C9.1033743,4.00002238 5.0361706,4.00000005 1.11627952,4.00000005 Z M15.9593088,6.7856142 C15.7784256,6.80553607 15.6268383,6.97578358 15.6279133,7.15780412 L15.6279133,15.9100942 C15.6279204,16.0572942 15.5915539,16.1266896 15.540704,16.1776106 C15.4898541,16.2285315 15.4058851,16.2764013 15.2441922,16.282299 L13.953494,16.282299 C13.7586718,16.2823176 13.5814204,16.4596014 13.5814009,16.6544852 L13.5814009,18.7655 L11.0465161,16.3811455 C10.9777643,16.317592 10.8843194,16.2814804 10.790702,16.282299 L5.95349079,16.282299 C5.75690968,16.2795083 5.57609956,16.4578339 5.57609956,16.6544852 C5.57609956,16.8511364 5.75690968,17.0294435 5.95349079,17.0266714 L10.6453532,17.0266714 L13.69768,19.8995098 C13.8022354,19.9984865 13.9668514,20.0280493 14.0992915,19.9716214 C14.2317315,19.9151935 14.3244877,19.7759934 14.3255872,19.632012 L14.3255872,17.0266714 L15.2558201,17.0266714 C15.2596955,17.0267272 15.2635727,17.0267272 15.2674481,17.0266714 C15.5719315,17.0155086 15.8592554,16.9117876 16.06396,16.7068201 C16.2686646,16.5018712 16.3721142,16.2112292 16.3720997,15.9100942 L16.3720997,7.15780412 C16.3733276,6.94859287 16.1672164,6.76275094 15.9593088,6.7856142 Z" id="Shape"></path>
            </g>
        </g>
    </g>
</svg>