<?xml version="1.0" encoding="UTF-8"?>
<svg width="86px" height="69px" viewBox="0 0 86 69" version="1.1" xmlns="http://www.w3.org/2000/svg" xmlns:xlink="http://www.w3.org/1999/xlink">
    <!-- Generator: Sketch 51.3 (57544) - http://www.bohemiancoding.com/sketch -->
    <title>Shape Chat_emptystate</title>
    <desc>Created with Sketch.</desc>
    <defs></defs>
    <g id="Empty-states" stroke="none" stroke-width="1" fill="none" fill-rule="evenodd">
        <g id="Chat_emptystate" transform="translate(-144.000000, -253.000000)" fill="#B1B1B1" fill-rule="nonzero">
            <path d="M175.218769,253.724249 C172.009662,253.724249 169.365249,256.368654 169.365249,259.577768 L169.365249,263.480114 L149.853519,263.480114 C146.644411,263.480114 144,266.124529 144,269.333633 L144,304.454748 C144,307.663842 146.644411,310.308267 149.853519,310.308267 L155.707038,310.308267 L155.707038,320.064132 C155.712869,320.797649 156.129569,321.46593 156.785666,321.793979 C157.441764,322.122027 158.226409,322.054419 158.81672,321.618973 L174.426105,309.911935 C175.073934,309.534401 175.448147,308.819063 175.388832,308.071603 C175.329517,307.324143 174.847166,306.676777 174.147901,306.406143 C173.448636,306.135508 172.656147,306.289477 172.109087,306.802253 L159.609384,316.161786 L159.609384,308.357094 C159.609277,307.279536 158.73577,306.406029 157.658211,306.405921 L149.853519,306.405921 C148.739029,306.405921 147.902346,305.569258 147.902346,304.454748 L147.902346,269.333633 C147.902346,268.219143 148.739029,267.38246 149.853519,267.38246 L198.632845,267.38246 C199.747336,267.38246 200.584018,268.219143 200.584018,269.333633 L200.584018,304.454748 C200.584018,305.569258 199.747336,306.405921 198.632845,306.405921 L186.925807,306.405921 C186.222144,306.395969 185.567632,306.765669 185.212896,307.373455 C184.85816,307.98124 184.85816,308.732948 185.212896,309.340733 C185.567632,309.948519 186.222144,310.318219 186.925807,310.308267 L198.632845,310.308267 C201.841953,310.308267 204.486364,307.663842 204.486364,304.454748 L204.486364,303.966955 L215.034893,311.863108 C215.625205,312.298553 216.40985,312.366162 217.065947,312.038113 C217.722045,311.710065 218.138745,311.041783 218.144575,310.308267 L218.144575,300.552402 L223.998095,300.552402 C227.207202,300.552402 229.851614,297.907977 229.851614,294.698883 L229.851614,259.577768 C229.851614,256.368654 227.207202,253.724249 223.998095,253.724249 L175.218769,253.724249 Z M175.218769,257.626595 L223.998095,257.626595 C225.112586,257.626595 225.949268,258.463278 225.949268,259.577768 L225.949268,294.698883 C225.949268,295.813393 225.112586,296.650056 223.998095,296.650056 L216.193402,296.650056 C215.115844,296.650164 214.242337,297.52367 214.242229,298.601229 L214.242229,306.405921 L204.486364,299.089022 L204.486364,269.333633 C204.486364,266.124529 201.841953,263.480114 198.632845,263.480114 L173.267596,263.480114 L173.267596,259.577768 C173.267596,258.463278 174.104277,257.626595 175.218769,257.626595 Z M242.999166,278.674112 L272,248.859655" id="Shape"></path>
        </g>
    </g>
</svg>