<?xml version="1.0" encoding="UTF-8"?>
<svg width="20px" height="20px" viewBox="0 0 20 20" version="1.1" xmlns="http://www.w3.org/2000/svg" xmlns:xlink="http://www.w3.org/1999/xlink">
    <!-- Generator: Sketch 52.2 (67145) - http://www.bohemiancoding.com/sketch -->
    <title>church</title>
    <desc>Created with Sketch.</desc>
    <g id="Page-1" stroke="none" stroke-width="1" fill="none" fill-rule="evenodd">
        <g id="profile-copy" transform="translate(-42.000000, -159.000000)" fill="#555555" fill-rule="nonzero">
            <g id="side-menu" transform="translate(42.000000, 80.000000)">
                <g id="your-church" transform="translate(0.000000, 79.000000)">
                    <g id="church">
                        <path d="M18.9411765,12.875 C18.8235294,12.875 18.7647059,12.8125 18.6470588,12.75 L10,5.125 L1.29411765,12.75 C1.11764706,12.9375 0.823529412,12.875 0.647058824,12.6875 C0.529411765,12.5 0.588235294,12.1875 0.764705882,12 L9.70588235,4.1875 C9.88235294,4.0625 10.1176471,4.0625 10.2941176,4.1875 L19.2941176,12.0625 C19.4705882,12.25 19.5294118,12.5 19.3529412,12.75 C19.2352941,12.8125 19.1176471,12.875 18.9411765,12.875 Z" id="Shape"></path>
                        <path d="M10,5 C9.76470588,5 9.52941176,4.8125 9.52941176,4.5 L9.52941176,0.5 C9.58823529,0.1875 9.76470588,0 10,0 C10.2352941,0 10.4705882,0.1875 10.4705882,0.5 L10.4705882,4.5625 C10.4705882,4.8125 10.2352941,5 10,5 Z" id="Shape"></path>
                        <path d="M11.3529412,2.1875 L8.64705882,2.1875 C8.41176471,2.1875 8.17647059,2 8.17647059,1.6875 C8.17647059,1.375 8.41176471,1.25 8.64705882,1.25 L11.3529412,1.25 C11.5882353,1.25 11.7647059,1.4375 11.7647059,1.75 C11.7647059,2.0625 11.5882353,2.1875 11.3529412,2.1875 Z" id="Shape"></path>
                        <path d="M16.6470588,20 L12.3529412,20 C12.1176471,20 11.8823529,19.8125 11.8823529,19.5 L11.8823529,15.5 C11.8823529,14.375 11.0588235,13.5 10,13.5 C8.94117647,13.5 8.11764706,14.375 8.11764706,15.5 L8.11764706,19.5 C8.11764706,19.75 7.94117647,20 7.64705882,20 L3.41176471,20 C3.11764706,20 2.94117647,19.8125 2.94117647,19.5625 L2.94117647,10.3125 C2.94117647,10.1875 3,10.0625 3.11764706,9.9375 L9.76470588,4.125 C9.94117647,4 10.1764706,4 10.3529412,4.125 L17,9.9375 C17.1176471,10 17.1764706,10.1875 17.1764706,10.3125 L17.1764706,19.5 C17.0588235,19.8125 16.8823529,20 16.6470588,20 Z M12.7647059,19.0625 L16.1764706,19.0625 L16.1764706,10.5625 L10,5.125 L3.82352941,10.5625 L3.82352941,19.0625 L7.23529412,19.0625 L7.23529412,15.5625 C7.23529412,13.9375 8.47058824,12.625 10,12.625 C11.5294118,12.625 12.7647059,13.9375 12.7647059,15.5625 L12.7647059,19.0625 Z" id="Shape"></path>
                    </g>
                </g>
            </g>
        </g>
    </g>
</svg>