<?xml version="1.0" encoding="UTF-8"?>
<svg width="11px" height="17px" viewBox="0 0 11 17" version="1.1" xmlns="http://www.w3.org/2000/svg" xmlns:xlink="http://www.w3.org/1999/xlink">
    <!-- Generator: Sketch 51.3 (57544) - http://www.bohemiancoding.com/sketch -->
    <title>Group 2</title>
    <desc>Created with Sketch.</desc>
    <defs></defs>
    <g id="Shared-with-me" stroke="none" stroke-width="1" fill="none" fill-rule="evenodd">
        <g id="shared-prayer-1" transform="translate(-184.000000, -315.000000)" fill="#FFBA08" fill-rule="nonzero">
            <g id="Group-2" transform="translate(184.000000, 315.000000)">
                <path d="M10.9952938,9.61083966 C10.9952938,9.59035307 10.955001,9.49258211 10.9426875,9.48004063 L5.94360766,4.51919846 L5.94360766,2.18228203 L6.74856118,2.18228203 C7.04118364,2.18228203 7.19294246,1.95364637 7.19294246,1.74227987 C7.19294246,1.53413081 7.04118364,1.30240903 6.74856118,1.30240903 L5.94360766,1.30240903 L5.94360766,0.439870839 C5.94360766,0.148265167 5.70829768,0 5.50077362,0 C5.28873677,0 5.05490957,0.148265167 5.05490957,0.439870839 L5.05490957,1.30247469 L4.18626118,1.30247469 C3.89215594,1.30247469 3.74503886,1.53419647 3.74503886,1.74234553 C3.74503886,1.95371204 3.89209147,2.18234769 4.18626118,2.18234769 L5.0548451,2.18234769 L5.0548451,4.511319 L0.0526062851,9.48483397 C0.0386166235,9.49586521 0,9.59514641 0,9.61254688 L0,16.8203483 C0,16.9148362 0.086645646,17 0.182703691,17 L3.92161804,17 C4.02057717,17 4.10735175,16.9148362 4.10735175,16.8203483 L4.10735175,13.762724 C4.10735175,12.9696564 4.73127777,12.3404815 5.49458465,12.3404815 C6.25473257,12.3404815 6.88181754,12.9696564 6.88181754,13.762724 L6.88181754,16.8203483 C6.88181754,16.9148362 6.96846319,17 7.06452123,17 L10.8187791,17 C10.9148371,17 11,16.9148362 11,16.8203483 L10.9952938,9.61083966 Z M5.50070915,10.296878 C4.70806911,10.296878 4.0655117,9.64242317 4.0655117,8.83359663 C4.0655117,8.02936644 4.70806911,7.37491165 5.50070915,7.37491165 C6.29180195,7.37491165 6.93274765,8.02936644 6.93274765,8.83359663 C6.93274765,9.64242317 6.29180195,10.296878 5.50070915,10.296878 Z" id="Shape"></path>
            </g>
        </g>
    </g>
</svg>