<?xml version="1.0" encoding="UTF-8"?>
<svg width="13px" height="14px" viewBox="0 0 13 14" version="1.1" xmlns="http://www.w3.org/2000/svg" xmlns:xlink="http://www.w3.org/1999/xlink">
    <!-- Generator: Sketch 51.3 (57544) - http://www.bohemiancoding.com/sketch -->
    <title>noun_group_797189churchmember</title>
    <desc>Created with Sketch.</desc>
    <defs></defs>
    <g id="Shared-with-me" stroke="none" stroke-width="1" fill="none" fill-rule="evenodd">
        <g id="shared-prayer-1" transform="translate(-184.000000, -221.000000)" fill="#FF5A5F" fill-rule="nonzero">
            <g id="noun_group_797189" transform="translate(184.000000, 221.000000)">
                <g id="Group">
                    <ellipse id="Oval" cx="6.5" cy="4.66666667" rx="1.95" ry="2"></ellipse>
                    <path d="M7.8,7.33333333 L5.2,7.33333333 C4.485,7.33333333 3.9,7.93333333 3.9,8.66666667 L3.9,12.2666667 C3.9,12.5333333 4.03,12.8 4.29,12.8666667 C5.72,13.5333333 7.215,13.5333333 8.71,12.8666667 C8.97,12.7333333 9.1,12.5333333 9.1,12.2666667 L9.1,8.66666667 C9.1,7.93333333 8.515,7.33333333 7.8,7.33333333 Z" id="Shape"></path>
                    <ellipse id="Oval" cx="10.4" cy="2" rx="1.95" ry="2"></ellipse>
                    <ellipse id="Oval" cx="2.6" cy="2" rx="1.95" ry="2"></ellipse>
                    <path d="M11.7,4.66666667 L9.75,4.66666667 C9.75,5.33333333 9.555,5.93333333 9.23,6.46666667 C9.945,6.93333333 10.4,7.73333333 10.4,8.66666667 L10.4,10.6666667 C11.115,10.6666667 11.895,10.5333333 12.61,10.2 C12.87,10.0666667 13,9.86666667 13,9.6 L13,6 C13,5.26666667 12.415,4.66666667 11.7,4.66666667 Z" id="Shape"></path>
                    <path d="M3.25,4.66666667 L1.3,4.66666667 C0.585,4.66666667 0,5.26666667 0,6 L0,9.6 C0,9.86666667 0.13,10.1333333 0.39,10.2 C1.105,10.5333333 1.82,10.6666667 2.6,10.6666667 L2.6,8.66666667 C2.6,7.73333333 3.055,6.93333333 3.77,6.46666667 C3.445,5.93333333 3.25,5.33333333 3.25,4.66666667 Z" id="Shape"></path>
                </g>
            </g>
        </g>
    </g>
</svg>