<svg id="Layer_1" data-name="Layer 1" xmlns="http://www.w3.org/2000/svg" viewBox="0 0 481.67 60.67"><defs><style>.cls-1{fill:#d30101;fill-rule:evenodd;}</style></defs><title>churchtalk</title><path class="cls-1" d="M278.27,33.23V49.85h6.88V10.41h-6.88v16.4H259.35V10.41h-6.88V49.85h6.88V33.23ZM238.78,43.54,234.32,39a24.2,24.2,0,0,1-5.12,3.75,13,13,0,0,1-6.2,1.38,12.35,12.35,0,0,1-5.21-1.1,12.69,12.69,0,0,1-4.14-3,13.64,13.64,0,0,1-2.71-4.48,15.77,15.77,0,0,1-.95-5.5,15.51,15.51,0,0,1,.95-5.46,13.27,13.27,0,0,1,2.71-4.42,12.78,12.78,0,0,1,4.14-3A12.35,12.35,0,0,1,223,16.1a13.12,13.12,0,0,1,6,1.35A22.27,22.27,0,0,1,234,21l4.45-5.12a26,26,0,0,0-3-2.48,19.52,19.52,0,0,0-3.44-2A21,21,0,0,0,228,10.18a25,25,0,0,0-4.93-.45,20.55,20.55,0,0,0-8.23,1.61,19.81,19.81,0,0,0-6.42,4.39,20,20,0,0,0-4.2,6.51,21.25,21.25,0,0,0-1.49,8,21,21,0,0,0,1.52,8,19.77,19.77,0,0,0,4.2,6.45,19.49,19.49,0,0,0,6.34,4.3,19.82,19.82,0,0,0,8,1.59,24.54,24.54,0,0,0,5-.48A18.43,18.43,0,0,0,232,48.64a20.71,20.71,0,0,0,3.58-2.2A26.05,26.05,0,0,0,238.78,43.54ZM182.49,23.28a6,6,0,0,1-2.21,4.87A9.05,9.05,0,0,1,174.35,30H164.18V16.66h10.11a9.61,9.61,0,0,1,6.05,1.68A5.86,5.86,0,0,1,182.49,23.28Zm8.28,26.57L180.12,34.92a14.54,14.54,0,0,0,3.8-1.61,11.67,11.67,0,0,0,3-2.53,11.39,11.39,0,0,0,2-3.44,12.93,12.93,0,0,0,.7-4.42,13,13,0,0,0-1-5.21,10.73,10.73,0,0,0-2.91-4A13.25,13.25,0,0,0,181,11.28a20,20,0,0,0-6.11-.87H157.3V49.85h6.88V36.1h8.7l9.72,13.75ZM141.35,10.41h-6.87V33.12q0,5.46-2.67,8.22a9.65,9.65,0,0,1-7.3,2.76,9.54,9.54,0,0,1-7.36-2.87q-2.67-2.88-2.67-8.4V10.41h-6.87V33.12a21.77,21.77,0,0,0,1.18,7.51,14.52,14.52,0,0,0,3.38,5.44,13.84,13.84,0,0,0,5.3,3.3,20.65,20.65,0,0,0,6.93,1.1,21.09,21.09,0,0,0,7-1.1A13.67,13.67,0,0,0,136.73,46a15,15,0,0,0,3.41-5.54,22.47,22.47,0,0,0,1.21-7.72ZM84.78,33.23V49.85h6.88V10.41H84.78v16.4H65.85V10.41H59V49.85h6.87V33.23ZM45.28,43.54,40.83,39a24.46,24.46,0,0,1-5.12,3.75,13,13,0,0,1-6.2,1.38,12.35,12.35,0,0,1-5.21-1.1,12.69,12.69,0,0,1-4.14-3,13.64,13.64,0,0,1-2.71-4.48,15.55,15.55,0,0,1-1-5.5,15.29,15.29,0,0,1,1-5.46,13.27,13.27,0,0,1,2.71-4.42,12.78,12.78,0,0,1,4.14-3,12.35,12.35,0,0,1,5.21-1.1,13.12,13.12,0,0,1,6,1.35,22.5,22.5,0,0,1,5,3.55L45,15.88a26,26,0,0,0-3-2.48,19.88,19.88,0,0,0-3.44-2,21,21,0,0,0-4.08-1.27,25,25,0,0,0-4.93-.45,20.55,20.55,0,0,0-8.23,1.61,19.63,19.63,0,0,0-10.62,10.9,21.05,21.05,0,0,0-1.49,8,20.83,20.83,0,0,0,1.52,8A19.77,19.77,0,0,0,15,44.64a19.56,19.56,0,0,0,6.33,4.3,19.91,19.91,0,0,0,8,1.59,24.68,24.68,0,0,0,5-.48,18.43,18.43,0,0,0,4.19-1.41,20.71,20.71,0,0,0,3.58-2.2A25.27,25.27,0,0,0,45.28,43.54Z"/><path class="cls-1" d="M472.44,49.85,455.65,27.14l16.06-16.73H461.23l-16,17.24V10.41h-8.68V49.85h8.68V37.79l4.56-4.73L462,49.85Zm-48.85,0V42H403.93V10.41h-8.68V49.85ZM367,33.34H356.48l5.24-12.79Zm15.78,16.51-16.9-39.72h-8L340.93,49.85h8.85L353.39,41h16.67l3.61,8.85Zm-51.5-31.44v-8H298.56v8h12V49.85h8.68V18.41Z"/></svg>