<?xml version="1.0" encoding="UTF-8"?>
<svg width="16px" height="16px" viewBox="0 0 16 16" version="1.1" xmlns="http://www.w3.org/2000/svg" xmlns:xlink="http://www.w3.org/1999/xlink">
    <!-- Generator: Sketch 51.3 (57544) - http://www.bohemiancoding.com/sketch -->
    <title>Shape</title>
    <desc>Created with Sketch.</desc>
    <defs></defs>
    <g id="mock" stroke="none" stroke-width="1" fill="none" fill-rule="evenodd">
        <g id="bulletin-member" transform="translate(-372.000000, -275.000000)" fill-rule="nonzero" stroke="#979797">
            <g id="card-prayer" transform="translate(270.000000, 128.000000)">
                <g id="comment" transform="translate(103.000000, 148.000000)">
                    <path d="M11.2062084,0 L2.76274945,0 C1.24168514,0 0,1.24444444 0,2.76888889 L0,8.15111111 C0,9.67555556 1.24168514,10.92 2.76274945,10.92 L3.0421286,10.92 L3.0421286,13.5333333 C3.0421286,13.72 3.13525499,13.8755556 3.32150776,13.9688889 C3.38359202,14 3.44567627,14 3.50776053,14 C3.63192905,14 3.72505543,13.9688889 3.81818182,13.8755556 L7.17073171,10.8888889 L11.2372506,10.8888889 C12.7583149,10.8888889 14,9.64444444 14,8.12 L14,2.76888889 C13.9689579,1.24444444 12.7272727,0 11.2062084,0 Z" id="Shape"></path>
                </g>
            </g>
        </g>
    </g>
</svg>