<?xml version="1.0" encoding="UTF-8"?>
<svg width="22px" height="22px" viewBox="0 0 22 22" version="1.1" xmlns="http://www.w3.org/2000/svg" xmlns:xlink="http://www.w3.org/1999/xlink">
    <!-- Generator: Sketch 51.3 (57544) - http://www.bohemiancoding.com/sketch -->
    <title>selected</title>
    <desc>Created with Sketch.</desc>
    <defs></defs>
    <g id="Web_admin" stroke="none" stroke-width="1" fill="none" fill-rule="evenodd">
        <g id="iPhone-X" transform="translate(-69.000000, -90.000000)">
            <g id="selected" transform="translate(69.000000, 90.000000)">
                <rect id="Rectangle" stroke="#00808E" stroke-width="3" fill="#087E8B" x="1.5" y="1.5" width="19" height="19" rx="9.5"></rect>
                <path d="M15.4901224,7 C15.2099708,7 14.944454,7.10871554 14.7437484,7.30523978 L9.51703994,12.4462302 L6.80751426,9.82346792 C6.607854,9.63007971 6.34547323,9.52240951 6.066367,9.52240951 C5.77680735,9.52240951 5.50501851,9.63635176 5.30117688,9.8454201 C5.10256195,10.0492617 4.9959371,10.3189599 5.00011847,10.6032928 C5.00429983,10.8886711 5.12033276,11.1552332 5.32417439,11.3528028 L8.78007404,14.6989416 C8.9797343,14.8933751 9.24316041,15 9.52226664,15 C9.80241822,15 10.0668897,14.8933751 10.269686,14.6947602 L16.2364964,8.8251666 C16.440338,8.62655168 16.5532349,8.35998955 16.5553256,8.07565661 C16.5584616,7.79027832 16.4497461,7.52162551 16.2490405,7.31673853 C16.0472895,7.11185156 15.7775914,7 15.4901224,7 Z" id="Path" fill="#FFFFFF"></path>
            </g>
        </g>
    </g>
</svg>