<?xml version="1.0" encoding="UTF-8"?>
<svg width="26px" height="26px" viewBox="0 0 26 26" version="1.1" xmlns="http://www.w3.org/2000/svg" xmlns:xlink="http://www.w3.org/1999/xlink">
    <!-- Generator: Sketch 51.3 (57544) - http://www.bohemiancoding.com/sketch -->
    <title>Group 2crossinfilledcircle</title>
    <desc>Created with Sketch.</desc>
    <defs></defs>
    <g id="profile-additions" stroke="none" stroke-width="1" fill="none" fill-rule="evenodd">
        <g id="PP3-Copy-3" transform="translate(-333.000000, -1182.000000)">
            <g id="Group-2" transform="translate(334.000000, 1183.000000)">
                <circle id="Oval-4-Copy-7" stroke="#FFFFFF" stroke-width="1.5" fill="#087E8B" cx="12" cy="12" r="12"></circle>
                <path d="M13.1331601,12.0066842 L15.7641129,9.37691895 C16.0736367,9.06753481 16.0736367,8.55854799 15.7641129,8.24916385 C15.454589,7.9397797 14.9453723,7.9397797 14.6358485,8.24916385 L12.0048957,10.8789291 L9.37394291,8.24916385 C9.06441905,7.9397797 8.59514094,7.8948691 8.24567852,8.24916385 C7.89122378,8.60345859 7.94613931,9.07751494 8.24567852,9.37691895 L10.8766313,12.0066842 L8.24567852,14.6364494 C7.91119307,14.9707839 7.92617003,15.4498303 8.24567852,15.7642045 C8.56518702,16.0835688 9.06441905,16.0735886 9.37394291,15.7642045 L12.0048957,13.1344393 L14.6358485,15.7642045 C14.9453723,16.0735886 15.454589,16.0735886 15.7641129,15.7642045 C16.078629,15.4548203 16.078629,14.9458335 15.7641129,14.6364494 L13.1331601,12.0066842 Z" id="Shape-Copy-12" fill="#FFFFFF" fill-rule="nonzero"></path>
            </g>
        </g>
    </g>
</svg>