<?xml version="1.0" encoding="UTF-8"?>
<svg width="36px" height="36px" viewBox="0 0 36 36" version="1.1" xmlns="http://www.w3.org/2000/svg" xmlns:xlink="http://www.w3.org/1999/xlink">
    <!-- Generator: Sketch 51.3 (57544) - http://www.bohemiancoding.com/sketch -->
    <title>Group 5Decline</title>
    <desc>Created with Sketch.</desc>
    <defs></defs>
    <g id="ios(notification)" stroke="none" stroke-width="1" fill="none" fill-rule="evenodd">
        <g id="iPhone-X" transform="translate(-328.000000, -210.000000)" fill-rule="nonzero">
            <g id="Group-5" transform="translate(329.000000, 211.000000)">
                <g id="Group-4" stroke="#979797" stroke-width="1.5">
                    <g id="_ionicons_svg_ios-checkmark-circle-(1)-copy">
                        <path d="M17,0 C7.60913462,0 0,7.60913462 0,17 C0,26.3908654 7.60913462,34 17,34 C26.3908654,34 34,26.3908654 34,17 C34,7.60913462 26.3908654,0 17,0 Z" id="Shape"></path>
                    </g>
                </g>
                <g id="Group" transform="translate(12.000000, 11.000000)" fill="#555555">
                    <path d="M0.751005527,0.00120205563 C0.558878621,0.00120205563 0.366481779,0.0742111188 0.219881569,0.222633356 C-0.0732813593,0.519452525 -0.0733063534,1.00128704 0.219881569,1.29814669 L3.93774927,5.06247628 L0.219881569,8.82683369 C-0.0733063534,9.12367817 -0.0732813593,9.60553799 0.219881569,9.90235715 C0.513081989,10.1992269 0.988964057,10.1992016 1.28212948,9.90235715 L4.99999719,6.13799974 L8.71786489,9.90235715 C9.01103532,10.1992016 9.48692488,10.1992016 9.78011281,9.90235715 C10.0732932,9.60551268 10.0732982,9.12370347 9.78011281,8.82683369 L6.0622451,5.06247628 L9.78011281,1.29814669 C10.0732982,1.00126173 10.0732932,0.519477831 9.78011281,0.222633356 C9.48692488,-0.0742111188 9.01103532,-0.0742111188 8.71786489,0.222633356 L4.99999719,3.98695535 L1.28212948,0.222633356 C1.13554677,0.0742111188 0.943134932,0.00122736207 0.751005527,0.00120205563 Z" id="Shape"></path>
                </g>
            </g>
        </g>
    </g>
</svg>