<?xml version="1.0" encoding="UTF-8"?>
<svg width="12px" height="12px" viewBox="0 0 12 12" version="1.1" xmlns="http://www.w3.org/2000/svg" xmlns:xlink="http://www.w3.org/1999/xlink">
    <!-- Generator: Sketch 51.3 (57544) - http://www.bohemiancoding.com/sketch -->
    <title>Shape</title>
    <desc>Created with Sketch.</desc>
    <defs></defs>
    <g id="mock" stroke="none" stroke-width="1" fill="none" fill-rule="evenodd">
        <g id="profile-copy-17" transform="translate(-1028.000000, -475.000000)" fill="#555555" fill-rule="nonzero">
            <g id="card-personal-details" transform="translate(270.000000, 411.000000)">
                <path d="M769.359274,64.6209956 C768.533722,63.7930015 767.093115,63.7930015 766.266537,64.6209956 L758.932067,71.9680288 C758.862245,72.0379712 758.811931,72.1264277 758.788315,72.2220841 L758.016157,75.3190906 C757.969951,75.5052607 758.024372,75.702745 758.15991,75.839544 C758.263617,75.943429 758.403263,76 758.545989,76 C758.590141,76 758.634294,75.9948572 758.678447,75.983543 L761.771184,75.2090342 C761.867703,75.1853772 761.954982,75.1349776 762.024804,75.0650352 L769.359274,67.718002 C769.772049,67.3045193 770,66.7542375 770,66.1689845 C770,65.5837315 769.773076,65.0344783 769.359274,64.6209956 Z M761.359435,74.1835558 L759.29761,74.699895 L759.813066,72.6345383 L765.880458,66.5567532 L767.426826,68.1057707 L761.359435,74.1835558 Z M768.586089,66.9434933 L768.200011,67.3302334 L766.653642,65.7812158 L767.039721,65.3944758 C767.452496,64.980993 768.173314,64.980993 768.586089,65.3944758 C768.792477,65.6012171 768.906453,65.8758437 768.906453,66.1689845 C768.906453,66.4621253 768.792477,66.7367519 768.586089,66.9434933 Z" id="Shape"></path>
            </g>
        </g>
    </g>
</svg>