<?xml version="1.0" encoding="UTF-8"?>
<svg width="52px" height="35px" viewBox="0 0 52 35" version="1.1" xmlns="http://www.w3.org/2000/svg" xmlns:xlink="http://www.w3.org/1999/xlink">
    <!-- Generator: Sketch 51.3 (57544) - http://www.bohemiancoding.com/sketch -->
    <title>giving</title>
    <desc>Created with Sketch.</desc>
    <defs></defs>
    <g id="Web--admin" stroke="none" stroke-width="1" fill="none" fill-rule="evenodd">
        <g id="12.-Transaction_-empty-state" transform="translate(-781.000000, -291.000000)" fill="#979797" stroke="#979797" stroke-width="0.5">
            <g id="giving" transform="translate(782.000000, 292.000000)">
                <path d="M46.850621,13.0005989 C46.335289,13.0102503 45.7835629,13.1385545 45.2182325,13.4161456 C45.2179223,13.4162645 45.2176123,13.4163837 45.2173023,13.4165031 L33.7149455,19.0864842 C33.5028013,17.7808037 32.3188864,16.7785468 30.9357921,16.8192376 C30.9354238,16.8192969 30.9350556,16.8193564 30.9346875,16.8194164 L24.6696596,17.0156616 C23.0388989,17.0150659 21.8038811,16.6125665 20.3481729,16.181232 C18.8913019,15.7494805 17.2279841,15.299856 14.8890489,15.299856 C12.8038844,15.299856 9.69590458,16.0682152 7.46487224,16.9180752 L7.46487224,14.6743018 C7.46484013,14.3452831 7.20456788,14.0785689 6.88349588,14.078536 L0.581376356,14.078536 C0.260304359,14.0785689 3.21023846e-05,14.3452831 0,14.6743018 L0,19.5476665 L0,32.4042341 C3.21023846e-05,32.7332529 0.260304359,32.9999671 0.581376356,33 L6.88349588,33 C7.20456788,32.9999671 7.46484013,32.7332529 7.46487224,32.4042341 L7.46487224,30.3836942 C15.5546085,28.7790585 20.2538736,31.2603637 27.1502762,31.2603637 C27.1505863,31.260364 27.1508964,31.260364 27.1512064,31.2603637 C28.3307028,31.2603637 29.8338514,30.5965614 31.6766981,29.6162882 C33.5194868,28.6359555 35.6487777,27.3079339 37.8054514,25.8806576 C42.118857,23.0261051 46.5448752,19.7700659 48.8704969,18.1585789 C48.8706908,18.1584598 48.8708845,18.1583407 48.8710783,18.1582214 C49.5307079,17.700137 49.9038934,17.01167 49.9826117,16.3139686 C50.0612719,15.6162672 49.869534,14.9138593 49.478791,14.3321297 C48.9415411,13.5322306 47.9842468,12.9793241 46.850621,13.000593 L46.850621,13.0005989 Z M46.9926513,14.1606623 C47.6974538,14.1660242 48.204007,14.5356552 48.5209734,15.0075733 C48.7624772,15.3671179 48.8706713,15.7959502 48.8276495,16.1772999 C48.7846276,16.5585305 48.6143425,16.8968659 48.219181,17.171514 C48.219181,17.1716332 48.2185996,17.1717523 48.2185996,17.1718715 C45.8582116,18.8074275 41.4536462,22.0479171 37.1745999,24.879771 C35.0349605,26.2957872 32.9272968,27.6084382 31.1408435,28.5588038 C29.3551461,29.5086929 27.8373468,30.067283 27.1502181,30.0688916 C27.1502181,30.0688916 27.1496367,30.0688916 27.149346,30.0688916 C20.5918858,30.0686533 15.7146033,27.5943185 7.4648141,29.171132 L7.4648141,27.4356065 C7.46777929,27.2207519 7.35762266,27.020905 7.17652535,26.9125909 C6.99542804,26.8042769 6.77144745,26.8042769 6.59035014,26.9125909 C6.40925282,27.020905 6.2990962,27.2207519 6.30206139,27.4356065 L6.30206139,31.8085279 L4.56374608,31.8085279 L4.56374608,15.2700677 L6.30206139,15.2700677 L6.30206139,19.6429891 C6.2990962,19.8578436 6.40925282,20.0576906 6.59035014,20.1660046 C6.77144745,20.2743186 6.99542804,20.2743186 7.17652535,20.1660046 C7.35762266,20.0576906 7.46777929,19.8578436 7.4648141,19.6429891 L7.4648141,18.1934312 C9.56561814,17.3420222 12.9830646,16.4913877 14.8889907,16.4913877 C17.0848492,16.4913877 18.5869513,16.8996065 20.0252764,17.3258174 C21.4636597,17.7520282 22.8529166,18.2071934 24.6735548,18.2071934 C24.6794273,18.207225 24.6852998,18.2071654 24.6911705,18.2070146 L30.9689887,18.0104119 C30.9695701,18.0104119 30.9696863,18.0104119 30.9700352,18.0104119 C31.8716918,17.984794 32.586087,18.7104368 32.586087,19.5059629 C32.586087,20.301787 31.8807031,20.9597508 30.9275366,21.001931 C30.9275366,21.001931 30.9275366,21.001931 30.9275366,21.001931 L18.9862406,21.5262049 C18.7763413,21.5319383 18.5857651,21.6531977 18.4876619,21.8434395 C18.3895587,22.0336813 18.3991713,22.2633468 18.51281,22.4442821 C18.6264488,22.6252173 18.8264571,22.7293097 19.0360646,22.7166047 L30.9775349,22.1923308 C32.1102305,22.1422864 33.1349063,21.4730626 33.5513462,20.4856403 C33.5718552,20.4782603 33.5919442,20.4697076 33.6115186,20.4600224 L45.7206579,14.4908298 C45.7206579,14.4907106 45.7212974,14.4905915 45.7215881,14.4904723 C46.2004678,14.2554844 46.6238261,14.1580826 46.9927675,14.1607517 L46.9926513,14.1606623 Z M1.16275271,15.2700677 L3.40105151,15.2700677 L3.40105151,31.8085279 L1.16275271,31.8085279 L1.16275271,19.5476665 L1.16275271,15.2700677 Z" id="Shape"></path>
                <path d="M15.7112876,6 C14.2224617,6 13,7.35400838 13,9.00314136 C13,10.6476503 14.2224617,12 15.7112876,12 L20.2887124,12 C21.777595,12 23,10.6476503 23,9.00314136 C23,7.35400838 21.777595,6 20.2887124,6 L15.7112876,6 Z M15.7112876,7.2565445 L20.2887124,7.2565445 C21.1595009,7.2565445 21.8655701,8.03866178 21.8655701,9.00314136 C21.8655701,9.95968586 21.1595009,10.7434555 20.2887124,10.7434555 L15.7112876,10.7434555 C14.8405559,10.7434555 14.1344299,9.95968586 14.1344299,9.00314136 C14.1344299,8.03866178 14.8405559,7.2565445 15.7112876,7.2565445 Z" id="Shape"></path>
                <path d="M31.707151,6 C30.2216232,6 29,7.35400838 29,9.00314136 C29,10.6476503 30.2216232,12 31.707151,12 L36.292849,12 C37.7783768,12 39,10.6476503 39,9.00314136 C39,7.35400838 37.7783768,6 36.292849,6 L31.707151,6 Z M31.707151,7.2565445 L36.292849,7.2565445 C37.156924,7.2565445 37.8649262,8.03866178 37.8649262,9.00314136 C37.8649262,9.95968586 37.156924,10.7434555 36.292849,10.7434555 L31.707151,10.7434555 C30.843076,10.7434555 30.1350738,9.95968586 30.1350738,9.00314136 C30.1350738,8.03866178 30.843076,7.2565445 31.707151,7.2565445 Z" id="Shape"></path>
                <path d="M23.7128263,0 C22.2231555,0 21,1.35400838 21,3.00314136 C21,4.65227435 22.2249716,6 23.7128263,6 L28.292849,6 C29.7807605,6 31,4.65026387 31,3.00314136 C31,1.35602513 29.7825766,0 28.292849,0 L23.7128263,0 Z M23.7128263,1.2565445 L28.292849,1.2565445 C29.1641317,1.2565445 29.8649262,2.03665131 29.8649262,3.00314136 C29.8649262,3.9696377 29.1659478,4.7434555 28.292849,4.7434555 L23.7128263,4.7434555 C22.8397843,4.7434555 22.1350738,3.96762094 22.1350738,3.00314136 C22.1350738,2.03866178 22.8416005,1.2565445 23.7128263,1.2565445 Z" id="Shape"></path>
            </g>
        </g>
    </g>
</svg>