<?xml version="1.0" encoding="UTF-8"?>
<svg width="20px" height="10px" viewBox="0 0 20 10" version="1.1" xmlns="http://www.w3.org/2000/svg" xmlns:xlink="http://www.w3.org/1999/xlink">
    <!-- Generator: Sketch 51.3 (57544) - http://www.bohemiancoding.com/sketch -->
    <title>eye closed</title>
    <desc>Created with Sketch.</desc>
    <defs></defs>
    <g id="mock" stroke="none" stroke-width="1" fill="none" fill-rule="evenodd">
        <g id="sign-in-via-email-copy-2" transform="translate(-534.000000, -490.000000)">
            <rect id="Rectangle" fill="#FFFFFF" x="0" y="0" width="720" height="1024"></rect>
            <g id="password" transform="translate(155.000000, 464.000000)" fill="#777777" fill-rule="nonzero">
                <g id="eye-closed" transform="translate(379.000000, 26.000000)">
                    <path d="M19.7613333,3.4237037 L18.7749333,2.33555556 C19.2189333,1.60888889 19.4149333,1.08481481 19.424,1.06 C19.5245333,0.787407407 19.4469333,0.454074074 19.2512,0.313703704 C19.0541333,0.172592593 18.8141333,0.28037037 18.7125333,0.552222222 C18.7104,0.557777778 18.4944,1.12888889 17.992,1.88962963 C16.968,3.44148148 14.5682667,6.04481481 10.0008,6.04481481 C10.0008,6.04481481 10.0008,6.04481481 10.0008,6.04481481 C5.4336,6.04481481 3.0336,3.44148148 2.00933333,1.88962963 C1.5072,1.12888889 1.2912,0.558148148 1.2896,0.554074074 C1.18906667,0.28037037 0.947466667,0.172592593 0.7512,0.312592593 C0.554666667,0.452222222 0.476533333,0.787037037 0.577333333,1.06037037 C0.586666667,1.08518519 0.7824,1.60888889 1.2264,2.33592593 L0.239733333,3.42407407 C0.0666666667,3.61481481 0.0378666667,3.96444444 0.1752,4.20444444 C0.254133333,4.34259259 0.370933333,4.41444444 0.4888,4.41444444 C0.576,4.41444444 0.663733333,4.37518519 0.737333333,4.29407407 L1.7784,3.14592593 C1.9632,3.39259259 2.1752,3.65074074 2.41626667,3.91518519 L1.57146667,5.32259259 C1.43013333,5.55814815 1.45306667,5.90888889 1.62266667,6.10518519 C1.69733333,6.19148148 1.78826667,6.23407407 1.8784,6.23407407 C1.99306667,6.23407407 2.10666667,6.16592593 2.18586667,6.03407407 L3.06693333,4.5662963 C3.31306667,4.79148148 3.5792,5.01407407 3.87066667,5.22925926 L3.2728,6.89037037 C3.17413333,7.16481481 3.25413333,7.49888889 3.45173333,7.63592593 C3.50906667,7.67555556 3.57013333,7.69444444 3.63013333,7.69444444 C3.7768,7.69444444 3.91813333,7.58185185 3.98826667,7.38740741 L4.592,5.70962963 C4.90213333,5.89851852 5.23226667,6.07555556 5.5864,6.23740741 L5.14826667,8.17222222 C5.08213333,8.46518519 5.1992,8.77703704 5.40986667,8.86888889 C5.4496,8.8862963 5.49013333,8.89444444 5.52986667,8.89444444 C5.7,8.89444444 5.8576,8.74296296 5.91146667,8.50555556 L6.35493333,6.54703704 C6.72453333,6.67888889 7.11066667,6.79740741 7.52373333,6.89037037 L7.31546667,8.95740741 C7.2848,9.26111111 7.43733333,9.54222222 7.656,9.58444444 C7.67493333,9.58814815 7.6936,9.59 7.712,9.59 C7.90826667,9.59 8.07946667,9.38925926 8.10746667,9.11148148 L8.3168,7.0362963 C8.7232,7.09555556 9.15466667,7.12740741 9.60026667,7.14222222 L9.60026667,9.28296296 C9.60026667,9.58962963 9.7792,9.83851852 10.0002667,9.83851852 C10.2213333,9.83851852 10.4002667,9.58962963 10.4002667,9.28296296 L10.4002667,7.14222222 C10.8461333,7.12740741 11.2773333,7.09555556 11.684,7.0362963 L11.8933333,9.11148148 C11.9213333,9.38925926 12.0925333,9.59 12.2888,9.59 C12.3072,9.59 12.3261333,9.58814815 12.3448,9.58444444 C12.5634667,9.54185185 12.7162667,9.26111111 12.6853333,8.95740741 L12.4768,6.89037037 C12.8898667,6.79740741 13.276,6.67925926 13.6456,6.54703704 L14.0890667,8.50555556 C14.1426667,8.74296296 14.3005333,8.89444444 14.4706667,8.89444444 C14.5101333,8.89444444 14.5506667,8.8862963 14.5906667,8.86888889 C14.8013333,8.77703704 14.9184,8.46518519 14.852,8.17222222 L14.4138667,6.23740741 C14.768,6.07555556 15.0981333,5.89851852 15.4082667,5.71 L16.012,7.38740741 C16.0821333,7.58185185 16.2234667,7.69444444 16.3701333,7.69444444 C16.4304,7.69444444 16.4912,7.67555556 16.5488,7.63592593 C16.7461333,7.49888889 16.8264,7.16518519 16.7277333,6.89037037 L16.1301333,5.22925926 C16.4216,5.01407407 16.688,4.79148148 16.9341333,4.56592593 L17.8154667,6.03407407 C17.8946667,6.16592593 18.0085333,6.23407407 18.1229333,6.23407407 C18.2133333,6.23407407 18.304,6.19185185 18.3786667,6.10518519 C18.5485333,5.90888889 18.5714667,5.55814815 18.4298667,5.32259259 L17.5848,3.91481481 C17.8256,3.65074074 18.0376,3.39222222 18.2224,3.14592593 L19.2634667,4.29444444 C19.3368,4.37555556 19.4245333,4.41481481 19.512,4.41481481 C19.6296,4.41481481 19.7466667,4.34296296 19.8256,4.20481481 C19.9632,3.96407407 19.9346667,3.61481481 19.7613333,3.4237037 Z" id="Shape"></path>
                </g>
            </g>
        </g>
    </g>
</svg>