<?xml version="1.0" encoding="UTF-8"?>
<svg width="12px" height="18px" viewBox="0 0 12 18" version="1.1" xmlns="http://www.w3.org/2000/svg" xmlns:xlink="http://www.w3.org/1999/xlink">
    <!-- Generator: Sketch 51.3 (57544) - http://www.bohemiancoding.com/sketch -->
    <title>noun_Family_851645 (1)familymember</title>
    <desc>Created with Sketch.</desc>
    <defs></defs>
    <g id="Shared-with-me" stroke="none" stroke-width="1" fill="none" fill-rule="evenodd">
        <g id="shared-prayer-1" transform="translate(-185.000000, -114.000000)" fill="#087E8B" fill-rule="nonzero">
            <g id="noun_Family_851645-(1)" transform="translate(185.000000, 114.000000)">
                <g id="Group">
                    <path d="M5.77316129,12.291 C6.51987097,12.291 7.12741935,11.6632 7.12741935,10.8916 C7.12741935,10.12 6.51987097,9.4922 5.77316129,9.4922 C5.02645161,9.4922 4.41909677,10.12 4.41909677,10.8916 C4.41909677,11.6632 5.02625806,12.291 5.77316129,12.291 Z" id="Shape"></path>
                    <path d="M2.0936129,6.905 C3.11496774,6.905 3.94587097,6.0464 3.94587097,4.991 C3.94587097,3.9356 3.11496774,3.077 2.0936129,3.077 C1.07225806,3.077 0.241354839,3.9356 0.241354839,4.991 C0.241354839,6.0464 1.07225806,6.905 2.0936129,6.905 Z" id="Shape"></path>
                    <path d="M3.23167742,14.3042 C3.23167742,13.6432 3.52645161,13.0392 4.01593548,12.6396 C3.59303226,12.1856 3.33116129,11.5702 3.33116129,10.8916 C3.33116129,10.2184 3.58916129,9.6074 4.00645161,9.1544 C3.8283871,8.5722 3.30425806,8.159 2.69593548,8.159 L1.49129032,8.159 C0.732580645,8.159 0.11516129,8.7968 0.11516129,9.5808 L0.11516129,16.042 C1.04864516,16.7342 2.0996129,17.2656 3.23148387,17.599 L3.23148387,14.3042 L3.23167742,14.3042 Z" id="Shape"></path>
                    <path d="M4.48122581,17.8828 C5.33903226,18.013 6.21270968,18.0326 7.07535484,17.9412 C7.1223871,17.9362 7.17503226,17.9276 7.20270968,17.888 C7.22283871,17.8592 7.22419355,17.821 7.22458065,17.7854 C7.23929032,16.694 7.23735484,15.6024 7.21877419,14.511 C7.21432258,14.2462 7.20464516,13.9666 7.068,13.7424 C6.92167742,13.5024 6.64974194,13.3684 6.378,13.3288 C5.90690323,13.2602 4.85845161,13.2528 4.52109677,13.6692 C4.33509677,13.8988 4.32503226,14.225 4.32406452,14.5246 C4.3203871,15.5814 4.31690323,16.6382 4.31322581,17.6952 C4.31303226,17.7368 4.31380645,17.7812 4.33645161,17.8156 C4.36703226,17.8622 4.42722581,17.8746 4.48122581,17.8828 Z" id="Shape"></path>
                    <path d="M8.21516129,10.8916 C8.21516129,11.5694 7.95387097,12.1844 7.53154839,12.6382 C8.00941935,13.0328 8.31425806,13.6394 8.31425806,14.304 L8.31425806,17.7208 C9.61954839,17.404 10.8274839,16.8258 11.8846452,16.042 L11.8846452,7.7204 C11.8846452,6.7412 11.1123871,5.9444 10.1632258,5.9444 L8.74083871,5.9444 C7.79341935,5.9444 7.02251613,6.7412 7.02251613,7.7204 L7.02251613,8.7274 C7.73535484,9.1686 8.21516129,9.9724 8.21516129,10.8916 Z" id="Shape"></path>
                    <path d="M9.45270968,4.717 C10.7111613,4.717 11.7352258,3.659 11.7352258,2.3584 C11.7352258,1.0578 10.7111613,0 9.45270968,0 C8.19425806,0 7.17019355,1.058 7.17019355,2.3586 C7.17019355,3.6592 8.19425806,4.717 9.45270968,4.717 Z" id="Shape"></path>
                </g>
            </g>
        </g>
    </g>
</svg>