<?xml version="1.0" encoding="UTF-8"?>
<svg width="500px" height="370px" viewBox="0 0 500 370" version="1.1" xmlns="http://www.w3.org/2000/svg" xmlns:xlink="http://www.w3.org/1999/xlink">
    <!-- Generator: Sketch 51.3 (57544) - http://www.bohemiancoding.com/sketch -->
    <title>undraw_forgot_password_gi2d</title>
    <desc>Created with Sketch.</desc>
    <defs>
        <linearGradient x1="49.9987036%" y1="99.9974619%" x2="49.9987036%" y2="-0.00636991182%" id="linearGradient-1">
            <stop stop-color="#808080" stop-opacity="0.25" offset="0%"></stop>
            <stop stop-color="#808080" stop-opacity="0.12" offset="54%"></stop>
            <stop stop-color="#808080" stop-opacity="0.1" offset="100%"></stop>
        </linearGradient>
    </defs>
    <g id="mock" stroke="none" stroke-width="1" fill="none" fill-rule="evenodd">
        <g id="forgot-password-veriify-email" transform="translate(-830.000000, -327.000000)">
            <g id="undraw_forgot_password_gi2d" transform="translate(830.000000, 327.000000)">
                <g id="Group" transform="translate(380.692168, 217.213115)" fill="#EBEBF0">
                    <path d="M19.3351548,44.6948998 C19.3351548,44.6948998 -16.3296903,40.0637523 10.2686703,97.7868852 C10.2686703,97.7868852 34.5081967,87.3998179 35.4735883,63.9708561 C35.8798823,54.5337701 29.1639435,46.2841012 19.8406193,44.7677596 L19.3351548,44.6948998 Z" id="Shape"></path>
                    <path d="M19.8588342,44.6083789 C19.8588342,44.6083789 27.9326047,76.7941712 10.2959927,97.791439" id="Shape"></path>
                    <path d="M9.8132969,100.765027 C9.8132969,100.765027 22.654827,69.1165756 46.6347905,57.3770492 C56.7320719,52.5172468 64.9792064,44.5114061 70.136612,34.5628415 C72.546722,29.8243478 74.517619,24.875003 76.0245902,19.776867" id="Shape"></path>
                    <path d="M91.0928962,12.295082 C88.5928962,15.4371585 75.6557377,20.0364299 75.6557377,20.0364299 C75.6557377,20.0364299 77.2131148,6.37522769 79.7131148,3.25591985 C81.2671019,1.0370806 83.9237909,-0.136441469 86.6105517,0.209159631 C89.2973125,0.55476073 91.5705285,2.36242209 92.5123956,4.90230593 C93.4542628,7.44218976 92.9092675,10.2949307 91.0974499,12.3087432 L91.0928962,12.295082 Z" id="Shape"></path>
                    <path d="M86.6530055,37.1812386 C82.8460838,38.4608379 69.4945355,35.2777778 69.4945355,35.2777778 C69.4945355,35.2777778 78.2149362,24.6766849 82.0218579,23.3970856 C84.5348604,22.367156 87.4121199,22.8204206 89.4867747,24.5730598 C91.5614295,26.3256989 92.4890845,29.0867724 91.8935328,31.7365375 C91.2979811,34.3863025 89.2780849,36.4848949 86.6530055,37.1812386 Z" id="Shape"></path>
                    <path d="M62.5819672,66.6029144 C58.6520947,65.787796 48.7295082,56.2978142 48.7295082,56.2978142 C48.7295082,56.2978142 61.6074681,51.5482696 65.5418944,52.363388 C69.2362459,53.3930367 71.499934,57.1102979 70.719177,60.8651386 C69.93842,64.6199792 66.3805487,67.1267434 62.5819672,66.5983607 L62.5819672,66.6029144 Z" id="Shape"></path>
                    <path d="M39.3579235,84.7632058 C35.3460838,84.6220401 23.9617486,76.9489982 23.9617486,76.9489982 C23.9617486,76.9489982 35.856102,70.0819672 39.8679417,70.2276867 C43.684728,70.616063 46.5464315,73.8976689 46.4118583,77.731803 C46.2772851,81.565937 43.1925469,84.6388305 39.3579235,84.7586521 L39.3579235,84.7632058 Z" id="Shape"></path>
                    <path d="M57.0628415,26.3661202 C57.5774135,30.3506375 66.2704918,40.9699454 66.2704918,40.9699454 C66.2704918,40.9699454 71.9945355,28.492714 71.4845173,24.5081967 C71.3140471,21.7968094 69.6492107,19.4054639 67.1655517,18.3045009 C64.6818928,17.2035379 61.7919787,17.5758414 59.6684551,19.270341 C57.5449315,20.9648406 56.5405428,23.7000584 57.0628415,26.3661202 Z" id="Shape"></path>
                    <path d="M30.1684882,47.9690346 C31.848816,51.6120219 43.3242259,59.1484517 43.3242259,59.1484517 C43.3242259,59.1484517 45.0546448,45.5282332 43.3743169,41.8852459 C42.3986186,39.3514757 40.0949689,37.5704239 37.3971705,37.264054 C34.6993721,36.9576842 32.0550116,38.1768255 30.5360018,40.4272894 C29.0169919,42.6777533 28.8753486,45.5861695 30.1684882,47.9735883 L30.1684882,47.9690346 Z" id="Shape"></path>
                    <path d="M6.90801457,72.5318761 C7.94626594,76.4116576 17.9872495,85.7741348 17.9872495,85.7741348 C17.9872495,85.7741348 21.9945355,72.6457195 20.9517304,68.7659381 C20.4232568,66.0992826 18.4541478,63.948626 15.8443159,63.1876311 C13.234484,62.4266362 10.4180482,63.1818866 8.53913118,65.1465765 C6.66021414,67.1112665 6.03135458,69.9585897 6.90801457,72.5318761 Z" id="Shape"></path>
                    <path d="M91.0928962,12.295082 C88.5928962,15.4371585 75.6557377,20.0364299 75.6557377,20.0364299 C75.6557377,20.0364299 77.2131148,6.37522769 79.7131148,3.25591985 C81.2671019,1.0370806 83.9237909,-0.136441469 86.6105517,0.209159631 C89.2973125,0.55476073 91.5705285,2.36242209 92.5123956,4.90230593 C93.4542628,7.44218976 92.9092675,10.2949307 91.0974499,12.3087432 L91.0928962,12.295082 Z" id="Shape"></path>
                    <path d="M86.6530055,37.1812386 C82.8460838,38.4608379 69.4945355,35.2777778 69.4945355,35.2777778 C69.4945355,35.2777778 78.2149362,24.6766849 82.0218579,23.3970856 C84.5348604,22.367156 87.4121199,22.8204206 89.4867747,24.5730598 C91.5614295,26.3256989 92.4890845,29.0867724 91.8935328,31.7365375 C91.2979811,34.3863025 89.2780849,36.4848949 86.6530055,37.1812386 Z" id="Shape"></path>
                    <path d="M62.5819672,66.6029144 C58.6520947,65.787796 48.7295082,56.2978142 48.7295082,56.2978142 C48.7295082,56.2978142 61.6074681,51.5482696 65.5418944,52.363388 C69.2362459,53.3930367 71.499934,57.1102979 70.719177,60.8651386 C69.93842,64.6199792 66.3805487,67.1267434 62.5819672,66.5983607 L62.5819672,66.6029144 Z" id="Shape"></path>
                    <path d="M39.3579235,84.7632058 C35.3460838,84.6220401 23.9617486,76.9489982 23.9617486,76.9489982 C23.9617486,76.9489982 35.856102,70.0819672 39.8679417,70.2276867 C43.684728,70.616063 46.5464315,73.8976689 46.4118583,77.731803 C46.2772851,81.565937 43.1925469,84.6388305 39.3579235,84.7586521 L39.3579235,84.7632058 Z" id="Shape"></path>
                    <path d="M57.0628415,26.3661202 C57.5774135,30.3506375 66.2704918,40.9699454 66.2704918,40.9699454 C66.2704918,40.9699454 71.9945355,28.492714 71.4845173,24.5081967 C71.3140471,21.7968094 69.6492107,19.4054639 67.1655517,18.3045009 C64.6818928,17.2035379 61.7919787,17.5758414 59.6684551,19.270341 C57.5449315,20.9648406 56.5405428,23.7000584 57.0628415,26.3661202 Z" id="Shape"></path>
                    <path d="M30.1684882,47.9690346 C31.848816,51.6120219 43.3242259,59.1484517 43.3242259,59.1484517 C43.3242259,59.1484517 45.0546448,45.5282332 43.3743169,41.8852459 C42.3986186,39.3514757 40.0949689,37.5704239 37.3971705,37.264054 C34.6993721,36.9576842 32.0550116,38.1768255 30.5360018,40.4272894 C29.0169919,42.6777533 28.8753486,45.5861695 30.1684882,47.9735883 L30.1684882,47.9690346 Z" id="Shape"></path>
                    <path d="M6.90801457,72.5318761 C7.94626594,76.4116576 17.9872495,85.7741348 17.9872495,85.7741348 C17.9872495,85.7741348 21.9945355,72.6457195 20.9517304,68.7659381 C20.4232568,66.0992826 18.4541478,63.948626 15.8443159,63.1876311 C13.234484,62.4266362 10.4180482,63.1818866 8.53913118,65.1465765 C6.66021414,67.1112665 6.03135458,69.9585897 6.90801457,72.5318761 Z" id="Shape"></path>
                    <path d="M26.917122,115.163934 C26.917122,115.163934 39.7586521,83.5154827 63.7386157,71.7759563 C73.8315175,66.912569 82.0736819,58.9053015 87.226776,48.9571949 C89.6368859,44.2187012 91.607783,39.2693564 93.1147541,34.1712204" id="Shape"></path>
                    <path d="M108.173953,26.6848816 C105.673953,29.8269581 92.7367942,34.4262295 92.7367942,34.4262295 C92.7367942,34.4262295 94.2941712,20.7650273 96.7941712,17.6457195 C99.3704701,14.7821956 103.730546,14.4187245 106.745416,16.816149 C109.760286,19.2135735 110.388185,23.5434828 108.178506,26.6985428 L108.173953,26.6848816 Z" id="Shape"></path>
                    <path d="M103.743169,51.5710383 C99.9362477,52.8506375 86.5846995,49.6675774 86.5846995,49.6675774 C86.5846995,49.6675774 95.3051002,39.0664845 99.1120219,37.7868852 C102.824307,36.8021432 106.663536,38.8681636 107.88672,42.5088497 C109.109904,46.1495358 107.296959,50.114552 103.743169,51.5710383 Z" id="Shape"></path>
                    <path d="M79.6721311,81.010929 C75.7422587,80.1958106 65.8196721,70.7058288 65.8196721,70.7058288 C65.8196721,70.7058288 78.6976321,65.9562842 82.6320583,66.7714026 C86.3264098,67.8010513 88.590098,71.5183125 87.809341,75.2731531 C87.028584,79.0279938 83.4707126,81.534758 79.6721311,81.0063752 L79.6721311,81.010929 Z" id="Shape"></path>
                    <path d="M56.4435337,99.1484517 C52.431694,99.007286 41.0473588,91.3342441 41.0473588,91.3342441 C41.0473588,91.3342441 52.9417122,84.4763206 56.9535519,84.6174863 C60.7703382,85.0058626 63.6320417,88.2874686 63.4974685,92.1216026 C63.3628953,95.9557366 60.2781571,99.0286301 56.4435337,99.1484517 Z" id="Shape"></path>
                    <path d="M74.1484517,40.7741348 C74.6630237,44.7586521 83.356102,55.3779599 83.356102,55.3779599 C83.356102,55.3779599 89.0801457,42.9007286 88.5701275,38.9162113 C88.3996573,36.204824 86.7348209,33.8134785 84.2511619,32.7125155 C81.767503,31.6115525 78.8775889,31.9838559 76.7540653,33.6783556 C74.6305417,35.3728552 73.626153,38.108073 74.1484517,40.7741348 Z" id="Shape"></path>
                    <path d="M47.2586521,62.3406193 C48.93898,65.9836066 60.4143898,73.5200364 60.4143898,73.5200364 C60.4143898,73.5200364 62.1448087,59.8998179 60.4644809,56.2568306 C58.6347243,52.8786991 54.4963418,51.5017783 51.0074328,53.1102856 C47.5185239,54.7187929 45.878066,58.7599584 47.2586521,62.345173 L47.2586521,62.3406193 Z" id="Shape"></path>
                    <path d="M23.9981785,86.9307832 C25.0364299,90.8105647 35.0774135,100.173042 35.0774135,100.173042 C35.0774135,100.173042 39.0846995,87.0446266 38.0418944,83.1648452 C36.8047387,79.5333849 32.9635312,77.4834041 29.2580354,78.4770633 C25.5525397,79.4707225 23.2523887,83.1675592 23.9981785,86.9307832 Z" id="Shape"></path>
                </g>
                <path d="M5.46448087,195.810565 C13.3714698,229.612209 30.1100551,258.831043 56.563852,272.994023 C111.539287,302.426965 235.523241,287.248113 328.056874,269.805189 C374.810826,261.02388 417.250178,236.762354 448.542805,200.926366 L5.46448087,195.810565 Z" id="Shape" fill="#EBEBF0"></path>
                <path d="M490.730149,36.8617878 L439.952381,36.8617878 C437.528394,36.8617878 435.563364,34.8921026 435.563364,32.4623728 C435.563364,30.0326431 437.528394,28.0629579 439.952381,28.0629579 L448.730416,28.0629579 C446.306429,28.0629579 444.341399,26.0932728 444.341399,23.663543 C444.341399,21.2338132 446.306429,19.2641281 448.730416,19.2641281 L442.462344,19.2641281 C440.038356,19.2641281 438.073326,17.2944429 438.073326,14.8647132 C438.073326,12.4349834 440.038356,10.4652982 442.462344,10.4652982 L468.964995,10.4652982 C463.084121,7.7256522 456.210195,5.77593744 448.293109,4.75313625 C376.028059,-4.55252811 350.226922,1.60254331 341.125462,7.94938996 C329.896683,15.7573812 317.369648,21.5015057 303.981663,24.2685482 C259.389973,33.4783249 176.005472,44.5738914 100.42873,20.7070083 C62.865845,8.83520884 34.9465,28.8894178 18.2149362,62.3861566 L499.544627,62.3861566 C498.915997,52.6512811 497.034664,43.6652421 493.581758,35.7933258 C492.78999,36.4810423 491.777821,36.8602892 490.730149,36.8617878 Z" id="Shape" fill="#EBEBF0"></path>
                <path d="M1.09101992,125.227687 C-0.856991738,144.849694 -0.194225378,164.643002 3.06202531,184.091141 L448.554763,200.364299 C460.955876,186.114953 471.368278,170.253939 479.508197,153.213517 L1.09101992,125.227687 Z M177.288887,167.217799 L168.517231,167.217799 C170.939457,167.217799 172.903059,169.179188 172.903059,171.598684 C172.903059,174.01818 170.939457,175.97957 168.517231,175.97957 L117.77636,175.97957 C115.354134,175.97957 113.390531,174.01818 113.390531,171.598684 C113.390531,169.179188 115.354134,167.217799 117.77636,167.217799 L126.548017,167.217799 C124.12579,167.217799 122.162188,165.25641 122.162188,162.836914 C122.162188,160.417418 124.12579,158.456029 126.548017,158.456029 L120.284498,158.456029 C117.862272,158.456029 115.89867,156.49464 115.89867,154.075144 C115.89867,151.655648 117.862272,149.694259 120.284498,149.694259 L171.025369,149.694259 C173.447595,149.694259 175.411198,151.655648 175.411198,154.075144 C175.411198,156.49464 173.447595,158.456029 171.025369,158.456029 L177.288887,158.456029 C179.711114,158.456029 181.674716,160.417418 181.674716,162.836914 C181.674716,165.25641 179.711114,167.217799 177.288887,167.217799 Z" id="Shape" fill="#EBEBF0"></path>
                <path d="M499.773845,62.3861566 L13.0102877,74.197206 C7.09253592,89.3744045 3.18836865,106.532225 1.36612022,124.31694 L491.245722,124.31694 C494.444233,113.869752 496.809889,103.186876 498.320602,92.3680513 C499.778401,81.9152726 500.36152,71.8031972 499.773845,62.3861566 Z M100.186653,101.076429 L91.407971,101.076429 C93.832137,101.076429 95.7973119,103.036035 95.7973119,105.453331 C95.7973119,107.870628 93.832137,109.830234 91.407971,109.830234 L40.6264627,109.830234 C38.2022967,109.830234 36.2371218,107.870628 36.2371218,105.453331 C36.2371218,103.036035 38.2022967,101.076429 40.6264627,101.076429 L49.4051446,101.076429 C46.9809785,101.076429 45.0158037,99.1168229 45.0158037,96.6995265 C45.0158037,94.2822301 46.9809785,92.3226242 49.4051446,92.3226242 L43.13661,92.3226242 C40.7124439,92.3226242 38.747269,90.3630182 38.747269,87.9457218 C38.747269,85.5284254 40.7124439,83.5688195 43.13661,83.5688195 L93.9181182,83.5688195 C96.3422843,83.5688195 98.3074591,85.5284254 98.3074591,87.9457218 C98.3074591,90.3630182 96.3422843,92.3226242 93.9181182,92.3226242 L100.186653,92.3226242 C102.610819,92.3226242 104.575994,94.2822301 104.575994,96.6995265 C104.575994,99.1168229 102.610819,101.076429 100.186653,101.076429 Z" id="Shape" fill="#EBEBF0"></path>
                <path d="M427.595628,369.526409 C427.595628,369.526409 407.303663,258.231708 368.609582,240.171365 C335.821846,224.85696 300.365554,214.533511 290.283325,211.732928 C288.777799,209.307874 287.037443,207.036747 285.08738,204.952331 C271.307423,190.566899 263.02852,190.835572 261.689688,191.01317 C261.054253,188.160424 260.597976,185.270707 260.323532,182.360964 C260.282547,181.905584 260.241563,181.482082 260.205132,181.031256 L260.323532,180.972057 C260.241563,180.11139 260.168701,179.2234 260.104947,178.308088 C265.730141,175.305926 270.909175,171.533971 275.492413,167.101203 C275.551614,167.297016 275.601706,167.49283 275.66546,167.693196 C285.595893,159.299038 295.321404,150.67719 304.84199,141.827652 C307.574302,139.272974 310.443229,136.499715 311.372214,132.897664 C311.669721,131.658077 311.784779,130.381716 311.713753,129.108909 C311.836707,126.376633 311.19006,123.585158 311.080768,120.816452 C311.080768,120.361072 311.13086,119.937569 311.19006,119.504959 C311.8276,114.973935 314.978865,111.253486 317.565453,107.451069 C324.027638,97.8419559 327.400719,86.4883422 327.233281,74.9096646 C327.304038,69.361643 326.536405,63.8347557 324.956355,58.5160099 C322.938999,51.7672887 318.740347,44.677033 311.750184,43.2016041 C309.045196,42.63238 306.235469,42.9875758 303.475835,42.8099779 C292.05022,42.081371 283.498085,32.7916334 274.385827,25.9837129 C263.264446,17.7149856 250.112447,12.6103516 236.324731,11.2112085 C232.021341,10.7558292 227.576781,10.7239526 223.482868,12.0900905 C214.288641,15.1502394 208.705618,24.5993598 199.848376,28.4837452 C193.299936,31.3708499 185.731434,30.9018093 178.900656,33.0694147 C168.731904,36.3026077 160.102354,46.7307936 159.874662,57.4458685 C159.874662,57.8420485 159.874662,58.2382285 159.874662,58.6344085 C159.874662,58.7027154 159.874662,58.7710223 159.874662,58.8347754 C159.760815,64.2492352 161.696203,69.7638785 161.851034,75.3058446 C161.851034,75.8067618 161.858623,76.3091969 161.873803,76.81315 C161.82371,82.796834 161.108756,88.7987331 158.92746,94.4226675 C157.752567,97.4509398 156.240688,100.95736 156.486596,103.985633 C156.34998,105.839026 156.709734,107.578575 157.998475,108.994805 L160.197985,107.054889 C159.460322,111.0473 159.089913,115.098886 159.091399,119.158871 C159.091399,139.623617 168.399473,157.948079 183.081092,170.279751 C183.166097,171.642853 183.248067,173.103102 183.327,174.6605 C183.673093,181.409221 183.946324,189.874722 183.868909,199.100707 L162.392942,218.841399 L107.182039,243.88726 C107.182039,243.88726 56.6889263,254.552244 67.5635252,325.486677 L72.7549166,369.530962 L118.853562,369.530962 L118.748823,369.763206 L187.170451,369.763206 L187.211436,369.530962 L350.002542,369.530962 L349.970665,369.763206 L356.346058,369.763206 L356.346058,369.530962 L427.595628,369.526409 Z M262.09498,192.142511 C263.490537,195.029181 264.589106,198.050205 265.373754,201.159021 C263.762561,198.16742 262.571884,194.967805 261.835411,191.650701 L261.903719,191.773654 L262.09498,192.142511 Z M183.850693,201.250097 C183.850693,202.118353 183.835514,202.9942 183.805155,203.877635 L183.695862,204.032464 C183.688498,203.095095 183.740211,202.158193 183.850693,201.227328 L183.850693,201.250097 Z" id="Shape" fill="url(#linearGradient-1)" fill-rule="nonzero"></path>
                <path d="M280.054645,212.573611 L270.94542,299.62274 L222.211065,315.118397 C222.211065,315.118397 158.901951,303.268777 175.298556,269.087182 C186.962919,244.772674 186.639542,201.321029 185.48267,178.259846 C185.027209,168.898647 184.407781,162.896358 184.407781,162.896358 C184.407781,162.896358 267.30173,90.4313759 260.469811,155.604285 C259.148973,168.22413 259.071545,178.091217 259.804837,185.802585 C262.879201,217.905939 280.054645,212.573611 280.054645,212.573611 Z" id="Shape" fill="#FFE0E5" fill-rule="nonzero"></path>
                <path d="M280.054645,212.573611 L270.94542,299.62274 L222.211065,315.118397 C222.211065,315.118397 158.901951,303.268777 175.298556,269.087182 C186.962919,244.772674 186.639542,201.321029 185.48267,178.259846 C185.027209,168.898647 184.407781,162.896358 184.407781,162.896358 C184.407781,162.896358 267.30173,90.4313759 260.469811,155.604285 C259.148973,168.22413 259.071545,178.091217 259.804837,185.802585 C262.879201,217.905939 280.054645,212.573611 280.054645,212.573611 Z" id="Shape" fill="#000000" fill-rule="nonzero" opacity="0.03"></path>
                <path d="M260.528512,154.280002 C259.206975,166.919266 259.129506,176.801536 259.863187,184.52477 C235.897089,197.630585 206.352739,194.62919 185.501687,176.970424 C185.045985,167.59482 184.42623,161.583296 184.42623,161.583296 C184.42623,161.583296 267.364046,89.0068077 260.528512,154.280002 Z" id="Shape" fill="#000000" fill-rule="nonzero" opacity="0.1"></path>
                <circle id="Oval" fill="#FFE0E5" fill-rule="nonzero" cx="228.142077" cy="123.406193" r="66.0291439"></circle>
                <circle id="Oval" fill="#FFE0E5" fill-rule="nonzero" opacity="0.03" cx="228.142077" cy="123.406193" r="66.0291439"></circle>
                <path d="M421.220401,369.307832 L78.8867659,369.307832 L73.879226,326.039492 C63.4089154,256.354691 112.118621,245.879198 112.118621,245.879198 L165.380636,221.284562 L186.548873,201.472217 C179.72041,227.433221 231.389117,281.404783 231.389117,281.404783 C231.721109,281.096084 232.035703,280.76917 232.331444,280.425552 C233.724451,278.904328 237.052189,275.096714 244.845742,265.650552 C247.631755,262.266512 250.995911,258.162852 255.047466,253.180161 C274.531349,229.223164 264.534478,200.91656 261.548163,195.063948 C261.247711,194.490073 261.161217,194.321554 261.092933,194.203135 C261.034842,194.101737 269.341288,200.558588 286.012272,213.573688 C286.012272,213.573688 286.972809,213.828744 288.743657,214.329746 C298.485598,217.062483 332.709857,227.223711 364.311986,242.26743 C401.645472,259.99834 421.220401,369.307832 421.220401,369.307832 Z" id="Shape" fill="#0C4F6C" fill-rule="nonzero"></path>
                <path d="M304.659384,265.047667 C300.559826,260.950105 272.773931,255.941975 272.773931,255.941975 C273.684944,266.868805 239.977465,283.714334 239.977465,283.714334 L242.482751,369.307832 L226.321381,369.307832 L223.588342,292.364741 L231.331952,281.437911 L232.274851,280.459049 C236.762132,275.810085 240.94477,270.876703 244.796724,265.689618 C247.584423,262.306854 250.950616,258.20474 255.004624,253.223926 C274.5003,229.275958 264.497378,200.980022 261.509256,195.129616 L261.322498,194.765388 C261.213177,194.551404 261.126631,194.387502 261.05375,194.269128 C261.034918,194.226083 261.01204,194.184923 260.985424,194.146201 C260.966561,194.117088 260.949816,194.086657 260.935318,194.055144 C260.935318,194.055144 269.134434,192.234006 283.710641,207.713681 C285.594926,209.769593 287.273134,212.005097 288.721212,214.388153 C300.564381,233.382625 308.27155,268.658073 304.659384,265.047667 Z" id="Shape" fill="#073E55" fill-rule="nonzero"></path>
                <path d="M304.659384,265.047667 C300.559826,260.950105 272.773931,255.941975 272.773931,255.941975 C273.684944,266.868805 239.977465,283.714334 239.977465,283.714334 L242.482751,369.307832 L226.321381,369.307832 L223.588342,292.364741 L231.331952,281.437911 L232.274851,280.459049 C236.762132,275.810085 240.94477,270.876703 244.796724,265.689618 C247.584423,262.306854 250.950616,258.20474 255.004624,253.223926 C274.5003,229.275958 264.497378,200.980022 261.509256,195.129616 L261.322498,194.765388 C261.213177,194.551404 261.126631,194.387502 261.05375,194.269128 C260.935318,194.055144 269.134434,192.234006 283.710641,207.713681 C285.594926,209.769593 287.273134,212.005097 288.721212,214.388153 C300.564381,233.382625 308.27155,268.658073 304.659384,265.047667 Z" id="Shape" fill="#0C4F6C" fill-rule="nonzero" opacity="0.1"></path>
                <path d="M119.307832,300.091075 C119.307832,300.091075 140.92657,343.950252 142.076503,369.763206" id="Shape" fill="#000000" fill-rule="nonzero" opacity="0.1"></path>
                <polygon id="Shape" fill="#000000" fill-rule="nonzero" opacity="0.1" points="352.459016 325.136612 346.083789 369.763206 352.459016 369.763206"></polygon>
                <path d="M122.95082,369.763206 L156.909295,292.519838 C156.909295,292.519838 166.481483,274.291314 168.760575,256.062791 C170.210078,244.474007 175.711807,228.647092 179.527008,218.653304 C182.017349,212.119694 185.681606,206.096382 190.339022,200.880494 C200.21205,189.834008 218.143948,172.020184 228.016976,175.848174 C242.147348,181.316731 215.709877,201.82382 215.709877,201.82382 C215.709877,201.82382 254.454447,216.862351 228.016976,261.522234 C201.579505,306.182116 201.123687,297.979281 201.123687,297.979281 L188.13286,369.754092 L122.95082,369.763206 Z" id="Shape" fill="#FFE0E5" fill-rule="nonzero"></path>
                <circle id="Oval" fill="#FFFFFF" fill-rule="nonzero" opacity="0.15" cx="248.178506" cy="86.5209472" r="1.36612022"></circle>
                <circle id="Oval" fill="#FFFFFF" fill-rule="nonzero" opacity="0.15" cx="241.803279" cy="89.2531876" r="1.36612022"></circle>
                <path d="M181.051023,40.4177664 C187.641613,38.2871931 194.956395,38.7469963 201.27826,35.9153369 C209.827354,32.0821259 215.215515,22.8041164 224.087989,19.7994617 C228.041433,18.4610246 232.331921,18.5111022 236.481215,18.9390378 C249.824005,20.3270217 262.530619,25.3452279 273.219089,33.447878 C282.014134,40.135511 290.267175,49.2541827 301.294003,49.9689263 C303.958478,50.1419216 306.668499,49.7913785 309.278319,50.3513369 C316.037431,51.7990342 320.086523,58.7598176 322.031362,65.3746104 C326.584442,81.2387112 323.979248,98.2991617 314.898767,112.083333 C312.402814,115.816389 309.360302,119.472052 308.745424,123.919852 C308.144209,128.281154 310.002509,132.801793 308.918501,137.072045 C308.007569,140.609343 305.274774,143.331742 302.614853,145.840174 C293.429626,154.523322 284.042475,162.983398 274.453401,171.220401 C269.470605,155.395886 276.780831,138.355852 275.642167,121.807489 C275.186701,115.361138 272.909372,108.322962 267.220604,105.281888 C261.896208,102.441123 255.091549,103.916136 249.703388,101.184631 C243.691239,98.1572141 241.222614,90.9870154 236.677065,86.0247826 C228.934146,77.5571194 215.493349,76.4645177 204.666926,80.2886237 C193.840503,84.1127297 184.990802,91.9794619 176.428045,99.6504364 L160.864777,113.603871 C157.82682,110.180385 160.131477,104.926792 161.775709,100.647435 C164.226115,94.232953 164.763565,87.3176947 164.599597,80.507144 C164.467512,75.0441355 162.581883,69.6494146 162.691195,64.3320863 C162.909819,53.8431099 171.235734,43.5908639 181.051023,40.4177664 Z" id="Shape" fill="#000000" fill-rule="nonzero"></path>
                <path d="M181.051023,39.0516462 C187.641613,36.9210729 194.956395,37.3808761 201.27826,34.5492166 C209.827354,30.7160057 215.215515,21.4379962 224.087989,18.4333415 C228.041433,17.0949044 232.331921,17.144982 236.481215,17.5729176 C249.824005,18.9609015 262.530619,23.9791077 273.219089,32.0817578 C282.014134,38.7693907 290.267175,47.8880625 301.294003,48.6028061 C303.958478,48.7758014 306.668499,48.4252583 309.278319,48.9852167 C316.037431,50.432914 320.086523,57.3936973 322.031362,64.0084902 C326.584442,79.872591 323.979248,96.9330414 314.898767,110.717213 C312.402814,114.450269 309.360302,118.105932 308.745424,122.553732 C308.144209,126.915033 310.002509,131.435673 308.918501,135.705925 C308.007569,139.243223 305.274774,141.965622 302.614853,144.474053 C293.429626,153.157202 284.042475,161.617278 274.453401,169.854281 C269.470605,154.029766 276.780831,136.989732 275.642167,120.441368 C275.186701,113.995018 272.909372,106.956842 267.220604,103.915768 C261.896208,101.075003 255.091549,102.550015 249.703388,99.8185111 C243.691239,96.7910939 241.222614,89.6208952 236.677065,84.6586624 C228.934146,76.1909992 215.493349,75.0983975 204.666926,78.9225035 C193.840503,82.7466094 184.990802,90.6133417 176.428045,98.2843162 L160.864777,112.237751 C157.82682,108.814265 160.131477,103.560672 161.775709,99.2813153 C164.226115,92.8668327 164.763565,85.9515744 164.599597,79.1410238 C164.467512,73.6780153 162.581883,68.2832943 162.691195,62.965966 C162.909819,52.4769897 171.235734,42.2247436 181.051023,39.0516462 Z" id="Shape" fill="#000000" fill-rule="nonzero"></path>
            </g>
        </g>
    </g>
</svg>