<?xml version="1.0" encoding="UTF-8"?>
<svg width="19px" height="24px" viewBox="0 0 19 24" version="1.1" xmlns="http://www.w3.org/2000/svg" xmlns:xlink="http://www.w3.org/1999/xlink">
    <!-- Generator: Sketch 51.3 (57544) - http://www.bohemiancoding.com/sketch -->
    <title>Group 4</title>
    <desc>Created with Sketch.</desc>
    <defs></defs>
    <g id="Web_admin" stroke="none" stroke-width="1" fill="none" fill-rule="evenodd">
        <g id="iPhone-X" transform="translate(-84.000000, -19.000000)" fill="#555555">
            <g id="Group-4" transform="translate(84.000000, 20.000000)">
                <g id="Group-2">
                    <path d="M15.6992481,15.3292515 L13.2631579,14.4468774 C12.8571429,14.3056975 12.4142174,14.4115824 12.0820232,14.6939421 L8.57552973,18.0469639 L2.48530417,14.9057119 C2.15311005,14.7292371 1.74709501,14.7292371 1.37799043,14.9410069 C1.04579631,15.0821867 0.861244019,15.4351364 0.861244019,15.823381 L0.861244019,16.3528055 C0.861244019,16.7410501 1.08270677,17.0939998 1.41490089,17.2704746 L9.68284347,21.8588201 C9.86739576,21.964705 10.0519481,22 10.2365003,22 C10.3472317,22 10.4579631,21.964705 10.6056049,21.9294101 L15.6992481,20.2705467 L18.9473684,20.2705467 L18.9473684,15.3292515 L15.6992481,15.3292515 Z M10.3472317,21.2588057 C10.2365003,21.2941007 10.125769,21.2941007 10.0519481,21.2235108 L1.78400547,16.6351652 C1.67327409,16.5645753 1.59945318,16.4586904 1.59945318,16.3175105 L1.59945318,15.7880861 C1.59945318,15.6116112 1.71018455,15.5057263 1.78400547,15.4704314 C1.82091593,15.4351364 1.89473684,15.4351364 1.96855776,15.4351364 C2.00546822,15.4351364 2.07928913,15.4351364 2.15311005,15.4704314 L10.125769,19.5999423 L12.8940533,17.6940142 L12.4511278,17.1292947 L10.0519481,18.7528632 L9.23991798,18.3293236 L12.5618592,15.1527767 C12.6725906,15.0468918 12.8202324,15.0115968 12.9678742,15.0821867 L15.2194122,15.8939709 L15.2194122,19.6352373 L10.3472317,21.2588057 Z M18.2091593,19.5646474 L15.9945318,19.5646474 L15.9945318,16.0351508 L18.2091593,16.0351508 L18.2091593,19.5646474 Z" id="Shape" stroke="#555555" stroke-width="0.1" fill-rule="nonzero"></path>
                    <path d="M8.61244019,11 L8.61244019,10.5769231 C8.61244019,10.1115385 8.22488038,9.73076923 7.75119617,9.73076923 L7.75119617,9.30769231 L6.88995215,9.30769231 L6.88995215,9.73076923 C6.41626794,9.73076923 6.02870813,10.1115385 6.02870813,10.5769231 L6.02870813,11.4230769 C6.02870813,11.8884615 6.41626794,12.2692308 6.88995215,12.2692308 L7.75119617,12.2692308 L7.75119617,13.1153846 L6.88995215,13.1153846 L6.88995215,12.6923077 L6.02870813,12.6923077 L6.02870813,13.1153846 C6.02870813,13.5807692 6.41626794,13.9615385 6.88995215,13.9615385 L6.88995215,14.3846154 L7.75119617,14.3846154 L7.75119617,13.9615385 C8.22488038,13.9615385 8.61244019,13.5807692 8.61244019,13.1153846 L8.61244019,12.2692308 C8.61244019,11.8038462 8.22488038,11.4230769 7.75119617,11.4230769 L6.88995215,11.4230769 L6.88995215,10.5769231 L7.75119617,10.5769231 L7.75119617,11 L8.61244019,11 Z" id="Path"></path>
                    <path d="M10.7029143,9.75897436 L8.44802088,5.54700855 L9.78686385,3.4034188 L9.78686385,2.53846154 L4.85428447,2.53846154 L4.85428447,3.4034188 L6.19312745,5.54700855 L3.93823401,9.75897436 C3.62113963,10.3982906 3.44497608,11.0752137 3.44497608,11.8273504 L3.44497608,11.9401709 C3.44497608,14.234188 5.17137886,16.0769231 7.32057416,16.0769231 C9.46976946,16.0769231 11.1961722,14.234188 11.1961722,11.9401709 L11.1961722,11.8273504 C11.1961722,11.0752137 11.0200087,10.3982906 10.7029143,9.75897436 Z M5.62940409,3.29059829 L9.01174424,3.29059829 L7.84906481,5.17094017 L6.82731622,5.17094017 L5.62940409,3.29059829 Z M10.4915181,11.9401709 C10.4915181,13.8205128 9.08220966,15.3247863 7.32057416,15.3247863 C5.55893867,15.3247863 4.14963027,13.8205128 4.14963027,11.9401709 L4.14963027,11.8273504 C4.14963027,11.225641 4.29056111,10.6615385 4.57242279,10.1350427 L6.82731622,5.92307692 L6.96824706,5.92307692 L6.96824706,8.55555556 L7.67290126,8.55555556 L7.67290126,5.92307692 L7.8138321,5.92307692 L10.0687255,10.1350427 C10.3505872,10.6615385 10.4915181,11.225641 10.4915181,11.8273504 L10.4915181,11.9401709 Z" id="Shape" stroke="#555555" stroke-width="0.1" fill-rule="nonzero"></path>
                    <path d="M15.1359055,10.5907945 L13.3034714,7.19230769 L14.4029319,5.90920555 L14.4029319,5.07692308 L10.3349282,5.07692308 L10.3349282,5.87452711 L11.3610913,7.19230769 L10.7380637,8.37137453 L11.39774,8.68348045 L12.0207676,7.50441362 L12.1673623,7.50441362 L12.1673623,9.5851198 L12.9003359,9.5851198 L12.9003359,7.98991173 L14.4762293,10.9029004 C14.6594727,11.2150063 14.73277,11.5617907 14.73277,11.9432535 L14.73277,12.1860025 C14.73277,12.5674653 14.622824,12.9142497 14.4762293,13.2263556 L15.1359055,13.5384615 C15.3557976,13.1223203 15.5023923,12.6368222 15.5023923,12.1513241 L15.5023923,11.908575 C15.4657437,11.4924338 15.3557976,11.0069357 15.1359055,10.5907945 Z M11.1411992,5.7704918 L13.5233635,5.7704918 L12.6437952,6.81084489 L11.9474702,6.81084489 L11.1411992,5.7704918 Z" id="Shape" stroke="#555555" stroke-width="0.1" fill-rule="nonzero"></path>
                    <rect id="Rectangle" x="12.0574163" y="11" width="1" height="1"></rect>
                    <polygon id="Path" stroke="#555555" stroke-width="0.1" points="11.5335668 0 11.5335668 0.872323553 13.1317516 0.872323553 10.3349282 3.62014274 10.9564445 4.23076923 13.7532679 1.48295004 13.7532679 3.05313243 14.6411483 3.05313243 14.6411483 0"></polygon>
                    <polygon id="Rectangle" stroke="#555555" stroke-width="0.1" transform="translate(1.346704, 13.169777) rotate(-45.000000) translate(-1.346704, -13.169777) " points="0.0548384448 12.6697774 2.6385705 12.6697774 2.6385705 13.3748989 0.0548384448 13.3748989"></polygon>
                </g>
            </g>
        </g>
    </g>
</svg>