<?xml version="1.0" encoding="UTF-8"?>
<svg width="20px" height="20px" viewBox="0 0 20 20" version="1.1" xmlns="http://www.w3.org/2000/svg" xmlns:xlink="http://www.w3.org/1999/xlink">
    <!-- Generator: Sketch 52.2 (67145) - http://www.bohemiancoding.com/sketch -->
    <title>Shape Copy</title>
    <desc>Created with Sketch.</desc>
    <defs>
        <linearGradient x1="8.51990086%" y1="0%" x2="138.615896%" y2="134.487026%" id="linearGradient-1">
            <stop stop-color="#EB0202" offset="0%"></stop>
            <stop stop-color="#FF5A5F" offset="100%"></stop>
        </linearGradient>
    </defs>
    <g id="Page-1" stroke="none" stroke-width="1" fill="none" fill-rule="evenodd" opacity="0.891764323">
        <g id="bulletin-church-copy" transform="translate(-370.000000, -160.000000)" fill="url(#linearGradient-1)">
            <g id="card-prayer-copy" transform="translate(270.000000, 80.000000)">
                <path d="M119.411068,80.0000046 L100.588932,80.0000046 C100.42572,79.9994218 100.284377,80.0543884 100.164904,80.1649044 C100.054388,80.284377 99.9994218,80.4257197 100.000005,80.5889325 L100.000005,99.4110683 C99.9994218,99.5742504 100.054388,99.7116669 100.164904,99.8233178 C100.284377,99.9416555 100.42572,100.000548 100.588932,99.9999962 L119.411068,99.9999962 C119.57425,100.000548 119.711667,99.9416555 119.823318,99.8233178 C119.941655,99.7116669 120.000548,99.5742504 119.999996,99.4110683 L119.999996,80.5889325 C120.000548,80.4257197 119.941655,80.284377 119.823318,80.1649044 C119.711667,80.0543884 119.57425,79.9994218 119.411068,80.0000046 Z M119,99 L101,99 L101,81 L119,81 L119,99 Z M114.822581,93.483871 C115.097581,93.483871 115.322581,93.258871 115.322581,92.983871 C115.322581,92.983871 115.322581,92.233871 115.322581,91.483871 L116.322581,91.483871 C116.597581,91.483871 116.822581,91.258871 116.822581,90.983871 C116.822581,90.708871 116.597581,90.483871 116.322581,90.483871 L115.322581,90.483871 L115.322581,89.983871 C115.322581,89.708871 115.547581,89.483871 115.822581,89.483871 L116.822581,89.483871 C117.097581,89.483871 117.322581,89.258871 117.322581,88.983871 C117.322581,88.708871 117.097581,88.483871 116.822581,88.483871 L115.822581,88.483871 C114.997581,88.483871 114.322581,89.158871 114.322581,89.983871 L114.322581,92.983871 C114.322581,93.258871 114.547581,93.483871 114.822581,93.483871 Z M104.435484,93.483871 L105.185484,93.483871 C106.010484,93.483871 106.685484,92.808871 106.685484,91.983871 L106.685484,90.983871 C106.685484,90.708871 106.460484,90.483871 106.185484,90.483871 L105.210484,90.483871 C104.960484,90.483871 104.735484,90.658871 104.685484,90.908871 C104.635484,91.233871 104.885484,91.483871 105.185484,91.483871 L105.685484,91.483871 L105.685484,91.983871 C105.685484,92.258871 105.460484,92.483871 105.185484,92.483871 L104.435484,92.483871 C104.160484,92.483871 103.935484,92.258871 103.935484,91.983871 L103.935484,89.983871 C103.935484,89.708871 104.160484,89.483871 104.435484,89.483871 L106.160484,89.483871 C106.410484,89.483871 106.635484,89.308871 106.685484,89.058871 C106.735484,88.733871 106.485484,88.483871 106.185484,88.483871 L104.435484,88.483871 C103.610484,88.483871 102.935484,89.158871 102.935484,89.983871 L102.935484,91.983871 C102.935484,92.808871 103.610484,93.483871 104.435484,93.483871 Z M110.596774,93.483871 C110.871774,93.483871 111.096774,93.258871 111.096774,92.983871 L111.096774,88.983871 C111.096774,88.708871 110.871774,88.483871 110.596774,88.483871 C110.321774,88.483871 110.096774,88.708871 110.096774,88.983871 L110.096774,92.983871 C110.096774,93.258871 110.321774,93.483871 110.596774,93.483871 Z" id="Shape-Copy"></path>
            </g>
        </g>
    </g>
</svg>