<?xml version="1.0" encoding="UTF-8"?>
<svg width="22px" height="15px" viewBox="0 0 22 15" version="1.1" xmlns="http://www.w3.org/2000/svg" xmlns:xlink="http://www.w3.org/1999/xlink">
    <!-- Generator: Sketch 52.2 (67145) - http://www.bohemiancoding.com/sketch -->
    <title>giving</title>
    <desc>Created with Sketch.</desc>
    <g id="Page-1" stroke="none" stroke-width="1" fill="none" fill-rule="evenodd">
        <g id="profile-copy" transform="translate(-41.000000, -241.000000)" fill="#D30101" stroke="#D30101" stroke-width="0.5">
            <g id="side-menu" transform="translate(42.000000, 80.000000)">
                <g id="givings" transform="translate(0.000000, 159.000000)">
                    <g id="giving" transform="translate(0.000000, 3.000000)">
                        <path d="M18.5418855,5.44607431 C18.3404309,5.44970534 18.1247491,5.49797569 17.9037491,5.60241052 C17.9036278,5.60245524 17.9035066,5.60250007 17.9033855,5.602545 L13.4068627,7.73569483 C13.3239309,7.24447414 12.8611127,6.8674069 12.3204309,6.88271552 C12.3202869,6.88273779 12.320143,6.88276021 12.3199991,6.88278276 L9.87086273,6.95661379 C9.23336273,6.95638966 8.75056727,6.80496207 8.18149909,6.64268621 C7.61197636,6.48025345 6.96174909,6.31109655 6.04740818,6.31109655 C5.23227182,6.31109655 4.01729455,6.60016724 3.14513523,6.9199 L3.14513523,6.07575172 C3.14512268,5.95196889 3.04337656,5.85162617 2.9178625,5.85161379 L0.454226205,5.85161379 C0.328712142,5.85162617 0.226966027,5.95196889 0.226953477,6.07575172 L0.226953477,7.9092 L0.226953477,12.7460741 C0.226966027,12.869857 0.328712142,12.9701997 0.454226205,12.9702121 L2.9178625,12.9702121 C3.04337656,12.9701997 3.14512268,12.869857 3.14513523,12.7460741 L3.14513523,11.9859103 C6.30759,11.3822172 8.14463545,12.3157293 10.84059,12.3157293 C10.8407112,12.3157294 10.8408324,12.3157294 10.8409536,12.3157293 C11.3020445,12.3157293 11.8896582,12.0659948 12.6100673,11.6971983 C13.3304536,11.3283793 14.16284,10.8287534 15.0059309,10.2917862 C16.6921355,9.21785172 18.4223627,7.99287069 19.3314991,7.3866 C19.3315749,7.38655522 19.3316506,7.38651039 19.3317264,7.38646552 C19.58959,7.21412586 19.7354764,6.95511207 19.7662491,6.69262414 C19.7969991,6.43013621 19.7220445,6.16587759 19.5692945,5.94702034 C19.3592718,5.64608379 18.9850445,5.43807034 18.5418855,5.44607207 L18.5418855,5.44607431 Z M18.5974082,5.88251121 C18.8729309,5.88452845 19.0709536,6.02359034 19.1948627,6.20113448 C19.2892718,6.33640172 19.3315673,6.49773621 19.3147491,6.6412069 C19.2979309,6.78463276 19.2313627,6.91192069 19.0768855,7.01524828 C19.0768855,7.0152931 19.0766582,7.01533793 19.0766582,7.01538276 C18.1539309,7.63070862 16.43209,8.84983966 14.7593173,9.91523448 C13.9228855,10.4479655 13.0989536,10.9418086 12.40059,11.2993534 C11.7025218,11.656719 11.1091809,11.8668707 10.8405673,11.8674759 C10.8405673,11.8674759 10.84034,11.8674759 10.8402264,11.8674759 C8.27677182,11.8673862 6.37013545,10.9364966 3.1451125,11.5297224 L3.1451125,10.8767862 C3.14627166,10.795954 3.10320902,10.720768 3.03241413,10.6800183 C2.96161923,10.6392686 2.87406032,10.6392686 2.80326542,10.6800183 C2.73247052,10.720768 2.68940789,10.795954 2.69056705,10.8767862 L2.69056705,12.5219586 L2.01102159,12.5219586 L2.01102159,6.29988966 L2.69056705,6.29988966 L2.69056705,7.94506207 C2.68940789,8.02589426 2.73247052,8.10108031 2.80326542,8.14183001 C2.87406032,8.18257971 2.96161923,8.18257971 3.03241413,8.14183001 C3.10320902,8.10108031 3.14627166,8.02589426 3.1451125,7.94506207 L3.1451125,7.39971207 C3.96636273,7.07939655 5.30231727,6.75937241 6.04738545,6.75937241 C6.90579455,6.75937241 7.49299909,6.91295172 8.05527182,7.0733 C8.61756727,7.23364828 9.16065818,7.40488966 9.87238545,7.40488966 C9.87468112,7.40490154 9.87697684,7.40487912 9.87927182,7.40482241 L12.3334082,7.3308569 C12.3336355,7.3308569 12.3336809,7.3308569 12.3338173,7.3308569 C12.6862945,7.32121897 12.9655673,7.59421897 12.9655673,7.89351034 C12.9655673,8.19291379 12.6898173,8.44045172 12.3172036,8.45632069 C12.3172036,8.45632069 12.3172036,8.45632069 12.3172036,8.45632069 L7.64909,8.65356207 C7.56703579,8.65571905 7.49253536,8.70133905 7.45418468,8.77291147 C7.415834,8.84448389 7.41959178,8.93088823 7.46401564,8.99895935 C7.5084395,9.06703048 7.58662713,9.10619191 7.66856727,9.10141207 L12.3367491,8.90417069 C12.7795445,8.8853431 13.1801127,8.63356897 13.3429082,8.26208276 C13.3509256,8.25930627 13.3587788,8.25608858 13.3664309,8.25244483 L18.1001582,6.00672621 C18.1001582,6.00668138 18.1004082,6.00663655 18.1005218,6.00659172 C18.2877264,5.918185 18.4532264,5.88154069 18.5974536,5.88254483 L18.5974082,5.88251121 Z M0.681498932,6.29988966 L1.55649886,6.29988966 L1.55649886,12.5219586 L0.681498932,12.5219586 L0.681498932,7.9092 L0.681498932,6.29988966 Z" id="Shape"></path>
                        <path d="M6.43149909,2.84817448 C5.83495364,2.84817448 5.34513545,3.33122086 5.34513545,3.91955379 C5.34513545,4.50623707 5.83495364,4.98869172 6.43149909,4.98869172 L8.26559,4.98869172 C8.86215818,4.98869172 9.35195364,4.50623707 9.35195364,3.91955379 C9.35195364,3.33122086 8.86215818,2.84817448 8.26559,2.84817448 L6.43149909,2.84817448 Z M6.43149909,3.29645034 L8.26559,3.29645034 C8.61449909,3.29645034 8.89740818,3.57547293 8.89740818,3.91955379 C8.89740818,4.26080379 8.61449909,4.54041586 8.26559,4.54041586 L6.43149909,4.54041586 C6.08261273,4.54041586 5.79968091,4.26080379 5.79968091,3.91955379 C5.79968091,3.57547293 6.08261273,3.29645034 6.43149909,3.29645034 Z" id="Shape"></path>
                        <path d="M12.9110445,2.84817448 C12.3161582,2.84817448 11.8269536,3.33122086 11.8269536,3.91955379 C11.8269536,4.50623707 12.3161582,4.98869172 12.9110445,4.98869172 L14.7474082,4.98869172 C15.3422945,4.98869172 15.8314991,4.50623707 15.8314991,3.91955379 C15.8314991,3.33122086 15.3422945,2.84817448 14.7474082,2.84817448 L12.9110445,2.84817448 Z M12.9110445,3.29645034 L14.7474082,3.29645034 C15.0934309,3.29645034 15.3769536,3.57547293 15.3769536,3.91955379 C15.3769536,4.26080379 15.0934309,4.54041586 14.7474082,4.54041586 L12.9110445,4.54041586 C12.5650218,4.54041586 12.2814991,4.26080379 12.2814991,3.91955379 C12.2814991,3.57547293 12.5650218,3.29645034 12.9110445,3.29645034 Z" id="Shape"></path>
                        <path d="M9.67240818,0.19214 C9.07586273,0.19214 8.58604455,0.675186379 8.58604455,1.26351931 C8.58604455,1.85185224 9.07659,2.33265724 9.67240818,2.33265724 L11.5064991,2.33265724 C12.10234,2.33265724 12.59059,1.851135 12.59059,1.26351931 C12.59059,0.675905862 12.1030673,0.19214 11.5064991,0.19214 L9.67240818,0.19214 Z M9.67240818,0.640415862 L11.5064991,0.640415862 C11.8554082,0.640415862 12.1360445,0.918721207 12.1360445,1.26351931 C12.1360445,1.60831966 11.8561355,1.88438138 11.5064991,1.88438138 L9.67240818,1.88438138 C9.32279455,1.88438138 9.04059,1.60760017 9.04059,1.26351931 C9.04059,0.919438448 9.32352182,0.640415862 9.67240818,0.640415862 Z" id="Shape"></path>
                    </g>
                </g>
            </g>
        </g>
    </g>
</svg>