<?xml version="1.0" encoding="UTF-8"?>
<svg width="20px" height="20px" viewBox="0 0 20 20" version="1.1" xmlns="http://www.w3.org/2000/svg" xmlns:xlink="http://www.w3.org/1999/xlink">
    <!-- Generator: Sketch 52.4 (67378) - http://www.bohemiancoding.com/sketch -->
    <title>gps</title>
    <desc>Created with Sketch.</desc>
    <g id="church" stroke="none" stroke-width="1" fill="none" fill-rule="evenodd">
        <g id="church-details" transform="translate(-1005.000000, -524.000000)" fill="#555555" fill-rule="nonzero">
            <g id="email-copy-7" transform="translate(330.000000, 523.000000)">
                <g id="gps" transform="translate(675.000000, 1.000000)">
                    <path d="M19.5,9.5 L18,9.5 C17.7547197,5.46382459 14.5361754,2.24528031 10.5,2 C10.5,2 10.5,2 10.5,2 L10.5,0.5 C10.5,0.223857625 10.2761424,0 10,0 C9.72385763,0 9.5,0.223857625 9.5,0.5 L9.5,2 C9.5,2 9.5,2 9.5,2.025 C5.46382459,2.27028031 2.24528031,5.48882459 2,9.525 L0.5,9.525 C0.223857625,9.525 0,9.74885763 0,10.025 C0,10.3011424 0.223857625,10.525 0.5,10.525 L2.025,10.525 C2.28103325,14.5425018 5.48249819,17.7439668 9.5,18 C9.5,18 9.5,18 9.5,18 L9.5,19.5 C9.5,19.7761424 9.72385763,20 10,20 C10.2761424,20 10.5,19.7761424 10.5,19.5 L10.5,18 C10.5,18 10.5,18 10.5,18 C14.5361754,17.7547197 17.7547197,14.5361754 18,10.5 L19.5,10.5 C19.7761424,10.5 20,10.2761424 20,10 C20,9.72385763 19.7761424,9.5 19.5,9.5 Z M10,17 C6.13400675,17 3,13.8659932 3,10 C3,6.13400675 6.13400675,3 10,3 C13.8659932,3 17,6.13400675 17,10 C17,13.8659932 13.8659932,17 10,17 Z" id="Shape"></path>
                    <path d="M10,6 C7.790861,6 6,7.790861 6,10 C6,12.209139 7.790861,14 10,14 C12.209139,14 14,12.209139 14,10 C14,8.93913404 13.5785726,7.92171839 12.8284271,7.17157288 C12.0782816,6.42142736 11.060866,6 10,6 Z M10,13 C8.34314575,13 7,11.6568542 7,10 C7,8.34314575 8.34314575,7 10,7 C11.6568542,7 13,8.34314575 13,10 C13,10.7956495 12.6839295,11.5587112 12.1213203,12.1213203 C11.5587112,12.6839295 10.7956495,13 10,13 Z" id="Shape"></path>
                </g>
            </g>
        </g>
    </g>
</svg>