<?xml version="1.0" encoding="UTF-8"?>
<svg width="40px" height="40px" viewBox="0 0 40 40" version="1.1" xmlns="http://www.w3.org/2000/svg" xmlns:xlink="http://www.w3.org/1999/xlink">
    <!-- Generator: Sketch 51.3 (57544) - http://www.bohemiancoding.com/sketch -->
    <title>Group</title>
    <desc>Created with Sketch.</desc>
    <defs></defs>
    <g id="church" stroke="none" stroke-width="1" fill="none" fill-rule="evenodd">
        <g id="legal-cotract" transform="translate(-185.000000, -137.000000)" fill-rule="nonzero">
            <g id="Group" transform="translate(185.000000, 137.000000)">
                <circle id="Ellipse_9" fill="#0C4F6C" cx="20" cy="20" r="20"></circle>
                <path d="M17.9155455,29.9999972 C17.5936278,29.9995274 17.2807236,29.895525 17.0246696,29.7038896 L8.62740159,23.4457069 C8.18523175,23.1403206 7.94824576,22.6220726 8.00955406,22.0945796 C8.07086236,21.5670866 8.42066904,21.1146321 8.92153704,20.9149829 C9.42240504,20.7153337 9.99430507,20.80039 10.4125409,21.1367336 L17.5598726,26.460015 L28.2740956,10.6764857 C28.5605083,10.2306781 29.0706091,9.97257007 29.6064542,10.00232 C30.1422992,10.0320699 30.6195366,10.3449946 30.8529753,10.8196641 C31.086414,11.2943337 31.0393063,11.8560264 30.7299323,12.2867783 L19.1383829,29.3545493 C18.8646244,29.7585898 18.4028999,30.0009582 17.9087708,29.9999972 L17.9155455,29.9999972 Z" id="Path_964" fill="#FFFFFF"></path>
            </g>
        </g>
    </g>
</svg>