<?xml version="1.0" encoding="UTF-8"?>
<svg width="22px" height="17px" viewBox="0 0 22 17" version="1.1" xmlns="http://www.w3.org/2000/svg" xmlns:xlink="http://www.w3.org/1999/xlink">
    <!-- Generator: Sketch 52.2 (67145) - http://www.bohemiancoding.com/sketch -->
    <title>groups</title>
    <desc>Created with Sketch.</desc>
    <g id="Page-1" stroke="none" stroke-width="1" fill="none" fill-rule="evenodd">
        <g id="profile-copy" transform="translate(-41.000000, -363.000000)" fill-rule="nonzero" stroke="#555555">
            <g id="side-menu" transform="translate(42.000000, 80.000000)">
                <g id="groups" transform="translate(0.000000, 283.000000)">
                    <g transform="translate(0.000000, 1.000000)">
                        <g id="Group-Copy" transform="translate(10.434783, 0.000000)">
                            <path d="M4.50409018,6.29385429 C6.22041868,6.29385429 7.61687601,4.88218152 7.61687601,3.14686203 C7.61687601,1.41154253 6.22041868,0 4.50409018,0 C2.78776167,0 1.39130435,1.41167277 1.39130435,3.14699227 C1.39130435,4.88231176 2.78763285,6.29385429 4.50409018,6.29385429 Z" id="Shape"></path>
                            <path d="M9.28456313,10.6867164 C9.06788036,8.50519417 7.86545679,6.60387621 6.10040854,5.96720475 C5.68256743,5.81648507 3.42633803,5.81648507 3.04211546,6.0280269 C1.38053736,6.76674891 0.21673704,8.55182014 0.00456312684,10.6867164 C-0.021072944,10.9451128 0.0621476679,11.2027278 0.233097748,11.39379 C0.400956041,11.5813358 0.640569568,11.6889142 0.890746702,11.6889142 L8.39837955,11.6889142 C8.64842786,11.6889142 8.88817021,11.5813358 9.05602851,11.3939203 C9.22684976,11.202858 9.3101992,10.9451128 9.28456313,10.6867164 Z" id="Shape"></path>
                        </g>
                        <g id="Group-Copy-2" stroke-width="0.8">
                            <path d="M4.50409018,6.29385429 C6.22041868,6.29385429 7.61687601,4.88218152 7.61687601,3.14686203 C7.61687601,1.41154253 6.22041868,0 4.50409018,0 C2.78776167,0 1.39130435,1.41167277 1.39130435,3.14699227 C1.39130435,4.88231176 2.78763285,6.29385429 4.50409018,6.29385429 Z" id="Shape"></path>
                            <path d="M9.28456313,10.6867164 C9.06788036,8.50519417 7.86545679,6.60387621 6.10040854,5.96720475 C5.68256743,5.81648507 3.42633803,5.81648507 3.04211546,6.0280269 C1.38053736,6.76674891 0.21673704,8.55182014 0.00456312684,10.6867164 C-0.021072944,10.9451128 0.0621476679,11.2027278 0.233097748,11.39379 C0.400956041,11.5813358 0.640569568,11.6889142 0.890746702,11.6889142 L8.39837955,11.6889142 C8.64842786,11.6889142 8.88817021,11.5813358 9.05602851,11.3939203 C9.22684976,11.202858 9.3101992,10.9451128 9.28456313,10.6867164 Z" id="Shape"></path>
                        </g>
                        <g id="Group" transform="translate(4.347826, 0.586081)" fill="#FFFFFF" stroke-width="0.8">
                            <path d="M3.94741774,7.48019728 C2.64207699,6.84470569 1.73913043,5.49390944 1.73913043,3.93374033 C1.73913043,1.76459096 3.48470209,3.01980663e-14 5.63011272,3.01980663e-14 C7.77552335,3.01980663e-14 9.52109501,1.76442816 9.52109501,3.93357753 C9.52109501,5.441878 8.67711046,6.75457433 7.4415741,7.41442619 C7.51805682,7.42784595 7.58036724,7.44272223 7.62551067,7.45900594 C9.83182098,8.25484527 11.3348504,10.6314927 11.6057039,13.3583954 C11.637749,13.681391 11.5335622,14.0035725 11.3200356,14.2424003 C11.1102128,14.4766698 10.8105348,14.6111427 10.4979744,14.6111427 L1.11343338,14.6111427 C0.80071196,14.6111427 0.501195052,14.4766698 0.291372186,14.2422375 C0.0776845849,14.0034097 -0.02634118,13.681391 0.00570390855,13.3583954 C0.2709213,10.6897752 1.7256717,8.45843614 3.80264433,7.53503362 C3.83850198,7.51529143 3.88740318,7.4970232 3.94741774,7.48019728 Z" id="Shape"></path>
                        </g>
                    </g>
                </g>
            </g>
        </g>
    </g>
</svg>