<?xml version="1.0" encoding="UTF-8"?>
<svg width="788px" height="1024px" viewBox="0 0 788 1024" version="1.1" xmlns="http://www.w3.org/2000/svg" xmlns:xlink="http://www.w3.org/1999/xlink">
    <!-- Generator: Sketch 51.3 (57544) - http://www.bohemiancoding.com/sketch -->
    <title>illustration</title>
    <desc>Created with Sketch.</desc>
    <defs>
        <rect id="path-1" x="0" y="0" width="92" height="115" rx="10"></rect>
    </defs>
    <g id="mock" stroke="none" stroke-width="1" fill="none" fill-rule="evenodd">
        <g id="sign-in-via-email-copy-4" transform="translate(-598.000000, 0.000000)">
            <g id="illustration" transform="translate(598.000000, -151.000000)">
                <path d="M0.734233008,1175 C101.380193,918.225811 236.126392,830.862984 404.972831,912.91152 C658.242488,1035.98432 818.699077,802.459249 737.082384,802.459249 C689.582525,802.459249 701.563788,858.324067 770.62991,851.299929 C839.696032,844.27579 685.46511,454.116146 355.755027,682.174022 C76.7947353,725.860759 142.155231,580.880397 193.304817,511.982318 C227.40454,466.050264 273.321625,423.692033 331.056071,384.907622 C518.531698,263.346765 653.873802,181.974296 737.082384,140.790215" id="Path-3" stroke="#CCCCD0" stroke-dasharray="9"></path>
                <g id="pc" transform="translate(363.000000, 547.000000)">
                    <rect id="Rectangle-7" fill="#FBFBFF" x="3" y="5" width="263" height="186"></rect>
                    <path d="M153,195 L153,220 L164.5,220 C165.880712,220 167,221.119288 167,222.5 C167,223.880712 165.880712,225 164.5,225 L106.5,225 C105.119288,225 104,223.880712 104,222.5 C104,221.119288 105.119288,220 106.5,220 L118,220 L118,195 L47,195 L47,190 L265,190 L265,5 L49.5,5 C48.1192881,5 47,3.88071187 47,2.5 C47,1.11928813 48.1192881,-1.90456553e-16 49.5,-4.4408921e-16 L267.5,0 C268.880712,-2.53632657e-16 270,1.11928813 270,2.5 C270,2.54055537 269.999034,2.5808852 269.997125,2.62096774 C269.999034,2.66512647 270,2.70955764 270,2.75423729 L270,192.245763 C270,192.290442 269.999034,192.334874 269.997125,192.379032 C269.999034,192.419115 270,192.459445 270,192.5 C270,193.880712 268.880712,195 267.5,195 L153,195 Z M148,195 L123,195 L123,220 L148,220 L148,195 Z M5,5 L5,192.245763 C5,193.766886 3.88071187,195 2.5,195 C1.11928813,195 -1.34507001e-14,193.766886 -1.31039255e-14,192.245763 L-1.50091602e-15,2.75423729 C-1.49073028e-15,2.70955764 0.000965678558,2.66512647 0.00287529592,2.62096774 C0.000965678558,2.5808852 -7.10542736e-15,2.54055537 -7.10542736e-15,2.5 C-7.10542736e-15,1.11928813 1.11928813,-2.53632657e-16 2.5,0 L34.5,0 C35.8807119,2.53632657e-16 37,1.11928813 37,2.5 C37,3.88071187 35.8807119,5 34.5,5 L5,5 Z" id="Combined-Shape" fill="#333333"></path>
                    <path d="M42,50 C35.372583,50 30,44.627417 30,38 C30,31.372583 35.372583,26 42,26 C48.627417,26 54,31.372583 54,38 C54,44.627417 48.627417,50 42,50 Z M32,65 L238,65 C239.104569,65 240,65.8954305 240,67 L240,122 C240,123.104569 239.104569,124 238,124 L32,124 C30.8954305,124 30,123.104569 30,122 L30,67 C30,65.8954305 30.8954305,65 32,65 Z M32,139 L88,139 C89.1045695,139 90,139.895431 90,141 L90,172 C90,173.104569 89.1045695,174 88,174 L32,174 C30.8954305,174 30,173.104569 30,172 L30,141 C30,139.895431 30.8954305,139 32,139 Z M107,139 L163,139 C164.104569,139 165,139.895431 165,141 L165,172 C165,173.104569 164.104569,174 163,174 L107,174 C105.895431,174 105,173.104569 105,172 L105,141 C105,139.895431 105.895431,139 107,139 Z M182,139 L238,139 C239.104569,139 240,139.895431 240,141 L240,172 C240,173.104569 239.104569,174 238,174 L182,174 C180.895431,174 180,173.104569 180,172 L180,141 C180,139.895431 180.895431,139 182,139 Z M127.5,32 L142.5,32 C143.328427,32 144,32.6715729 144,33.5 C144,34.3284271 143.328427,35 142.5,35 L127.5,35 C126.671573,35 126,34.3284271 126,33.5 C126,32.6715729 126.671573,32 127.5,32 Z M127.5,40 L152.5,40 C153.328427,40 154,40.6715729 154,41.5 C154,42.3284271 153.328427,43 152.5,43 L127.5,43 C126.671573,43 126,42.3284271 126,41.5 C126,40.6715729 126.671573,40 127.5,40 Z M170.5,32 L185.5,32 C186.328427,32 187,32.6715729 187,33.5 C187,34.3284271 186.328427,35 185.5,35 L170.5,35 C169.671573,35 169,34.3284271 169,33.5 C169,32.6715729 169.671573,32 170.5,32 Z M170.5,40 L195.5,40 C196.328427,40 197,40.6715729 197,41.5 C197,42.3284271 196.328427,43 195.5,43 L170.5,43 C169.671573,43 169,42.3284271 169,41.5 C169,40.6715729 169.671573,40 170.5,40 Z M213.5,32 L228.5,32 C229.328427,32 230,32.6715729 230,33.5 C230,34.3284271 229.328427,35 228.5,35 L213.5,35 C212.671573,35 212,34.3284271 212,33.5 C212,32.6715729 212.671573,32 213.5,32 Z M213.5,40 L238.5,40 C239.328427,40 240,40.6715729 240,41.5 C240,42.3284271 239.328427,43 238.5,43 L213.5,43 C212.671573,43 212,42.3284271 212,41.5 C212,40.6715729 212.671573,40 213.5,40 Z M211,74 C209.895431,74 209,74.8954305 209,76 L209,92 C209,93.1045695 209.895431,94 211,94 L227,94 C228.104569,94 229,93.1045695 229,92 L229,76 C229,74.8954305 228.104569,74 227,74 L211,74 Z M166,74 C164.895431,74 164,74.8954305 164,76 L164,105 C164,106.104569 164.895431,107 166,107 L202,107 C203.104569,107 204,106.104569 204,105 L204,76 C204,74.8954305 203.104569,74 202,74 L166,74 Z" id="Combined-Shape" fill="#EBEBF0"></path>
                </g>
                <g id="tablet" transform="translate(308.000000, 647.000000)">
                    <g id="Rectangle-3">
                        <rect stroke="#333333" stroke-width="5" stroke-linejoin="square" fill="#FBFBFF" fill-rule="evenodd" x="2.5" y="2.5" width="87" height="110" rx="10"></rect>
                        <rect stroke="#FBFBFF" stroke-width="3" x="-1.5" y="-1.5" width="95" height="118" rx="10"></rect>
                    </g>
                    <circle id="Oval" fill="#333333" cx="46" cy="104" r="3"></circle>
                    <g id="church-yellow" transform="translate(21.000000, 26.000000)" fill-rule="nonzero">
                        <polygon id="Shape" fill="#FFCD4C" points="3.15315315 46.1216216 3.15315315 61.2522523 19.3378378 61.2522523 19.3378378 36.036036"></polygon>
                        <path d="M3.15315315,46.1216216 L19.3423423,36.036036 L19.3423423,39.3603604 L5.13963964,48.5540541 C4.54858829,48.9394905 3.85877027,49.1459667 3.15315315,49.1486486 L3.15315315,46.1216216 Z" id="Shape" fill="#E5A501"></path>
                        <polygon id="Shape" fill="#FFCD4C" points="46.8198198 46.1216216 46.8198198 61.2522523 30.6306306 61.2522523 30.6306306 36.036036"></polygon>
                        <path d="M46.8198198,46.1216216 L30.6306306,36.036036 L30.6306306,39.3603604 L44.8333333,48.5540541 C45.4243847,48.9394905 46.1142027,49.1459667 46.8198198,49.1486486 L46.8198198,46.1216216 Z" id="Shape" fill="#E4B363"></path>
                        <path d="M24.3513514,0.463963964 L18.9189189,20.0225225 L30.7387387,20.0225225 L25.2792793,0.463963964 C25.2792793,0.207723739 25.0715554,0 24.8153153,0 C24.5590752,0 24.3513514,0.207723739 24.3513514,0.463963964 Z" id="Shape" fill="#E8F6FD"></path>
                        <path d="M24.8423423,10.8108272 C23.7327581,10.8075272 22.6806185,11.3038195 21.9774775,12.1621785 L20.6261261,13.7838001 L18.9189189,19.8964127 L30.7432432,19.8964127 L29.0405405,13.7838001 L27.6891892,12.1621785 C26.9896437,11.3092173 25.9454739,10.8135673 24.8423423,10.8108272 Z" id="Shape" fill="#D1EDFB"></path>
                        <polygon id="Shape" fill="#FFCD4C" points="31.8018018 61.1576577 18.4684685 61.1576577 18.4684685 23.8378378 25.1351351 15.7657658 31.8018018 23.8378378"></polygon>
                        <path d="M18.4684685,23.8378378 L18.4684685,26.8288288 C19.5831077,26.8223689 20.6361351,26.3165194 21.3378378,25.4504505 L25.1351351,20.8513514 L28.9324324,25.4504505 C29.6341351,26.3165194 30.6871626,26.8223689 31.8018018,26.8288288 L31.8018018,23.8378378 L25.1351351,15.7657658 L18.4684685,23.8378378 Z" id="Shape" fill="#FFBA07"></path>
                        <path d="M2.26396989,43.3873874 C1.35939962,44.004345 1.08428791,45.214836 1.63333926,46.1621622 C1.96311854,46.7520162 2.58371133,47.1199023 3.25946539,47.1261261 C3.61175638,47.1260378 3.95629331,47.022677 4.25045638,46.8288288 L18.4936996,37.6081081 L18.4936996,32.8828829 L2.26396989,43.3873874 Z" id="Shape" fill="#E8F6FD"></path>
                        <path d="M25.0226036,32.875454 C23.3641032,32.9769937 21.8115527,32.0562171 21.1052721,30.5521883 C20.3989919,29.0481595 20.6819928,27.2654221 21.8193289,26.0540585 C22.9566644,24.842695 24.7180419,24.4479883 26.2635626,25.0581509 C27.8090838,25.6683135 28.8258045,27.1597968 28.8289099,28.8214 C28.8971554,30.9919149 27.1931081,32.8068766 25.0226036,32.875454 Z" id="Shape" fill="#E5A501"></path>
                        <path d="M1.35135135,46.3693694 C1.68819865,46.8927833 2.2650045,47.2124793 2.88738739,47.2207207 C3.23967838,47.2206324 3.58421532,47.1172716 3.87837838,46.9234234 L18.1216216,37.7027027 L18.1216216,35.5855856 L1.35135135,46.3693694 Z" id="Shape" fill="#D1EDFB"></path>
                        <path d="M47.7612613,43.3873874 C48.6658315,44.004345 48.9409432,45.214836 48.3918919,46.1621622 C48.0621126,46.7520162 47.4415198,47.1199023 46.7657658,47.1261261 C46.4134748,47.1260378 46.0689378,47.022677 45.7747748,46.8288288 L31.5315315,37.6081081 L31.5315315,32.8828829 L47.7612613,43.3873874 Z" id="Shape" fill="#E8F6FD"></path>
                        <path d="M48.3018018,46.3693694 C47.9638185,46.8915685 47.3877203,47.2108721 46.7657658,47.2207207 C46.4134748,47.2206324 46.0689378,47.1172716 45.7747748,46.9234234 L31.5315315,37.7027027 L31.5315315,35.5855856 L48.3018018,46.3693694 Z" id="Shape" fill="#D1EDFB"></path>
                        <path d="M31.4719867,24.6920509 C30.9135817,24.6907824 30.3855808,24.4375405 30.0350498,24.0028617 L24.80532,17.6695284 L19.5710858,24.0028617 C19.252639,24.4089887 18.7774205,24.6616617 18.2626516,24.6985532 C17.7478831,24.735445 17.2414899,24.5531212 16.8683831,24.1965554 C16.0737295,23.440441 15.9952191,22.199977 16.6882029,21.3497086 L23.3728876,13.2686275 C23.7322718,12.8520865 24.2551718,12.6126126 24.80532,12.6126126 C25.3554682,12.6126126 25.8783682,12.8520865 26.2377525,13.2686275 L32.9044191,21.3406995 C33.5974029,22.190968 33.5188926,23.431432 32.724239,24.1875464 C32.3861912,24.5088797 31.9383813,24.6892923 31.4719867,24.6920509 Z" id="Shape" fill="#E8F6FD"></path>
                        <path d="M30.2747748,24.2947716 C30.5948428,24.6984658 31.0696568,24.9492842 31.5835207,24.9861113 C32.0973851,25.0229378 32.6031131,24.8423919 32.9774775,24.4884653 L33,24.4884653 L25.5585586,15.5560329 C25.4371883,15.4039104 25.2531658,15.3153153 25.0585586,15.3153153 C24.8639514,15.3153153 24.6799288,15.4039104 24.5585586,15.5560329 L17.1171171,24.4884653 C17.4865428,24.8489401 17.9913788,25.0360527 18.5065032,25.0034284 C19.0216275,24.9708036 19.4988234,24.7214955 19.8198198,24.3172941 L25.0540541,17.9839608 L30.2747748,24.2947716 Z" id="Shape" fill="#D1EDFB"></path>
                        <path d="M25.1126577,27.0304398 C24.2852375,26.9824466 23.5122753,27.4441254 23.1622424,28.1953939 C22.8122095,28.9466623 22.9559564,29.8354565 23.5249582,30.4380876 C24.0939604,31.0407182 24.973046,31.2352078 25.743155,30.9288425 C26.513264,30.6224772 27.0185181,29.8772686 27.0180631,29.0484578 C27.0458564,27.9662961 26.1946321,27.0647632 25.1126577,27.0304398 Z" id="Shape" fill="#FFFFFF"></path>
                        <path d="M10.52367,49.0990991 C9.7422578,49.1203095 9.00131275,49.451218 8.46398392,50.0189617 C7.92665509,50.5867054 7.63700239,51.3447302 7.65880509,52.1261261 L7.65880509,61.2027027 L13.3795258,61.2027027 L13.3795258,52.1261261 C13.4249763,50.502305 12.1473866,49.1481405 10.52367,49.0990991 Z" id="Shape" fill="#1082B3"></path>
                        <rect id="Rectangle-path" fill="#0B4F6C" x="7.65765766" y="53.1531532" width="5.71171171" height="2.01801802"></rect>
                        <path d="M24.9291039,45.045045 C23.3053873,45.0940865 22.0277976,46.4482509 22.0732481,48.0720721 L22.0732481,61.1846847 L27.7849598,61.1846847 L27.7849598,48.0720721 C27.8304103,46.4482509 26.5528206,45.0940865 24.9291039,45.045045 Z" id="Shape" fill="#1082B3"></path>
                        <rect id="Rectangle-path" fill="#0B4F6C" x="22.0720721" y="49.0990991" width="5.71171171" height="2.01801802"></rect>
                        <path d="M39.3435184,49.0990991 C37.7198017,49.1481405 36.4422121,50.502305 36.4876625,52.1261261 L36.4876625,61.2027027 L42.1993742,61.2027027 L42.1993742,52.1261261 C42.2448247,50.502305 40.967235,49.1481405 39.3435184,49.0990991 Z" id="Shape" fill="#1082B3"></path>
                        <rect id="Rectangle-path" fill="#0B4F6C" x="36.4864865" y="53.1531532" width="5.71171171" height="2.01801802"></rect>
                        <path d="M48.6216216,62.3783784 L1.00900901,62.3783784 C0.451748649,62.3783784 0,61.9266297 0,61.3693694 C0,60.812109 0.451748649,60.3603604 1.00900901,60.3603604 L48.6216216,60.3603604 C49.178882,60.3603604 49.6306306,60.812109 49.6306306,61.3693694 C49.6306306,61.9266297 49.178882,62.3783784 48.6216216,62.3783784 Z" id="Shape" fill="#D1EDFB"></path>
                        <path d="M24.9324495,45.045045 C23.3087328,45.0940865 22.0311432,46.4482509 22.0765936,48.0720721 L22.0765936,50.0900901 C22.0171148,49.0315153 22.5480558,48.0268788 23.4561761,47.4796712 C24.3642963,46.932464 25.5006026,46.932464 26.4087229,47.4796712 C27.3168432,48.0268788 27.8477842,49.0315153 27.7883053,50.0900901 L27.7883053,48.0720721 C27.8337558,46.4482509 26.5561661,45.0940865 24.9324495,45.045045 Z" id="Shape" fill="#0B4F6C"></path>
                        <path d="M39.3468639,49.0990991 C37.7231472,49.1481405 36.4455576,50.502305 36.491008,52.1261261 L36.491008,54.1441441 C36.4315292,53.0855694 36.9624702,52.0809329 37.8705905,51.5337252 C38.7787107,50.986518 39.915017,50.986518 40.8231373,51.5337252 C41.7312576,52.0809329 42.2621986,53.0855694 42.2027197,54.1441441 L42.2027197,52.1261261 C42.2481702,50.502305 40.9705806,49.1481405 39.3468639,49.0990991 Z" id="Shape" fill="#0B4F6C"></path>
                        <path d="M10.5270441,49.0990991 C9.74563191,49.1203095 9.00468686,49.451218 8.46735803,50.0189617 C7.93002921,50.5867054 7.6403765,51.3447302 7.66217921,52.1261261 L7.66217921,54.1441441 C7.60270038,53.0855694 8.13364137,52.0809329 9.04176164,51.5337252 C9.94988191,50.986518 11.0861882,50.986518 11.9943085,51.5337252 C12.9024288,52.0809329 13.4333697,53.0855694 13.3738909,54.1441441 L13.3738909,52.1261261 C13.4194031,50.5057108 12.1472022,49.152991 10.5270441,49.0990991 Z" id="Shape" fill="#0B4F6C"></path>
                    </g>
                </g>
                <g id="mobile" transform="translate(610.000000, 695.000000)">
                    <rect id="Rectangle-3-Copy" stroke="#333333" stroke-width="5" fill="#FBFBFF" x="2.5" y="2.5" width="46" height="88" rx="10"></rect>
                    <circle id="Oval" fill="#333333" cx="26" cy="82" r="3"></circle>
                    <g id="church-blue" transform="translate(11.000000, 30.000000)" fill-rule="nonzero">
                        <polygon id="Shape" fill="#01BAEF" points="1.57894737 25.0042105 1.57894737 33.1389474 11.3494737 33.1389474 11.3494737 19.5789474"></polygon>
                        <path d="M1.59473684,25.0042105 L11.3652632,19.5789474 L11.3652632,21.3663158 L2.77894737,26.3147368 C2.41250211,26.5208116 1.99936105,26.6295316 1.57894737,26.6305263 L1.59473684,25.0042105 Z" id="Shape" fill="#1F83B7"></path>
                        <polygon id="Shape" fill="#01BAEF" points="28.0831579 25.0042105 28.0831579 33.1389474 18.3157895 33.1389474 18.3157895 19.5789474"></polygon>
                        <path d="M28.1052632,25.0042105 L18.3157895,19.5789474 L18.3157895,21.3663158 L26.8863158,26.3115789 C27.2504463,26.5205116 27.6633474,26.6294558 28.0831579,26.6273684 L28.1052632,25.0042105 Z" id="Shape" fill="#1F83B7"></path>
                        <path d="M14.6621053,0.185264211 L11.3684211,10.7168432 L18.5052632,10.7168432 L15.2178947,0.19158 C15.1762421,0.0765915789 15.0670358,0 14.9447368,0 C14.8224379,0 14.7132316,0.0765915789 14.6715789,0.19158 L14.6621053,0.185264211 Z" id="Shape" fill="#E8F6FD"></path>
                        <path d="M14.9368421,6.0002221 C14.2853905,5.99129473 13.6591768,6.25183684 13.2063158,6.7202221 L12.3978947,7.59811684 L11.3684211,10.8949589 L18.5052632,10.8949589 L17.4757895,7.60759052 L16.6673684,6.73601157 C16.2185589,6.25988631 15.5911137,5.99310736 14.9368421,6.0002221 Z" id="Shape" fill="#D1EDFB"></path>
                        <polygon id="Shape" fill="#01BAEF" points="18.7831579 32.9368421 10.7368421 32.9368421 10.7368421 12.8684211 14.76 8.52631579 18.7831579 12.8684211"></polygon>
                        <path d="M10.7368421,12.8684211 L10.7368421,14.4789688 C11.3913,14.4806084 12.0174284,14.2121021 12.4673684,13.7368421 L14.76,11.2642105 L17.0526316,13.7368421 C17.5025716,14.2121021 18.1287,14.4806084 18.7831579,14.4789688 L18.7831579,12.8684211 L14.76,8.52631579 L10.7368421,12.8684211 Z" id="Shape" fill="#1F83B7"></path>
                        <path d="M0.863878101,23.3210526 C0.351999154,23.6027179 0.165370733,24.2460126 0.447035996,24.7578947 C0.447035996,24.7768421 0.469141259,24.7957895 0.481772838,24.8115789 C0.835577048,25.3221695 1.52055915,25.4783463 2.06072021,25.1715789 L10.6565097,20.2105263 L10.6565097,17.6842105 L0.863878101,23.3210526 Z" id="Shape" fill="#E8F6FD"></path>
                        <path d="M14.6779248,17.9205433 C13.4965027,17.8517391 12.5874459,16.8500612 12.6332353,15.6675212 C12.6790248,14.4849844 13.6628164,13.5565981 14.8460227,13.579357 C16.029229,13.6021159 16.9765911,14.5676454 16.9768722,15.7510696 C16.940768,16.9848338 15.911708,17.955937 14.6779248,17.9205433 Z" id="Shape" fill="#1F83B7"></path>
                        <path d="M0.631578947,25.0642105 C0.853493684,25.3523211 1.19633368,25.5214105 1.56,25.5221053 C1.77032526,25.5225379 1.97713263,25.4681179 2.16,25.3642105 L10.7557895,20.4031579 L10.7557895,19.2631579 L0.631578947,25.0642105 Z" id="Shape" fill="#D1EDFB"></path>
                        <path d="M28.74,23.3210526 C28.9854032,23.4533779 29.1679958,23.6780021 29.2474042,23.9452642 C29.3268095,24.2125232 29.2964937,24.5004063 29.1631579,24.7452632 C29.1513442,24.7684737 29.1376137,24.7906547 29.1221053,24.8115789 C28.90452,25.1404421 28.5342821,25.3356821 28.14,25.3294737 C27.9305147,25.3311505 27.7244116,25.2766263 27.5431579,25.1715789 L18.9473684,20.2105263 L18.9473684,17.6842105 L28.74,23.3210526 Z" id="Shape" fill="#E8F6FD"></path>
                        <path d="M29.0684211,25.0642105 C28.8465063,25.3523211 28.5036663,25.5214105 28.14,25.5221053 C27.9309095,25.5207253 27.7255768,25.4664032 27.5431579,25.3642105 L18.9473684,20.4031579 L18.9473684,19.2631579 L29.0684211,25.0642105 Z" id="Shape" fill="#D1EDFB"></path>
                        <path d="M18.6701497,13.4389405 C18.343156,13.4401816 18.0301265,13.3065142 17.8048865,13.0694668 L14.6469918,9.66209842 L11.4890971,13.0694668 C11.0568413,13.5205468 10.3508055,13.5645016 9.86593917,13.1705195 C9.64974653,12.9980637 9.51096969,12.7467489 9.48017074,12.4719205 C9.4493718,12.1970889 9.5290739,11.9212879 9.70172864,11.7052563 C9.71814338,11.6811016 9.73721074,11.6588574 9.75857074,11.6389405 L13.7817286,7.29999316 C14.2627676,6.82982684 15.031216,6.82982684 15.512255,7.29999316 L19.5354128,11.6389405 C19.725215,11.8396911 19.8272434,12.1077679 19.8189476,12.3839132 C19.8106518,12.6600584 19.6927139,12.9215258 19.4912023,13.1105195 L19.4248865,13.1705195 C19.2118644,13.3444847 18.9451802,13.4393321 18.6701497,13.4389405 Z" id="Shape" fill="#E8F6FD"></path>
                        <path d="M18.0757895,13.0571158 C18.5076537,13.5062884 19.2114537,13.5501895 19.6957895,13.1581684 L15.1989474,8.34237893 C15.12438,8.26171683 15.0205958,8.2143042 14.9108053,8.21074209 C14.8010116,8.20718315 14.6943758,8.24777157 14.6147368,8.32343157 L14.5957895,8.34237893 L10.1052632,13.1455368 C10.5897821,13.5498863 11.3046947,13.5098631 11.7410526,13.0539579 L14.8989474,9.64658946 L18.0757895,13.0571158 Z" id="Shape" fill="#D1EDFB"></path>
                        <path d="M14.9179066,14.5299304 C14.3273992,14.5643198 13.8729434,15.0648398 13.8955445,15.6559156 C13.9181455,16.2469914 14.409495,16.711344 15.0009055,16.700544 C15.5923129,16.6897409 16.0663792,16.2077514 16.0673803,15.6162461 C16.0599466,15.3191672 15.934534,15.0372746 15.7188466,14.8328482 C15.5031624,14.6284219 15.2149571,14.518284 14.9179066,14.5267725 L14.9179066,14.5299304 Z" id="Shape" fill="#FFFFFF"></path>
                        <path d="M6.14526316,26.5269291 C5.21969684,26.5021555 4.44856737,27.2309155 4.42105263,28.1564028 L4.42105263,33.0385081 L7.86947368,33.0385081 L7.86947368,28.1564028 C7.84025053,27.2316828 7.07016,26.5039018 6.14526316,26.5269291 Z" id="Shape" fill="#0B4F6C"></path>
                        <rect id="Rectangle-path" fill="#1F83B7" x="4.42105263" y="28.7368421" width="3.44842105" height="1.08631579"></rect>
                        <path d="M14.6715789,24.3164028 C13.7460126,24.2916291 12.9748832,25.0203891 12.9473684,25.9458765 L12.9473684,32.9974555 L16.3957895,32.9974555 L16.3957895,25.9458765 C16.3682747,25.0203891 15.5971453,24.2916291 14.6715789,24.3164028 Z" id="Shape" fill="#0B4F6C"></path>
                        <rect id="Rectangle-path" fill="#1F83B7" x="12.9473684" y="26.5263158" width="3.44842105" height="1.08631579"></rect>
                        <path d="M23.5136842,26.5269291 C22.5881179,26.5021555 21.8169884,27.2309155 21.7894737,28.1564028 L21.7894737,33.0385081 L25.2378947,33.0385081 L25.2378947,28.1564028 C25.2086716,27.2316828 24.4385811,26.5039018 23.5136842,26.5269291 Z" id="Shape" fill="#0B4F6C"></path>
                        <rect id="Rectangle-path" fill="#1F83B7" x="21.7894737" y="28.7368421" width="3.44842105" height="1.08631579"></rect>
                        <path d="M29.3194543,33.6086842 L0.582612151,33.6086842 C0.389690045,33.6233495 0.203595308,33.5339811 0.0944332032,33.3742358 C-0.0147320599,33.2144937 -0.0303794284,33.0086463 0.0533805716,32.8342358 C0.137140572,32.6598284 0.307584782,32.5433495 0.500506887,32.5286842 C0.527784782,32.5255263 0.555334256,32.5255263 0.582612151,32.5286842 L29.3194543,32.5286842 C29.5123764,32.5140189 29.6984711,32.6033874 29.8076332,32.7631326 C29.9167985,32.9228747 29.9324458,33.1287221 29.8486858,33.3031326 C29.7649258,33.47754 29.5944816,33.5940189 29.4015595,33.6086842 L29.3194543,33.6086842 Z" id="Shape" fill="#D1EDFB"></path>
                        <path d="M14.6715789,24.3164028 C13.7460126,24.2916291 12.9748832,25.0203891 12.9473684,25.9458765 L12.9473684,27.0321923 C13.0025779,26.120407 13.7581263,25.409227 14.6715789,25.409227 C15.5850316,25.409227 16.34058,26.120407 16.3957895,27.0321923 L16.3957895,25.9458765 C16.3682747,25.0203891 15.5971453,24.2916291 14.6715789,24.3164028 Z" id="Shape" fill="#1F83B7"></path>
                        <path d="M23.5136842,26.5269291 C22.5881179,26.5021555 21.8169884,27.2309155 21.7894737,28.1564028 L21.7894737,29.2427186 C21.8446832,28.3309334 22.6002316,27.6197534 23.5136842,27.6197534 C24.4271368,27.6197534 25.1826853,28.3309334 25.2378947,29.2427186 L25.2378947,28.1564028 C25.2086716,27.2316828 24.4385811,26.5039018 23.5136842,26.5269291 Z" id="Shape" fill="#1F83B7"></path>
                        <path d="M6.14526316,26.5269291 C5.21969684,26.5021555 4.44856737,27.2309155 4.42105263,28.1564028 L4.42105263,29.2427186 C4.47626211,28.3309334 5.23181053,27.6197534 6.14526316,27.6197534 C7.05871579,27.6197534 7.81426421,28.3309334 7.86947368,29.2427186 L7.86947368,28.1564028 C7.84025053,27.2316828 7.07016,26.5039018 6.14526316,26.5269291 Z" id="Shape" fill="#1F83B7"></path>
                    </g>
                </g>
                <g id="chat" transform="translate(703.000000, 623.000000)" fill="#CCCCD0" fill-rule="nonzero">
                    <path d="M7.49655325,20.6766917 C7.38799837,20.6766917 7.2788467,20.6480711 7.17697579,20.5895288 C6.91665891,20.4399931 6.75069347,20.1222026 6.75069347,19.7732618 L6.75069347,16.9053417 L2.01289043,16.9053417 C0.902992829,16.9053417 0,15.8117579 0,14.4675987 L0,2.43774297 C0,1.09358383 0.902933151,0 2.01289043,0 L18.6638013,0 C19.7737586,0 20.6766917,1.09358383 20.6766917,2.43774297 L20.6766917,14.4675987 C20.6766917,15.8117579 19.7736989,16.9053417 18.6638013,16.9053417 L11.574672,16.9053417 L7.96860885,20.4728779 C7.83272129,20.6073083 7.66538325,20.6766917 7.49655325,20.6766917 Z M2.01289043,1.8068598 C1.72565862,1.8068598 1.49195828,2.08988632 1.49195828,2.43774297 L1.49195828,14.4675987 C1.49195828,14.8154554 1.72565862,15.0984819 2.01289043,15.0984819 L7.49667261,15.0984819 C7.90863213,15.0984819 8.24265175,15.5029294 8.24265175,16.0019118 L8.24265175,17.868687 L10.8368091,15.3022234 C10.9700112,15.1704672 11.1367524,15.0984819 11.3087454,15.0984819 L18.6638013,15.0984819 C18.9510331,15.0984819 19.1847334,14.8154554 19.1847334,14.4675987 L19.1847334,2.43774297 C19.1847334,2.08988632 18.9510331,1.8068598 18.6638013,1.8068598 L2.01289043,1.8068598 Z" id="Shape"></path>
                    <path d="M23.7064923,25 C23.5376021,25 23.3702636,24.9306166 23.2344353,24.7962585 L19.6283618,21.2286499 L12.539212,21.2286499 C11.4292515,21.2286499 10.5263158,20.1350661 10.5263158,18.790907 L10.5263158,17.4466033 C10.5263158,17.1754298 10.6269337,16.9184943 10.8003595,16.7469149 L11.7706723,15.7869664 C11.9038747,15.6552102 12.0706164,15.5832249 12.2426099,15.5832249 L19.597687,15.5832249 C19.8849197,15.5832249 20.1186207,15.3001984 20.1186207,14.9523417 L20.1186207,5.22673817 C20.1186207,4.72775577 20.4525816,4.32330827 20.864602,4.32330827 L29.1901113,4.32330827 C30.3000121,4.32330827 31.2030075,5.41681982 31.2030075,6.76105124 L31.2030075,18.790907 C31.2030075,20.1350661 30.3000718,21.2286499 29.1901113,21.2286499 L24.4522946,21.2286499 L24.4522946,24.0965701 C24.4522946,24.4455109 24.2863286,24.7633014 24.026011,24.9128371 C23.9242592,24.9713071 23.8150475,25 23.7064923,25 Z M12.0182784,17.8751182 L12.0182784,18.7908347 C12.0182784,19.1386914 12.2519794,19.4217179 12.539212,19.4217179 L19.8942892,19.4217179 C20.0662826,19.4217179 20.2330244,19.4937032 20.3662268,19.6254594 L22.9603917,22.191923 L22.9603917,20.3251478 C22.9603917,19.8261654 23.2944122,19.4217179 23.706373,19.4217179 L29.190171,19.4217179 C29.4774036,19.4217179 29.7111046,19.1386914 29.7111046,18.7908347 L29.7111046,6.76105124 C29.7111046,6.41319459 29.4774036,6.13016807 29.190171,6.13016807 L21.6106429,6.13016807 L21.6106429,14.9522695 C21.6106429,16.2964286 20.7076475,17.3900124 19.5977467,17.3900124 L12.508597,17.3900124 L12.0182784,17.8751182 Z" id="Shape"></path>
                </g>
                <g id="love" transform="translate(722.000000, 816.000000)" fill="#CCCCD0" fill-rule="nonzero">
                    <path d="M12.853125,23.6515625 L11.0546875,21.8515625 C4.375,15.9375 -5.45011085e-14,11.9546875 -5.45011085e-14,7.0703125 C-0.0276561852,5.18680686 0.708365328,3.37233168 2.04034851,2.04034851 C3.37233168,0.708365328 5.18680686,-0.0276561852 7.0703125,6.9388939e-16 C9.29642188,0.0249127742 11.4035595,1.00900299 12.8515625,2.7 C14.299186,1.00850365 16.4065638,0.0243012707 18.6328125,6.24500451e-15 C20.5163181,-0.0276561852 22.3307933,0.708365328 23.6627765,2.04034851 C24.9947597,3.37233168 25.7307812,5.18680686 25.703125,7.0703125 C25.703125,11.9546875 21.328125,15.9390625 14.6484375,21.8515625 L12.853125,23.6515625 Z" id="Path_895"></path>
                </g>
                <g id="praise" transform="translate(581.000000, 953.000000)" fill="#CCCCD0" fill-rule="nonzero">
                    <path d="M15.6455882,7.28529412 C17.0330326,7.28551331 18.2275026,6.30580919 18.4987436,4.94513652 C18.7699846,3.58446386 18.0424844,2.22162778 16.7610096,1.68981573 C15.4795347,1.15800367 14.0008421,1.60526972 13.2289495,2.75817199 C12.457057,3.91107427 12.6068559,5.44864998 13.5867647,6.43088235 C14.1339042,6.97545845 14.8736319,7.28244546 15.6455882,7.28529412 Z M19.3676471,9.05 C18.8315318,8.23142786 17.7334113,8.00232358 16.9147059,8.53823529 L13.1455882,11.0132353 L12.5926471,7.12647059 C12.4476191,6.10884571 11.6720992,5.2957656 10.6624656,5.10280601 C9.65283197,4.90984642 8.63213207,5.37963584 8.12205882,6.27205882 L7.98382353,6.51470588 L3.41323529,14.5117647 L3.325,14.6588235 C2.80464425,15.5718467 2.97593514,16.7222897 3.73970588,17.4441176 L7.91470588,21.3897059 L1.77205882,21.3897059 C0.793783851,21.3897059 0.000735294118,22.1827544 0.000735294118,23.1610294 C0.000735294118,24.1393044 0.793783851,24.9323529 1.77205882,24.9323529 L12.3602941,24.9323529 C13.0387662,24.9352196 13.6588027,24.548859 13.9551818,23.9385378 C14.2515608,23.3282166 14.1717933,22.6020231 13.75,22.0705882 L13.6676471,21.9661765 L8.60735294,15.5338235 L9.73382353,13.5632353 L10.0794118,14.4573529 L10.1588235,14.6632353 C10.3535956,15.1563059 10.7597192,15.5356889 11.264894,15.6964782 C11.7700688,15.8572675 12.3207652,15.7824254 12.7647059,15.4926471 L18.8544118,11.5029412 C19.6689649,10.9676282 19.8982726,9.87496736 19.3676471,9.05735294 L19.3676471,9.05 Z" id="Path_970"></path>
                </g>
                <g id="pray" transform="translate(201.000000, 638.000000)" fill="#CCCCD0">
                    <path d="M10.9083333,1.66666667 C10.975087,1.67317914 11.0375195,1.70262846 11.085,1.75 C11.232591,1.91036251 11.3036844,2.12668085 11.28,2.34333333 L11.28,20.8133333 C11.1943242,21.3580444 10.871378,21.8366641 10.3983333,22.12 C8.97963672,22.6029067 7.41955053,21.9915502 6.70666667,20.6733333 C5.93417428,19.4131644 5.77715234,17.8699332 6.28,16.48 C6.675,15.3866667 6.91166667,13.83 7.57833333,11.3033333 L7.57833333,11.285 C7.73270414,10.4141468 8.01698561,9.5714152 8.42166667,8.785 C8.56911531,8.53170987 8.77623575,8.31829571 9.025,8.16333333 C9.39819972,7.84259668 9.6504921,7.40387846 9.74,6.92 C9.90827304,5.87334713 9.97358508,4.81272431 9.935,3.75333333 C9.935,2.29666667 10.5,1.77666667 10.78,1.69333333 C10.8215526,1.6770415 10.8654365,1.66747707 10.91,1.665 L10.9083333,1.66666667 Z" id="Path_896"></path>
                    <path d="M12.83,1.66666667 C12.8773429,1.66854371 12.9240647,1.67811324 12.9683333,1.695 C13.2466667,1.77833333 13.8116667,2.29833333 13.8116667,3.75333333 C13.7730066,4.81272525 13.8383191,5.8733554 14.0066667,6.92 C14.0969366,7.40359789 14.3490927,7.8420792 14.7216667,8.16333333 C14.9704309,8.31829571 15.1775514,8.53170987 15.325,8.785 C15.7304449,9.57124212 16.0152992,10.4140063 16.17,11.285 L16.17,11.3033333 C16.8366667,13.8233333 17.075,15.3766667 17.4683333,16.47 L17.4683333,16.4783333 C17.971181,17.8682666 17.8141591,19.4114978 17.0416667,20.6716667 C16.18,21.7516667 14.5883333,22.9116667 13.34,22.1183333 C12.8687158,21.8341999 12.5490271,21.3543612 12.4683333,20.81 L12.4683333,2.345 C12.4444259,2.12832422 12.515549,1.91191564 12.6633333,1.75166667 C12.7068004,1.70413501 12.7660022,1.67394208 12.83,1.66666667 Z" id="Path_897"></path>
                    <path d="M4.85166667,18.3316667 C4.83031405,19.4031815 5.13803356,20.4554775 5.73333333,21.3466667 C6.31515091,22.1445452 7.09536944,22.7765337 7.99666667,23.18 L7.99666667,24.8216667 L0.0466666667,24.8216667 L9.76996262e-14,19.7566667 C1.52666667,19.3883333 2.63666667,19.14 3.48833333,18.885 C3.96360241,18.7567239 4.42143357,18.5709049 4.85166667,18.3316667 Z" id="Path_898"></path>
                    <path d="M18.8966667,18.3316667 C19.3267489,18.5720434 19.784584,18.7589834 20.26,18.8883333 C21.11,19.1433333 22.2133333,19.3883333 23.7383333,19.76 L23.6916667,24.825 L15.7516667,24.825 L15.7516667,23.1833333 C16.6525168,22.7791395 17.4325636,22.1472901 18.015,21.35 C18.6109554,20.4578727 18.9187045,19.4043121 18.8966667,18.3316667 Z" id="Path_899"></path>
                </g>
                <g id="answered-icon" transform="translate(380.000000, 875.000000)">
                    <path d="M12.7956834,1.13636364 C14.3418041,1.13636364 15.8290798,1.43220114 17.2575105,2.02387625 C18.6859414,2.61555152 19.9467941,3.45802577 21.0400668,4.55129909 C22.1333395,5.64457227 22.9758132,6.90542341 23.567488,8.33385432 C24.1591627,9.76228386 24.4550011,11.2495607 24.4550034,12.7956834 C24.4550011,14.3418041 24.1591627,15.8290798 23.567488,17.2575105 C22.9758132,18.6859414 22.1333395,19.9467941 21.0400668,21.0400668 C19.9467941,22.1333395 18.6859414,22.9758132 17.2575105,23.567488 C15.8290798,24.1591627 14.3418041,24.4550011 12.7956834,24.4550034 C11.2495607,24.4550011 9.76228386,24.1591627 8.33385432,23.567488 C6.90542341,22.9758132 5.64457227,22.1333395 4.55129909,21.0400668 C3.45802577,19.9467941 2.61555152,18.6859414 2.02387625,17.2575105 C1.432201,15.8290798 1.13636357,14.3418041 1.13636364,12.7956834 C1.13636357,11.2495607 1.432201,9.76228386 2.02387625,8.33385432 C2.61555152,6.90542341 3.45802577,5.64457227 4.55129909,4.55129909 C5.64457227,3.45802577 6.90542341,2.61555152 8.33385432,2.02387625 C9.76228386,1.43220114 11.2495607,1.13636364 12.7956834,1.13636364 Z" id="Fill-1" fill="#CCCCD0"></path>
                    <path d="M13.1116057,17.2205487 C12.9102105,17.2205487 12.7088154,17.1434521 12.5546222,16.9908323 L7.04772334,11.4839335 C6.7409104,11.1771205 6.7409104,10.6783528 7.04772334,10.3715399 C7.35453628,10.064727 7.85330397,10.064727 8.16011691,10.3715399 L13.1116057,15.3214553 L25.9285195,2.50454152 C26.2353324,2.19772858 26.7341001,2.19772858 27.040913,2.50454152 C27.347726,2.81135446 27.347726,3.31012216 27.040913,3.61693509 L13.6670158,16.9908323 C13.514396,17.1434521 13.3130008,17.2205487 13.1116057,17.2205487 Z" id="Shape" fill="#FFFFFF" fill-rule="nonzero"></path>
                </g>
                <path d="M209.944252,948.296168 L209.944252,928.348432 C209.944252,928.261324 209.944252,928.174216 209.857144,928.087108 C209.770034,928 209.682927,928 209.59582,928 L194.526132,928 C193.132404,928 192,929.132404 192,930.526132 L192,950.473867 C192,951.867596 193.132404,953 194.526132,953 L207.505226,953 L209.595819,953 C209.682927,953 209.857141,952.912892 209.944251,952.825783 C210.031358,952.738675 210.031358,952.564459 209.944251,952.477353 C209.421601,951.17073 209.421601,949.777002 209.944251,948.470383 C209.944252,948.383276 209.944252,948.383276 209.944252,948.296168 Z M197.226481,934.533101 C197.226481,934.445993 197.313589,934.271777 197.487805,934.271777 L200.972126,934.271777 L200.972126,931.397213 C200.972126,931.310105 201.059235,931.135889 201.23345,931.135889 L203.846691,931.135889 C203.933799,931.135889 204.108014,931.222997 204.108014,931.397213 L204.108014,934.358885 L207.592337,934.358885 C207.679445,934.358885 207.853659,934.445993 207.853659,934.62021 L207.853659,937.23345 C207.853659,937.320558 207.766551,937.494774 207.592337,937.494774 L204.108016,937.494774 L204.108016,945.508712 C204.108016,945.59582 204.020907,945.770034 203.846692,945.770034 L201.233451,945.770034 C201.146342,945.770034 200.972127,945.682927 200.972127,945.508712 L200.972127,937.494774 L197.487806,937.494774 C197.400698,937.494774 197.226482,937.407666 197.226482,937.23345 L197.226481,934.533101 Z M208.986063,952.216029 L207.418119,952.216029 L194.526132,952.216029 C193.567944,952.216029 192.783972,951.432055 192.783972,950.473867 C192.783972,949.51568 193.567944,948.731707 194.526132,948.731707 L207.505226,948.731707 L209.07317,948.731707 C209.07317,948.731707 209.07317,948.818816 209.07317,948.818816 C209.07317,948.818816 209.07317,948.905925 209.07317,948.905925 C209.07317,948.905925 209.07317,948.993032 209.07317,948.993032 C209.07317,948.993032 209.07317,949.08014 209.07317,949.08014 C209.07317,949.08014 209.07317,949.16725 209.07317,949.16725 C208.724739,950.299654 208.724739,951.257841 208.986063,952.216029 Z" id="bible-reading" fill="#CCCCD0"></path>
            </g>
        </g>
    </g>
</svg>