<?xml version="1.0" encoding="UTF-8"?>
<svg width="144px" height="143px" viewBox="0 0 144 143" version="1.1" xmlns="http://www.w3.org/2000/svg" xmlns:xlink="http://www.w3.org/1999/xlink">
    <!-- Generator: Sketch 51.3 (57544) - http://www.bohemiancoding.com/sketch -->
    <title>illustration chrch</title>
    <desc>Created with Sketch.</desc>
    <defs>
        <circle id="path-1" cx="105" cy="104" r="34"></circle>
    </defs>
    <g id="mock" stroke="none" stroke-width="1" fill="none" fill-rule="evenodd">
        <g id="dashboard" transform="translate(-839.000000, -412.000000)">
            <g id="church" transform="translate(723.000000, 390.000000)">
                <g id="illustration-chrch" transform="translate(116.000000, 22.000000)">
                    <circle id="Oval-2-Copy" fill="#01BAEF" opacity="0.2" cx="25" cy="25" r="25"></circle>
                    <rect id="Placeholder-image" stroke="#000000" stroke-width="2" x="26" y="25" width="78" height="78" rx="2"></rect>
                    <rect id="Placeholder-image-Copy" stroke="#000000" stroke-width="2" x="32" y="35" width="28" height="1" rx="0.5"></rect>
                    <rect id="Placeholder-image-Copy-2" stroke="#000000" stroke-width="2" x="32" y="42" width="48" height="1" rx="0.5"></rect>
                    <rect id="Placeholder-image-Copy-3" stroke="#000000" stroke-width="2" x="32" y="49" width="48" height="1" rx="0.5"></rect>
                    <rect id="Placeholder-image-Copy-4" stroke="#000000" stroke-width="2" x="32" y="56" width="48" height="1" rx="0.5"></rect>
                    <rect id="Placeholder-image-Copy-5" stroke="#000000" stroke-width="2" x="32" y="63" width="48" height="1" rx="0.5"></rect>
                    <g id="Oval-2">
                        <circle stroke="#000000" stroke-width="2" stroke-linejoin="square" fill="#FFFFFF" fill-rule="evenodd" cx="105" cy="104" r="33"></circle>
                        <circle stroke="#FFFFFF" stroke-width="5" cx="105" cy="104" r="36.5"></circle>
                    </g>
                    <g id="church-blue" transform="translate(85.000000, 81.000000)" fill-rule="nonzero">
                        <polygon id="Shape" fill="#01BAEF" points="2.10526316 33.3389474 2.10526316 44.1852632 15.1326316 44.1852632 15.1326316 26.1052632"></polygon>
                        <path d="M2.12631579,33.3389474 L15.1536842,26.1052632 L15.1536842,28.4884211 L3.70526316,35.0863158 C3.21666947,35.3610821 2.66581474,35.5060421 2.10526316,35.5073684 L2.12631579,33.3389474 Z" id="Shape" fill="#1F83B7"></path>
                        <polygon id="Shape" fill="#01BAEF" points="37.4442105 33.3389474 37.4442105 44.1852632 24.4210526 44.1852632 24.4210526 26.1052632"></polygon>
                        <path d="M37.4736842,33.3389474 L24.4210526,26.1052632 L24.4210526,28.4884211 L35.8484211,35.0821053 C36.3339284,35.3606821 36.8844632,35.5059411 37.4442105,35.5031579 L37.4736842,33.3389474 Z" id="Shape" fill="#1F83B7"></path>
                        <path d="M19.5494737,0.247018947 L15.1578947,14.2891242 L24.6736842,14.2891242 L20.2905263,0.25544 C20.2349895,0.102122105 20.0893811,0 19.9263158,0 C19.7632505,0 19.6176421,0.102122105 19.5621053,0.25544 L19.5494737,0.247018947 Z" id="Shape" fill="#E8F6FD"></path>
                        <path d="M19.9157895,8.00029613 C19.0471874,7.98839298 18.2122358,8.33578245 17.6084211,8.96029613 L16.5305263,10.1308224 L15.1578947,14.5266119 L24.6736842,14.5266119 L23.3010526,10.143454 L22.2231579,8.98134876 C21.6247453,8.34651508 20.7881516,7.99080982 19.9157895,8.00029613 Z" id="Shape" fill="#D1EDFB"></path>
                        <polygon id="Shape" fill="#01BAEF" points="25.0442105 43.9157895 14.3157895 43.9157895 14.3157895 17.1578947 19.68 11.3684211 25.0442105 17.1578947"></polygon>
                        <path d="M14.3157895,17.1578947 L14.3157895,19.3052917 C15.1884,19.3074779 16.0232379,18.9494695 16.6231579,18.3157895 L19.68,15.0189474 L22.7368421,18.3157895 C23.3367621,18.9494695 24.1716,19.3074779 25.0442105,19.3052917 L25.0442105,17.1578947 L19.68,11.3684211 L14.3157895,17.1578947 Z" id="Shape" fill="#1F83B7"></path>
                        <path d="M1.15183747,31.0947368 C0.469332205,31.4702905 0.22049431,32.3280168 0.596047994,33.0105263 C0.596047994,33.0357895 0.625521679,33.0610526 0.642363784,33.0821053 C1.11410273,33.7628926 2.0274122,33.9711284 2.74762694,33.5621053 L14.2086796,26.9473684 L14.2086796,23.5789474 L1.15183747,31.0947368 Z" id="Shape" fill="#E8F6FD"></path>
                        <path d="M19.5705664,23.8940578 C17.995337,23.8023188 16.7832612,22.4667483 16.8443138,20.8900283 C16.9053664,19.3133125 18.2170885,18.0754641 19.794697,18.1058093 C21.3723054,18.1361546 22.6354548,19.4235272 22.6358296,21.0014262 C22.5876906,22.6464451 21.2156106,23.9412493 19.5705664,23.8940578 Z" id="Shape" fill="#1F83B7"></path>
                        <path d="M0.842105263,33.4189474 C1.13799158,33.8030947 1.59511158,34.0285474 2.08,34.0294737 C2.36043368,34.0300505 2.63617684,33.9574905 2.88,33.8189474 L14.3410526,27.2042105 L14.3410526,25.6842105 L0.842105263,33.4189474 Z" id="Shape" fill="#D1EDFB"></path>
                        <path d="M38.32,31.0947368 C38.6472042,31.2711705 38.8906611,31.5706695 38.9965389,31.9270189 C39.1024126,32.2833642 39.0619916,32.6672084 38.8842105,32.9936842 C38.8684589,33.0246316 38.8501516,33.0542063 38.8294737,33.0821053 C38.53936,33.5205895 38.0457095,33.7809095 37.52,33.7726316 C37.2406863,33.7748674 36.9658821,33.7021684 36.7242105,33.5621053 L25.2631579,26.9473684 L25.2631579,23.5789474 L38.32,31.0947368 Z" id="Shape" fill="#E8F6FD"></path>
                        <path d="M38.7578947,33.4189474 C38.4620084,33.8030947 38.0048884,34.0285474 37.52,34.0294737 C37.2412126,34.0276337 36.9674358,33.9552042 36.7242105,33.8189474 L25.2631579,27.2042105 L25.2631579,25.6842105 L38.7578947,33.4189474 Z" id="Shape" fill="#D1EDFB"></path>
                        <path d="M24.8935329,17.9185874 C24.4575413,17.9202421 24.0401687,17.7420189 23.7398487,17.4259558 L19.5293224,12.8827979 L15.3187961,17.4259558 C14.742455,18.0273958 13.801074,18.0860021 13.1545856,17.5606926 C12.8663287,17.3307516 12.6812929,16.9956653 12.6402277,16.6292274 C12.5991624,16.2627853 12.7054319,15.8950505 12.9356382,15.6070084 C12.9575245,15.5748021 12.9829477,15.5451432 13.0114277,15.5185874 L18.3756382,9.73332421 C19.0170234,9.10643579 20.0416213,9.10643579 20.6830066,9.73332421 L26.0472171,15.5185874 C26.3002866,15.7862547 26.4363245,16.1436905 26.4252634,16.5118842 C26.4142024,16.8800779 26.2569519,17.2287011 25.9882698,17.4806926 L25.8998487,17.5606926 C25.6158192,17.7926463 25.2602403,17.9191095 24.8935329,17.9185874 Z" id="Shape" fill="#E8F6FD"></path>
                        <path d="M24.1010526,17.4094877 C24.6768716,18.0083845 25.6152716,18.0669193 26.2610526,17.5442245 L20.2652632,11.1231719 C20.16584,11.0156224 20.0274611,10.9524056 19.8810737,10.9476561 C19.7346821,10.9429109 19.5925011,10.9970288 19.4863158,11.0979088 L19.4610526,11.1231719 L13.4736842,17.5273824 C14.1197095,18.0665151 15.0729263,18.0131509 15.6547368,17.4052772 L19.8652632,12.8621193 L24.1010526,17.4094877 Z" id="Shape" fill="#D1EDFB"></path>
                        <path d="M19.8905421,19.3732405 C19.103199,19.4190931 18.4972579,20.0864531 18.5273927,20.8745542 C18.5575274,21.6626552 19.21266,22.281792 20.0012074,22.267392 C20.7897506,22.2529878 21.421839,21.6103352 21.4231737,20.8216615 C21.4132621,20.4255563 21.2460453,20.0496994 20.9584621,19.777131 C20.6708832,19.5045626 20.2866095,19.357712 19.8905421,19.3690299 L19.8905421,19.3732405 Z" id="Shape" fill="#FFFFFF"></path>
                        <path d="M8.19368421,35.3692389 C6.95959579,35.3362073 5.93142316,36.3078873 5.89473684,37.5418704 L5.89473684,44.0513441 L10.4926316,44.0513441 L10.4926316,37.5418704 C10.4536674,36.3089104 9.42688,35.3385357 8.19368421,35.3692389 Z" id="Shape" fill="#0B4F6C"></path>
                        <rect id="Rectangle-path" fill="#1F83B7" x="5.89473684" y="38.3157895" width="4.59789474" height="1.44842105"></rect>
                        <path d="M19.5621053,32.4218704 C18.3280168,32.3888389 17.2998442,33.3605189 17.2631579,34.594502 L17.2631579,43.9966073 L21.8610526,43.9966073 L21.8610526,34.594502 C21.8243663,33.3605189 20.7961937,32.3888389 19.5621053,32.4218704 Z" id="Shape" fill="#0B4F6C"></path>
                        <rect id="Rectangle-path" fill="#1F83B7" x="17.2631579" y="35.3684211" width="4.59789474" height="1.44842105"></rect>
                        <path d="M31.3515789,35.3692389 C30.1174905,35.3362073 29.0893179,36.3078873 29.0526316,37.5418704 L29.0526316,44.0513441 L33.6505263,44.0513441 L33.6505263,37.5418704 C33.6115621,36.3089104 32.5847747,35.3385357 31.3515789,35.3692389 Z" id="Shape" fill="#0B4F6C"></path>
                        <rect id="Rectangle-path" fill="#1F83B7" x="29.0526316" y="38.3157895" width="4.59789474" height="1.44842105"></rect>
                        <path d="M39.0926057,44.8115789 L0.776816201,44.8115789 C0.519586727,44.8311326 0.271460411,44.7119747 0.125910938,44.4989811 C-0.0196427466,44.2859916 -0.0405059045,44.0115284 0.0711740955,43.7789811 C0.182854096,43.5464379 0.410113043,43.3911326 0.667342517,43.3715789 C0.703713043,43.3673684 0.740445674,43.3673684 0.776816201,43.3715789 L39.0926057,43.3715789 C39.3498351,43.3520253 39.5979615,43.4711832 39.7435109,43.6841768 C39.8890646,43.8971663 39.9099278,44.1716295 39.7982478,44.4041768 C39.6865678,44.63672 39.4593088,44.7920253 39.2020794,44.8115789 L39.0926057,44.8115789 Z" id="Shape" fill="#D1EDFB"></path>
                        <path d="M19.5621053,32.4218704 C18.3280168,32.3888389 17.2998442,33.3605189 17.2631579,34.594502 L17.2631579,36.0429231 C17.3367705,34.8272094 18.3441684,33.8789694 19.5621053,33.8789694 C20.7800421,33.8789694 21.78744,34.8272094 21.8610526,36.0429231 L21.8610526,34.594502 C21.8243663,33.3605189 20.7961937,32.3888389 19.5621053,32.4218704 Z" id="Shape" fill="#1F83B7"></path>
                        <path d="M31.3515789,35.3692389 C30.1174905,35.3362073 29.0893179,36.3078873 29.0526316,37.5418704 L29.0526316,38.9902915 C29.1262442,37.7745778 30.1336421,36.8263378 31.3515789,36.8263378 C32.5695158,36.8263378 33.5769137,37.7745778 33.6505263,38.9902915 L33.6505263,37.5418704 C33.6115621,36.3089104 32.5847747,35.3385357 31.3515789,35.3692389 Z" id="Shape" fill="#1F83B7"></path>
                        <path d="M8.19368421,35.3692389 C6.95959579,35.3362073 5.93142316,36.3078873 5.89473684,37.5418704 L5.89473684,38.9902915 C5.96834947,37.7745778 6.97574737,36.8263378 8.19368421,36.8263378 C9.41162105,36.8263378 10.4190189,37.7745778 10.4926316,38.9902915 L10.4926316,37.5418704 C10.4536674,36.3089104 9.42688,35.3385357 8.19368421,35.3692389 Z" id="Shape" fill="#1F83B7"></path>
                    </g>
                </g>
            </g>
        </g>
    </g>
</svg>