<?xml version="1.0" encoding="UTF-8"?>
<svg width="20px" height="20px" viewBox="0 0 20 20" version="1.1" xmlns="http://www.w3.org/2000/svg" xmlns:xlink="http://www.w3.org/1999/xlink">
    <!-- Generator: Sketch 52.2 (67145) - http://www.bohemiancoding.com/sketch -->
    <title>Shape</title>
    <desc>Created with Sketch.</desc>
    <defs>
        <linearGradient x1="8.51990086%" y1="0%" x2="138.615896%" y2="134.487026%" id="linearGradient-1">
            <stop stop-color="#EB0202" offset="0%"></stop>
            <stop stop-color="#FF5A5F" offset="100%"></stop>
        </linearGradient>
    </defs>
    <g id="Page-1" stroke="none" stroke-width="1" fill="none" fill-rule="evenodd" opacity="0.891764323">
        <g id="bulletin-church-copy" transform="translate(-330.000000, -160.000000)" fill="url(#linearGradient-1)">
            <g id="card-prayer-copy" transform="translate(270.000000, 80.000000)">
                <path d="M79.8233178,80.1649044 C79.7116669,80.0543884 79.5742504,79.9994218 79.4110683,80.0000046 L60.5889325,80.0000046 C60.4257197,79.9994218 60.284377,80.0543884 60.1649044,80.1649044 C60.0543884,80.284377 59.9994218,80.4257197 60.0000046,80.5889325 L60.0000046,99.4110683 C59.9994218,99.5742504 60.0543884,99.7116669 60.1649044,99.8233178 C60.284377,99.9416555 60.4257197,100.000548 60.5889325,99.9999962 L79.4110683,99.9999962 C79.5742504,100.000548 79.7116669,99.9416555 79.8233178,99.8233178 C79.9416555,99.7116669 80.0005483,99.5742504 79.9999962,99.4110683 L79.9999962,80.5889325 C80.0005483,80.4257197 79.9416555,80.284377 79.8233178,80.1649044 Z M79,96.8076312 L79,99 L75.2141823,99 L71,93.8139905 L73.7901592,92 L79,96.8076312 Z M79,81 L79,95 L74.0734312,90.2650602 C73.9744555,90.1656627 73.8542953,90.1094378 73.7129506,90.0963855 C73.5734521,90.084306 73.4452812,90.1164345 73.3284379,90.1927711 L69.9519359,92.4939759 L66.2389853,87.8915663 C66.1631968,87.8037149 66.0670686,87.7394578 65.9506008,87.6987952 C65.8413614,87.6650979 65.7292119,87.6610818 65.6141522,87.686747 C65.5008136,87.7228288 65.4046854,87.7830698 65.3257677,87.8674699 L61,92.626506 L61,81 L79,81 Z M61,99 L61,94.2933985 L65.5287356,89 L68.9885057,93.5476773 L69,93.5476773 L73,99 L61,99 Z M76.2564055,83.7179667 C75.8783013,83.3399664 75.4338578,83.1091999 74.9230749,83.0256672 C74.7877252,83.0080058 74.6466999,82.9994589 74.4999988,83.0000265 C73.8129342,82.9989248 73.2231918,83.2382382 72.7307716,83.7179667 C72.7274329,83.7221734 72.7231594,83.7264469 72.7179511,83.7307871 C72.2382178,84.2232025 71.998902,84.8129391 72.0000038,85.499997 C72.0000038,86.1910612 72.2393195,86.7765244 72.7179511,87.2563865 C73.2163475,87.7535427 73.8103634,88.0014031 74.4999988,87.9999675 C74.6466999,88.0007353 74.7877252,87.987915 74.9230749,87.9615064 C75.4308196,87.8878561 75.8752631,87.6570896 76.2564055,87.2692069 C76.2607458,87.2649668 76.2650193,87.2606933 76.269226,87.2563865 C76.7568052,86.7730522 77.0003944,86.187589 76.9999938,85.499997 C77.0014294,84.8103684 76.7535667,84.2163583 76.2564055,83.7179667 Z M75.6947368,85.2842105 C75.8970395,85.4854989 75.9987939,85.7240954 76,86 C75.9996985,86.2725603 75.9014529,86.5041393 75.7052632,86.6947368 C75.7019737,86.6987116 75.6984649,86.7022204 75.6947368,86.7052632 C75.5469024,86.8577029 75.3749726,86.9489309 75.1789474,86.9789474 C75.1216283,86.992352 75.0619792,86.9993695 75,87 C74.7240954,86.9987939 74.4854989,86.8970395 74.2842105,86.6947368 C74.0947094,86.50625 73.9999726,86.2746711 74,86 C74.0008772,85.7269737 74.095614,85.491886 74.2842105,85.2947368 C74.2877467,85.2912829 74.2912555,85.2877741 74.2947368,85.2842105 C74.491886,85.095614 74.7269737,85.0008772 75,85 C75.0620066,85.000466 75.1216557,85.0039748 75.1789474,85.0105263 C75.3771107,85.0472039 75.5490406,85.138432 75.6947368,85.2842105 Z" id="Shape"></path>
            </g>
        </g>
    </g>
</svg>