<?xml version="1.0" encoding="UTF-8"?>
<svg width="20px" height="15px" viewBox="0 0 20 15" version="1.1" xmlns="http://www.w3.org/2000/svg" xmlns:xlink="http://www.w3.org/1999/xlink">
    <!-- Generator: Sketch 52.2 (67145) - http://www.bohemiancoding.com/sketch -->
    <title>inbox</title>
    <desc>Created with Sketch.</desc>
    <g id="Page-1" stroke="none" stroke-width="1" fill="none" fill-rule="evenodd">
        <g id="profile-copy" transform="translate(-42.000000, -404.000000)" fill="#000000" fill-rule="nonzero">
            <g id="side-menu" transform="translate(42.000000, 80.000000)">
                <g id="inbox" transform="translate(0.000000, 322.000000)">
                    <g transform="translate(0.000000, 2.000000)">
                        <path d="M19.6,14.6210681 L0.4,14.6210681 C0.17890624,14.6210681 0,14.4443231 0,14.2263312 L0,0.773668776 C0,0.555676895 0.17890624,0.378931934 0.4,0.378931934 L19.6,0.378931934 C19.8210938,0.378931934 20,0.555676895 20,0.773668776 L20,14.2263312 C20,14.4443231 19.8210938,14.6210681 19.6,14.6210681 Z M0.8,13.8315944 L19.2,13.8315944 L19.2,1.16840562 L0.8,1.16840562 L0.8,13.8315944 Z" id="Shape"></path>
                        <g id="Group">
                            <path d="M19.6,14.6210681 L0.4,14.6210681 C0.23828124,14.6210681 0.09218748,14.5248895 0.03046876,14.3774414 C-0.0316406,14.2298006 0.0027344,14.0601871 0.11718752,13.9472399 L6.93320316,7.2209087 C7.08945316,7.06671462 7.34257816,7.06690737 7.49882816,7.22071595 L10,9.68550833 L12.5011719,7.22071599 C12.6574219,7.06690741 12.9105469,7.06671466 13.0667969,7.22090874 L19.8828125,13.94724 C19.9972656,14.0601871 20.0316406,14.2298006 19.9695313,14.3774415 C19.9078125,14.5248895 19.7617188,14.6210681 19.6,14.6210681 Z M1.365625,13.8315944 L18.634375,13.8315944 L12.7835938,8.05798982 L10.2828125,10.5225894 C10.1265625,10.676398 9.87343752,10.676398 9.71718752,10.5225894 L7.21640628,8.05798982 L1.365625,13.8315944 Z" id="Shape"></path>
                            <path d="M10,10.6380422 C9.89765624,10.6380422 9.79531248,10.5994937 9.71718748,10.5225894 L0.11718748,1.05276004 C0.00273436,0.939812882 -0.03164064,0.770199395 0.03046872,0.622558539 C0.09218752,0.475110513 0.23828124,0.378931934 0.4,0.378931934 L19.6,0.378931934 C19.7617188,0.378931934 19.9078125,0.475110474 19.9695312,0.622558579 C20.0316406,0.770199395 19.9972656,0.939812882 19.8828125,1.05276008 L10.2828125,10.5225894 C10.2046875,10.5994937 10.1023438,10.6380422 10,10.6380422 Z M1.365625,1.16840562 L10,9.68550833 L18.634375,1.16840562 L1.365625,1.16840562 Z" id="Shape"></path>
                        </g>
                    </g>
                </g>
            </g>
        </g>
    </g>
</svg>