<?xml version="1.0" encoding="UTF-8"?>
<svg width="20px" height="20px" viewBox="0 0 20 20" version="1.1" xmlns="http://www.w3.org/2000/svg" xmlns:xlink="http://www.w3.org/1999/xlink">
    <!-- Generator: Sketch 52.2 (67145) - http://www.bohemiancoding.com/sketch -->
    <title>journal</title>
    <desc>Created with Sketch.</desc>
    <g id="Page-1" stroke="none" stroke-width="1" fill="none" fill-rule="evenodd">
        <g id="profile-copy" transform="translate(-42.000000, -199.000000)" fill="#D30101" fill-rule="nonzero">
            <g id="side-menu" transform="translate(42.000000, 80.000000)">
                <g id="journal" transform="translate(0.000000, 119.000000)">
                    <path d="M19.0022788,0 L2.00016736,0 C0.422590968,0.00122521515 0.00140042372,1.11979594 0,2.5 L0,17.5 C0.00140042372,18.8802041 0.422590968,19.9987748 2.00016736,20 L19.0022788,20 C19.3964673,20 20,19.3886801 20,19.043809 L20,0.974107585 C20,0.629236441 19.3964673,0 19.0022788,0 Z M2.00016736,19.043809 C1.21237016,19.0425858 0.968898801,18.189235 0.967500755,17.5 L0.967500755,2.5 C0.968901801,1.8098984 1.21137841,0.974106496 2.00016736,0.974107585 L4.02940879,0.974107585 L4.02940879,19.043809 L2.00016736,19.043809 Z M19.0022788,19.043809 L4.97258253,19.043809 L4.97258253,0.974107585 L11.9972077,0.974107585 L11.9972077,7.00234125 L13.5737871,5.31111111 L15.0034036,7.00234125 L15.0034036,0.974107585 L19.0022788,0.974107585 L19.0022788,19.043809 Z"></path>
                </g>
            </g>
        </g>
    </g>
</svg>