<?xml version="1.0" encoding="UTF-8"?>
<svg width="17px" height="16px" viewBox="0 0 17 16" version="1.1" xmlns="http://www.w3.org/2000/svg" xmlns:xlink="http://www.w3.org/1999/xlink">
    <!-- Generator: Sketch 52.3 (67297) - http://www.bohemiancoding.com/sketch -->
    <title>Shape</title>
    <desc>Created with Sketch.</desc>
    <g id="Page-1" stroke="none" stroke-width="1" fill="none" fill-rule="evenodd">
        <g id="bulletin-church-copy-2" transform="translate(-289.000000, -625.000000)" fill-rule="nonzero" stroke="#979797">
            <g id="card-church-post-copy" transform="translate(270.000000, 140.000000)">
                <g id="like" transform="translate(20.000000, 486.000000)">
                    <path d="M3.6627907,11.0507412 C5.44186047,12.7620395 7.18604651,13.8907682 7.25581395,13.9453841 C7.30813953,13.9817947 7.37790698,14 7.43023256,14 C7.5,14 7.55232558,13.9817947 7.60465116,13.9453841 C7.6744186,13.8907682 9.45348837,12.7620395 11.2674419,11.0507412 C13.744186,8.72046257 15,6.53582639 15,4.56965383 L15,4.44221672 C15,1.98450102 13.2209302,0.000123153942 11.0406977,0.000123153942 C9.52325581,0.000123153942 8.11046512,1.00141474 7.46511628,2.54886536 C6.78488372,1.00141474 5.40697674,0.000123153942 3.90697674,0.000123153942 C1.74418605,-0.0180821475 0,1.98450102 0,4.42401142 L0,4.55144853 C0,6.53582639 1.23837209,8.72046257 3.6627907,11.0507412 Z" id="Shape"></path>
                </g>
            </g>
        </g>
    </g>
</svg>