<?xml version="1.0" encoding="UTF-8"?>
<svg width="163px" height="40px" viewBox="0 0 163 40" version="1.1" xmlns="http://www.w3.org/2000/svg" xmlns:xlink="http://www.w3.org/1999/xlink">
    <!-- Generator: Sketch 52.5 (67469) - http://www.bohemiancoding.com/sketch -->
    <title>logo</title>
    <desc>Created with Sketch.</desc>
    <g id="members" stroke="none" stroke-width="1" fill="none" fill-rule="evenodd">
        <g id="logo" fill="#D30101">
            <path d="M14.4724693,33.4039977 L14.4724693,18.9008477 L6.5822299,18.9008477 L6.5822299,14.50315 L14.4724693,14.50315 L14.4724693,6.59618376 L18.860683,6.59618376 L18.860683,14.50315 L26.7509224,14.50315 L26.7509224,18.9008477 L18.860683,18.9008477 L18.860683,40 L25.4430939,33.4039977 L28.4278902,33.4039977 C31.1259201,33.4039977 33.3333333,31.1917235 33.3333333,28.4881553 L33.3333333,4.9156609 C33.3333333,2.21209276 31.1259201,0 28.4278902,0 L4.90544313,0 C2.2074132,0 0,2.21209276 0,4.9156609 L0,28.4881553 C0,31.1917235 2.2074132,33.4039977 4.90544313,33.4039977 L14.4724693,33.4039977" id="graphic"></path>
            <g id="text" transform="translate(41.666667, 15.000000)">
                <path d="M9.375,8.78916667 L8.2175,7.6175 C7.77833333,8.02666667 7.33333333,8.3525 6.88416667,8.59166667 C6.435,8.83083333 5.89833333,8.95083333 5.27333333,8.95083333 C4.785,8.95083333 4.33333333,8.855 3.91833333,8.665 C3.50333333,8.47416667 3.145,8.21333333 2.84166667,7.88083333 C2.53916667,7.54916667 2.305,7.16083333 2.13916667,6.71666667 C1.9725,6.2725 1.89,5.79666667 1.89,5.28833333 C1.89,4.78083333 1.9725,4.30666667 2.13916667,3.8675 C2.305,3.42833333 2.53916667,3.045 2.84166667,2.7175 C3.145,2.39083333 3.50333333,2.13166667 3.91833333,1.94166667 C4.33333333,1.75083333 4.785,1.65583333 5.27333333,1.65583333 C5.85916667,1.65583333 6.38166667,1.7725 6.84083333,2.0075 C7.3,2.24166667 7.73416667,2.54916667 8.14416667,2.93 L9.30166667,1.59666667 C9.0575,1.3625 8.79833333,1.1475 8.525,0.9525 C8.25166667,0.7575 7.95416667,0.588333333 7.63166667,0.4475 C7.30916667,0.305833333 6.95583333,0.195833333 6.57,0.1175 C6.18416667,0.0391666667 5.75666667,0 5.28833333,0 C4.50666667,0 3.79416667,0.139166667 3.14916667,0.4175 C2.505,0.695833333 1.94916667,1.07666667 1.48,1.56 C1.01083333,2.04416667 0.6475,2.6075 0.388333333,3.2525 C0.129166667,3.89666667 0,4.585 0,5.3175 C0,6.06 0.131666667,6.75333333 0.395833333,7.3975 C0.66,8.04166667 1.02333333,8.60166667 1.48666667,9.075 C1.95083333,9.54833333 2.5,9.92166667 3.135,10.195 C3.77,10.4691667 4.46333333,10.6058333 5.215,10.6058333 C5.69333333,10.6058333 6.13,10.5641667 6.52583333,10.4816667 C6.92083333,10.3975 7.285,10.2758333 7.61666667,10.115 C7.94916667,9.95416667 8.25916667,9.76333333 8.5475,9.54416667 C8.835,9.32333333 9.11083333,9.0725 9.375,8.78916667 Z M19.6441667,6.10916667 L19.6441667,10.43 L21.4316667,10.43 L21.4316667,0.175833333 L19.6441667,0.175833333 L19.6441667,4.43916667 L14.7233333,4.43916667 L14.7233333,0.175833333 L12.9358333,0.175833333 L12.9358333,10.43 L14.7233333,10.43 L14.7233333,6.10916667 L19.6441667,6.10916667 Z M34.3525,0.175833333 L32.5658333,0.175833333 L32.5658333,6.07916667 C32.5658333,7.02666667 32.3341667,7.74 31.8725,8.2175 C31.4108333,8.69666667 30.7783333,8.93583333 29.9733333,8.93583333 C29.1575,8.93583333 28.5208333,8.68666667 28.0591667,8.18916667 C27.5975,7.69083333 27.3658333,6.96333333 27.3658333,6.00583333 L27.3658333,0.175833333 L25.5783333,0.175833333 L25.5783333,6.07916667 C25.5783333,6.82166667 25.6816667,7.47333333 25.8866667,8.03416667 C26.0916667,8.59666667 26.3841667,9.0675 26.765,9.44833333 C27.1458333,9.82916667 27.605,10.115 28.1416667,10.3058333 C28.6791667,10.495 29.28,10.59 29.9433333,10.59 C30.6175,10.59 31.225,10.495 31.7675,10.3058333 C32.3091667,10.115 32.7708333,9.82583333 33.1516667,9.44083333 C33.5325,9.05583333 33.8275,8.57416667 34.0375,7.99833333 C34.2475,7.4225 34.3525,6.75333333 34.3525,5.99166667 L34.3525,0.175833333 Z M47.2,10.43 L44.4316667,6.54833333 C44.7933333,6.45083333 45.1233333,6.31166667 45.4208333,6.13083333 C45.7191667,5.95 45.975,5.73 46.1891667,5.47166667 C46.4041667,5.2125 46.5733333,4.915 46.695,4.57833333 C46.8175,4.24083333 46.8783333,3.8575 46.8783333,3.42833333 C46.8783333,2.93 46.79,2.47833333 46.615,2.07333333 C46.4383333,1.6675 46.1875,1.32583333 45.86,1.0475 C45.5333333,0.769166667 45.1325,0.554166667 44.6591667,0.403333333 C44.185,0.251666667 43.6558333,0.175833333 43.07,0.175833333 L38.4991667,0.175833333 L38.4991667,10.43 L40.2866667,10.43 L40.2866667,6.85583333 L42.55,6.85583333 L45.0766667,10.43 L47.2,10.43 Z M45.0475,3.52333333 C45.0475,4.05333333 44.8566667,4.47583333 44.4733333,4.78833333 C44.0925,5.1025 43.5775,5.25916667 42.9308333,5.25916667 L40.2866667,5.25916667 L40.2866667,1.8025 L42.9158333,1.8025 C43.5925,1.8025 44.1175,1.94583333 44.4883333,2.23666667 C44.8616667,2.525 45.0475,2.95416667 45.0475,3.52333333 Z M59.6816667,8.78916667 L58.525,7.6175 C58.085,8.02666667 57.6408333,8.3525 57.1916667,8.59166667 C56.7425,8.83083333 56.2058333,8.95083333 55.5808333,8.95083333 C55.0925,8.95083333 54.6408333,8.855 54.2258333,8.665 C53.8108333,8.47416667 53.4516667,8.21333333 53.1491667,7.88083333 C52.8466667,7.54916667 52.6125,7.16083333 52.4458333,6.71666667 C52.28,6.2725 52.1966667,5.79666667 52.1966667,5.28833333 C52.1966667,4.78083333 52.28,4.30666667 52.4458333,3.8675 C52.6125,3.42833333 52.8466667,3.045 53.1491667,2.7175 C53.4516667,2.39083333 53.8108333,2.13166667 54.2258333,1.94166667 C54.6408333,1.75083333 55.0925,1.65583333 55.5808333,1.65583333 C56.1666667,1.65583333 56.6891667,1.7725 57.1475,2.0075 C57.6066667,2.24166667 58.0416667,2.54916667 58.4516667,2.93 L59.6091667,1.59666667 C59.365,1.3625 59.1058333,1.1475 58.8325,0.9525 C58.5591667,0.7575 58.2608333,0.588333333 57.9391667,0.4475 C57.6166667,0.305833333 57.2625,0.195833333 56.8766667,0.1175 C56.4908333,0.0391666667 56.0641667,0 55.595,0 C54.8141667,0 54.1016667,0.139166667 53.4566667,0.4175 C52.8116667,0.695833333 52.2558333,1.07666667 51.7866667,1.56 C51.3183333,2.04416667 50.9541667,2.6075 50.695,3.2525 C50.4366667,3.89666667 50.3075,4.585 50.3075,5.3175 C50.3075,6.06 50.4391667,6.75333333 50.7025,7.3975 C50.9666667,8.04166667 51.33,8.60166667 51.7941667,9.075 C52.2583333,9.54833333 52.8066667,9.92166667 53.4425,10.195 C54.0766667,10.4691667 54.77,10.6058333 55.5216667,10.6058333 C56.0008333,10.6058333 56.4375,10.5641667 56.8325,10.4816667 C57.2283333,10.3975 57.5925,10.2758333 57.9241667,10.115 C58.2558333,9.95416667 58.5666667,9.76333333 58.8541667,9.54416667 C59.1425,9.32333333 59.4183333,9.0725 59.6816667,8.78916667 Z M69.9516667,6.10916667 L69.9516667,10.43 L71.7383333,10.43 L71.7383333,0.175833333 L69.9516667,0.175833333 L69.9516667,4.43916667 L65.03,4.43916667 L65.03,0.175833333 L63.2433333,0.175833333 L63.2433333,10.43 L65.03,10.43 L65.03,6.10916667 L69.9516667,6.10916667 Z" id="Fill-3"></path>
                <path d="M84.3291667,2.15333333 L84.3291667,0.0733333333 L75.8333333,0.0733333333 L75.8333333,2.15333333 L78.9533333,2.15333333 L78.9533333,10.3275 L81.2091667,10.3275 L81.2091667,2.15333333 L84.3291667,2.15333333 Z M97.7183333,10.3275 L93.3241667,0 L91.2441667,0 L86.8491667,10.3275 L89.15,10.3275 L90.0875,8.02666667 L94.4225,8.02666667 L95.36,10.3275 L97.7183333,10.3275 Z M93.6175,6.03583333 L90.8925,6.03583333 L92.255,2.71 L93.6175,6.03583333 Z M108.34,10.3275 L108.34,8.29166667 L103.228333,8.29166667 L103.228333,0.0733333333 L100.9725,0.0733333333 L100.9725,10.3275 L108.34,10.3275 Z M121.040833,10.3275 L116.675,4.42416667 L120.85,0.0733333333 L118.126667,0.0733333333 L113.965833,4.55583333 L113.965833,0.0733333333 L111.71,0.0733333333 L111.71,10.3275 L113.965833,10.3275 L113.965833,7.1925 L115.1525,5.9625 L118.331667,10.3275 L121.040833,10.3275 Z" id="Fill-4"></path>
            </g>
        </g>
    </g>
</svg>