<?xml version="1.0" encoding="UTF-8"?>
<svg width="14px" height="14px" viewBox="0 0 14 14" version="1.1" xmlns="http://www.w3.org/2000/svg" xmlns:xlink="http://www.w3.org/1999/xlink">
    <!-- Generator: Sketch 52.2 (67145) - http://www.bohemiancoding.com/sketch -->
    <title>logout</title>
    <desc>Created with Sketch.</desc>
    <g id="Page-2" stroke="none" stroke-width="1" fill="none" fill-rule="evenodd">
        <g id="profile-view-copy" transform="translate(-1174.000000, -206.000000)" fill="#333333">
            <g id="dropdown" transform="translate(1159.000000, 50.000000)">
                <g id="logout" transform="translate(15.000000, 156.000000)">
                    <path d="M6.45365854,14 C7.39658372,14 8.16097561,13.2164983 8.16097561,12.25 L8.16097561,10.31625 C8.16097561,10.1229503 8.00809723,9.96625 7.8195122,9.96625 C7.63092716,9.96625 7.47804878,10.1229503 7.47804878,10.31625 L7.47804878,12.25 C7.47804878,12.829899 7.01941365,13.3 6.45365854,13.3 L1.84390244,13.3 C1.27814733,13.3 0.819512195,12.829899 0.819512195,12.25 L0.819512195,1.75 C0.819512195,1.17010101 1.27814733,0.7 1.84390244,0.7 L6.45365854,0.7 C7.01941365,0.7 7.47804878,1.17010101 7.47804878,1.75 L7.47804878,3.71 C7.47804878,3.90329966 7.63092716,4.06 7.8195122,4.06 C8.00809723,4.06 8.16097561,3.90329966 8.16097561,3.71 L8.16097561,1.75 C8.16097561,0.783501688 7.39658372,0 6.45365854,0 L1.84390244,0 C0.900977256,0 0.136585366,0.783501688 0.136585366,1.75 L0.136585366,12.25 C0.136585366,13.2164983 0.900977256,14 1.84390244,14 L6.45365854,14 Z" id="Path"></path>
                    <path d="M13.7268293,6.72175 L10.1414634,3.04675 C10.0551533,2.95828211 9.92935351,2.92373146 9.81145167,2.95611296 C9.69354983,2.98849446 9.60145801,3.08288857 9.5698663,3.20373796 C9.5382746,3.32458735 9.57198254,3.45353211 9.65829268,3.542 L12.6904878,6.65 L4.23414634,6.65 C4.0455613,6.65 3.89268293,6.80670034 3.89268293,7 C3.89268293,7.19329966 4.0455613,7.35 4.23414634,7.35 L12.6904878,7.35 L9.65317073,10.465 C9.56686059,10.5534679 9.53315265,10.6824127 9.56474435,10.803262 C9.59633605,10.9241114 9.68842788,11.0185055 9.80632972,11.050887 C9.92423156,11.0832685 10.0500313,11.0487179 10.1363415,10.96025 L13.7217073,7.28525 C13.8063611,7.21904175 13.8560358,7.11614478 13.8560358,7.007 C13.8560358,6.89785522 13.8063611,6.79495825 13.7217073,6.72875 L13.7268293,6.72175 Z" id="Path"></path>
                </g>
            </g>
        </g>
    </g>
</svg>