<?xml version="1.0" encoding="UTF-8"?>
<svg width="196px" height="48px" viewBox="0 0 196 48" version="1.1" xmlns="http://www.w3.org/2000/svg" xmlns:xlink="http://www.w3.org/1999/xlink">
    <!-- Generator: Sketch 51.3 (57544) - http://www.bohemiancoding.com/sketch -->
    <title>logo</title>
    <desc>Created with Sketch.</desc>
    <defs></defs>
    <g id="mock" stroke="none" stroke-width="1" fill="none" fill-rule="evenodd">
        <g id="sign-in-via-email" transform="translate(-135.000000, -30.000000)" fill="#D30101">
            <g id="logo" transform="translate(135.000000, 30.000000)">
                <path d="M17.3669632,40.0847972 L17.3669632,22.6810172 L7.89867588,22.6810172 L7.89867588,17.40378 L17.3669632,17.40378 L17.3669632,7.91542052 L22.6328195,7.91542052 L22.6328195,17.40378 L32.1011069,17.40378 L32.1011069,22.6810172 L22.6328195,22.6810172 L22.6328195,48 L30.5317127,40.0847972 L34.1134682,40.0847972 C37.3511042,40.0847972 40,37.4300682 40,34.1857864 L40,5.89879308 C40,2.65451131 37.3511042,0 34.1134682,0 L5.88653176,0 C2.64889584,0 0,2.65451131 0,5.89879308 L0,34.1857864 C0,37.4300682 2.64889584,40.0847972 5.88653176,40.0847972 L17.3669632,40.0847972" id="graphic"></path>
                <g id="text" transform="translate(50.000000, 18.000000)">
                    <path d="M11.25,10.547 L9.861,9.141 C9.334,9.632 8.8,10.023 8.261,10.31 C7.722,10.597 7.078,10.741 6.328,10.741 C5.742,10.741 5.2,10.626 4.702,10.398 C4.204,10.169 3.774,9.856 3.41,9.457 C3.047,9.059 2.766,8.593 2.567,8.06 C2.367,7.527 2.268,6.956 2.268,6.346 C2.268,5.737 2.367,5.168 2.567,4.641 C2.766,4.114 3.047,3.654 3.41,3.261 C3.774,2.869 4.204,2.558 4.702,2.33 C5.2,2.101 5.742,1.987 6.328,1.987 C7.031,1.987 7.658,2.127 8.209,2.409 C8.76,2.69 9.281,3.059 9.773,3.516 L11.162,1.916 C10.869,1.635 10.558,1.377 10.23,1.143 C9.902,0.909 9.545,0.706 9.158,0.537 C8.771,0.367 8.347,0.235 7.884,0.141 C7.421,0.047 6.908,0 6.346,0 C5.408,0 4.553,0.167 3.779,0.501 C3.006,0.835 2.339,1.292 1.776,1.872 C1.213,2.453 0.777,3.129 0.466,3.903 C0.155,4.676 0,5.502 0,6.381 C0,7.272 0.158,8.104 0.475,8.877 C0.792,9.65 1.228,10.322 1.784,10.89 C2.341,11.458 3,11.906 3.762,12.234 C4.524,12.563 5.356,12.727 6.258,12.727 C6.832,12.727 7.356,12.677 7.831,12.578 C8.305,12.477 8.742,12.331 9.14,12.138 C9.539,11.945 9.911,11.716 10.257,11.453 C10.602,11.188 10.933,10.887 11.25,10.547 Z M23.573,7.331 L23.573,12.516 L25.718,12.516 L25.718,0.211 L23.573,0.211 L23.573,5.327 L17.668,5.327 L17.668,0.211 L15.523,0.211 L15.523,12.516 L17.668,12.516 L17.668,7.331 L23.573,7.331 Z M41.223,0.211 L39.079,0.211 L39.079,7.295 C39.079,8.432 38.801,9.288 38.247,9.861 C37.693,10.436 36.934,10.723 35.968,10.723 C34.989,10.723 34.225,10.424 33.671,9.827 C33.117,9.229 32.839,8.356 32.839,7.207 L32.839,0.211 L30.694,0.211 L30.694,7.295 C30.694,8.186 30.818,8.968 31.064,9.641 C31.31,10.316 31.661,10.881 32.118,11.338 C32.575,11.795 33.126,12.138 33.77,12.367 C34.415,12.594 35.136,12.708 35.932,12.708 C36.741,12.708 37.47,12.594 38.121,12.367 C38.771,12.138 39.325,11.791 39.782,11.329 C40.239,10.867 40.593,10.289 40.845,9.598 C41.097,8.907 41.223,8.104 41.223,7.19 L41.223,0.211 Z M56.64,12.516 L53.318,7.858 C53.752,7.741 54.148,7.574 54.505,7.357 C54.863,7.14 55.17,6.876 55.427,6.566 C55.685,6.255 55.888,5.898 56.034,5.494 C56.181,5.089 56.254,4.629 56.254,4.114 C56.254,3.516 56.148,2.974 55.938,2.488 C55.726,2.001 55.425,1.591 55.032,1.257 C54.64,0.923 54.159,0.665 53.591,0.484 C53.022,0.302 52.387,0.211 51.684,0.211 L46.199,0.211 L46.199,12.516 L48.344,12.516 L48.344,8.227 L51.06,8.227 L54.092,12.516 L56.64,12.516 Z M54.057,4.228 C54.057,4.864 53.828,5.371 53.368,5.746 C52.911,6.123 52.293,6.311 51.517,6.311 L48.344,6.311 L48.344,2.163 L51.499,2.163 C52.311,2.163 52.941,2.335 53.386,2.684 C53.834,3.03 54.057,3.545 54.057,4.228 Z M71.618,10.547 L70.23,9.141 C69.702,9.632 69.169,10.023 68.63,10.31 C68.091,10.597 67.447,10.741 66.697,10.741 C66.111,10.741 65.569,10.626 65.071,10.398 C64.573,10.169 64.142,9.856 63.779,9.457 C63.416,9.059 63.135,8.593 62.935,8.06 C62.736,7.527 62.636,6.956 62.636,6.346 C62.636,5.737 62.736,5.168 62.935,4.641 C63.135,4.114 63.416,3.654 63.779,3.261 C64.142,2.869 64.573,2.558 65.071,2.33 C65.569,2.101 66.111,1.987 66.697,1.987 C67.4,1.987 68.027,2.127 68.577,2.409 C69.128,2.69 69.65,3.059 70.142,3.516 L71.531,1.916 C71.238,1.635 70.927,1.377 70.599,1.143 C70.271,0.909 69.913,0.706 69.527,0.537 C69.14,0.367 68.715,0.235 68.252,0.141 C67.789,0.047 67.277,0 66.714,0 C65.777,0 64.922,0.167 64.148,0.501 C63.374,0.835 62.707,1.292 62.144,1.872 C61.582,2.453 61.145,3.129 60.834,3.903 C60.524,4.676 60.369,5.502 60.369,6.381 C60.369,7.272 60.527,8.104 60.843,8.877 C61.16,9.65 61.596,10.322 62.153,10.89 C62.71,11.458 63.368,11.906 64.131,12.234 C64.892,12.563 65.724,12.727 66.626,12.727 C67.201,12.727 67.725,12.677 68.199,12.578 C68.674,12.477 69.111,12.331 69.509,12.138 C69.907,11.945 70.28,11.716 70.625,11.453 C70.971,11.188 71.302,10.887 71.618,10.547 Z M83.942,7.331 L83.942,12.516 L86.086,12.516 L86.086,0.211 L83.942,0.211 L83.942,5.327 L78.036,5.327 L78.036,0.211 L75.892,0.211 L75.892,12.516 L78.036,12.516 L78.036,7.331 L83.942,7.331 Z" id="Fill-3"></path>
                    <path d="M101.195,2.584 L101.195,0.088 L91,0.088 L91,2.584 L94.744,2.584 L94.744,12.393 L97.451,12.393 L97.451,2.584 L101.195,2.584 Z M117.262,12.393 L111.989,0 L109.493,0 L104.219,12.393 L106.98,12.393 L108.105,9.632 L113.307,9.632 L114.432,12.393 L117.262,12.393 Z M112.341,7.243 L109.071,7.243 L110.706,3.252 L112.341,7.243 Z M130.008,12.393 L130.008,9.95 L123.874,9.95 L123.874,0.088 L121.167,0.088 L121.167,12.393 L130.008,12.393 Z M145.249,12.393 L140.01,5.309 L145.02,0.088 L141.752,0.088 L136.759,5.467 L136.759,0.088 L134.052,0.088 L134.052,12.393 L136.759,12.393 L136.759,8.631 L138.183,7.155 L141.998,12.393 L145.249,12.393 Z" id="Fill-4"></path>
                </g>
            </g>
        </g>
    </g>
</svg>