<?xml version="1.0" encoding="UTF-8"?>
<svg width="122px" height="30px" viewBox="0 0 122 30" version="1.1" xmlns="http://www.w3.org/2000/svg" xmlns:xlink="http://www.w3.org/1999/xlink">
    <!-- Generator: Sketch 51.3 (57544) - http://www.bohemiancoding.com/sketch -->
    <title>logo</title>
    <desc>Created with Sketch.</desc>
    <defs></defs>
    <g id="mock" stroke="none" stroke-width="1" fill="none" fill-rule="evenodd">
        <g id="dashboard" transform="translate(-98.000000, -30.000000)" fill="#D30101">
            <g id="logo" transform="translate(98.000000, 30.000000)">
                <path d="M10.854352,25.0529982 L10.854352,14.1756358 L4.93667242,14.1756358 L4.93667242,10.8773625 L10.854352,10.8773625 L10.854352,4.94713782 L14.1455122,4.94713782 L14.1455122,10.8773625 L20.0631918,10.8773625 L20.0631918,14.1756358 L14.1455122,14.1756358 L14.1455122,30 L19.0823204,25.0529982 L21.3209177,25.0529982 C23.3444401,25.0529982 25,23.3937926 25,21.3661165 L25,3.68674568 C25,1.65906957 23.3444401,0 21.3209177,0 L3.67908235,0 C1.6555599,0 0,1.65906957 0,3.68674568 L0,21.3661165 C0,23.3937926 1.6555599,25.0529982 3.67908235,25.0529982 L10.854352,25.0529982" id="graphic"></path>
                <g id="text" transform="translate(31.250000, 11.250000)">
                    <path d="M7.03125,6.591875 L6.163125,5.713125 C5.83375,6.02 5.5,6.264375 5.163125,6.44375 C4.82625,6.623125 4.42375,6.713125 3.955,6.713125 C3.58875,6.713125 3.25,6.64125 2.93875,6.49875 C2.6275,6.355625 2.35875,6.16 2.13125,5.910625 C1.904375,5.661875 1.72875,5.370625 1.604375,5.0375 C1.479375,4.704375 1.4175,4.3475 1.4175,3.96625 C1.4175,3.585625 1.479375,3.23 1.604375,2.900625 C1.72875,2.57125 1.904375,2.28375 2.13125,2.038125 C2.35875,1.793125 2.6275,1.59875 2.93875,1.45625 C3.25,1.313125 3.58875,1.241875 3.955,1.241875 C4.394375,1.241875 4.78625,1.329375 5.130625,1.505625 C5.475,1.68125 5.800625,1.911875 6.108125,2.1975 L6.97625,1.1975 C6.793125,1.021875 6.59875,0.860625 6.39375,0.714375 C6.18875,0.568125 5.965625,0.44125 5.72375,0.335625 C5.481875,0.229375 5.216875,0.146875 4.9275,0.088125 C4.638125,0.029375 4.3175,0 3.96625,0 C3.38,0 2.845625,0.104375 2.361875,0.313125 C1.87875,0.521875 1.461875,0.8075 1.11,1.17 C0.758125,1.533125 0.485625,1.955625 0.29125,2.439375 C0.096875,2.9225 0,3.43875 0,3.988125 C0,4.545 0.09875,5.065 0.296875,5.548125 C0.495,6.03125 0.7675,6.45125 1.115,6.80625 C1.463125,7.16125 1.875,7.44125 2.35125,7.64625 C2.8275,7.851875 3.3475,7.954375 3.91125,7.954375 C4.27,7.954375 4.5975,7.923125 4.894375,7.86125 C5.190625,7.798125 5.46375,7.706875 5.7125,7.58625 C5.961875,7.465625 6.194375,7.3225 6.410625,7.158125 C6.62625,6.9925 6.833125,6.804375 7.03125,6.591875 Z M14.733125,4.581875 L14.733125,7.8225 L16.07375,7.8225 L16.07375,0.131875 L14.733125,0.131875 L14.733125,3.329375 L11.0425,3.329375 L11.0425,0.131875 L9.701875,0.131875 L9.701875,7.8225 L11.0425,7.8225 L11.0425,4.581875 L14.733125,4.581875 Z M25.764375,0.131875 L24.424375,0.131875 L24.424375,4.559375 C24.424375,5.27 24.250625,5.805 23.904375,6.163125 C23.558125,6.5225 23.08375,6.701875 22.48,6.701875 C21.868125,6.701875 21.390625,6.515 21.044375,6.141875 C20.698125,5.768125 20.524375,5.2225 20.524375,4.504375 L20.524375,0.131875 L19.18375,0.131875 L19.18375,4.559375 C19.18375,5.11625 19.26125,5.605 19.415,6.025625 C19.56875,6.4475 19.788125,6.800625 20.07375,7.08625 C20.359375,7.371875 20.70375,7.58625 21.10625,7.729375 C21.509375,7.87125 21.96,7.9425 22.4575,7.9425 C22.963125,7.9425 23.41875,7.87125 23.825625,7.729375 C24.231875,7.58625 24.578125,7.369375 24.86375,7.080625 C25.149375,6.791875 25.370625,6.430625 25.528125,5.99875 C25.685625,5.566875 25.764375,5.065 25.764375,4.49375 L25.764375,0.131875 Z M35.4,7.8225 L33.32375,4.91125 C33.595,4.838125 33.8425,4.73375 34.065625,4.598125 C34.289375,4.4625 34.48125,4.2975 34.641875,4.10375 C34.803125,3.909375 34.93,3.68625 35.02125,3.43375 C35.113125,3.180625 35.15875,2.893125 35.15875,2.57125 C35.15875,2.1975 35.0925,1.85875 34.96125,1.555 C34.82875,1.250625 34.640625,0.994375 34.395,0.785625 C34.15,0.576875 33.849375,0.415625 33.494375,0.3025 C33.13875,0.18875 32.741875,0.131875 32.3025,0.131875 L28.874375,0.131875 L28.874375,7.8225 L30.215,7.8225 L30.215,5.141875 L31.9125,5.141875 L33.8075,7.8225 L35.4,7.8225 Z M33.785625,2.6425 C33.785625,3.04 33.6425,3.356875 33.355,3.59125 C33.069375,3.826875 32.683125,3.944375 32.198125,3.944375 L30.215,3.944375 L30.215,1.351875 L32.186875,1.351875 C32.694375,1.351875 33.088125,1.459375 33.36625,1.6775 C33.64625,1.89375 33.785625,2.215625 33.785625,2.6425 Z M44.76125,6.591875 L43.89375,5.713125 C43.56375,6.02 43.230625,6.264375 42.89375,6.44375 C42.556875,6.623125 42.154375,6.713125 41.685625,6.713125 C41.319375,6.713125 40.980625,6.64125 40.669375,6.49875 C40.358125,6.355625 40.08875,6.16 39.861875,5.910625 C39.635,5.661875 39.459375,5.370625 39.334375,5.0375 C39.21,4.704375 39.1475,4.3475 39.1475,3.96625 C39.1475,3.585625 39.21,3.23 39.334375,2.900625 C39.459375,2.57125 39.635,2.28375 39.861875,2.038125 C40.08875,1.793125 40.358125,1.59875 40.669375,1.45625 C40.980625,1.313125 41.319375,1.241875 41.685625,1.241875 C42.125,1.241875 42.516875,1.329375 42.860625,1.505625 C43.205,1.68125 43.53125,1.911875 43.83875,2.1975 L44.706875,1.1975 C44.52375,1.021875 44.329375,0.860625 44.124375,0.714375 C43.919375,0.568125 43.695625,0.44125 43.454375,0.335625 C43.2125,0.229375 42.946875,0.146875 42.6575,0.088125 C42.368125,0.029375 42.048125,0 41.69625,0 C41.110625,0 40.57625,0.104375 40.0925,0.313125 C39.60875,0.521875 39.191875,0.8075 38.84,1.17 C38.48875,1.533125 38.215625,1.955625 38.02125,2.439375 C37.8275,2.9225 37.730625,3.43875 37.730625,3.988125 C37.730625,4.545 37.829375,5.065 38.026875,5.548125 C38.225,6.03125 38.4975,6.45125 38.845625,6.80625 C39.19375,7.16125 39.605,7.44125 40.081875,7.64625 C40.5575,7.851875 41.0775,7.954375 41.64125,7.954375 C42.000625,7.954375 42.328125,7.923125 42.624375,7.86125 C42.92125,7.798125 43.194375,7.706875 43.443125,7.58625 C43.691875,7.465625 43.925,7.3225 44.140625,7.158125 C44.356875,6.9925 44.56375,6.804375 44.76125,6.591875 Z M52.46375,4.581875 L52.46375,7.8225 L53.80375,7.8225 L53.80375,0.131875 L52.46375,0.131875 L52.46375,3.329375 L48.7725,3.329375 L48.7725,0.131875 L47.4325,0.131875 L47.4325,7.8225 L48.7725,7.8225 L48.7725,4.581875 L52.46375,4.581875 Z" id="Fill-3"></path>
                    <path d="M63.246875,1.615 L63.246875,0.055 L56.875,0.055 L56.875,1.615 L59.215,1.615 L59.215,7.745625 L60.906875,7.745625 L60.906875,1.615 L63.246875,1.615 Z M73.28875,7.745625 L69.993125,0 L68.433125,0 L65.136875,7.745625 L66.8625,7.745625 L67.565625,6.02 L70.816875,6.02 L71.52,7.745625 L73.28875,7.745625 Z M70.213125,4.526875 L68.169375,4.526875 L69.19125,2.0325 L70.213125,4.526875 Z M81.255,7.745625 L81.255,6.21875 L77.42125,6.21875 L77.42125,0.055 L75.729375,0.055 L75.729375,7.745625 L81.255,7.745625 Z M90.780625,7.745625 L87.50625,3.318125 L90.6375,0.055 L88.595,0.055 L85.474375,3.416875 L85.474375,0.055 L83.7825,0.055 L83.7825,7.745625 L85.474375,7.745625 L85.474375,5.394375 L86.364375,4.471875 L88.74875,7.745625 L90.780625,7.745625 Z" id="Fill-4"></path>
                </g>
            </g>
        </g>
    </g>
</svg>