<?xml version="1.0" encoding="UTF-8"?>
<svg width="92px" height="53px" viewBox="0 0 92 53" version="1.1" xmlns="http://www.w3.org/2000/svg" xmlns:xlink="http://www.w3.org/1999/xlink">
    <!-- Generator: Sketch 52.6 (67491) - http://www.bohemiancoding.com/sketch -->
    <title>Group 4</title>
    <desc>Created with Sketch.</desc>
    <g id="signup" stroke="none" stroke-width="1" fill="none" fill-rule="evenodd">
        <g id="iPhone-XS" transform="translate(-148.000000, -154.000000)">
            <g id="Group-5" transform="translate(53.000000, 154.000000)">
                <g id="Group-4" transform="translate(95.000000, 0.000000)">
                    <path d="M-1.42108547e-14,9 L-1.42108547e-14,53 L80,53 L80,9 L-1.42108547e-14,9 Z M74.1768,11.6666667 L42.8933057,33.8625137 C41.160375,35.0920396 38.8396341,35.0920268 37.1067169,33.8624817 L5.824,11.6666667 L74.1768,11.6666667 Z M3.2,13.3066667 L23.9559892,28.0304724 C25.3073577,28.9891011 25.6257362,30.8617239 24.6671075,32.2130925 C24.4997812,32.4489705 24.299227,32.6594145 24.07167,32.8378925 L3.2,49.208 L3.2,13.3066667 Z M6.4344,50.3333333 L29.6872,32.0966667 L38.2643261,38.1802539 C39.3039538,38.9176414 40.696025,38.9176115 41.735621,38.1801792 L50.3128,32.096 L73.5656,50.3333333 L6.4344,50.3333333 Z M76.8,49.208 L55.92833,32.8378925 C54.6246337,31.815375 54.3966933,29.9296061 55.4192108,28.6259098 C55.5976888,28.3983529 55.8081328,28.1977987 56.0440108,28.0304724 L76.8,13.3066667 L76.8,49.208 Z" id="Shape" fill="#FFFFFF" fill-rule="nonzero" opacity="0.804357"></path>
                    <circle id="Oval" fill="#FF5A5F" cx="82" cy="10" r="10"></circle>
                    <text id="1" font-family="SFProDisplay-Regular, SF Pro Display" font-size="14" font-weight="normal" letter-spacing="-0.08749998" fill="#FFFFFF">
                        <tspan x="78.4402344" y="15">1</tspan>
                    </text>
                </g>
            </g>
        </g>
    </g>
</svg>