<svg xmlns="http://www.w3.org/2000/svg" width="36" height="58.493" viewBox="0 0 36 58.493">
  <g id="Group_1134" data-name="Group 1134" transform="translate(-729 -453.507)">
    <g id="member2" transform="translate(619 262)">
      <circle id="Ellipse_71" data-name="Ellipse 71" cx="18" cy="18" r="18" transform="translate(110 214)" fill="#d30101" opacity="0.2"/>
      <circle id="Ellipse_72" data-name="Ellipse 72" cx="5" cy="5" r="5" transform="translate(123 227)" fill="#d30101"/>
    </g>
    <g id="location8" transform="translate(733.644 453.507)">
      <g id="journal-copy-4" transform="translate(0.5 0.5)">
        <g id="Group">
          <path id="location" d="M432.929,371.352,444.1,350.2a13.5,13.5,0,0,0,1.254-5.672c0-7.208-5.578-13.029-12.428-13.029S420.5,337.321,420.5,344.528a13.411,13.411,0,0,0,1.224,5.605Zm0-19.2a7.629,7.629,0,1,1,7.365-7.625A7.5,7.5,0,0,1,432.928,352.153Z" transform="translate(-420.5 -331.5)" fill="#d30101" stroke="#d30101" stroke-width="1" fill-rule="evenodd"/>
        </g>
      </g>
    </g>
  </g>
</svg>
