<?xml version="1.0" encoding="UTF-8"?>
<svg width="18px" height="22px" viewBox="0 0 18 22" version="1.1" xmlns="http://www.w3.org/2000/svg" xmlns:xlink="http://www.w3.org/1999/xlink">
    <!-- Generator: Sketch 52.2 (67145) - http://www.bohemiancoding.com/sketch -->
    <title>member request</title>
    <desc>Created with Sketch.</desc>
    <g id="church" stroke="none" stroke-width="1" fill="none" fill-rule="evenodd">
        <g id="church-profile" transform="translate(-1223.000000, -19.000000)" fill-rule="nonzero" stroke="#333333">
            <g id="member-request" transform="translate(1224.000000, 20.000000)">
                <path d="M5.46267468,10.2390312 C3.65626544,9.36915863 2.40671355,7.52016397 2.40671355,5.38457589 C2.40671355,2.41540446 4.82234086,0 7.79128944,0 C10.760238,0 13.1758653,2.41518162 13.1758653,5.38435305 C13.1758653,7.44894238 12.0079086,9.24578518 10.2980989,10.1490025 C10.4039403,10.1673717 10.4901692,10.1877346 10.5526414,10.2100241 C13.6058667,11.2993835 15.6858495,14.5525821 16.0606728,18.2852166 C16.1050187,18.7273388 15.9608388,19.1683468 15.6653478,19.4952587 C15.3749823,19.815931 14.9602699,20 14.52773,20 L1.54083624,20 C1.10807349,20 0.693583932,19.815931 0.403218398,19.4950358 C0.107504612,19.1681239 -0.0364525131,18.7273388 0.00789341255,18.2852166 C0.37491723,14.6323602 2.38808855,11.5780625 5.26232849,10.3140922 C5.31195048,10.2870687 5.37962291,10.2620628 5.46267468,10.2390312 Z" id="Combined-Shape"></path>
            </g>
        </g>
    </g>
</svg>