<?xml version="1.0" encoding="UTF-8"?>
<svg width="53px" height="73px" viewBox="0 0 53 73" version="1.1" xmlns="http://www.w3.org/2000/svg" xmlns:xlink="http://www.w3.org/1999/xlink">
    <!-- Generator: Sketch 51.3 (57544) - http://www.bohemiancoding.com/sketch -->
    <title>Groupmyprayerlist</title>
    <desc>Created with Sketch.</desc>
    <defs></defs>
    <g id="Empty-states" stroke="none" stroke-width="1" fill="none" fill-rule="evenodd">
        <g id="Myprayers_empty-state" transform="translate(-163.000000, -243.000000)" fill="#B1B1B1" fill-rule="nonzero">
            <g id="Group" transform="translate(163.000000, 243.000000)">
                <path d="M6.11537779,6.15176683e-05 C2.76271874,6.15176683e-05 0,2.74829629 0,6.08338972 L0,66.9166718 C0,70.2517551 2.76271874,73 6.11537779,73 L46.8845631,73 C50.2372221,73 52.9999408,70.2517551 52.9999408,66.9166718 L52.9999408,20.2778222 C53.0041281,19.7306833 52.7858859,19.2050767 52.3947732,18.8203582 L34.0486399,0.570373537 C33.6644974,0.200726037 33.1497927,-0.00407685836 32.6153482,6.15176683e-05 L6.11537779,6.15176683e-05 Z M6.11537779,4.05561366 L30.5768889,4.05561366 L30.5768889,20.2778222 C30.5770014,21.3976857 31.4895848,22.3054864 32.6153482,22.3055983 L48.9230223,22.3055983 L48.9230223,66.9166718 C48.9230223,68.0751403 48.0491297,68.9444479 46.8845631,68.9444479 L6.11537779,68.9444479 C4.95081111,68.9444479 4.07691853,68.0751403 4.07691853,66.9166718 L4.07691853,6.08338972 C4.07691853,4.9249314 4.95081111,4.05561366 6.11537779,4.05561366 Z M34.6538075,6.90717375 L46.056439,18.2500461 L34.6538075,18.2500461 L34.6538075,6.90717375 Z M11.2115259,32.4444786 C10.0857165,32.4444786 9.17306668,33.3523454 9.17306668,34.4722547 C9.17306668,35.592164 10.0857165,36.5000308 11.2115259,36.5000308 C12.3373354,36.5000308 13.2499852,35.592164 13.2499852,34.4722547 C13.2499852,33.3523454 12.3373354,32.4444786 11.2115259,32.4444786 Z M19.1742574,32.4444786 C18.4458822,32.478297 17.7909904,32.8961436 17.456331,33.5405829 C17.1216717,34.1850221 17.1581016,34.9581211 17.5518948,35.5685931 C17.9456881,36.1790651 18.6370014,36.534139 19.365363,36.5000308 L41.7884149,36.5000308 C42.5235531,36.5103678 43.2073395,36.1261526 43.5779411,35.4945074 C43.9485427,34.8628623 43.9485427,34.0816471 43.5779411,33.4500019 C43.2073395,32.8183568 42.5235531,32.4341416 41.7884149,32.4444786 L19.365363,32.4444786 C19.3016962,32.4415069 19.2379243,32.4415069 19.1742574,32.4444786 Z M11.2115259,44.611135 C10.0857165,44.611135 9.17306668,45.5190018 9.17306668,46.6389111 C9.17306668,47.7588204 10.0857165,48.6666872 11.2115259,48.6666872 C12.3373354,48.6666872 13.2499852,47.7588204 13.2499852,46.6389111 C13.2499852,45.5190018 12.3373354,44.611135 11.2115259,44.611135 Z M19.1742574,44.611135 C18.4458822,44.6449535 17.7909904,45.0628 17.456331,45.7072393 C17.1216717,46.3516785 17.1581016,47.1247775 17.5518948,47.7352495 C17.9456881,48.3457215 18.6370014,48.7007954 19.365363,48.6666872 L41.7884149,48.6666872 C42.5235531,48.6770242 43.2073395,48.292809 43.5779411,47.6611638 C43.9485427,47.0295187 43.9485427,46.2483035 43.5779411,45.6166584 C43.2073395,44.9850132 42.5235531,44.600798 41.7884149,44.611135 L19.365363,44.611135 C19.3016962,44.6081633 19.2379243,44.6081633 19.1742574,44.611135 Z M11.2115259,56.7777914 C10.0857165,56.7777914 9.17306668,57.6856582 9.17306668,58.8055675 C9.17306668,59.9254768 10.0857165,60.8333436 11.2115259,60.8333436 C12.3373354,60.8333436 13.2499852,59.9254768 13.2499852,58.8055675 C13.2499852,57.6856582 12.3373354,56.7777914 11.2115259,56.7777914 Z M19.1742574,56.7777914 C18.4458822,56.8116099 17.7909904,57.2294564 17.456331,57.8738957 C17.1216717,58.5183349 17.1581016,59.291434 17.5518948,59.9019059 C17.9456881,60.5123779 18.6370014,60.8674518 19.365363,60.8333436 L41.7884149,60.8333436 C42.5235531,60.8436806 43.2073395,60.4594654 43.5779411,59.8278203 C43.9485427,59.1961751 43.9485427,58.4149599 43.5779411,57.7833148 C43.2073395,57.1516696 42.5235531,56.7674544 41.7884149,56.7777914 L19.365363,56.7777914 C19.3016962,56.7748197 19.2379243,56.7748197 19.1742574,56.7777914 Z" id="Shape"></path>
            </g>
        </g>
    </g>
</svg>