<?xml version="1.0" encoding="UTF-8"?>
<svg width="18px" height="21px" viewBox="0 0 18 21" version="1.1" xmlns="http://www.w3.org/2000/svg" xmlns:xlink="http://www.w3.org/1999/xlink">
    <!-- Generator: Sketch 52.2 (67145) - http://www.bohemiancoding.com/sketch -->
    <title>Combined Shape</title>
    <desc>Created with Sketch.</desc>
    <g id="Page-2" stroke="none" stroke-width="1" fill="none" fill-rule="evenodd">
        <g id="journal-copy-9" transform="translate(-1262.000000, -20.000000)" fill-rule="nonzero" stroke="#333333">
            <g id="notification" transform="translate(1263.000000, 20.000000)">
                <path d="M15.2749114,15.4261522 C14.58955,14.5685558 13.6549663,13.393331 13.6549663,12.1545805 L13.6549663,8.27951506 C13.6549663,4.91265489 11.1938959,2.18105136 8.04746408,2.18105136 C4.90103229,2.18105136 2.47111468,4.91265489 2.47111468,8.27951506 L2.47111468,12.1863434 C2.47111468,13.393331 1.44307261,14.5367929 0.820016807,15.3943894 C0.228113797,16.1884602 -0.208025262,16.8237168 0.103502638,17.4272106 C0.383877747,17.9671788 1.06923913,18.0624673 1.62998935,18.0624673 L4.99449066,18.0624673 L11.2250487,18.0624673 L14.6518556,18.0624673 C14.9945362,18.0624673 15.8356616,18.0624673 16.1160367,17.4589735 C16.3964118,16.8237168 15.9291199,16.220223 15.2749114,15.4261522 Z M8.07861687,20 C7.01942201,20 6.17829668,19.1424035 6.17829668,18.0624673 L9.94778427,18.0624673 C9.94778427,19.1106407 9.10665894,20 8.07861687,20 Z M7.94070795,0.487870779 C7.94070795,-0.162623593 8.25833627,-0.162623593 8.25833627,0.487870779 C8.25833627,0.921533694 8.25833627,1.39416674 8.25833627,1.90576991 L7.94070795,1.90576991 C7.94070795,1.39416674 7.94070795,0.921533694 7.94070795,0.487870779 Z" id="Combined-Shape"></path>
            </g>
        </g>
    </g>
</svg>