<?xml version="1.0" encoding="UTF-8"?>
<svg width="94px" height="94px" viewBox="0 0 94 94" version="1.1" xmlns="http://www.w3.org/2000/svg" xmlns:xlink="http://www.w3.org/1999/xlink">
    <!-- Generator: Sketch 51.3 (57544) - http://www.bohemiancoding.com/sketch -->
    <title>_ionicons_svg_ios-checkmark-circle (1)paymentsuccessfull</title>
    <desc>Created with Sketch.</desc>
    <defs></defs>
    <g id="android" stroke="none" stroke-width="1" fill="none" fill-rule="evenodd">
        <g id="Android-Copy-8" transform="translate(-141.000000, -267.000000)" fill="#1787E0" fill-rule="nonzero">
            <g id="_ionicons_svg_ios-checkmark-circle-(1)" transform="translate(141.000000, 267.000000)">
                <path d="M47,0 C21.0370192,0 0,21.0370192 0,47 C0,72.9629808 21.0370192,94 47,94 C72.9629808,94 94,72.9629808 94,47 C94,21.0370192 72.9629808,0 47,0 Z M71.0649038,34.0072115 L40.8538462,64.3538462 L40.83125,64.3538462 C40.4471154,64.7379808 39.4076923,65.5966346 38.2100962,65.5966346 C37.3514423,65.5966346 36.3798077,65.1221154 35.5663462,64.3086538 L22.9125,51.6548077 C22.5509615,51.2932692 22.5509615,50.7283654 22.9125,50.3668269 L26.9346154,46.3447115 C27.1153846,46.1639423 27.3413462,46.0735577 27.5673077,46.0735577 C27.7932692,46.0735577 28.0192308,46.1639423 28.2,46.3447115 L38.2326923,56.3774038 L65.8,28.6067308 C65.9807692,28.4259615 66.2067308,28.3355769 66.4326923,28.3355769 C66.68125,28.3355769 66.9072115,28.4259615 67.0653846,28.6067308 L71.0197115,32.6966346 C71.4264423,33.0807692 71.4264423,33.6456731 71.0649038,34.0072115 Z" id="Shape"></path>
            </g>
        </g>
    </g>
</svg>