<?xml version="1.0" encoding="UTF-8"?>
<svg width="35px" height="35px" viewBox="0 0 35 35" version="1.1" xmlns="http://www.w3.org/2000/svg" xmlns:xlink="http://www.w3.org/1999/xlink">
    <!-- Generator: Sketch 51.3 (57544) - http://www.bohemiancoding.com/sketch -->
    <title>Group 7</title>
    <desc>Created with Sketch.</desc>
    <defs></defs>
    <g id="Web_-user" stroke="none" stroke-width="1" fill="none" fill-rule="evenodd">
        <g id="4.2" transform="translate(-1233.000000, -107.000000)">
            <g id="Group-7" transform="translate(1233.000000, 107.000000)">
                <circle id="Oval-Copy-3" fill="#FC9905" cx="17.5" cy="17.5" r="17.5"></circle>
                <g id="Group-3" transform="translate(12.000000, 9.000000)" fill="#FFFFFF" fill-rule="nonzero" stroke="#FFFFFF" stroke-width="0.4">
                    <g id="noun_hourglass_793446">
                        <path d="M11.25,2.7 L11.25,1.8 L12,1.8 L12,0 L0,0 L0,1.8 L0.75,1.8 L0.75,2.7 C0.75,5.49 3.075,7.83 4.575,9 C3.075,10.17 0.75,12.51 0.75,15.3 L0.75,16.2 L0,16.2 L0,18 L12,18 L12,16.2 L11.25,16.2 L11.25,15.3 C11.25,12.51 8.925,10.17 7.425,9 C8.925,7.83 11.25,5.49 11.25,2.7 Z M10,15.8967391 L10,16.875 L2,16.875 L2,15.8967391 C2,13.548913 4.64,11.201087 6,10.125 C7.36,11.201087 10,13.548913 10,15.8967391 Z M6,9 C4.64,7.92391304 2,5.57608696 2,3.22826087 L2,2.25 L10,2.25 L10,3.22826087 C10,5.57608696 7.36,7.92391304 6,9 Z" id="Shape"></path>
                    </g>
                </g>
            </g>
        </g>
    </g>
</svg>