<?xml version="1.0" encoding="UTF-8"?>
<svg width="40px" height="40px" viewBox="0 0 40 40" version="1.1" xmlns="http://www.w3.org/2000/svg" xmlns:xlink="http://www.w3.org/1999/xlink">
    <!-- Generator: Sketch 51.3 (57544) - http://www.bohemiancoding.com/sketch -->
    <title>Shape</title>
    <desc>Created with Sketch.</desc>
    <defs></defs>
    <g id="Improvisation-on-bulletin" stroke="none" stroke-width="1" fill="none" fill-rule="evenodd">
        <g id="bulletin-church-copy" transform="translate(-812.000000, -223.000000)" fill="#D8D8D8" fill-rule="nonzero">
            <path d="M848.995305,239.995305 L835.004695,239.995305 L835.004695,226.004695 C835.004695,224.352113 833.652582,223 832,223 C830.347418,223 828.995305,224.352113 828.995305,226.004695 L828.995305,239.995305 L815.004695,239.995305 C813.352113,239.995305 812,241.122066 812,243 C812,244.877934 813.408451,246.004695 815.004695,246.004695 L828.995305,246.004695 L828.995305,259.995305 C828.995305,261.779343 830.309859,263 832,263 C833.690141,263 835.004695,261.647887 835.004695,259.995305 L835.004695,246.004695 L848.995305,246.004695 C850.647887,246.004695 852,244.652582 852,243 C852,241.347418 850.647887,239.995305 848.995305,239.995305 Z" id="Shape"></path>
        </g>
    </g>
</svg>