<?xml version="1.0" encoding="UTF-8"?>
<svg width="29px" height="19px" viewBox="0 0 29 19" version="1.1" xmlns="http://www.w3.org/2000/svg" xmlns:xlink="http://www.w3.org/1999/xlink">
    <!-- Generator: Sketch 51.3 (57544) - http://www.bohemiancoding.com/sketch -->
    <title>Group 2 Copy</title>
    <desc>Created with Sketch.</desc>
    <defs></defs>
    <g id="IOS(Feed)" stroke="none" stroke-width="1" fill="none" fill-rule="evenodd">
        <g id="Likes---like" transform="translate(-127.000000, -324.000000)" fill="#FFBA08" fill-rule="nonzero">
            <g id="Group-2-Copy" transform="translate(127.000000, 324.000000)">
                <path d="M28.7713187,0.566734075 L28.7075466,0 L28.0804541,0 C25.8590586,0 25.742143,1.78665319 25.6252275,3.68857432 C25.5910383,4.59319364 25.4916264,5.49483619 25.3276242,6.38776542 C25.1504871,6.98425227 24.7804047,7.51939066 24.2647556,7.92467139 C24.7717183,6.89957288 24.8546931,5.74406969 24.4985867,4.66835187 C24.1973724,4.08300297 23.5733289,3.68748552 22.861769,3.63094034 L22.2240478,3.58291203 L22.1071322,4.14964611 C21.5756979,6.51263903 19.6306483,8.28968655 18.0576027,9.67290192 C17.2662512,10.3002584 16.5757947,11.0244855 16.0062662,11.8245703 C14.9433975,13.4767442 14.9433975,15.9742164 15.0390557,18.3948433 L15.0390557,19 L20.757289,19 L20.757289,18.4044489 C20.9167193,16.0318504 22.3303347,15.1289181 23.945895,14.0915066 C24.6020551,13.6968694 25.220662,13.2534729 25.7952865,12.7659252 L25.9334594,12.6410516 C27.108701,11.6941666 27.9821261,10.4802817 28.4630868,9.12537917 C29.302753,6.97371082 28.9520063,2.10364004 28.7713187,0.566734075 Z M27.2089018,8.74115268 C26.8031755,9.89123684 26.0701086,10.9247498 25.0831645,11.7381193 L24.9343628,11.8629929 C24.4171557,12.3027527 23.8588416,12.7012711 23.2656591,13.054095 C21.7032421,14.0146613 19.9388802,15.1769464 19.5456188,17.7320526 L16.4632997,17.7320526 C16.3995276,16.0798787 16.4632997,13.7649141 17.2604512,12.458544 C17.7726973,11.7705148 18.3838871,11.1470887 19.0779566,10.6046512 C20.9793122,9.16062067 22.4424465,7.30278093 23.3294312,5.20626896 C23.7226926,6.03235592 23.0424566,8.08796764 21.9158159,9.50960566 C21.5438118,9.97067745 21.1292931,10.4701719 21.63947,10.9120324 C22.149647,11.3538928 22.7023387,10.9120324 23.233773,10.5085945 L23.7014352,10.0667341 C25.030021,9.10616785 26.4011216,8.05915066 26.6880961,6.60869565 C26.8582304,5.65477748 26.9647096,4.69247292 27.0069567,3.72699697 C27.0919862,2.35338726 27.1770157,1.71941355 27.4427329,1.44084934 C27.676564,3.81344793 27.7297074,7.28109201 27.2089018,8.74115268 Z" id="Shape"></path>
                <path d="M13.0225299,11.8245703 C12.4522679,11.0244855 11.7609222,10.3002584 10.9685517,9.67290192 C9.39348032,8.28968655 7.44592588,6.51263903 6.91380718,4.12082912 L6.79674107,3.55409505 L6.15819863,3.60212336 C5.42678239,3.654141 4.78557682,4.0633163 4.48734591,4.66835187 C4.13078088,5.74406969 4.21386257,6.89957288 4.72147814,7.92467139 C4.20516495,7.51939066 3.83460599,6.98425227 3.65724074,6.38776542 C3.49302735,5.49483619 3.39348743,4.59319364 3.35925427,3.68857432 C3.24218815,1.76744186 3.12512204,0 0.900865873,0 L0.30489293,0 L0.241038686,0.566734075 C0.0601183277,2.10364004 -0.291080014,6.97371082 0.46452854,9.12537917 C0.946676422,10.4749503 1.81705753,11.6848316 2.98677118,12.6314459 L3.13576441,12.7659252 C3.70895279,13.2557431 4.32857889,13.6992989 4.98753749,14.0915066 C6.61582071,15.1289181 8.03125645,16.012639 8.18024969,18.4044489 L8.18024969,19 L13.9058469,19 L13.9058469,18.3948433 C14.0867673,15.9742164 14.108052,13.4767442 13.0225299,11.8245703 Z M12.807524,17.8125 L9.63085706,17.8125 C9.21844766,15.2004209 7.40161706,14.0514988 5.72968707,13.0302348 C5.10559749,12.6720207 4.51985775,12.2644485 3.97973367,11.8125738 L3.82368688,11.675096 C2.78584315,10.8496608 2.01637187,9.79551506 1.59444688,8.62112374 C1.04828308,7.12850709 1.10401408,3.58354253 1.32693808,1.1875 C1.60559308,1.47227555 1.69476268,2.12038541 1.78393228,3.52462345 C1.82766746,4.51166217 1.9393346,5.4954541 2.11831828,6.47057738 C2.41926568,7.95337419 3.85712548,8.99427791 5.25040047,10.0057221 L5.84114907,10.4377953 C6.42075147,10.8796884 6.95576907,11.292122 7.51307906,10.8502289 C8.07038906,10.4083358 7.61339486,9.86824424 7.22327786,9.41653131 C6.04178067,8.00247342 5.32842387,5.87156675 5.75197947,5.01724011 C6.67731909,7.16277781 8.21250021,9.06304125 10.2104595,10.5359938 C10.9383234,11.0905264 11.5792722,11.7278535 12.1164596,12.4312242 C12.863255,13.7569034 12.8744012,16.1627658 12.807524,17.8125 Z" id="Shape"></path>
            </g>
        </g>
    </g>
</svg>