<?xml version="1.0" encoding="utf-8"?>
<!-- Generator: Adobe Illustrator 22.1.0, SVG Export Plug-In . SVG Version: 6.00 Build 0)  -->
<svg version="1.1" id="Layer_1" xmlns="http://www.w3.org/2000/svg" xmlns:xlink="http://www.w3.org/1999/xlink" x="0px" y="0px"
	 viewBox="0 0 38.9 30" style="enable-background:new 0 0 38.9 30;" xml:space="preserve">
<style type="text/css">
	.st0{fill:#FFBA08;}
	.st1{fill:#979797;}
	.st2{fill:#087E8B;}
</style>
<g id="IOS_x28_Feed_x29__1_">
	<g id="Comment-page-Copy_1_" transform="translate(-284.000000, -581.000000)">
		<g id="Group-2_1_" transform="translate(284.000000, 581.000000)">
			<path id="Shape_3_" class="st1" d="M37.2,3.8l-0.1-0.7h-0.8c-2.7,0-2.9,2.2-3,4.5c0,1.1-0.2,2.2-0.4,3.3
				c-0.2,0.7-0.7,1.4-1.3,1.9c0.6-1.2,0.7-2.6,0.3-3.9c-0.4-0.7-1.1-1.2-2-1.3l-0.8-0.1L29,8.2c-0.7,2.9-3.1,5-5,6.7
				c-1,0.8-1.8,1.6-2.5,2.6c-1.3,2-1.3,5-1.2,8v0.7h7.1v-0.7c0.2-2.9,1.9-4,3.9-5.2c0.8-0.5,1.6-1,2.3-1.6l0.2-0.2
				c1.4-1.1,2.5-2.6,3.1-4.3C37.8,11.6,37.4,5.7,37.2,3.8z M35.3,13.7c-0.5,1.4-1.4,2.6-2.6,3.6l-0.2,0.2c-0.6,0.5-1.3,1-2.1,1.4
				c-1.9,1.2-4.1,2.6-4.6,5.7H22c-0.1-2,0-4.8,1-6.4c0.6-0.8,1.4-1.6,2.2-2.2c2.3-1.7,4.1-4,5.2-6.5c0.5,1-0.4,3.5-1.7,5.2
				c-0.5,0.6-1,1.2-0.3,1.7c0.6,0.5,1.3,0,2-0.5l0.6-0.5c1.6-1.2,3.3-2.4,3.7-4.2C34.8,10,35,8.8,35,7.7c0.1-1.7,0.2-2.4,0.5-2.8
				C35.8,7.8,35.9,12,35.3,13.7z"/>
			<path id="Shape_2_" class="st1" d="M17.5,17.5c-0.7-1-1.6-1.8-2.5-2.6c-1.9-1.7-4.3-3.8-5-6.7L9.9,7.5L9.1,7.5
				C8.2,7.6,7.4,8.1,7,8.8c-0.4,1.3-0.3,2.7,0.3,3.9c-0.6-0.5-1.1-1.1-1.3-1.9C5.8,9.8,5.7,8.7,5.6,7.6c-0.1-2.3-0.3-4.5-3-4.5H1.9
				L1.8,3.8c-0.2,1.9-0.7,7.8,0.3,10.4c0.6,1.6,1.7,3.1,3.1,4.2l0.2,0.2c0.7,0.6,1.5,1.1,2.3,1.6c2,1.3,3.8,2.3,3.9,5.2v0.7h7.1
				v-0.7C18.9,22.5,18.9,19.5,17.5,17.5z M17.3,24.7h-3.9c-0.5-3.2-2.7-4.6-4.8-5.8c-0.8-0.4-1.5-0.9-2.2-1.5l-0.2-0.2
				c-1.3-1-2.2-2.3-2.7-3.7c-0.7-1.8-0.6-6.1-0.3-9c0.3,0.3,0.5,1.1,0.6,2.8C3.7,8.6,3.9,9.8,4.1,11c0.4,1.8,2.1,3.1,3.9,4.3
				l0.7,0.5c0.7,0.5,1.4,1,2.1,0.5c0.7-0.5,0.1-1.2-0.4-1.7c-1.5-1.7-2.3-4.3-1.8-5.3c1.1,2.6,3,4.9,5.5,6.7
				c0.9,0.7,1.7,1.4,2.4,2.3C17.4,19.8,17.4,22.7,17.3,24.7z"/>
		</g>
	</g>
</g>
</svg>
