<?xml version="1.0" encoding="UTF-8"?>
<svg width="18px" height="16px" viewBox="0 0 18 16" version="1.1" xmlns="http://www.w3.org/2000/svg" xmlns:xlink="http://www.w3.org/1999/xlink">
    <!-- Generator: Sketch 51.3 (57544) - http://www.bohemiancoding.com/sketch -->
    <title>Combined Shape</title>
    <desc>Created with Sketch.</desc>
    <defs></defs>
    <g id="mock" stroke="none" stroke-width="1" fill="none" fill-rule="evenodd">
        <g id="bulletin-member" transform="translate(-289.000000, -275.000000)" fill-rule="nonzero" stroke="#979797">
            <g id="card-prayer" transform="translate(270.000000, 128.000000)">
                <g id="pray" transform="translate(20.000000, 148.000000)">
                    <path d="M7.05182809,5.05613655 C7.49846662,5.22388041 7.75325692,5.70182109 7.67575726,6.17523458 L6.95717127,10.5733031 C6.89738117,10.9401748 6.67849742,11.236722 6.38783306,11.3990536 L6.28846452,11.45355 L1.95030299,13.8398154 C1.29927331,14.197939 0.494901528,13.9353967 0.152765692,13.2534267 C-0.188882725,12.571729 0.0617482658,11.7288569 0.712810439,11.3707332 L3.05996171,10.0798407 L3.04644395,6.09463039 C3.04644395,5.95786195 3.07864612,5.82500799 3.13330206,5.71060313 L5.68744405,0.414621535 C5.86684684,0.0425759858 6.29993512,-0.10668474 6.65510129,0.0812442149 C6.98371937,0.254978934 7.13040008,0.656706434 7.00815532,1.01047308 L5.18666949,6.31033511 L5.24441243,7.34688873 L5.82050952,5.66482077 C5.9999448,5.1405531 6.55163843,4.86793528 7.05182809,5.05613655 Z M15.2871992,11.3706992 C15.9382289,11.7288569 16.1888598,12.571729 15.8472764,13.2533926 C15.5051406,13.9353627 14.7007688,14.197905 14.0497391,13.8397814 L9.71157759,11.4535159 L9.61220905,11.3990196 C9.32154469,11.236722 9.10266094,10.9401407 9.04287084,10.5732691 L8.32425235,6.17520054 C8.24678518,5.70182109 8.50157549,5.22388041 8.94824651,5.05610251 C9.44843617,4.86790124 10.0001298,5.1405531 10.1795651,5.66478673 L10.7556622,7.34685469 L10.8133726,6.31030107 L8.99188678,1.01043904 C8.86967452,0.656638356 9.01632274,0.254944896 9.34494081,0.081210176 C9.7000745,-0.10668474 10.1331953,0.0425419469 10.3125981,0.414587496 L12.8667075,5.71056909 C12.9213635,5.82497395 12.9535657,5.95782791 12.9535657,6.09459635 L12.9400479,10.0798067 L15.2871992,11.3706992 Z" id="Combined-Shape"></path>
                </g>
            </g>
        </g>
    </g>
</svg>