<?xml version="1.0" encoding="UTF-8"?>
<svg width="24px" height="22px" viewBox="0 0 24 22" version="1.1" xmlns="http://www.w3.org/2000/svg" xmlns:xlink="http://www.w3.org/1999/xlink">
    <!-- Generator: Sketch 52.2 (67145) - http://www.bohemiancoding.com/sketch -->
    <title>prayer copy 4</title>
    <desc>Created with Sketch.</desc>
    <g id="Page-2" stroke="none" stroke-width="1" fill="none" fill-rule="evenodd">
        <g id="journal-admin-copy-2" transform="translate(-41.000000, -138.000000)" fill-rule="nonzero" stroke="#D30101">
            <g id="side-menu-copy" transform="translate(42.000000, 139.000000)">
                <g id="journal">
                    <path d="M11.0000002,8.57879516 C11.0003126,7.98800331 11.350044,7.43394437 11.9123433,7.22302114 C12.6278734,6.95416154 13.4170808,7.34366514 13.6737661,8.09257214 L14.497883,10.4955322 L14.5804388,9.01473774 L11.9747715,1.44348785 C11.7999447,0.938057076 12.0097276,0.364207879 12.4798215,0.116014819 C12.9878464,-0.152407142 13.6074332,0.0607743576 13.8640721,0.592269292 L17.5177704,8.15797568 C17.5959567,8.32141159 17.6420224,8.51120342 17.6420224,8.70658738 L17.622685,14.3997588 L20.980326,16.2438955 C21.9116353,16.7555506 22.2701673,17.9596565 21.7815262,18.9334641 C21.2920949,19.9077094 20.141427,20.2827707 19.2101177,19.7711643 L13.0043018,16.3622054 L12.8621534,16.2843533 C12.4463529,16.052499 12.1332359,15.6288105 12.0477051,15.1047069 L11.0197088,8.82173651 C11.0064837,8.74103157 11.0000279,8.66023382 11.0000001,8.58010746 C10.9999675,8.66023713 10.9935068,8.74103884 10.9802764,8.82174845 L9.95232927,15.1047121 C9.86679871,15.6288151 9.5536825,16.0524546 9.13788313,16.2843573 L8.99573506,16.3622093 L2.78993527,19.7711646 C1.85862836,20.2827704 0.707963449,19.9077095 0.218533425,18.9334652 C-0.270199339,17.95961 0.0883317442,16.7555054 1.01968515,16.2438995 L4.37731735,14.3997648 L4.35798001,8.70659944 C4.35798001,8.5112157 4.40404565,8.32142407 4.48223174,8.15798833 L8.13596701,0.592290027 C8.39260517,0.060795661 9.01214391,-0.152434238 9.52021402,0.116036064 C9.9903067,0.364228858 10.2001355,0.938126069 10.0252627,1.44350767 L7.41960211,9.01474947 L7.50220417,10.4955424 L8.32631899,8.09258486 C8.58300363,7.34363004 9.37220896,6.95417548 10.0877372,7.22303479 C10.6499951,7.43391538 10.999721,7.98797021 10.9999998,8.57879516 Z" id="prayer-copy-4"></path>
                </g>
            </g>
        </g>
    </g>
</svg>