<?xml version="1.0" encoding="UTF-8"?>
<svg width="13px" height="16px" viewBox="0 0 13 16" version="1.1" xmlns="http://www.w3.org/2000/svg" xmlns:xlink="http://www.w3.org/1999/xlink">
    <!-- Generator: Sketch 52.2 (67145) - http://www.bohemiancoding.com/sketch -->
    <title>profile</title>
    <desc>Created with Sketch.</desc>
    <g id="Page-2" stroke="none" stroke-width="1" fill="none" fill-rule="evenodd">
        <g id="profile-view-copy" transform="translate(-1173.000000, -179.000000)" fill-rule="nonzero" stroke="#555555" stroke-width="0.8">
            <g id="dropdown" transform="translate(1159.000000, 50.000000)">
                <g id="profile" transform="translate(15.000000, 130.000000)">
                    <path d="M5.40490821,7.34283001 C7.46450242,7.34283001 9.14025121,5.69587844 9.14025121,3.67133903 C9.14025121,1.64679962 7.46450242,2.08721929e-14 5.40490821,2.08721929e-14 C3.34531401,2.08721929e-14 1.66956522,1.64695157 1.66956522,3.67149098 C1.66956522,5.69603039 3.34515942,7.34283001 5.40490821,7.34283001 Z" id="Shape"></path>
                    <path d="M11.1414758,12.4678357 C10.8814564,9.92272653 9.43854814,7.70452225 7.32049024,6.96173888 C6.81908091,6.78589925 4.11160564,6.78589925 3.65053855,7.03269804 C1.65664483,7.8945404 0.260084448,9.9771235 0.0054757522,12.4678357 C-0.0252875328,12.7692982 0.0745772015,13.069849 0.279717298,13.292755 C0.48114725,13.5115584 0.768683482,13.6370665 1.06889604,13.6370665 L10.0780555,13.6370665 C10.3781134,13.6370665 10.6658043,13.5115584 10.8672342,13.292907 C11.0722197,13.070001 11.172239,12.7692982 11.1414758,12.4678357 Z" id="Shape"></path>
                </g>
            </g>
        </g>
    </g>
</svg>