<?xml version="1.0" encoding="UTF-8"?>
<svg width="20px" height="25px" viewBox="0 0 20 25" version="1.1" xmlns="http://www.w3.org/2000/svg" xmlns:xlink="http://www.w3.org/1999/xlink">
    <!-- Generator: Sketch 51.3 (57544) - http://www.bohemiancoding.com/sketch -->
    <title>Group 9Profile_red</title>
    <desc>Created with Sketch.</desc>
    <defs></defs>
    <g id="Join-a-church" stroke="none" stroke-width="1" fill="none" fill-rule="evenodd">
        <g id="Group-9" transform="translate(1.000000, 1.000000)" fill-rule="nonzero" stroke="#D30101">
            <path d="M9,12 C12.3082813,12 15,9.30847387 15,5.99987584 C15,2.69127781 12.3082813,0 9,0 C5.69171874,0 3,2.69152613 3,6.00012416 C3,9.30872219 5.69147043,12 9,12 Z" id="Shape-Copy-2"></path>
            <path d="M17.9911672,21.108447 C17.57129,16.9910314 15.2412931,13.4024746 11.8210699,12.2008178 C11.0113981,11.9163487 6.63938835,11.9163487 5.89486086,12.3156138 C2.67513701,13.7098813 0.419982315,17.0790335 0.00884220146,21.108447 C-0.0408341085,21.5961456 0.120426677,22.0823694 0.451685286,22.4429813 C0.776952783,22.7969561 1.24126402,23 1.7260449,23 L16.2739645,23 C16.7584957,23 17.2230566,22.7969561 17.5483241,22.4432271 C17.879333,22.0826152 18.0408435,21.5961456 17.9911672,21.108447 Z" id="Shape-Copy-3"></path>
        </g>
    </g>
</svg>