<?xml version="1.0" encoding="UTF-8"?>
<svg width="7px" height="16px" viewBox="0 0 7 16" version="1.1" xmlns="http://www.w3.org/2000/svg" xmlns:xlink="http://www.w3.org/1999/xlink">
    <!-- Generator: Sketch 51.3 (57544) - http://www.bohemiancoding.com/sketch -->
    <title>Shape</title>
    <desc>Created with Sketch.</desc>
    <defs></defs>
    <g id="mock" stroke="none" stroke-width="1" fill="none" fill-rule="evenodd">
        <g id="profile-copy-17" transform="translate(-365.000000, -894.000000)" fill="#555555" fill-rule="nonzero">
            <g id="card-personal-details-copy-5" transform="translate(270.000000, 761.000000)">
                <path d="M100.805014,136.095334 L101.399493,136.095334 L101.399493,135.44528 L100.709021,135.44528 L100.709021,135.433491 C100.705173,135.400576 100.691699,135.369528 100.670288,135.344235 C100.633063,135.316744 100.586167,135.305781 100.540614,135.313922 L99.9949726,135.332447 C99.9574233,135.330786 99.9199887,135.337697 99.8855076,135.352656 C99.8500714,135.373933 99.8236977,135.4075 99.8114082,135.446964 L98.5247733,135.446964 L98.5247733,134.527458 L99.1596704,134.527458 C99.1596704,134.442131 99.1596704,134.356805 99.1596704,134.271478 C99.1011204,134.262782 99.0462329,134.237674 99.0013671,134.199063 L99.1495659,134.199063 L99.1697749,134.030655 L98.8733773,133.948135 C98.9662043,133.927174 99.0611415,133.917002 99.1563022,133.917822 C99.1704034,133.821783 99.1704034,133.7242 99.1563022,133.628161 C98.9442971,133.61551 98.7317263,133.61551 98.5197211,133.628161 L98.5197211,133 L97.8747196,133 L97.8747196,133.663526 C97.7787272,133.651738 97.6844189,133.634897 97.5884265,133.624793 C97.5328519,133.624793 97.3644442,133.586059 97.3172901,133.624793 C97.2701359,133.663526 97.2819244,133.818461 97.2735041,133.865616 C97.4169946,133.883577 97.5581428,133.916888 97.6945233,133.964976 C97.5544138,133.981575 97.412656,133.978173 97.2735041,133.954872 C97.252922,134.029357 97.246074,134.106968 97.2532951,134.183906 C97.3560273,134.214064 97.4615325,134.233811 97.5682175,134.242849 L97.3341308,134.232744 C97.3088071,134.229077 97.2829669,134.233188 97.2600314,134.244533 C97.1943524,134.286635 97.2600314,134.389364 97.2330862,134.465147 L97.600215,134.455043 C97.6695537,134.450138 97.7392373,134.45467 97.8073565,134.468515 L97.8747196,134.488724 L97.8747196,135.443596 L97.0006836,135.443596 C96.9585816,135.384653 96.9114275,135.344235 96.857537,135.349288 L96.8524848,135.349288 C96.7300015,135.361416 96.6064227,135.356314 96.485356,135.334131 C96.4097674,135.307412 96.3266024,135.312268 96.2546374,135.347603 C96.2242505,135.371193 96.2028553,135.404474 96.1940107,135.441912 L95,135.441912 L95,136.091966 L96.1064386,136.091966 C96.1064386,136.154276 96.0980183,136.218271 96.0980183,136.280582 C96.0664953,137.047586 95.9877559,137.811921 95.8622475,138.569243 C95.8470908,138.661867 95.7881481,138.794909 95.8992972,138.833643 C95.9447672,138.850484 96.0104462,138.833643 96.0441278,138.879113 C96.0778093,138.924583 96.0441278,139.023944 96.0441278,139.077834 C96.0756322,139.042366 96.1197478,139.02061 96.1670654,139.017207 C96.1876179,139.015134 96.2081666,139.021178 96.224324,139.034048 C96.2336772,139.045142 96.2421247,139.056968 96.2495852,139.069414 C96.2704643,139.093083 96.3005434,139.106587 96.332105,139.106463 C96.3629867,139.105781 96.3936113,139.100677 96.4230451,139.091307 C96.4312326,139.091056 96.4388614,139.087094 96.4437761,139.080541 C96.4486909,139.073988 96.450358,139.065555 96.4483063,139.057625 C96.4483063,138.958265 96.4483063,138.858904 96.4483063,138.759544 C96.4483063,138.724178 96.4920923,138.591136 96.4735674,138.559138 C96.5181629,138.605455 96.5852391,138.622337 96.6464469,138.602651 C96.7076547,138.582964 96.752312,138.530144 96.7615446,138.466514 L96.9299523,138.45641 C96.8091209,137.681561 96.7527918,136.898023 96.7615446,136.113859 C96.9804746,136.526457 96.9215319,137.063678 97.2095091,137.432491 C97.3782541,137.63145 97.6157669,137.759527 97.8747196,137.791199 L97.8747196,146.942474 L97.8225132,146.942474 C97.6541055,146.981208 97.6759985,147.178245 97.7130482,147.289394 C97.6357277,147.330081 97.5817087,147.404393 97.5668636,147.490495 C97.5520184,147.576597 97.5780335,147.664708 97.6372647,147.728938 C97.5008545,147.685152 97.3644442,147.819878 97.3290786,147.959657 C97.3161513,148.015048 97.3161513,148.072673 97.3290786,148.128064 C97.2412918,148.208359 97.1990264,148.326954 97.2162454,148.444671 C97.1047348,148.433868 96.9942903,148.473871 96.9155627,148.553579 C96.8368352,148.633286 96.7982013,148.744217 96.8103829,148.855586 C96.8122955,148.875603 96.8205565,148.894486 96.8339599,148.909476 C96.8524848,148.926317 96.8811141,148.99368 96.9063753,148.99368 C97.7635705,149.015573 98.6224498,148.971787 99.479645,148.99368 C99.545369,148.957136 99.586125,148.887842 99.586125,148.812642 C99.586125,148.737441 99.545369,148.668148 99.479645,148.631603 C99.3381826,148.569293 99.3600756,148.613079 99.3028169,148.631603 C99.3444726,148.570321 99.3411771,148.48901 99.2946986,148.4313 C99.2482202,148.373589 99.1694807,148.353039 99.1007277,148.380676 C99.1390871,148.321748 99.124241,148.243063 99.0670461,148.202164 C98.9962595,148.172827 98.9145916,148.194974 98.8683251,148.256054 C98.8912276,148.179645 98.9014675,148.100001 98.8986384,148.020283 C98.8851658,147.829983 98.7049696,147.646418 98.5365619,147.708729 C98.5845648,147.665912 98.6120146,147.604645 98.6120146,147.540322 C98.6120146,147.475998 98.5845648,147.414731 98.5365619,147.371914 L98.5365619,137.789515 C98.7658045,137.763827 98.9853971,137.682924 99.1765112,137.553744 C99.6227916,137.216929 99.6598413,136.568559 99.9511866,136.095334 L100.038759,136.095334 C100.038759,136.122279 100.038759,136.145856 100.038759,136.161013 L99.9983408,136.413624 L99.9292936,136.918847 C99.9057165,137.087255 99.8821395,137.255663 99.8602465,137.42407 C99.8544657,137.580913 99.83531,137.736975 99.8029878,137.89056 C99.8114082,137.861931 100.02697,137.919189 100.067388,137.880455 C100.02064,138.11731 100.02064,138.361018 100.067388,138.597872 C100.147454,138.641032 100.242327,138.647258 100.327347,138.614931 C100.412367,138.582604 100.479136,138.514917 100.5103,138.429465 C100.527141,138.375574 100.527141,138.316631 100.54735,138.261057 C100.577276,138.191634 100.635831,138.138594 100.707867,138.115659 C100.779902,138.092724 100.858343,138.102146 100.922899,138.141487 L100.773016,137.42407 C100.726287,137.239142 100.703645,137.048951 100.705653,136.858221 C100.715758,136.654447 100.783121,136.459094 100.801646,136.257005 C100.80581,136.203221 100.806935,136.149245 100.805014,136.095334 Z M97.3391831,136.095334 L97.8747196,136.095334 L97.8747196,136.518037 C97.6647828,136.422301 97.4810651,136.277291 97.3391831,136.095334 Z M98.5736116,136.642659 L98.5247733,136.642659 L98.5247733,136.095334 L99.5251151,136.095334 C99.2953231,136.399293 98.9518925,136.596842 98.5736116,136.642659 Z" id="Shape"></path>
            </g>
        </g>
    </g>
</svg>