<?xml version="1.0" encoding="UTF-8"?>
<svg width="14px" height="14px" viewBox="0 0 14 14" version="1.1" xmlns="http://www.w3.org/2000/svg" xmlns:xlink="http://www.w3.org/1999/xlink">
    <!-- Generator: Sketch 52.4 (67378) - http://www.bohemiancoding.com/sketch -->
    <title>settings</title>
    <desc>Created with Sketch.</desc>
    <g id="Page-3" stroke="none" stroke-width="1" fill="none" fill-rule="evenodd">
        <g id="bulletin-member-copy-4" transform="translate(-1312.000000, -499.000000)" fill="#000000" fill-rule="nonzero">
            <g id="messaging" transform="translate(1076.000000, 486.000000)">
                <g id="settings" transform="translate(236.000000, 13.000000)">
                    <path d="M13.2792593,5.44444444 L11.9694815,5.44444444 C11.758963,5.44444444 11.5855185,5.32855556 11.5048889,5.13411111 C11.4242593,4.93966667 11.4652222,4.73485185 11.6137778,4.58603704 L12.5398519,3.66022222 C12.675963,3.52411111 12.7508889,3.34288889 12.7508889,3.15051852 C12.7508889,2.95788889 12.675963,2.77692593 12.5398519,2.64055556 L11.3594444,1.46014815 C11.0872222,1.18792593 10.6125185,1.18740741 10.3397778,1.46014815 L9.41396296,2.38596296 C9.26514815,2.53451852 9.05981481,2.576 8.86588889,2.49511111 C8.67144444,2.41448148 8.55555556,2.24103704 8.55555556,2.03051852 L8.55555556,0.720740741 C8.55555556,0.323296296 8.23225926,0 7.83481481,0 L6.16518519,0 C5.76774074,0 5.44444444,0.323296296 5.44444444,0.720740741 L5.44444444,2.03051852 C5.44444444,2.24103704 5.32855556,2.41448148 5.13411111,2.49511111 C4.94018519,2.57625926 4.73485185,2.53451852 4.58603704,2.38596296 L3.66022222,1.46014815 C3.38748148,1.18740741 2.91277778,1.18792593 2.64055556,1.46014815 L1.46014815,2.64055556 C1.32403704,2.77666667 1.24911111,2.95788889 1.24911111,3.15051852 C1.24911111,3.34288889 1.32403704,3.52385185 1.46014815,3.66022222 L2.38622222,4.58603704 C2.53477778,4.73485185 2.57548148,4.93966667 2.49511111,5.13411111 C2.41474074,5.32855556 2.24103704,5.44444444 2.03051852,5.44444444 L0.720740741,5.44444444 C0.323296296,5.44444444 0,5.76774074 0,6.16518519 L0,7.83455556 C0,8.23225926 0.323296296,8.55555556 0.720740741,8.55555556 L2.03051852,8.55555556 C2.24103704,8.55555556 2.41448148,8.67144444 2.49511111,8.86588889 C2.57574074,9.06033333 2.53477778,9.26514815 2.38622222,9.41396296 L1.46014815,10.3397778 C1.32403704,10.4758889 1.24911111,10.6571111 1.24911111,10.8494815 C1.24911111,11.0421111 1.32403704,11.2230741 1.46014815,11.3594444 L2.64055556,12.5398519 C2.91303704,12.8123333 3.38748148,12.8128519 3.66022222,12.5398519 L4.58603704,11.6137778 C4.73485185,11.4652222 4.93940741,11.4242593 5.13411111,11.5048889 C5.32855556,11.5855185 5.44444444,11.758963 5.44444444,11.9694815 L5.44444444,13.2792593 C5.44444444,13.6767037 5.76774074,14 6.16518519,14 L7.83455556,14 C8.232,14 8.5552963,13.6767037 8.5552963,13.2792593 L8.5552963,11.9694815 C8.5552963,11.758963 8.67118519,11.5855185 8.86562963,11.5048889 C9.06033333,11.424 9.26488889,11.4652222 9.4137037,11.6137778 L10.3395185,12.5398519 C10.6122593,12.8125926 11.086963,12.8120741 11.3591852,12.5398519 L12.5395926,11.3594444 C12.6757037,11.2233333 12.7506296,11.0421111 12.7506296,10.8494815 C12.7506296,10.6571111 12.6757037,10.4761481 12.5395926,10.3397778 L11.6135185,9.41396296 C11.464963,9.26514815 11.4242593,9.06033333 11.5046296,8.86588889 C11.585,8.67144444 11.758963,8.55555556 11.9694815,8.55555556 L13.2792593,8.55555556 C13.6767037,8.55555556 14,8.23225926 14,7.83481481 L14,6.16518519 C14,5.76774074 13.6767037,5.44444444 13.2792593,5.44444444 Z M13.4814815,7.83481481 C13.4814815,7.9462963 13.3907407,8.03703704 13.2792593,8.03703704 L11.9694815,8.03703704 C11.5484444,8.03703704 11.1867778,8.27866667 11.0257778,8.66755556 C10.8645185,9.05644444 10.9492963,9.48318519 11.2471852,9.78081481 L12.1732593,10.7066296 C12.2523333,10.7857037 12.2523333,10.914037 12.1732593,10.9928519 L10.9928519,12.1732593 C10.914037,12.2520741 10.7857037,12.2525926 10.7066296,12.1732593 L9.78081481,11.2471852 C9.48292593,10.9492963 9.05644444,10.865037 8.66755556,11.0257778 C8.27866667,11.1867778 8.03703704,11.5484444 8.03703704,11.9694815 L8.03703704,13.2792593 C8.03703704,13.3907407 7.9462963,13.4814815 7.83481481,13.4814815 L6.16518519,13.4814815 C6.0537037,13.4814815 5.96296296,13.3907407 5.96296296,13.2792593 L5.96296296,11.9694815 C5.96296296,11.5484444 5.72133333,11.1867778 5.33244444,11.0257778 C5.20203704,10.9715926 5.06774074,10.9451481 4.935,10.9451481 C4.67211111,10.9451481 4.41725926,11.0488519 4.21918519,11.2469259 L3.29337037,12.173 C3.21403704,12.2523333 3.0857037,12.2518148 3.00714815,12.173 L1.82674074,10.9925926 C1.74766667,10.9135185 1.74766667,10.7851852 1.82674074,10.7063704 L2.75281481,9.78055556 C3.05044444,9.48292593 3.13548148,9.05618519 2.97422222,8.6672963 C2.81322222,8.27866667 2.45155556,8.03703704 2.03051852,8.03703704 L0.720740741,8.03703704 C0.609259259,8.03703704 0.518518519,7.9462963 0.518518519,7.83481481 L0.518518519,6.16518519 C0.518518519,6.0537037 0.609259259,5.96296296 0.720740741,5.96296296 L2.03051852,5.96296296 C2.45155556,5.96296296 2.81322222,5.72133333 2.97422222,5.33244444 C3.13548148,4.94355556 3.0507037,4.51681481 2.75281481,4.21918519 L1.82674074,3.29337037 C1.74766667,3.2142963 1.74766667,3.08596296 1.82674074,3.00714815 L3.00714815,1.82674074 C3.08596296,1.74766667 3.2142963,1.74766667 3.29337037,1.82674074 L4.21918519,2.75255556 C4.51655556,3.04992593 4.94303704,3.13522222 5.33244444,2.97396296 C5.72133333,2.81322222 5.96296296,2.45155556 5.96296296,2.03051852 L5.96296296,0.720740741 C5.96296296,0.609259259 6.0537037,0.518518519 6.16518519,0.518518519 L7.83455556,0.518518519 C7.9462963,0.518518519 8.03703704,0.609259259 8.03703704,0.720740741 L8.03703704,2.03051852 C8.03703704,2.45155556 8.27866667,2.81322222 8.66755556,2.97422222 C9.05696296,3.13548148 9.48318519,3.05044444 9.78081481,2.75281481 L10.7066296,1.827 C10.785963,1.74792593 10.9142963,1.74792593 10.9928519,1.827 L12.1732593,3.00740741 C12.2523333,3.08648148 12.2523333,3.21481481 12.1732593,3.29362963 L11.2471852,4.21944444 C10.9495556,4.51707407 10.8645185,4.94381481 11.0257778,5.3327037 C11.1867778,5.72159259 11.5484444,5.96322222 11.9694815,5.96322222 L13.2792593,5.96322222 C13.3907407,5.96296296 13.4814815,6.0537037 13.4814815,6.16518519 L13.4814815,7.83481481 Z" id="Shape"></path>
                    <path d="M7,4.66666667 C5.7132963,4.66666667 4.66666667,5.7132963 4.66666667,7 C4.66666667,8.2867037 5.7132963,9.33333333 7,9.33333333 C8.2867037,9.33333333 9.33333333,8.2867037 9.33333333,7 C9.33333333,5.7132963 8.2867037,4.66666667 7,4.66666667 Z M7,8.81481481 C5.99951852,8.81481481 5.18518519,8.00048148 5.18518519,7 C5.18518519,5.99951852 5.99951852,5.18518519 7,5.18518519 C8.00048148,5.18518519 8.81481481,5.99951852 8.81481481,7 C8.81481481,8.00048148 8.00048148,8.81481481 7,8.81481481 Z" id="Shape"></path>
                </g>
            </g>
        </g>
    </g>
</svg>