<?xml version="1.0" encoding="UTF-8"?>
<svg width="17px" height="15px" viewBox="0 0 17 15" version="1.1" xmlns="http://www.w3.org/2000/svg" xmlns:xlink="http://www.w3.org/1999/xlink">
    <!-- Generator: Sketch 51.3 (57544) - http://www.bohemiancoding.com/sketch -->
    <title>_ionicons_svg_ios-share-alt (1) copythree dot icons</title>
    <desc>Created with Sketch.</desc>
    <defs></defs>
    <g id="Shared-with-me" stroke="none" stroke-width="1" fill="none" fill-rule="evenodd">
        <g id="shared-prayer-1" transform="translate(-160.000000, -116.000000)" fill-rule="nonzero" stroke="#979797" stroke-width="1.5">
            <g id="_ionicons_svg_ios-share-alt-(1)-copy" transform="translate(161.000000, 117.000000)">
                <path d="M14.8672135,5.4605836 L9.35657165,0.0978111966 C9.29017837,0.0328078948 9.22769058,-0.00375646247 9.13786439,0.000306243893 C8.96602297,0.00843165662 8.74731571,0.134375554 8.74731571,0.325322753 L8.74731571,3.01483437 C8.74731571,3.09608849 8.68482793,3.16921721 8.60671819,3.18140533 C3.12732028,4.0548872 0.819177612,8.32072888 0.00293088108,12.7490788 C-0.0283130129,12.9237752 0.198205219,13.0862834 0.303653361,12.9481514 C2.30326258,10.3277058 4.73638082,8.61730644 8.58328527,8.58480479 C8.66920598,8.58480479 8.74731571,8.69043516 8.74731571,8.7798147 L8.74731571,11.4205738 C8.74731571,11.7049633 9.11052598,11.8309072 9.31361129,11.6358973 L14.863308,6.17968262 C14.9648506,6.08217767 14.9960945,5.96842189 15,5.83841529 C14.9960945,5.70840869 14.9648506,5.55808855 14.8672135,5.4605836 Z" id="Shape"></path>
            </g>
        </g>
    </g>
</svg>