<?xml version="1.0" encoding="UTF-8"?>
<svg width="20px" height="24px" viewBox="0 0 20 24" version="1.1" xmlns="http://www.w3.org/2000/svg" xmlns:xlink="http://www.w3.org/1999/xlink">
    <!-- Generator: Sketch 52.2 (67145) - http://www.bohemiancoding.com/sketch -->
    <title>tasks</title>
    <desc>Created with Sketch.</desc>
    <g id="Page-1" stroke="none" stroke-width="1" fill="none" fill-rule="evenodd">
        <g id="profile-copy" transform="translate(-42.000000, -278.000000)" fill="#D30101" fill-rule="nonzero">
            <g id="side-menu" transform="translate(42.000000, 80.000000)">
                <g id="tasks" transform="translate(0.000000, 198.000000)">
                    <g id="Shape">
                        <path d="M20,3.03519268 L15.7225434,3.03519268 L15.7225434,1.66135209 L12.5433526,1.66135209 C12.1321268,0.659528215 11.1167228,0 9.98554913,0 C8.85437549,0 7.83897149,0.659528215 7.42774566,1.66135209 L4.30635838,1.66135209 L4.30635838,3.03519268 L0,3.03519268 L0,24 L20,24 L20,3.03519268 Z M5.46242775,2.76042456 L8.35260116,2.76042456 L8.43930636,2.32079557 C8.58386938,1.60994198 9.23843556,1.09643727 10,1.09643727 C10.7615644,1.09643727 11.4161306,1.60994198 11.5606936,2.32079557 L11.6473988,2.76042456 L14.5375723,2.76042456 L14.5375723,4.82118544 L5.46242775,4.82118544 L5.46242775,2.76042456 Z M18.8439306,22.9009275 L1.15606936,22.9009275 L1.15606936,4.13426515 L4.30635838,4.13426515 L4.30635838,5.92025791 L15.7225434,5.92025791 L15.7225434,4.13426515 L18.8439306,4.13426515 L18.8439306,22.9009275 Z"></path>
                        <polygon points="11.0960265 9 9.90397351 9 9.90397351 12.8910891 6 12.8910891 6 14.0792079 9.90397351 14.0792079 9.90397351 18 11.0960265 18 11.0960265 14.0792079 15 14.0792079 15 12.8910891 11.0960265 12.8910891"></polygon>
                    </g>
                </g>
            </g>
        </g>
    </g>
</svg>