<?xml version="1.0" encoding="UTF-8"?>
<svg width="15px" height="18px" viewBox="0 0 15 18" version="1.1" xmlns="http://www.w3.org/2000/svg" xmlns:xlink="http://www.w3.org/1999/xlink">
    <!-- Generator: Sketch 51.3 (57544) - http://www.bohemiancoding.com/sketch -->
    <title>Group 5</title>
    <desc>Created with Sketch.</desc>
    <defs></defs>
    <g id="Web_admin" stroke="none" stroke-width="1" fill="none" fill-rule="evenodd">
        <g id="iPhone-X" transform="translate(-179.000000, -22.000000)" fill="#D30101" fill-rule="nonzero">
            <g id="Group-5" transform="translate(179.000000, 22.000000)">
                <g id="Group-3-Copy">
                    <g id="noun_Arrow_1558214" transform="translate(7.000000, 4.500000) scale(1, -1) rotate(90.000000) translate(-7.000000, -4.500000) translate(2.500000, -2.500000)">
                        <g id="Group">
                            <path d="M4.50000332,13.8535967 C4.60961384,13.8535967 4.75515332,13.7893574 4.82577963,13.724177 L8.85217121,10.0521148 C9.03508437,9.88067213 9.05628174,9.60292131 8.87064489,9.40304262 C8.70468963,9.22434754 8.38102121,9.21989508 8.20080805,9.38514098 L4.97378226,12.3328295 L4.97378226,0.542169508 C4.97378226,0.288654754 4.76171384,0.0831531148 4.50009805,0.0831531148 C4.23848226,0.0831531148 4.02639016,0.288654754 4.02639016,0.542169508 L4.02639016,12.3328295 L0.799369105,9.38514098 C0.619179632,9.21991803 0.303469105,9.2316459 0.129555947,9.40304262 C-0.0540440526,9.58400984 -0.0377019474,9.88328852 0.148029632,10.0521148 L4.17439279,13.724177 C4.28360068,13.8320689 4.38878226,13.8517836 4.50000332,13.8535967 Z" id="Shape"></path>
                        </g>
                    </g>
                    <g id="noun_Arrow_1558214-Copy" transform="translate(8.000000, 13.500000) scale(-1, -1) rotate(90.000000) translate(-8.000000, -13.500000) translate(3.500000, 6.500000)">
                        <g id="Group">
                            <path d="M4.50000332,13.8535967 C4.60961384,13.8535967 4.75515332,13.7893574 4.82577963,13.724177 L8.85217121,10.0521148 C9.03508437,9.88067213 9.05628174,9.60292131 8.87064489,9.40304262 C8.70468963,9.22434754 8.38102121,9.21989508 8.20080805,9.38514098 L4.97378226,12.3328295 L4.97378226,0.542169508 C4.97378226,0.288654754 4.76171384,0.0831531148 4.50009805,0.0831531148 C4.23848226,0.0831531148 4.02639016,0.288654754 4.02639016,0.542169508 L4.02639016,12.3328295 L0.799369105,9.38514098 C0.619179632,9.21991803 0.303469105,9.2316459 0.129555947,9.40304262 C-0.0540440526,9.58400984 -0.0377019474,9.88328852 0.148029632,10.0521148 L4.17439279,13.724177 C4.28360068,13.8320689 4.38878226,13.8517836 4.50000332,13.8535967 Z" id="Shape"></path>
                        </g>
                    </g>
                </g>
            </g>
        </g>
    </g>
</svg>