<?xml version="1.0" encoding="UTF-8"?>
<svg width="64px" height="64px" viewBox="0 0 64 64" version="1.1" xmlns="http://www.w3.org/2000/svg" xmlns:xlink="http://www.w3.org/1999/xlink">
    <!-- Generator: Sketch 51.3 (57544) - http://www.bohemiancoding.com/sketch -->
    <title>cancel</title>
    <desc>Created with Sketch.</desc>
    <defs></defs>
    <g id="Payment-successfull" stroke="none" stroke-width="1" fill="none" fill-rule="evenodd">
        <g id="9.8" transform="translate(-156.000000, -193.000000)" fill="#E2574C" fill-rule="nonzero">
            <g id="cancel" transform="translate(156.000000, 193.000000)">
                <path d="M37.6660631,31.9770665 L43.3220581,26.3208936 C44.1040083,25.536905 44.1040083,24.2727683 43.3220581,23.4928071 L40.4940606,20.6627069 C39.7121103,19.8827457 38.4480133,19.8807321 37.6660631,20.6627069 L32.0080544,26.3208936 L26.354073,20.6667343 C25.5701091,19.8827457 24.3039985,19.8827457 23.5220483,20.6627069 L20.6940508,23.4928071 C19.9121005,24.2727683 19.9141141,25.5409324 20.698078,26.3229072 L26.3520594,31.9770665 L20.7079223,37.6211575 C19.925972,38.4031324 19.925972,39.6672691 20.7079223,40.449244 L23.5359198,43.2793442 C24.3178701,44.0593054 25.581967,44.061319 26.3639173,43.2793442 L32.0078307,37.6352532 L37.6917925,43.3214075 C38.4757563,44.105396 39.7418669,44.105396 40.5238172,43.3234211 L43.3518147,40.4953347 C44.133765,39.7133598 44.1317513,38.4472094 43.3498011,37.6632208 L37.6660631,31.9770665 Z M32,0 C14.3259105,0 0,14.326585 0,31.9989932 C0,49.6736388 14.3259105,64 32,64 C49.6740895,64 64,49.6736388 64,31.9989932 C64,14.3285986 49.6738658,0 32,0 Z M32,57.9999371 C17.6400819,57.9999371 6.00009788,46.3595868 6.00009788,31.9992169 C6.00009788,17.638847 17.6400819,5.998273 32,5.998273 C46.3599181,5.998273 57.9999021,17.6386233 57.9999021,31.9989932 C57.9999021,46.359363 46.3599181,57.9999371 32,57.9999371 Z" id="Shape"></path>
            </g>
        </g>
    </g>
</svg>