<?xml version="1.0" encoding="UTF-8"?>
<svg width="60px" height="60px" viewBox="0 0 60 60" version="1.1" xmlns="http://www.w3.org/2000/svg" xmlns:xlink="http://www.w3.org/1999/xlink">
    <!-- Generator: Sketch 51.3 (57544) - http://www.bohemiancoding.com/sketch -->
    <title>Group</title>
    <desc>Created with Sketch.</desc>
    <defs></defs>
    <g id="Payment-successfull" stroke="none" stroke-width="1" fill="none" fill-rule="evenodd">
        <g id="9.7" transform="translate(-159.000000, -193.000000)" fill="#3DB39E" fill-rule="nonzero">
            <g id="Group" transform="translate(159.000000, 193.000000)">
                <g id="checked">
                    <path d="M30.0009439,0 C13.4292856,0 0,13.4324288 0,30 C0,46.5694589 13.4309637,60 30.0009439,60 C46.5690363,60 60,46.5694589 60,30 C60,13.4343166 46.5690363,0 30.0009439,0 Z M30.0009439,54.3749082 C16.5380972,54.3749082 5.62526875,43.4624232 5.62526875,30 C5.62526875,16.5375768 16.539985,5.62509177 30.0009439,5.62509177 C43.4619028,5.62509177 54.3747312,16.5375768 54.3747312,30 C54.3747312,43.4624232 43.4621126,54.3749082 30.0009439,54.3749082 Z" id="Shape"></path>
                </g>
                <g id="success" transform="translate(19.000000, 21.000000)" stroke="#3DB39E" stroke-width="4">
                    <path d="M23.5959914,2.57336542 L10.7961262,16.4815344 C10.4809295,16.8238299 10.0417341,17 9.59933876,17 C9.24814246,17 8.89534617,16.8887346 8.60014928,16.6615679 L0.60023352,10.4801595 C-0.0893592183,9.94778567 -0.201358039,8.97498652 0.350636149,8.30816708 C0.901830345,7.64134765 1.90981973,7.533173 2.59941247,8.06631948 L9.41294072,13.3305614 L21.2040166,0.518819794 C21.7896104,-0.119410625 22.8023997,-0.176588653 23.4623928,0.39055557 C24.1231858,0.958472468 24.1831852,1.935135 23.5959914,2.57336542 Z" id="Shape"></path>
                </g>
            </g>
        </g>
    </g>
</svg>