<?xml version="1.0" encoding="UTF-8"?>
<svg width="250px" height="210px" viewBox="0 0 250 210" version="1.1" xmlns="http://www.w3.org/2000/svg" xmlns:xlink="http://www.w3.org/1999/xlink">
    <!-- Generator: Sketch 52.5 (67469) - http://www.bohemiancoding.com/sketch -->
    <title>undraw_welcome_3gvl</title>
    <desc>Created with Sketch.</desc>
    <defs>
        <linearGradient x1="50%" y1="100%" x2="50%" y2="0%" id="linearGradient-1">
            <stop stop-color="#808080" stop-opacity="0.25" offset="0%"></stop>
            <stop stop-color="#808080" stop-opacity="0.12" offset="54%"></stop>
            <stop stop-color="#808080" stop-opacity="0.1" offset="100%"></stop>
        </linearGradient>
        <linearGradient x1="50%" y1="100%" x2="50%" y2="0%" id="linearGradient-2">
            <stop stop-color="#000000" stop-opacity="0.12" offset="0%"></stop>
            <stop stop-color="#000000" stop-opacity="0.09" offset="55%"></stop>
            <stop stop-color="#000000" stop-opacity="0.02" offset="100%"></stop>
        </linearGradient>
        <linearGradient x1="50%" y1="-512.903226%" x2="50%" y2="-512.903226%" id="linearGradient-3">
            <stop stop-color="#000000" stop-opacity="0.12" offset="0%"></stop>
            <stop stop-color="#000000" stop-opacity="0.09" offset="55%"></stop>
            <stop stop-color="#000000" stop-opacity="0.02" offset="100%"></stop>
        </linearGradient>
        <linearGradient x1="0%" y1="50%" x2="100%" y2="50%" id="linearGradient-4">
            <stop stop-color="#000000" stop-opacity="0.12" offset="0%"></stop>
            <stop stop-color="#000000" stop-opacity="0.09" offset="55%"></stop>
            <stop stop-color="#000000" stop-opacity="0.02" offset="100%"></stop>
        </linearGradient>
        <linearGradient x1="0%" y1="50%" x2="100%" y2="50%" id="linearGradient-5">
            <stop stop-color="#808080" stop-opacity="0.25" offset="0%"></stop>
            <stop stop-color="#808080" stop-opacity="0.12" offset="54%"></stop>
            <stop stop-color="#808080" stop-opacity="0.1" offset="100%"></stop>
        </linearGradient>
        <linearGradient x1="49.9999919%" y1="100%" x2="49.9999919%" y2="0.00754538225%" id="linearGradient-6">
            <stop stop-color="#808080" stop-opacity="0.25" offset="0%"></stop>
            <stop stop-color="#808080" stop-opacity="0.12" offset="54%"></stop>
            <stop stop-color="#808080" stop-opacity="0.1" offset="100%"></stop>
        </linearGradient>
    </defs>
    <g id="Page-1" stroke="none" stroke-width="1" fill="none" fill-rule="evenodd">
        <g id="Mobile-Copy" transform="translate(-35.000000, -60.000000)">
            <g id="undraw_welcome_3gvl" transform="translate(35.000000, 60.000000)">
                <rect id="Rectangle" fill="#D30101" opacity="0.2" x="19.8732719" y="0" width="210.541475" height="210"></rect>
                <rect id="Rectangle" fill="#D30101" opacity="0.5" x="51.5552995" y="19.6067031" width="146.889401" height="171.073871"></rect>
                <rect id="Rectangle" fill="url(#linearGradient-1)" x="171.370968" y="30.1641587" width="78.6290323" height="150.820793"></rect>
                <rect id="Rectangle" fill="url(#linearGradient-1)" x="0" y="30.7387141" width="78.6290323" height="150.820793"></rect>
                <rect id="Rectangle" fill="#D30101" x="173.963134" y="32.4623803" width="73.4447005" height="145.362517"></rect>
                <rect id="Rectangle" fill="#D30101" transform="translate(39.314516, 105.143639) rotate(-180.000000) translate(-39.314516, -105.143639) " x="2.5921659" y="32.4623803" width="73.4447005" height="145.362517"></rect>
                <rect id="Rectangle" fill="url(#linearGradient-2)" x="14.6889401" y="45.6771546" width="49.2511521" height="8.90560876"></rect>
                <rect id="Rectangle" fill="url(#linearGradient-2)" x="186.347926" y="59.1792066" width="49.2511521" height="8.90560876"></rect>
                <rect id="Rectangle" fill="url(#linearGradient-2)" x="186.059908" y="72.9685363" width="49.2511521" height="8.90560876"></rect>
                <rect id="Rectangle" fill="url(#linearGradient-2)" x="186.059908" y="86.7578659" width="49.2511521" height="8.90560876"></rect>
                <rect id="Rectangle" fill="url(#linearGradient-2)" x="186.059908" y="100.547196" width="49.2511521" height="8.90560876"></rect>
                <rect id="Rectangle" fill="url(#linearGradient-2)" x="186.059908" y="114.336525" width="49.2511521" height="8.90560876"></rect>
                <rect id="Rectangle" fill="url(#linearGradient-2)" x="186.059908" y="128.125855" width="49.2511521" height="8.90560876"></rect>
                <rect id="Rectangle" fill="url(#linearGradient-2)" x="186.059908" y="141.915185" width="49.2511521" height="8.90560876"></rect>
                <rect id="Rectangle" fill="url(#linearGradient-2)" x="186.059908" y="155.704514" width="49.2511521" height="8.90560876"></rect>
                <rect id="Rectangle" fill="url(#linearGradient-3)" x="186.059908" y="45.6771546" width="49.2511521" height="8.90560876"></rect>
                <rect id="Rectangle" fill="url(#linearGradient-4)" x="14.6889401" y="59.753762" width="49.2511521" height="8.90560876"></rect>
                <rect id="Rectangle" fill="url(#linearGradient-4)" x="14.6889401" y="73.255814" width="49.2511521" height="8.90560876"></rect>
                <rect id="Rectangle" fill="url(#linearGradient-4)" x="14.6889401" y="86.7578659" width="49.2511521" height="8.90560876"></rect>
                <rect id="Rectangle" fill="url(#linearGradient-4)" x="14.6889401" y="100.547196" width="49.2511521" height="8.90560876"></rect>
                <rect id="Rectangle" fill="url(#linearGradient-4)" x="14.6889401" y="114.336525" width="49.2511521" height="8.90560876"></rect>
                <rect id="Rectangle" fill="#FFFFFF" x="15.8410138" y="46.8262654" width="47.235023" height="6.89466484"></rect>
                <rect id="Rectangle" fill="#FFFFFF" x="15.6970046" y="60.3283174" width="47.235023" height="6.89466484"></rect>
                <rect id="Rectangle" fill="#FFFFFF" x="15.6970046" y="74.1176471" width="47.235023" height="6.89466484"></rect>
                <rect id="Rectangle" fill="#FFFFFF" x="15.6970046" y="87.9069767" width="47.235023" height="6.89466484"></rect>
                <rect id="Rectangle" fill="#FFFFFF" x="15.6970046" y="101.696306" width="47.235023" height="6.89466484"></rect>
                <rect id="Rectangle" fill="#FFFFFF" x="15.6970046" y="115.485636" width="47.235023" height="6.89466484"></rect>
                <rect id="Rectangle" fill="url(#linearGradient-4)" x="14.6889401" y="128.125855" width="49.2511521" height="8.90560876"></rect>
                <rect id="Rectangle" fill="#FFFFFF" x="15.6970046" y="129.274966" width="47.235023" height="6.89466484"></rect>
                <rect id="Rectangle" fill="#FFFFFF" x="15.6970046" y="129.274966" width="47.235023" height="6.89466484"></rect>
                <rect id="Rectangle" fill="#FFFFFF" x="15.6970046" y="143.064295" width="47.235023" height="6.89466484"></rect>
                <rect id="Rectangle" fill="#FFFFFF" x="15.6970046" y="156.853625" width="47.235023" height="6.89466484"></rect>
                <rect id="Rectangle" fill="#FFFFFF" x="187.211982" y="46.5389877" width="47.235023" height="6.89466484"></rect>
                <rect id="Rectangle" fill="#FFFFFF" x="187.211982" y="60.3283174" width="47.235023" height="6.89466484"></rect>
                <rect id="Rectangle" fill="#FFFFFF" x="187.211982" y="74.1176471" width="47.235023" height="6.89466484"></rect>
                <rect id="Rectangle" fill="#FFFFFF" x="187.211982" y="87.9069767" width="47.235023" height="6.89466484"></rect>
                <rect id="Rectangle" fill="#FFFFFF" x="187.211982" y="101.696306" width="47.235023" height="6.89466484"></rect>
                <rect id="Rectangle" fill="#FFFFFF" x="187.211982" y="115.485636" width="47.235023" height="6.89466484"></rect>
                <rect id="Rectangle" fill="#FFFFFF" x="187.211982" y="129.274966" width="47.235023" height="6.89466484"></rect>
                <rect id="Rectangle" fill="#FFFFFF" x="187.211982" y="143.064295" width="47.235023" height="6.89466484"></rect>
                <rect id="Rectangle" fill="#FFFFFF" x="187.211982" y="156.853625" width="47.235023" height="6.89466484"></rect>
                <rect id="Rectangle" fill="url(#linearGradient-5)" x="38.0184332" y="185.294118" width="173.675115" height="10.9165527"></rect>
                <rect id="Rectangle" fill="#D30101" x="39.4585253" y="186.443228" width="171.082949" height="8.61833105"></rect>
                <rect id="Rectangle" fill="url(#linearGradient-1)" x="38.59447" y="14.3638851" width="173.387097" height="11.2038304"></rect>
                <rect id="Rectangle" fill="#D30101" x="39.4585253" y="15.2257182" width="171.082949" height="8.61833105"></rect>
                <rect id="Rectangle" fill="#263238" opacity="0.5" x="83.2373272" y="32.4623803" width="84.1013825" height="145.362517"></rect>
                <path d="M189.99424,95.6778386 C192.010369,98.3725034 188.991935,101.55554 188.991935,101.55554 L189.498848,101.73078 C188.75288,102.555267 185.806452,106.275513 174.447005,123.104241 C159.902074,144.650068 140.302419,150.025034 140.302419,150.025034 C137.920957,148.169198 135.211973,146.774829 132.315668,145.91409 L132.315668,143.880164 C139.827393,141.670392 145.77757,135.930842 148.243088,128.516553 C149.977239,125.09262 150.879052,121.309629 150.875576,117.473598 C150.875576,103.684268 139.421083,92.4976744 125.293779,92.4976744 C111.166475,92.4976744 99.7119816,103.681395 99.7119816,117.473598 C99.7085058,121.309629 100.610319,125.09262 102.34447,128.516553 C104.809988,135.930842 110.760165,141.670392 118.271889,143.880164 L118.271889,145.91409 C115.375585,146.774829 112.666601,148.169198 110.285138,150.025034 C110.285138,150.025034 90.6768433,144.644323 76.1319124,123.098495 C64.7724654,106.269767 61.8260369,102.546648 61.0800691,101.725034 L61.5869816,101.549795 C61.5869816,101.549795 58.5771889,98.3667579 60.5846774,95.672093 C62.5921659,92.9774282 47.2926267,89.7943912 49.046659,95.672093 C50.8006912,101.549795 53.0587558,104.488646 53.0587558,104.488646 C53.0587558,104.488646 85.0864055,154.871409 101.805876,163.196717 C101.410882,164.903826 101.211831,166.650207 101.212558,168.402189 L101.212558,178.198358 L149.363479,178.198358 L149.363479,168.402189 C149.364206,166.650207 149.165154,164.903826 148.770161,163.196717 C165.47523,154.865663 197.517281,104.491518 197.517281,104.491518 C197.517281,104.491518 199.775346,101.552668 201.529378,95.6749658 C203.28341,89.797264 187.986751,92.9831737 189.99424,95.6778386 Z" id="Path" fill="url(#linearGradient-6)"></path>
                <ellipse id="Oval" fill="#263238" cx="125.288018" cy="118.780711" rx="24.4988479" ry="24.4358413"></ellipse>
                <ellipse id="Oval" fill="#F8C198" cx="125.288018" cy="122.615869" rx="23.0587558" ry="22.9994528"></ellipse>
                <ellipse id="Oval" fill="#263238" cx="116.160714" cy="117.582763" rx="2.88306452" ry="2.87564979"></ellipse>
                <ellipse id="Oval" fill="#263238" cx="134.896313" cy="117.582763" rx="2.88306452" ry="2.87564979"></ellipse>
                <path d="M132.013249,133.153215 C132.013249,134.876881 129.003456,137.706566 125.288018,137.706566 C121.572581,137.706566 118.562788,134.876881 118.562788,133.153215 C118.562788,131.429549 121.572581,131.475513 125.288018,131.475513 C129.003456,131.475513 132.013249,131.429549 132.013249,133.153215 Z" id="Path" fill="#FFFFFF"></path>
                <ellipse id="Oval" fill="#FFFFFF" cx="116.88076" cy="117.582763" rx="1" ry="1"></ellipse>
                <ellipse id="Oval" fill="#FFFFFF" cx="135.855415" cy="117.582763" rx="1" ry="1"></ellipse>
                <path d="M127.592166,109.849248 C126.186636,109.849248 124.925115,108.63119 124.775346,107.237893 C124.675851,105.80345 125.479423,104.458065 126.791475,103.86238 C126.92262,103.79481 127.067315,103.757502 127.214862,103.753215 C127.698733,103.753215 127.937788,104.32777 128.093318,104.784542 C128.577189,106.197948 129.435484,107.576881 130.78341,108.231874 C132.131336,108.886867 134.014977,108.550752 134.726382,107.235021 C132.8197,106.387551 132.004608,103.72736 133.113479,101.963475 C133.542627,101.282627 134.210829,100.705198 134.346198,99.9123119 C134.593894,98.4759234 133.015553,97.4302326 131.618664,96.999316 C127.586406,95.7554036 113.531106,95.6175103 112.756336,101.618741 C111.944124,107.950342 123.165323,110.688098 127.592166,109.849248 Z" id="Path" fill="#263238"></path>
                <ellipse id="Oval" fill="#F8C198" transform="translate(103.186182, 122.861213) rotate(-21.530000) translate(-103.186182, -122.861213) " cx="103.186182" cy="122.861213" rx="1.43959792" ry="4.07501264"></ellipse>
                <ellipse id="Oval" fill="#F8C198" transform="translate(147.383070, 122.846071) rotate(-68.470000) translate(-147.383070, -122.846071) " cx="147.38307" cy="122.846071" rx="4.07501264" ry="1.43959792"></ellipse>
                <path d="M139.663018,150.63119 C139.663018,150.63119 158.43318,145.374008 172.364631,124.290698 C186.296083,103.207387 187.016129,103.149932 187.016129,103.149932 L194.461406,106.083037 C194.461406,106.083037 159.876152,161.665527 144.985599,164.541176 C130.095046,167.416826 139.663018,150.63119 139.663018,150.63119 Z" id="Path" fill="#FF9800"></path>
                <path d="M186.298963,103.21026 C186.298963,103.21026 189.179147,100.09617 187.260945,97.4647059 C185.342742,94.8332421 199.991359,91.7191518 198.309332,97.4647059 C196.627304,103.21026 194.467166,106.083037 194.467166,106.083037 L186.298963,103.21026 Z" id="Path" fill="#F8C198"></path>
                <path d="M110.913018,150.63119 C110.913018,150.63119 92.1428571,145.374008 78.2114055,124.290698 C64.2799539,103.207387 63.5599078,103.149932 63.5599078,103.149932 L56.1146313,106.083037 C56.1146313,106.083037 90.702765,161.665527 105.596198,164.541176 C120.489631,167.416826 110.913018,150.63119 110.913018,150.63119 Z" id="Path" fill="#FF9800"></path>
                <path d="M64.2770737,103.21026 C64.2770737,103.21026 61.3968894,100.09617 63.3150922,97.4647059 C65.2332949,94.8332421 50.5846774,91.7191518 52.2667051,97.4647059 C53.9487327,103.21026 56.108871,106.083037 56.108871,106.083037 L64.2770737,103.21026 Z" id="Path" fill="#F8C198"></path>
                <g id="Group" opacity="0.2" transform="translate(112.903226, 97.961696)" fill="#FFFFFF">
                    <path d="M20.2448157,0.508481532 C20.1065668,1.30136799 19.4383641,1.87592339 19.0120968,2.55964432 C18.0414747,4.10519836 18.5455069,6.34021888 19.968318,7.44336525 C19.5537932,6.3955728 19.6440267,5.21602444 20.2131336,4.24309166 C20.6422811,3.5622435 21.3104839,2.98481532 21.4458525,2.19192886 C21.6013825,1.29274966 21.0397465,0.545827633 20.2563364,0.00861833105 C20.2768741,0.174912297 20.272993,0.343304573 20.2448157,0.508481532 Z" id="Path"></path>
                    <path d="M14.2453917,6.03570451 C14.1532258,5.82024624 14.0668203,5.60191518 13.9919355,5.38358413 C13.8364055,4.92681259 13.5973502,4.36662107 13.1134793,4.35225718 C12.9659324,4.35654454 12.821238,4.39385234 12.6900922,4.46142271 C11.3780407,5.05710731 10.574468,6.40249244 10.6739631,7.8369357 C10.7821546,8.69148786 11.2504444,9.45951424 11.9614055,9.94842681 C11.9207608,9.80643004 11.891862,9.66134715 11.875,9.51463748 C11.7755049,8.08019421 12.5790776,6.73480908 13.891129,6.13912449 C14.0026333,6.08525238 14.1223622,6.05029989 14.2453917,6.03570451 Z" id="Path"></path>
                    <path d="M12.2148618,10.5861833 C8.7125576,10.7326949 3.06163594,9.3997264 0.276497696,6.56429549 C2.35599078,10.976881 10.9475806,12.8240766 14.6774194,12.1145007 C13.6419684,12.0798136 12.7035166,11.4973898 12.2148618,10.5861833 Z" id="Path"></path>
                    <path d="M20.3571429,8.21901505 C19.516129,9.20437756 17.8859447,9.41121751 16.6849078,8.82804378 C16.2926091,8.63515216 15.9330273,8.38215356 15.6192396,8.07824897 C16.0846329,9.11461306 16.8819327,9.96745986 17.8859447,10.5028728 C19.233871,11.1549932 21.1175115,10.821751 21.8289171,9.50601915 C21.223149,9.22911233 20.7116257,8.78180687 20.3571429,8.21901505 Z" id="Path"></path>
                </g>
                <path d="M193.505184,106.083037 C193.505184,106.083037 158.917051,161.665527 144.009217,164.541176 C143.147775,164.713186 142.274495,164.819784 141.396889,164.860055 C142.596747,164.894168 143.796456,164.787138 144.971198,164.541176 C159.864631,161.668399 194.452765,106.083037 194.452765,106.083037 L193.680876,105.810123 C193.574309,105.991108 193.505184,106.083037 193.505184,106.083037 Z" id="Path" fill="#FFFFFF" opacity="0.2"></path>
                <path d="M57.0708525,106.083037 C57.0708525,106.083037 91.6589862,161.665527 106.56682,164.541176 C107.428262,164.713186 108.301542,164.819784 109.179147,164.860055 C107.97929,164.894168 106.779581,164.787138 105.604839,164.541176 C90.7114055,161.668399 56.1232719,106.083037 56.1232719,106.083037 L56.8951613,105.810123 C57.0017281,105.991108 57.0708525,106.083037 57.0708525,106.083037 Z" id="Path" fill="#FFFFFF" opacity="0.2"></path>
                <path d="M125.288018,145.615321 C131.403581,145.615321 137.268665,148.038471 141.593021,152.351705 C145.917377,156.664939 148.346774,162.51494 148.346774,168.614774 L148.346774,178.198358 L102.229263,178.198358 L102.229263,168.614774 C102.229263,162.51494 104.65866,156.664939 108.983016,152.351705 C113.307371,148.038471 119.172456,145.615321 125.288018,145.615321 Z" id="Path" fill="#FF9800"></path>
                <path d="M125.527074,145.735978 C124.688074,145.735868 123.84968,145.780941 123.015553,145.870999 C123.303571,145.870999 123.565668,145.853762 123.845046,145.853762 C136.580045,145.853762 146.903802,156.150968 146.903802,168.853215 L146.903802,178.316142 L148.585829,178.316142 L148.585829,168.735431 C148.585829,162.635597 146.156432,156.785596 141.832076,152.472362 C137.507721,148.159128 131.642636,145.735978 125.527074,145.735978 Z" id="Path" fill="#FFFFFF" opacity="0.2"></path>
                <path d="M125.048963,145.735978 C125.887963,145.735868 126.726357,145.780941 127.560484,145.870999 C127.272465,145.870999 127.010369,145.853762 126.730991,145.853762 C113.995992,145.853762 103.672235,156.150968 103.672235,168.853215 L103.672235,178.316142 L101.990207,178.316142 L101.990207,168.735431 C101.990207,156.033184 112.313964,145.735978 125.048963,145.735978 Z" id="Path" fill="#FFFFFF" opacity="0.2"></path>
                <rect id="Rectangle" fill="#F8C198" x="118.562788" y="139.266484" width="13.4504608" height="16.1708618" rx="6.72523041"></rect>
            </g>
        </g>
    </g>
</svg>