<?xml version="1.0" encoding="UTF-8"?>
<svg width="24px" height="25px" viewBox="0 0 24 25" version="1.1" xmlns="http://www.w3.org/2000/svg" xmlns:xlink="http://www.w3.org/1999/xlink">
    <!-- Generator: Sketch 52.5 (67469) - http://www.bohemiancoding.com/sketch -->
    <title>management</title>
    <desc>Created with Sketch.</desc>
    <g id="invite" stroke="none" stroke-width="1" fill="none" fill-rule="evenodd">
        <g id="invite-admin" transform="translate(-1168.000000, -239.000000)">
            <g id="dropdown" transform="translate(1159.000000, 50.000000)">
                <g id="Group-4" transform="translate(10.000000, 190.000000)">
                    <g id="management">
                        <g id="profile" transform="translate(5.000000, 0.000000)" fill-rule="nonzero" stroke="#333333" stroke-width="0.8">
                            <path d="M5.6880517,7.48425586 C7.85554055,7.48425586 9.61907573,5.80558334 9.61907573,3.74205049 C9.61907573,1.67851764 7.85554055,2.08721929e-14 5.6880517,2.08721929e-14 C3.52056285,2.08721929e-14 1.75702767,1.67867251 1.75702767,3.74220537 C1.75702767,5.80573822 3.52040016,7.48425586 5.6880517,7.48425586 Z" id="Shape"></path>
                            <path d="M11.7251372,12.7079713 C11.4514964,10.1138422 9.93299936,7.85291444 7.70398411,7.09582476 C7.17630776,6.91659839 4.32699771,6.91659839 3.84177699,7.16815063 C1.74343043,8.04659241 0.273709326,10.1692869 0.00576260695,12.7079713 C-0.0266122547,13.01524 0.0784840299,13.3215796 0.29437067,13.5487788 C0.506352805,13.7717965 0.808952014,13.8997219 1.12489162,13.8997219 L10.6060081,13.8997219 C10.9217851,13.8997219 11.224547,13.7717965 11.4365291,13.5489337 C11.652253,13.3217344 11.757512,13.01524 11.7251372,12.7079713 Z" id="Shape"></path>
                        </g>
                        <g id="Group" transform="translate(0.000000, 15.000000)">
                            <path d="M19.8967924,1.36136434 C19.8967924,0.887980832 19.917528,0.525981677 19.2426193,0.525981677 L11.430651,0.525981677 L11.430651,0 L10.711794,0 L10.711794,0.525981677 L2.56840463,0.549450221 C1.94282532,0.549450221 2,1.36136434 2,1.36136434 L2,4 L2.56840463,4 L2.56840463,1.36136434 C2.56840463,1.19428781 2.72720668,1.05267762 2.96540974,1.05267762 L10.711794,1.05267762 L10.711794,3.89732183 L11.430651,3.89732183 L11.430651,1.05267762 L18.8456142,1.05267762 C19.0838173,1.05267762 19.2426193,1.19428781 19.2426193,1.36136434 L19.2426193,4 L19.8967924,3.81407753 L19.8967924,1.36136434 Z" id="Path" fill="#333333"></path>
                            <path d="M2,8 C3.10276042,8 4,7.10282462 4,5.99995861 C4,4.8970926 3.10276042,4 2,4 C0.897239581,4 0,4.89717538 0,6.00004139 C0,7.1029074 0.89715681,8 2,8 Z" id="Shape-Copy-2" stroke="#333333" stroke-width="0.6" fill-rule="nonzero"></path>
                            <path d="M11,8 C12.1027604,8 13,7.10282462 13,5.99995861 C13,4.8970926 12.1027604,4 11,4 C9.89723958,4 9,4.89717538 9,6.00004139 C9,7.1029074 9.89715681,8 11,8 Z" id="Shape-Copy" stroke="#333333" stroke-width="0.6" fill-rule="nonzero"></path>
                            <path d="M20,8 C21.1027604,8 22,7.10282462 22,5.99995861 C22,4.8970926 21.1027604,4 20,4 C18.8972396,4 18,4.89717538 18,6.00004139 C18,7.1029074 18.8971568,8 20,8 Z" id="Shape-Copy-3" stroke="#333333" stroke-width="0.6" fill-rule="nonzero"></path>
                        </g>
                    </g>
                </g>
            </g>
        </g>
    </g>
</svg>