<?xml version="1.0" encoding="UTF-8"?>
<svg width="14px" height="14px" viewBox="0 0 14 14" version="1.1" xmlns="http://www.w3.org/2000/svg" xmlns:xlink="http://www.w3.org/1999/xlink">
    <!-- Generator: Sketch 51.3 (57544) - http://www.bohemiancoding.com/sketch -->
    <title>Combined Shape</title>
    <desc>Created with Sketch.</desc>
    <defs></defs>
    <g id="mock" stroke="none" stroke-width="1" fill="none" fill-rule="evenodd">
        <g id="bulletin-member" transform="translate(-338.000000, -174.000000)" fill="#02BAEF">
            <g id="card-prayer" transform="translate(270.000000, 128.000000)">
                <g id="Group-3" transform="translate(20.000000, 20.000000)">
                    <path d="M55,39.3738281 L53.7844628,39.8936543 L52.8200224,38.9894393 L51.5,39.0621778 L50.9029823,37.8826356 L49.6376889,37.4995133 L49.4801029,36.1869141 L48.4221517,35.394141 L48.7230046,34.1068036 L48,33 L48.7230046,31.8931964 L48.4221517,30.605859 L49.4801029,29.8130859 L49.6376889,28.5004867 L50.9029823,28.1173644 L51.5,26.9378222 L52.8200224,27.0105607 L53.7844628,26.1063457 L55,26.6261719 L56.2155372,26.1063457 L57.1799776,27.0105607 L58.5,26.9378222 L59.0970177,28.1173644 L60.3623111,28.5004867 L60.5198971,29.8130859 L61.5778483,30.605859 L61.2769954,31.8931964 L62,33 L61.2769954,34.1068036 L61.5778483,35.394141 L60.5198971,36.1869141 L60.3623111,37.4995133 L59.0970177,37.8826356 L58.5,39.0621778 L57.1799776,38.9894393 L56.2155372,39.8936543 L55,39.3738281 Z M54.0136661,35.9999997 L54.0130657,35.9999997 C54.1638393,36.0001834 54.3047036,35.9273853 54.3883326,35.8060634 L57.9242474,30.67735 C58.0135648,30.5479041 58.0246864,30.3822106 57.9534229,30.2426846 C57.8821594,30.1031587 57.7393374,30.0109976 57.5787565,30.0009176 C57.4181755,29.9908375 57.2642318,30.0643699 57.1749144,30.1938158 L53.9045385,34.9378504 L51.7228869,33.3368603 C51.5247934,33.1913505 51.2422296,33.2286879 51.091763,33.4202558 C50.9412965,33.6118236 50.9799058,33.885079 51.1779994,34.0305888 L53.7415226,35.9114509 C53.8198155,35.9688938 53.9153905,35.9999915 54.0136661,35.9999997 Z" id="Combined-Shape"></path>
                </g>
            </g>
        </g>
    </g>
</svg>