<?xml version="1.0" encoding="UTF-8"?>
<svg width="20px" height="20px" viewBox="0 0 20 20" version="1.1" xmlns="http://www.w3.org/2000/svg" xmlns:xlink="http://www.w3.org/1999/xlink">
    <!-- Generator: Sketch 52.2 (67145) - http://www.bohemiancoding.com/sketch -->
    <title>noun_Video_1979915</title>
    <desc>Created with Sketch.</desc>
    <defs>
        <linearGradient x1="8.51990086%" y1="0%" x2="138.615896%" y2="134.487026%" id="linearGradient-1">
            <stop stop-color="#EB0202" offset="0%"></stop>
            <stop stop-color="#FF5A5F" offset="100%"></stop>
        </linearGradient>
    </defs>
    <g id="Page-1" stroke="none" stroke-width="1" fill="none" fill-rule="evenodd" opacity="0.891764323">
        <g id="bulletin-church-copy" transform="translate(-410.000000, -160.000000)" fill="url(#linearGradient-1)">
            <g id="card-prayer-copy" transform="translate(270.000000, 80.000000)">
                <g id="noun_Video_1979915" transform="translate(140.000000, 80.000000)">
                    <path d="M19.9105263,8.94571429 L15.1368421,10 L15.1368421,9 C15.1382397,8.4326998 14.9318314,7.88807341 14.5630985,7.48612707 C14.1943656,7.08418073 13.6935674,6.85789925 13.1710526,6.85714286 L2.10526316,6.85714286 C1.58138082,6.85561999 1.07855115,7.08089559 0.70810907,7.48308985 C0.337666991,7.88528411 0.13017631,8.43121346 0.131578947,9 L0.131578947,17.7342857 C0.132275628,18.3015874 0.340692777,18.8453113 0.710906512,19.2456498 C1.08112025,19.6459884 1.58274982,19.8700888 2.10526316,19.8685714 L13.1710526,19.8685714 C14.2561271,19.8669975 15.1353924,18.9123666 15.1368421,17.7342857 L15.1368421,16.7314286 L19.9105263,17.7885714 L19.9105263,8.94571429 Z M13.8210526,17.7342857 C13.8210526,18.124041 13.5300377,18.44 13.1710526,18.44 L2.10526316,18.44 C1.74627807,18.44 1.45526316,18.124041 1.45526316,17.7342857 L1.45526316,9 C1.45315262,8.81135224 1.52070172,8.62964117 1.64282987,8.49543441 C1.76495801,8.36122766 1.93149583,8.28570037 2.10526316,8.28571429 L13.1710526,8.28571429 C13.5300377,8.28571429 13.8210526,8.60167333 13.8210526,8.99142857 L13.8210526,17.7342857 Z M18.5947368,16.04 L15.1421053,15.2742857 L15.1421053,11.4571429 L18.5947368,10.6942857 L18.5947368,16.04 Z" id="Shape"></path>
                    <path d="M4.33684211,6.21142857 C5.86981557,6.20985097 7.11149424,4.85961151 7.11052576,3.1952399 C7.10955729,1.53086829 5.86630824,0.182333278 4.33333416,0.182858647 C2.80036009,0.183384017 1.55789543,1.53277092 1.55789474,3.19714286 C1.55934715,4.86234895 2.80309896,6.21142932 4.33684211,6.21142857 Z M4.33684211,1.61142857 C5.14312435,1.61300586 5.79570386,2.32365124 5.79473579,3.19904419 C5.79376772,4.07443713 5.13961833,4.7833791 4.33333491,4.78285428 C3.5270515,4.78232947 2.87368552,4.07253643 2.87368421,3.19714286 C2.87513575,2.32091507 3.52978889,1.61142715 4.33684211,1.61142857 Z" id="Shape"></path>
                    <path d="M10.9315789,6.21142857 C12.0547327,6.21258442 13.0678856,5.47891057 13.4984358,4.35264118 C13.928986,3.22637178 13.6921062,1.92940541 12.8982929,1.06673321 C12.1044795,0.20406102 10.9101304,-0.0543525725 9.87236918,0.412033679 C8.83460796,0.878419931 8.15789524,1.9777182 8.15789474,3.19714286 C8.15934246,4.86012037 9.39989119,6.20827973 10.9315789,6.21142857 Z M10.9315789,1.61142857 C11.522545,1.6102725 12.055913,1.99588554 12.2828041,2.58833392 C12.5096953,3.18078229 12.3853892,3.86329437 11.9678894,4.31739809 C11.5503896,4.77150181 10.9219852,4.90769328 10.3759008,4.66242319 C9.82981639,4.4171531 9.47368517,3.8387642 9.47368421,3.19714286 C9.47512685,2.32314098 10.1265811,1.61457106 10.9315789,1.61142857 Z" id="Shape"></path>
                </g>
            </g>
        </g>
    </g>
</svg>