<?xml version="1.0" encoding="UTF-8"?>
<svg width="171px" height="50px" viewBox="0 0 171 50" version="1.1" xmlns="http://www.w3.org/2000/svg" xmlns:xlink="http://www.w3.org/1999/xlink">
    <!-- Generator: Sketch 52.2 (67145) - http://www.bohemiancoding.com/sketch -->
    <title>Get_it_on_Google_play</title>
    <desc>Created with Sketch.</desc>
    <defs>
        <linearGradient x1="91.4895098%" y1="4.9604069%" x2="-38.3173161%" y2="71.909245%" id="linearGradient-1">
            <stop stop-color="#00A0FF" offset="0%"></stop>
            <stop stop-color="#00A1FF" offset="0.66%"></stop>
            <stop stop-color="#00BEFF" offset="26.01%"></stop>
            <stop stop-color="#00D2FF" offset="51.22%"></stop>
            <stop stop-color="#00DFFF" offset="76.04%"></stop>
            <stop stop-color="#00E3FF" offset="100%"></stop>
        </linearGradient>
        <linearGradient x1="107.585647%" y1="50.0163647%" x2="-130.492257%" y2="50.0163647%" id="linearGradient-2">
            <stop stop-color="#FFE000" offset="0%"></stop>
            <stop stop-color="#FFBD00" offset="40.87%"></stop>
            <stop stop-color="#FFA500" offset="77.54%"></stop>
            <stop stop-color="#FF9C00" offset="100%"></stop>
        </linearGradient>
        <linearGradient x1="86.237735%" y1="117.851014%" x2="-50.1313759%" y2="294.785269%" id="linearGradient-3">
            <stop stop-color="#FF3A44" offset="0%"></stop>
            <stop stop-color="#C31162" offset="100%"></stop>
        </linearGradient>
        <linearGradient x1="-18.8012883%" y1="-154.171052%" x2="42.0936259%" y2="-75.1365546%" id="linearGradient-4">
            <stop stop-color="#32A071" offset="0%"></stop>
            <stop stop-color="#2DA771" offset="6.85%"></stop>
            <stop stop-color="#15CF74" offset="47.62%"></stop>
            <stop stop-color="#06E775" offset="80.09%"></stop>
            <stop stop-color="#00F076" offset="100%"></stop>
        </linearGradient>
    </defs>
    <g id="Page-1" stroke="none" stroke-width="1" fill="none" fill-rule="evenodd">
        <g id="Desktop-Copy" transform="translate(-605.000000, -2921.000000)">
            <g id="Group-5" transform="translate(412.000000, 2779.000000)">
                <g id="Get_it_on_Google_play" transform="translate(193.000000, 142.000000)">
                    <g id="g10" transform="translate(85.712443, 25.137668) scale(-1, 1) rotate(-180.000000) translate(-85.712443, -25.137668) translate(0.408136, 0.458181)">
                        <g id="g12" transform="translate(0.461897, 0.000000)">
                            <path d="M163.555364,0.466785714 L6.31945692,0.466785714 C2.86183931,0.466785714 0.0300206186,3.19008284 0.0300206186,6.51519689 L0.0300206186,42.8056639 C0.0300206186,46.130778 2.86183931,48.8540751 6.31945692,48.8540751 L163.555364,48.8540751 C167.012982,48.8540751 169.844801,46.130778 169.844801,42.8056639 L169.844801,6.51519689 C169.844801,3.19008284 167.012982,0.466785714 163.555364,0.466785714 Z" id="path14" fill="#000000"></path>
                            <g id="g18" transform="translate(55.848768, 36.757253) scale(-1, 1) rotate(-180.000000) translate(-55.848768, -36.757253) translate(51.917870, 32.220944)" fill="#FFFFFF" stroke="#FFFFFF" stroke-width="0.625">
                                <path d="M7.75801967,4.83116842 C7.75801967,5.84125309 7.44354786,6.65022808 6.82403838,7.2535571 C6.11175972,7.96878172 5.18406787,8.32866218 4.04725226,8.32866218 C2.96075214,8.32866218 2.03306028,7.96273331 1.27203849,7.24146028 C0.50944434,6.50960252 0.128933444,5.61141346 0.128933444,4.53630838 C0.128933444,3.46120329 0.50944434,2.56301423 1.27203849,1.83720489 C2.03306028,1.10988345 2.96075214,0.743954574 4.04725226,0.743954574 C4.58814378,0.743954574 5.10387756,0.851313872 5.59602595,1.05091144 C6.08660198,1.25202111 6.48598118,1.52419962 6.77529525,1.85988644 L6.11804916,2.49799381 C5.6133219,1.92490686 4.92620098,1.64214363 4.04725226,1.64214363 C3.25478328,1.64214363 2.56766237,1.90827372 1.98431715,2.44507022 C1.40726137,2.98337881 1.1179473,3.6804582 1.1179473,4.53630838 C1.1179473,5.39215856 1.40726137,6.09528636 1.98431715,6.63359495 C2.56766237,7.16434303 3.25478328,7.43652154 4.04725226,7.43652154 C4.88846436,7.43652154 5.59602595,7.16434303 6.15421342,6.62754654 C6.52214544,6.27220239 6.7312692,5.78228108 6.78630177,5.15627052 L4.04725226,5.15627052 L4.04725226,4.28227511 L7.70141475,4.28227511 C7.7454408,4.47128796 7.75801967,4.6542524 7.75801967,4.83116842 Z" id="path20"></path>
                            </g>
                            <g id="g22" transform="translate(62.924384, 36.757253) scale(-1, 1) rotate(-180.000000) translate(-62.924384, -36.757253) translate(59.779665, 32.220944)" fill="#FFFFFF" stroke="#FFFFFF" stroke-width="0.625">
                                <polygon id="path24" points="5.69351221 1.80091443 2.26105235 1.80091443 2.26105235 4.09931067 5.35545501 4.09931067 5.35545501 4.97330609 2.26105235 4.97330609 2.26105235 7.27170233 5.69351221 7.27170233 5.69351221 8.16233088 1.28933444 8.16233088 1.28933444 0.910285881 5.69351221 0.910285881"></polygon>
                            </g>
                            <g id="g26" transform="translate(69.213820, 36.757253) scale(-1, 1) rotate(-180.000000) translate(-69.213820, -36.757253) translate(66.069102, 32.220944)" fill="#FFFFFF" stroke="#FFFFFF" stroke-width="0.625">
                                <polygon id="path28" points="3.49535422 8.16233088 2.52363631 8.16233088 2.52363631 1.80091443 0.418247514 1.80091443 0.418247514 0.910285881 5.60231538 0.910285881 5.60231538 1.80091443 3.49535422 1.80091443 3.49535422 8.16233088"></polygon>
                            </g>
                            <g id="g30" transform="translate(75.503256, 36.757253) scale(-1, 1) rotate(-180.000000) translate(-75.503256, -36.757253) translate(73.930897, 32.220944)" fill="#FFFFFF" stroke="#FFFFFF" stroke-width="0.625">
                                <polygon id="path32" points="1.49216876 8.16233088 1.49216876 0.910285881 2.46231431 0.910285881 2.46231431 8.16233088"></polygon>
                            </g>
                            <g id="g34" transform="translate(80.220333, 36.757253) scale(-1, 1) rotate(-180.000000) translate(-80.220333, -36.757253) translate(77.075615, 32.220944)" fill="#FFFFFF" stroke="#FFFFFF" stroke-width="0.625">
                                <polygon id="path36" points="3.61799823 8.16233088 2.65414212 8.16233088 2.65414212 1.80091443 0.540891522 1.80091443 0.540891522 0.910285881 5.73124883 0.910285881 5.73124883 1.80091443 3.61799823 1.80091443"></polygon>
                            </g>
                            <g id="g38" transform="translate(89.654488, 36.757253) scale(-1, 1) rotate(-180.000000) translate(-89.654488, -36.757253) translate(84.937411, 32.220944)" fill="#FFFFFF" fill-rule="nonzero" stroke="#FFFFFF" stroke-width="0.625">
                                <path d="M7.6841188,7.22936345 C6.94039296,7.96273331 6.01899054,8.32866218 4.91991154,8.32866218 C3.81454312,8.32866218 2.8931407,7.96273331 2.14941486,7.22936345 C1.40726137,6.4975057 1.03775699,5.59931664 1.03775699,4.53630838 C1.03775699,3.47330012 1.40726137,2.57511106 2.14941486,1.8432533 C2.8931407,1.10988345 3.81454312,0.743954574 4.91991154,0.743954574 C6.0127011,0.743954574 6.93410352,1.10988345 7.67782936,1.84930172 C8.42627228,2.58720788 8.79577666,3.47934853 8.79577666,4.53630838 C8.79577666,5.59931664 8.42627228,6.4975057 7.6841188,7.22936345 Z M2.86798295,6.62149813 C3.42774278,7.16434303 4.10857426,7.43652154 4.91991154,7.43652154 C5.72495939,7.43652154 6.41208031,7.16434303 6.9655507,6.62149813 C7.52373817,6.07865323 7.80676281,5.38157384 7.80676281,4.53630838 C7.80676281,3.69104292 7.52373817,2.99396353 6.9655507,2.45111863 C6.41208031,1.90827372 5.72495939,1.63609522 4.91991154,1.63609522 C4.10857426,1.63609522 3.42774278,1.90827372 2.86798295,2.45111863 C2.30979548,2.99396353 2.02677085,3.69104292 2.02677085,4.53630838 C2.02677085,5.38157384 2.30979548,6.07865323 2.86798295,6.62149813 Z" id="path40"></path>
                            </g>
                            <g id="g42" transform="translate(98.302463, 36.757253) scale(-1, 1) rotate(-180.000000) translate(-98.302463, -36.757253) translate(94.371565, 32.220944)" fill="#FFFFFF" stroke="#FFFFFF" stroke-width="0.625">
                                <polygon id="path44" points="0.724857533 8.16233088 0.724857533 0.910285881 1.90412684 0.910285881 5.5708682 6.5504293 5.6133219 6.5504293 5.5708682 5.15627052 5.5708682 0.910285881 6.54101375 0.910285881 6.54101375 8.16233088 5.52841451 8.16233088 1.68871365 2.24396054 1.64625995 2.24396054 1.68871365 3.64416773 1.68871365 8.16233088 0.724857533 8.16233088"></polygon>
                            </g>
                            <path d="M85.7361691,22.5404623 C82.7817064,22.5404623 80.3681352,20.3781553 80.3681352,17.3947765 C80.3681352,14.4355913 82.7817064,12.2506028 85.7361691,12.2506028 C88.6969212,12.2506028 91.1104924,14.4355913 91.1104924,17.3947765 C91.1104924,20.3781553 88.6969212,22.5404623 85.7361691,22.5404623 Z M85.7361691,14.2768205 C84.1150669,14.2768205 82.7203844,15.56362 82.7203844,17.3947765 C82.7203844,19.2501266 84.1150669,20.5142445 85.7361691,20.5142445 C87.3572713,20.5142445 88.7582432,19.2501266 88.7582432,17.3947765 C88.7582432,15.56362 87.3572713,14.2768205 85.7361691,14.2768205 Z M74.0236663,22.5404623 C71.0629142,22.5404623 68.6556324,20.3781553 68.6556324,17.3947765 C68.6556324,14.4355913 71.0629142,12.2506028 74.0236663,12.2506028 C76.9828461,12.2506028 79.3917002,14.4355913 79.3917002,17.3947765 C79.3917002,20.3781553 76.9828461,22.5404623 74.0236663,22.5404623 Z M74.0236663,14.2768205 C72.4009917,14.2768205 71.0015922,15.56362 71.0015922,17.3947765 C71.0015922,19.2501266 72.4009917,20.5142445 74.0236663,20.5142445 C75.6447685,20.5142445 77.039451,19.2501266 77.039451,17.3947765 C77.039451,15.56362 75.6447685,14.2768205 74.0236663,14.2768205 Z M60.0862755,20.9633391 L60.0862755,18.7768384 L65.5156314,18.7768384 C65.3568231,17.5550594 64.9322861,16.6568703 64.2813295,16.0308598 C63.4888605,15.2748084 62.2545586,14.4355913 60.0862755,14.4355913 C56.7450124,14.4355913 54.1286069,17.0288476 54.1286069,20.242066 C54.1286069,23.4552845 56.7450124,26.0485408 60.0862755,26.0485408 C61.8929161,26.0485408 63.2074082,25.3696066 64.1775538,24.4895628 L65.7797877,26.0303955 C64.4228418,27.2763682 62.6177736,28.2335293 60.0862755,28.2335293 C55.5044211,28.2335293 51.6537138,24.6483336 51.6537138,20.242066 C51.6537138,15.8357985 55.5044211,12.2506028 60.0862755,12.2506028 C62.562741,12.2506028 64.4228418,13.0308478 65.8851357,14.4945633 C67.3835939,15.9355973 67.8505846,17.961815 67.8505846,19.5979103 C67.8505846,20.1059768 67.8065585,20.5732166 67.7279406,20.9633391 L60.0862755,20.9633391 Z M117.078002,19.2682718 C116.63617,20.4189821 115.272934,22.5404623 112.496148,22.5404623 C109.74452,22.5404623 107.453593,20.4552725 107.453593,17.3947765 C107.453593,14.5127086 109.720934,12.2506028 112.760304,12.2506028 C115.217902,12.2506028 116.63617,13.6916367 117.219515,14.5308538 L115.395578,15.6997093 C114.787075,14.8438591 113.958442,14.2768205 112.760304,14.2768205 C111.570029,14.2768205 110.716238,14.8015202 110.169057,15.8357985 L117.324863,18.6830881 L117.078002,19.2682718 Z M109.782256,17.5550594 C109.720934,19.5389382 111.38449,20.5550713 112.576338,20.5550713 C113.51032,20.5550713 114.302789,20.1059768 114.566945,19.4633331 L109.782256,17.5550594 Z M103.9661,12.5636081 L106.318349,12.5636081 L106.318349,27.684636 L103.9661,27.684636 L103.9661,12.5636081 Z M100.11382,21.3942884 L100.035202,21.3942884 C99.5068898,21.9961053 98.4990077,22.5404623 97.2222521,22.5404623 C94.5429522,22.5404623 92.0932168,20.2783565 92.0932168,17.3781434 C92.0932168,14.4945633 94.5429522,12.2506028 97.2222521,12.2506028 C98.4990077,12.2506028 99.5068898,12.7994961 100.035202,13.4194582 L100.11382,13.4194582 L100.11382,12.6815521 C100.11382,10.7143063 99.0210309,9.65734649 97.2584164,9.65734649 C95.8212802,9.65734649 94.9297526,10.6553343 94.5618205,11.4945514 L92.5161814,10.6734796 C93.105816,9.30956285 94.6671686,7.63112875 97.2584164,7.63112875 C100.016334,7.63112875 102.343426,9.19161883 102.343426,12.9885089 L102.343426,22.227457 L100.11382,22.227457 L100.11382,21.3942884 Z M97.4235141,14.2768205 C95.8024119,14.2768205 94.445466,15.5817652 94.445466,17.3781434 C94.445466,19.1911546 95.8024119,20.5142445 97.4235141,20.5142445 C99.0210309,20.5142445 100.28049,19.1911546 100.28049,17.3781434 C100.28049,15.5817652 99.0210309,14.2768205 97.4235141,14.2768205 Z M128.090805,27.684636 L122.464905,27.684636 L122.464905,12.5636081 L124.810864,12.5636081 L124.810864,18.2929655 L128.090805,18.2929655 C130.696204,18.2929655 133.251288,20.1059768 133.251288,22.9895568 C133.251288,25.8716247 130.689915,27.684636 128.090805,27.684636 Z M128.152127,20.3963005 L124.810864,20.3963005 L124.810864,25.581301 L128.152127,25.581301 C129.903735,25.581301 130.903756,24.1826059 130.903756,22.9895568 C130.903756,21.8191893 129.903735,20.3963005 128.152127,20.3963005 Z M142.653995,22.5691922 C140.958992,22.5691922 139.196378,21.8494313 138.47152,20.2541629 L140.553323,19.4149458 C141.001446,20.2541629 141.825362,20.5263414 142.696449,20.5263414 C143.913455,20.5263414 145.147757,19.8232136 145.166625,18.5817772 L145.166625,18.4230064 C144.742088,18.6588944 143.833265,19.0081902 142.715317,19.0081902 C140.473133,19.0081902 138.188495,17.8211895 138.188495,15.6059589 C138.188495,13.5797411 140.025011,12.2747964 142.089518,12.2747964 C143.668167,12.2747964 144.539254,12.959779 145.086435,13.7566572 L145.166625,13.7566572 L145.166625,12.5878017 L147.432394,12.5878017 L147.432394,18.388228 C147.432394,21.0691863 145.350591,22.5691922 142.653995,22.5691922 Z M142.370971,14.2828689 C141.603659,14.2828689 140.534455,14.6487978 140.534455,15.56362 C140.534455,16.7339876 141.867816,17.1830821 143.021927,17.1830821 C144.054967,17.1830821 144.539254,16.9638272 145.166625,16.6750156 C144.982659,15.2748084 143.729489,14.2828689 142.370971,14.2828689 Z M155.68728,22.2380417 L152.990684,15.6830761 L152.910493,15.6830761 L150.122701,22.2380417 L147.592775,22.2380417 L151.78154,13.077723 L149.391554,7.98042449 L151.842862,7.98042449 L158.297396,22.2380417 L155.68728,22.2380417 Z M134.540622,12.5636081 L136.892872,12.5636081 L136.892872,27.684636 L134.540622,27.684636 L134.540622,12.5636081 Z" id="path46" fill="#FFFFFF" fill-rule="nonzero"></path>
                            <g id="g48" transform="translate(11.036534, 8.027300)" fill="url(#linearGradient-1)">
                                <path d="M2.11954003,31.7072835 C1.75003565,31.3353062 1.53619482,30.7561708 1.53619482,30.0061678 L1.53619482,3.25404521 C1.53619482,2.50404223 1.75003565,1.92490686 2.11954003,1.55292957 L2.21073686,1.47127602 L17.7991047,16.4562147 L17.7991047,16.8100468 L2.21073686,31.7949854 L2.11954003,31.7072835 Z" id="path64"></path>
                            </g>
                            <g id="g66" transform="translate(28.332484, 18.612019)" fill="url(#linearGradient-2)">
                                <path d="M5.69351221,0.873995414 L0.503154904,5.87149515 L0.503154904,6.2253272 L5.69980165,11.2228269 L5.81615622,11.1578065 L11.9703696,7.79035359 C13.7266947,6.83470462 13.7266947,5.26211772 11.9703696,4.30042034 L5.81615622,0.939015834 L5.69351221,0.873995414 Z" id="path78"></path>
                            </g>
                            <g id="g80" transform="translate(12.608893, 8.027300)" fill="url(#linearGradient-3)">
                                <path d="M21.539747,11.5237354 L16.2267457,16.6331307 L0.547180958,1.55292957 C1.13052617,0.963209479 2.08180341,0.892140648 3.16358646,1.48186074 L21.539747,11.5237354" id="path88"></path>
                            </g>
                            <g id="g90" transform="translate(12.608893, 24.660430)" fill="url(#linearGradient-4)">
                                <path d="M21.539747,5.10939534 L3.16358646,15.15127 C2.08180341,15.7349417 1.13052617,15.6638728 0.547180958,15.0741527 L16.2267457,0 L21.539747,5.10939534 Z" id="path104"></path>
                            </g>
                        </g>
                    </g>
                </g>
            </g>
        </g>
    </g>
</svg>