<?xml version="1.0" encoding="UTF-8"?>
<svg width="171px" height="50px" viewBox="0 0 171 50" version="1.1" xmlns="http://www.w3.org/2000/svg" xmlns:xlink="http://www.w3.org/1999/xlink">
    <!-- Generator: Sketch 52.2 (67145) - http://www.bohemiancoding.com/sketch -->
    <title>Download_on_the_App_Store_Badge</title>
    <desc>Created with Sketch.</desc>
    <g id="Page-1" stroke="none" stroke-width="1" fill="none" fill-rule="evenodd">
        <g id="Desktop-Copy" transform="translate(-412.000000, -2921.000000)">
            <g id="Group-5" transform="translate(412.000000, 2779.000000)">
                <g id="Download_on_the_App_Store_Badge" transform="translate(0.000000, 142.000000)">
                    <path d="M170.651903,44.574359 C170.651903,47.2871795 168.461437,49.4846154 165.752108,49.4846154 L5.40459888,49.4846154 C2.69654851,49.4846154 0.498414179,47.2871795 0.498414179,44.574359 L0.498414179,5.41666667 C0.498414179,2.70512821 2.69654851,0.5 5.40459888,0.5 L165.75083,0.5 C168.461437,0.5 170.650625,2.70512821 170.650625,5.41666667 L170.651903,44.574359 Z" id="Path" fill="#000000"></path>
                    <g id="Group" transform="translate(14.696828, 7.051282)" fill="#FFFFFF">
                        <path d="M23.1673134,17.6717949 C23.1302519,13.5397436 26.539916,11.5294872 26.6958302,11.4358974 C24.7647948,8.61153846 21.7717537,8.22564103 20.719972,8.19487179 C18.2061754,7.92948718 15.7677799,9.70384615 14.4872388,9.70384615 C13.1811381,9.70384615 11.2092071,8.22051282 9.08391791,8.26410256 C6.34902985,8.30641026 3.79050373,9.89487179 2.38727612,12.3615385 C-0.50863806,17.3910256 1.65115672,24.7820513 4.42566231,28.8474359 C5.8135541,30.8384615 7.43531716,33.0615385 9.55805037,32.9833333 C11.6347761,32.8974359 12.4105131,31.6551282 14.9166418,31.6551282 C17.3997668,31.6551282 18.1282183,32.9833333 20.293125,32.9333333 C22.521931,32.8974359 23.9251586,30.9333333 25.2644869,28.924359 C26.8683582,26.6423077 27.5124627,24.3948718 27.5380224,24.2794872 C27.485625,24.2615385 23.2094869,22.624359 23.1673134,17.6717949 Z" id="Path"></path>
                        <path d="M19.0777612,5.52051282 C20.1947201,4.11923077 20.9589552,2.21282051 20.7468097,0.278205128 C19.1301586,0.35 17.1083862,1.4 15.9441418,2.77051282 C14.9140858,3.97820513 13.9939366,5.95769231 14.2316418,7.81923077 C16.0476586,7.95512821 17.9122388,6.9 19.0777612,5.52051282 Z" id="Path"></path>
                    </g>
                    <g id="Group" transform="translate(53.036381, 22.435897)" fill="#FFFFFF">
                        <path d="M14.8821362,17.3128205 L11.9798321,17.3128205 L10.3900187,12.3012821 L4.86401119,12.3012821 L3.34959888,17.3128205 L0.523973881,17.3128205 L5.99886194,0.251282051 L9.38041045,0.251282051 L14.8821362,17.3128205 Z M9.91077425,10.1987179 L8.47304104,5.74358974 C8.32096082,5.28846154 8.03597015,4.21666667 7.61551306,2.52948718 L7.56439366,2.52948718 C7.39697761,3.25512821 7.12732276,4.32692308 6.75670709,5.74358974 L5.34453358,10.1987179 L9.91077425,10.1987179 Z" id="Shape" fill-rule="nonzero"></path>
                        <path d="M28.9616978,11.0102564 C28.9616978,13.1025641 28.3981063,14.7564103 27.2709235,15.9705128 C26.2613153,17.0512821 25.0076119,17.5910256 23.5110914,17.5910256 C21.8957183,17.5910256 20.7353078,17.0089744 20.0285821,15.8448718 L19.9774627,15.8448718 L19.9774627,22.325641 L17.2527985,22.325641 L17.2527985,9.06025641 C17.2527985,7.74487179 17.2182929,6.39487179 17.1518377,5.01025641 L19.5480597,5.01025641 L19.7001399,6.96025641 L19.7512593,6.96025641 C20.6599067,5.49102564 22.0388526,4.75769231 23.889375,4.75769231 C25.3360541,4.75769231 26.54375,5.33076923 27.5099067,6.47820513 C28.4786194,7.62692308 28.9616978,9.13717949 28.9616978,11.0102564 Z M26.1859142,11.1102564 C26.1859142,9.91282051 25.9175373,8.92564103 25.3782276,8.14871795 C24.7890765,7.33846154 23.9980037,6.93333333 23.0062873,6.93333333 C22.3340672,6.93333333 21.7231903,7.15897436 21.1774907,7.60384615 C20.6305131,8.0525641 20.2726772,8.63846154 20.1052612,9.36410256 C20.0209142,9.7025641 19.9787407,9.97948718 19.9787407,10.1974359 L19.9787407,12.2487179 C19.9787407,13.1435897 20.2522295,13.8987179 20.7992071,14.5153846 C21.3461847,15.1320513 22.0567444,15.4397436 22.9308862,15.4397436 C23.9571082,15.4397436 24.7558489,15.0423077 25.3271082,14.25 C25.8996455,13.4564103 26.1859142,12.4102564 26.1859142,11.1102564 Z" id="Shape" fill-rule="nonzero"></path>
                        <path d="M43.066819,11.0102564 C43.066819,13.1025641 42.5032276,14.7564103 41.3747668,15.9705128 C40.3664366,17.0512821 39.1127332,17.5910256 37.6162127,17.5910256 C36.0008396,17.5910256 34.8404291,17.0089744 34.1349813,15.8448718 L34.0838619,15.8448718 L34.0838619,22.325641 L31.3591978,22.325641 L31.3591978,9.06025641 C31.3591978,7.74487179 31.3246922,6.39487179 31.2582369,5.01025641 L33.654459,5.01025641 L33.8065392,6.96025641 L33.8576586,6.96025641 C34.765028,5.49102564 36.1439739,4.75769231 37.9957743,4.75769231 C39.4411754,4.75769231 40.6488713,5.33076923 41.617584,6.47820513 C42.5824627,7.62692308 43.066819,9.13717949 43.066819,11.0102564 Z M40.2910354,11.1102564 C40.2910354,9.91282051 40.0213806,8.92564103 39.4820709,8.14871795 C38.8929198,7.33846154 38.104403,6.93333333 37.1114086,6.93333333 C36.4379104,6.93333333 35.8283116,7.15897436 35.281334,7.60384615 C34.7343563,8.0525641 34.3777985,8.63846154 34.2103825,9.36410256 C34.1273134,9.7025641 34.0838619,9.97948718 34.0838619,10.1974359 L34.0838619,12.2487179 C34.0838619,13.1435897 34.3573507,13.8987179 34.9017724,14.5153846 C35.44875,15.1307692 36.1593097,15.4397436 37.0360075,15.4397436 C38.0622295,15.4397436 38.8609701,15.0423077 39.4322295,14.25 C40.0047668,13.4564103 40.2910354,12.4102564 40.2910354,11.1102564 Z" id="Shape" fill-rule="nonzero"></path>
                        <path d="M58.8371549,12.5282051 C58.8371549,13.9794872 58.3349067,15.1602564 57.3265765,16.0717949 C56.2185634,17.0679487 54.6760354,17.5653846 52.6938806,17.5653846 C50.863806,17.5653846 49.3966791,17.2115385 48.2861101,16.5025641 L48.9174347,14.224359 C50.1136287,14.95 51.4261194,15.3141026 52.8561847,15.3141026 C53.8824067,15.3141026 54.6811474,15.0807692 55.2549627,14.6166667 C55.826222,14.1525641 56.1112127,13.5294872 56.1112127,12.7525641 C56.1112127,12.0602564 55.8760634,11.4769231 55.4044869,11.0038462 C54.9354664,10.5307692 54.1520616,10.0910256 53.0581063,9.68461538 C50.0804011,8.57051282 48.5928265,6.93846154 48.5928265,4.79230769 C48.5928265,3.38974359 49.1142444,2.23974359 50.1583582,1.34487179 C51.1986381,0.448717949 52.5865299,0.00128205128 54.3220336,0.00128205128 C55.8696735,0.00128205128 57.1553265,0.271794872 58.1815485,0.811538462 L57.5003825,3.03974359 C56.5418937,2.51666667 55.4581623,2.25512821 54.2453545,2.25512821 C53.2868657,2.25512821 52.5379664,2.49230769 52.0012127,2.96410256 C51.547528,3.38589744 51.3200466,3.9 51.3200466,4.50897436 C51.3200466,5.18333333 51.5794776,5.74102564 52.1008955,6.17948718 C52.5545802,6.58461538 53.3788806,7.02307692 54.5750746,7.49615385 C56.0383675,8.08717949 57.113153,8.77820513 57.8045429,9.57051282 C58.4933769,10.3602564 58.8371549,11.3487179 58.8371549,12.5282051 Z" id="Path"></path>
                        <path d="M67.8456716,7.06153846 L64.8424067,7.06153846 L64.8424067,13.0346154 C64.8424067,14.5538462 65.3714925,15.3128205 66.4322201,15.3128205 C66.9191325,15.3128205 67.3229757,15.2705128 67.642472,15.1858974 L67.7178731,17.2615385 C67.1811194,17.4628205 66.4743937,17.5641026 65.5989739,17.5641026 C64.5229104,17.5641026 63.6819963,17.2346154 63.0749534,16.5769231 C62.4704664,15.9179487 62.166306,14.8128205 62.166306,13.2602564 L62.166306,7.05897436 L60.3771269,7.05897436 L60.3771269,5.00769231 L62.166306,5.00769231 L62.166306,2.75512821 L64.8424067,1.94487179 L64.8424067,5.00769231 L67.8456716,5.00769231 L67.8456716,7.06153846 Z" id="Path"></path>
                        <path d="M81.3961474,11.0602564 C81.3961474,12.9512821 80.8568377,14.5038462 79.7807743,15.7179487 C78.6523134,16.9679487 77.1545149,17.5910256 75.2873787,17.5910256 C73.4879757,17.5910256 72.0553545,16.9923077 70.986959,15.7948718 C69.9185634,14.5974359 69.3843657,13.0858974 69.3843657,11.2641026 C69.3843657,9.35769231 69.9338993,7.79615385 71.0368004,6.58205128 C72.1371455,5.36666667 73.6221642,4.75897436 75.4893004,4.75897436 C77.2887034,4.75897436 78.7366604,5.35769231 79.8293377,6.55641026 C80.8747295,7.71923077 81.3961474,9.22051282 81.3961474,11.0602564 Z M78.5692444,11.1487179 C78.5692444,10.0141026 78.3277052,9.04102564 77.8382369,8.22948718 C77.2669776,7.2474359 76.4503451,6.75769231 75.3921735,6.75769231 C74.2969403,6.75769231 73.464972,7.24871795 72.8937127,8.22948718 C72.4042444,9.04230769 72.1627052,10.0307692 72.1627052,11.2 C72.1627052,12.3346154 72.4042444,13.3076923 72.8937127,14.1179487 C73.4828638,15.1 74.3058862,15.5897436 75.3678918,15.5897436 C76.4081716,15.5897436 77.2248041,15.0897436 77.8139552,14.0923077 C78.3162034,13.2653846 78.5692444,12.2820513 78.5692444,11.1487179 Z" id="Shape" fill-rule="nonzero"></path>
                        <path d="M90.252584,7.41410256 C89.9829291,7.36410256 89.6953825,7.33846154 89.393778,7.33846154 C88.4352892,7.33846154 87.6940578,7.70128205 87.1726399,8.42820513 C86.7189552,9.06923077 86.4914739,9.87948718 86.4914739,10.8576923 L86.4914739,17.3128205 L83.7680877,17.3128205 L83.7936474,8.88461538 C83.7936474,7.46666667 83.7591418,6.17564103 83.6914086,5.01153846 L86.0646269,5.01153846 L86.1643097,7.36538462 L86.2397108,7.36538462 C86.5272575,6.55641026 86.9809422,5.90512821 87.6020429,5.41666667 C88.2090858,4.97692308 88.8646922,4.75769231 89.5714179,4.75769231 C89.823181,4.75769231 90.0506623,4.77564103 90.252584,4.80769231 L90.252584,7.41410256 Z" id="Path"></path>
                        <path d="M102.438172,10.5794872 C102.438172,11.0692308 102.406222,11.4820513 102.338489,11.8192308 L94.1644963,11.8192308 C94.1964459,13.0346154 94.5913433,13.9641026 95.3504664,14.6051282 C96.0393004,15.1782051 96.930056,15.4653846 98.0240112,15.4653846 C99.2342631,15.4653846 100.338442,15.2717949 101.331437,14.8833333 L101.758284,16.7807692 C100.597873,17.2884615 99.2278731,17.5410256 97.6470056,17.5410256 C95.7453638,17.5410256 94.2526772,16.9794872 93.1663899,15.8576923 C92.0826586,14.7358974 91.5395149,13.2294872 91.5395149,11.3397436 C91.5395149,9.48461538 92.044319,7.93974359 93.0552052,6.70769231 C94.1133769,5.39230769 95.5434422,4.73461538 97.3428451,4.73461538 C99.1102985,4.73461538 100.448349,5.39230769 101.356996,6.70769231 C102.076502,7.7525641 102.438172,9.04487179 102.438172,10.5794872 Z M99.840028,9.87051282 C99.8579198,9.06025641 99.6802799,8.36025641 99.3109422,7.76923077 C98.8393657,7.00897436 98.1147481,6.62948718 97.1396455,6.62948718 C96.2488899,6.62948718 95.5242724,7 94.9709049,7.74358974 C94.5172201,8.33461538 94.2475653,9.04358974 94.1644963,9.86923077 L99.840028,9.86923077 L99.840028,9.87051282 Z" id="Shape" fill-rule="nonzero"></path>
                    </g>
                    <g id="Group" transform="translate(54.314366, 7.051282)" fill="#FFFFFF">
                        <path d="M7.7318097,5.13974359 C7.7318097,6.64871795 7.28068097,7.78461538 6.37970149,8.5474359 C5.54517724,9.25128205 4.35920709,9.60384615 2.82306903,9.60384615 C2.06138993,9.60384615 1.40961754,9.57051282 0.86391791,9.50384615 L0.86391791,1.25897436 C1.5757556,1.14358974 2.34254664,1.08461538 3.17068097,1.08461538 C4.63397388,1.08461538 5.736875,1.40384615 6.48066231,2.04230769 C7.31390858,2.76410256 7.7318097,3.79615385 7.7318097,5.13974359 Z M6.31963619,5.17692308 C6.31963619,4.19871795 6.06148321,3.44871795 5.54517724,2.92564103 C5.02887127,2.40384615 4.27486007,2.14230769 3.28186567,2.14230769 C2.8601306,2.14230769 2.50101679,2.17051282 2.20324627,2.22948718 L2.20324627,8.4974359 C2.36810634,8.52307692 2.66971082,8.53461538 3.1080597,8.53461538 C4.13300373,8.53461538 4.92407649,8.24871795 5.48127799,7.67692308 C6.03847948,7.10512821 6.31963619,6.27179487 6.31963619,5.17692308 Z" id="Shape" fill-rule="nonzero"></path>
                        <path d="M15.2195243,6.45769231 C15.2195243,7.38717949 14.9549813,8.14871795 14.4258955,8.74615385 C13.87125,9.36025641 13.1364086,9.66666667 12.2188153,9.66666667 C11.3344496,9.66666667 10.6302799,9.37307692 10.105028,8.78333333 C9.5810541,8.19487179 9.31906716,7.4525641 9.31906716,6.55769231 C9.31906716,5.62179487 9.58872201,4.85384615 10.1305877,4.25769231 C10.6724534,3.66153846 11.4009049,3.36282051 12.3184981,3.36282051 C13.2028638,3.36282051 13.9134235,3.65641026 14.4514552,4.24487179 C14.9626493,4.81666667 15.2195243,5.55512821 15.2195243,6.45769231 Z M13.8303545,6.50128205 C13.8303545,5.94358974 13.7102239,5.46538462 13.4712407,5.06666667 C13.190084,4.58461538 12.7900746,4.34358974 12.2699347,4.34358974 C11.731903,4.34358974 11.3229478,4.58461538 11.041791,5.06666667 C10.8015299,5.46538462 10.6826772,5.95128205 10.6826772,6.52564103 C10.6826772,7.08333333 10.8028078,7.56153846 11.041791,7.96025641 C11.3318937,8.44230769 11.7357369,8.68333333 12.2571549,8.68333333 C12.7683489,8.68333333 13.1696362,8.43846154 13.4584608,7.9474359 C13.7063899,7.54102564 13.8303545,7.05897436 13.8303545,6.50128205 Z" id="Shape" fill-rule="nonzero"></path>
                        <path d="M25.259375,3.48589744 L23.374347,9.52948718 L22.1474813,9.52948718 L21.3666325,6.90512821 C21.1685448,6.25 21.0075187,5.59871795 20.8822761,4.9525641 L20.8579944,4.9525641 C20.7416978,5.61666667 20.5806716,6.26666667 20.3736381,6.90512821 L19.5442257,9.52948718 L18.3033022,9.52948718 L16.5307369,3.48589744 L17.9071269,3.48589744 L18.5882929,6.35897436 C18.753153,7.03846154 18.8886194,7.68589744 18.9972481,8.29871795 L19.0215299,8.29871795 C19.1212127,7.79358974 19.2860728,7.15 19.518666,6.37179487 L20.3736381,3.48717949 L21.4650373,3.48717949 L22.2842257,6.31025641 C22.4823134,6.99871795 22.6433396,7.66153846 22.7673041,8.3 L22.8043657,8.3 C22.8951026,7.67820513 23.031847,7.01538462 23.2133209,6.31025641 L23.9443284,3.48717949 L25.259375,3.48717949 L25.259375,3.48589744 Z" id="Path"></path>
                        <path d="M32.2026679,9.52948718 L30.8633396,9.52948718 L30.8633396,6.06794872 C30.8633396,5.00128205 30.4594963,4.46794872 29.6492537,4.46794872 C29.2518004,4.46794872 28.9310261,4.61410256 28.681819,4.90769231 C28.4351679,5.20128205 28.3099254,5.5474359 28.3099254,5.94358974 L28.3099254,9.52820513 L26.970597,9.52820513 L26.970597,5.21282051 C26.970597,4.68205128 26.9539832,4.10641026 26.9220336,3.48333333 L28.0990578,3.48333333 L28.1616791,4.42820513 L28.1987407,4.42820513 C28.3546549,4.13461538 28.5872481,3.89230769 28.8926866,3.69871795 C29.2556343,3.47307692 29.6620336,3.35897436 30.1067724,3.35897436 C30.6690858,3.35897436 31.1368284,3.54102564 31.508722,3.90641026 C31.9713526,4.35384615 32.2026679,5.02179487 32.2026679,5.90897436 L32.2026679,9.52948718 Z" id="Path"></path>
                        <polygon id="Path" points="35.8960448 9.52948718 34.5579944 9.52948718 34.5579944 0.712820513 35.8960448 0.712820513"></polygon>
                        <path d="M43.7812127,6.45769231 C43.7812127,7.38717949 43.5166698,8.14871795 42.987584,8.74615385 C42.4329384,9.36025641 41.696819,9.66666667 40.7805037,9.66666667 C39.8948601,9.66666667 39.1906903,9.37307692 38.6667164,8.78333333 C38.1427425,8.19487179 37.8807556,7.4525641 37.8807556,6.55769231 C37.8807556,5.62179487 38.1504104,4.85384615 38.6922761,4.25769231 C39.2341418,3.66153846 39.9625933,3.36282051 40.8789086,3.36282051 C41.7645522,3.36282051 42.473834,3.65641026 43.0131437,4.24487179 C43.5243377,4.81666667 43.7812127,5.55512821 43.7812127,6.45769231 Z M42.3907649,6.50128205 C42.3907649,5.94358974 42.2706343,5.46538462 42.0316511,5.06666667 C41.7517724,4.58461538 41.3504851,4.34358974 40.8316231,4.34358974 C40.2923134,4.34358974 39.8833582,4.58461538 39.6034795,5.06666667 C39.3632183,5.46538462 39.2443657,5.95128205 39.2443657,6.52564103 C39.2443657,7.08333333 39.3644963,7.56153846 39.6034795,7.96025641 C39.8935821,8.44230769 40.2974254,8.68333333 40.8188433,8.68333333 C41.3300373,8.68333333 41.7300466,8.43846154 42.0188713,7.9474359 C42.2680784,7.54102564 42.3907649,7.05897436 42.3907649,6.50128205 Z" id="Shape" fill-rule="nonzero"></path>
                        <path d="M50.263153,9.52948718 L49.060569,9.52948718 L48.9608862,8.83333333 L48.9238246,8.83333333 C48.5123134,9.38846154 47.9257183,9.66666667 47.1640392,9.66666667 C46.5953358,9.66666667 46.1352612,9.48333333 45.7889272,9.11923077 C45.4745429,8.78846154 45.3173507,8.37692308 45.3173507,7.88846154 C45.3173507,7.15 45.6240672,6.58717949 46.241334,6.1974359 C46.8573228,5.80769231 47.7237966,5.61666667 48.8394776,5.62564103 L48.8394776,5.51282051 C48.8394776,4.71666667 48.4228545,4.31923077 47.5883302,4.31923077 C46.9940672,4.31923077 46.4700933,4.46923077 46.0176866,4.76666667 L45.7454757,3.88461538 C46.3052332,3.53717949 46.9966231,3.36282051 47.8119776,3.36282051 C49.3864552,3.36282051 50.17625,4.19615385 50.17625,5.86282051 L50.17625,8.08846154 C50.17625,8.69230769 50.2056437,9.17307692 50.263153,9.52948718 Z M48.8727052,7.4525641 L48.8727052,6.52051282 C47.3953545,6.49487179 46.6566791,6.90128205 46.6566791,7.73846154 C46.6566791,8.05384615 46.7410261,8.28974359 46.9135541,8.4474359 C47.0860821,8.60512821 47.3058955,8.68333333 47.5678825,8.68333333 C47.861819,8.68333333 48.1365858,8.58974359 48.3870709,8.40384615 C48.638834,8.21666667 48.7934701,7.97948718 48.8509795,7.68846154 C48.8650373,7.62307692 48.8727052,7.54358974 48.8727052,7.4525641 Z" id="Shape" fill-rule="nonzero"></path>
                        <path d="M57.8735541,9.52948718 L56.685028,9.52948718 L56.6224067,8.55897436 L56.5853451,8.55897436 C56.2057836,9.2974359 55.5591231,9.66666667 54.6504757,9.66666667 C53.9245802,9.66666667 53.3200933,9.38076923 52.8408489,8.80897436 C52.3616045,8.23717949 52.1226213,7.49487179 52.1226213,6.58333333 C52.1226213,5.60512821 52.3820522,4.81282051 52.9034701,4.20769231 C53.4082743,3.64358974 54.026819,3.36153846 54.7629384,3.36153846 C55.571903,3.36153846 56.1380504,3.63461538 56.4601026,4.18205128 L56.4856623,4.18205128 L56.4856623,0.712820513 L57.8262687,0.712820513 L57.8262687,7.90128205 C57.8262687,8.48974359 57.8416045,9.03205128 57.8735541,9.52948718 Z M56.4856623,6.98076923 L56.4856623,5.97307692 C56.4856623,5.79871795 56.4728825,5.65769231 56.4486007,5.55 C56.3731996,5.22692308 56.2108955,4.95512821 55.9642444,4.73589744 C55.7150373,4.51666667 55.4147108,4.40641026 55.0683769,4.40641026 C54.5686847,4.40641026 54.1776213,4.60512821 53.8900746,5.00384615 C53.605084,5.4025641 53.4606716,5.91153846 53.4606716,6.53333333 C53.4606716,7.13076923 53.597416,7.61538462 53.8721828,7.98846154 C54.1622854,8.38589744 54.5533489,8.58461538 55.0428172,8.58461538 C55.482444,8.58461538 55.8338899,8.41923077 56.1009888,8.08717949 C56.3591418,7.78076923 56.4856623,7.41153846 56.4856623,6.98076923 Z" id="Shape" fill-rule="nonzero"></path>
                        <path d="M69.3281343,6.45769231 C69.3281343,7.38717949 69.0635914,8.14871795 68.5345056,8.74615385 C67.9798601,9.36025641 67.2462966,9.66666667 66.3274254,9.66666667 C65.4443377,9.66666667 64.7401679,9.37307692 64.2136381,8.78333333 C63.6896642,8.19487179 63.4276772,7.4525641 63.4276772,6.55769231 C63.4276772,5.62179487 63.6973321,4.85384615 64.2391978,4.25769231 C64.7810634,3.66153846 65.5095149,3.36282051 66.4283862,3.36282051 C67.3114739,3.36282051 68.0233116,3.65641026 68.5600653,4.24487179 C69.0712593,4.81666667 69.3281343,5.55512821 69.3281343,6.45769231 Z M67.9402425,6.50128205 C67.9402425,5.94358974 67.8201119,5.46538462 67.5811287,5.06666667 C67.298694,4.58461538 66.8999627,4.34358974 66.3785448,4.34358974 C65.841791,4.34358974 65.4328358,4.58461538 65.1504011,5.06666667 C64.9101399,5.46538462 64.7912873,5.95128205 64.7912873,6.52564103 C64.7912873,7.08333333 64.9114179,7.56153846 65.1504011,7.96025641 C65.4405037,8.44230769 65.844347,8.68333333 66.3657649,8.68333333 C66.876959,8.68333333 67.2795243,8.43846154 67.5683489,7.9474359 C67.815,7.54102564 67.9402425,7.05897436 67.9402425,6.50128205 Z" id="Shape" fill-rule="nonzero"></path>
                        <path d="M76.5295802,9.52948718 L75.1915299,9.52948718 L75.1915299,6.06794872 C75.1915299,5.00128205 74.7876866,4.46794872 73.976166,4.46794872 C73.5787127,4.46794872 73.2579384,4.61410256 73.0100093,4.90769231 C72.7620802,5.20128205 72.6381157,5.5474359 72.6381157,5.94358974 L72.6381157,9.52820513 L71.2975093,9.52820513 L71.2975093,5.21282051 C71.2975093,4.68205128 71.2821735,4.10641026 71.2502239,3.48333333 L72.4259701,3.48333333 L72.4885914,4.42820513 L72.525653,4.42820513 C72.6828451,4.13461538 72.9154384,3.89230769 73.2195989,3.69871795 C73.5838246,3.47307692 73.9889459,3.35897436 74.4349627,3.35897436 C74.9959981,3.35897436 75.4637407,3.54102564 75.8356343,3.90641026 C76.2995429,4.35384615 76.5295802,5.02179487 76.5295802,5.90897436 L76.5295802,9.52948718 Z" id="Path"></path>
                        <path d="M85.543209,4.49230769 L84.0684142,4.49230769 L84.0684142,7.42820513 C84.0684142,8.17435897 84.3304011,8.5474359 84.8492631,8.5474359 C85.0895243,8.5474359 85.2888899,8.52692308 85.4460821,8.48461538 L85.4805877,9.50384615 C85.2160448,9.60384615 84.8684328,9.65384615 84.4403078,9.65384615 C83.911222,9.65384615 83.4997108,9.49230769 83.2019403,9.16923077 C82.9028918,8.84615385 82.7546455,8.3025641 82.7546455,7.53974359 L82.7546455,4.49230769 L81.8741138,4.49230769 L81.8741138,3.48589744 L82.7546455,3.48589744 L82.7546455,2.37820513 L84.0671362,1.98076923 L84.0671362,3.48461538 L85.541931,3.48461538 L85.541931,4.49230769 L85.543209,4.49230769 Z" id="Path"></path>
                        <path d="M92.6334701,9.52948718 L91.2928638,9.52948718 L91.2928638,6.09358974 C91.2928638,5.01025641 90.8890205,4.46794872 90.080056,4.46794872 C89.4589552,4.46794872 89.0346642,4.78205128 88.8020709,5.41025641 C88.7624534,5.54230769 88.7394496,5.70384615 88.7394496,5.89358974 L88.7394496,9.52820513 L87.4013993,9.52820513 L87.4013993,0.712820513 L88.7394496,0.712820513 L88.7394496,4.35512821 L88.7650093,4.35512821 C89.1867444,3.69230769 89.7912313,3.36153846 90.5746362,3.36153846 C91.1292817,3.36153846 91.5880784,3.54358974 91.9523041,3.90897436 C92.4059888,4.36410256 92.6334701,5.04102564 92.6334701,5.93589744 L92.6334701,9.52948718 Z" id="Path"></path>
                        <path d="M99.9473787,6.22179487 C99.9473787,6.46282051 99.9294869,6.66538462 99.8975373,6.83076923 L95.8808302,6.83076923 C95.898722,7.42820513 96.0904198,7.88333333 96.4623134,8.19871795 C96.8022575,8.48076923 97.2406063,8.62179487 97.7773601,8.62179487 C98.3716231,8.62179487 98.9134888,8.52692308 99.4016791,8.33589744 L99.6112687,9.26923077 C99.0400093,9.51794872 98.3677892,9.64230769 97.5894963,9.64230769 C96.6565672,9.64230769 95.9217257,9.36666667 95.390084,8.81538462 C94.8558862,8.26410256 94.5913433,7.52435897 94.5913433,6.59615385 C94.5913433,5.68461538 94.8379944,4.92564103 95.3351306,4.32051282 C95.8539925,3.67435897 96.5556063,3.35128205 97.44125,3.35128205 C98.3077239,3.35128205 98.9658862,3.67435897 99.410625,4.32051282 C99.7697388,4.83333333 99.9473787,5.46794872 99.9473787,6.22179487 Z M98.6693937,5.87435897 C98.6796175,5.47564103 98.5914366,5.13205128 98.4099627,4.84230769 C98.1773694,4.46923077 97.8233675,4.28205128 97.3441231,4.28205128 C96.9070522,4.28205128 96.5504944,4.46410256 96.2782836,4.82948718 C96.0559142,5.12051282 95.9242817,5.46794872 95.8808302,5.87435897 L98.6693937,5.87435897 Z" id="Shape" fill-rule="nonzero"></path>
                    </g>
                </g>
            </g>
        </g>
    </g>
</svg>