<?xml version="1.0" encoding="UTF-8"?>
<svg width="30px" height="29px" viewBox="0 0 30 29" version="1.1" xmlns="http://www.w3.org/2000/svg" xmlns:xlink="http://www.w3.org/1999/xlink">
    <!-- Generator: Sketch 51.3 (57544) - http://www.bohemiancoding.com/sketch -->
    <title>Group Copy 7</title>
    <desc>Created with Sketch.</desc>
    <defs></defs>
    <g id="Improvisation-on-bulletin" stroke="none" stroke-width="1" fill="none" fill-rule="evenodd">
        <g id="bulletin-church-copy-3" transform="translate(-1282.000000, -91.000000)" fill="#FFF" fill-rule="nonzero">
            <g id="Group-Copy-7" transform="translate(1282.000000, 91.000000)">
                <path d="M29.3733033,0.605787845 C28.537681,-0.201955136 27.1829259,-0.201903427 26.3473411,0.605787845 L14.999984,11.5749282 L3.6526536,0.605839554 C2.8170794,-0.201903427 1.46232438,-0.201903427 0.626702043,0.605839554 C-0.208920294,1.41363424 -0.20888285,2.72321101 0.626707392,3.530954 L11.9740271,14.500022 L0.626739487,25.4690589 C-0.208840057,26.2768019 -0.20888285,27.5863787 0.626739487,28.3941734 C1.46235647,29.2019164 2.8171115,29.2018646 3.65269639,28.3941734 L14.999984,17.4250847 L26.3473143,28.3941734 C27.1828885,29.2019164 28.5376435,29.2019681 29.3732659,28.3941734 C30.2088829,27.5864304 30.2088454,26.2768536 29.3732605,25.4691106 L18.0259355,14.500022 L29.3733033,3.53090229 C30.2088775,2.72315931 30.2089203,1.41358253 29.3733033,0.605787845 Z" id="Shape"></path>
            </g>
        </g>
    </g>
</svg>