<?xml version="1.0" encoding="UTF-8"?>
<svg width="84px" height="62px" viewBox="0 0 84 62" version="1.1" xmlns="http://www.w3.org/2000/svg" xmlns:xlink="http://www.w3.org/1999/xlink">
    <!-- Generator: Sketch 52.1 (67048) - http://www.bohemiancoding.com/sketch -->
    <title>ach</title>
    <desc>Created with Sketch.</desc>
    <g id="church" stroke="none" stroke-width="1" fill="none" fill-rule="evenodd">
        <g id="church-payment" transform="translate(-839.000000, -673.000000)" fill="#555555">
            <g id="Group-3" transform="translate(839.000000, 675.000000)">
                <g id="ach">
                    <path d="M0,8.27586207 L82.8571429,8.27586207 L82.8571429,60 L0,60 L0,8.27586207 Z M4.14285714,15.5172414 L4.14285714,54.8275862 L78.7142857,54.8275862 L78.7142857,15.5172414 L4.14285714,15.5172414 Z" id="Combined-Shape" fill-rule="nonzero"></path>
                    <g id="Group-2" transform="translate(10.357143, 20.689655)">
                        <text id="$" font-family="Raleway-SemiBold, Raleway" font-size="20" font-weight="500" letter-spacing="-0.125">
                            <tspan x="3.10714286" y="19.4137931">$</tspan>
                        </text>
                        <rect id="Rectangle-3" x="0" y="24.8275862" width="18.6428571" height="3.10344828"></rect>
                    </g>
                    <path d="M60.8239716,11.8908756 C60.8649845,11.862586 60.9052316,11.842972 60.9406084,11.8336044 C60.9190682,11.8385104 60.9000502,11.8426082 60.857465,11.8517075 C60.8239381,11.8589926 60.8239381,11.8589926 60.7830672,11.8685094 L60.6836341,11.9035415 C60.7297169,11.8925343 60.7769823,11.8883126 60.8239716,11.8908756 Z M60.6836341,11.9035415 L60.5872813,11.9374883 C60.6184425,11.9227147 60.650737,11.9113991 60.6836341,11.9035415 Z M61.5388636,-3.82060295 C61.525966,-3.8163033 61.512833,-3.81254951 61.4994795,-3.80940759 L61.5681622,-3.8199257 C61.5583475,-3.81923139 61.5485443,-3.81946887 61.5388636,-3.82060295 Z M61.5681622,-3.8199257 L61.5933193,-3.82377828 C61.5849714,-3.82179679 61.5765625,-3.82051995 61.5681622,-3.8199257 Z M61.0287663,13.8723277 C60.7325583,13.918227 60.4257863,13.8754656 60.1492973,13.744062 C59.736444,13.5478504 59.4347978,13.1746506 59.3474651,12.7883215 C59.2302145,12.393143 59.1604363,11.9856714 59.1384866,11.5046657 C59.1435822,11.237015 59.1273423,10.9756922 59.082825,10.5104792 C59.0776108,10.4561699 59.0776108,10.4561699 59.0723017,10.4012318 C58.973245,9.37618958 58.9598141,8.8957993 59.0728328,8.24959266 C59.1127955,8.02111421 59.1014397,7.80138306 59.0312088,7.245726 C58.966558,6.7342173 58.9451198,6.49136489 58.9530128,6.16436066 C58.9640901,5.70555205 58.9607432,5.2558021 58.9453676,4.54501819 C58.9424552,4.41220491 58.9424552,4.41220491 58.939451,4.27880863 C58.9013819,2.58852483 58.9098896,1.83113262 59.0174979,0.888894149 C59.1626047,-0.628891885 59.4091848,-2.13556646 59.7599528,-3.63911074 C59.8513425,-4.00091817 59.8906674,-4.17105126 59.9234907,-4.3627377 C59.9243773,-4.36801717 59.9243773,-4.36801717 59.9254611,-4.37497819 C59.9294586,-4.40257 59.9294586,-4.40257 59.9351895,-4.44675661 C60.0305199,-5.18208543 60.3670962,-5.69977665 61.2154101,-5.78760802 C62.0014302,-5.93621627 62.7994847,-5.56146307 63.1432445,-4.90761995 C63.8165738,-3.82568935 64.1202224,-2.91838812 64.6180524,-0.905478216 C64.6407885,-0.813541265 64.6407885,-0.813541265 64.6634526,-0.722059871 C64.7086695,-0.539722373 64.7432179,-0.402073128 64.7774364,-0.268624744 C65.1739418,1.27762934 65.5418474,2.88905682 65.9012155,4.6332268 C66.0007005,5.11607943 66.1088439,5.58354004 66.2885105,6.32371378 C66.322301,6.46278509 66.322301,6.46278509 66.3562674,6.60231956 C66.5994404,7.60131753 66.7063768,8.0585742 66.8243103,8.63156666 C67.1774169,10.3473847 67.4745746,12.1343215 67.7324928,14.052661 C67.748989,14.1753864 67.7616805,14.2712166 67.7903013,14.4884682 C67.8506041,14.9463358 67.8752312,15.1299932 67.9095952,15.3724661 C67.9883308,15.9280255 68.0634062,16.3794825 68.1512715,16.8062976 C68.3537499,17.7887335 68.5026441,18.7811782 68.5973803,19.7800907 C68.7097083,20.9738872 67.9922602,21.4756437 66.8888598,21.671896 C66.4142332,21.7563091 66.0476864,21.7854969 65.2429898,21.8235211 C65.1670512,21.8271094 65.1670512,21.8271094 65.0919604,21.8307213 C64.7040439,21.8495458 64.4614603,21.8661901 64.219186,21.8936374 C64.17983,21.8980974 64.1289635,21.9094999 63.981749,21.9475756 C63.2744343,22.1305163 62.8364915,22.1458239 62.260664,21.8031614 C61.8661679,21.5684008 61.6048025,21.2250535 61.505203,20.8076556 C61.4403848,20.5360178 61.4474755,20.3485973 61.4905241,20.0205763 C61.4914961,20.0131763 61.4914961,20.0131763 61.4924403,20.0060023 C61.5057177,19.9051125 61.5068153,19.8831871 61.5072521,19.8809495 C61.2556094,18.3924821 61.123054,16.8867974 61.1114362,15.4058903 C61.0929044,14.8940168 61.0653147,14.3825797 61.0287663,13.8723277 Z M69.3935574,28.604309 C69.400234,28.7914328 69.427815,28.9773044 69.4758247,29.1585924 L69.4981403,29.2666259 C69.6265869,30.1251473 69.7030848,30.990455 69.7217186,31.7773484 C69.7433036,31.9752548 69.760598,32.128913 69.8022813,32.4956191 C69.9241603,33.5678397 69.9746126,34.05637 70.0188896,34.6673638 C70.0404894,34.9654269 70.0561824,35.2500697 70.0658011,35.5268655 C70.0785746,35.8944353 70.0911554,36.1888139 70.1215468,36.8585069 C70.1378754,37.2183158 70.1451203,37.3807467 70.1536569,37.5825954 C70.1740052,38.0637376 70.1877615,38.4598002 70.1946186,38.8002768 C70.2646346,39.8963589 70.2543933,40.9959945 70.1609198,42.1216862 C70.0186563,43.368277 70.0011105,44.6256188 70.1098141,45.8920718 C70.1315707,46.2059885 70.1017474,46.5211842 70.0216363,46.8253859 C69.8818395,47.5011483 69.2509697,47.9655857 68.558711,47.8980722 L68.45829,47.8830997 C67.8673,47.7640421 67.4376531,47.265285 67.3976034,46.6785428 C67.3312144,46.3845158 67.2680613,46.1096992 67.1431077,45.5688204 C67.1423651,45.5656063 67.1423651,45.5656063 67.1416226,45.5623921 C67.0482758,45.158328 67.0011288,44.9536695 66.9512164,44.7349234 C66.8426583,44.452918 66.7980356,44.1500988 66.8211556,43.8481274 C66.6186656,43.7197822 66.4798987,43.5236159 66.3539716,43.2789107 C66.2760711,43.1275322 66.2144988,42.969992 66.1368092,42.7442577 C66.1640862,42.8235126 66.0432341,42.4678208 66.0217541,42.4101671 C65.7908959,41.7905471 65.6723015,41.2769414 65.4799688,40.2263491 C65.4757102,40.2030835 65.4757102,40.2030835 65.4714634,40.1798753 C65.3305724,39.4099308 65.2603328,39.0761843 65.1450795,38.6852513 C64.7554053,37.3634978 64.5161448,36.2640992 64.0709512,33.9376136 C64.0634586,33.8984574 64.0634586,33.8984574 64.0559701,33.8593187 C63.7056556,32.0284086 63.538287,31.2191003 63.2869834,30.228612 C62.7302181,28.034078 62.3970871,26.5508805 62.1445754,25.0146735 C62.0121295,24.2089051 61.9126968,23.364348 61.8260167,22.3714142 C61.7198569,21.1550704 62.6378969,20.4085772 63.9238368,20.2846403 C64.3150071,20.2469425 64.630817,20.2117623 65.3416597,20.1290006 C65.3423438,20.1289209 65.3423438,20.1289209 65.3430279,20.1288413 C66.0729821,20.0438545 66.3990592,20.0075473 66.7778444,19.9716802 C67.2734969,19.9074932 67.7727825,20.0664299 68.1389428,20.4063104 C68.48137,20.7241612 68.6736763,21.1691353 68.6715003,21.6327007 C68.9047739,23.758639 69.0241124,24.9143305 69.1358379,26.2048833 C69.3001736,26.9945344 69.3864942,27.7981075 69.3935574,28.604309 Z M66.1368092,42.7442577 C66.1368037,42.7442417 66.1367982,42.7442257 66.1367927,42.7442098 C66.1367982,42.7442258 66.1368037,42.7442417 66.1368092,42.7442577 Z" id="Combined-Shape" stroke="#FFFFFF" stroke-width="2" fill-rule="nonzero" transform="translate(64.579722, 21.042466) rotate(47.000000) translate(-64.579722, -21.042466) "></path>
                </g>
            </g>
        </g>
    </g>
</svg>