<?xml version="1.0" encoding="UTF-8"?>
<svg width="260px" height="200px" viewBox="0 0 260 200" version="1.1" xmlns="http://www.w3.org/2000/svg" xmlns:xlink="http://www.w3.org/1999/xlink">
    <!-- Generator: Sketch 52.1 (67048) - http://www.bohemiancoding.com/sketch -->
    <title>undraw_Calculator_0evy</title>
    <desc>Created with Sketch.</desc>
    <defs>
        <linearGradient x1="50.0022696%" y1="100.00331%" x2="50.0022696%" y2="-0.000368254062%" id="linearGradient-1">
            <stop stop-color="#808080" stop-opacity="0.25" offset="0%"></stop>
            <stop stop-color="#808080" stop-opacity="0.12" offset="54%"></stop>
            <stop stop-color="#808080" stop-opacity="0.1" offset="100%"></stop>
        </linearGradient>
    </defs>
    <g id="church" stroke="none" stroke-width="1" fill="none" fill-rule="evenodd">
        <g id="church-pricing" transform="translate(-1066.000000, -115.000000)" fill-rule="nonzero">
            <g id="undraw_Calculator_0evy" transform="translate(1066.000000, 115.000000)">
                <path d="M148.351751,31.8420382 C131.982879,31.2687898 116.392996,25.9464968 101.503696,20.122293 C86.6143969,14.2980892 71.8717899,7.84713376 55.8949416,4.75923567 C45.6188716,2.77452229 33.8682879,2.49426752 25.5877432,8.0433121 C17.6208171,13.3936306 15.0461089,22.6038217 13.6601167,31.1592357 C12.6206226,37.5949045 12.0085603,44.3694268 14.8614786,50.3949045 C16.8418288,54.5783439 20.3599222,58.0942675 22.7929961,62.0993631 C31.255642,76.0407643 25.2741245,93.2433121 16.1058366,106.84586 C11.8062257,113.233121 6.81361868,119.329936 3.49280156,126.122293 C0.171984436,132.91465 -1.36322957,140.70828 1.54027237,147.643312 C4.42101167,154.522293 11.2826848,159.678981 18.7159533,163.309554 C33.8101167,170.698089 51.5953307,172.794904 68.9480545,173.989809 C107.346109,176.636943 145.951556,175.490446 184.450778,174.343949 C198.700195,173.918471 213.010311,173.487898 227.029572,171.26879 C234.811868,170.038217 242.849611,168.081529 248.499805,163.370701 C255.672568,157.375796 257.450584,147.225478 252.645136,139.707006 C244.582101,127.098089 222.294942,123.966879 216.652335,110.435669 C213.549027,102.985987 216.735798,94.6904459 221.242802,87.7808917 C230.914397,72.9630573 247.12393,59.9617834 247.978794,43.0242038 C248.565564,31.3910828 240.773152,19.7401274 228.724125,14.2343949 C216.093385,8.46624204 198.581323,9.19235669 189.268872,18.7414013 C179.663035,28.5630573 162.798444,32.3515924 148.351751,31.8420382 Z" id="Shape" fill="#087E8B" opacity="0.1"></path>
                <ellipse id="Oval" fill="#087E8B" opacity="0.1" cx="146.639494" cy="185.370701" rx="93.8276265" ry="7.02675159"></ellipse>
                <path d="M74.0898833,162.611465 C74.0898833,162.611465 79.4011673,161.755414 82.5879377,165.538854 C82.5879377,165.538854 80.2509728,167.393631 75.2229572,164.825478 L74.0898833,162.611465 Z" id="Shape" fill="#087E8B"></path>
                <path d="M73.5182879,162.542675 C73.5182879,162.542675 70.1317121,166.751592 71.7933852,171.421656 C71.7933852,171.421656 74.5552529,170.305732 74.8562257,164.634395 L73.5182879,162.542675 Z" id="Shape" fill="#087E8B"></path>
                <path d="M70.4832685,155.620382 C70.4832685,155.620382 72.6077821,151.696815 81.1058366,157.189809 C81.1058366,157.189809 79.9727626,159.829299 76.2194553,159.615287 C72.4661479,159.401274 71.4696498,157.701911 70.4832685,155.620382 Z" id="Shape" fill="#087E8B"></path>
                <path d="M69.9293774,155.33758 C69.9293774,155.33758 65.5210117,154.828025 65.0935798,164.996178 C65.0935798,164.996178 67.8883268,165.579618 69.8737354,162.364331 C71.859144,159.149045 71.0396887,157.345223 69.9293774,155.33758 Z" id="Shape" fill="#087E8B"></path>
                <path d="M67.3622568,147.230573 C67.3622568,147.230573 69.840856,140.310828 78.8346304,145.233121 C78.8346304,145.233121 76.7809339,151.582166 68.2828794,149.584713 L67.3622568,147.230573 Z" id="Shape" fill="#087E8B"></path>
                <path d="M64.5978599,136.886624 C64.5978599,136.886624 69.2743191,129.892994 77.5599222,136.37707 C77.5599222,136.37707 74.6564202,142.940127 65.3060311,139.373248 L64.5978599,136.886624 Z" id="Shape" fill="#087E8B"></path>
                <path d="M63.6064202,127.03949 C63.6064202,127.03949 69.0618677,120.619108 77.2766537,127.03949 C77.2766537,127.03949 72.1070039,132.675159 63.6064202,128.680255 L63.6064202,127.03949 Z" id="Shape" fill="#087E8B"></path>
                <path d="M62.7566148,117.480255 C62.7566148,117.480255 68.2828794,110.774522 76.1435798,117.123567 C76.1435798,117.123567 69.9116732,123.044586 62.7566148,119.049682 L62.7566148,117.480255 Z" id="Shape" fill="#087E8B"></path>
                <path d="M63.2523346,108.991083 C63.2523346,108.991083 69.0694553,100.356688 76.4268482,106.208917 C76.4268482,106.208917 70.1949416,113.628025 63.2523346,110.631847 L63.2523346,108.991083 Z" id="Shape" fill="#087E8B"></path>
                <path d="M64.5978599,99.0726115 C64.5978599,99.0726115 70.7614786,90.5121019 77.9140078,97.0751592 C77.9140078,97.0751592 70.6198444,104.496815 64.5978599,100.642038 L64.5978599,99.0726115 Z" id="Shape" fill="#087E8B"></path>
                <path d="M66.6540856,90.2089172 C66.6540856,90.2089172 73.948249,82.1656051 80.3116732,85.3681529 C80.3116732,85.3681529 72.7089494,93.910828 66.3354086,92.3414013 L66.6540856,90.2089172 Z" id="Shape" fill="#087E8B"></path>
                <path d="M69.2035019,81.8089172 C69.2035019,81.8089172 77.6307393,71.9643312 82.5171206,75.2458599 C82.5171206,75.2458599 76.3155642,82.889172 68.6066148,83.6535032 L69.2035019,81.8089172 Z" id="Shape" fill="#087E8B"></path>
                <path d="M72.883463,72.0636943 C72.883463,72.0636943 80.2509728,64.0178344 85.6330739,66.0152866 C85.6330739,66.0152866 79.3303502,74.3617834 71.8945525,74.5757962 L72.883463,72.0636943 Z" id="Shape" fill="#087E8B"></path>
                <path d="M76.2143969,62.9477707 C76.2143969,62.9477707 84.3583658,55.2407643 87.8992218,56.5961783 C87.8992218,56.5961783 82.0214008,65.1592357 75.8603113,64.6598726 L76.2143969,62.9477707 Z" id="Shape" fill="#087E8B"></path>
                <path d="M79.4719844,54.5171975 C79.4719844,54.5171975 86.4828794,45.3146497 90.3070039,46.0280255 C90.3070039,46.0280255 86.0579767,54.2318471 79.4719844,55.4547771 L79.4719844,54.5171975 Z" id="Shape" fill="#087E8B"></path>
                <path d="M83.0077821,43.1796178 C83.0077821,43.1796178 89.2042802,36.122293 92.5503891,36.14006 C92.5503891,36.14006 87.6589494,45.566879 82.7523346,45.4802548 L83.0077821,43.1796178 Z" id="Shape" fill="#087E8B"></path>
                <path d="M85.1019455,35.6229299 L91.0859922,20.9248408 C91.0859922,20.9248408 91.386965,34.211465 84.3406615,38.3490446 L85.1019455,35.6229299 Z" id="Shape" fill="#087E8B"></path>
                <path d="M87.5324903,19.4140127 C87.5324903,19.4140127 88.52393,7.14394904 87.8865759,6.14522293 C87.8865759,6.14522293 92.1659533,16.3363057 87.4894942,24.8356688 L87.5324903,19.4140127 Z" id="Shape" fill="#087E8B"></path>
                <path d="M67.129572,147.064968 C67.129572,147.064968 60.9229572,143.189809 56.9040856,152.670064 C56.9040856,152.670064 62.427821,156.361783 67.8579767,149.482803 L67.129572,147.064968 Z" id="Shape" fill="#087E8B"></path>
                <path d="M64.4132296,136.49172 C64.4132296,136.49172 56.8003891,132.993631 53.1052529,142.89172 C53.1052529,142.89172 58.9881323,146.968153 65.1062257,138.993631 L64.4132296,136.49172 Z" id="Shape" fill="#087E8B"></path>
                <path d="M63.2523346,127.638217 C63.2523346,127.638217 57.7994163,121.217834 49.5947471,127.638217 C49.5947471,127.638217 54.7643969,133.273885 63.2523346,129.278981 L63.2523346,127.638217 Z" id="Shape" fill="#087E8B"></path>
                <path d="M62.5719844,117.480255 C62.5719844,117.480255 57.048249,110.774522 49.1850195,117.123567 C49.1850195,117.123567 55.4194553,123.044586 62.5719844,119.049682 L62.5719844,117.480255 Z" id="Shape" fill="#087E8B"></path>
                <path d="M63.2523346,109.235669 C63.2523346,109.235669 59.3776265,99.5541401 50.9554475,103.724841 C50.9554475,103.724841 55.5079767,112.298089 62.9108949,110.838217 L63.2523346,109.235669 Z" id="Shape" fill="#087E8B"></path>
                <path d="M65.0859922,99.0242038 C65.0859922,99.0242038 61.2365759,89.1872611 52.6929961,93.7503185 C52.6929961,93.7503185 57.9233463,102.766879 64.7066148,100.545223 L65.0859922,99.0242038 Z" id="Shape" fill="#087E8B"></path>
                <path d="M67.4735409,90.2598726 C67.4735409,90.2598726 65.9560311,79.4751592 58.8743191,78.5095541 C58.8743191,78.5095541 60.3741245,89.8828025 66.5175097,92.2038217 L67.4735409,90.2598726 Z" id="Shape" fill="#087E8B"></path>
                <path d="M69.3830739,81.8267516 C69.3830739,81.8267516 68.7912451,68.833121 62.9361868,68.3821656 C62.9361868,68.3821656 63.133463,78.244586 68.7229572,83.6687898 L69.3830739,81.8267516 Z" id="Shape" fill="#087E8B"></path>
                <path d="M73.4904669,71.6917197 C73.4904669,71.6917197 71.7428016,60.8866242 66.1558366,59.5643312 C66.1558366,59.5643312 66.8488327,70.0305732 72.9391051,74.3414013 L73.4904669,71.6917197 Z" id="Shape" fill="#087E8B"></path>
                <path d="M76.8770428,63.0242038 C76.8770428,63.0242038 76.8163424,51.7707006 73.4044747,50.1146497 C73.4044747,50.1146497 71.2850195,60.3057325 75.8881323,64.4611465 L76.8770428,63.0242038 Z" id="Shape" fill="#087E8B"></path>
                <path d="M79.7324903,54.4025478 C79.7324903,54.4025478 79.2544747,42.8127389 75.718677,41.1796178 C75.718677,41.1796178 74.5071984,50.3515924 79.2013619,55.1617834 L79.7324903,54.4025478 Z" id="Shape" fill="#087E8B"></path>
                <path d="M83.5009728,44.1019108 C83.5009728,44.1019108 83.4782101,34.6751592 80.9566148,32.466242 C80.9566148,32.466242 78.4451362,42.7923567 82.1832685,46 L83.5009728,44.1019108 Z" id="Shape" fill="#087E8B"></path>
                <path d="M84.8035019,35.1541401 L82.3501946,19.4624204 C82.3501946,19.4624204 79.0142023,32.3184713 84.9223735,37.9821656 L84.8035019,35.1541401 Z" id="Shape" fill="#087E8B"></path>
                <path d="M85.2840467,19.5643312 C85.2840467,19.5643312 78.981323,9.01656051 79.1103113,7.84458599 C79.1103113,7.84458599 79.7805447,18.8993631 87.7095331,24.4050955 L85.2840467,19.5643312 Z" id="Shape" fill="#087E8B"></path>
                <path d="M86.0225681,16.4484076 C86.0225681,16.4484076 80.07393,1.46751592 77.3828794,0.249681529 C77.3828794,0.249681529 85.8809339,4.60127389 86.5182879,16.0152866 L86.0225681,16.4484076 Z" id="Shape" fill="#087E8B"></path>
                <path d="M82.7194553,45.5694268 L82.314786,45.4420382 C87.335214,28.9528662 88.5871595,18.4356688 85.8404669,15.8012739 L86.1338521,15.4904459 C89.0449416,18.2726115 87.8638132,28.6726115 82.7194553,45.5694268 Z" id="Shape" fill="#087E8B"></path>
                <path d="M68.8974708,84.1707006 L68.2955253,83.9566879 C68.8266537,82.4458599 69.4033074,80.9121019 70.0052529,79.4012739 C75.2457198,66.2369427 79.7046693,54.0076433 82.5651751,44.6089172 L83.088716,44.3541401 C80.2231518,53.7528662 75.842607,66.466242 70.5970817,79.6407643 C69.9976654,81.143949 69.42607,82.6675159 68.8974708,84.1707006 Z" id="Shape" fill="#087E8B"></path>
                <path d="M81.5636187,174.955414 C81.4826848,174.863694 73.3437743,165.635669 67.6733463,149.875159 C64.3479961,140.650477 62.4955583,130.953026 62.1850195,121.143949 C61.7980545,108.881529 64.35,95.1872611 68.7280156,82.7515924 L69.2035019,83.3121019 C59.3801556,111.225478 63.2826848,135.146497 68.4599222,149.549045 C74.072179,165.164331 82.1175097,174.292994 82.1959144,174.384713 L81.5636187,174.955414 Z" id="Shape" fill="#087E8B"></path>
                <path d="M46.1019455,172.942675 C46.1019455,172.942675 36.4784047,172.359236 37.6140078,179.151592 C37.6140078,179.151592 37.3889105,180.351592 38.4688716,180.896815 C38.4688716,180.896815 38.4840467,180.387261 39.4552529,180.563057 C39.8002173,180.621541 40.1508455,180.638645 40.4998054,180.614013 C40.9722003,180.582037 41.4214227,180.396019 41.779572,180.084076 C41.779572,180.084076 44.4832685,178.957962 45.5354086,174.504459 C45.5354086,174.504459 46.3143969,173.533758 46.2815175,173.284076 L44.6577821,173.982166 C44.6577821,173.982166 45.2142023,175.161783 44.7766537,176.142675 C44.7766537,176.142675 44.7235409,174.025478 44.4124514,174.073885 C44.3492218,174.073885 43.5677043,174.484076 43.5677043,174.484076 C43.5677043,174.484076 44.5237354,176.540127 43.8029183,178.033121 C43.8029183,178.033121 44.07607,175.500637 43.2717899,174.631847 L42.1285992,175.304459 C42.1285992,175.304459 43.2439689,177.426752 42.4877432,179.159236 C42.4877432,179.159236 42.6799611,176.501911 41.8883268,175.467516 L40.8513619,176.282803 C40.8513619,176.282803 41.8984436,178.374522 41.2610895,179.811465 C41.2610895,179.811465 41.1776265,176.718471 40.6262646,176.484076 C40.6262646,176.484076 39.7208171,177.289172 39.5817121,177.620382 C39.5817121,177.620382 40.3,179.149045 39.8548638,179.941401 C39.8548638,179.941401 39.5817121,177.880255 39.3490272,177.870064 C39.3490272,177.870064 38.4461089,179.235669 38.3525292,180.163057 C38.3962584,179.298474 38.6639555,178.460494 39.1289883,177.732484 C38.6086025,177.831663 38.1284947,178.082339 37.7480545,178.453503 C37.7480545,178.453503 37.8871595,177.487898 39.3515564,177.403822 C39.3515564,177.403822 40.1103113,176.366879 40.2974708,176.303185 C40.2974708,176.303185 38.8406615,176.180892 37.9579767,176.575796 C37.9579767,176.575796 38.7344358,175.666242 40.5655642,176.066242 L41.5772374,175.225478 C41.5772374,175.225478 39.6601167,174.970701 38.8457198,175.253503 C38.8457198,175.253503 39.7815175,174.448408 41.8529183,175.034395 L42.9657588,174.364331 C42.9657588,174.364331 41.3319066,174.010191 40.355642,174.13758 C40.355642,174.13758 41.3850195,173.579618 43.2920233,174.183439 L44.088716,173.824204 C44.088716,173.824204 42.8898833,173.587261 42.540856,173.549045 C42.1918288,173.510828 42.1690661,173.414013 42.1690661,173.414013 C42.9283202,173.28678 43.7077457,173.375 44.4200389,173.66879 C44.4200389,173.66879 46.1297665,173.049682 46.1019455,172.942675 Z" id="Shape" fill="#087E8B"></path>
                <path d="M18.1291829,176.094268 C18.1291829,176.094268 8.51828794,175.510828 9.64377432,182.303185 C9.64377432,182.303185 9.41614786,183.503185 10.4961089,184.048408 C10.4961089,184.048408 10.5138132,183.538854 11.4850195,183.71465 C11.8298485,183.774385 12.1806266,183.791497 12.529572,183.765605 C13.0013391,183.734187 13.4499274,183.548064 13.8068093,183.235669 C13.8068093,183.235669 16.513035,182.109554 17.5651751,177.656051 C17.5651751,177.656051 18.3416342,176.68535 18.32393,176.435669 L16.7001946,177.133758 C16.7001946,177.133758 17.2566148,178.313376 16.8190661,179.294268 C16.8190661,179.294268 16.7659533,177.17707 16.4548638,177.225478 C16.3916342,177.225478 15.6101167,177.635669 15.6101167,177.635669 C15.6101167,177.635669 16.5661479,179.69172 15.8453307,181.184713 C15.8453307,181.184713 16.1184825,178.652229 15.3116732,177.783439 L14.1684825,178.456051 C14.1684825,178.456051 15.2838521,180.578344 14.5276265,182.310828 C14.5276265,182.310828 14.7223735,179.653503 13.9282101,178.619108 L12.8937743,179.434395 C12.8937743,179.434395 13.940856,181.526115 13.3035019,182.963057 C13.3035019,182.963057 13.2200389,179.870064 12.668677,179.635669 C12.668677,179.635669 11.7632296,180.440764 11.6241245,180.771975 C11.6241245,180.771975 12.3424125,182.300637 11.8972763,183.092994 C11.8972763,183.092994 11.6241245,181.031847 11.3914397,181.021656 C11.3914397,181.021656 10.4910506,182.387261 10.3949416,183.31465 C10.4401284,182.449961 10.7086465,181.61214 11.17393,180.884076 C10.6528873,180.983497 10.1720328,181.234104 9.79046693,181.605096 C9.79046693,181.605096 9.93210117,180.63949 11.3964981,180.555414 C11.3964981,180.555414 12.1552529,179.518471 12.3424125,179.457325 C12.3424125,179.457325 10.8856031,179.332484 10.0029183,179.727389 C10.0029183,179.727389 10.7793774,178.817834 12.6105058,179.217834 L13.622179,178.37707 C13.622179,178.37707 11.7050584,178.122293 10.8906615,178.405096 C10.8906615,178.405096 11.8264591,177.6 13.8978599,178.185987 L15.0107004,177.515924 C15.0107004,177.515924 13.3743191,177.161783 12.4005837,177.289172 C12.4005837,177.289172 13.4299611,176.73121 15.336965,177.335032 L16.1336576,176.975796 C16.1336576,176.975796 14.9348249,176.738854 14.5832685,176.700637 C14.2317121,176.66242 14.2140078,176.565605 14.2140078,176.565605 C14.9733034,176.439987 15.7522911,176.528157 16.4649805,176.820382 C16.4649805,176.820382 18.1494163,176.201274 18.1291829,176.094268 Z" id="Shape" fill="#087E8B"></path>
                <path d="M33.7190661,183.492994 C33.7190661,183.492994 24.1081712,182.909554 25.2311284,189.701911 C25.2311284,189.701911 25.0060311,190.901911 26.0859922,191.447134 C26.0859922,191.447134 26.1036965,190.93758 27.0723735,191.113376 C27.4181825,191.171918 27.7696547,191.189022 28.1194553,191.164331 C28.5909678,191.131813 29.039222,190.945829 29.3966926,190.634395 C29.3966926,190.634395 32.1003891,189.50828 33.1525292,185.054777 C33.1525292,185.054777 33.9315175,184.084076 33.911284,183.834395 L32.2875486,184.532484 C32.2875486,184.532484 32.8414397,185.712102 32.4064202,186.692994 C32.4064202,186.692994 32.3533074,184.575796 32.0396887,184.624204 C31.9764591,184.624204 31.1974708,185.034395 31.1974708,185.034395 C31.1974708,185.034395 32.1509728,187.087898 31.4301556,188.583439 C31.4301556,188.583439 31.7033074,186.050955 30.8990272,185.182166 L29.7558366,185.854777 C29.7558366,185.854777 30.8712062,187.97707 30.1149805,189.709554 C30.1149805,189.709554 30.3097276,187.052229 29.5155642,186.017834 L28.4785992,186.833121 C28.4785992,186.833121 29.5282101,188.924841 28.8883268,190.361783 C28.8883268,190.361783 28.8048638,187.26879 28.2560311,187.034395 C28.2560311,187.034395 27.3480545,187.83949 27.2114786,188.170701 C27.2114786,188.170701 27.9297665,189.699363 27.4821012,190.49172 C27.4821012,190.49172 27.2089494,188.430573 26.9762646,188.420382 C26.9762646,188.420382 26.0733463,189.785987 25.9797665,190.713376 C26.0234958,189.848793 26.2911928,189.010813 26.7562257,188.282803 C26.2358398,188.381981 25.755732,188.632657 25.3752918,189.003822 C25.3752918,189.003822 25.5143969,188.038217 26.981323,187.95414 C26.981323,187.95414 27.7249027,186.917197 27.9247082,186.853503 C27.9247082,186.853503 26.4678988,186.73121 25.585214,187.126115 C25.585214,187.126115 26.3642023,186.216561 28.1928016,186.629299 L29.2044747,185.788535 C29.2044747,185.788535 27.2873541,185.533758 26.4729572,185.816561 C26.4729572,185.816561 27.411284,185.011465 29.4801556,185.597452 L30.5955253,184.927389 C30.5955253,184.927389 28.9692607,184.580892 27.9929961,184.70828 C27.9929961,184.70828 29.0198444,184.150318 30.9293774,184.75414 L31.7235409,184.394904 C31.7235409,184.394904 30.5272374,184.157962 30.1756809,184.119745 C29.8241245,184.081529 29.8064202,183.984713 29.8064202,183.984713 C30.5656742,183.857481 31.3450998,183.9457 32.057393,184.23949 C32.057393,184.23949 33.7468872,183.6 33.7190661,183.492994 Z" id="Shape" fill="#087E8B"></path>
                <ellipse id="Oval" fill="#087E8B" opacity="0.1" cx="26.2175097" cy="192.16051" rx="6.81108949" ry="1.15923567"></ellipse>
                <ellipse id="Oval" fill="#087E8B" opacity="0.1" cx="242.255253" cy="192.16051" rx="6.81108949" ry="1.15923567"></ellipse>
                <ellipse id="Oval" fill="#087E8B" opacity="0.1" cx="177.030156" cy="198.833121" rx="6.81108949" ry="1.15923567"></ellipse>
                <ellipse id="Oval" fill="#087E8B" opacity="0.1" cx="253.027043" cy="182.112102" rx="6.81108949" ry="1.15923567"></ellipse>
                <ellipse id="Oval" fill="#087E8B" opacity="0.1" cx="39.4729572" cy="181.388535" rx="6.81108949" ry="1.15923567"></ellipse>
                <ellipse id="Oval" fill="#087E8B" opacity="0.1" cx="11.492607" cy="184.642038" rx="6.81108949" ry="1.15923567"></ellipse>
                <rect id="Rectangle-path" fill="#040F15" x="76.5684825" y="20.5707006" width="109.096304" height="163.408917" rx="9.8"></rect>
                <path d="M102.616117,34.6165605 L160.967735,34.6165605 C169.838765,34.6165605 177.030156,41.8079511 177.030156,50.6789809 L177.030156,50.6789809 C177.030156,59.5500107 169.838765,66.7414013 160.967735,66.7414013 L102.616117,66.7414013 C93.7450871,66.7414013 86.5536965,59.5500107 86.5536965,50.6789809 L86.5536965,50.6789809 C86.5536965,41.8079511 93.7450871,34.6165605 102.616117,34.6165605 Z" id="Rectangle-path" fill="#000000" opacity="0.1"></path>
                <path d="M97.3354086,35.2433121 L166.041051,35.2433121 C171.674355,35.2433121 176.241051,39.8100077 176.241051,45.4433121 L176.241051,56.1133758 C176.241051,61.7466802 171.674355,66.3133758 166.041051,66.3133758 L97.3354086,66.3133758 C91.7021041,66.3133758 87.1354086,61.7466802 87.1354086,56.1133758 L87.1354086,45.4433121 C87.1354086,39.8100077 91.7021041,35.2433121 97.3354086,35.2433121 Z" id="Rectangle-path" fill="#FBFBFF"></path>
                <path d="M98.7013619,80.122293 L98.7013619,80.122293 C103.669883,80.122293 107.697665,84.1500753 107.697665,89.1185965 L107.697665,91.2635691 C107.697665,96.2320903 103.669883,100.259873 98.7013619,100.259873 L98.7013619,100.259873 C93.7328406,100.259873 89.7050584,96.2320903 89.7050584,91.2635691 L89.7050584,89.1185965 C89.7050584,84.1500753 93.7328406,80.122293 98.7013619,80.122293 Z" id="Rectangle-path" fill="#FFFFFF" opacity="0.1"></path>
                <rect id="Rectangle-path" fill="#FFFFFF" opacity="0.1" x="111.696304" y="80.122293" width="17.992607" height="20.1375796" rx="8.9963035"></rect>
                <rect id="Rectangle-path" fill="#FFFFFF" opacity="0.1" x="133.687549" y="80.122293" width="17.992607" height="20.1375796" rx="8.9963035"></rect>
                <rect id="Rectangle-path" fill="#000000" opacity="0.1" x="155.678794" y="80.5503185" width="17.992607" height="20.1375796" rx="8.9963035"></rect>
                <rect id="Rectangle-path" fill="#0C4F6C" x="155.678794" y="80.122293" width="17.992607" height="20.1375796" rx="8.9963035"></rect>
                <path d="M98.7013619,102.275159 L98.7013619,102.275159 C103.669883,102.275159 107.697665,106.302942 107.697665,111.271463 L107.697665,113.416435 C107.697665,118.384957 103.669883,122.412739 98.7013619,122.412739 L98.7013619,122.412739 C93.7328406,122.412739 89.7050584,118.384957 89.7050584,113.416435 L89.7050584,111.271463 C89.7050584,106.302942 93.7328406,102.275159 98.7013619,102.275159 Z" id="Rectangle-path" fill="#FFFFFF" opacity="0.1"></path>
                <rect id="Rectangle-path" fill="#FFFFFF" opacity="0.1" x="111.696304" y="102.275159" width="17.992607" height="20.1375796" rx="8.9963035"></rect>
                <rect id="Rectangle-path" fill="#FFFFFF" opacity="0.1" x="133.687549" y="102.275159" width="17.992607" height="20.1375796" rx="8.9963035"></rect>
                <path d="M98.7013619,126.728662 L98.7013619,126.728662 C103.669883,126.728662 107.697665,130.756445 107.697665,135.724966 L107.697665,137.869939 C107.697665,142.83846 103.669883,146.866242 98.7013619,146.866242 L98.7013619,146.866242 C93.7328406,146.866242 89.7050584,142.83846 89.7050584,137.869939 L89.7050584,135.724966 C89.7050584,130.756445 93.7328406,126.728662 98.7013619,126.728662 Z" id="Rectangle-path" fill="#FFFFFF" opacity="0.1"></path>
                <path d="M120.692607,126.728662 L120.692607,126.728662 C125.661128,126.728662 129.688911,130.756445 129.688911,135.724966 L129.688911,137.869939 C129.688911,142.83846 125.661128,146.866242 120.692607,146.866242 L120.692607,146.866242 C115.724086,146.866242 111.696304,142.83846 111.696304,137.869939 L111.696304,135.724966 C111.696304,130.756445 115.724086,126.728662 120.692607,126.728662 Z" id="Rectangle-path" fill="#FFFFFF" opacity="0.1"></path>
                <path d="M142.683852,126.728662 L142.683852,126.728662 C147.652373,126.728662 151.680156,130.756445 151.680156,135.724966 L151.680156,137.869939 C151.680156,142.83846 147.652373,146.866242 142.683852,146.866242 L142.683852,146.866242 C137.715331,146.866242 133.687549,142.83846 133.687549,137.869939 L133.687549,135.724966 C133.687549,130.756445 137.715331,126.728662 142.683852,126.728662 Z" id="Rectangle-path" fill="#FFFFFF" opacity="0.1"></path>
                <path d="M142.683852,151.182166 L142.683852,151.182166 C147.652373,151.182166 151.680156,155.209948 151.680156,160.178469 L151.680156,162.323442 C151.680156,167.291963 147.652373,171.319745 142.683852,171.319745 L142.683852,171.319745 C137.715331,171.319745 133.687549,167.291963 133.687549,162.323442 L133.687549,160.178469 C133.687549,155.209948 137.715331,151.182166 142.683852,151.182166 Z" id="Rectangle-path" fill="#FFFFFF" opacity="0.1"></path>
                <rect id="Rectangle-path" fill="#000000" opacity="0.1" x="155.678794" y="102.703185" width="17.992607" height="20.1375796" rx="8.9963035"></rect>
                <rect id="Rectangle-path" fill="#0C4F6C" x="155.678794" y="102.275159" width="17.992607" height="20.1375796" rx="8.9963035"></rect>
                <rect id="Rectangle-path" fill="#0C4F6C" opacity="0.2" x="155.678794" y="102.275159" width="17.992607" height="20.1375796" rx="8.9963035"></rect>
                <path d="M99.7450584,151.182166 L119.648911,151.182166 C125.193849,151.182166 129.688911,155.677227 129.688911,161.222166 L129.688911,161.279745 C129.688911,166.824684 125.193849,171.319745 119.648911,171.319745 L99.7450584,171.319745 C94.2001195,171.319745 89.7050584,166.824684 89.7050584,161.279745 L89.7050584,161.222166 C89.7050584,155.677227 94.2001195,151.182166 99.7450584,151.182166 Z" id="Rectangle-path" fill="#FFFFFF" opacity="0.1"></path>
                <rect id="Rectangle-path" fill="#FFFFFF" opacity="0.1" x="153.964008" y="126.728662" width="19.7048638" height="44.5936306" rx="9.85243191"></rect>
                <polygon id="Rectangle-path" fill="#0C4F6C" points="164.364008 60.8866242 172.239883 60.8866242 172.239883 61.7452229 164.364008 61.7452229"></polygon>
                <polygon id="Rectangle-path" fill="#0C4F6C" points="152.833463 60.8866242 160.709339 60.8866242 160.709339 61.7452229 152.833463 61.7452229"></polygon>
                <polygon id="Rectangle-path" fill="#0C4F6C" points="141.300389 60.8866242 149.176265 60.8866242 149.176265 61.7452229 141.300389 61.7452229"></polygon>
                <polygon id="Rectangle-path" fill="#0C4F6C" points="129.769844 60.8866242 137.64572 60.8866242 137.64572 61.7452229 129.769844 61.7452229"></polygon>
                <path d="M222.535214,121.156688 C223.347082,118.405096 222.535214,115.653503 222.535214,115.653503 L222.535214,113.057325 C222.535214,113.057325 223.463424,107.982166 219.320623,104.726115 L216.57393,102.28535 C216.57393,102.28535 215.033658,100.952866 214.585992,100.86879 C214.50257,100.850691 214.418096,100.837927 214.333074,100.830573 L214.25214,100.782166 C214.016086,100.375452 213.814715,99.9492946 213.650195,99.5082803 C214.010587,99.5552393 214.372199,99.4309924 214.628988,99.1719745 C214.728236,99.0569526 214.80619,98.9249242 214.859144,98.7821656 C215.018482,98.4229299 215.046304,97.9872611 215.18035,97.6050955 C215.297934,97.2952051 215.469204,97.0088069 215.686187,96.7592357 C215.658366,96.8050955 215.628016,96.8484076 215.602724,96.8968153 C215.992218,96.4076433 216.500584,95.9898089 216.867315,95.4751592 C216.940092,95.3730636 217.006811,95.2667208 217.067121,95.1566879 C217.051946,95.1796178 217.031712,95.2 217.014008,95.2229299 C217.519844,94.4050955 217.674125,93.4140127 217.820817,92.4585987 C217.891507,92.1334317 217.896667,91.7972771 217.835992,91.4700637 C217.76491,91.2528812 217.673446,91.0430157 217.56284,90.8433121 C216.965953,89.6025478 216.97607,88.0407643 216.022568,87.0496815 C215.30428,86.3082803 214.216732,86.0815287 213.192412,85.9541401 C212.168093,85.8267516 211.090661,85.7528662 210.210506,85.2127389 C209.964715,85.0250893 209.692872,84.8748629 209.403696,84.766879 C209.103606,84.6613974 208.771432,84.7854082 208.612062,85.0624204 C208.59385,85.1419452 208.557478,85.2160957 208.505837,85.2789809 C208.412909,85.3320842 208.300761,85.3386743 208.202335,85.2968153 L206.839105,84.9299363 L206.85428,84.9987261 L206.818872,84.9987261 L206.869455,85.2152866 C206.924486,85.2055149 206.978641,85.2365351 206.998444,85.289172 L206.778405,85.6305732 C206.356576,85.6228191 205.939821,85.5364368 205.549222,85.3757962 C205.546692,85.3978033 205.546692,85.4200311 205.549222,85.4420382 L205.528988,85.4420382 C205.503696,85.8292994 205.941245,86.0815287 206.075292,86.4458599 C206.129059,86.605292 206.129059,86.7781475 206.075292,86.9375796 C206.020522,87.0854425 205.934182,87.2193833 205.822374,87.3299363 C205.3393,87.811465 204.71965,87.7171975 204.16323,88.0203822 C204.065917,88.0622489 203.991886,88.1452143 203.960895,88.2471338 C203.93888,88.2847667 203.932517,88.3296374 203.943191,88.3719745 C203.965185,88.4304668 204.005034,88.4804216 204.057004,88.5146497 C204.218992,88.6465588 204.396536,88.7578046 204.585603,88.8458599 C204.529961,88.8968153 204.476848,88.9477707 204.426265,89.0012739 C202.991879,90.4697277 202.384139,92.5649417 202.807991,94.5803497 C203.231843,96.5957578 204.630793,98.2627273 206.533074,99.0191083 C206.553307,99.1261146 206.568482,99.2356688 206.583658,99.3503185 C206.583658,99.3630573 206.583658,99.3707006 206.583658,99.3834395 L206.598833,99.5312102 L204.762646,100.318471 C204.197299,100.314091 203.685142,99.9817184 203.447471,99.4649682 C203.020039,98.5757962 201.510117,99.4649682 201.510117,99.4649682 C201.510117,99.4649682 196.904475,99.1184713 195.18716,99.9745223 C195.18716,99.9745223 192.437938,98.8127389 192.050973,98.733758 C191.664008,98.6547771 191.084825,98.3464968 190.814202,98.4254777 C190.54358,98.5044586 190.194553,97.9159236 189.999805,97.9592357 C189.805058,98.0025478 189.729183,97.5719745 189.109533,97.4165605 C188.489883,97.2611465 188.257198,97.4573248 187.561673,96.7592357 C186.866148,96.0611465 181.210895,93.3095541 181.210895,93.3095541 L178.671595,91.2050955 L175.96284,89.0343949 L175.914786,89.1235669 C175.897082,89.0598726 175.879377,88.9936306 175.861673,88.922293 C175.592168,87.8409211 175.254254,86.778028 174.85,85.7401274 C174.675486,85.3197452 174.597082,84.7898089 174.361868,85.0700637 C174.217704,85.2382166 173.972374,84.8687898 173.603113,84.6191083 C173.44458,84.5087705 173.245129,84.4762736 173.06015,84.5306427 C172.875172,84.5850119 172.724365,84.7204573 172.649611,84.8993631 C170.540272,88.2318471 169.784047,88.466242 171.005642,89.6917197 C172.09572,90.7796178 172.819066,91.7299363 173.706809,92.0305732 L173.813035,92.0636943 C173.793972,92.0687703 173.773927,92.0687703 173.754864,92.0636943 L178.90428,98.2649682 C178.90428,98.2649682 182.61965,101.521019 185.176654,102.565605 C187.733658,103.610191 187.536381,103.923567 187.536381,103.923567 C187.536381,103.923567 195.280739,107.875159 196.479572,107.798726 C197.678405,107.722293 197.448249,115.898089 196.944942,117.225478 C196.441634,118.552866 195.629767,128.076433 195.629767,128.076433 C195.629767,128.076433 194.853307,130.09172 195.667704,131.48535 C195.667704,131.48535 195.847276,134.155414 195.685409,134.797452 C194.979767,135.892994 193.973152,137.752866 193.808755,139.666242 C193.808755,139.768153 193.788521,139.86242 193.778405,139.961783 C193.726801,140.022132 193.665185,140.072994 193.596304,140.112102 L193.768288,140.061146 C193.695095,140.858643 193.525218,141.644108 193.262451,142.4 C192.853008,143.461561 192.636269,144.588601 192.622568,145.727389 L192.622568,151.882803 L192.116732,155.704459 C192.116732,155.704459 191.497082,158.596178 192.116732,159.271338 C192.37797,159.607997 192.499454,160.033576 192.455642,160.458599 C192.429759,160.952023 192.568663,161.439965 192.850195,161.844586 C193.068325,162.084584 193.161971,162.41381 193.103113,162.733758 C192.898249,163.403822 193.406615,170.535032 193.406615,170.535032 C193.406615,170.535032 193.257393,172.499363 193.052529,172.603822 C192.847665,172.70828 193.406615,174.876433 193.406615,174.876433 C193.406615,174.876433 191.314981,176.634395 191.848638,177.564331 L192.382296,178.389809 L192.240661,178.529936 L192.154669,178.619108 C191.993316,178.525396 191.805218,178.489475 191.621012,178.517197 C190.963642,179.194626 190.260537,179.825431 189.516732,180.405096 C188.573346,181.090446 186.006226,182.084076 186.006226,182.084076 L183.982879,182.249682 L183.944942,182.249682 C183.944942,182.249682 182.976265,182.157962 183.520039,183.66879 C184.063813,185.179618 188.924903,184.715924 188.924903,184.715924 L191.762646,184.264968 C191.762646,184.264968 196.821012,184.290446 198.270233,183.966879 C198.874708,183.831847 199.028988,183.505732 198.978405,183.17707 L198.96323,183.161783 C198.893657,182.848335 198.751532,182.555886 198.548444,182.30828 C198.538019,182.291963 198.526169,182.276615 198.513035,182.26242 L198.604086,181.217834 C200.751362,179.971975 197.997082,177.521019 197.997082,177.521019 C197.997082,177.521019 198.940467,175.454777 199.423541,174.784713 C199.906615,174.11465 199.906615,164.242038 199.906615,164.242038 C199.906615,164.242038 200.159533,160.675159 199.494358,159.849682 C199.471015,159.301946 199.749084,158.785794 200.217704,158.507006 C200.69572,158.178344 202.139883,153.650955 203.272957,149.892994 L203.986187,154.321019 C203.986187,154.321019 203.831907,156.440764 204.294747,157.059873 C204.470619,157.295836 204.540332,157.59522 204.486965,157.88535 C204.377198,158.479489 204.41279,159.091622 204.590661,159.66879 C204.645048,159.916389 204.777195,160.139742 204.96751,160.305732 C205.379767,160.512102 205.405058,161.248408 205.559339,161.403822 C205.713619,161.559236 206.66965,161.184713 206.720233,161.752866 C206.749123,162.251805 206.749123,162.752016 206.720233,163.250955 L207.031323,172.448408 C207.031323,172.448408 206.525486,173.212739 206.411673,175.250955 C206.368677,176.119745 206.206809,176.614013 206.039883,176.896815 C205.849907,177.208088 205.880541,177.607195 206.115759,177.88535 L206.20428,177.989809 L205.822374,178.28535 C205.505936,178.532981 205.406507,178.970911 205.58463,179.332484 C205.332627,179.553332 205.239477,179.906476 205.349416,180.224204 C205.36505,180.275257 205.387152,180.324067 205.415175,180.369427 C205.125051,180.415226 204.855829,180.549492 204.643774,180.75414 C204.262319,181.282109 203.802537,181.747849 203.280545,182.135032 C202.52303,182.719805 201.797762,183.345789 201.107977,184.010191 C200.782805,184.456064 200.346588,184.807601 199.843385,185.029299 C199.720006,185.079702 199.59212,185.118094 199.461479,185.143949 C198.449805,185.352866 198.765953,186.417834 199.590467,186.593631 C200.414981,186.769427 203.151556,187.612739 205.281128,187.121019 C205.281128,187.121019 205.913424,187.375796 206.841634,186.901911 C207.769844,186.428025 209.841245,185.847134 209.841245,185.847134 C209.841245,185.847134 211.00214,185.847134 211.158949,185.383439 C211.199761,185.235669 211.221856,185.083292 211.224708,184.929936 L211.257588,184.896815 L211.227237,184.86879 C211.230066,184.521537 211.203838,184.174662 211.148833,183.831847 C211.118482,183.653503 211.085603,183.495541 211.055253,183.368153 C210.956615,182.980892 210.771984,182.478981 210.69358,182.267516 C210.706825,182.250694 210.718668,182.232799 210.728988,182.214013 C211.171595,181.449682 210.435603,179.635669 210.435603,179.635669 C210.677283,179.249391 210.970931,178.89871 211.308171,178.593631 C211.720428,178.282803 212.805447,170.221656 212.805447,170.221656 C212.805447,170.221656 212.752335,168.155414 213.311284,167.225478 C213.870233,166.295541 212.537354,160.664968 212.537354,160.664968 C212.537354,160.664968 211.968288,159.373248 212.175681,158.907006 C212.383074,158.440764 211.968288,156.736306 211.968288,156.736306 L211.968288,154.698089 C211.967078,154.455399 211.926937,154.2145 211.849416,153.984713 C211.690078,153.505732 211.454864,152.585987 211.710311,151.926115 C212.071984,150.996178 212.896498,145.261146 212.896498,145.261146 C212.896498,145.261146 212.251556,142.73121 213.197471,140.715924 C213.271318,140.55498 213.355815,140.399215 213.450389,140.249682 C214.150973,139.141401 213.941051,137.171975 213.594553,135.584713 C213.543969,135.329936 213.485798,135.100637 213.427626,134.878981 C213.404864,134.782166 213.379572,134.690446 213.35428,134.598726 L213.465564,134.552866 C213.465564,134.552866 213.465564,134.402548 213.500973,134.145223 C214.272902,133.991123 214.946886,133.521587 215.362451,132.848408 C215.362451,132.848408 217.724708,130.173248 219.813813,129.049682 C221.902918,127.926115 222.059728,126.298089 222.059728,126.298089 C221.751167,125.755414 222.613619,123.546497 222.613619,123.546497 L222.535214,121.156688 Z M215.721595,124.723567 L213.485798,127.335032 L213.485798,127.319745 C212.904086,126.504459 214.027043,124.682803 214.027043,124.682803 L215.885992,120.504459 C215.870817,121.03949 215.805058,121.523567 215.633074,121.735032 C215.127237,122.433121 216.563813,123.597452 216.563813,123.597452 C215.797471,123.6 215.721595,124.723567 215.721595,124.723567 Z" id="Shape" fill="url(#linearGradient-1)"></path>
                <path d="M176.357393,90.4840764 L175.135798,92.8713376 C174.749051,92.8380017 174.367738,92.7575856 174.000195,92.6318471 C172.821821,92.277369 171.850532,91.4315627 171.331907,90.3082803 C170.241829,87.8828025 172.045136,86.3159236 172.884825,85.8522293 C173.724514,85.388535 174.506031,84.8611465 175.135798,86.3821656 C175.531088,87.4141039 175.861381,88.4701276 176.124708,89.543949 C176.271401,90.1019108 176.357393,90.4840764 176.357393,90.4840764 Z" id="Shape" fill="#CC818C"></path>
                <path d="M215.152529,102.901911 L213.202529,105.826752 C213.202529,105.826752 203.988716,110.254777 205.749027,105.06242 C206.522957,102.769427 206.614008,101.095541 206.474903,99.9363057 C206.474903,99.9235669 206.474903,99.9159236 206.474903,99.9031847 C206.292802,98.4535032 205.751556,97.8242038 205.751556,97.8242038 C205.751556,97.8242038 214.732685,93.1923567 213.394747,96.3592357 C213.121778,97.0174351 213.013224,97.7330297 213.078599,98.4433121 C213.188912,99.4663368 213.518565,100.453002 214.044747,101.335032 C214.361042,101.893342 214.732162,102.418265 215.152529,102.901911 Z" id="Shape" fill="#CC818C"></path>
                <path d="M212.347665,160.840764 C212.347665,160.840764 213.672957,166.44586 213.10642,167.36051 C212.539883,168.275159 212.600584,170.338854 212.600584,170.338854 C212.600584,170.338854 211.530739,178.349045 211.123541,178.654777 C210.789274,178.952727 210.497359,179.295655 210.256031,179.673885 C210.256031,179.673885 210.984436,181.487898 210.546887,182.236943 C210.479425,182.350972 210.3775,182.440254 210.256031,182.49172 C209.573152,182.782166 207.049027,181.492994 205.612451,180.70828 C205.377632,180.57891 205.220327,180.342176 205.191103,180.074177 C205.161878,179.806178 205.264417,179.540691 205.465759,179.363057 C205.287617,179.004963 205.384982,178.569995 205.698444,178.323567 L206.077821,178.028025 L205.9893,177.923567 C205.756481,177.646389 205.725914,177.250213 205.913424,176.940127 C206.077821,176.66242 206.23716,176.175796 206.280156,175.307006 C206.383852,173.304459 206.892218,172.535032 206.892218,172.535032 L206.586187,163.393631 C206.615092,162.898092 206.615092,162.401271 206.586187,161.905732 C206.535603,161.342675 205.592218,161.71465 205.440467,161.559236 C205.288716,161.403822 205.260895,160.675159 204.853696,160.46879 C204.666089,160.302828 204.536597,160.080359 204.484436,159.834395 C204.304416,159.257623 204.268793,158.644954 204.380739,158.050955 C204.433666,157.762817 204.36492,157.465498 204.191051,157.230573 C203.733268,156.614013 203.885019,154.512102 203.885019,154.512102 L203.181907,150.109554 C202.061479,153.844586 200.637549,158.343949 200.164591,158.670064 C199.702314,158.948909 199.42861,159.460254 199.451362,160.002548 C200.114008,160.825478 199.85856,164.369427 199.85856,164.369427 C199.85856,164.369427 199.85856,174.173248 199.380545,174.843312 C198.902529,175.513376 197.976848,177.574522 197.976848,177.574522 C197.976848,177.574522 200.708366,180.02293 198.55856,181.258599 L198.535798,181.258599 C196.342996,182.49172 191.808171,179.052229 191.808171,179.052229 L192.281128,178.575796 L192.420233,178.435669 L191.884047,177.630573 C191.357977,176.705732 193.42179,174.96051 193.42179,174.96051 C193.42179,174.96051 192.870428,172.802548 193.072763,172.700637 C193.275097,172.598726 193.42179,170.647134 193.42179,170.647134 C193.42179,170.647134 192.915953,163.561783 193.123346,162.894268 C193.179351,162.57603 193.085965,162.2496 192.870428,162.010191 C192.591975,161.608154 192.454883,161.12391 192.480934,160.634395 C192.525053,160.212112 192.404425,159.789095 192.144553,159.454777 C191.53249,158.787261 192.144553,155.913376 192.144553,155.913376 L192.650389,152.112102 L192.650389,146.076433 C192.657209,144.911317 192.874021,143.757134 193.290272,142.670064 C193.599308,141.788824 193.786537,140.868949 193.846693,139.936306 C194.013619,137.989809 195.053113,136.099363 195.751167,135.021656 C196.120428,134.450955 196.396109,134.109554 196.396109,134.109554 L212.70428,133.467516 C212.70428,133.467516 212.957198,134.198726 213.23035,135.215287 C213.285992,135.436943 213.341634,135.671338 213.394747,135.915924 C213.736187,137.495541 213.941051,139.452229 213.250584,140.552866 C213.156938,140.702072 213.072473,140.856928 212.997665,141.016561 C212.064397,143.019108 212.701751,145.533758 212.701751,145.533758 C212.701751,145.533758 211.887354,151.230573 211.530739,152.157962 C211.277821,152.812739 211.510506,153.727389 211.669844,154.196178 C211.744297,154.425705 211.782698,154.665539 211.783658,154.907006 L211.783658,156.93758 C211.783658,156.93758 212.193385,158.631847 211.988521,159.095541 C211.783658,159.559236 212.347665,160.840764 212.347665,160.840764 Z" id="Shape" fill="#444053"></path>
                <path d="M213.098833,140.715924 C213.004299,140.863718 212.9198,141.017785 212.845914,141.17707 L211.927821,141.126115 C212.016342,140.649682 211.391634,136.183439 211.391634,136.183439 L213.240467,136.078981 C213.581907,137.656051 213.7893,139.612739 213.098833,140.715924 Z" id="Shape" fill="#000000" opacity="0.1"></path>
                <path d="M213.250584,140.56051 C213.156938,140.709715 213.072473,140.864571 212.997665,141.024204 L212.079572,140.970701 C212.168093,140.496815 211.543385,136.028025 211.543385,136.028025 L213.392218,135.923567 C213.736187,137.503185 213.941051,139.459873 213.250584,140.56051 Z" id="Shape" fill="#444053"></path>
                <path d="M213.250584,140.56051 C213.156938,140.709715 213.072473,140.864571 212.997665,141.024204 L212.079572,140.970701 C212.168093,140.496815 211.543385,136.028025 211.543385,136.028025 L213.392218,135.923567 C213.736187,137.503185 213.941051,139.459873 213.250584,140.56051 Z" id="Shape" fill="#000000" opacity="0.05"></path>
                <path d="M210.549416,182.247134 C210.481954,182.361163 210.380029,182.450445 210.25856,182.501911 C209.575681,182.792357 207.051556,181.503185 205.614981,180.718471 C205.435675,180.618544 205.299581,180.45512 205.233074,180.259873 C206.052529,180.109554 206.588716,181.024204 206.588716,181.024204 C206.864702,180.849866 207.198852,180.795102 207.515465,180.87232 C207.832079,180.949537 208.104359,181.152199 208.270623,181.434395 C208.971206,182.473885 210.473541,182.035669 210.473541,182.035669 L210.549416,182.247134 Z" id="Shape" fill="#000000" opacity="0.1"></path>
                <path d="M210.97179,185.393631 C210.820039,185.857325 209.67179,185.857325 209.67179,185.857325 C209.67179,185.857325 207.620623,186.448408 206.702529,186.909554 C205.784436,187.370701 205.162257,187.128662 205.162257,187.128662 C203.060506,187.615287 200.356809,186.769427 199.542412,186.601274 C198.728016,186.433121 198.409339,185.370701 199.415953,185.164331 C199.545034,185.137627 199.671241,185.098377 199.792802,185.047134 C200.297143,184.827338 200.733813,184.475434 201.057393,184.028025 C201.738833,183.368163 202.455667,182.746423 203.204669,182.165605 C203.720272,181.779886 204.174062,181.316746 204.550195,180.792357 C205.749027,179.727389 206.601362,181.189809 206.601362,181.189809 C206.877658,181.015688 207.212038,180.961317 207.528687,181.039022 C207.845335,181.116728 208.117427,181.319927 208.283268,181.602548 C208.983852,182.642038 210.486187,182.201274 210.486187,182.201274 C210.486187,182.201274 210.756809,182.896815 210.883268,183.396178 C210.913619,183.523567 210.946498,183.681529 210.976848,183.859873 C211.045136,184.37707 211.088132,185.047134 210.97179,185.393631 Z" id="Shape" fill="#FF748F"></path>
                <ellipse id="Oval" fill="#575988" cx="207.466342" cy="182.007643" rx="1" ry="1"></ellipse>
                <ellipse id="Oval" fill="#575988" cx="206.270039" cy="183.136306" rx="1" ry="1"></ellipse>
                <ellipse id="Oval" fill="#575988" cx="205.053502" cy="184.150318" rx="1" ry="1"></ellipse>
                <ellipse id="Oval" fill="#575988" cx="205.683268" cy="183.696815" rx="1" ry="1"></ellipse>
                <ellipse id="Oval" fill="#575988" cx="206.894747" cy="182.53758" rx="1" ry="1"></ellipse>
                <path d="M210.97179,185.393631 C210.820039,185.857325 209.67179,185.857325 209.67179,185.857325 C209.67179,185.857325 207.620623,186.448408 206.702529,186.909554 C205.784436,187.370701 205.162257,187.128662 205.162257,187.128662 C203.060506,187.615287 200.356809,186.769427 199.542412,186.601274 C198.728016,186.433121 198.409339,185.370701 199.415953,185.164331 C199.545034,185.137627 199.671241,185.098377 199.792802,185.047134 C200.681805,185.355467 201.610291,185.53309 202.549611,185.574522 C204.62607,185.663694 206.270039,185.574522 206.270039,185.574522 L208.37179,184.894268 C208.769686,184.651125 209.211575,184.490044 209.67179,184.420382 C210.137083,184.324853 210.577345,184.132179 210.964202,183.854777 C211.045136,184.37707 211.088132,185.047134 210.97179,185.393631 Z" id="Shape" fill="#DCE6F2"></path>
                <path d="M205.74144,186.721019 C205.624287,186.721843 205.507351,186.710746 205.392412,186.687898 L205.422763,186.53758 C205.852537,186.603832 206.292164,186.541832 206.687354,186.359236 C206.874514,186.28535 207.061673,186.196178 207.243774,186.104459 C207.425875,186.012739 207.681323,185.898089 207.908949,185.814013 L208.116342,185.742675 C208.230156,185.701911 208.346498,185.663694 208.457782,185.615287 C208.521012,185.589809 208.584241,185.559236 208.644942,185.528662 C208.794185,185.450032 208.952075,185.389319 209.11537,185.347771 C209.19901,185.332071 209.283443,185.321014 209.368288,185.31465 C209.44628,185.309384 209.523947,185.300029 209.600973,185.286624 C209.754007,185.247668 209.902407,185.192143 210.04358,185.121019 C210.194493,185.042785 210.35411,184.982916 210.519066,184.942675 L210.63035,184.924841 C210.750343,184.921749 210.865949,184.87875 210.959144,184.802548 L211.072957,184.907006 C210.956913,185.009638 210.809864,185.069788 210.655642,185.077707 L210.549416,185.095541 C210.396031,185.133353 210.247507,185.188925 210.106809,185.261146 C209.95516,185.337056 209.795714,185.396006 209.631323,185.436943 C209.547899,185.453521 209.463354,185.463741 209.378405,185.467516 C209.298675,185.473456 209.219315,185.483662 209.140661,185.498089 C208.988734,185.537704 208.841897,185.594989 208.703113,185.66879 L208.510895,185.757962 C208.394553,185.806369 208.273152,185.847134 208.156809,185.887898 L207.954475,185.959236 C207.731907,186.040764 207.514397,186.145223 207.301946,186.244586 C207.089494,186.343949 206.927626,186.42293 206.735409,186.499363 C206.420601,186.63471 206.083542,186.709875 205.74144,186.721019 Z" id="Shape" fill="#575988" opacity="0.5"></path>
                <path d="M206.232101,161.212739 C206.232101,161.212739 207.2893,159.684076 209.100195,159.684076 C210.911089,159.684076 211.685019,159.477707 211.685019,159.477707 C211.685019,159.477707 210.526654,160.170701 209.724903,160.259873 C208.923152,160.349045 206.232101,161.212739 206.232101,161.212739 Z" id="Shape" fill="#000000" opacity="0.1"></path>
                <path d="M206.844163,161.571975 C206.844163,161.571975 207.800195,160.904459 208.346498,160.878981 C208.892802,160.853503 209.358171,160.802548 209.358171,160.802548 C209.101882,160.983684 208.818375,161.122178 208.518482,161.212739 C208.070817,161.340127 206.844163,161.571975 206.844163,161.571975 Z" id="Shape" fill="#000000" opacity="0.1"></path>
                <path d="M207.059144,162.033121 C207.059144,162.033121 208.498249,162.147771 208.510895,162.542675" id="Shape" fill="#000000" opacity="0.1"></path>
                <path d="M193.63677,140.37707 C193.712646,140.389809 195,139.029299 195.088521,138.49172 C195.158755,138.151417 195.359666,137.852871 195.647471,137.661146 C195.647471,137.661146 196.477043,137.994904 195.738521,139.019108 C195,140.043312 193.63677,140.37707 193.63677,140.37707 Z" id="Shape" fill="#000000" opacity="0.1"></path>
                <path d="M213.382101,96.3541401 C213.088716,97.0522293 212.830739,97.1184713 212.876265,97.7834395 C212.534863,98.147786 212.141985,98.4594193 211.710311,98.7082803 C210.799805,99.2535032 209.808366,100.321019 208.675292,100.321019 C207.916129,100.321543 207.163655,100.178067 206.457198,99.8980892 C206.275097,98.4484076 205.733852,97.8191083 205.733852,97.8191083 C205.733852,97.8191083 214.71751,93.1872611 213.382101,96.3541401 Z" id="Shape" fill="#000000" opacity="0.1"></path>
                <path d="M214.757977,93.8904459 C214.757977,97.2674736 212.040328,100.005096 208.687938,100.005096 C205.335548,100.005096 202.617899,97.2674736 202.617899,93.8904459 C202.617899,90.5134181 205.335548,87.7757962 208.687938,87.7757962 C210.297812,87.7757962 211.84175,88.4200163 212.980103,89.5667356 C214.118457,90.7134549 214.757977,92.2687399 214.757977,93.8904459 Z" id="Shape" fill="#CC818C"></path>
                <path d="M215.152529,102.901911 L213.202529,105.826752 C213.202529,105.826752 203.988716,110.254777 205.749027,105.06242 C206.522957,102.769427 206.614008,101.095541 206.474903,99.9363057 L206.490078,99.9363057 C206.599041,100.320479 206.661043,100.716615 206.674708,101.115924 C206.702529,101.915924 206.722763,102.927389 208.698054,103.261146 C211.985992,103.816561 213.741245,101.747771 214.049805,101.342675 C214.36493,101.898108 214.734338,102.420445 215.152529,102.901911 Z" id="Shape" fill="#000000" opacity="0.1"></path>
                <path d="M176.357393,90.4840764 L175.135798,92.8713376 C174.749051,92.8380017 174.367738,92.7575856 174.000195,92.6318471 L173.893969,92.5044586 C174.399805,92.6980892 176.071595,89.5006369 176.071595,89.5006369 L176.124708,89.543949 C176.271401,90.1019108 176.357393,90.4840764 176.357393,90.4840764 Z" id="Shape" fill="#000000" opacity="0.1"></path>
                <path d="M213.23035,135.22293 C209.294942,136.945223 195.682879,135.477707 195.682879,135.477707 C195.723548,135.331567 195.746478,135.180999 195.751167,135.029299 C196.120428,134.458599 196.396109,134.117197 196.396109,134.117197 L212.70428,133.475159 C212.70428,133.475159 212.969844,134.206369 213.23035,135.22293 Z" id="Shape" fill="#000000" opacity="0.1"></path>
                <path d="M206.479961,100.078981 L204.664008,100.861146 C204.104577,100.856433 203.598556,100.525549 203.366537,100.012739 C202.944163,99.1286624 201.454475,100.012739 201.454475,100.012739 C201.454475,100.012739 196.901946,99.666242 195.222568,100.522293 C195.222568,100.522293 192.508755,99.3656051 192.126848,99.289172 C191.744942,99.2127389 191.170817,98.9044586 190.902724,98.9808917 C190.63463,99.0573248 190.293191,98.4713376 190.100973,98.5197452 C189.908755,98.5681529 189.832879,98.1350318 189.220817,97.9796178 C188.608755,97.8242038 188.381128,98.0178344 187.703307,97.3248408 C187.025486,96.6318471 181.433463,93.8980892 181.433463,93.8980892 L178.90428,91.8191083 L176.228405,89.6636943 C176.228405,89.6636943 174.546498,92.8585987 174.048249,92.6649682 L179.131907,98.8280255 C179.131907,98.8280255 182.801751,102.061146 185.325875,103.100637 C187.85,104.140127 187.657782,104.448408 187.657782,104.448408 C187.657782,104.448408 195.303502,108.37707 196.48716,108.300637 C197.670817,108.224204 197.448249,116.338854 196.942412,117.648408 C196.436576,118.957962 195.644942,128.430573 195.644942,128.430573 C195.644942,128.430573 194.886187,130.433121 195.682879,131.819108 C195.682879,131.819108 195.872568,134.670064 195.682879,135.169427 C195.682879,135.169427 209.378405,136.644586 213.265759,134.899363 C213.265759,134.899363 213.839883,128.507006 213.265759,127.699363 C212.691634,126.89172 213.801946,125.090446 213.801946,125.090446 L216.247665,119.584713 L222.211479,113.538854 C222.211479,113.538854 223.127043,108.494268 219.037354,105.261146 L216.323541,102.833121 C216.323541,102.833121 214.806031,101.510828 214.360895,101.426752 C213.915759,101.342675 214.080156,101.426752 214.080156,101.426752 C214.080156,101.426752 212.309728,104.028025 208.677821,103.411465 C206.710117,103.077707 206.689883,102.066242 206.654475,101.26879 C206.644102,100.866553 206.585506,100.467053 206.479961,100.078981 Z" id="Shape" fill="#67647E"></path>
                <path d="M213.953696,120.807643 C213.953696,120.807643 205.541634,121.15414 203.862257,123.816561 C203.862257,123.816561 206.042412,122.774522 207.989883,123.082803 C209.937354,123.391083 213.953696,120.807643 213.953696,120.807643 Z" id="Shape" fill="#000000" opacity="0.1"></path>
                <path d="M204.664008,130.086624 C204.664008,130.086624 208.639883,130.356688 209.482101,129.50828 C210.324319,128.659873 210.326848,128.16051 210.326848,128.16051 L204.664008,130.086624 Z" id="Shape" fill="#000000" opacity="0.1"></path>
                <path d="M214.757977,112.642038 C214.757977,112.642038 211.391634,116.647134 215.483852,118.379618 L214.757977,112.642038 Z" id="Shape" fill="#000000" opacity="0.1"></path>
                <path d="M194.840661,104.904459 C194.840661,104.904459 196.064786,107.419108 196.676848,107.584713 L194.840661,104.904459 Z" id="Shape" fill="#000000" opacity="0.1"></path>
                <path d="M190.713035,103.824204 C190.713035,103.824204 193.770817,106.598726 194.344942,106.866242 C194.344942,106.866242 191.170817,103.824204 190.713035,103.824204 Z" id="Shape" fill="#000000" opacity="0.1"></path>
                <path d="M202.906226,101.169427 C202.906226,101.169427 199.962257,105.597452 201.874319,108.303185 C201.874319,108.292994 200.804475,105.095541 202.906226,101.169427 Z" id="Shape" fill="#000000" opacity="0.1"></path>
                <path d="M210.326848,134.70828 L209.426459,135.561783 L209.3,135.678981 L208.257977,136.672611 C208.18463,136.728662 208.111284,136.784713 208.035409,136.835669 C203.793969,139.892994 202.944163,135.24586 202.944163,135.24586 C202.944163,135.24586 201.072568,136.478981 200.804475,135.477707 C200.536381,134.476433 205.162257,133.052229 205.86284,133.128662 C205.924224,133.134982 205.986087,133.134982 206.047471,133.128662 C206.381713,133.072674 206.703594,132.95798 206.998444,132.789809 L207.203307,132.680255 C207.438856,132.546653 207.667612,132.401248 207.888716,132.244586 L210.326848,134.70828 Z" id="Shape" fill="#CC818C"></path>
                <path d="M214.899611,93.8904459 C214.904205,96.0480433 213.779659,98.0483739 211.940467,99.1541401 C211.855766,99.0110854 211.781385,98.8620813 211.717899,98.7082803 C211.500389,98.1987261 211.366342,97.6484076 211.146304,97.1363057 C210.905684,96.5772526 210.562448,96.0689881 210.13463,95.6382166 C210.062122,95.5528585 209.96888,95.4878994 209.864008,95.4496815 C209.6652,95.4220586 209.463888,95.4782873 209.307588,95.6050955 C209.050121,95.7807996 208.762996,95.9077178 208.460311,95.9796178 C208.152286,96.0508103 207.829759,95.9541144 207.610506,95.7248408 C207.372763,95.4394904 207.405642,95.0216561 207.47393,94.6573248 C207.623152,93.8598726 207.871012,93.0751592 207.873541,92.2649682 C207.87607,91.4547771 207.56751,90.5834395 206.861868,90.1808917 C206.244747,89.8267516 205.478405,89.9261146 204.792996,89.7273885 C204.686854,89.6993876 204.582882,89.6636239 204.481907,89.6203822 C206.205601,87.8382211 208.829423,87.2859372 211.117308,88.2237076 C213.405193,89.1614779 214.90082,91.4022636 214.899611,93.8904459 Z" id="Shape" fill="#000000" opacity="0.1"></path>
                <path d="M204.067121,88.6420382 C203.958366,88.7006369 203.836965,88.8076433 203.869844,88.9299363 C203.890862,88.9882459 203.92986,89.038245 203.981128,89.0726115 C204.264279,89.3028585 204.591423,89.4719683 204.942218,89.5694268 C205.627626,89.7579618 206.396498,89.6687898 207.013619,90.0229299 C207.711673,90.4229299 208.025292,91.2968153 208.025292,92.1070064 C208.025292,92.9171975 207.772374,93.7019108 207.62821,94.4968153 C207.559922,94.8636943 207.524514,95.2815287 207.762257,95.566879 C207.982309,95.7948253 208.304088,95.8912967 208.612062,95.8216561 C208.914771,95.7511413 209.201991,95.6250448 209.459339,95.4496815 C209.6163,95.3221046 209.818356,95.2650026 210.018288,95.2917197 C210.122307,95.3315882 210.21517,95.3962836 210.288911,95.4802548 C210.716991,95.9117815 211.060241,96.4209315 211.300584,96.9808917 C211.523152,97.4904459 211.654669,98.0382166 211.872179,98.5528662 C212.061685,99.077715 212.417139,99.525298 212.883852,99.8267516 C213.369455,100.096815 214.042218,100.081529 214.416537,99.6636943 C214.790856,99.2458599 214.760506,98.6726115 214.937549,98.1707006 C215.241051,97.2968153 216.088327,96.7490446 216.619455,95.9949045 C217.213813,95.1464968 217.37821,94.0815287 217.540078,93.0547771 C217.612043,92.7314823 217.617209,92.3967294 217.555253,92.0713376 C217.485883,91.8559389 217.396105,91.6477615 217.28716,91.4496815 C216.695331,90.2165605 216.707977,88.6649682 215.76965,87.6815287 C215.061479,86.9426752 213.986576,86.7184713 212.974903,86.5910828 C211.96323,86.4636943 210.900973,86.3923567 210.033463,85.8547771 C209.790228,85.669516 209.52195,85.5202352 209.23677,85.411465 C208.93886,85.3058708 208.60864,85.4303451 208.452724,85.7070064 C208.434894,85.7854056 208.399415,85.8586279 208.349027,85.9210191 C208.257113,85.9744566 208.145555,85.9810671 208.048054,85.9388535 L206.702529,85.5745223 L206.856809,86.2573248 C206.367762,86.2779823 205.88012,86.1910396 205.427821,86.0025478 C205.402529,86.3898089 205.835019,86.6394904 205.969066,87.0012739 C206.067636,87.3368327 205.969751,87.6996973 205.716148,87.9388535 C205.228016,88.433121 204.618482,88.3388535 204.067121,88.6420382 Z" id="Shape" fill="#585268"></path>
                <path d="M198.614202,180.647134 L198.55856,181.261146 L198.535798,181.261146 C196.342996,182.494268 191.808171,179.054777 191.808171,179.054777 L192.281128,178.578344 C192.438077,178.753739 192.513494,178.988139 192.488521,179.22293 L193.414202,179.273885 L194.521984,180.478981 C194.521984,180.478981 197.519066,180.828025 198.330934,180.634395 L198.614202,180.647134 Z" id="Shape" fill="#000000" opacity="0.1"></path>
                <path d="M198.229767,183.994904 C196.803307,184.315924 191.808171,184.292994 191.808171,184.292994 L189.005837,184.738854 C189.005837,184.738854 184.200389,185.202548 183.666732,183.699363 C183.133074,182.196178 184.086576,182.290446 184.086576,182.290446 L184.124514,182.290446 L186.125097,182.127389 C186.125097,182.127389 188.65428,181.138854 189.592607,180.458599 C190.326954,179.882645 191.020772,179.256089 191.669066,178.583439 C191.669066,178.583439 192.503696,178.420382 192.488521,179.393631 L193.414202,179.444586 L194.521984,180.652229 C194.521984,180.652229 197.519066,181.001274 198.330934,180.805096 L198.614202,180.805096 L198.485214,182.295541 L198.520623,182.338854 C198.71284,182.573248 199.504475,183.709554 198.229767,183.994904 Z" id="Shape" fill="#FF748F"></path>
                <ellipse id="Oval" fill="#575988" cx="193.057588" cy="180.259873" rx="1" ry="1"></ellipse>
                <ellipse id="Oval" fill="#575988" cx="189.463619" cy="181.829299" rx="1" ry="1"></ellipse>
                <ellipse id="Oval" fill="#575988" cx="187.612257" cy="182.394904" rx="1" ry="1"></ellipse>
                <ellipse id="Oval" fill="#575988" cx="190.407004" cy="181.528662" rx="1" ry="1"></ellipse>
                <ellipse id="Oval" fill="#575988" cx="188.535409" cy="182.112102" rx="1" ry="1"></ellipse>
                <ellipse id="Oval" fill="#575988" cx="191.360506" cy="181.082803" rx="1" ry="1"></ellipse>
                <ellipse id="Oval" fill="#575988" cx="192.303891" cy="180.670064" rx="1" ry="1"></ellipse>
                <path d="M198.229767,183.994904 C196.803307,184.315924 191.808171,184.292994 191.808171,184.292994 L189.005837,184.738854 C189.005837,184.738854 184.200389,185.202548 183.666732,183.699363 C183.133074,182.196178 184.086576,182.290446 184.086576,182.290446 L184.124514,182.290446 C184.430545,182.690446 185.045136,183.143949 186.251556,183.166879 L189.70642,183.307006 L193.285214,183.052229 C193.285214,183.052229 196.638911,182.952866 197.185214,182.835669 C197.644055,182.711243 198.090963,182.545832 198.520623,182.341401 C198.71284,182.573248 199.504475,183.709554 198.229767,183.994904 Z" id="Shape" fill="#DCE6F2"></path>
                <path d="M189.276459,184.4 C189.08525,184.402678 188.894594,184.378671 188.709922,184.328662 L188.750389,184.180892 C189.221758,184.282964 189.71128,184.261028 190.17179,184.117197 C190.341245,184.071338 190.508171,184.02293 190.677626,183.971975 C190.983708,183.874179 191.295363,183.795055 191.610895,183.735032 C192.120688,183.668285 192.635818,183.652923 193.148638,183.689172 L193.257393,183.689172 C194.789731,183.770297 196.326269,183.701182 197.845331,183.482803 C198.205801,183.457615 198.5492,183.318533 198.826654,183.08535 L198.935409,183.194904 C198.635626,183.451467 198.262867,183.605769 197.870623,183.635669 C196.34149,183.855276 194.794764,183.924392 193.252335,183.842038 L193.141051,183.842038 C192.634961,183.806334 192.126596,183.821697 191.623541,183.887898 C191.314695,183.945929 191.009755,184.023363 190.710506,184.119745 C190.541051,184.170701 190.371595,184.221656 190.204669,184.264968 C189.901896,184.34797 189.590174,184.393318 189.276459,184.4 Z" id="Shape" fill="#575988" opacity="0.5"></path>
                <path d="M210.326848,134.70828 L209.426459,135.561783 L207.190661,132.677707 C207.42621,132.544106 207.654967,132.398701 207.87607,132.242038 L210.326848,134.70828 Z" id="Shape" fill="#000000" opacity="0.1"></path>
                <path d="M220.463813,111.077707 L222.234241,113.541401 L222.234241,116.122293 C222.234241,116.122293 223.035992,118.856051 222.234241,121.589809 L222.320233,123.97707 C222.320233,123.97707 221.467899,126.170701 221.77393,126.710828 C221.77393,126.710828 221.622179,128.328662 219.558366,129.444586 C217.494553,130.56051 215.152529,133.205096 215.152529,133.205096 C215.152529,133.205096 214.272374,134.899363 211.902529,134.51465 L209.646498,135.477707 L207.049027,132.127389 L210.564591,130.201274 C210.564591,130.201274 211.788716,128.547771 212.514591,128.624204 L215.496498,125.118471 C215.496498,125.118471 215.572374,124.002548 216.336187,124.002548 C216.336187,124.002548 214.922374,122.848408 215.418093,122.155414 C215.913813,121.46242 215.496498,118.379618 215.496498,118.379618 L220.463813,111.077707 Z" id="Shape" fill="#67647E"></path>
                <path d="M217.175875,122.30828 C217.175875,122.30828 221.189689,122.231847 221.685409,123.271338 C222.181128,124.310828 218.387354,121.729936 217.175875,122.30828 Z" id="Shape" fill="#000000" opacity="0.1"></path>
                <path d="M209.317704,135.477707 C209.318195,135.545214 209.312267,135.612613 209.3,135.678981 C209.204758,136.318202 208.676186,136.801673 208.035409,136.835669 L207.964591,136.835669 C207.218685,136.835669 206.614008,136.226548 206.614008,135.475159 C206.614315,135.324967 206.639973,135.175922 206.689883,135.034395 C206.052529,134.524841 206.017121,133.587261 206.034825,133.123567 C206.369067,133.067578 206.690948,132.952885 206.985798,132.784713 C207.152117,133.266043 207.375454,133.725411 207.650973,134.152866 C207.753774,134.128407 207.858966,134.115589 207.964591,134.11465 C208.711895,134.11465 209.317704,134.724911 209.317704,135.477707 Z" id="Shape" fill="#000000" opacity="0.1"></path>
                <path d="M207.107198,132.478981 C207.107198,132.478981 206.201751,132.68535 206.201751,132.850955 C206.201751,133.016561 205.996887,134.519745 206.990856,135.143949 C207.984825,135.768153 207.883658,134.282803 207.883658,134.282803 C207.883658,134.282803 207.028794,132.963057 207.107198,132.478981 Z" id="Shape" fill="#575988"></path>
                <ellipse id="Oval" fill="#E4AAB4" cx="208.116342" cy="135.477707" rx="1.35058366" ry="1.36050955"></ellipse>
                <ellipse id="Oval" fill="#DCE6F2" cx="208.116342" cy="135.477707" rx="1.15836576" ry="1.16687898"></ellipse>
                <path d="M202.855642,136.005096 C202.855642,136.005096 205.711089,138.389809 209.378405,136.876433 L209.378405,138.033121 C209.378405,138.033121 206.932685,139.727389 204.717121,138.700637 C202.501556,137.673885 202.855642,136.005096 202.855642,136.005096 Z" id="Shape" fill="#000000" opacity="0.1"></path>
                <path d="M202.855642,135.696815 C202.855642,135.696815 205.711089,138.084076 209.378405,136.568153 L209.378405,137.724841 C209.378405,137.724841 206.932685,139.419108 204.717121,138.392357 C202.501556,137.365605 202.855642,135.696815 202.855642,135.696815 Z" id="Shape" fill="#000000" opacity="0.1"></path>
                <path d="M202.855642,135.696815 C202.855642,135.696815 205.711089,138.084076 209.378405,136.568153 L209.378405,137.724841 C209.378405,137.724841 206.932685,139.419108 204.717121,138.392357 C202.501556,137.365605 202.855642,135.696815 202.855642,135.696815 Z" id="Shape" fill="#444053"></path>
                <path d="M202.931518,135.696815 C202.931518,135.696815 205.786965,138.084076 209.456809,136.568153 L209.456809,137.724841 C209.456809,137.724841 207.011089,139.419108 204.792996,138.392357 C202.574903,137.365605 202.931518,135.696815 202.931518,135.696815 Z" id="Shape" fill="#000000" opacity="0.05"></path>
                <path d="M193.88463,178.578344 C193.88463,178.578344 197.708755,179.286624 198.267704,179.43949 C198.826654,179.592357 198.115953,179.86242 198.115953,179.86242 C198.115953,179.86242 194.625681,179.233121 193.88463,178.578344 Z" id="Shape" fill="#000000" opacity="0.1"></path>
                <path d="M193.796109,176.53758 C193.859339,176.53758 196.396109,175.819108 196.942412,174.588535" id="Shape" fill="#000000" opacity="0.1"></path>
                <path d="M197.496304,161.803822 C197.496304,161.803822 198.523152,163.164331 199.185798,163.126115 C199.848444,163.087898 198.098249,161.752866 197.496304,161.803822 Z" id="Shape" fill="#000000" opacity="0.1"></path>
                <path d="M198.06537,164.071338 C198.06537,164.071338 198.49786,165.031847 199.135214,164.723567" id="Shape" fill="#000000" opacity="0.1"></path>
                <path d="M200.483268,142.924841 L203.194553,150.127389 C203.194553,150.127389 203.576459,145.492994 202.76965,144.107006 C202.301472,143.297646 201.409005,142.836199 200.483268,142.924841 Z" id="Shape" fill="#000000" opacity="0.05"></path>
                <g id="Group" opacity="0.1" transform="translate(203.599222, 85.605096)" fill="#000000">
                    <path d="M3.5881323,0.463025478 L3.56327042,0.258025478 L3.0881323,0.0280254777 L3.14061848,0.448025478 C3.28952135,0.468015194 3.43892263,0.473022903 3.5881323,0.463025478 Z" id="Shape"></path>
                    <path d="M2.34961089,1.98726115 L2.39513619,1.94649682 C2.64926741,1.70766105 2.74724092,1.34446881 2.64805447,1.0089172 C2.59545874,0.881124036 2.52193313,0.763135215 2.43054475,0.659872611 C2.2162631,0.617314584 2.00630547,0.555058334 1.80330739,0.47388535 C1.77801556,0.858598726 2.20797665,1.10828025 2.34202335,1.47006369 C2.40414467,1.63633538 2.40682757,1.81921288 2.34961089,1.98726115 Z" id="Shape"></path>
                    <path d="M9.58054475,13.8267516 C9.10910951,13.527398 8.74902093,13.079577 8.55622568,12.5528662 C8.34124514,12.0433121 8.20719844,11.4929936 7.98715953,10.9834395 C7.74681714,10.4234792 7.40356734,9.91432929 6.97548638,9.48280255 C6.90244889,9.39803735 6.80937201,9.33319334 6.70486381,9.29426752 C6.5061389,9.2678599 6.30529439,9.32395788 6.14844358,9.44968153 C5.8909768,9.62538562 5.60385163,9.75230382 5.30116732,9.82420382 C4.99317614,9.89435809 4.67115004,9.79781263 4.45136187,9.56942675 C4.21361868,9.28407643 4.24649805,8.86369427 4.31478599,8.49936306 C4.46400778,7.7044586 4.7118677,6.91719745 4.71439689,6.10955414 C4.71692607,5.30191083 4.40836576,4.42547771 3.70272374,4.02547771 C3.08560311,3.67133758 2.3192607,3.77070064 1.63385214,3.57197452 C1.2822702,3.47456753 0.954290054,3.30546999 0.670233463,3.07515924 C0.652167815,3.06035057 0.635256947,3.04416718 0.619649805,3.02675159 C0.562173704,3.04895091 0.506383362,3.07534805 0.452723735,3.10573248 C0.341439689,3.16433121 0.222568093,3.27133758 0.252918288,3.39363057 C0.275780809,3.45161804 0.315438292,3.50133227 0.366731518,3.53630573 C0.649563512,3.7670464 0.976813544,3.93621152 1.32782101,4.03312102 C2.01322957,4.22165605 2.77957198,4.13248408 3.39669261,4.4866242 C4.09474708,4.8866242 4.40836576,5.76050955 4.40836576,6.57070064 C4.40836576,7.38089172 4.15544747,8.1656051 4.00875486,8.96050955 C3.94046693,9.32738854 3.90758755,9.74522293 4.14533074,10.0305732 C4.36511891,10.2589591 4.68714501,10.3555046 4.99513619,10.2853503 C5.2978451,10.2148356 5.58506532,10.088739 5.84241245,9.9133758 C5.99845729,9.78593554 6.19969135,9.72880733 6.39883268,9.75541401 C6.50319041,9.79463076 6.59620065,9.85942834 6.66945525,9.94394904 C7.09655852,10.3762891 7.439675,10.8852413 7.6811284,11.444586 C7.9036965,11.9541401 8.03521401,12.5019108 8.25272374,13.0165605 C8.44222999,13.5414093 8.79768402,13.9889922 9.26439689,14.2904459 C9.74747082,14.5605096 10.4227626,14.5452229 10.7819066,14.1273885 C10.8813979,14.0139543 10.9586373,13.8825467 11.0095331,13.7401274 C10.5928278,14.0530801 10.0314983,14.0871075 9.58054475,13.8267516 Z" id="Shape"></path>
                    <path d="M11.7657588,11.8675159 C12.1476654,11.3808917 12.6509728,10.9656051 13.0101167,10.456051 C13.0809339,10.3541401 13.1466926,10.2471338 13.207393,10.1401274 C12.7445525,10.733758 12.1097276,11.2050955 11.7657588,11.8675159 Z" id="Shape"></path>
                </g>
            </g>
        </g>
    </g>
</svg>