<?xml version="1.0" encoding="UTF-8"?>
<svg width="70px" height="116px" viewBox="0 0 70 116" version="1.1" xmlns="http://www.w3.org/2000/svg" xmlns:xlink="http://www.w3.org/1999/xlink">
    <!-- Generator: Sketch 52.1 (67048) - http://www.bohemiancoding.com/sketch -->
    <title>church_illustration</title>
    <desc>Created with Sketch.</desc>
    <g id="church" stroke="none" stroke-width="1" fill="none" fill-rule="evenodd">
        <g id="church-pricing" transform="translate(-411.000000, -779.000000)" fill="#0C4F6C">
            <g id="pricing_card" transform="translate(381.000000, 607.000000)">
                <g id="church_illustration" transform="translate(30.000000, 172.000000)">
                    <path d="M14.259,68.408 L14.259,38.593 C14.2591545,38.2898151 14.3652735,37.9962192 14.559,37.763 L33.703,14.79 L33.703,7.482 L31.11,7.482 C30.4308483,7.432063 29.9053297,6.86648512 29.9053297,6.1855 C29.9053297,5.50451488 30.4308483,4.938937 31.11,4.889 L33.703,4.889 L33.703,2.3 C33.6672699,1.81406493 33.9062711,1.34894833 34.3221532,1.09507518 C34.7380354,0.84120202 35.2609646,0.84120202 35.6768468,1.09507518 C36.0927289,1.34894833 36.3317301,1.81406493 36.296,2.3 L36.296,4.893 L38.889,4.893 C39.5681517,4.942937 40.0936703,5.50851488 40.0936703,6.1895 C40.0936703,6.87048512 39.5681517,7.436063 38.889,7.486 L36.296,7.486 L36.296,14.794 L54.84,37.767 L55.74,39.787 L55.74,71 L14.259,71 L14.259,68.407 L14.259,68.408 Z M42.778,68.408 L53.148,68.408 L53.148,39.062 L35,17.284 L16.852,39.062 L16.852,68.408 L27.222,68.408 L27.222,52.839 C27.222,48.5433292 30.7043292,45.061 35,45.061 C39.2956708,45.061 42.778,48.5433292 42.778,52.839 L42.778,68.407 L42.778,68.408 Z M40.185,52.84 C40.185,49.9764036 37.8635964,47.655 35,47.655 C32.1364036,47.655 29.815,49.9764036 29.815,52.84 L29.815,68.408 L40.185,68.408 L40.185,52.84 Z" id="Path_962"></path>
                    <g id="Group-5" transform="translate(0.000000, 77.000000)" fill-rule="nonzero">
                        <path d="M11.787,11.726 L3.769,11.726 C2.88554286,11.7129195 2.03331323,12.0525334 1.40099109,12.6696528 C0.768668957,13.2867722 0.408419353,14.1304861 0.4,15.014 C0.32,15.575 0,20.707 0,23.834 C0,24.7195886 0.717911404,25.4375 1.6035,25.4375 C2.4890886,25.4375 3.207,24.7195886 3.207,23.834 C3.207,20.627 3.607,15.254 3.607,15.174 L3.607,15.094 C3.61280674,15.0081546 3.68115458,14.9398067 3.767,14.934 L11.785,14.934 C11.8708454,14.9398067 11.9391933,15.0081546 11.945,15.094 L11.945,15.174 C11.945,15.254 12.345,20.626 12.345,23.834 C12.345,24.7195886 13.0629114,25.4375 13.9485,25.4375 C14.8340886,25.4375 15.552,24.7195886 15.552,23.834 C15.552,20.707 15.152,15.575 15.152,15.014 C15.1059618,13.1875244 13.6140518,11.7297532 11.787,11.726 Z M12.91,5.552 C12.9071317,8.22024918 10.7678484,10.3946683 8.1,10.441 C5.42099994,10.4629992 3.23139065,8.30910678 3.20933072,5.63010722 C3.1872708,2.95110766 5.3411136,0.761449552 8.02011266,0.739328909 C10.6991117,0.717208265 12.8888186,2.87100144 12.911,5.55 L12.91,5.552 Z M9.703,5.552 C9.703,4.6664114 8.9850886,3.9485 8.0995,3.9485 C7.2139114,3.9485 6.496,4.6664114 6.496,5.552 C6.46280421,6.14624189 6.76096223,6.71011553 7.2707688,7.01723545 C7.78057537,7.32435537 8.41842463,7.32435537 8.9282312,7.01723545 C9.43803777,6.71011553 9.73619579,6.14624189 9.703,5.552 Z M9.863,23.273 L5.212,23.273 C4.33016354,23.2773764 3.61637644,23.9911635 3.612,24.873 L3.612,37.305 C3.612,38.1905886 4.3299114,38.9085 5.2155,38.9085 C6.1010886,38.9085 6.819,38.1905886 6.819,37.305 L6.819,26.48 L8.262,26.48 L8.262,37.305 C8.262,38.1905886 8.9799114,38.9085 9.8655,38.9085 C10.7510886,38.9085 11.469,38.1905886 11.469,37.305 L11.469,24.876 C11.4662477,23.9906593 10.7483443,23.2740969 9.863,23.273 Z" id="Path_963"></path>
                        <path d="M29.935,11.726 L21.917,11.726 C21.0335429,11.7129195 20.1813132,12.0525334 19.5489911,12.6696528 C18.916669,13.2867722 18.5564194,14.1304861 18.548,15.014 C18.468,15.575 18.148,20.707 18.148,23.834 C18.148,24.7195886 18.8659114,25.4375 19.7515,25.4375 C20.6370886,25.4375 21.355,24.7195886 21.355,23.834 C21.355,20.627 21.755,15.254 21.755,15.174 L21.755,15.094 C21.7608067,15.0081546 21.8291546,14.9398067 21.915,14.934 L29.933,14.934 C30.0188454,14.9398067 30.0871933,15.0081546 30.093,15.094 L30.093,15.174 C30.093,15.254 30.493,20.626 30.493,23.834 C30.493,24.7195886 31.2109114,25.4375 32.0965,25.4375 C32.9820886,25.4375 33.7,24.7195886 33.7,23.834 C33.7,20.707 33.3,15.575 33.3,15.014 C33.2539618,13.1875244 31.7620518,11.7297532 29.935,11.726 Z M31.058,5.552 C31.0551317,8.22024918 28.9158484,10.3946683 26.248,10.441 C23.5689999,10.4629992 21.3793906,8.30910678 21.3573307,5.63010722 C21.3352708,2.95110766 23.4891136,0.761449552 26.1681127,0.739328909 C28.8471117,0.717208265 31.0368186,2.87100144 31.059,5.55 L31.058,5.552 Z M27.851,5.552 C27.851,4.6664114 27.1330886,3.9485 26.2475,3.9485 C25.3619114,3.9485 24.644,4.6664114 24.644,5.552 C24.6108042,6.14624189 24.9089622,6.71011553 25.4187688,7.01723545 C25.9285754,7.32435537 26.5664246,7.32435537 27.0762312,7.01723545 C27.5860378,6.71011553 27.8841958,6.14624189 27.851,5.552 Z M28.011,23.273 L23.36,23.273 C22.4781635,23.2773764 21.7643764,23.9911635 21.76,24.873 L21.76,37.305 C21.76,38.1905886 22.4779114,38.9085 23.3635,38.9085 C24.2490886,38.9085 24.967,38.1905886 24.967,37.305 L24.967,26.48 L26.41,26.48 L26.41,37.305 C26.41,38.1905886 27.1279114,38.9085 28.0135,38.9085 C28.8990886,38.9085 29.617,38.1905886 29.617,37.305 L29.617,24.876 C29.6142477,23.9906593 28.8963443,23.2740969 28.011,23.273 Z" id="Path_963-2"></path>
                        <path d="M48.083,11.726 L40.065,11.726 C39.1815429,11.7129195 38.3293132,12.0525334 37.6969911,12.6696528 C37.064669,13.2867722 36.7044194,14.1304861 36.696,15.014 C36.616,15.575 36.296,20.707 36.296,23.834 C36.296,24.7195886 37.0139114,25.4375 37.8995,25.4375 C38.7850886,25.4375 39.503,24.7195886 39.503,23.834 C39.503,20.627 39.903,15.254 39.903,15.174 L39.903,15.094 C39.9088067,15.0081546 39.9771546,14.9398067 40.063,14.934 L48.081,14.934 C48.1668454,14.9398067 48.2351933,15.0081546 48.241,15.094 L48.241,15.174 C48.241,15.254 48.641,20.626 48.641,23.834 C48.641,24.7195886 49.3589114,25.4375 50.2445,25.4375 C51.1300886,25.4375 51.848,24.7195886 51.848,23.834 C51.848,20.707 51.448,15.575 51.448,15.014 C51.4019618,13.1875244 49.9100518,11.7297532 48.083,11.726 Z M49.206,5.552 C49.2031317,8.22024918 47.0638484,10.3946683 44.396,10.441 C41.7169999,10.4629992 39.5273906,8.30910678 39.5053307,5.63010722 C39.4832708,2.95110766 41.6371136,0.761449552 44.3161127,0.739328909 C46.9951117,0.717208265 49.1848186,2.87100144 49.207,5.55 L49.206,5.552 Z M45.999,5.552 C45.999,4.6664114 45.2810886,3.9485 44.3955,3.9485 C43.5099114,3.9485 42.792,4.6664114 42.792,5.552 C42.7588042,6.14624189 43.0569622,6.71011553 43.5667688,7.01723545 C44.0765754,7.32435537 44.7144246,7.32435537 45.2242312,7.01723545 C45.7340378,6.71011553 46.0321958,6.14624189 45.999,5.552 Z M46.159,23.273 L41.508,23.273 C40.6261635,23.2773764 39.9123764,23.9911635 39.908,24.873 L39.908,37.305 C39.908,38.1905886 40.6259114,38.9085 41.5115,38.9085 C42.3970886,38.9085 43.115,38.1905886 43.115,37.305 L43.115,26.48 L44.558,26.48 L44.558,37.305 C44.558,38.1905886 45.2759114,38.9085 46.1615,38.9085 C47.0470886,38.9085 47.765,38.1905886 47.765,37.305 L47.765,24.876 C47.7622477,23.9906593 47.0443443,23.2740969 46.159,23.273 Z" id="Path_963-3"></path>
                        <path d="M66.231,11.726 L58.213,11.726 C57.3295429,11.7129195 56.4773132,12.0525334 55.8449911,12.6696528 C55.212669,13.2867722 54.8524194,14.1304861 54.844,15.014 C54.764,15.575 54.444,20.707 54.444,23.834 C54.444,24.7195886 55.1619114,25.4375 56.0475,25.4375 C56.9330886,25.4375 57.651,24.7195886 57.651,23.834 C57.651,20.627 58.051,15.254 58.051,15.174 L58.051,15.094 C58.0568067,15.0081546 58.1251546,14.9398067 58.211,14.934 L66.229,14.934 C66.3148454,14.9398067 66.3831933,15.0081546 66.389,15.094 L66.389,15.174 C66.389,15.254 66.789,20.626 66.789,23.834 C66.789,24.7195886 67.5069114,25.4375 68.3925,25.4375 C69.2780886,25.4375 69.996,24.7195886 69.996,23.834 C69.996,20.707 69.596,15.575 69.596,15.014 C69.5499618,13.1875244 68.0580518,11.7297532 66.231,11.726 Z M67.354,5.552 C67.3511317,8.22024918 65.2118484,10.3946683 62.544,10.441 C59.8649999,10.4629992 57.6753906,8.30910678 57.6533307,5.63010722 C57.6312708,2.95110766 59.7851136,0.761449552 62.4641127,0.739328909 C65.1431117,0.717208265 67.3328186,2.87100144 67.355,5.55 L67.354,5.552 Z M64.147,5.552 C64.147,4.6664114 63.4290886,3.9485 62.5435,3.9485 C61.6579114,3.9485 60.94,4.6664114 60.94,5.552 C60.9068042,6.14624189 61.2049622,6.71011553 61.7147688,7.01723545 C62.2245754,7.32435537 62.8624246,7.32435537 63.3722312,7.01723545 C63.8820378,6.71011553 64.1801958,6.14624189 64.147,5.552 Z M64.307,23.273 L59.656,23.273 C58.7741635,23.2773764 58.0603764,23.9911635 58.056,24.873 L58.056,37.305 C58.056,38.1905886 58.7739114,38.9085 59.6595,38.9085 C60.5450886,38.9085 61.263,38.1905886 61.263,37.305 L61.263,26.48 L62.706,26.48 L62.706,37.305 C62.706,38.1905886 63.4239114,38.9085 64.3095,38.9085 C65.1950886,38.9085 65.913,38.1905886 65.913,37.305 L65.913,24.876 C65.9102477,23.9906593 65.1923443,23.2740969 64.307,23.273 Z" id="Path_963-4"></path>
                    </g>
                </g>
            </g>
        </g>
    </g>
</svg>