<?xml version="1.0" encoding="UTF-8"?>
<svg width="260px" height="200px" viewBox="0 0 260 200" version="1.1" xmlns="http://www.w3.org/2000/svg" xmlns:xlink="http://www.w3.org/1999/xlink">
    <!-- Generator: Sketch 52.1 (67048) - http://www.bohemiancoding.com/sketch -->
    <title>undraw_credit_card_payment_yb88</title>
    <desc>Created with Sketch.</desc>
    <defs>
        <linearGradient x1="49.9831446%" y1="100.014271%" x2="49.9831446%" y2="-0.0285415279%" id="linearGradient-1">
            <stop stop-color="#808080" stop-opacity="0.25" offset="0%"></stop>
            <stop stop-color="#808080" stop-opacity="0.12" offset="54%"></stop>
            <stop stop-color="#808080" stop-opacity="0.1" offset="100%"></stop>
        </linearGradient>
        <linearGradient x1="26.1121399%" y1="32.6929652%" x2="26.1121399%" y2="-1.30703485%" id="linearGradient-2">
            <stop stop-color="#808080" stop-opacity="0.25" offset="0%"></stop>
            <stop stop-color="#808080" stop-opacity="0.12" offset="54%"></stop>
            <stop stop-color="#808080" stop-opacity="0.1" offset="100%"></stop>
        </linearGradient>
        <linearGradient x1="50.007427%" y1="99.9819601%" x2="50.007427%" y2="-0.0133074449%" id="linearGradient-3">
            <stop stop-color="#808080" stop-opacity="0.25" offset="0%"></stop>
            <stop stop-color="#808080" stop-opacity="0.12" offset="54%"></stop>
            <stop stop-color="#808080" stop-opacity="0.1" offset="100%"></stop>
        </linearGradient>
        <linearGradient x1="25.1470783%" y1="26.5721346%" x2="21.8608843%" y2="-1.23435619%" id="linearGradient-4">
            <stop stop-color="#808080" stop-opacity="0.25" offset="0%"></stop>
            <stop stop-color="#808080" stop-opacity="0.12" offset="54%"></stop>
            <stop stop-color="#808080" stop-opacity="0.1" offset="100%"></stop>
        </linearGradient>
        <linearGradient x1="60.4878691%" y1="99.5099686%" x2="39.1455069%" y2="1.65899766%" id="linearGradient-5">
            <stop stop-color="#808080" stop-opacity="0.25" offset="0%"></stop>
            <stop stop-color="#808080" stop-opacity="0.12" offset="54%"></stop>
            <stop stop-color="#808080" stop-opacity="0.1" offset="100%"></stop>
        </linearGradient>
    </defs>
    <g id="church" stroke="none" stroke-width="1" fill="none" fill-rule="evenodd">
        <g id="church-pricing" transform="translate(-40.000000, -240.000000)" fill-rule="nonzero">
            <g id="undraw_credit_card_payment_yb88" transform="translate(40.000000, 240.000000)">
                <path d="M126.917186,197.500747 C126.770242,197.35725 126.617301,197.201794 126.509343,197.079223 C126.30064,196.85006 126.154973,196.570959 126.086505,196.269058 L126.194464,196.269058 L126.245444,196.038864 C127.896894,188.391078 125.368139,180.442895 119.597001,175.142003 C119.609253,175.125411 119.619331,175.107327 119.62699,175.088191 C121.10594,170.65238 121.197971,165.873285 119.890888,161.384155 C121.217923,159.708505 122.407318,157.928951 123.44752,156.06278 C127.11511,153.267564 130.923645,149.22272 132.096194,143.967115 C132.229366,143.397351 132.329494,142.820411 132.396078,142.239163 C132.695963,141.940209 133.121799,141.29148 132.671972,140.110613 C132.635106,140.014744 132.590996,139.921802 132.540023,139.832586 C132.525029,139.80568 132.507036,139.778774 132.489043,139.754858 C132.456816,139.702202 132.421779,139.651306 132.384083,139.602392 L132.31511,139.524664 C132.280002,139.485967 132.24297,139.449049 132.204152,139.414051 L132.126182,139.348281 L132.006228,139.264574 L131.922261,139.213752 L131.79331,139.150972 L131.712341,139.115097 L131.568397,139.067265 L131.496424,139.046338 C131.428451,139.028401 131.360477,139.014449 131.292503,139.004484 C130.835239,138.951669 130.371929,138.99755 129.934025,139.139013 C129.934025,139.139013 128.854441,141.004484 129.277278,141.715994 C128.950404,142.12855 128.077739,143.231689 126.878201,144.648729 C126.889971,143.461353 126.770293,142.276306 126.521338,141.115097 C126.407203,140.541114 126.260016,139.974157 126.080507,139.41704 C126.239446,139.022422 126.350404,138.2571 125.45075,137.366218 C125.377939,137.293688 125.299748,137.226732 125.21684,137.165919 L125.13887,137.115097 C125.087621,137.080434 125.034567,137.048501 124.979931,137.019432 L124.886967,136.977578 C124.838985,136.956652 124.788005,136.935725 124.740023,136.920777 L124.64406,136.893871 L124.500115,136.863976 L124.404152,136.863976 L124.260208,136.863976 L124.170242,136.863976 L124.017301,136.878924 L123.94233,136.878924 C123.872357,136.890882 123.804383,136.906826 123.738408,136.926756 C123.300077,137.066846 122.89711,137.299311 122.556863,137.608371 C122.556863,137.608371 122.346943,139.751868 123.024683,140.227205 C122.709804,141.455904 121.123414,147.692078 119.024221,152.77429 C118.321015,153.38053 117.583054,153.945509 116.814072,154.466368 L116.814072,154.005979 C116.818589,153.921335 116.818589,153.836512 116.814072,153.751868 C116.805276,153.670534 116.792264,153.589709 116.775087,153.509716 L116.814072,153.488789 L116.976009,153.399103 L117.209919,153.255605 L117.359862,153.15994 C117.471819,153.082212 117.579777,153.001495 117.683737,152.917788 L117.80669,152.813154 C117.881661,152.750374 117.950634,152.684604 118.022607,152.618834 L118.124567,152.475336 C118.210534,152.387643 118.293502,152.295964 118.373472,152.200299 L118.460438,152.095665 C118.536409,152.001993 118.608381,151.902342 118.676355,151.796712 L118.763322,151.668161 C118.825298,151.572496 118.884275,151.472845 118.940254,151.369208 L118.994233,151.273543 C119.063206,151.144993 119.126182,151.013453 119.186159,150.878924 L119.234141,150.759342 C119.278124,150.651719 119.318108,150.541106 119.354095,150.427504 C119.354095,150.38864 119.381084,150.349776 119.39308,150.310912 C119.438062,150.167414 119.477047,150.011958 119.507036,149.86846 C119.507036,149.838565 119.507036,149.80867 119.52203,149.778774 C119.546021,149.651221 119.566013,149.522671 119.582007,149.393124 C119.582007,149.348281 119.582007,149.306428 119.582007,149.261584 C119.582007,149.103139 119.605998,148.944694 119.605998,148.780269 C119.606255,147.877452 119.372817,146.989845 118.928258,146.203288 L119.177163,146.137519 L119.360092,146.080717 C119.429066,146.056801 119.462053,146.035874 119.453057,146.020927 C119.324106,145.847534 119.192157,145.683109 119.057209,145.521674 L118.92526,145.372197 C118.832295,145.264574 118.736332,145.15994 118.625375,145.073244 L118.472434,144.917788 C118.376471,144.825112 118.280507,144.732436 118.172549,144.64574 L118.022607,144.511211 C117.902653,144.406577 117.782699,144.310912 117.659746,144.212257 L117.581776,144.149477 C117.434833,144.041854 117.281892,143.940209 117.140946,143.850523 L116.97301,143.748879 C116.877047,143.689088 116.778085,143.632287 116.673126,143.578475 L116.478201,143.476831 L116.205306,143.345291 L116.004383,143.255605 C115.90842,143.216741 115.809458,143.177877 115.704498,143.144993 L115.521569,143.079223 C115.374625,143.03139 115.221684,142.989537 115.080738,142.950673 L114.852826,142.899851 L114.609919,142.849028 L114.364014,142.810164 L114.1391,142.783259 L113.887197,142.762332 L113.668281,142.762332 L113.416378,142.762332 C113.276432,142.762332 113.137486,142.769307 112.999539,142.783259 C109.736794,143.049327 106.881892,145.889387 106.881892,150.400598 L106.881892,154.149477 L111.979931,154.149477 L111.979931,155.847534 C110.108505,156.70887 108.90986,158.575939 108.909112,160.630792 L108.909112,175.091181 L104.629758,194.911809 L104.608766,194.911809 L104.608766,194.96562 L103.769089,198.696562 L110.129642,199.710015 C110.279864,199.651856 110.365151,199.493231 110.330565,199.336323 C110.318849,199.233823 110.293642,199.133307 110.255594,199.037369 C110.153732,198.790994 110.032397,198.553076 109.892734,198.325859 C109.66782,197.940209 109.400923,197.527653 109.220992,197.153961 C109.128013,196.963736 109.058532,196.762966 109.014072,196.556054 C108.99246,196.449552 108.978431,196.341659 108.972088,196.233184 L113.653287,180.896861 L113.632295,180.896861 L113.743253,180.535127 C113.743253,180.535127 119.716955,183.088191 121.240369,188.19133 C122.48489,192.328849 121.711188,195.010463 121.375317,195.877429 L121.354325,195.877429 L121.354325,195.928251 C121.288351,196.092676 121.240369,196.185351 121.240369,196.185351 L121.354325,196.185351 L121.354325,198.992526 L127.810842,198.992526 C128.302653,198.744395 127.552941,198.119581 126.917186,197.500747 Z" id="Shape" fill="url(#linearGradient-1)"></path>
                <path d="M116.241292,167.2287 C116.241292,167.2287 127.379008,155.554559 123.738408,144.334828 L120.817532,144.932735 C120.817532,144.932735 116.898039,161.375187 112.720646,163.733931 C108.543253,166.092676 116.241292,167.2287 116.241292,167.2287 Z" id="Shape" fill="#0C4F6C"></path>
                <path d="M123.294579,144.594918 L123.780392,144.496263 C127.408997,155.715994 116.283276,167.390135 116.283276,167.390135 L115.941407,167.333333 C117.224913,165.928251 126.680277,155.058296 123.294579,144.594918 Z" id="Shape" fill="#FFFFFF" opacity="0.2"></path>
                <path d="M123.606459,144.627803 C123.606459,144.627803 124.416148,143.623318 123.147636,142.364723 C121.879123,141.106129 120.325721,142.597907 120.325721,142.597907 C120.325721,142.597907 120.103806,144.831091 120.850519,145.183857 C121.597232,145.536622 123.606459,144.627803 123.606459,144.627803 Z" id="Shape" fill="#985454"></path>
                <path d="M123.279585,144.702541 C123.279585,144.702541 124.089273,143.698057 122.820761,142.439462 C122.475088,142.068759 121.972313,141.885388 121.468281,141.946188 C122.062899,141.751122 122.717027,141.917938 123.144637,142.373692 C124.413149,143.632287 123.60346,144.636771 123.60346,144.636771 C123.005458,144.903355 122.379968,145.103853 121.738178,145.234679 C122.265925,145.100323 122.781514,144.922327 123.279585,144.702541 Z" id="Shape" fill="#FFFFFF" opacity="0.2"></path>
                <rect id="Rectangle-path" fill="#E8E8EE" x="7.50011534" y="0" width="240.633449" height="145.829596" rx="27.5"></rect>
                <path d="M37.7320646,1.4857997 L217.13391,1.4857997 C232.321741,1.4857997 244.63391,13.7979691 244.63391,28.9857997 L244.63391,114.517937 C244.63391,129.705768 232.321741,142.017937 217.13391,142.017937 L37.7320646,142.017937 C22.544234,142.017937 10.2320646,129.705768 10.2320646,114.517937 L10.2320646,28.9857997 C10.2320646,13.7979691 22.544234,1.4857997 37.7320646,1.4857997 Z" id="Rectangle-path" fill="#FFFFFF"></path>
                <polygon id="Rectangle-path" fill="#E8E8EE" points="28.5370242 23.5455904 35.3683968 23.5455904 35.3683968 42.8819133 28.5370242 42.8819133"></polygon>
                <polygon id="Rectangle-path" fill="#E8E8EE" points="37.2786621 23.5455904 44.1100346 23.5455904 44.1100346 42.8819133 37.2786621 42.8819133"></polygon>
                <polygon id="Rectangle-path" fill="#E8E8EE" points="46.0202999 23.5455904 52.8516724 23.5455904 52.8516724 42.8819133 46.0202999 42.8819133"></polygon>
                <polygon id="Rectangle-path" fill="#E8E8EE" points="61.3204152 23.5455904 68.1517878 23.5455904 68.1517878 42.8819133 61.3204152 42.8819133"></polygon>
                <polygon id="Rectangle-path" fill="#E8E8EE" points="70.0620531 23.5455904 76.8934256 23.5455904 76.8934256 42.8819133 70.0620531 42.8819133"></polygon>
                <polygon id="Rectangle-path" fill="#E8E8EE" points="78.8036909 23.5455904 85.6350634 23.5455904 85.6350634 42.8819133 78.8036909 42.8819133"></polygon>
                <polygon id="Rectangle-path" fill="#E8E8EE" points="94.1038062 23.5455904 100.935179 23.5455904 100.935179 42.8819133 94.1038062 42.8819133"></polygon>
                <polygon id="Rectangle-path" fill="#E8E8EE" points="102.845444 23.5455904 109.676817 23.5455904 109.676817 42.8819133 102.845444 42.8819133"></polygon>
                <polygon id="Rectangle-path" fill="#E8E8EE" points="111.587082 23.5455904 118.418454 23.5455904 118.418454 42.8819133 111.587082 42.8819133"></polygon>
                <polygon id="Rectangle-path" fill="#E8E8EE" points="126.887197 23.5455904 133.71857 23.5455904 133.71857 42.8819133 126.887197 42.8819133"></polygon>
                <polygon id="Rectangle-path" fill="#E8E8EE" points="135.628835 23.5455904 142.460208 23.5455904 142.460208 42.8819133 135.628835 42.8819133"></polygon>
                <polygon id="Rectangle-path" fill="#E8E8EE" points="144.370473 23.5455904 151.201845 23.5455904 151.201845 42.8819133 144.370473 42.8819133"></polygon>
                <polygon id="Rectangle-path" fill="#D1D1D9" points="28.5370242 121.046338 88.0941176 121.046338 88.0941176 129.760837 28.5370242 129.760837"></polygon>
                <polygon id="Rectangle-path" fill="#E8E8EE" points="28.5370242 106.340807 131.805306 106.340807 131.805306 115.055306 28.5370242 115.055306"></polygon>
                <path d="M198.346713,73.3363229 C198.33049,72.9546589 198.46759,72.5822992 198.727645,72.3017286 C198.987699,72.021158 199.349241,71.8555373 199.73218,71.8415546 L201.792388,71.8415546 L201.792388,59.5844544 L183.439446,59.5844544 L183.439446,73.6950673 L198.349712,73.6950673 L198.346713,73.3363229 Z" id="Shape" fill="#E8E8EE"></path>
                <path d="M199.73218,86.5799701 C199.349241,86.5659874 198.987699,86.4003666 198.727645,86.1197961 C198.46759,85.8392255 198.33049,85.4668658 198.346713,85.0852018 L198.346713,84.7264574 L183.436448,84.7264574 L183.436448,98.8370703 L201.792388,98.8370703 L201.792388,86.5799701 L199.73218,86.5799701 Z" id="Shape" fill="#E8E8EE"></path>
                <polygon id="Rectangle-path" fill="#E8E8EE" points="183.436448 75.5366218 198.346713 75.5366218 198.346713 82.8998505 183.436448 82.8998505"></polygon>
                <path d="M206.950404,85.0971599 C206.966627,85.4788239 206.829526,85.8511836 206.569472,86.1317542 C206.309417,86.4123248 205.947876,86.5779455 205.564937,86.5919283 L203.510727,86.5919283 L203.510727,98.8490284 L221.863668,98.8490284 L221.863668,84.7384155 L206.950404,84.7384155 L206.950404,85.0971599 Z" id="Shape" fill="#E8E8EE"></path>
                <path d="M203.507728,59.5844544 L203.507728,71.8415546 L205.561938,71.8415546 C205.944877,71.8555373 206.306418,72.021158 206.566473,72.3017286 C206.826527,72.5822992 206.963628,72.9546589 206.947405,73.3363229 L206.947405,73.6950673 L221.85767,73.6950673 L221.85767,59.5844544 L203.507728,59.5844544 Z" id="Shape" fill="#E8E8EE"></path>
                <polygon id="Rectangle-path" fill="#E8E8EE" points="206.950404 75.5366218 221.860669 75.5366218 221.860669 82.8998505 206.950404 82.8998505"></polygon>
                <path d="M198.409689,73.4768311 C198.411342,72.7498746 199.002958,72.1614331 199.73218,72.161435 L201.693426,72.161435 L201.693426,61.2675635 L184.186159,61.2675635 L184.186159,73.7967115 L198.409689,73.7967115 L198.409689,73.4768311 Z" id="Shape" fill="#02BAEF"></path>
                <path d="M199.73218,85.2316891 C199.002958,85.231691 198.411342,84.6432495 198.409689,83.916293 L198.409689,83.5994021 L184.186159,83.5994021 L184.186159,96.1285501 L201.690427,96.1285501 L201.690427,85.2316891 L199.73218,85.2316891 Z" id="Shape" fill="#02BAEF"></path>
                <polygon id="Rectangle-path" fill="#02BAEF" points="184.186159 75.4289985 198.409689 75.4289985 198.409689 81.9641256 184.186159 81.9641256"></polygon>
                <path d="M206.614533,83.916293 C206.612879,84.6432495 206.021264,85.231691 205.292042,85.2316891 L203.330796,85.2316891 L203.330796,96.1255605 L220.835063,96.1255605 L220.835063,83.5994021 L206.614533,83.5994021 L206.614533,83.916293 Z" id="Shape" fill="#02BAEF"></path>
                <path d="M203.333795,61.2675635 L203.333795,72.161435 L205.29504,72.161435 C206.024263,72.1614331 206.615878,72.7498746 206.617532,73.4768311 L206.617532,73.793722 L220.841061,73.793722 L220.841061,61.2675635 L203.333795,61.2675635 Z" id="Shape" fill="#02BAEF"></path>
                <polygon id="Rectangle-path" fill="#02BAEF" points="206.614533 75.4289985 220.838062 75.4289985 220.838062 81.9641256 206.614533 81.9641256"></polygon>
                <g id="Group" opacity="0.2" transform="translate(6.897347, 131.240658)" fill="url(#linearGradient-2)">
                    <path d="M0.425143671,0.212215304 L0.470143671,0.0622153036 C0.470143671,0.0622153036 -0.084856329,-0.0177846964 0.425143671,0.212215304 Z" id="Shape"></path>
                </g>
                <g id="Group" opacity="0.2" transform="translate(0.000000, 129.147982)" fill="url(#linearGradient-3)">
                    <path d="M38.1813149,7.72795217 C38.1498245,7.62554613 38.1107315,7.52561884 38.0643599,7.42899851 C38.0643599,7.39910314 38.0313725,7.37219731 38.0163783,7.34230194 C37.9863743,7.28479724 37.9533409,7.22891453 37.9174164,7.17488789 C37.8964245,7.14499253 37.8724337,7.1180867 37.8514418,7.08819133 C37.8175715,7.04457491 37.7815406,7.00266936 37.7434833,6.96263079 L37.6655133,6.88789238 C37.6265283,6.85201794 37.5875433,6.81913303 37.5455594,6.78923767 L37.4615917,6.72944694 L37.3296424,6.65171898 L37.2456747,6.60687593 L37.0957324,6.54409567 L37.0207612,6.5142003 C36.9487889,6.49028401 36.8778162,6.47035376 36.8078431,6.45440957 C36.3297977,6.36407186 35.8378508,6.37732644 35.3653979,6.49327354 C35.3653979,6.49327354 33.9889273,8.51718984 34.5197232,9.24364723 L34.3457901,9.18983558 C34.3457901,9.18983558 24.122722,20.5500747 18.35594,22.6726457 C18.2079969,22.5729945 18.0550557,22.4793224 17.8971165,22.3916293 L17.8971165,20.2660688 C17.9018329,20.1774415 17.9018329,20.0886273 17.8971165,20 C17.8875277,19.9146313 17.8735143,19.8298144 17.8551326,19.7458894 L17.8971165,19.7219731 L18.0680507,19.6263079 L18.316955,19.4768311 L18.4758939,19.3751868 C18.5938485,19.2934728 18.7088043,19.2077728 18.8207612,19.1180867 L18.9497116,19.0074738 C19.0276817,18.941704 19.1026528,18.8729447 19.177624,18.8011958 L19.3095732,18.6726457 C19.4015379,18.5789736 19.489504,18.4793224 19.5734717,18.3736921 L19.666436,18.2600897 C19.7464052,18.1624315 19.822376,18.0627803 19.8943483,17.961136 L19.9873126,17.8236173 C20.0532872,17.7239661 20.116263,17.6243149 20.1762399,17.5246637 L20.233218,17.4230194 C20.3051903,17.2884903 20.3741638,17.1479821 20.4341407,17.0044843 L20.4851211,16.8789238 C20.5311034,16.7633284 20.5740869,16.6467364 20.6140715,16.529148 C20.6140715,16.4872945 20.6410611,16.4484305 20.6560554,16.406577 C20.7040369,16.2541106 20.7430219,16.1076233 20.7760092,15.9402093 C20.7760092,15.9103139 20.7760092,15.877429 20.7940023,15.8445441 C20.8199923,15.7110115 20.8409842,15.5754858 20.8569781,15.4379671 C20.8569781,15.3931241 20.8569781,15.3452915 20.8569781,15.3004484 C20.8719723,15.1330344 20.8839677,14.9626308 20.8839677,14.7922272 C20.8856942,13.5178025 20.4472921,12.2816307 19.6424452,11.2914798 C20.0802768,10.6098655 20.3651672,10.2092676 20.3651672,10.2092676 C20.1012687,10.0298954 19.8433679,9.86248132 19.5854671,9.70702541 L19.3365629,9.56053812 C19.1656286,9.45889387 18.9916955,9.35724963 18.8237601,9.26158445 L18.5238754,9.10911809 C18.3709343,9.0284006 18.2239908,8.95067265 18.0650519,8.87593423 L17.7651672,8.74140508 C17.6182238,8.67563528 17.4652826,8.60986547 17.3303345,8.55306428 L17.0304498,8.43946188 C16.8865052,8.38266069 16.7305652,8.33183857 16.5986159,8.28400598 L16.3287197,8.19431988 C16.1817762,8.14648729 16.0288351,8.10762332 15.8878893,8.06875934 L15.6479815,8.00298954 C15.483045,7.96412556 15.3211073,7.92825112 15.1591696,7.89835575 L14.9852364,7.86248132 C14.7663206,7.82361734 14.5474048,7.79372197 14.3314879,7.77279522 C12.9931573,7.6310132 11.6408001,7.83699621 10.4059977,8.37070254 C10.4719723,6.80418535 10.7358708,5.51569507 11.2876586,4.71748879 L11.1527105,4.67264574 L11.104729,4.71748879 C11.104729,4.71748879 10.9427912,4.75336323 10.693887,4.79820628 C10.6142215,4.92593102 10.5430943,5.0587555 10.4809689,5.19581465 C10.5912748,4.64240215 10.8038039,4.11424954 11.1077278,3.63826607 L10.9727797,3.59342302 C11.1677047,3.3961136 11.8724337,2.53213752 10.9247982,1.12107623 C9.84221453,-0.496263079 7.85697809,0.762331839 7.85697809,0.762331839 C7.70303005,1.29518246 7.60257501,1.84196424 7.55709343,2.39461883 C7.40415225,2.3348281 7.29919262,2.28699552 7.2272203,2.25112108 C6.27662052,5.59366831 5.75861837,9.0436625 5.68581315,12.5171898 C2.111188,17.5784753 0.629757785,25.0493274 0.341868512,26.6606876 L0.320876586,26.7892377 C0.29988466,26.9058296 0.29088812,26.9686099 0.29088812,26.9686099 L9.58731257,27.1838565 C9.58731257,27.2167414 9.58731257,27.2466368 9.58731257,27.2795217 L9.58731257,41.9521674 L2.80392157,56.2122571 C2.80392157,56.2122571 5.36793541,56.3049327 9.26643599,56.8101644 L8.19584775,64.4394619 L7.83898501,66.5799701 L14.2805075,66.5799701 C14.9972318,65.1539611 11.416609,64.4394619 11.416609,64.4394619 L11.3356401,64.4394619 L12.7331027,57.3213752 C13.3508651,57.4250125 13.9856209,57.5386148 14.6373702,57.6621824 C15.5939807,57.8461192 16.5635745,57.9550723 17.5372549,57.9880419 C18.3434522,58.0161915 19.1506222,57.9812061 19.9513264,57.8834081 C20.4221453,61.7428999 19.8043829,64.0478326 19.6844291,64.4424514 L19.6454441,64.4424514 L19.2885813,66.5829596 L25.7301038,66.5829596 C26.3538639,65.3393124 23.71188,64.6367713 23.0311419,64.490284 L23.0611303,64.2810164 C23.3931821,61.8733879 23.4785894,59.4383218 23.3160323,57.0134529 C24.1446475,56.6774605 24.9171862,56.2177956 25.6071511,55.6502242 L25.6971165,55.5724963 L25.7241061,55.5455904 L20.9259516,42.1315396 C21.8256055,38.3348281 18.7008074,34.3587444 20.3681661,32.3527653 C22.0355248,30.3467862 21.0129181,27.8146487 20.8299885,27.3811659 C25.3282584,25.4200299 34.4417532,20.5052317 36.9967705,11.9940209 C37.1842052,11.3955161 37.336406,10.7866063 37.4525952,10.1704036 C37.4525952,10.1704036 38.7420992,9.59043348 38.1813149,7.72795217 Z" id="Shape"></path>
                </g>
                <path d="M8.25882353,133.880419 C8.25882353,133.880419 3.37370242,149.237668 11.5575548,157.73991 L13.9236448,155.946188 C13.9236448,155.946188 9.08350634,139.183857 11.7914648,135.246637 C7.01730104,133.641256 8.25882353,133.880419 8.25882353,133.880419 Z" id="Shape" fill="#FF5A5F"></path>
                <path d="M11.6355248,135.234679 C11.6355248,135.234679 12.628143,134.409567 11.6355248,132.923767 C10.6429066,131.437967 8.82260669,132.594918 8.82260669,132.594918 C8.82260669,132.594918 8.15986159,134.738416 8.82260669,135.234679 C9.48535179,135.730942 11.6355248,135.234679 11.6355248,135.234679 Z" id="Shape" fill="#F6B9AD"></path>
                <path d="M15.688466,148.188341 L15.688466,148.188341 C16.9678938,148.188341 18.005075,149.225522 18.005075,150.50495 L18.005075,152.717771 C18.005075,153.997198 16.9678938,155.03438 15.688466,155.03438 L15.688466,155.03438 C14.4090382,155.03438 13.371857,153.997198 13.371857,152.717771 L13.371857,150.50495 C13.371857,149.225522 14.4090382,148.188341 15.688466,148.188341 Z" id="Rectangle-path" fill="#F6B9AD" transform="translate(15.688466, 151.611360) rotate(-180.000000) translate(-15.688466, -151.611360) "></path>
                <path d="M13.5997693,156.923767 C13.5997693,156.923767 8.81960784,140.367713 11.4226067,136.295964 C11.6535179,136.254111 11.8004614,136.221226 11.8004614,136.221226 L11.8424452,136.179372 L11.9653979,136.221226 C9.26643599,140.158445 14.0975779,156.920777 14.0975779,156.920777 L11.7314879,158.714499 L11.5245675,158.493274 L13.5997693,156.923767 Z" id="Shape" fill="#FFFFFF" opacity="0.2"></path>
                <ellipse id="Oval" fill="#F6B9AD" cx="15.6059977" cy="145.464873" rx="5.13102653" ry="5.11509716"></ellipse>
                <path d="M17.4262976,152.723468 L17.4262976,150.496263 C17.4256113,150.333375 17.4075161,150.171024 17.3723183,150.011958 C19.4282898,148.95536 20.5209105,146.658035 20.0402236,144.402467 C19.5595367,142.146899 17.6244014,140.490823 15.3151096,140.358744 L15.6149942,140.358744 C17.9758252,140.367555 20.0259415,141.981148 20.5822996,144.26838 C21.1386577,146.555613 20.0576527,148.926114 17.9630911,150.011958 C17.9982888,150.171024 18.0163841,150.333375 18.0170704,150.496263 L18.0170704,152.723468 C18.0221232,153.3878 17.7378986,154.021661 17.2379733,154.460963 C16.738048,154.900266 16.0715711,155.101821 15.4110727,155.013453 C16.5625352,154.859534 17.4231115,153.881625 17.4262976,152.723468 Z" id="Shape" fill="#FFFFFF" opacity="0.2"></path>
                <path d="M10.3940023,170.953662 C10.3940023,170.953662 20.2901961,172.068759 20.6560554,170.953662 C21.8376009,167.345291 18.6708189,163.458894 20.2602076,161.557549 C21.9035755,159.593423 20.6560554,156.932735 20.6560554,156.932735 C20.6560554,155.576127 20.1154666,154.275082 19.1532125,153.315816 C18.1909584,152.356549 16.8858617,151.817638 15.5250288,151.817638 C12.6912411,151.817638 10.3940023,154.107745 10.3940023,156.932735 L10.3940023,170.953662 Z" id="Shape" fill="#FF5A5F"></path>
                <path d="M20.272203,161.557549 C21.9155709,159.593423 20.6680507,156.932735 20.6680507,156.932735 C20.6680507,155.576127 20.127462,154.275082 19.1652079,153.315816 C18.2029537,152.356549 16.8978571,151.817638 15.5370242,151.817638 C15.4260669,151.817638 15.3181084,151.817638 15.2071511,151.835575 C17.9046105,152.007435 20.0044825,154.238164 20.0053057,156.932735 C20.0053057,156.932735 21.2528258,159.593423 19.6094579,161.557549 C18.0170704,163.461883 21.1838524,167.348281 20.0053057,170.953662 C19.8913495,171.297459 18.8717416,171.428999 17.516263,171.446936 C19.1896194,171.464873 20.5331027,171.351271 20.6620531,170.953662 C21.8615917,167.345291 18.6828143,163.458894 20.272203,161.557549 Z" id="Shape" fill="#FFFFFF" opacity="0.2"></path>
                <path d="M18.5628604,170.627803 C22.1824683,175.733931 23.771857,183.443946 22.7402537,190.863976 L22.7102653,191.085202 L19.6184544,191.085202 C19.6184544,191.085202 20.5750865,188.281016 19.6184544,183.330344 C19.0303282,180.365681 17.3642814,177.722122 14.9402537,175.907324 L11.9653979,191.085202 L9.09550173,191.085202 L11.9653979,170.627803 L18.5628604,170.627803 Z" id="Shape" fill="#F6B9AD"></path>
                <path d="M35.9561707,141.204783 C35.9561707,141.204783 37.1557093,140.705531 36.63391,138.995516 C36.1121107,137.285501 34.0399077,137.859492 34.0399077,137.859492 C34.0399077,137.859492 32.7773933,139.715994 33.2632065,140.382661 C33.7490196,141.049327 35.9561707,141.204783 35.9561707,141.204783 Z" id="Shape" fill="#F6B9AD"></path>
                <path d="M18.394925,157.754858 C18.394925,157.754858 33.7670127,152.789238 35.9561707,141.204783 L33.1072664,140.334828 C33.1072664,140.334828 21.7926182,152.926756 17.0064591,153.016442 C12.2202999,153.106129 18.394925,157.754858 18.394925,157.754858 Z" id="Shape" fill="#FF5A5F"></path>
                <path d="M35.422376,141.216741 L35.8961938,141.363229 C33.7190311,152.950673 18.3439446,157.916293 18.3439446,157.916293 L18.0710496,157.704036 C19.8793541,157.070254 33.3921569,152.023916 35.422376,141.216741 Z" id="Shape" fill="#FFFFFF" opacity="0.2"></path>
                <g id="Group" opacity="0.2" transform="translate(11.095732, 170.403587)" fill="#FFFFFF">
                    <path d="M3.18777393,5.50074738 L0.209919262,20.6786248 L0.869665513,20.6786248 L3.76055363,5.9431988 C3.57730113,5.786098 3.38612595,5.63842215 3.18777393,5.50074738 Z" id="Shape"></path>
                    <path d="M7.46712803,0.224215247 L6.81038062,0.224215247 C10.4299885,5.3303438 12.0193772,13.0403587 10.9877739,20.4603886 L10.9577855,20.6816143 L11.6145329,20.6816143 L11.6445213,20.4603886 C12.6701269,13.0403587 11.0657439,5.32735426 7.46712803,0.224215247 Z" id="Shape"></path>
                </g>
                <path d="M35.6292964,141.115097 C35.6292964,141.115097 36.8288351,140.615845 36.3070358,138.90583 C36.1817435,138.415117 35.8283191,138.013887 35.3564014,137.826607 C35.9719764,137.937861 36.4668738,138.395066 36.6249135,138.998505 C37.1377163,140.70852 35.9471742,141.207773 35.9471742,141.207773 C35.2941001,141.157612 34.6484994,141.036311 34.0219146,140.846039 C34.5492822,140.980076 35.0869361,141.070073 35.6292964,141.115097 Z" id="Shape" fill="#FFFFFF" opacity="0.2"></path>
                <path d="M10.3940023,170.394619 L4.16839677,183.491779 C7.8074885,183.67261 11.4291616,184.110177 15.0062284,184.801196 C21.9035755,186.110613 25.1873126,182.83707 25.1873126,182.83707 L20.7400231,170.397608 L10.3940023,170.394619 Z" id="Shape" fill="#263238"></path>
                <path d="M12.0493656,191.022422 C12.0493656,191.022422 15.3480969,191.67713 14.6763552,192.986547 L8.7656286,192.986547 L9.09550173,191.022422 L12.0493656,191.022422 Z" id="Shape" fill="#FF5A5F"></path>
                <path d="M22.5573241,191.022422 C22.5573241,191.022422 25.8560554,191.67713 25.1843137,192.986547 L19.2735871,192.986547 L19.6034602,191.022422 L22.5573241,191.022422 Z" id="Shape" fill="#FF5A5F"></path>
                <path d="M20.2602076,141.258595 C20.2602076,141.258595 12.3762399,152.38864 15.9898501,156.959641 L1.86828143,156.630792 C1.86828143,156.630792 5.80876586,131.437967 20.2602076,141.258595 Z" id="Shape" fill="#FFBA08"></path>
                <path d="M20.2602076,141.258595 C18.2239908,139.874439 16.3976932,139.186846 14.760323,139.025411 C16.1384184,139.457426 17.4405507,140.100923 18.6198385,140.932735 C18.6198385,140.932735 10.7388697,152.06278 14.349481,156.648729 L1.91926182,156.349776 C1.88627451,156.535127 1.87128028,156.648729 1.87128028,156.648729 L15.9928489,156.977578 C12.3762399,152.38864 20.2602076,141.258595 20.2602076,141.258595 Z" id="Shape" fill="#FFFFFF" opacity="0.2"></path>
                <path d="M20.7370242,170.394619 L19.7623991,170.394619 L24.2096886,182.834081 C24.2096886,182.834081 22.0865052,184.944694 17.6752018,185.09716 C22.755248,185.258595 25.1933103,182.834081 25.1933103,182.834081 L20.7370242,170.394619 Z" id="Shape" fill="#FFFFFF" opacity="0.2"></path>
                <path d="M12.0493656,191.022422 L11.3926182,191.022422 C11.3926182,191.022422 14.6913495,191.67713 14.0196078,192.986547 L14.6643599,192.986547 C15.3331027,191.67713 12.0493656,191.022422 12.0493656,191.022422 Z" id="Shape" fill="#FFFFFF" opacity="0.2"></path>
                <path d="M22.5573241,191.022422 L21.9005767,191.022422 C21.9005767,191.022422 25.199308,191.67713 24.5275663,192.986547 L25.1843137,192.986547 C25.8410611,191.67713 22.5573241,191.022422 22.5573241,191.022422 Z" id="Shape" fill="#FFFFFF" opacity="0.2"></path>
                <g id="Group" opacity="0.2" transform="translate(247.404844, 135.426009)" fill="url(#linearGradient-4)">
                    <path d="M0.188927336,0.107810646 L0.238927336,0.227810646 C0.638927336,-0.0321893537 0.188927336,0.107810646 0.188927336,0.107810646 Z" id="Shape"></path>
                </g>
                <g id="Group" opacity="0.2" transform="translate(225.213379, 133.931241)" fill="url(#linearGradient-5)">
                    <path d="M26.15594,56.5112108 L31.3649366,55.0164425 L30.2583622,51.8834081 L30.2433679,51.838565 L30.2253749,51.838565 L24.4196078,35.0463378 L22.9201845,22.4753363 C22.9014236,22.3156067 22.874398,22.1569498 22.8392157,22 C27.5803922,13.9043348 22.8392157,2.6367713 22.4163783,1.65620329 C22.3623991,1.69207773 22.2784314,1.73991031 22.1584775,1.80568012 C22.0647712,1.35554979 21.9261341,0.915892354 21.7446367,0.493273543 C21.7446367,0.493273543 19.9903114,-0.349775785 19.2585928,1.09118087 C18.6198385,2.34379671 19.2795848,2.98654709 19.4625144,3.13004484 L19.3575548,3.18086697 C19.6533171,3.5428409 19.8790606,3.95643293 20.0232987,4.40059791 C19.9579131,4.29637944 19.8857882,4.19651687 19.8073818,4.10164425 C19.5974625,4.10164425 19.4595156,4.07473842 19.4595156,4.07473842 L19.4175317,4.04185351 L19.3125721,4.09267564 C19.9753172,4.8490284 20.3441753,6.2690583 20.5121107,8.00597907 C20.2875321,7.75974553 20.0416805,7.53366404 19.7773933,7.3303438 C18.6300142,6.47061613 17.2034808,6.06582226 15.7739331,6.19431988 L15.5130334,6.22421525 C15.3650903,6.24414549 15.2191465,6.27105132 15.0752018,6.30493274 L14.9672434,6.32884903 L14.7843137,6.37668161 L14.5743945,6.44245142 L14.4244521,6.49327354 L14.1665513,6.59491779 L14.0705882,6.6367713 C13.9656286,6.68460389 13.860669,6.73542601 13.7707036,6.78923767 C13.433822,7.00484332 13.0749521,7.18422227 12.7001153,7.32436472 C12.6491349,7.33931241 12.5951557,7.34828102 12.5441753,7.36023916 C12.1114738,7.44233569 11.6635935,7.37038945 11.2786621,7.15695067 L11.1497116,7.07922272 C11.0999687,7.04681888 11.0519242,7.01189516 11.005767,6.97458894 C10.9791251,7.0937044 10.9791251,7.21720741 11.005767,7.33632287 C11.0638082,7.6199892 11.2319631,7.86928936 11.4735871,8.02989537 C11.5408386,8.0760776 11.6133096,8.11420743 11.689504,8.14349776 C11.8032254,8.18687665 11.9247496,8.20621942 12.0463668,8.20029895 C12.0876747,8.1984651 12.1287801,8.19346781 12.1693195,8.18535127 L12.139331,8.20328849 C12.0673587,8.24813154 11.9953864,8.28998505 11.9204152,8.32585949 L11.905421,8.32585949 C11.8244521,8.36472347 11.7434833,8.40059791 11.6625144,8.43348281 C11.247216,8.59198364 10.8004642,8.65136561 10.3580161,8.60687593 L10.2140715,8.58893871 C10.1420992,8.58893871 10.0701269,8.56801196 10.0011534,8.55007474 C10.0288079,8.59642605 10.0588361,8.64132844 10.0911188,8.68460389 L10.1241061,8.72346786 L10.1930796,8.80717489 L10.2320646,8.8490284 L10.3070358,8.92376682 L10.3490196,8.96263079 L10.438985,9.03437967 L10.4749712,9.0612855 L10.6069204,9.14798206 L10.6519031,9.17189836 L10.7478662,9.22272048 L10.810842,9.24962631 L10.8948097,9.28550075 L10.9637832,9.30941704 L11.0477509,9.33632287 L11.1167243,9.35724963 L11.2126874,9.37817638 L11.3296424,9.39910314 L11.416609,9.39910314 L11.5005767,9.39910314 L11.7344867,9.39910314 L11.8214533,9.39910314 L11.8934256,9.39910314 L11.9773933,9.39910314 C12.1435566,9.36517487 12.3034095,9.30566829 12.4512111,9.22272048 C12.3582468,9.27952167 12.2622837,9.3303438 12.1513264,9.38116592 L12.0073818,9.4529148 L11.8574394,9.52466368 L11.710496,9.59043348 L11.5575548,9.65321375 L11.4106113,9.71001495 L11.2516724,9.76681614 L11.104729,9.81464873 L10.9367935,9.86547085 L10.7958478,9.90433483 L10.6129181,9.94917788 L10.4809689,9.97907324 L10.2710496,10.0179372 L10.1600923,10.0358744 L9.84221453,10.077728 C10.0290579,10.1079735 10.2076801,10.176148 10.3670127,10.2780269 C10.4689613,10.3338996 10.5778596,10.3761175 10.6908881,10.4035874 C10.7408182,10.4067602 10.7909003,10.4067602 10.8408304,10.4035874 L11.0267589,10.4035874 L11.1497116,10.4035874 L11.3086505,10.3826607 L11.4286044,10.3826607 L11.572549,10.3826607 C11.8741926,10.377294 12.1735849,10.4353567 12.4512111,10.5530643 C12.5977824,10.6221018 12.7324116,10.7139306 12.8500577,10.8251121 C12.8140715,10.9028401 12.7780854,10.9835575 12.745098,11.064275 C12.7121107,11.1449925 12.6911188,11.2047833 12.667128,11.2735426 C12.6191465,11.4150473 12.5771626,11.5585451 12.5411765,11.7040359 C12.4156651,12.2305544 12.3841959,12.7750012 12.4482122,13.3124066 C12.4482122,13.4110613 12.4752018,13.509716 12.4931949,13.6113602 L12.5081892,13.6920777 C12.524183,13.7698057 12.5421761,13.8465371 12.5621684,13.922272 L12.5621684,13.9820628 C12.5881584,14.0757349 12.6161476,14.1684106 12.6461361,14.2600897 L12.667128,14.3139013 C12.693118,14.3896363 12.7211073,14.4643747 12.7510957,14.5381166 L12.7780854,14.6038864 C12.8549973,14.7816704 12.9431403,14.9544136 13.0419839,15.1210762 L13.0719723,15.1718984 C13.1179546,15.2476333 13.1659362,15.3213752 13.215917,15.3931241 L13.215917,15.4140508 C13.2738947,15.4957648 13.3338716,15.5754858 13.3958478,15.6532138 L13.3958478,15.671151 C13.4538255,15.7428999 13.5138024,15.8126557 13.5757785,15.8804185 L13.5967705,15.9043348 C13.7325619,16.0520649 13.8778102,16.1908707 14.0316032,16.3198804 C14.4308951,16.6506737 14.8829888,16.9123974 15.3690888,17.0941704 C15.3653312,17.1658704 15.3653312,17.2377171 15.3690888,17.309417 C15.3651762,17.3831074 15.3651762,17.4569524 15.3690888,17.5306428 L15.5730104,19.2466368 C15.4810458,19.3104136 15.3910804,19.3771799 15.3031142,19.4469357 C10.9997693,18.077728 3.35570934,5.67414051 3.35570934,5.67414051 L3.20876586,5.69207773 C3.74855825,5.17787743 2.92687428,3.32436472 2.92687428,3.32436472 C2.55002768,3.1555495 2.14041537,3.07183966 1.72733564,3.07922272 L1.64636678,3.07922272 L1.61038062,3.07922272 L1.54740484,3.07922272 L1.50841984,3.07922272 L1.44844291,3.07922272 L1.40645905,3.07922272 L1.34948097,3.07922272 L1.30749712,3.07922272 L1.24752018,3.09715994 L1.20853518,3.09715994 L1.1455594,3.12406577 L1.11257209,3.12406577 L1.01960784,3.17189836 L0.932641292,3.22571001 L0.902652826,3.24663677 L0.842675894,3.29147982 L0.809688581,3.31838565 L0.758708189,3.36621824 L0.725720877,3.39910314 L0.677739331,3.44992526 L0.644752018,3.4857997 L0.596770473,3.54559043 L0.566782007,3.58445441 L0.518800461,3.65919283 L0.494809689,3.69506726 C0.470818916,3.73393124 0.44982699,3.77279522 0.425836217,3.81464873 C-0.305882353,5.24962631 0.671741638,5.88639761 0.671741638,5.88639761 C0.675436977,6.40512386 0.709481728,6.9231936 0.773702422,7.43796712 C1.84429066,17.0254111 13.0059977,23.2346786 13.5757785,23.5455904 C13.4168397,24.1704036 12.1333333,29.6980568 15.0752018,36.0568012 C15.083484,36.0718971 15.093552,36.0859486 15.1051903,36.0986547 C10.6345032,41.2987096 9.25551575,48.4678769 11.4795848,54.9476831 L11.5455594,55.142003 L11.6415225,55.142003 C11.6378457,55.1871243 11.63184,55.2320268 11.6235294,55.2765321 C11.607086,55.357012 11.5840167,55.4360038 11.5545559,55.5127055 C11.5037969,55.6456454 11.4373555,55.7720942 11.3566321,55.8893871 C11.2696655,56.0179372 11.1647059,56.1494768 11.0567474,56.284006 L10.9427912,56.4245142 C10.4809689,56.980568 10.0161476,57.5216741 10.4269896,57.671151 L10.7268743,57.6352765 L16.088812,57.1091181 L15.7889273,54.6696562 L15.8878893,54.6696562 C15.8878893,54.6696562 15.8399077,54.5979073 15.7619377,54.4603886 L15.7619377,54.4155456 L15.7439446,54.4155456 C15.3600923,53.6950673 14.4124567,51.4409567 15.0692042,47.7189836 C15.8788927,43.1240658 20.8089965,40.2929746 20.8089965,40.2929746 L20.9409458,40.5919283 L20.9229527,40.5919283 L26.5757785,53.4469357 C26.5757785,53.4977578 26.5757785,53.5515695 26.5757785,53.6083707 C26.5721301,53.7369969 26.5570772,53.8650493 26.5307958,53.9910314 C26.5113444,54.0922645 26.4852993,54.1921271 26.4528258,54.2899851 C26.2638985,54.8370703 25.9010381,55.4857997 25.76609,55.9730942 C25.746643,56.0387887 25.7316154,56.1057036 25.7211073,56.1733931 C25.7061506,56.2494002 25.7061506,56.3275803 25.7211073,56.4035874 C25.7444199,56.5013359 25.8209783,56.5776566 25.9190311,56.6008969 L25.9910035,56.5799701 L26.1469435,56.5351271 L26.15594,56.5112108 Z M20.0862745,18.7533632 C19.9763168,18.7075237 19.8653595,18.6666667 19.7534025,18.6307922 L19.5644752,17.0254111 C19.5493751,16.9027536 19.5232808,16.7816915 19.4865052,16.6636771 C19.8167176,16.4544121 20.1190085,16.2042896 20.3861592,15.9192825 C20.2961938,16.9476831 20.1882353,17.9103139 20.0862745,18.7533632 Z" id="Shape"></path>
                </g>
                <path d="M226.002076,141.327354 C226.002076,141.327354 224.919493,140.624813 225.729181,139.03438 C226.53887,137.443946 228.485121,138.376682 228.485121,138.376682 C228.485121,138.376682 229.384775,140.430493 228.785006,140.998505 C228.185236,141.566517 226.002076,141.327354 226.002076,141.327354 Z" id="Shape" fill="#CA7070"></path>
                <path d="M242.663668,194.96562 L238.132411,195.497758 C238.209637,195.920808 238.100369,196.356522 237.832526,196.693572 C237.304729,197.467862 236.180161,198.460389 236.791926,198.681614 L243.008535,197.949178 L242.663668,194.96562 Z" id="4d99488d-df05-4ea4-b0bc-86897bea43e0" fill="#087E8B"></path>
                <path d="M238.171396,196.669656 C238.439239,196.332606 238.548507,195.896892 238.47128,195.473842 L238.141407,195.512706 C238.218634,195.935756 238.109366,196.37147 237.841522,196.70852 C237.313725,197.48281 236.189158,198.475336 236.800923,198.696562 L237.130796,198.657698 C236.52203,198.436472 237.646597,197.443946 238.171396,196.669656 Z" id="Shape" fill="#FFFFFF" opacity="0.2"></path>
                <path d="M258.686505,192.13154 L254.521107,193.327354 C254.697773,193.81612 254.692452,194.351887 254.506113,194.83707 C254.158247,195.850523 253.261592,197.207773 253.906344,197.396114 L259.928028,195.683109 L258.686505,192.13154 Z" id="4d5dc8b9-511c-4b13-afe4-1a204679192b" fill="#087E8B"></path>
                <path d="M249.98985,136.472347 C249.98985,136.472347 256.64729,151.150972 249.516032,160.553064 L246.955017,159.037369 C246.955017,159.037369 249.788927,141.823617 246.634141,138.233184 C251.195386,136.098655 249.98985,136.472347 249.98985,136.472347 Z" id="Shape" fill="#087E8B"></path>
                <path d="M246.799077,138.212257 C246.799077,138.212257 245.716494,137.509716 246.526182,135.919283 C247.335871,134.328849 249.282122,135.261584 249.282122,135.261584 C249.282122,135.261584 250.181776,137.315396 249.582007,137.883408 C248.982238,138.45142 246.799077,138.212257 246.799077,138.212257 Z" id="Shape" fill="#CA7070"></path>
                <path d="M254.835986,194.798206 C255.022325,194.313023 255.027646,193.777256 254.85098,193.28849 L258.704498,192.185351 L258.686505,192.134529 L254.521107,193.330344 C254.697773,193.81911 254.692452,194.354877 254.506113,194.84006 C254.158247,195.853513 253.261592,197.210762 253.906344,197.399103 L254.158247,197.327354 C253.672434,197.046338 254.500115,195.766816 254.835986,194.798206 Z" id="Shape" fill="#FFFFFF" opacity="0.2"></path>
                <path d="M244.702388,151.517552 L244.702388,151.517552 C245.981816,151.517552 247.018997,152.554733 247.018997,153.834161 L247.018997,156.046982 C247.018997,157.326409 245.981816,158.363591 244.702388,158.363591 L244.702388,158.363591 C243.42296,158.363591 242.385779,157.326409 242.385779,156.046982 L242.385779,153.834161 C242.385779,152.554733 243.42296,151.517552 244.702388,151.517552 Z" id="Rectangle-path" fill="#CA7070" transform="translate(244.702388, 154.940571) rotate(-6.740000) translate(-244.702388, -154.940571) "></path>
                <path d="M247.398847,159.982063 C247.398847,159.982063 250.19677,142.980568 247.134948,139.246637 C246.901038,139.246637 246.751096,139.216741 246.751096,139.216741 L246.703114,139.180867 L246.586159,139.234679 C249.740946,142.822123 246.907036,160.038864 246.907036,160.038864 L249.468051,161.554559 C249.528028,161.473842 249.588005,161.393124 249.644983,161.309417 L247.398847,159.982063 Z" id="Shape" fill="#FFFFFF" opacity="0.2"></path>
                <ellipse id="Oval" fill="#CA7070" transform="translate(244.060533, 148.827538) rotate(-6.740000) translate(-244.060533, -148.827538) " cx="244.060533" cy="148.827538" rx="5.13102653" ry="5.11509716"></ellipse>
                <path d="M243.104498,156.2571 L242.843599,154.044843 C242.826236,153.882873 242.826236,153.719519 242.843599,153.557549 C240.67805,152.749612 239.322104,150.597551 239.532265,148.302035 C239.742426,146.006518 241.466768,144.134718 243.743253,143.730942 L243.443368,143.754858 C241.09557,144.034907 239.243747,145.878145 238.959218,148.218221 C238.674689,150.558297 240.031138,152.78921 242.243829,153.620329 C242.226467,153.782299 242.226467,153.945653 242.243829,154.107623 L242.504729,156.31988 C242.577682,156.980437 242.934518,157.576951 243.482813,157.95492 C244.031108,158.332889 244.716924,158.455132 245.36263,158.289985 C244.207743,158.265949 243.245844,157.399999 243.104498,156.2571 Z" id="Shape" fill="#FFFFFF" opacity="0.2"></path>
                <path d="M252.232987,173.539611 C252.232987,173.539611 242.537716,175.802691 242.036909,174.735426 C238.567243,167.261584 240.387543,160.810164 240.387543,160.810164 C240.227881,159.46217 240.612218,158.106186 241.455917,157.040819 C242.299616,155.975451 243.533486,155.28807 244.885813,155.130045 C246.238005,154.970879 247.598212,155.354022 248.666897,156.195102 C249.735583,157.036181 250.425105,158.266221 250.583622,159.61435 L252.232987,173.539611 Z" id="Shape" fill="#087E8B"></path>
                <path d="M252.232987,173.539611 L259.070358,193.333333 L254.632065,193.856502 L248.244521,179.324365 C248.244521,179.324365 242.783622,182.460389 241.886967,187.54858 C240.990311,192.636771 242.786621,195.249626 242.786621,195.249626 L238.042445,195.823617 L237.967474,195.608371 C235.496441,188.429717 237.04949,180.482377 242.042907,174.753363" id="Shape" fill="#263238"></path>
                <path d="M242.618685,174.672646 C239.14902,167.198804 240.969319,160.747384 240.969319,160.747384 C240.652621,158.069835 242.475049,155.606927 245.134717,155.118087 C245.02376,155.118087 244.915802,155.118087 244.804844,155.144993 C243.452517,155.303017 242.218647,155.990399 241.374948,157.055766 C240.531249,158.121134 240.146912,159.477118 240.306574,160.825112 C240.306574,160.825112 238.486275,167.270553 241.95594,174.750374 C242.132872,175.130045 243.488351,175.085202 245.158708,174.869955 C243.809227,175.010463 242.771626,175.001495 242.618685,174.672646 Z" id="Shape" fill="#FFFFFF" opacity="0.2"></path>
                <path d="M240.303576,160.741405 C240.303576,160.741405 226.068051,153.115097 226.005075,141.327354 L228.961938,140.977578 C228.961938,140.977578 237.835525,155.381166 242.52872,156.325859 C247.221915,157.270553 240.303576,160.741405 240.303576,160.741405 Z" id="Shape" fill="#087E8B"></path>
                <g id="Group" opacity="0.2" transform="translate(236.608997, 174.588939)" fill="#FFFFFF">
                    <path d="M11.7704729,5.09118087 L18.0410611,19.3572496 L18.6978085,19.2795217 L12.3102653,4.74738416 C12.3102653,4.74738416 12.1063437,4.85799701 11.7704729,5.09118087 Z" id="Shape"></path>
                    <path d="M6.10265283,0.155455904 L5.44590542,0.233183857 C0.452488694,5.96219717 -1.10056028,13.9095372 1.3704729,21.0881913 L1.44544406,21.303438 L2.10219146,21.22571 L2.0272203,21.0104634 C-0.443812873,13.8318092 1.1092361,5.88446922 6.10265283,0.155455904 Z" id="Shape"></path>
                </g>
                <path d="M226.514879,141.431988 L226.023068,141.488789 C226.086044,153.276532 240.321569,160.90284 240.321569,160.90284 L240.621453,160.741405 C238.978085,159.802691 226.574856,152.427504 226.514879,141.431988 Z" id="Shape" fill="#FFFFFF" opacity="0.2"></path>
                <path d="M239.724798,147.046338 C240.132641,147.644245 240.324567,148.346786 240.561476,149.019432 C241.068281,150.403587 241.961938,151.73991 243.317416,152.325859 C244.067053,152.624395 244.876032,152.745161 245.680507,152.678625 C246.901038,152.612855 248.187543,152.221226 248.946251,151.264574 C249.412026,150.619959 249.685445,149.857177 249.734948,149.064275 C249.981047,146.674038 248.994154,144.322528 247.113956,142.819133 C245.236678,141.384155 242.510727,141.09716 240.435525,142.221226 C240.063003,142.461737 239.665932,142.662162 239.25098,142.819133 C238.600522,143.003108 237.900935,142.859161 237.376701,142.433483 C237.310369,142.792493 237.4202,143.161483 237.672224,143.426321 C237.924247,143.691159 238.288089,143.819926 238.651211,143.772795 C237.932617,144.228012 237.061553,144.378657 236.231142,144.19133 C236.807892,145.102726 237.989191,145.421181 238.948097,144.923767 C238.070094,145.444084 237.088496,145.766526 236.072203,145.86846 C236.285121,145.847534 236.743945,146.185351 237.010842,146.230194 C237.3394,146.243857 237.668528,146.228853 237.994464,146.185351 C238.685126,146.138596 239.347117,146.467992 239.724798,147.046338 Z" id="Shape" fill="#263238"></path>
                <g id="Group" opacity="0.2" transform="translate(236.009227, 141.405082)" fill="#FFFFFF">
                    <path d="M2.63898501,2.367713 C2.28302467,2.59342847 1.88537647,2.74589527 1.46943483,2.8161435 C2.00231922,2.7815991 2.51793571,2.61402997 2.96885813,2.32884903 C2.64716896,2.36837011 2.3235585,2.27198275 2.07634381,2.06301369 C1.82912911,1.85404462 1.6808381,1.55153655 1.66735871,1.22869955 C1.56139767,1.17132377 1.46100576,1.10427001 1.36747405,1.0284006 C1.30137935,1.38682978 1.41085522,1.75518238 1.66214247,2.01986916 C1.91342972,2.28455593 2.27634843,2.41378765 2.63898501,2.367713 Z" id="Shape"></path>
                    <path d="M3.56862745,1.37518685 C3.98357925,1.2182155 4.38065054,1.01779091 4.75317186,0.777279522 C5.34959104,0.457108538 5.99850213,0.245525791 6.66943483,0.152466368 C5.88431656,0.217715341 5.12092051,0.442563952 4.42629758,0.813153961 C4.05377626,1.05366535 3.65670497,1.25408994 3.24175317,1.41106129 C3.18477509,1.42899851 3.12479815,1.43796712 3.06782007,1.44992526 C3.23728013,1.44652501 3.40559737,1.42140605 3.56862745,1.37518685 Z" id="Shape"></path>
                    <path d="M1.32848904,4.7922272 C1.0615917,4.74738416 0.602768166,4.40956652 0.389850058,4.43049327 C1.40614305,4.32855882 2.38774143,4.00611657 3.26574394,3.4857997 C3.06617991,3.59702131 2.84749803,3.67002696 2.62099193,3.70104634 C1.82476502,4.11880082 0.955236264,4.37966163 0.0599769319,4.46935725 C0.27289504,4.44843049 0.73171857,4.78624813 0.998615917,4.83109118 C1.22851814,4.85828927 1.46128329,4.84920935 1.68835063,4.80418535 C1.56836751,4.81522995 1.44746805,4.81121248 1.32848904,4.7922272 Z" id="Shape"></path>
                    <path d="M10.0011534,11.2346786 C9.19667808,11.3012146 8.38769925,11.1804492 7.63806228,10.8819133 C6.28258362,10.284006 5.38892734,8.95964126 4.88212226,7.5754858 C4.63621684,6.90284006 4.45628604,6.19133034 4.04544406,5.60239163 C3.66722628,5.023068 3.00381323,4.69353548 2.31211073,4.74140508 C2.14828235,4.7442297 1.98489275,4.75921887 1.82329873,4.78624813 C1.87727797,4.78624813 1.92825836,4.78624813 1.98523645,4.78624813 C2.67693896,4.73837853 3.340352,5.06791105 3.71856978,5.64723468 C4.12641292,6.245142 4.3183391,6.94768311 4.55524798,7.62032885 C5.06205306,9.0044843 5.95570934,10.3408072 7.311188,10.9267564 C8.06082497,11.2252922 8.8698038,11.3460576 9.67427912,11.2795217 C9.86320646,11.2795217 10.0551326,11.2496263 10.2470588,11.2227205 L10.0011534,11.2346786 Z" id="Shape"></path>
                    <path d="M2.41107266,3.71300448 C1.7029359,3.74541702 1.02622146,3.4193538 0.611764706,2.84603886 C0.478648262,2.83473927 0.346416393,2.81476634 0.215916955,2.78624813 C0.683639701,3.51956636 1.55730783,3.88841376 2.41107266,3.71300448 Z" id="Shape"></path>
                </g>
                <path d="M226.331949,141.28849 C226.331949,141.28849 225.249366,140.585949 226.059054,138.995516 C226.269549,138.532902 226.690147,138.199248 227.189619,138.098655 C226.564341,138.098683 225.995823,138.460192 225.73218,139.025411 C224.919493,140.615845 226.005075,141.318386 226.005075,141.318386 C226.655869,141.389608 227.312528,141.389608 227.963322,141.318386 C227.419643,141.353658 226.87396,141.343658 226.331949,141.28849 Z" id="Shape" fill="#FFFFFF" opacity="0.2"></path>
                <path d="M121.270358,195.040359 L125.831603,195.040359 C125.798076,195.474074 125.955735,195.900833 126.263437,196.209268 C126.878201,196.917788 128.110727,197.769806 127.531949,198.06278 L121.270358,198.06278 L121.270358,195.040359 Z" id="f4b599d8-1b16-43a9-9308-cf9102d9bdf1" fill="#0C4F6C"></path>
                <path d="M125.921569,196.209268 C125.613866,195.900833 125.456207,195.474074 125.489735,195.040359 L125.819608,195.040359 C125.78608,195.474074 125.943739,195.900833 126.251442,196.209268 C126.866205,196.917788 128.098731,197.769806 127.519954,198.06278 L127.190081,198.06278 C127.777855,197.769806 126.545329,196.917788 125.921569,196.209268 Z" id="Shape" fill="#FFFFFF" opacity="0.2"></path>
                <path d="M105.022607,194.101644 L109.298962,194.798206 C109.182449,195.303664 109.251609,195.834015 109.493887,196.292975 C109.958708,197.258595 110.99331,198.499253 110.378547,198.765321 L104.197924,197.769806 L105.022607,194.101644 Z" id="0e0e20dd-ea7e-4aa3-ac26-380ed6cfbd4b" fill="#0C4F6C"></path>
                <path d="M109.164014,196.298954 C108.921736,195.839994 108.852576,195.309643 108.969089,194.804185 L105.010611,194.158445 L105.010611,194.107623 L109.286967,194.804185 C109.170454,195.309643 109.239614,195.839994 109.481892,196.298954 C109.946713,197.264574 110.981315,198.505232 110.366551,198.7713 L110.108651,198.729447 C110.585467,198.394619 109.607843,197.219731 109.164014,196.298954 Z" id="Shape" fill="#FFFFFF" opacity="0.2"></path>
                <path d="M114.539446,152.116592 L114.539446,152.116592 C115.818874,152.116592 116.856055,153.153773 116.856055,154.433201 L116.856055,156.646022 C116.856055,157.92545 115.818874,158.962631 114.539446,158.962631 L114.539446,158.962631 C113.260019,158.962631 112.222837,157.92545 112.222837,156.646022 L112.222837,154.433201 C112.222837,153.153773 113.260019,152.116592 114.539446,152.116592 Z" id="Rectangle-path" fill="#985454" transform="translate(114.539446, 155.539611) rotate(-180.000000) translate(-114.539446, -155.539611) "></path>
                <ellipse id="Oval" fill="#985454" cx="114.456978" cy="149.393124" rx="5.13102653" ry="5.11509716"></ellipse>
                <path d="M116.277278,156.660688 L116.277278,154.433483 C116.276592,154.270595 116.258496,154.108243 116.223299,153.949178 C118.27927,152.89258 119.371891,150.595254 118.891204,148.339687 C118.410517,146.084119 116.475382,144.428043 114.16609,144.295964 L114.465975,144.295964 C116.833689,144.296836 118.893362,145.912689 119.450849,148.206692 C120.008336,150.500696 118.91886,152.877108 116.814072,153.958146 C116.849269,154.117212 116.867364,154.279563 116.868051,154.442451 L116.868051,156.660688 C116.873104,157.32502 116.588879,157.958881 116.088954,158.398183 C115.589028,158.837486 114.922552,159.039041 114.262053,158.950673 C115.413516,158.796754 116.274092,157.818845 116.277278,156.660688 Z" id="Shape" fill="#FFFFFF" opacity="0.2"></path>
                <path d="M109.244983,174.896861 C109.244983,174.896861 119.141176,176.011958 119.507036,174.896861 C122.07105,167.061286 119.507036,160.872945 119.507036,160.872945 C119.507036,159.516337 118.966447,158.215292 118.004193,157.256025 C117.041939,156.296758 115.736842,155.757848 114.376009,155.757848 C111.552728,155.757809 109.259833,158.031562 109.244983,160.846039 L109.244983,174.896861 Z" id="Shape" fill="#0C4F6C"></path>
                <path d="M109.244983,174.896861 L104.776701,195.35426 L109.244983,195.35426 L113.878201,180.176383 C113.878201,180.176383 119.671972,182.651719 121.1594,187.599402 C122.646828,192.547085 121.1594,195.35426 121.1594,195.35426 L125.957555,195.35426 L126.005536,195.133034 C127.615412,187.714389 125.13779,180.002693 119.504037,174.896861" id="Shape" fill="#263238"></path>
                <path d="M118.92526,174.896861 C121.489273,167.061286 118.92526,160.872945 118.92526,160.872945 C118.924634,158.177238 116.825511,155.944688 114.127105,155.769806 C114.238062,155.769806 114.346021,155.769806 114.456978,155.769806 C117.275611,155.769725 119.566589,158.036238 119.588005,160.846039 C119.588005,160.846039 122.152018,167.03139 119.588005,174.869955 C119.456055,175.267564 118.103576,175.381166 116.421223,175.363229 C117.785698,175.35725 118.811303,175.2287 118.92526,174.896861 Z" id="Shape" fill="#FFFFFF" opacity="0.2"></path>
                <g id="Group" opacity="0.2" transform="translate(108.558247, 174.887892)" fill="#FFFFFF">
                    <path d="M5.23298731,5.63527653 L0.683737024,20.5351271 L0.0209919262,20.5351271 L4.65420992,5.35724963 C4.65420992,5.35724963 4.87612457,5.44992526 5.23298731,5.63527653 Z" id="Shape"></path>
                    <path d="M10.283045,0.0777279522 L10.9457901,0.0777279522 C16.5795431,5.18355965 19.0571652,12.8952564 17.4472895,20.3139013 L17.399308,20.5351271 L16.7365629,20.5351271 L16.7845444,20.3139013 C18.3944201,12.8952564 15.916798,5.18355965 10.283045,0.0777279522 Z" id="Shape"></path>
                </g>
                <path d="M115.662514,160.77429 C115.662514,160.77429 130.638754,154.720478 131.97624,143.007474 L129.073356,142.343797 C129.073356,142.343797 118.694348,155.713004 113.926182,156.143498 C109.158016,156.573991 115.662514,160.77429 115.662514,160.77429 Z" id="Shape" fill="#0C4F6C"></path>
                <path d="M131.454441,143.058296 L131.937255,143.168909 C130.599769,154.881913 115.623529,160.935725 115.623529,160.935725 L115.323645,160.741405 C117.092964,159.985052 130.20692,153.970105 131.454441,143.058296 Z" id="Shape" fill="#FFFFFF" opacity="0.2"></path>
                <path d="M131.724337,143.207773 C131.724337,143.207773 132.875894,142.624813 132.243137,140.956652 C131.610381,139.28849 129.574164,140.008969 129.574164,140.008969 C129.574164,140.008969 128.446597,141.952167 128.974394,142.58296 C129.502191,143.213752 131.724337,143.207773 131.724337,143.207773 Z" id="Shape" fill="#985454"></path>
                <path d="M131.400461,143.142003 C131.400461,143.142003 132.552018,142.559043 131.919262,140.890882 C131.757347,140.411283 131.374986,140.037888 130.890657,139.886398 C131.512885,139.953553 132.039434,140.374651 132.240138,140.96562 C132.875894,142.633782 131.721338,143.216741 131.721338,143.216741 C131.066433,143.214029 130.413794,143.139845 129.775087,142.995516 C130.311849,143.089323 130.855526,143.138322 131.400461,143.142003 Z" id="Shape" fill="#FFFFFF" opacity="0.2"></path>
                <path d="M114.825836,147.692078 L114.525952,154.568012 L107.286736,154.568012 L107.286736,150.938714 C107.286736,143.608371 115.059746,140.825112 119.438062,146.717489 C119.546021,146.860987 114.825836,147.692078 114.825836,147.692078 Z" id="Shape" fill="#263238"></path>
                <path d="M113.218454,143.554559 C115.062745,143.707025 116.955017,144.705531 118.451442,146.720478 C118.5594,146.863976 113.85421,147.704036 113.85421,147.704036 L113.524337,154.57997 L114.525952,154.57997 L114.855825,147.704036 C114.855825,147.704036 119.561015,146.866966 119.453057,146.720478 C117.671742,144.343797 115.356632,143.378176 113.218454,143.554559 Z" id="Shape" fill="#FFFFFF" opacity="0.2"></path>
            </g>
        </g>
    </g>
</svg>