<?xml version="1.0" encoding="UTF-8"?>
<svg width="20px" height="12px" viewBox="0 0 20 12" version="1.1" xmlns="http://www.w3.org/2000/svg" xmlns:xlink="http://www.w3.org/1999/xlink">
    <!-- Generator: Sketch 52.1 (67048) - http://www.bohemiancoding.com/sketch -->
    <title>Group_410</title>
    <desc>Created with Sketch.</desc>
    <g id="church" stroke="none" stroke-width="1" fill="none" fill-rule="evenodd">
        <g id="church-pricing" transform="translate(-386.000000, -669.000000)" fill="#FFFFFF">
            <g id="pricing_card" transform="translate(381.000000, 607.000000)">
                <g id="prciing_slider" transform="translate(0.000000, 53.000000)">
                    <g id="slider_arrow">
                        <g id="Group_410" transform="translate(4.394000, 9.000000)">
                            <path d="M21.5338106,9.19181059 C21.8850012,9.52785553 22.4403344,9.5217369 22.7840357,9.17803566 C23.1277369,8.83433443 23.1338555,8.27900124 22.7978106,7.92781059 L17.6918106,2.82181059 C17.342717,2.47288644 16.7769042,2.47288644 16.4278106,2.82181059 L11.3218106,7.92781059 C10.9857656,8.27900124 10.9918843,8.83433443 11.3355855,9.17803566 C11.6792867,9.5217369 12.2346199,9.52785553 12.5858106,9.19181059 L17.0598106,4.71481059 L21.5338106,9.19181059 Z" id="Path_960" transform="translate(17.059811, 6.000000) rotate(90.000000) translate(-17.059811, -6.000000) "></path>
                            <path d="M8.52018941,9.19181059 C8.87138006,9.52785553 9.42671325,9.5217369 9.77041448,9.17803566 C10.1141157,8.83433443 10.1202344,8.27900124 9.78418941,7.92781059 L4.67818941,2.82181059 C4.32909583,2.47288644 3.76328299,2.47288644 3.41418941,2.82181059 L-1.69181059,7.92781059 C-2.02785553,8.27900124 -2.0217369,8.83433443 -1.67803566,9.17803566 C-1.33433443,9.5217369 -0.779001236,9.52785553 -0.42781059,9.19181059 L4.04618941,4.71481059 L8.52018941,9.19181059 Z" id="Path_961" transform="translate(4.046189, 6.000000) rotate(-90.000000) translate(-4.046189, -6.000000) "></path>
                        </g>
                    </g>
                </g>
            </g>
        </g>
    </g>
</svg>