<?xml version="1.0" encoding="UTF-8"?>
<svg width="25px" height="18px" viewBox="0 0 25 18" version="1.1" xmlns="http://www.w3.org/2000/svg" xmlns:xlink="http://www.w3.org/1999/xlink">
    <!-- Generator: Sketch 52.1 (67048) - http://www.bohemiancoding.com/sketch -->
    <title>giving</title>
    <desc>Created with Sketch.</desc>
    <g id="web" stroke="none" stroke-width="1" fill="none" fill-rule="evenodd">
        <g id="givings-user-1st-screen" transform="translate(-1089.000000, -670.000000)" fill="#FFFFFF" stroke="#FFFFFF" stroke-width="0.5">
            <g id="plus" transform="translate(1080.000000, 660.000000)">
                <g id="giving" transform="translate(9.000000, 11.000000)">
                    <path d="M22.8207821,6.70286069 C22.572838,6.70732966 22.3073835,6.76673931 22.0353835,6.89527448 C22.0352343,6.89532953 22.0350851,6.8953847 22.0349359,6.89544 L16.5007541,9.52085517 C16.3986842,8.91627586 15.8290618,8.4521931 15.1636073,8.47103448 C15.1634301,8.4710619 15.1632529,8.47108949 15.1630758,8.47111724 L12.1487541,8.56198621 C11.3641387,8.56171034 10.769929,8.37533793 10.0695373,8.17561379 C9.36858629,7.97569655 8.56830657,7.76750345 7.44296392,7.76750345 C6.43971916,7.76750345 4.94436252,8.12328276 3.87093566,8.5168 L3.87093566,7.47784828 C3.87092022,7.32550017 3.74569423,7.20200144 3.59121538,7.20198621 L0.559047636,7.20198621 C0.40456879,7.20200144 0.279342802,7.32550017 0.279327357,7.47784828 L0.279327357,9.7344 L0.279327357,15.6874759 C0.279342802,15.839824 0.40456879,15.9633227 0.559047636,15.9633379 L3.59121538,15.9633379 C3.74569423,15.9633227 3.87092022,15.839824 3.87093566,15.6874759 L3.87093566,14.7518897 C7.76318769,14.0088828 10.0241667,15.1578207 13.3422646,15.1578207 C13.3424138,15.1578208 13.342563,15.1578208 13.3427122,15.1578207 C13.9102087,15.1578207 14.6334255,14.8504552 15.5200828,14.3965517 C16.4067122,13.9426207 17.4311877,13.3276966 18.468838,12.6668138 C20.5441667,11.3450483 22.6736772,9.83737931 23.7926143,9.0912 C23.7927075,9.09114488 23.7928008,9.09108971 23.792894,9.09103448 C24.1102646,8.87892414 24.2898171,8.56013793 24.3276912,8.23707586 C24.3655373,7.91401379 24.2732856,7.58877241 24.0852856,7.31940966 C23.8267961,6.94902621 23.3662087,6.69300966 22.8207821,6.70285793 L22.8207821,6.70286069 Z M22.8891178,7.24001379 C23.2282227,7.24249655 23.4719429,7.41364966 23.6244464,7.63216552 C23.7406422,7.79864828 23.7926982,7.99721379 23.7719989,8.1737931 C23.7512996,8.35031724 23.6693695,8.50697931 23.4792436,8.63415172 C23.4792436,8.6342069 23.4789639,8.63426207 23.4789639,8.63431724 C22.3432996,9.39164138 20.2241108,10.8921103 18.1653136,12.2033655 C17.135859,12.8590345 16.1217891,13.4668414 15.2622646,13.9068966 C14.4031038,14.346731 13.672838,14.6053793 13.3422366,14.6061241 C13.3422366,14.6061241 13.3419569,14.6061241 13.3418171,14.6061241 C10.1867961,14.6060138 7.84016671,13.4603034 3.87090769,14.1904276 L3.87090769,13.3868138 C3.87233435,13.287328 3.81933418,13.1947913 3.732202,13.1446379 C3.64506982,13.0944844 3.53730501,13.0944844 3.45017283,13.1446379 C3.36304064,13.1947913 3.31004048,13.287328 3.31146713,13.3868138 L3.31146713,15.4116414 L2.4751035,15.4116414 L2.4751035,7.75371034 L3.31146713,7.75371034 L3.31146713,9.77853793 C3.31004048,9.8780237 3.36304064,9.97056038 3.45017283,10.0207139 C3.53730501,10.0708673 3.64506982,10.0708673 3.732202,10.0207139 C3.81933418,9.97056038 3.87233435,9.8780237 3.87090769,9.77853793 L3.87090769,9.10733793 C4.8816772,8.71310345 6.52592895,8.31922759 7.44293594,8.31922759 C8.49943944,8.31922759 9.22215273,8.50824828 9.9141807,8.7056 C10.6062366,8.90295172 11.2746562,9.11371034 12.1506283,9.11371034 C12.1534537,9.11372497 12.1562792,9.11369738 12.1591038,9.11362759 L15.1795793,9.0225931 C15.179859,9.0225931 15.179915,9.0225931 15.1800828,9.0225931 C15.613901,9.01073103 15.9576213,9.34673103 15.9576213,9.71508966 C15.9576213,10.0835862 15.6182366,10.3882483 15.1596352,10.4077793 C15.1596352,10.4077793 15.1596352,10.4077793 15.1596352,10.4077793 L9.41426462,10.6505379 C9.31327482,10.6531927 9.22158198,10.7093404 9.17438114,10.7974295 C9.12718031,10.8855186 9.13180527,10.9918624 9.18648079,11.0756423 C9.24115631,11.1594221 9.33738724,11.2076208 9.43823664,11.2017379 L15.1836912,10.9589793 C15.7286702,10.9358069 16.2216772,10.625931 16.4220408,10.1687172 C16.4319084,10.1653 16.441574,10.1613398 16.4509919,10.1568552 L22.2771178,7.39289379 C22.2771178,7.39283862 22.2774255,7.39278345 22.2775653,7.39272828 C22.5079709,7.28392 22.7116632,7.23881931 22.8891737,7.24005517 L22.8891178,7.24001379 Z M0.838767916,7.75371034 L1.91569091,7.75371034 L1.91569091,15.4116414 L0.838767916,15.4116414 L0.838767916,9.7344 L0.838767916,7.75371034 Z" id="Shape"></path>
                    <path d="M7.91569119,3.50544552 C7.1814814,3.50544552 6.57862825,4.09996414 6.57862825,4.82406621 C6.57862825,5.54613793 7.1814814,6.13992828 7.91569119,6.13992828 L10.1730338,6.13992828 C10.9072716,6.13992828 11.5100968,5.54613793 11.5100968,4.82406621 C11.5100968,4.09996414 10.9072716,3.50544552 10.1730338,3.50544552 L7.91569119,3.50544552 Z M7.91569119,4.05716966 L10.1730338,4.05716966 C10.6024604,4.05716966 10.9506562,4.40058207 10.9506562,4.82406621 C10.9506562,5.24406621 10.6024604,5.58820414 10.1730338,5.58820414 L7.91569119,5.58820414 C7.48629259,5.58820414 7.13806881,5.24406621 7.13806881,4.82406621 C7.13806881,4.40058207 7.48629259,4.05716966 7.91569119,4.05716966 Z" id="Shape"></path>
                    <path d="M15.8905164,3.50544552 C15.1583485,3.50544552 14.5562506,4.09996414 14.5562506,4.82406621 C14.5562506,5.54613793 15.1583485,6.13992828 15.8905164,6.13992828 L18.1506562,6.13992828 C18.8828241,6.13992828 19.484922,5.54613793 19.484922,4.82406621 C19.484922,4.09996414 18.8828241,3.50544552 18.1506562,3.50544552 L15.8905164,3.50544552 Z M15.8905164,4.05716966 L18.1506562,4.05716966 C18.5765303,4.05716966 18.9254814,4.40058207 18.9254814,4.82406621 C18.9254814,5.24406621 18.5765303,5.58820414 18.1506562,5.58820414 L15.8905164,5.58820414 C15.4646422,5.58820414 15.1156912,5.24406621 15.1156912,4.82406621 C15.1156912,4.40058207 15.4646422,4.05716966 15.8905164,4.05716966 Z" id="Shape"></path>
                    <path d="M11.9045024,0.23648 C11.1702926,0.23648 10.5674394,0.830998621 10.5674394,1.55510069 C10.5674394,2.27920276 11.1711877,2.87096276 11.9045024,2.87096276 L14.161845,2.87096276 C14.8951877,2.87096276 15.4961108,2.27832 15.4961108,1.55510069 C15.4961108,0.831884138 14.8960828,0.23648 14.161845,0.23648 L11.9045024,0.23648 Z M11.9045024,0.788204138 L14.161845,0.788204138 C14.5912716,0.788204138 14.9366702,1.13073379 14.9366702,1.55510069 C14.9366702,1.97947034 14.5921667,2.31923862 14.161845,2.31923862 L11.9045024,2.31923862 C11.4742087,2.31923862 11.12688,1.97858483 11.12688,1.55510069 C11.12688,1.13161655 11.4751038,0.788204138 11.9045024,0.788204138 Z" id="Shape"></path>
                </g>
            </g>
        </g>
    </g>
</svg>