<?xml version="1.0" encoding="UTF-8"?>
<svg width="20px" height="20px" viewBox="0 0 20 20" version="1.1" xmlns="http://www.w3.org/2000/svg" xmlns:xlink="http://www.w3.org/1999/xlink">
    <!-- Generator: Sketch 52.1 (67048) - http://www.bohemiancoding.com/sketch -->
    <title>Shape</title>
    <desc>Created with Sketch.</desc>
    <g id="web" stroke="none" stroke-width="1" fill="none" fill-rule="evenodd">
        <g id="givings-user-1st-screen" transform="translate(-628.000000, -133.000000)" fill="#D30101">
            <g id="Group-2" transform="translate(320.000000, 118.000000)">
                <path d="M325.813665,15.024878 C325.888299,15.0263414 325.962445,15.0304877 326.036591,15.0390243 C326.207566,15.0585364 326.376346,15.0985363 326.538297,15.1578044 C326.836345,15.2670724 327.109271,15.4419499 327.333661,15.6663394 C327.564392,15.8970704 327.742684,16.1790208 327.85122,16.4870686 C327.90561,16.6409706 327.942439,16.801214 327.960976,16.9634086 C327.969512,17.0373109 327.973659,17.1117009 327.975122,17.1860909 C328.008049,22.3953433 328.008049,27.6048396 327.975122,32.8138481 C327.973659,32.888482 327.969512,32.9626282 327.960976,33.0367743 C327.941464,33.2077494 327.901464,33.3765293 327.842196,33.5382362 C327.732928,33.8365279 327.55805,34.10921 327.333661,34.3338435 C327.109271,34.5582331 326.836345,34.7331106 326.538053,34.8423785 C326.385127,34.8984759 326.225615,34.9372563 326.063908,34.957744 C325.980982,34.9684757 325.897567,34.9735976 325.813665,34.975305 C320.604657,35.0082317 315.39516,35.0082317 310.185908,34.975305 C310.10225,34.9735976 310.018835,34.9684757 309.935909,34.957744 C309.773958,34.9372563 309.61469,34.8984759 309.46152,34.8423785 C309.163472,34.7331106 308.890546,34.5582331 308.666157,34.3338435 C308.441767,34.10921 308.266889,33.8365279 308.157621,33.5382362 C308.098353,33.3765293 308.058353,33.2077494 308.038841,33.0367743 C308.030305,32.9626282 308.026158,32.888482 308.024695,32.8138481 C307.991768,27.6048396 307.991768,22.3953433 308.024695,17.1860909 C308.026158,17.1117009 308.030305,17.0373109 308.038841,16.9634086 C308.057378,16.801214 308.094207,16.6409706 308.148597,16.4870686 C308.257133,16.1790208 308.435426,15.8970704 308.666157,15.6663394 C308.890546,15.4419499 309.163472,15.2670724 309.46152,15.1578044 C309.623227,15.0985363 309.792007,15.0585364 309.963226,15.0390243 C310.037372,15.0304877 310.111518,15.0263414 310.186152,15.024878 C315.39516,14.9917073 320.604657,14.9917073 325.813665,15.024878 Z M327.504636,20.3773007 L308.495181,20.3773007 C308.479572,24.5207027 308.484938,28.6643486 308.511279,32.8077506 C308.514937,32.9999451 308.548352,33.1901884 308.614449,33.3709196 C308.699571,33.6028701 308.835668,33.8150646 309.010302,33.9896982 C309.184935,34.1643318 309.39713,34.300429 309.62908,34.3855507 C309.809812,34.451648 310.000055,34.4850625 310.192249,34.4887211 C315.397112,34.5216478 320.602462,34.5216478 325.807568,34.4887211 C325.999762,34.4850625 326.190006,34.451648 326.370737,34.3855507 C326.602687,34.300429 326.814882,34.1643318 326.989515,33.9896982 C327.164149,33.8150646 327.300246,33.6028701 327.385368,33.3709196 C327.451465,33.1901884 327.48488,32.9999451 327.488538,32.8077506 C327.51488,28.6643486 327.520245,24.5207027 327.504636,20.3773007 Z M311.442246,30.35288 C311.46566,30.3545873 311.488343,30.3584898 311.510294,30.3660507 C311.576635,30.3889775 311.630538,30.4404407 311.656635,30.5055625 C311.666879,30.5309283 311.671757,30.5572696 311.673708,30.5843427 C311.685659,31.0784876 311.685659,31.5731202 311.673708,32.067265 C311.672245,32.0906796 311.668342,32.1131186 311.660782,32.1353136 C311.637855,32.201411 311.586148,32.2555571 311.52127,32.2816546 C311.495904,32.2918985 311.469563,32.2967765 311.442246,32.2987277 C310.948101,32.3106789 310.453468,32.3106789 309.959323,32.2987277 C309.936153,32.2970204 309.91347,32.2933619 309.891275,32.285801 C309.825177,32.2628742 309.771031,32.211167 309.745178,32.1462892 C309.734934,32.1209234 309.729812,32.094582 309.727861,32.067265 C309.716153,31.5731202 309.716153,31.0784876 309.727861,30.5843427 C309.729568,30.5611721 309.73347,30.5384892 309.741031,30.5162942 C309.763958,30.4501968 309.815421,30.3960506 309.880543,30.370197 C309.905909,30.3599532 309.93225,30.3548312 309.959323,30.35288 C310.453468,30.3411727 310.948101,30.3411727 311.442246,30.35288 Z M314.361993,30.35288 C314.385163,30.3545873 314.407846,30.3584898 314.430041,30.3660507 C314.496139,30.3889775 314.550285,30.4404407 314.576138,30.5055625 C314.586382,30.5309283 314.591504,30.5572696 314.593456,30.5843427 C314.605163,31.0784876 314.605163,31.5731202 314.593456,32.067265 C314.591748,32.0906796 314.587846,32.1131186 314.580285,32.1353136 C314.557358,32.201411 314.505895,32.2555571 314.440773,32.2816546 C314.415407,32.2918985 314.389066,32.2967765 314.361993,32.2987277 C313.867848,32.3106789 313.373215,32.3106789 312.87907,32.2987277 C312.855656,32.2970204 312.833217,32.2933619 312.811022,32.285801 C312.744925,32.2628742 312.690778,32.211167 312.664681,32.1462892 C312.654437,32.1209234 312.649559,32.094582 312.647608,32.067265 C312.635901,31.5731202 312.635901,31.0784876 312.647608,30.5843427 C312.649559,30.5572696 312.654437,30.5309283 312.664681,30.5055625 C312.690778,30.4404407 312.744925,30.3889775 312.811022,30.3660507 C312.833217,30.3584898 312.855656,30.3545873 312.87907,30.35288 C313.373215,30.3411727 313.867848,30.3411727 314.361993,30.35288 Z M317.281496,30.35288 C317.304911,30.3545873 317.32735,30.3584898 317.349545,30.3660507 C317.415642,30.3889775 317.469788,30.4404407 317.495886,30.5055625 C317.50613,30.5309283 317.511008,30.5572696 317.512959,30.5843427 C317.524666,31.0784876 317.524666,31.5731202 317.512959,32.067265 C317.511251,32.0906796 317.507593,32.1131186 317.499788,32.1353136 C317.477105,32.201411 317.425398,32.2555571 317.36052,32.2816546 C317.335154,32.2918985 317.308813,32.2967765 317.281496,32.2987277 C316.787351,32.3106789 316.292719,32.3106789 315.798574,32.2987277 C315.771501,32.2967765 315.745159,32.2918985 315.719794,32.2816546 C315.654672,32.2555571 315.603209,32.201411 315.580282,32.1353136 C315.572721,32.1131186 315.568818,32.0906796 315.567111,32.067265 C315.555404,31.5731202 315.555404,31.0784876 315.567111,30.5843427 C315.569062,30.5572696 315.574184,30.5309283 315.584428,30.5055625 C315.610282,30.4404407 315.664428,30.3889775 315.730525,30.3660507 C315.75272,30.3584898 315.775403,30.3545873 315.798574,30.35288 C316.292719,30.3411727 316.787351,30.3411727 317.281496,30.35288 Z M311.187368,30.83922 L310.214201,30.83922 L310.214201,31.8123878 L311.187368,31.8123878 L311.187368,30.83922 Z M313.133948,30.83922 L313.133948,31.8123878 L314.107116,31.8123878 L314.107116,30.83922 C313.782726,30.83922 313.458337,30.83922 313.133948,30.83922 Z M317.026619,30.83922 L316.053451,30.83922 L316.053451,31.8123878 L317.026619,31.8123878 L317.026619,30.83922 Z M314.361993,27.4333767 C314.389066,27.4353279 314.415407,27.4404499 314.440773,27.4504498 C314.505895,27.4765473 314.557358,27.5306935 314.580285,27.5967909 C314.587846,27.6189859 314.591748,27.6414249 314.593456,27.6648394 C314.605163,28.1589843 314.605163,28.6536169 314.593456,29.1477617 C314.591748,29.1709324 314.587846,29.1936153 314.580285,29.2158103 C314.557358,29.2819077 314.505895,29.3360539 314.440773,29.3621513 C314.415407,29.3721513 314.389066,29.3772732 314.361993,29.3792245 C313.867848,29.3909317 313.373215,29.3909317 312.87907,29.3792245 C312.855656,29.3775171 312.833217,29.3736147 312.811022,29.3660538 C312.744925,29.343127 312.690778,29.2916637 312.664681,29.226542 C312.654437,29.2011762 312.649559,29.1748348 312.647608,29.1477617 C312.635901,28.6536169 312.635901,28.1589843 312.647608,27.6648394 C312.649315,27.6414249 312.652974,27.6189859 312.660535,27.5967909 C312.683461,27.5306935 312.735168,27.4765473 312.800046,27.4504498 C312.825412,27.4404499 312.851754,27.4353279 312.87907,27.4333767 C313.373215,27.4216694 313.867848,27.4216694 314.361993,27.4333767 Z M317.281496,27.4333767 C317.308813,27.4353279 317.335154,27.4404499 317.36052,27.4504498 C317.425398,27.4765473 317.477105,27.5306935 317.499788,27.5967909 C317.507593,27.6189859 317.511251,27.6414249 317.512959,27.6648394 C317.524666,28.1589843 317.524666,28.6536169 317.512959,29.1477617 C317.511251,29.1709324 317.507593,29.1936153 317.499788,29.2158103 C317.477105,29.2819077 317.425398,29.3360539 317.36052,29.3621513 C317.335154,29.3721513 317.308813,29.3772732 317.281496,29.3792245 C316.787351,29.3909317 316.292719,29.3909317 315.798574,29.3792245 C315.775403,29.3775171 315.75272,29.3736147 315.730525,29.3660538 C315.664428,29.343127 315.610282,29.2916637 315.584428,29.226542 C315.574184,29.2011762 315.569062,29.1748348 315.567111,29.1477617 C315.555404,28.6536169 315.555404,28.1589843 315.567111,27.6648394 C315.568818,27.6414249 315.572721,27.6189859 315.580282,27.5967909 C315.603209,27.5306935 315.654672,27.4765473 315.719794,27.4504498 C315.745159,27.4404499 315.771501,27.4353279 315.798574,27.4333767 C316.292719,27.4216694 316.787351,27.4216694 317.281496,27.4333767 Z M320.201243,27.4333767 C320.224414,27.435084 320.247097,27.4387426 320.269292,27.4465474 C320.335389,27.4692303 320.389535,27.5209374 320.415389,27.5858153 C320.425633,27.611425 320.430755,27.6375224 320.432706,27.6648394 C320.444413,28.1589843 320.444413,28.6536169 320.432706,29.1477617 C320.430999,29.1709324 320.427096,29.1936153 320.419535,29.2158103 C320.396609,29.2819077 320.345145,29.3360539 320.280024,29.3621513 C320.254658,29.3721513 320.228316,29.3772732 320.201243,29.3792245 C319.707098,29.3909317 319.212466,29.3909317 318.718321,29.3792245 C318.691004,29.3772732 318.664663,29.3721513 318.639297,29.3621513 C318.574419,29.3360539 318.522712,29.2819077 318.499785,29.2158103 C318.492224,29.1936153 318.488322,29.1709324 318.486858,29.1477617 C318.474907,28.6536169 318.474907,28.1589843 318.486858,27.6648394 C318.488322,27.6414249 318.492224,27.6189859 318.499785,27.5967909 C318.522712,27.5306935 318.574419,27.4765473 318.639297,27.4504498 C318.664663,27.4404499 318.691004,27.4353279 318.718321,27.4333767 C319.212466,27.4216694 319.707098,27.4216694 320.201243,27.4333767 Z M326.040494,27.4333767 C326.063664,27.435084 326.086347,27.4387426 326.108298,27.4465474 C326.17464,27.4692303 326.228786,27.5209374 326.254639,27.5858153 C326.264883,27.611425 326.270005,27.6375224 326.271956,27.6648394 C326.283664,28.1589843 326.283664,28.6536169 326.271956,29.1477617 C326.270249,29.1709324 326.266347,29.1936153 326.258786,29.2158103 C326.235859,29.2819077 326.184152,29.3360539 326.119274,29.3621513 C326.093908,29.3721513 326.067567,29.3772732 326.040494,29.3792245 C325.546105,29.3909317 325.051716,29.3909317 324.557328,29.3792245 C324.534157,29.3775171 324.511474,29.3736147 324.489523,29.3660538 C324.423182,29.343127 324.369279,29.2916637 324.343182,29.226542 C324.332938,29.2011762 324.327816,29.1748348 324.326109,29.1477617 C324.314158,28.6536169 324.314158,28.1589843 324.326109,27.6648394 C324.327572,27.6414249 324.331475,27.6189859 324.339036,27.5967909 C324.361962,27.5306935 324.413669,27.4765473 324.478547,27.4504498 C324.503913,27.4404499 324.530254,27.4353279 324.557328,27.4333767 C325.051716,27.4216694 325.546105,27.4216694 326.040494,27.4333767 Z M311.442246,27.4333767 C311.46566,27.435084 311.488343,27.4387426 311.510294,27.4465474 C311.576635,27.4692303 311.630538,27.5209374 311.656635,27.5858153 C311.666879,27.611425 311.671757,27.6375224 311.673708,27.6648394 C311.685659,28.1589843 311.685659,28.6536169 311.673708,29.1477617 C311.671757,29.1748348 311.666879,29.2011762 311.656635,29.226542 C311.630538,29.2916637 311.576635,29.343127 311.510294,29.3660538 C311.488343,29.3736147 311.46566,29.3775171 311.442246,29.3792245 C310.948101,29.3909317 310.453468,29.3909317 309.959323,29.3792245 C309.936153,29.3775171 309.91347,29.3736147 309.891275,29.3660538 C309.825177,29.343127 309.771031,29.2916637 309.745178,29.226542 C309.734934,29.2011762 309.729812,29.1748348 309.727861,29.1477617 C309.716153,28.6536169 309.716153,28.1589843 309.727861,27.6648394 C309.729568,27.6414249 309.73347,27.6189859 309.741031,27.5967909 C309.763958,27.5306935 309.815421,27.4765473 309.880543,27.4504498 C309.905909,27.4404499 309.93225,27.4353279 309.959323,27.4333767 C310.453468,27.4216694 310.948101,27.4216694 311.442246,27.4333767 Z M323.120747,27.4333767 C323.144161,27.435084 323.1666,27.4387426 323.188795,27.4465474 C323.254893,27.4692303 323.309039,27.5209374 323.335136,27.5858153 C323.345136,27.611425 323.350258,27.6375224 323.352209,27.6648394 C323.363917,28.1589843 323.363917,28.6536169 323.352209,29.1477617 C323.350502,29.1709324 323.346843,29.1936153 323.339039,29.2158103 C323.316112,29.2819077 323.264649,29.3360539 323.199527,29.3621513 C323.174161,29.3721513 323.148064,29.3772732 323.120747,29.3792245 C322.626602,29.3909317 322.131969,29.3909317 321.637824,29.3792245 C321.610751,29.3772732 321.58441,29.3721513 321.559044,29.3621513 C321.493922,29.3360539 321.442459,29.2819077 321.419532,29.2158103 C321.411727,29.1936153 321.408069,29.1709324 321.406362,29.1477617 C321.394654,28.6536169 321.394654,28.1589843 321.406362,27.6648394 C321.408069,27.6414249 321.411727,27.6189859 321.419532,27.5967909 C321.442459,27.5306935 321.493922,27.4765473 321.559044,27.4504498 C321.58441,27.4404499 321.610751,27.4353279 321.637824,27.4333767 C322.131969,27.4216694 322.626602,27.4216694 323.120747,27.4333767 Z M313.133948,27.9197167 L313.133948,28.8928845 L314.107116,28.8928845 L314.107116,27.9197167 C313.782726,27.9197167 313.458337,27.9197167 313.133948,27.9197167 Z M310.214201,27.9197167 L310.214201,28.8928845 L311.187368,28.8928845 L311.187368,27.9197167 C310.862979,27.9197167 310.53859,27.9197167 310.214201,27.9197167 Z M316.053451,27.9197167 L316.053451,28.8928845 L317.026619,28.8928845 L317.026619,27.9197167 C316.70223,27.9197167 316.37784,27.9197167 316.053451,27.9197167 Z M324.812205,27.9197167 L324.812205,28.8928845 L325.785617,28.8928845 L325.785617,27.9197167 C325.461227,27.9197167 325.136594,27.9197167 324.812205,27.9197167 Z M318.973198,27.9197167 L318.973198,28.8928845 L319.946366,28.8928845 L319.946366,27.9197167 C319.621977,27.9197167 319.297588,27.9197167 318.973198,27.9197167 Z M321.892702,27.9197167 L321.892702,28.8928845 L322.865869,28.8928845 L322.865869,27.9197167 C322.54148,27.9197167 322.217091,27.9197167 321.892702,27.9197167 Z M314.361993,24.5136295 C314.385163,24.5153368 314.407846,24.5192393 314.430041,24.5268002 C314.496139,24.549727 314.550285,24.6014341 314.576138,24.666312 C314.586382,24.6916778 314.591504,24.7180192 314.593456,24.7450922 C314.605163,25.2392371 314.605163,25.7338697 314.593456,26.2280145 C314.591748,26.2514291 314.587846,26.274112 314.580285,26.2960631 C314.557358,26.3624044 314.505895,26.4163067 314.440773,26.4424041 C314.415407,26.452648 314.389066,26.457526 314.361993,26.4594773 C313.867848,26.4714284 313.373215,26.4714284 312.87907,26.4594773 C312.855656,26.4580138 312.833217,26.4541114 312.811022,26.4465505 C312.744925,26.4236237 312.690778,26.3719165 312.664681,26.3070387 C312.654437,26.2816729 312.649559,26.2553315 312.647608,26.2280145 C312.635901,25.7338697 312.635901,25.2392371 312.647608,24.7450922 C312.649315,24.7219216 312.652974,24.6992387 312.660535,24.6772876 C312.683461,24.6109463 312.735168,24.5568001 312.800046,24.5309466 C312.825412,24.5207027 312.851754,24.5155807 312.87907,24.5136295 C313.373215,24.5019223 313.867848,24.5019223 314.361993,24.5136295 Z M326.040494,24.5136295 C326.063664,24.5153368 326.086347,24.5192393 326.108298,24.5268002 C326.17464,24.549727 326.228786,24.6014341 326.254639,24.666312 C326.264883,24.6916778 326.270005,24.7180192 326.271956,24.7450922 C326.283664,25.2392371 326.283664,25.7338697 326.271956,26.2280145 C326.270249,26.2514291 326.266347,26.274112 326.258786,26.2960631 C326.235859,26.3624044 326.184152,26.4163067 326.119274,26.4424041 C326.093908,26.452648 326.067567,26.457526 326.040494,26.4594773 C325.546105,26.4714284 325.051716,26.4714284 324.557328,26.4594773 C324.530254,26.457526 324.503913,26.452648 324.478547,26.4424041 C324.413669,26.4163067 324.361962,26.3624044 324.339036,26.2960631 C324.331475,26.274112 324.327572,26.2514291 324.326109,26.2280145 C324.314158,25.7338697 324.314158,25.2392371 324.326109,24.7450922 C324.327816,24.7180192 324.332938,24.6916778 324.343182,24.666312 C324.369279,24.6014341 324.423182,24.549727 324.489523,24.5268002 C324.511474,24.5192393 324.534157,24.5153368 324.557328,24.5136295 C325.051716,24.5019223 325.546105,24.5019223 326.040494,24.5136295 Z M320.201243,24.5136295 C320.224414,24.5153368 320.247097,24.5192393 320.269292,24.5268002 C320.335389,24.549727 320.389535,24.6014341 320.415389,24.666312 C320.425633,24.6916778 320.430755,24.7180192 320.432706,24.7450922 C320.444413,25.2392371 320.444413,25.7338697 320.432706,26.2280145 C320.430999,26.2514291 320.427096,26.274112 320.419535,26.2960631 C320.396609,26.3624044 320.345145,26.4163067 320.280024,26.4424041 C320.254658,26.452648 320.228316,26.457526 320.201243,26.4594773 C319.707098,26.4714284 319.212466,26.4714284 318.718321,26.4594773 C318.691004,26.457526 318.664663,26.452648 318.639297,26.4424041 C318.574419,26.4163067 318.522712,26.3624044 318.499785,26.2960631 C318.492224,26.274112 318.488322,26.2514291 318.486858,26.2280145 C318.474907,25.7338697 318.474907,25.2392371 318.486858,24.7450922 C318.488809,24.7180192 318.493688,24.6916778 318.503931,24.666312 C318.530029,24.6014341 318.583931,24.549727 318.650272,24.5268002 C318.672224,24.5192393 318.694906,24.5153368 318.718321,24.5136295 C319.212466,24.5019223 319.707098,24.5019223 320.201243,24.5136295 Z M317.281496,24.5136295 C317.304911,24.5153368 317.32735,24.5192393 317.349545,24.5268002 C317.415642,24.549727 317.469788,24.6014341 317.495886,24.666312 C317.50613,24.6916778 317.511008,24.7180192 317.512959,24.7450922 C317.524666,25.2392371 317.524666,25.7338697 317.512959,26.2280145 C317.511251,26.2514291 317.507593,26.274112 317.499788,26.2960631 C317.477105,26.3624044 317.425398,26.4163067 317.36052,26.4424041 C317.335154,26.452648 317.308813,26.457526 317.281496,26.4594773 C316.787351,26.4714284 316.292719,26.4714284 315.798574,26.4594773 C315.771501,26.457526 315.745159,26.452648 315.719794,26.4424041 C315.654672,26.4163067 315.603209,26.3624044 315.580282,26.2960631 C315.572721,26.274112 315.568818,26.2514291 315.567111,26.2280145 C315.555404,25.7338697 315.555404,25.2392371 315.567111,24.7450922 C315.568818,24.7219216 315.572721,24.6992387 315.580282,24.6772876 C315.603209,24.6109463 315.654672,24.5568001 315.719794,24.5309466 C315.745159,24.5207027 315.771501,24.5155807 315.798574,24.5136295 C316.292719,24.5019223 316.787351,24.5019223 317.281496,24.5136295 Z M323.120747,24.5136295 C323.148064,24.5155807 323.174161,24.5207027 323.199527,24.5309466 C323.264649,24.5568001 323.316112,24.6109463 323.339039,24.6772876 C323.346843,24.6992387 323.350502,24.7219216 323.352209,24.7450922 C323.363917,25.2392371 323.363917,25.7338697 323.352209,26.2280145 C323.350258,26.2553315 323.345136,26.2816729 323.335136,26.3070387 C323.309039,26.3719165 323.254893,26.4236237 323.188795,26.4465505 C323.1666,26.4541114 323.144161,26.4580138 323.120747,26.4594773 C322.626602,26.4714284 322.131969,26.4714284 321.637824,26.4594773 C321.610751,26.457526 321.58441,26.452648 321.559044,26.4424041 C321.493922,26.4163067 321.442459,26.3624044 321.419532,26.2960631 C321.411727,26.274112 321.408069,26.2514291 321.406362,26.2280145 C321.394654,25.7338697 321.394654,25.2392371 321.406362,24.7450922 C321.408313,24.7180192 321.413435,24.6916778 321.423435,24.666312 C321.449532,24.6014341 321.503678,24.549727 321.569776,24.5268002 C321.591971,24.5192393 321.614654,24.5153368 321.637824,24.5136295 C322.131969,24.5019223 322.626602,24.5019223 323.120747,24.5136295 Z M311.442246,24.5136295 C311.469563,24.5155807 311.495904,24.5207027 311.52127,24.5309466 C311.586148,24.5568001 311.637855,24.6109463 311.660782,24.6772876 C311.668342,24.6992387 311.672245,24.7219216 311.673708,24.7450922 C311.685659,25.2392371 311.685659,25.7338697 311.673708,26.2280145 C311.672245,26.2514291 311.668342,26.274112 311.660782,26.2960631 C311.637855,26.3624044 311.586148,26.4163067 311.52127,26.4424041 C311.495904,26.452648 311.469563,26.457526 311.442246,26.4594773 C310.948101,26.4714284 310.453468,26.4714284 309.959323,26.4594773 C309.936153,26.4580138 309.91347,26.4541114 309.891275,26.4465505 C309.825177,26.4236237 309.771031,26.3719165 309.745178,26.3070387 C309.734934,26.2816729 309.729812,26.2553315 309.727861,26.2280145 C309.716153,25.7338697 309.716153,25.2392371 309.727861,24.7450922 C309.729568,24.7219216 309.73347,24.6992387 309.741031,24.6772876 C309.763958,24.6109463 309.815421,24.5568001 309.880543,24.5309466 C309.905909,24.5207027 309.93225,24.5155807 309.959323,24.5136295 C310.453468,24.5019223 310.948101,24.5019223 311.442246,24.5136295 Z M313.133948,24.9999695 L313.133948,25.9731373 L314.107116,25.9731373 L314.107116,24.9999695 C313.782726,24.9999695 313.458337,24.9999695 313.133948,24.9999695 Z M324.812205,24.9999695 L324.812205,25.9731373 L325.785617,25.9731373 L325.785617,24.9999695 C325.461227,24.9999695 325.136594,24.9999695 324.812205,24.9999695 Z M317.026619,24.9999695 L316.053451,24.9999695 L316.053451,25.9731373 L317.026619,25.9731373 L317.026619,24.9999695 Z M318.973198,24.9999695 L318.973198,25.9731373 L319.946366,25.9731373 L319.946366,24.9999695 C319.621977,24.9999695 319.297588,24.9999695 318.973198,24.9999695 Z M311.187368,24.9999695 L310.214201,24.9999695 L310.214201,25.9731373 L311.187368,25.9731373 L311.187368,24.9999695 Z M322.865869,24.9999695 L321.892702,24.9999695 L321.892702,25.9731373 L322.865869,25.9731373 L322.865869,24.9999695 Z M326.040494,21.5941262 C326.063664,21.5958335 326.086347,21.5994921 326.108298,21.6072969 C326.17464,21.6302237 326.228786,21.6816869 326.254639,21.7468087 C326.264883,21.7721745 326.270005,21.7985159 326.271956,21.8255889 C326.283664,22.3197338 326.283664,22.8143664 326.271956,23.3085113 C326.270249,23.3316819 326.266347,23.3543648 326.258786,23.3765598 C326.235859,23.4426572 326.184152,23.4968034 326.119274,23.5229008 C326.093908,23.5329008 326.067567,23.5380227 326.040494,23.539974 C325.546105,23.5516812 325.051716,23.5516812 324.557328,23.539974 C324.530254,23.5380227 324.503913,23.5329008 324.478547,23.5229008 C324.413669,23.4968034 324.361962,23.4426572 324.339036,23.3765598 C324.331475,23.3543648 324.327572,23.3316819 324.326109,23.3085113 C324.314158,22.8143664 324.314158,22.3197338 324.326109,21.8255889 C324.327816,21.7985159 324.332938,21.7721745 324.343182,21.7468087 C324.369279,21.6816869 324.423182,21.6302237 324.489523,21.6072969 C324.511474,21.5994921 324.534157,21.5958335 324.557328,21.5941262 C325.051716,21.582419 325.546105,21.582419 326.040494,21.5941262 Z M317.281496,21.5941262 C317.304911,21.5958335 317.32735,21.5994921 317.349545,21.6072969 C317.415642,21.6302237 317.469788,21.6816869 317.495886,21.7468087 C317.50613,21.7721745 317.511008,21.7985159 317.512959,21.8255889 C317.524666,22.3197338 317.524666,22.8143664 317.512959,23.3085113 C317.511251,23.3316819 317.507593,23.3543648 317.499788,23.3765598 C317.477105,23.4426572 317.425398,23.4968034 317.36052,23.5229008 C317.335154,23.5329008 317.308813,23.5380227 317.281496,23.539974 C316.787351,23.5516812 316.292719,23.5516812 315.798574,23.539974 C315.771501,23.5380227 315.745159,23.5329008 315.719794,23.5229008 C315.654672,23.4968034 315.603209,23.4426572 315.580282,23.3765598 C315.572721,23.3543648 315.568818,23.3316819 315.567111,23.3085113 C315.555404,22.8143664 315.555404,22.3197338 315.567111,21.8255889 C315.568818,21.8024183 315.572721,21.7797354 315.580282,21.7575404 C315.603209,21.691443 315.654672,21.6372968 315.719794,21.6111994 C315.745159,21.6011994 315.771501,21.5960775 315.798574,21.5941262 C316.292719,21.582419 316.787351,21.582419 317.281496,21.5941262 Z M320.201243,21.5941262 C320.224414,21.5958335 320.247097,21.5994921 320.269292,21.6072969 C320.335389,21.6302237 320.389535,21.6816869 320.415389,21.7468087 C320.425633,21.7721745 320.430755,21.7985159 320.432706,21.8255889 C320.444413,22.3197338 320.444413,22.8143664 320.432706,23.3085113 C320.430999,23.3316819 320.427096,23.3543648 320.419535,23.3765598 C320.396609,23.4426572 320.345145,23.4968034 320.280024,23.5229008 C320.254658,23.5329008 320.228316,23.5380227 320.201243,23.539974 C319.707098,23.5516812 319.212466,23.5516812 318.718321,23.539974 C318.691004,23.5380227 318.664663,23.5329008 318.639297,23.5229008 C318.574419,23.4968034 318.522712,23.4426572 318.499785,23.3765598 C318.492224,23.3543648 318.488322,23.3316819 318.486858,23.3085113 C318.474907,22.8143664 318.474907,22.3197338 318.486858,21.8255889 C318.488809,21.7985159 318.493688,21.7721745 318.503931,21.7468087 C318.530029,21.6816869 318.583931,21.6302237 318.650272,21.6072969 C318.672224,21.5994921 318.694906,21.5958335 318.718321,21.5941262 C319.212466,21.582419 319.707098,21.582419 320.201243,21.5941262 Z M323.120747,21.5941262 C323.148064,21.5960775 323.174161,21.6011994 323.199527,21.6111994 C323.264649,21.6372968 323.316112,21.691443 323.339039,21.7575404 C323.346843,21.7797354 323.350502,21.8024183 323.352209,21.8255889 C323.363917,22.3197338 323.363917,22.8143664 323.352209,23.3085113 C323.350502,23.3316819 323.346843,23.3543648 323.339039,23.3765598 C323.316112,23.4426572 323.264649,23.4968034 323.199527,23.5229008 C323.174161,23.5329008 323.148064,23.5380227 323.120747,23.539974 C322.626602,23.5516812 322.131969,23.5516812 321.637824,23.539974 C321.614654,23.5382667 321.591971,23.5346081 321.569776,23.5268033 C321.503678,23.5038765 321.449532,23.4524133 321.423435,23.3872915 C321.413435,23.3619257 321.408313,23.3355843 321.406362,23.3085113 C321.394654,22.8143664 321.394654,22.3197338 321.406362,21.8255889 C321.408313,21.7985159 321.413435,21.7721745 321.423435,21.7468087 C321.449532,21.6816869 321.503678,21.6302237 321.569776,21.6072969 C321.591971,21.5994921 321.614654,21.5958335 321.637824,21.5941262 C322.131969,21.582419 322.626602,21.582419 323.120747,21.5941262 Z M325.785617,22.0804662 L324.812205,22.0804662 L324.812205,23.053634 L325.785617,23.053634 L325.785617,22.0804662 Z M317.026619,22.0804662 L316.053451,22.0804662 L316.053451,23.053634 L317.026619,23.053634 L317.026619,22.0804662 Z M318.973198,22.0804662 L318.973198,23.053634 L319.946366,23.053634 L319.946366,22.0804662 C319.621977,22.0804662 319.297588,22.0804662 318.973198,22.0804662 Z M321.892702,22.0804662 L321.892702,23.053634 L322.865869,23.053634 L322.865869,22.0804662 C322.54148,22.0804662 322.217091,22.0804662 321.892702,22.0804662 Z M327.502684,19.8907168 C327.499026,18.9912073 327.494148,18.0916979 327.488538,17.1924323 C327.48488,16.9999939 327.451465,16.8099945 327.385368,16.6292633 C327.300246,16.3973128 327.164149,16.1851183 326.989515,16.0104847 C326.814882,15.8358511 326.602687,15.6995101 326.370737,15.6146323 C326.190006,15.5485349 325.999762,15.5151204 325.807568,15.5114619 C320.610266,15.4785351 315.412477,15.511218 310.214932,15.511218 C310.149323,15.5117058 310.083957,15.5148765 310.018591,15.5224374 C309.885665,15.5375593 309.75469,15.5685349 309.62908,15.6146323 C309.39713,15.6995101 309.184935,15.8358511 309.010302,16.0104847 C308.835668,16.1851183 308.699571,16.3973128 308.614449,16.6292633 C308.548352,16.8099945 308.514937,16.9999939 308.511279,17.1924323 C308.505669,18.0916979 308.500791,18.9912073 308.497133,19.8907168 L327.502684,19.8907168 Z" id="Shape"></path>
            </g>
        </g>
    </g>
</svg>