<?xml version="1.0" encoding="UTF-8"?>
<svg width="18px" height="20px" viewBox="0 0 18 20" version="1.1" xmlns="http://www.w3.org/2000/svg" xmlns:xlink="http://www.w3.org/1999/xlink">
    <!-- Generator: Sketch 52.1 (67048) - http://www.bohemiancoding.com/sketch -->
    <title>Group</title>
    <desc>Created with Sketch.</desc>
    <g id="web" stroke="none" stroke-width="1" fill="none" fill-rule="evenodd">
        <g id="givings-user-1st-screen" transform="translate(-336.000000, -133.000000)" fill="#D30101">
            <g id="Group-2" transform="translate(320.000000, 118.000000)">
                <g id="Group" transform="translate(16.000000, 15.000000)">
                    <path d="M1.12418985,0.454222222 C0.897185811,0.454890398 0.692832164,0.590243765 0.606045549,0.797414411 C0.519258935,1.00458506 0.567047531,1.24297231 0.72721485,1.40185185 L9.32874,9.89866667 L0.72721485,18.3940741 C0.567047531,18.5529536 0.519258935,18.7913409 0.606045549,18.9985115 C0.692832164,19.2056822 0.897185811,19.3410355 1.12418985,19.3417037 L16.87419,19.3417037 C17.1848373,19.341673 17.4366589,19.0929603 17.43669,18.7861481 L17.43669,17.3046667 L16.31169,17.3046667 L16.31169,18.2305926 L2.48356485,18.2305926 L10.52259,10.2907407 C10.7421488,10.0737837 10.7421488,9.72214224 10.52259,9.50518519 L2.48356485,1.56533333 L16.31169,1.56533333 L16.31169,2.49125926 L17.43669,2.49125926 L17.43669,1.00977778 C17.4367004,0.702936697 17.1848666,0.454178829 16.87419,0.454148148 L1.12418985,0.454222222 Z" id="Path"></path>
                </g>
            </g>
        </g>
    </g>
</svg>