<?xml version="1.0" encoding="UTF-8"?>
<svg width="20px" height="20px" viewBox="0 0 20 20" version="1.1" xmlns="http://www.w3.org/2000/svg" xmlns:xlink="http://www.w3.org/1999/xlink">
    <!-- Generator: Sketch 52.1 (67048) - http://www.bohemiancoding.com/sketch -->
    <title>Shape</title>
    <desc>Created with Sketch.</desc>
    <g id="web" stroke="none" stroke-width="1" fill="none" fill-rule="evenodd">
        <g id="givings-user-1st-screen" transform="translate(-879.000000, -133.000000)" fill="#D30101">
            <g id="Group-2" transform="translate(320.000000, 118.000000)">
                <path d="M576.813665,15.024878 C576.888299,15.0263414 576.962445,15.0304877 577.036591,15.0390243 C577.207566,15.0585364 577.376346,15.0985363 577.538297,15.1578044 C577.836345,15.2670724 578.109271,15.4419499 578.333661,15.6663394 C578.564392,15.8970704 578.742684,16.1790208 578.85122,16.4870686 C578.90561,16.6409706 578.942439,16.801214 578.960976,16.9634086 C578.969512,17.0373109 578.973659,17.1117009 578.975122,17.1860909 C579.008049,22.3953433 579.008049,27.6048396 578.975122,32.8138481 C578.973659,32.888482 578.969512,32.9626282 578.960976,33.0367743 C578.941464,33.2077494 578.901464,33.3765293 578.842196,33.5382362 C578.732928,33.8365279 578.55805,34.10921 578.333661,34.3338435 C578.109271,34.5582331 577.836345,34.7331106 577.538053,34.8423785 C577.385127,34.8984759 577.225615,34.9372563 577.063908,34.957744 C576.980982,34.9684757 576.897567,34.9735976 576.813665,34.975305 C571.604657,35.0082317 566.39516,35.0082317 561.185908,34.975305 C561.10225,34.9735976 561.018835,34.9684757 560.935909,34.957744 C560.773958,34.9372563 560.61469,34.8984759 560.46152,34.8423785 C560.163472,34.7331106 559.890546,34.5582331 559.666157,34.3338435 C559.441767,34.10921 559.266889,33.8365279 559.157621,33.5382362 C559.098353,33.3765293 559.058353,33.2077494 559.038841,33.0367743 C559.030305,32.9626282 559.026158,32.888482 559.024695,32.8138481 C558.991768,27.6048396 558.991768,22.3953433 559.024695,17.1860909 C559.026158,17.1117009 559.030305,17.0373109 559.038841,16.9634086 C559.057378,16.801214 559.094207,16.6409706 559.148597,16.4870686 C559.257133,16.1790208 559.435426,15.8970704 559.666157,15.6663394 C559.890546,15.4419499 560.163472,15.2670724 560.46152,15.1578044 C560.623227,15.0985363 560.792007,15.0585364 560.963226,15.0390243 C561.037372,15.0304877 561.111518,15.0263414 561.186152,15.024878 C566.39516,14.9917073 571.604657,14.9917073 576.813665,15.024878 Z M578.504636,20.3773007 L559.495181,20.3773007 C559.479572,24.5207027 559.484938,28.6643486 559.511279,32.8077506 C559.514937,32.9999451 559.548352,33.1901884 559.614449,33.3709196 C559.699571,33.6028701 559.835668,33.8150646 560.010302,33.9896982 C560.184935,34.1643318 560.39713,34.300429 560.62908,34.3855507 C560.809812,34.451648 561.000055,34.4850625 561.192249,34.4887211 C566.397112,34.5216478 571.602462,34.5216478 576.807568,34.4887211 C576.999762,34.4850625 577.190006,34.451648 577.370737,34.3855507 C577.602687,34.300429 577.814882,34.1643318 577.989515,33.9896982 C578.164149,33.8150646 578.300246,33.6028701 578.385368,33.3709196 C578.451465,33.1901884 578.48488,32.9999451 578.488538,32.8077506 C578.51488,28.6643486 578.520245,24.5207027 578.504636,20.3773007 Z M565.361993,24.5136295 C565.385163,24.5153368 565.407846,24.5192393 565.430041,24.5268002 C565.496139,24.549727 565.550285,24.6014341 565.576138,24.666312 C565.586382,24.6916778 565.591504,24.7180192 565.593456,24.7450922 C565.605163,25.2392371 565.605163,25.7338697 565.593456,26.2280145 C565.591748,26.2514291 565.587846,26.274112 565.580285,26.2960631 C565.557358,26.3624044 565.505895,26.4163067 565.440773,26.4424041 C565.415407,26.452648 565.389066,26.457526 565.361993,26.4594773 C564.867848,26.4714284 564.373215,26.4714284 563.87907,26.4594773 C563.855656,26.4580138 563.833217,26.4541114 563.811022,26.4465505 C563.744925,26.4236237 563.690778,26.3719165 563.664681,26.3070387 C563.654437,26.2816729 563.649559,26.2553315 563.647608,26.2280145 C563.635901,25.7338697 563.635901,25.2392371 563.647608,24.7450922 C563.649315,24.7219216 563.652974,24.6992387 563.660535,24.6772876 C563.683461,24.6109463 563.735168,24.5568001 563.800046,24.5309466 C563.825412,24.5207027 563.851754,24.5155807 563.87907,24.5136295 C564.373215,24.5019223 564.867848,24.5019223 565.361993,24.5136295 Z M568.281496,24.5136295 C568.304911,24.5153368 568.32735,24.5192393 568.349545,24.5268002 C568.415642,24.549727 568.469788,24.6014341 568.495886,24.666312 C568.50613,24.6916778 568.511008,24.7180192 568.512959,24.7450922 C568.524666,25.2392371 568.524666,25.7338697 568.512959,26.2280145 C568.511251,26.2514291 568.507593,26.274112 568.499788,26.2960631 C568.477105,26.3624044 568.425398,26.4163067 568.36052,26.4424041 C568.335154,26.452648 568.308813,26.457526 568.281496,26.4594773 C567.787351,26.4714284 567.292719,26.4714284 566.798574,26.4594773 C566.771501,26.457526 566.745159,26.452648 566.719794,26.4424041 C566.654672,26.4163067 566.603209,26.3624044 566.580282,26.2960631 C566.572721,26.274112 566.568818,26.2514291 566.567111,26.2280145 C566.555404,25.7338697 566.555404,25.2392371 566.567111,24.7450922 C566.568818,24.7219216 566.572721,24.6992387 566.580282,24.6772876 C566.603209,24.6109463 566.654672,24.5568001 566.719794,24.5309466 C566.745159,24.5207027 566.771501,24.5155807 566.798574,24.5136295 C567.292719,24.5019223 567.787351,24.5019223 568.281496,24.5136295 Z M562.442246,24.5136295 C562.469563,24.5155807 562.495904,24.5207027 562.52127,24.5309466 C562.586148,24.5568001 562.637855,24.6109463 562.660782,24.6772876 C562.668342,24.6992387 562.672245,24.7219216 562.673708,24.7450922 C562.685659,25.2392371 562.685659,25.7338697 562.673708,26.2280145 C562.672245,26.2514291 562.668342,26.274112 562.660782,26.2960631 C562.637855,26.3624044 562.586148,26.4163067 562.52127,26.4424041 C562.495904,26.452648 562.469563,26.457526 562.442246,26.4594773 C561.948101,26.4714284 561.453468,26.4714284 560.959323,26.4594773 C560.936153,26.4580138 560.91347,26.4541114 560.891275,26.4465505 C560.825177,26.4236237 560.771031,26.3719165 560.745178,26.3070387 C560.734934,26.2816729 560.729812,26.2553315 560.727861,26.2280145 C560.716153,25.7338697 560.716153,25.2392371 560.727861,24.7450922 C560.729568,24.7219216 560.73347,24.6992387 560.741031,24.6772876 C560.763958,24.6109463 560.815421,24.5568001 560.880543,24.5309466 C560.905909,24.5207027 560.93225,24.5155807 560.959323,24.5136295 C561.453468,24.5019223 561.948101,24.5019223 562.442246,24.5136295 Z M564.133948,24.9999695 L564.133948,25.9731373 L565.107116,25.9731373 L565.107116,24.9999695 C564.782726,24.9999695 564.458337,24.9999695 564.133948,24.9999695 Z M568.026619,24.9999695 L567.053451,24.9999695 L567.053451,25.9731373 L568.026619,25.9731373 L568.026619,24.9999695 Z M562.187368,24.9999695 L561.214201,24.9999695 L561.214201,25.9731373 L562.187368,25.9731373 L562.187368,24.9999695 Z M577.040494,21.5941262 C577.063664,21.5958335 577.086347,21.5994921 577.108298,21.6072969 C577.17464,21.6302237 577.228786,21.6816869 577.254639,21.7468087 C577.264883,21.7721745 577.270005,21.7985159 577.271956,21.8255889 C577.283664,22.3197338 577.283664,22.8143664 577.271956,23.3085113 C577.270249,23.3316819 577.266347,23.3543648 577.258786,23.3765598 C577.235859,23.4426572 577.184152,23.4968034 577.119274,23.5229008 C577.093908,23.5329008 577.067567,23.5380227 577.040494,23.539974 C576.546105,23.5516812 576.051716,23.5516812 575.557328,23.539974 C575.530254,23.5380227 575.503913,23.5329008 575.478547,23.5229008 C575.413669,23.4968034 575.361962,23.4426572 575.339036,23.3765598 C575.331475,23.3543648 575.327572,23.3316819 575.326109,23.3085113 C575.314158,22.8143664 575.314158,22.3197338 575.326109,21.8255889 C575.327816,21.7985159 575.332938,21.7721745 575.343182,21.7468087 C575.369279,21.6816869 575.423182,21.6302237 575.489523,21.6072969 C575.511474,21.5994921 575.534157,21.5958335 575.557328,21.5941262 C576.051716,21.582419 576.546105,21.582419 577.040494,21.5941262 Z M568.281496,21.5941262 C568.304911,21.5958335 568.32735,21.5994921 568.349545,21.6072969 C568.415642,21.6302237 568.469788,21.6816869 568.495886,21.7468087 C568.50613,21.7721745 568.511008,21.7985159 568.512959,21.8255889 C568.524666,22.3197338 568.524666,22.8143664 568.512959,23.3085113 C568.511251,23.3316819 568.507593,23.3543648 568.499788,23.3765598 C568.477105,23.4426572 568.425398,23.4968034 568.36052,23.5229008 C568.335154,23.5329008 568.308813,23.5380227 568.281496,23.539974 C567.787351,23.5516812 567.292719,23.5516812 566.798574,23.539974 C566.771501,23.5380227 566.745159,23.5329008 566.719794,23.5229008 C566.654672,23.4968034 566.603209,23.4426572 566.580282,23.3765598 C566.572721,23.3543648 566.568818,23.3316819 566.567111,23.3085113 C566.555404,22.8143664 566.555404,22.3197338 566.567111,21.8255889 C566.568818,21.8024183 566.572721,21.7797354 566.580282,21.7575404 C566.603209,21.691443 566.654672,21.6372968 566.719794,21.6111994 C567.431499,21.5920124 567.952066,21.5863214 568.281496,21.5941262 Z M571.201243,21.5941262 C571.224414,21.5958335 571.247097,21.5994921 571.269292,21.6072969 C571.335389,21.6302237 571.389535,21.6816869 571.415389,21.7468087 C571.425633,21.7721745 571.430755,21.7985159 571.432706,21.8255889 C571.444413,22.3197338 571.444413,22.8143664 571.432706,23.3085113 C571.430999,23.3316819 571.427096,23.3543648 571.419535,23.3765598 C571.396609,23.4426572 571.345145,23.4968034 571.280024,23.5229008 C571.254658,23.5329008 571.228316,23.5380227 571.201243,23.539974 C570.707098,23.5516812 570.212466,23.5516812 569.718321,23.539974 C569.691004,23.5380227 569.664663,23.5329008 569.639297,23.5229008 C569.574419,23.4968034 569.522712,23.4426572 569.499785,23.3765598 C569.492224,23.3543648 569.488322,23.3316819 569.486858,23.3085113 C569.474907,22.8143664 569.474907,22.3197338 569.486858,21.8255889 C569.488809,21.7985159 569.493688,21.7721745 569.503931,21.7468087 C569.530029,21.6816869 569.583931,21.6302237 569.650272,21.6072969 C569.672224,21.5994921 569.694906,21.5958335 569.718321,21.5941262 C570.212466,21.582419 570.707098,21.582419 571.201243,21.5941262 Z M574.120747,21.5941262 C574.148064,21.5960775 574.174161,21.6011994 574.199527,21.6111994 C574.264649,21.6372968 574.316112,21.691443 574.339039,21.7575404 C574.346843,21.7797354 574.350502,21.8024183 574.352209,21.8255889 C574.363917,22.3197338 574.363917,22.8143664 574.352209,23.3085113 C574.350502,23.3316819 574.346843,23.3543648 574.339039,23.3765598 C574.316112,23.4426572 574.264649,23.4968034 574.199527,23.5229008 C574.174161,23.5329008 574.148064,23.5380227 574.120747,23.539974 C573.626602,23.5516812 573.131969,23.5516812 572.637824,23.539974 C572.614654,23.5382667 572.591971,23.5346081 572.569776,23.5268033 C572.503678,23.5038765 572.449532,23.4524133 572.423435,23.3872915 C572.413435,23.3619257 572.408313,23.3355843 572.406362,23.3085113 C572.394654,22.8143664 572.394654,22.3197338 572.406362,21.8255889 C572.408313,21.7985159 572.413435,21.7721745 572.423435,21.7468087 C572.449532,21.6816869 572.503678,21.6302237 572.569776,21.6072969 C572.591971,21.5994921 572.614654,21.5958335 572.637824,21.5941262 C573.131969,21.582419 573.626602,21.582419 574.120747,21.5941262 Z M576.785617,22.0804662 L575.812205,22.0804662 L575.812205,23.053634 L576.785617,23.053634 L576.785617,22.0804662 Z M568.026619,22.0804662 L567.053451,22.0804662 L567.053451,23.053634 L568.026619,23.053634 L568.026619,22.0804662 Z M569.973198,22.0804662 L569.973198,23.053634 L570.946366,23.053634 L570.946366,22.0804662 C570.621977,22.0804662 570.297588,22.0804662 569.973198,22.0804662 Z M572.892702,22.0804662 L572.892702,23.053634 L573.865869,23.053634 L573.865869,22.0804662 C573.54148,22.0804662 573.217091,22.0804662 572.892702,22.0804662 Z M578.502684,19.8907168 C578.499026,18.9912073 578.494148,18.0916979 578.488538,17.1924323 C578.48488,16.9999939 578.451465,16.8099945 578.385368,16.6292633 C578.300246,16.3973128 578.164149,16.1851183 577.989515,16.0104847 C577.814882,15.8358511 577.602687,15.6995101 577.370737,15.6146323 C577.190006,15.5485349 576.999762,15.5151204 576.807568,15.5114619 C571.610266,15.4785351 566.412477,15.511218 561.214932,15.511218 C561.149323,15.5117058 561.083957,15.5148765 561.018591,15.5224374 C560.885665,15.5375593 560.75469,15.5685349 560.62908,15.6146323 C560.39713,15.6995101 560.184935,15.8358511 560.010302,16.0104847 C559.835668,16.1851183 559.699571,16.3973128 559.614449,16.6292633 C559.548352,16.8099945 559.514937,16.9999939 559.511279,17.1924323 C559.505669,18.0916979 559.500791,18.9912073 559.497133,19.8907168 L578.502684,19.8907168 Z" id="Shape"></path>
            </g>
        </g>
    </g>
</svg>