<?xml version="1.0" encoding="UTF-8"?>
<svg width="19px" height="18px" viewBox="0 0 19 18" version="1.1" xmlns="http://www.w3.org/2000/svg" xmlns:xlink="http://www.w3.org/1999/xlink">
    <!-- Generator: Sketch 51.3 (57544) - http://www.bohemiancoding.com/sketch -->
    <title>Shape Copy</title>
    <desc>Created with Sketch.</desc>
    <defs></defs>
    <g id="IOS(Feed)" stroke="none" stroke-width="1" fill="none" fill-rule="evenodd">
        <g id="Likes---like" transform="translate(-56.000000, -325.000000)" fill="#D31D01" fill-rule="nonzero">
            <path d="M60.6395349,339.208096 C62.8930233,341.408336 65.1023256,342.859559 65.1906977,342.92978 C65.2569767,342.976593 65.3453488,343 65.4116279,343 C65.5,343 65.5662791,342.976593 65.6325581,342.92978 C65.7209302,342.859559 67.9744186,341.408336 70.272093,339.208096 C73.4093023,336.212023 75,333.403205 75,330.875269 L75,330.711421 C75,327.551501 72.7465116,325.000158 69.9848837,325.000158 C68.0627907,325.000158 66.2732558,326.287533 65.455814,328.277113 C64.594186,326.287533 62.8488372,325.000158 60.9488372,325.000158 C58.2093023,324.976752 56,327.551501 56,330.688015 L56,330.851862 C56,333.403205 57.5686047,336.212023 60.6395349,339.208096 Z" id="Shape-Copy"></path>
        </g>
    </g>
</svg>