<?xml version="1.0" encoding="UTF-8"?>
<svg width="21px" height="14px" viewBox="0 0 21 14" version="1.1" xmlns="http://www.w3.org/2000/svg" xmlns:xlink="http://www.w3.org/1999/xlink">
    <!-- Generator: Sketch 52.5 (67469) - http://www.bohemiancoding.com/sketch -->
    <title>Combined Shape Copy 3</title>
    <desc>Created with Sketch.</desc>
    <g id="Page-1" stroke="none" stroke-width="1" fill="none" fill-rule="evenodd">
        <g id="bulletin-member-copy-7" transform="translate(-290.000000, -238.000000)" fill="#087E8B">
            <g id="card-prayer" transform="translate(270.000000, 90.000000)">
                <g id="praise" transform="translate(20.000000, 148.000000)">
                    <path d="M8.34746537,9.08133597 C9.08118377,10.3250932 9.02925585,12.4134474 8.96723667,14 C7.71444929,14 7.08816072,14 5.83537334,14 C5.65436143,11.0878842 3.45572904,10.5841088 2.0892048,9.22389322 C1.55142495,8.68853589 0.764517218,7.97794279 0.309779996,6.5534668 C-0.157150826,5.08951343 -0.00199776582,1.57975374 0.167871709,0 C1.77322234,0.000438637717 1.17447449,2.03747219 1.63509828,4.6333302 C1.8314573,5.73979384 3.00141229,6.55894978 3.99771358,7.40332738 C4.53465249,7.85841401 4.64628701,7.88012658 4.21278347,7.28906226 C3.12776322,5.8090986 2.33749174,3.00422972 3.93968886,2.84544287 C4.54306187,5.98455369 7.56265998,7.64435881 8.34746537,9.08133597 Z M12.6526979,9.08133597 C13.4372925,7.64413949 16.4570989,5.98455369 17.0604715,2.84522355 C18.6626675,3.0040104 17.8723966,5.80887928 16.787377,7.28884294 C16.3538738,7.87990726 16.4655082,7.85819469 17.0022365,7.40310806 C17.9985372,6.55873046 19.1687016,5.73957452 19.3648503,4.63311088 C19.8254737,2.03747219 19.2267263,0.000438637717 20.8320759,0 C21.0019452,1.57975374 21.1573084,5.08951343 20.6899574,6.5534668 C20.2354307,7.97794279 19.4483133,8.68853589 18.9105338,9.22389322 C17.5438003,10.5841088 15.3453796,11.0878842 15.1643678,14 C13.9115812,14 13.2852931,14 12.0325065,14 C11.9709079,12.4134474 11.91898,10.3250932 12.6526979,9.08133597 Z" id="Combined-Shape-Copy-3"></path>
                </g>
            </g>
        </g>
    </g>
</svg>