<?xml version="1.0" encoding="UTF-8"?>
<svg width="16px" height="14px" viewBox="0 0 16 14" version="1.1" xmlns="http://www.w3.org/2000/svg" xmlns:xlink="http://www.w3.org/1999/xlink">
    <!-- Generator: Sketch 52.5 (67469) - http://www.bohemiancoding.com/sketch -->
    <title>Combined Shape Copy 6</title>
    <desc>Created with Sketch.</desc>
    <g id="Page-1" stroke="none" stroke-width="1" fill="none" fill-rule="evenodd">
        <g id="bulletin-church-copy" transform="translate(-372.000000, -560.000000)" fill="#FFBA08" fill-rule="nonzero">
            <g id="card-church-post" transform="translate(270.000000, 412.000000)">
                <g id="pray" transform="translate(102.000000, 148.000000)">
                    <path d="M8.00000015,6.00515865 C8.00022651,5.59160359 8.25457678,5.2037613 8.66352243,5.0561148 C9.18390792,4.86791308 9.75787693,5.1405656 9.94455715,5.6648005 L10.5439149,7.34687256 L10.6039555,6.31031641 L8.70892473,1.01044149 C8.58177799,0.656639953 8.73434732,0.254945515 9.0762338,0.0812103735 C9.44570648,-0.106684999 9.89631509,0.0425420503 10.0829615,0.414588504 L12.7401966,5.71058298 C12.7970594,5.82498811 12.8305618,5.9578424 12.8305618,6.09461117 L12.8164982,10.0798312 L15.2584189,11.3707269 C15.9357348,11.7288854 16.1964853,12.5717595 15.84111,13.2534249 C15.48516,13.9353966 14.6483106,14.1979395 13.9709947,13.839815 L9.45767403,11.4535438 L9.35429335,11.3990473 C9.05189302,11.2367493 8.82417154,10.9401673 8.76196734,10.5732948 L8.01433366,6.17521556 C8.00473269,6.11882357 8.00003718,6.06236685 8.00000022,6.00637746 C7.99995948,6.06236917 7.99526043,6.11882867 7.98565558,6.17522392 L7.23805765,10.5732985 C7.17585361,10.9401706 6.94813272,11.2367182 6.64573318,11.3990501 L6.54235277,11.4535465 L2.02904384,13.8398152 C1.35172971,14.1979393 0.514882508,13.9353966 0.1589334,13.2534257 C-0.19650861,12.571727 0.0642412685,11.7288538 0.741589197,11.3707297 L3.18350353,10.0798354 L3.16944001,6.09461961 C3.16944001,5.95785099 3.20294229,5.82499685 3.2598049,5.71059183 L5.91706692,0.414603019 C6.10371285,0.0425569627 6.55428648,-0.106703967 6.92379201,0.0812252445 C7.2656776,0.254960201 7.41828034,0.656688248 7.29110012,1.01045537 L5.39607426,6.31032463 L5.45614849,7.34687966 L6.05550472,5.66480941 C6.24218446,5.14054103 6.81615197,4.86792283 7.33653612,5.05612436 C7.74545168,5.20374101 7.99979791,5.59158042 7.99999988,6.00515865 Z" id="Combined-Shape-Copy-6"></path>
                </g>
            </g>
        </g>
    </g>
</svg>