<?xml version="1.0" encoding="UTF-8"?>
<svg width="25px" height="21px" viewBox="0 0 25 21" version="1.1" xmlns="http://www.w3.org/2000/svg" xmlns:xlink="http://www.w3.org/1999/xlink">
    <!-- Generator: Sketch 51.3 (57544) - http://www.bohemiancoding.com/sketch -->
    <title>pray copy</title>
    <desc>Created with Sketch.</desc>
    <defs></defs>
    <g id="IOS(Feed)" stroke="none" stroke-width="1" fill="none" fill-rule="evenodd">
        <g id="Likes---like" transform="translate(-91.000000, -323.000000)" fill="#087E8B" fill-rule="nonzero">
            <g id="pray-copy" transform="translate(91.000000, 323.000000)">
                <path d="M22.3399721,20.9665292 C21.9144838,20.9692995 21.4946051,20.8715384 21.1160467,20.6815603 L14.2484649,17.2619325 C13.6184537,16.9429023 13.174056,16.3576294 13.0439669,15.6756052 L12.5,12.6074392 L11.9560331,15.6756052 C11.828072,16.3534067 11.3870943,16.9353913 10.7612488,17.2524336 L3.88395333,20.7100571 C2.5889198,21.3588982 1.0010315,20.8833835 0.299600207,19.636674 C-0.0208002925,19.0534855 -0.0873318313,18.3686349 0.115040019,17.7368808 C0.319082982,17.0780269 0.789193358,16.5291096 1.41667503,16.2170463 L4.72904472,14.5167314 L4.72904472,9.23530634 C4.72961468,8.95403893 4.79959155,8.67706043 4.93303229,8.42789424 L8.88650579,0.933210149 C9.32545732,0.12614851 10.3408679,-0.193619607 11.1789376,0.211288741 C11.9546714,0.579252546 12.3197881,1.46160637 12.024029,2.25356641 L10.0812902,7.30701627 C10.5855931,7.06929349 11.1661339,7.03851417 11.6937634,7.22152557 C11.9927879,7.31060901 12.2680617,7.46304113 12.5,7.66797697 C12.7225326,7.45173623 12.9912191,7.28630289 13.2868092,7.18352971 C13.8144387,7.0005183 14.3949795,7.03129763 14.8992824,7.2690204 L12.9565436,2.20607158 C12.6617826,1.41678216 13.0273038,0.537559191 13.801635,0.173292878 C14.642245,-0.230160018 15.658528,0.0940939301 16.0940668,0.904713252 L20.0475403,8.38989838 C20.1809811,8.63906456 20.2509579,8.91604306 20.2515279,9.19731048 L20.2515279,14.4787355 L23.583325,16.2170463 C24.2108066,16.5291096 24.680917,17.0780269 24.88496,17.7368808 C25.0873318,18.3686349 25.0208003,19.0534855 24.7003998,19.636674 C24.2212125,20.4684546 23.3161721,20.9783506 22.3399721,20.9665292 Z M13.0925353,9.11181979 C13.0871381,9.15599119 13.0871381,9.20063391 13.0925353,9.24480531 L14.1998965,15.466628 C14.2633345,15.7917599 14.4741023,16.0712293 14.7730044,16.2265452 L21.6405862,19.6746699 C22.3679233,20.045328 23.264836,19.7741518 23.6513208,19.066736 C23.8276614,18.7458516 23.8627351,18.36857 23.7484578,18.0218498 C23.6325566,17.6628943 23.373363,17.364903 23.0296444,17.1954398 L19.0761709,15.2671497 L19.0761709,9.27330221 C19.0780115,9.17729892 19.0545977,9.08244327 19.008175,8.9978322 L15.0741289,1.47465121 C14.9368365,1.22656769 14.6229501,1.12985814 14.3650293,1.25617499 C14.1382992,1.35958013 14.028985,1.61448996 14.1124732,1.84511088 L16.978013,9.44428359 L16.880876,11.0306109 L15.7249464,11.2015923 L14.8410003,8.81735184 C14.6390189,8.38977486 14.1471379,8.17150248 13.6850707,8.30440769 C13.336576,8.42331886 13.1003222,8.74146025 13.0925353,9.10232082 L11.9074647,9.10232082 C11.8996778,8.74146025 11.663424,8.42331886 11.3149293,8.30440769 C10.8540904,8.14870216 10.3494585,8.37453045 10.1687134,8.81735184 L9.27505356,11.2015923 L8.11912396,11.0306109 L8.02198702,9.44428359 L10.8875268,1.84511088 C10.9760548,1.61437297 10.8653185,1.35614682 10.6349707,1.25617499 C10.3770499,1.12985814 10.0631635,1.22656769 9.92587106,1.47465121 L5.97239756,8.95983633 C5.9259749,9.0444474 5.90256113,9.13930305 5.9044017,9.23530634 L5.9044017,15.2291538 L1.97035559,17.2144377 C1.62663696,17.383901 1.36744343,17.6818923 1.25154223,18.0408477 C1.1372649,18.387568 1.17233856,18.7648495 1.34867917,19.085734 C1.74134853,19.7751498 2.62242953,20.0357325 3.33998646,19.6746699 L10.2075682,16.2170463 C10.5079648,16.0681592 10.7199679,15.7905658 10.7806761,15.466628 L11.8880373,9.25430428 C11.8927792,9.20692263 11.8927792,9.15920143 11.8880373,9.11181979 L13.0925353,9.11181979 Z" id="Shape"></path>
            </g>
        </g>
    </g>
</svg>