<?xml version="1.0" encoding="utf-8"?>
<!-- Generator: Adobe Illustrator 22.1.0, SVG Export Plug-In . SVG Version: 6.00 Build 0)  -->
<svg version="1.1" id="Layer_1" xmlns="http://www.w3.org/2000/svg" xmlns:xlink="http://www.w3.org/1999/xlink" x="0px" y="0px"
	 viewBox="0 0 30 30" style="enable-background:new 0 0 30 30;" xml:space="preserve">
<style type="text/css">
	.st0{fill:#FFBA08;}
	.st1{fill:#979797;}
	.st2{fill:#087E8B;}
</style>
<path class="st1" d="M29.2,22.7c-0.2-0.8-0.7-1.4-1.4-1.8l-3.7-2v-6.2c0-0.3-0.1-0.7-0.2-1l-4.5-8.7c-0.6-1-1.7-1.3-2.6-0.9
	c-0.9,0.4-1.3,1.4-1,2.3l2.2,5.8c-0.6-0.2-1.2-0.3-1.9-0.1c-0.3,0.1-0.7,0.3-0.9,0.6c-0.2-0.2-0.6-0.4-0.9-0.6
	c-0.7-0.2-1.3-0.1-1.9,0.1l2.2-5.8c0.3-0.9-0.1-1.9-1-2.3c-1-0.4-2.2,0-2.6,0.9l-4.5,8.7c-0.1,0.3-0.2,0.7-0.2,1v6.2l-3.9,2
	c-0.7,0.3-1.2,1-1.4,1.8c-0.2,0.7-0.1,1.5,0.2,2.2c0.8,1.4,2.6,2,4.1,1.2l7.8-4c0.7-0.4,1.2-1.1,1.3-1.9l0.7-3.5l0.6,3.5
	c0.1,0.8,0.6,1.5,1.3,1.9l7.8,4c0.4,0.2,1,0.3,1.4,0.3c1.1,0,2.2-0.6,2.9-1.5C29.3,24.2,29.4,23.4,29.2,22.7z M12.9,20
	c-0.1,0.3-0.3,0.7-0.7,0.9l-7.8,4c-0.8,0.4-1.8,0.1-2.2-0.7C2,23.9,2,23.4,2.1,23c0.1-0.4,0.3-0.8,0.8-1l4.5-2.3v-6.9
	c0-0.1,0.1-0.2,0.1-0.3L12,3.7c0.1-0.2,0.4-0.3,0.8-0.2s0.4,0.4,0.3,0.7L9.9,13l0.1,1.9l1.3,0.2l1-2.8c0.2-0.4,0.8-0.8,1.3-0.6
	c0.4,0.1,0.7,0.4,0.7,0.9L12.9,20z M27.5,24.2c-0.3,0.8-1.4,1.1-2.2,0.7l-7.8-4c-0.3-0.2-0.6-0.6-0.7-0.9l-1.2-7.4
	c0-0.4,0.4-0.7,0.6-0.8c0.5-0.2,1.1,0,1.3,0.6l1,2.8l1.3-0.2l0.1-1.9l-3.2-8.8c0-0.2,0.1-0.6,0.3-0.7c0.2-0.2,0.7-0.1,0.8,0.2
	l4.5,8.7c0.1,0.1,0.1,0.2,0.1,0.3v6.9l4.4,2.2c0.3,0.2,0.7,0.6,0.8,1S27.7,23.9,27.5,24.2z"/>
</svg>
